G04*
G04 #@! TF.GenerationSoftware,Altium Limited,Altium Designer,21.2.1 (34)*
G04*
G04 Layer_Color=8388736*
%FSLAX25Y25*%
%MOIN*%
G70*
G04*
G04 #@! TF.SameCoordinates,C8088A2D-8FE3-47FC-8117-10DBF048AEFC*
G04*
G04*
G04 #@! TF.FilePolarity,Negative*
G04*
G01*
G75*
%ADD45R,0.03162X0.05131*%
%ADD46R,0.03950X0.05524*%
%ADD47R,0.03950X0.03950*%
%ADD48R,0.03162X0.06902*%
%ADD49R,0.13005X0.11036*%
%ADD50R,0.06312X0.02572*%
%ADD51R,0.02572X0.06706*%
%ADD52O,0.06693X0.01575*%
%ADD53R,0.03556X0.03320*%
%ADD54R,0.03556X0.02769*%
%ADD55R,0.14186X0.13398*%
%ADD56O,0.01575X0.03543*%
%ADD57O,0.03543X0.01575*%
%ADD58R,0.16548X0.06706*%
%ADD59R,0.09068X0.05524*%
%ADD60R,0.05524X0.09068*%
%ADD61R,0.03556X0.05524*%
%ADD62R,0.05524X0.03556*%
%ADD63R,0.05524X0.03950*%
%ADD64C,0.06600*%
%ADD65C,0.05918*%
%ADD66C,0.04343*%
%ADD67C,0.11811*%
%ADD68C,0.06706*%
%ADD69C,0.13398*%
%ADD70C,0.10249*%
%ADD71C,0.10800*%
%ADD72R,0.06706X0.06706*%
%ADD73C,0.02769*%
%ADD74C,0.03556*%
%ADD75C,0.02756*%
G36*
X-667569Y389537D02*
X-666494Y389092D01*
X-665527Y388445D01*
X-664704Y387623D01*
X-664058Y386656D01*
X-663613Y385581D01*
X-663386Y384440D01*
Y383858D01*
Y383277D01*
X-663613Y382136D01*
X-664058Y381061D01*
X-664704Y380094D01*
X-665527Y379271D01*
X-666494Y378625D01*
X-667569Y378180D01*
X-668710Y377953D01*
X-669873D01*
X-671014Y378180D01*
X-672089Y378625D01*
X-673056Y379271D01*
X-673878Y380094D01*
X-674525Y381061D01*
X-674970Y382136D01*
X-675197Y383277D01*
Y383858D01*
X-675197Y384440D01*
X-674970Y385581D01*
X-674525Y386656D01*
X-673878Y387623D01*
X-673056Y388445D01*
X-672089Y389092D01*
X-671014Y389537D01*
X-669873Y389764D01*
X-668710D01*
X-667569Y389537D01*
D02*
G37*
G36*
X-435300Y339273D02*
X-434800D01*
X-434754Y339269D01*
X-434708Y339258D01*
X-434665Y339240D01*
X-434626Y339216D01*
X-434590Y339186D01*
X-434560Y339151D01*
X-434536Y339111D01*
X-434518Y339068D01*
X-434507Y339023D01*
X-434504Y338976D01*
Y325591D01*
X-434507Y325544D01*
X-434513Y325521D01*
X-434518Y325499D01*
X-434528Y325474D01*
X-434536Y325456D01*
X-434536Y325456D01*
Y325456D01*
X-434560Y325416D01*
X-434590Y325381D01*
X-435378Y324594D01*
X-435413Y324564D01*
X-435453Y324539D01*
X-435465Y324534D01*
X-435496Y324521D01*
X-435541Y324511D01*
X-435587Y324507D01*
X-448973D01*
X-449019Y324511D01*
X-449064Y324521D01*
X-449108Y324539D01*
X-449147Y324564D01*
X-449183Y324594D01*
X-449213Y324629D01*
X-449237Y324669D01*
X-449255Y324712D01*
X-449266Y324757D01*
X-449269Y324803D01*
Y325590D01*
Y338189D01*
Y338976D01*
X-449266Y339023D01*
X-449255Y339068D01*
X-449237Y339111D01*
X-449213Y339151D01*
X-449183Y339186D01*
X-449147Y339216D01*
X-449108Y339240D01*
X-449064Y339258D01*
X-449019Y339269D01*
X-448973Y339273D01*
X-444973Y339273D01*
X-444973Y339273D01*
X-444973Y339273D01*
X-444949Y339271D01*
X-444927Y339269D01*
X-444927Y339269D01*
X-444927Y339269D01*
X-444886Y339259D01*
X-444881Y339258D01*
X-444881D01*
X-444881Y339258D01*
X-444857Y339248D01*
X-444838Y339240D01*
X-444838Y339240D01*
X-444838Y339240D01*
X-444827Y339233D01*
X-444799Y339216D01*
X-444799Y339216D01*
X-444799Y339216D01*
X-444788Y339207D01*
X-444764Y339186D01*
X-444763Y339186D01*
X-444763Y339186D01*
X-444464Y338886D01*
X-441309Y338886D01*
X-441009Y339186D01*
X-441009Y339186D01*
X-441009Y339186D01*
X-440974Y339216D01*
X-440934Y339240D01*
X-440911Y339250D01*
X-440892Y339258D01*
X-440891Y339258D01*
D01*
X-440890Y339259D01*
X-440846Y339269D01*
X-440800Y339273D01*
X-440800D01*
X-440800D01*
X-435300Y339273D01*
D02*
G37*
G36*
Y258493D02*
X-434800D01*
X-434754Y258489D01*
X-434708Y258478D01*
X-434665Y258461D01*
X-434626Y258436D01*
X-434590Y258406D01*
X-434560Y258371D01*
X-434536Y258331D01*
X-434518Y258288D01*
X-434507Y258243D01*
X-434504Y258197D01*
Y244811D01*
X-434507Y244765D01*
X-434513Y244741D01*
X-434518Y244720D01*
X-434528Y244694D01*
X-434536Y244677D01*
X-434536Y244676D01*
Y244676D01*
X-434560Y244637D01*
X-434590Y244602D01*
X-435378Y243814D01*
X-435413Y243784D01*
X-435453Y243760D01*
X-435465Y243755D01*
X-435496Y243742D01*
X-435541Y243731D01*
X-435587Y243727D01*
X-448973D01*
X-449019Y243731D01*
X-449064Y243742D01*
X-449108Y243760D01*
X-449147Y243784D01*
X-449183Y243814D01*
X-449213Y243849D01*
X-449237Y243889D01*
X-449255Y243932D01*
X-449266Y243977D01*
X-449269Y244024D01*
Y244811D01*
Y257409D01*
Y258197D01*
X-449266Y258243D01*
X-449255Y258288D01*
X-449237Y258331D01*
X-449213Y258371D01*
X-449183Y258406D01*
X-449147Y258436D01*
X-449108Y258461D01*
X-449064Y258478D01*
X-449019Y258489D01*
X-448973Y258493D01*
X-444973Y258493D01*
X-444973Y258493D01*
X-444973Y258493D01*
X-444949Y258491D01*
X-444927Y258489D01*
X-444927Y258489D01*
X-444927Y258489D01*
X-444886Y258480D01*
X-444881Y258479D01*
X-444881D01*
X-444881Y258478D01*
X-444857Y258468D01*
X-444838Y258461D01*
X-444838Y258461D01*
X-444838Y258461D01*
X-444827Y258454D01*
X-444799Y258436D01*
X-444799Y258436D01*
X-444799Y258436D01*
X-444788Y258428D01*
X-444764Y258406D01*
X-444763Y258406D01*
X-444763Y258406D01*
X-444464Y258106D01*
X-441309Y258106D01*
X-441009Y258406D01*
X-441009Y258406D01*
X-441009Y258406D01*
X-440974Y258436D01*
X-440934Y258461D01*
X-440911Y258470D01*
X-440892Y258479D01*
X-440891Y258479D01*
D01*
X-440890Y258479D01*
X-440846Y258489D01*
X-440800Y258493D01*
X-440800D01*
X-440800D01*
X-435300Y258493D01*
D02*
G37*
G36*
Y173493D02*
X-434800D01*
X-434754Y173489D01*
X-434708Y173478D01*
X-434665Y173461D01*
X-434626Y173436D01*
X-434590Y173406D01*
X-434560Y173371D01*
X-434536Y173331D01*
X-434518Y173288D01*
X-434507Y173243D01*
X-434504Y173197D01*
Y159811D01*
X-434507Y159765D01*
X-434513Y159741D01*
X-434518Y159720D01*
X-434528Y159694D01*
X-434536Y159677D01*
X-434536Y159677D01*
Y159677D01*
X-434560Y159637D01*
X-434590Y159602D01*
X-435378Y158814D01*
X-435413Y158784D01*
X-435453Y158760D01*
X-435465Y158755D01*
X-435496Y158742D01*
X-435541Y158731D01*
X-435587Y158727D01*
X-448973D01*
X-449019Y158731D01*
X-449064Y158742D01*
X-449108Y158760D01*
X-449147Y158784D01*
X-449183Y158814D01*
X-449213Y158850D01*
X-449237Y158889D01*
X-449255Y158932D01*
X-449266Y158977D01*
X-449269Y159024D01*
Y159811D01*
Y172409D01*
Y173197D01*
X-449266Y173243D01*
X-449255Y173288D01*
X-449237Y173331D01*
X-449213Y173371D01*
X-449183Y173406D01*
X-449147Y173436D01*
X-449108Y173461D01*
X-449064Y173478D01*
X-449019Y173489D01*
X-448973Y173493D01*
X-444973Y173493D01*
X-444973Y173493D01*
X-444973Y173493D01*
X-444949Y173491D01*
X-444927Y173489D01*
X-444927Y173489D01*
X-444927Y173489D01*
X-444886Y173480D01*
X-444881Y173479D01*
X-444881D01*
X-444881Y173478D01*
X-444857Y173468D01*
X-444838Y173461D01*
X-444838Y173461D01*
X-444838Y173461D01*
X-444827Y173454D01*
X-444799Y173436D01*
X-444799Y173436D01*
X-444799Y173436D01*
X-444788Y173428D01*
X-444764Y173406D01*
X-444763Y173406D01*
X-444763Y173406D01*
X-444464Y173107D01*
X-441309Y173106D01*
X-441009Y173406D01*
X-441009Y173406D01*
X-441009Y173406D01*
X-440974Y173436D01*
X-440934Y173461D01*
X-440911Y173470D01*
X-440892Y173479D01*
X-440891Y173479D01*
D01*
X-440890Y173479D01*
X-440846Y173489D01*
X-440800Y173493D01*
X-440800D01*
X-440800D01*
X-435300Y173493D01*
D02*
G37*
G36*
Y89493D02*
X-434800D01*
X-434754Y89489D01*
X-434708Y89478D01*
X-434665Y89461D01*
X-434626Y89437D01*
X-434590Y89406D01*
X-434560Y89371D01*
X-434536Y89331D01*
X-434518Y89288D01*
X-434507Y89243D01*
X-434504Y89197D01*
Y75811D01*
X-434507Y75765D01*
X-434513Y75741D01*
X-434518Y75719D01*
X-434528Y75694D01*
X-434536Y75677D01*
X-434536Y75677D01*
Y75677D01*
X-434560Y75637D01*
X-434590Y75602D01*
X-435378Y74814D01*
X-435413Y74784D01*
X-435453Y74760D01*
X-435465Y74755D01*
X-435496Y74742D01*
X-435541Y74731D01*
X-435587Y74727D01*
X-448973D01*
X-449019Y74731D01*
X-449064Y74742D01*
X-449108Y74760D01*
X-449147Y74784D01*
X-449183Y74814D01*
X-449213Y74849D01*
X-449237Y74889D01*
X-449255Y74932D01*
X-449266Y74977D01*
X-449269Y75024D01*
Y75811D01*
Y88409D01*
Y89197D01*
X-449266Y89243D01*
X-449255Y89288D01*
X-449237Y89331D01*
X-449213Y89371D01*
X-449183Y89406D01*
X-449147Y89437D01*
X-449108Y89461D01*
X-449064Y89478D01*
X-449019Y89489D01*
X-448973Y89493D01*
X-444973Y89493D01*
X-444973Y89493D01*
X-444973Y89493D01*
X-444949Y89491D01*
X-444927Y89489D01*
X-444927Y89489D01*
X-444927Y89489D01*
X-444886Y89480D01*
X-444881Y89479D01*
X-444881D01*
X-444881Y89478D01*
X-444857Y89468D01*
X-444838Y89461D01*
X-444838Y89461D01*
X-444838Y89461D01*
X-444827Y89454D01*
X-444799Y89437D01*
X-444799Y89436D01*
X-444799Y89436D01*
X-444788Y89428D01*
X-444764Y89406D01*
X-444763Y89406D01*
X-444763Y89406D01*
X-444464Y89107D01*
X-441309Y89106D01*
X-441009Y89406D01*
X-441009Y89406D01*
X-441009Y89406D01*
X-440974Y89437D01*
X-440934Y89461D01*
X-440911Y89470D01*
X-440892Y89479D01*
X-440891Y89479D01*
D01*
X-440890Y89479D01*
X-440846Y89489D01*
X-440800Y89493D01*
X-440800D01*
X-440800D01*
X-435300Y89493D01*
D02*
G37*
G36*
X-12057Y15521D02*
X-10982Y15076D01*
X-10015Y14430D01*
X-9192Y13607D01*
X-8546Y12640D01*
X-8101Y11565D01*
X-7874Y10424D01*
Y9843D01*
Y9261D01*
X-8101Y8120D01*
X-8546Y7045D01*
X-9192Y6078D01*
X-10015Y5255D01*
X-10982Y4609D01*
X-12057Y4164D01*
X-13198Y3937D01*
X-14361D01*
X-15502Y4164D01*
X-16577Y4609D01*
X-17544Y5255D01*
X-18367Y6078D01*
X-19013Y7045D01*
X-19458Y8120D01*
X-19685Y9261D01*
Y9843D01*
Y10424D01*
X-19458Y11565D01*
X-19013Y12640D01*
X-18367Y13607D01*
X-17544Y14430D01*
X-16577Y15076D01*
X-15502Y15521D01*
X-14361Y15748D01*
X-13198D01*
X-12057Y15521D01*
D02*
G37*
G36*
X-667569D02*
X-666494Y15076D01*
X-665527Y14430D01*
X-664704Y13607D01*
X-664058Y12640D01*
X-663613Y11565D01*
X-663386Y10424D01*
Y9843D01*
Y9261D01*
X-663613Y8120D01*
X-664058Y7045D01*
X-664704Y6078D01*
X-665527Y5255D01*
X-666494Y4609D01*
X-667569Y4164D01*
X-668710Y3937D01*
X-669873D01*
X-671014Y4164D01*
X-672089Y4609D01*
X-673056Y5255D01*
X-673878Y6078D01*
X-674525Y7045D01*
X-674970Y8120D01*
X-675197Y9261D01*
Y9843D01*
X-675197Y10424D01*
X-674970Y11565D01*
X-674525Y12640D01*
X-673878Y13607D01*
X-673056Y14430D01*
X-672089Y15076D01*
X-671014Y15521D01*
X-669873Y15748D01*
X-668710D01*
X-667569Y15521D01*
D02*
G37*
%LPC*%
G36*
X-441592Y337893D02*
X-444182D01*
X-444186Y337893D01*
X-444186D01*
D01*
D01*
X-447889Y337893D01*
X-447889Y325887D01*
X-435883Y325887D01*
X-435883Y337893D01*
X-441587Y337893D01*
D01*
D01*
X-441587D01*
X-441592Y337893D01*
D02*
G37*
G36*
Y257113D02*
X-444182D01*
X-444186Y257113D01*
X-444186D01*
D01*
D01*
X-447889Y257113D01*
X-447889Y245107D01*
X-435883Y245107D01*
X-435883Y257113D01*
X-441587Y257113D01*
D01*
D01*
X-441587D01*
X-441592Y257113D01*
D02*
G37*
G36*
Y172113D02*
X-444182D01*
X-444186Y172113D01*
X-444186D01*
D01*
D01*
X-447889Y172113D01*
X-447889Y160107D01*
X-435883Y160107D01*
X-435883Y172113D01*
X-441587Y172113D01*
D01*
D01*
X-441587D01*
X-441592Y172113D01*
D02*
G37*
G36*
Y88113D02*
X-444182D01*
X-444186Y88113D01*
X-444186D01*
D01*
D01*
X-447889Y88113D01*
X-447889Y76107D01*
X-435883Y76107D01*
X-435883Y88113D01*
X-441587Y88113D01*
D01*
D01*
X-441587D01*
X-441592Y88113D01*
D02*
G37*
%LPD*%
D45*
X-456193Y360752D02*
D03*
X-459934D02*
D03*
X-463674D02*
D03*
Y350516D02*
D03*
X-456193D02*
D03*
Y269736D02*
D03*
X-463674D02*
D03*
Y279972D02*
D03*
X-459934D02*
D03*
X-456193D02*
D03*
Y194972D02*
D03*
X-459934D02*
D03*
X-463674D02*
D03*
Y184736D02*
D03*
X-456193D02*
D03*
Y100736D02*
D03*
X-463674D02*
D03*
Y110972D02*
D03*
X-459934D02*
D03*
X-456193D02*
D03*
D46*
X-590988Y328500D02*
D03*
X-596500D02*
D03*
X-207361Y356874D02*
D03*
X-201850D02*
D03*
X-207361Y266323D02*
D03*
X-201850D02*
D03*
X-360905Y356874D02*
D03*
X-355393D02*
D03*
X-360905Y266323D02*
D03*
X-355393D02*
D03*
X-360404Y166874D02*
D03*
X-354892D02*
D03*
X-361408Y76669D02*
D03*
X-355897D02*
D03*
X-207408Y166669D02*
D03*
X-201897D02*
D03*
X-207408Y76669D02*
D03*
X-201897D02*
D03*
X-207361Y346963D02*
D03*
X-201850D02*
D03*
X-207361Y256412D02*
D03*
X-201850D02*
D03*
X-360905Y346963D02*
D03*
X-355393D02*
D03*
X-360905Y256412D02*
D03*
X-355393D02*
D03*
X-360404Y156963D02*
D03*
X-354892D02*
D03*
X-361408Y66758D02*
D03*
X-355897D02*
D03*
X-207408Y156758D02*
D03*
X-201897D02*
D03*
X-207408Y66758D02*
D03*
X-201897D02*
D03*
X-207361Y337158D02*
D03*
X-201850D02*
D03*
X-207361Y246607D02*
D03*
X-201850D02*
D03*
X-360905Y337158D02*
D03*
X-355393D02*
D03*
X-360905Y246607D02*
D03*
X-355393D02*
D03*
X-360404Y147158D02*
D03*
X-354892D02*
D03*
X-361408Y56953D02*
D03*
X-355897D02*
D03*
X-207408Y146953D02*
D03*
X-201897D02*
D03*
X-207408Y56953D02*
D03*
X-201897D02*
D03*
X-207361Y327346D02*
D03*
X-201850D02*
D03*
X-207361Y236795D02*
D03*
X-201850D02*
D03*
X-360905Y327346D02*
D03*
X-355393D02*
D03*
X-360905Y236795D02*
D03*
X-355393D02*
D03*
X-360404Y137346D02*
D03*
X-354892D02*
D03*
X-361408Y47142D02*
D03*
X-355897D02*
D03*
X-207408Y137142D02*
D03*
X-201897D02*
D03*
X-207408Y47142D02*
D03*
X-201897D02*
D03*
X-164607Y356874D02*
D03*
X-159095D02*
D03*
X-164607Y266323D02*
D03*
X-159095D02*
D03*
X-318150Y356874D02*
D03*
X-312638D02*
D03*
X-318150Y266323D02*
D03*
X-312638D02*
D03*
X-317649Y166874D02*
D03*
X-312138D02*
D03*
X-318654Y76669D02*
D03*
X-313142D02*
D03*
X-164654Y166669D02*
D03*
X-159142D02*
D03*
X-164654Y76669D02*
D03*
X-159142D02*
D03*
X-164607Y346963D02*
D03*
X-159095D02*
D03*
X-164607Y256412D02*
D03*
X-159095D02*
D03*
X-318150Y346963D02*
D03*
X-312638D02*
D03*
X-318150Y256412D02*
D03*
X-312638D02*
D03*
X-317649Y156963D02*
D03*
X-312138D02*
D03*
X-318654Y66758D02*
D03*
X-313142D02*
D03*
X-164654Y156758D02*
D03*
X-159142D02*
D03*
X-164654Y66758D02*
D03*
X-159142D02*
D03*
X-164607Y337158D02*
D03*
X-159095D02*
D03*
X-164607Y246607D02*
D03*
X-159095D02*
D03*
X-318150Y337158D02*
D03*
X-312638D02*
D03*
X-318150Y246607D02*
D03*
X-312638D02*
D03*
X-317649Y147158D02*
D03*
X-312138D02*
D03*
X-318654Y56953D02*
D03*
X-313142D02*
D03*
X-164654Y146953D02*
D03*
X-159142D02*
D03*
X-164654Y56953D02*
D03*
X-159142D02*
D03*
X-164607Y327346D02*
D03*
X-159095D02*
D03*
X-164607Y236795D02*
D03*
X-159095D02*
D03*
X-318150Y327346D02*
D03*
X-312638D02*
D03*
X-318150Y236795D02*
D03*
X-312638D02*
D03*
X-317649Y137346D02*
D03*
X-312138D02*
D03*
X-318654Y47142D02*
D03*
X-313142D02*
D03*
X-164654Y137142D02*
D03*
X-159142D02*
D03*
X-164654Y47142D02*
D03*
X-159142D02*
D03*
X-460934Y367634D02*
D03*
X-455422D02*
D03*
X-460934Y286854D02*
D03*
X-455422D02*
D03*
X-460934Y201854D02*
D03*
X-455422D02*
D03*
X-460934Y117854D02*
D03*
X-455422D02*
D03*
X-460934Y343634D02*
D03*
X-455422D02*
D03*
X-460934Y262854D02*
D03*
X-455422D02*
D03*
X-460934Y177854D02*
D03*
X-455422D02*
D03*
X-460934Y93854D02*
D03*
X-455422D02*
D03*
X-453083Y308929D02*
D03*
X-447572D02*
D03*
X-453083Y228150D02*
D03*
X-447572D02*
D03*
X-453083Y143150D02*
D03*
X-447572D02*
D03*
X-453083Y59150D02*
D03*
X-447572D02*
D03*
X-452934Y315634D02*
D03*
X-447422D02*
D03*
X-452934Y234854D02*
D03*
X-447422D02*
D03*
X-452934Y149854D02*
D03*
X-447422D02*
D03*
X-452934Y65854D02*
D03*
X-447422D02*
D03*
X-565245Y167457D02*
D03*
X-570756D02*
D03*
X-605268Y83957D02*
D03*
X-599756D02*
D03*
X-584150Y291386D02*
D03*
X-578638D02*
D03*
X-572733Y321701D02*
D03*
X-567221D02*
D03*
X-579426Y328787D02*
D03*
X-584938D02*
D03*
X-595154Y284500D02*
D03*
X-589642D02*
D03*
D47*
X-638969Y272819D02*
D03*
Y279118D02*
D03*
X-618465Y272819D02*
D03*
Y279118D02*
D03*
D48*
X-556256Y87587D02*
D03*
X-561257D02*
D03*
X-566257D02*
D03*
X-571256D02*
D03*
X-556256Y66327D02*
D03*
X-561257D02*
D03*
X-566257D02*
D03*
X-571256D02*
D03*
X-594800Y299260D02*
D03*
X-589800D02*
D03*
X-584800D02*
D03*
X-579800D02*
D03*
X-594800Y320520D02*
D03*
X-589800D02*
D03*
X-584800D02*
D03*
X-579800D02*
D03*
D49*
X-587300Y309890D02*
D03*
D50*
X-593371Y161413D02*
D03*
Y158854D02*
D03*
Y156295D02*
D03*
Y153736D02*
D03*
Y151177D02*
D03*
Y148618D02*
D03*
Y146059D02*
D03*
Y143500D02*
D03*
X-570142Y161413D02*
D03*
Y158854D02*
D03*
Y156295D02*
D03*
Y153736D02*
D03*
Y151177D02*
D03*
Y148618D02*
D03*
Y146059D02*
D03*
Y143500D02*
D03*
X-625371Y78913D02*
D03*
Y76354D02*
D03*
Y73795D02*
D03*
Y71236D02*
D03*
Y68677D02*
D03*
Y66118D02*
D03*
Y63559D02*
D03*
Y61000D02*
D03*
X-602142Y78913D02*
D03*
Y76354D02*
D03*
Y73795D02*
D03*
Y71236D02*
D03*
Y68677D02*
D03*
Y66118D02*
D03*
Y63559D02*
D03*
Y61000D02*
D03*
D51*
X-607438Y191469D02*
D03*
X-604879D02*
D03*
X-602319D02*
D03*
X-599760D02*
D03*
X-607438Y214303D02*
D03*
X-604879D02*
D03*
X-602319D02*
D03*
X-599760D02*
D03*
X-584438Y191469D02*
D03*
X-581879D02*
D03*
X-579319D02*
D03*
X-576760D02*
D03*
X-584438Y214303D02*
D03*
X-581879D02*
D03*
X-579319D02*
D03*
X-576760D02*
D03*
X-561438Y191469D02*
D03*
X-558879D02*
D03*
X-556320D02*
D03*
X-553760D02*
D03*
X-561438Y214303D02*
D03*
X-558879D02*
D03*
X-556320D02*
D03*
X-553760D02*
D03*
D52*
X-194394Y355299D02*
D03*
Y353331D02*
D03*
Y351362D02*
D03*
Y349394D02*
D03*
Y347425D02*
D03*
Y345457D02*
D03*
Y343488D02*
D03*
Y341520D02*
D03*
Y339551D02*
D03*
Y337583D02*
D03*
Y335614D02*
D03*
Y333646D02*
D03*
Y331677D02*
D03*
Y329709D02*
D03*
Y327740D02*
D03*
Y325772D02*
D03*
Y323803D02*
D03*
Y321835D02*
D03*
Y319866D02*
D03*
X-172347Y355299D02*
D03*
Y353331D02*
D03*
Y351362D02*
D03*
Y349394D02*
D03*
Y347425D02*
D03*
Y345457D02*
D03*
Y343488D02*
D03*
Y341520D02*
D03*
Y339551D02*
D03*
Y337583D02*
D03*
Y335614D02*
D03*
Y333646D02*
D03*
Y331677D02*
D03*
Y329709D02*
D03*
Y327740D02*
D03*
Y325772D02*
D03*
Y323803D02*
D03*
Y321835D02*
D03*
Y319866D02*
D03*
X-194394Y264748D02*
D03*
Y262779D02*
D03*
Y260811D02*
D03*
Y258842D02*
D03*
Y256874D02*
D03*
Y254906D02*
D03*
Y252937D02*
D03*
Y250969D02*
D03*
Y249000D02*
D03*
Y247031D02*
D03*
Y245063D02*
D03*
Y243094D02*
D03*
Y241126D02*
D03*
Y239158D02*
D03*
Y237189D02*
D03*
Y235221D02*
D03*
Y233252D02*
D03*
Y231283D02*
D03*
Y229315D02*
D03*
X-172347Y264748D02*
D03*
Y262779D02*
D03*
Y260811D02*
D03*
Y258842D02*
D03*
Y256874D02*
D03*
Y254906D02*
D03*
Y252937D02*
D03*
Y250969D02*
D03*
Y249000D02*
D03*
Y247031D02*
D03*
Y245063D02*
D03*
Y243094D02*
D03*
Y241126D02*
D03*
Y239158D02*
D03*
Y237189D02*
D03*
Y235221D02*
D03*
Y233252D02*
D03*
Y231283D02*
D03*
Y229315D02*
D03*
X-347938Y355299D02*
D03*
Y353331D02*
D03*
Y351362D02*
D03*
Y349394D02*
D03*
Y347425D02*
D03*
Y345457D02*
D03*
Y343488D02*
D03*
Y341520D02*
D03*
Y339551D02*
D03*
Y337583D02*
D03*
Y335614D02*
D03*
Y333646D02*
D03*
Y331677D02*
D03*
Y329709D02*
D03*
Y327740D02*
D03*
Y325772D02*
D03*
Y323803D02*
D03*
Y321835D02*
D03*
Y319866D02*
D03*
X-325890Y355299D02*
D03*
Y353331D02*
D03*
Y351362D02*
D03*
Y349394D02*
D03*
Y347425D02*
D03*
Y345457D02*
D03*
Y343488D02*
D03*
Y341520D02*
D03*
Y339551D02*
D03*
Y337583D02*
D03*
Y335614D02*
D03*
Y333646D02*
D03*
Y331677D02*
D03*
Y329709D02*
D03*
Y327740D02*
D03*
Y325772D02*
D03*
Y323803D02*
D03*
Y321835D02*
D03*
Y319866D02*
D03*
X-347938Y264748D02*
D03*
Y262779D02*
D03*
Y260811D02*
D03*
Y258842D02*
D03*
Y256874D02*
D03*
Y254906D02*
D03*
Y252937D02*
D03*
Y250969D02*
D03*
Y249000D02*
D03*
Y247031D02*
D03*
Y245063D02*
D03*
Y243094D02*
D03*
Y241126D02*
D03*
Y239158D02*
D03*
Y237189D02*
D03*
Y235221D02*
D03*
Y233252D02*
D03*
Y231283D02*
D03*
Y229315D02*
D03*
X-325890Y264748D02*
D03*
Y262779D02*
D03*
Y260811D02*
D03*
Y258842D02*
D03*
Y256874D02*
D03*
Y254906D02*
D03*
Y252937D02*
D03*
Y250969D02*
D03*
Y249000D02*
D03*
Y247031D02*
D03*
Y245063D02*
D03*
Y243094D02*
D03*
Y241126D02*
D03*
Y239158D02*
D03*
Y237189D02*
D03*
Y235221D02*
D03*
Y233252D02*
D03*
Y231283D02*
D03*
Y229315D02*
D03*
X-347640Y165299D02*
D03*
Y163331D02*
D03*
Y161362D02*
D03*
Y159394D02*
D03*
Y157425D02*
D03*
Y155457D02*
D03*
Y153488D02*
D03*
Y151520D02*
D03*
Y149551D02*
D03*
Y147583D02*
D03*
Y145614D02*
D03*
Y143646D02*
D03*
Y141677D02*
D03*
Y139709D02*
D03*
Y137740D02*
D03*
Y135772D02*
D03*
Y133803D02*
D03*
Y131835D02*
D03*
Y129866D02*
D03*
X-325593Y165299D02*
D03*
Y163331D02*
D03*
Y161362D02*
D03*
Y159394D02*
D03*
Y157425D02*
D03*
Y155457D02*
D03*
Y153488D02*
D03*
Y151520D02*
D03*
Y149551D02*
D03*
Y147583D02*
D03*
Y145614D02*
D03*
Y143646D02*
D03*
Y141677D02*
D03*
Y139709D02*
D03*
Y137740D02*
D03*
Y135772D02*
D03*
Y133803D02*
D03*
Y131835D02*
D03*
Y129866D02*
D03*
X-348442Y75094D02*
D03*
Y73126D02*
D03*
Y71157D02*
D03*
Y69189D02*
D03*
Y67220D02*
D03*
Y65252D02*
D03*
Y63283D02*
D03*
Y61315D02*
D03*
Y59346D02*
D03*
Y57378D02*
D03*
Y55409D02*
D03*
Y53441D02*
D03*
Y51472D02*
D03*
Y49504D02*
D03*
Y47535D02*
D03*
Y45567D02*
D03*
Y43598D02*
D03*
Y41630D02*
D03*
Y39661D02*
D03*
X-326394Y75094D02*
D03*
Y73126D02*
D03*
Y71157D02*
D03*
Y69189D02*
D03*
Y67220D02*
D03*
Y65252D02*
D03*
Y63283D02*
D03*
Y61315D02*
D03*
Y59346D02*
D03*
Y57378D02*
D03*
Y55409D02*
D03*
Y53441D02*
D03*
Y51472D02*
D03*
Y49504D02*
D03*
Y47535D02*
D03*
Y45567D02*
D03*
Y43598D02*
D03*
Y41630D02*
D03*
Y39661D02*
D03*
X-194441Y165094D02*
D03*
Y163126D02*
D03*
Y161158D02*
D03*
Y159189D02*
D03*
Y157220D02*
D03*
Y155252D02*
D03*
Y153283D02*
D03*
Y151315D02*
D03*
Y149346D02*
D03*
Y147378D02*
D03*
Y145409D02*
D03*
Y143441D02*
D03*
Y141472D02*
D03*
Y139504D02*
D03*
Y137535D02*
D03*
Y135567D02*
D03*
Y133598D02*
D03*
Y131630D02*
D03*
Y129661D02*
D03*
X-172394Y165094D02*
D03*
Y163126D02*
D03*
Y161158D02*
D03*
Y159189D02*
D03*
Y157220D02*
D03*
Y155252D02*
D03*
Y153283D02*
D03*
Y151315D02*
D03*
Y149346D02*
D03*
Y147378D02*
D03*
Y145409D02*
D03*
Y143441D02*
D03*
Y141472D02*
D03*
Y139504D02*
D03*
Y137535D02*
D03*
Y135567D02*
D03*
Y133598D02*
D03*
Y131630D02*
D03*
Y129661D02*
D03*
X-194441Y75094D02*
D03*
Y73126D02*
D03*
Y71157D02*
D03*
Y69189D02*
D03*
Y67220D02*
D03*
Y65252D02*
D03*
Y63283D02*
D03*
Y61315D02*
D03*
Y59346D02*
D03*
Y57378D02*
D03*
Y55409D02*
D03*
Y53441D02*
D03*
Y51472D02*
D03*
Y49504D02*
D03*
Y47535D02*
D03*
Y45567D02*
D03*
Y43598D02*
D03*
Y41630D02*
D03*
Y39661D02*
D03*
X-172394Y75094D02*
D03*
Y73126D02*
D03*
Y71157D02*
D03*
Y69189D02*
D03*
Y67220D02*
D03*
Y65252D02*
D03*
Y63283D02*
D03*
Y61315D02*
D03*
Y59346D02*
D03*
Y57378D02*
D03*
Y55409D02*
D03*
Y53441D02*
D03*
Y51472D02*
D03*
Y49504D02*
D03*
Y47535D02*
D03*
Y45567D02*
D03*
Y43598D02*
D03*
Y41630D02*
D03*
Y39661D02*
D03*
D53*
X-180639Y304413D02*
D03*
Y314846D02*
D03*
X-186151Y304413D02*
D03*
Y314846D02*
D03*
X-180639Y213862D02*
D03*
Y224295D02*
D03*
X-186151Y213862D02*
D03*
Y224295D02*
D03*
X-334183Y304413D02*
D03*
Y314846D02*
D03*
X-339694Y304413D02*
D03*
Y314846D02*
D03*
X-334183Y213862D02*
D03*
Y224295D02*
D03*
X-339694Y213862D02*
D03*
Y224295D02*
D03*
X-333682Y114413D02*
D03*
Y124846D02*
D03*
X-339194Y114413D02*
D03*
Y124846D02*
D03*
X-334686Y24209D02*
D03*
Y34642D02*
D03*
X-340198Y24209D02*
D03*
Y34642D02*
D03*
X-180686Y114209D02*
D03*
Y124642D02*
D03*
X-186198Y114209D02*
D03*
Y124642D02*
D03*
X-180686Y24209D02*
D03*
Y34642D02*
D03*
X-186198Y24209D02*
D03*
Y34642D02*
D03*
X-180639Y360319D02*
D03*
Y370752D02*
D03*
X-186151Y360319D02*
D03*
Y370752D02*
D03*
X-180639Y269768D02*
D03*
Y280201D02*
D03*
X-186151Y269768D02*
D03*
Y280201D02*
D03*
X-334183Y360319D02*
D03*
Y370752D02*
D03*
X-339694Y360319D02*
D03*
Y370752D02*
D03*
X-334183Y269768D02*
D03*
Y280201D02*
D03*
X-339694Y269768D02*
D03*
Y280201D02*
D03*
X-333682Y170319D02*
D03*
Y180752D02*
D03*
X-339194Y170319D02*
D03*
Y180752D02*
D03*
X-334686Y80114D02*
D03*
Y90547D02*
D03*
X-340198Y80114D02*
D03*
Y90547D02*
D03*
X-180686Y170114D02*
D03*
Y180547D02*
D03*
X-186198Y170114D02*
D03*
Y180547D02*
D03*
X-180686Y80114D02*
D03*
Y90547D02*
D03*
X-186198Y80114D02*
D03*
Y90547D02*
D03*
D54*
X-180639Y308055D02*
D03*
Y311205D02*
D03*
X-186151Y308055D02*
D03*
Y311205D02*
D03*
X-180639Y217504D02*
D03*
Y220654D02*
D03*
X-186151Y217504D02*
D03*
Y220654D02*
D03*
X-334183Y308055D02*
D03*
Y311205D02*
D03*
X-339694Y308055D02*
D03*
Y311205D02*
D03*
X-334183Y217504D02*
D03*
Y220654D02*
D03*
X-339694Y217504D02*
D03*
Y220654D02*
D03*
X-333682Y118055D02*
D03*
Y121205D02*
D03*
X-339194Y118055D02*
D03*
Y121205D02*
D03*
X-334686Y27850D02*
D03*
Y31000D02*
D03*
X-340198Y27850D02*
D03*
Y31000D02*
D03*
X-180686Y117850D02*
D03*
Y121000D02*
D03*
X-186198Y117850D02*
D03*
Y121000D02*
D03*
X-180686Y27850D02*
D03*
Y31000D02*
D03*
X-186198Y27850D02*
D03*
Y31000D02*
D03*
X-180639Y363961D02*
D03*
Y367110D02*
D03*
X-186151Y363961D02*
D03*
Y367110D02*
D03*
X-180639Y273410D02*
D03*
Y276559D02*
D03*
X-186151Y273410D02*
D03*
Y276559D02*
D03*
X-334183Y363961D02*
D03*
Y367110D02*
D03*
X-339694Y363961D02*
D03*
Y367110D02*
D03*
X-334183Y273410D02*
D03*
Y276559D02*
D03*
X-339694Y273410D02*
D03*
Y276559D02*
D03*
X-333682Y173961D02*
D03*
Y177110D02*
D03*
X-339194Y173961D02*
D03*
Y177110D02*
D03*
X-334686Y83756D02*
D03*
Y86905D02*
D03*
X-340198Y83756D02*
D03*
Y86905D02*
D03*
X-180686Y173756D02*
D03*
Y176906D02*
D03*
X-186198Y173756D02*
D03*
Y176906D02*
D03*
X-180686Y83756D02*
D03*
Y86905D02*
D03*
X-186198Y83756D02*
D03*
Y86905D02*
D03*
D55*
X-441886Y331890D02*
D03*
Y251110D02*
D03*
Y166110D02*
D03*
Y82110D02*
D03*
D56*
X-434997Y322146D02*
D03*
X-436965D02*
D03*
X-438934D02*
D03*
X-440902D02*
D03*
X-442871D02*
D03*
X-444839D02*
D03*
X-446808D02*
D03*
X-448776D02*
D03*
Y341634D02*
D03*
X-446808D02*
D03*
X-444839D02*
D03*
X-442871D02*
D03*
X-440902D02*
D03*
X-438934D02*
D03*
X-436965D02*
D03*
X-434997D02*
D03*
Y241366D02*
D03*
X-436965D02*
D03*
X-438934D02*
D03*
X-440902D02*
D03*
X-442871D02*
D03*
X-444839D02*
D03*
X-446808D02*
D03*
X-448776D02*
D03*
Y260854D02*
D03*
X-446808D02*
D03*
X-444839D02*
D03*
X-442871D02*
D03*
X-440902D02*
D03*
X-438934D02*
D03*
X-436965D02*
D03*
X-434997D02*
D03*
Y156366D02*
D03*
X-436965D02*
D03*
X-438934D02*
D03*
X-440902D02*
D03*
X-442871D02*
D03*
X-444839D02*
D03*
X-446808D02*
D03*
X-448776D02*
D03*
Y175854D02*
D03*
X-446808D02*
D03*
X-444839D02*
D03*
X-442871D02*
D03*
X-440902D02*
D03*
X-438934D02*
D03*
X-436965D02*
D03*
X-434997D02*
D03*
Y72366D02*
D03*
X-436965D02*
D03*
X-438934D02*
D03*
X-440902D02*
D03*
X-442871D02*
D03*
X-444839D02*
D03*
X-446808D02*
D03*
X-448776D02*
D03*
Y91854D02*
D03*
X-446808D02*
D03*
X-444839D02*
D03*
X-442871D02*
D03*
X-440902D02*
D03*
X-438934D02*
D03*
X-436965D02*
D03*
X-434997D02*
D03*
D57*
X-451630Y325000D02*
D03*
Y326969D02*
D03*
Y328937D02*
D03*
Y330906D02*
D03*
Y332874D02*
D03*
Y334842D02*
D03*
Y336811D02*
D03*
Y338779D02*
D03*
X-432142D02*
D03*
Y325000D02*
D03*
Y336811D02*
D03*
Y334842D02*
D03*
Y332874D02*
D03*
Y330906D02*
D03*
Y328937D02*
D03*
Y326969D02*
D03*
X-451630Y244220D02*
D03*
Y246189D02*
D03*
Y248158D02*
D03*
Y250126D02*
D03*
Y252095D02*
D03*
Y254063D02*
D03*
Y256031D02*
D03*
Y258000D02*
D03*
X-432142D02*
D03*
Y244220D02*
D03*
Y256031D02*
D03*
Y254063D02*
D03*
Y252095D02*
D03*
Y250126D02*
D03*
Y248158D02*
D03*
Y246189D02*
D03*
X-451630Y159221D02*
D03*
Y161189D02*
D03*
Y163157D02*
D03*
Y165126D02*
D03*
Y167095D02*
D03*
Y169063D02*
D03*
Y171031D02*
D03*
Y173000D02*
D03*
X-432142D02*
D03*
Y159221D02*
D03*
Y171031D02*
D03*
Y169063D02*
D03*
Y167095D02*
D03*
Y165126D02*
D03*
Y163157D02*
D03*
Y161189D02*
D03*
X-451630Y75221D02*
D03*
Y77189D02*
D03*
Y79158D02*
D03*
Y81126D02*
D03*
Y83095D02*
D03*
Y85063D02*
D03*
Y87032D02*
D03*
Y89000D02*
D03*
X-432142D02*
D03*
Y75221D02*
D03*
Y87032D02*
D03*
Y85063D02*
D03*
Y83095D02*
D03*
Y81126D02*
D03*
Y79158D02*
D03*
Y77189D02*
D03*
D58*
X-561315Y299260D02*
D03*
Y313433D02*
D03*
D59*
X-602260Y358709D02*
D03*
Y346898D02*
D03*
X-531142Y315811D02*
D03*
Y304000D02*
D03*
X-19000Y47890D02*
D03*
Y59701D02*
D03*
X-125095Y316516D02*
D03*
Y304705D02*
D03*
Y225964D02*
D03*
Y214154D02*
D03*
X-278638Y316516D02*
D03*
Y304705D02*
D03*
Y225964D02*
D03*
Y214154D02*
D03*
X-278138Y126516D02*
D03*
Y114705D02*
D03*
X-279142Y36311D02*
D03*
Y24500D02*
D03*
X-125142Y126311D02*
D03*
Y114500D02*
D03*
Y36311D02*
D03*
Y24500D02*
D03*
X-125095Y334516D02*
D03*
Y322705D02*
D03*
Y243965D02*
D03*
Y232154D02*
D03*
X-278638Y334516D02*
D03*
Y322705D02*
D03*
Y243965D02*
D03*
Y232154D02*
D03*
X-278138Y144516D02*
D03*
Y132705D02*
D03*
X-279142Y54311D02*
D03*
Y42500D02*
D03*
X-125142Y144311D02*
D03*
Y132500D02*
D03*
Y54311D02*
D03*
Y42500D02*
D03*
X-125095Y352516D02*
D03*
Y340705D02*
D03*
Y261965D02*
D03*
Y250153D02*
D03*
X-278638Y352516D02*
D03*
Y340705D02*
D03*
Y261965D02*
D03*
Y250153D02*
D03*
X-278138Y162516D02*
D03*
Y150705D02*
D03*
X-279142Y72311D02*
D03*
Y60500D02*
D03*
X-125142Y162311D02*
D03*
Y150500D02*
D03*
Y72311D02*
D03*
Y60500D02*
D03*
X-125095Y370516D02*
D03*
Y358705D02*
D03*
Y279964D02*
D03*
Y268154D02*
D03*
X-278638Y370516D02*
D03*
Y358705D02*
D03*
Y279964D02*
D03*
Y268154D02*
D03*
X-278138Y180516D02*
D03*
Y168705D02*
D03*
X-279142Y90311D02*
D03*
Y78500D02*
D03*
X-125142Y180311D02*
D03*
Y168500D02*
D03*
Y90311D02*
D03*
Y78500D02*
D03*
X-31899Y47890D02*
D03*
Y59701D02*
D03*
X-135595Y316516D02*
D03*
Y304705D02*
D03*
Y225964D02*
D03*
Y214154D02*
D03*
X-289138Y316516D02*
D03*
Y304705D02*
D03*
Y225964D02*
D03*
Y214154D02*
D03*
X-288637Y126516D02*
D03*
Y114705D02*
D03*
X-289642Y36311D02*
D03*
Y24500D02*
D03*
X-135642Y126311D02*
D03*
Y114500D02*
D03*
Y36311D02*
D03*
Y24500D02*
D03*
X-135595Y334516D02*
D03*
Y322705D02*
D03*
Y243965D02*
D03*
Y232154D02*
D03*
X-289138Y334516D02*
D03*
Y322705D02*
D03*
Y243965D02*
D03*
Y232154D02*
D03*
X-288638Y144516D02*
D03*
Y132705D02*
D03*
X-289642Y54311D02*
D03*
Y42500D02*
D03*
X-135642Y144311D02*
D03*
Y132500D02*
D03*
Y54311D02*
D03*
Y42500D02*
D03*
X-135595Y352516D02*
D03*
Y340705D02*
D03*
Y261965D02*
D03*
Y250153D02*
D03*
X-289138Y352516D02*
D03*
Y340705D02*
D03*
Y261965D02*
D03*
Y250153D02*
D03*
X-288638Y162516D02*
D03*
Y150705D02*
D03*
X-289642Y72311D02*
D03*
Y60500D02*
D03*
X-135642Y162311D02*
D03*
Y150500D02*
D03*
Y72311D02*
D03*
Y60500D02*
D03*
X-135595Y370516D02*
D03*
Y358705D02*
D03*
Y279964D02*
D03*
Y268154D02*
D03*
X-289138Y370516D02*
D03*
Y358705D02*
D03*
Y279964D02*
D03*
Y268154D02*
D03*
X-288637Y180516D02*
D03*
Y168705D02*
D03*
X-289642Y90311D02*
D03*
Y78500D02*
D03*
X-135642Y180311D02*
D03*
Y168500D02*
D03*
Y90311D02*
D03*
Y78500D02*
D03*
D60*
X-517142Y335000D02*
D03*
X-528953D02*
D03*
X-573127Y330756D02*
D03*
X-561316D02*
D03*
X-573520Y342961D02*
D03*
X-585331D02*
D03*
X-517500Y310000D02*
D03*
X-505689D02*
D03*
X-506500Y352000D02*
D03*
X-518311D02*
D03*
D61*
X-221523Y311705D02*
D03*
X-215224D02*
D03*
X-221523Y221153D02*
D03*
X-215224D02*
D03*
X-375066Y311705D02*
D03*
X-368767D02*
D03*
X-375066Y221153D02*
D03*
X-368767D02*
D03*
X-374566Y121705D02*
D03*
X-368266D02*
D03*
X-375570Y31500D02*
D03*
X-369271D02*
D03*
X-221570Y121500D02*
D03*
X-215271D02*
D03*
X-221570Y31500D02*
D03*
X-215271D02*
D03*
X-150394Y313705D02*
D03*
X-144095D02*
D03*
X-150394Y223153D02*
D03*
X-144095D02*
D03*
X-303938Y313705D02*
D03*
X-297638D02*
D03*
X-303938Y223153D02*
D03*
X-297638D02*
D03*
X-303437Y123705D02*
D03*
X-297138D02*
D03*
X-304441Y33500D02*
D03*
X-298142D02*
D03*
X-150442Y123500D02*
D03*
X-144142D02*
D03*
X-150442Y33500D02*
D03*
X-144142D02*
D03*
X-221481Y318205D02*
D03*
X-215182D02*
D03*
X-221481Y227654D02*
D03*
X-215182D02*
D03*
X-375024Y318205D02*
D03*
X-368725D02*
D03*
X-375024Y227654D02*
D03*
X-368725D02*
D03*
X-374523Y128205D02*
D03*
X-368224D02*
D03*
X-375528Y38000D02*
D03*
X-369229D02*
D03*
X-221528Y128000D02*
D03*
X-215229D02*
D03*
X-221528Y38000D02*
D03*
X-215229D02*
D03*
X-150394Y320205D02*
D03*
X-144095D02*
D03*
X-150394Y229654D02*
D03*
X-144095D02*
D03*
X-303938Y320205D02*
D03*
X-297638D02*
D03*
X-303938Y229654D02*
D03*
X-297638D02*
D03*
X-303437Y130205D02*
D03*
X-297138D02*
D03*
X-304441Y40000D02*
D03*
X-298142D02*
D03*
X-150442Y130000D02*
D03*
X-144142D02*
D03*
X-150442Y40000D02*
D03*
X-144142D02*
D03*
X-221481Y326705D02*
D03*
X-215182D02*
D03*
X-221481Y236154D02*
D03*
X-215182D02*
D03*
X-375024Y326705D02*
D03*
X-368725D02*
D03*
X-375024Y236154D02*
D03*
X-368725D02*
D03*
X-374523Y136705D02*
D03*
X-368224D02*
D03*
X-375528Y46500D02*
D03*
X-369229D02*
D03*
X-221528Y136500D02*
D03*
X-215229D02*
D03*
X-221528Y46500D02*
D03*
X-215229D02*
D03*
X-150394Y327705D02*
D03*
X-144095D02*
D03*
X-150394Y237154D02*
D03*
X-144095D02*
D03*
X-303938Y327705D02*
D03*
X-297638D02*
D03*
X-303938Y237154D02*
D03*
X-297638D02*
D03*
X-303437Y137705D02*
D03*
X-297138D02*
D03*
X-304441Y47500D02*
D03*
X-298142D02*
D03*
X-150442Y137500D02*
D03*
X-144142D02*
D03*
X-150442Y47500D02*
D03*
X-144142D02*
D03*
X-221481Y333205D02*
D03*
X-215182D02*
D03*
X-221481Y242653D02*
D03*
X-215182D02*
D03*
X-375024Y333205D02*
D03*
X-368725D02*
D03*
X-375024Y242653D02*
D03*
X-368725D02*
D03*
X-374523Y143205D02*
D03*
X-368224D02*
D03*
X-375528Y53000D02*
D03*
X-369229D02*
D03*
X-221528Y143000D02*
D03*
X-215229D02*
D03*
X-221528Y53000D02*
D03*
X-215229D02*
D03*
X-150394Y334205D02*
D03*
X-144095D02*
D03*
X-150394Y243653D02*
D03*
X-144095D02*
D03*
X-303938Y334205D02*
D03*
X-297638D02*
D03*
X-303938Y243653D02*
D03*
X-297638D02*
D03*
X-303437Y144205D02*
D03*
X-297138D02*
D03*
X-304441Y54000D02*
D03*
X-298142D02*
D03*
X-150442Y144000D02*
D03*
X-144142D02*
D03*
X-150442Y54000D02*
D03*
X-144142D02*
D03*
X-221481Y341705D02*
D03*
X-215182D02*
D03*
X-221481Y251153D02*
D03*
X-215182D02*
D03*
X-375024Y341705D02*
D03*
X-368725D02*
D03*
X-375024Y251153D02*
D03*
X-368725D02*
D03*
X-374523Y151705D02*
D03*
X-368224D02*
D03*
X-375528Y61500D02*
D03*
X-369229D02*
D03*
X-221528Y151500D02*
D03*
X-215229D02*
D03*
X-221528Y61500D02*
D03*
X-215229D02*
D03*
X-150394Y341705D02*
D03*
X-144095D02*
D03*
X-150394Y251153D02*
D03*
X-144095D02*
D03*
X-303938Y341705D02*
D03*
X-297638D02*
D03*
X-303938Y251153D02*
D03*
X-297638D02*
D03*
X-303437Y151705D02*
D03*
X-297138D02*
D03*
X-304441Y61500D02*
D03*
X-298142D02*
D03*
X-150442Y151500D02*
D03*
X-144142D02*
D03*
X-150442Y61500D02*
D03*
X-144142D02*
D03*
X-221481Y348205D02*
D03*
X-215182D02*
D03*
X-221481Y257653D02*
D03*
X-215182D02*
D03*
X-375024Y348205D02*
D03*
X-368725D02*
D03*
X-375024Y257653D02*
D03*
X-368725D02*
D03*
X-374523Y158205D02*
D03*
X-368224D02*
D03*
X-375528Y68000D02*
D03*
X-369229D02*
D03*
X-221528Y158000D02*
D03*
X-215229D02*
D03*
X-221528Y68000D02*
D03*
X-215229D02*
D03*
X-150394Y348205D02*
D03*
X-144095D02*
D03*
X-150394Y257653D02*
D03*
X-144095D02*
D03*
X-303938Y348205D02*
D03*
X-297638D02*
D03*
X-303938Y257653D02*
D03*
X-297638D02*
D03*
X-303437Y158205D02*
D03*
X-297138D02*
D03*
X-304441Y68000D02*
D03*
X-298142D02*
D03*
X-150442Y158000D02*
D03*
X-144142D02*
D03*
X-150442Y68000D02*
D03*
X-144142D02*
D03*
X-221481Y356705D02*
D03*
X-215182D02*
D03*
X-221481Y266154D02*
D03*
X-215182D02*
D03*
X-375024Y356705D02*
D03*
X-368725D02*
D03*
X-375024Y266154D02*
D03*
X-368725D02*
D03*
X-374523Y166705D02*
D03*
X-368224D02*
D03*
X-375528Y76500D02*
D03*
X-369229D02*
D03*
X-221528Y166500D02*
D03*
X-215229D02*
D03*
X-221528Y76500D02*
D03*
X-215229D02*
D03*
X-150394Y355705D02*
D03*
X-144095D02*
D03*
X-150394Y265154D02*
D03*
X-144095D02*
D03*
X-303938Y355705D02*
D03*
X-297638D02*
D03*
X-303938Y265154D02*
D03*
X-297638D02*
D03*
X-303437Y165705D02*
D03*
X-297138D02*
D03*
X-304441Y75500D02*
D03*
X-298142D02*
D03*
X-150442Y165500D02*
D03*
X-144142D02*
D03*
X-150442Y75500D02*
D03*
X-144142D02*
D03*
X-221481Y363205D02*
D03*
X-215182D02*
D03*
X-221481Y272654D02*
D03*
X-215182D02*
D03*
X-375024Y363205D02*
D03*
X-368725D02*
D03*
X-375024Y272654D02*
D03*
X-368725D02*
D03*
X-374523Y173205D02*
D03*
X-368224D02*
D03*
X-375528Y83000D02*
D03*
X-369229D02*
D03*
X-221528Y173000D02*
D03*
X-215229D02*
D03*
X-221528Y83000D02*
D03*
X-215229D02*
D03*
X-150394Y362205D02*
D03*
X-144095D02*
D03*
X-150394Y271654D02*
D03*
X-144095D02*
D03*
X-303938Y362205D02*
D03*
X-297638D02*
D03*
X-303938Y271654D02*
D03*
X-297638D02*
D03*
X-303437Y172205D02*
D03*
X-297138D02*
D03*
X-304441Y82000D02*
D03*
X-298142D02*
D03*
X-150442Y172000D02*
D03*
X-144142D02*
D03*
X-150442Y82000D02*
D03*
X-144142D02*
D03*
X-595441Y291386D02*
D03*
X-589142D02*
D03*
X-505142Y74500D02*
D03*
X-511442D02*
D03*
D62*
X-600757Y161457D02*
D03*
Y155157D02*
D03*
Y143457D02*
D03*
Y149756D02*
D03*
X-562756Y143157D02*
D03*
Y149457D02*
D03*
X-603599Y184886D02*
D03*
Y178587D02*
D03*
X-580599Y184886D02*
D03*
Y178587D02*
D03*
X-557599Y184886D02*
D03*
Y178587D02*
D03*
X-592024Y335087D02*
D03*
Y341386D02*
D03*
X-547142Y303299D02*
D03*
Y297000D02*
D03*
X-602500Y314701D02*
D03*
Y321000D02*
D03*
X-601079Y297685D02*
D03*
Y291386D02*
D03*
X-618500Y258500D02*
D03*
Y264799D02*
D03*
X-562756Y161457D02*
D03*
Y155157D02*
D03*
X-638969Y265339D02*
D03*
Y259039D02*
D03*
D63*
X-233981Y310492D02*
D03*
Y304980D02*
D03*
Y219941D02*
D03*
Y214429D02*
D03*
X-387524Y310492D02*
D03*
Y304980D02*
D03*
Y219941D02*
D03*
Y214429D02*
D03*
X-387023Y120492D02*
D03*
Y114980D02*
D03*
X-388028Y30287D02*
D03*
Y24776D02*
D03*
X-234028Y120287D02*
D03*
Y114776D02*
D03*
Y30287D02*
D03*
Y24776D02*
D03*
X-226981Y315968D02*
D03*
Y310457D02*
D03*
Y225417D02*
D03*
Y219905D02*
D03*
X-380524Y315968D02*
D03*
Y310457D02*
D03*
Y225417D02*
D03*
Y219905D02*
D03*
X-380023Y125969D02*
D03*
Y120457D02*
D03*
X-381028Y35764D02*
D03*
Y30252D02*
D03*
X-227028Y125764D02*
D03*
Y120252D02*
D03*
Y35764D02*
D03*
Y30252D02*
D03*
X-233981Y320929D02*
D03*
Y315417D02*
D03*
Y230378D02*
D03*
Y224866D02*
D03*
X-387524Y320929D02*
D03*
Y315417D02*
D03*
Y230378D02*
D03*
Y224866D02*
D03*
X-387023Y130929D02*
D03*
Y125417D02*
D03*
X-388028Y40724D02*
D03*
Y35213D02*
D03*
X-234028Y130724D02*
D03*
Y125213D02*
D03*
Y40724D02*
D03*
Y35213D02*
D03*
X-226981Y326492D02*
D03*
Y320980D02*
D03*
Y235941D02*
D03*
Y230429D02*
D03*
X-380524Y326492D02*
D03*
Y320980D02*
D03*
Y235941D02*
D03*
Y230429D02*
D03*
X-380023Y136492D02*
D03*
Y130980D02*
D03*
X-381028Y46287D02*
D03*
Y40776D02*
D03*
X-227028Y136287D02*
D03*
Y130776D02*
D03*
Y46287D02*
D03*
Y40776D02*
D03*
X-233981Y331968D02*
D03*
Y326457D02*
D03*
Y241417D02*
D03*
Y235906D02*
D03*
X-387524Y331968D02*
D03*
Y326457D02*
D03*
Y241417D02*
D03*
Y235906D02*
D03*
X-387023Y141969D02*
D03*
Y136457D02*
D03*
X-388028Y51764D02*
D03*
Y46252D02*
D03*
X-234028Y141764D02*
D03*
Y136252D02*
D03*
Y51764D02*
D03*
Y46252D02*
D03*
X-226981Y336929D02*
D03*
Y331417D02*
D03*
Y246378D02*
D03*
Y240866D02*
D03*
X-380524Y336929D02*
D03*
Y331417D02*
D03*
Y246378D02*
D03*
Y240866D02*
D03*
X-380023Y146929D02*
D03*
Y141417D02*
D03*
X-381028Y56724D02*
D03*
Y51213D02*
D03*
X-227028Y146724D02*
D03*
Y141213D02*
D03*
Y56724D02*
D03*
Y51213D02*
D03*
X-233981Y343492D02*
D03*
Y337980D02*
D03*
Y252941D02*
D03*
Y247429D02*
D03*
X-387524Y343492D02*
D03*
Y337980D02*
D03*
Y252941D02*
D03*
Y247429D02*
D03*
X-387023Y153492D02*
D03*
Y147980D02*
D03*
X-388028Y63287D02*
D03*
Y57776D02*
D03*
X-234028Y153287D02*
D03*
Y147776D02*
D03*
Y63287D02*
D03*
Y57776D02*
D03*
X-226981Y348457D02*
D03*
Y342945D02*
D03*
Y257906D02*
D03*
Y252394D02*
D03*
X-380524Y348457D02*
D03*
Y342945D02*
D03*
Y257906D02*
D03*
Y252394D02*
D03*
X-380023Y158457D02*
D03*
Y152945D02*
D03*
X-381028Y68252D02*
D03*
Y62740D02*
D03*
X-227028Y158252D02*
D03*
Y152740D02*
D03*
Y68252D02*
D03*
Y62740D02*
D03*
X-233981Y353929D02*
D03*
Y348417D02*
D03*
Y263378D02*
D03*
Y257866D02*
D03*
X-387524Y353929D02*
D03*
Y348417D02*
D03*
Y263378D02*
D03*
Y257866D02*
D03*
X-387023Y163929D02*
D03*
Y158417D02*
D03*
X-388028Y73724D02*
D03*
Y68213D02*
D03*
X-234028Y163724D02*
D03*
Y158213D02*
D03*
Y73724D02*
D03*
Y68213D02*
D03*
X-226981Y359492D02*
D03*
Y353980D02*
D03*
Y268941D02*
D03*
Y263429D02*
D03*
X-380524Y359492D02*
D03*
Y353980D02*
D03*
Y268941D02*
D03*
Y263429D02*
D03*
X-380023Y169492D02*
D03*
Y163980D02*
D03*
X-381028Y79287D02*
D03*
Y73776D02*
D03*
X-227028Y169287D02*
D03*
Y163776D02*
D03*
Y79287D02*
D03*
Y73776D02*
D03*
X-233981Y364500D02*
D03*
Y358988D02*
D03*
Y273949D02*
D03*
Y268437D02*
D03*
X-387524Y364500D02*
D03*
Y358988D02*
D03*
Y273949D02*
D03*
Y268437D02*
D03*
X-387023Y174500D02*
D03*
Y168988D02*
D03*
X-388028Y84295D02*
D03*
Y78784D02*
D03*
X-234028Y174295D02*
D03*
Y168783D02*
D03*
Y84295D02*
D03*
Y78784D02*
D03*
X-226981Y369969D02*
D03*
Y364457D02*
D03*
Y279417D02*
D03*
Y273905D02*
D03*
X-380524Y369969D02*
D03*
Y364457D02*
D03*
Y279417D02*
D03*
Y273905D02*
D03*
X-380023Y179969D02*
D03*
Y174457D02*
D03*
X-381028Y89764D02*
D03*
Y84252D02*
D03*
X-227028Y179764D02*
D03*
Y174252D02*
D03*
Y89764D02*
D03*
Y84252D02*
D03*
X-465934Y337146D02*
D03*
Y331634D02*
D03*
Y256366D02*
D03*
Y250854D02*
D03*
Y171366D02*
D03*
Y165854D02*
D03*
Y87366D02*
D03*
Y81854D02*
D03*
X-458934Y337146D02*
D03*
Y331634D02*
D03*
Y256366D02*
D03*
Y250854D02*
D03*
Y171366D02*
D03*
Y165854D02*
D03*
Y87366D02*
D03*
Y81854D02*
D03*
X-469934Y355634D02*
D03*
Y361146D02*
D03*
Y274854D02*
D03*
Y280366D02*
D03*
Y189854D02*
D03*
Y195366D02*
D03*
Y105854D02*
D03*
Y111366D02*
D03*
X-474957Y322252D02*
D03*
Y327764D02*
D03*
Y241472D02*
D03*
Y246984D02*
D03*
Y156473D02*
D03*
Y161984D02*
D03*
Y72473D02*
D03*
Y77984D02*
D03*
X-577757Y75957D02*
D03*
Y70445D02*
D03*
X-601599Y226886D02*
D03*
Y221374D02*
D03*
X-578599Y226886D02*
D03*
Y221374D02*
D03*
X-555599Y226886D02*
D03*
Y221374D02*
D03*
X-547142Y309000D02*
D03*
Y314512D02*
D03*
D64*
X-631670Y336937D02*
D03*
X-621670D02*
D03*
X-631670Y326937D02*
D03*
X-621670D02*
D03*
D65*
X-549505Y354969D02*
D03*
Y345126D02*
D03*
X-572339Y363039D02*
D03*
X-582182D02*
D03*
X-441847Y331929D02*
D03*
Y251150D02*
D03*
Y166150D02*
D03*
Y82150D02*
D03*
D66*
X-616756Y106757D02*
D03*
Y111757D02*
D03*
X-611757Y106757D02*
D03*
Y111757D02*
D03*
X-606756Y106757D02*
D03*
Y111757D02*
D03*
X-601756Y106757D02*
D03*
Y111757D02*
D03*
X-596757Y106757D02*
D03*
Y111757D02*
D03*
X-591756Y106757D02*
D03*
Y111757D02*
D03*
X-586757Y106757D02*
D03*
Y111757D02*
D03*
X-581756Y106757D02*
D03*
Y111757D02*
D03*
D67*
X-652087Y21850D02*
D03*
Y371850D02*
D03*
D68*
X-81499Y94740D02*
D03*
X-91499Y99740D02*
D03*
X-81499Y104740D02*
D03*
X-91499Y109740D02*
D03*
X-81499Y114740D02*
D03*
X-91499Y119740D02*
D03*
X-81499Y124740D02*
D03*
X-91499Y129740D02*
D03*
Y184740D02*
D03*
X-81499Y179740D02*
D03*
X-91499Y174740D02*
D03*
X-81499Y169740D02*
D03*
X-91499Y164740D02*
D03*
X-81499Y159740D02*
D03*
X-91499Y154740D02*
D03*
X-81499Y149740D02*
D03*
X-91499Y239740D02*
D03*
X-81499Y234740D02*
D03*
X-91499Y229740D02*
D03*
X-81499Y224740D02*
D03*
X-91499Y219740D02*
D03*
X-81499Y214740D02*
D03*
X-91499Y209740D02*
D03*
X-81499Y204740D02*
D03*
X-91499Y294740D02*
D03*
X-81499Y289740D02*
D03*
X-91499Y284740D02*
D03*
X-81499Y279740D02*
D03*
X-91499Y274740D02*
D03*
X-81499Y269740D02*
D03*
X-91499Y264740D02*
D03*
X-81499Y259740D02*
D03*
X-55599D02*
D03*
X-65599Y264740D02*
D03*
X-55599Y269740D02*
D03*
X-65599Y274740D02*
D03*
X-55599Y279740D02*
D03*
X-65599Y284740D02*
D03*
X-55599Y289740D02*
D03*
X-65599Y294740D02*
D03*
X-55599Y204740D02*
D03*
X-65599Y209740D02*
D03*
X-55599Y214740D02*
D03*
X-65599Y219740D02*
D03*
X-55599Y224740D02*
D03*
X-65599Y229740D02*
D03*
X-55599Y234740D02*
D03*
X-65599Y239740D02*
D03*
X-55599Y149740D02*
D03*
X-65599Y154740D02*
D03*
X-55599Y159740D02*
D03*
X-65599Y164740D02*
D03*
X-55599Y169740D02*
D03*
X-65599Y174740D02*
D03*
X-55599Y179740D02*
D03*
X-65599Y184740D02*
D03*
Y129740D02*
D03*
X-55599Y124740D02*
D03*
X-65599Y119740D02*
D03*
X-55599Y114740D02*
D03*
X-65599Y109740D02*
D03*
X-55599Y104740D02*
D03*
X-65599Y99740D02*
D03*
X-55599Y94740D02*
D03*
X-155500Y115500D02*
D03*
X-307999D02*
D03*
X-377043Y213500D02*
D03*
X-223500D02*
D03*
X-376542Y114000D02*
D03*
X-377043Y304000D02*
D03*
X-308500Y305500D02*
D03*
Y215500D02*
D03*
Y26000D02*
D03*
X-155500Y305500D02*
D03*
X-223500Y114000D02*
D03*
X-377043Y24000D02*
D03*
X-223500Y304000D02*
D03*
X-155500Y26000D02*
D03*
Y215500D02*
D03*
X-223500Y24000D02*
D03*
D69*
X-30599Y89740D02*
D03*
Y299740D02*
D03*
D70*
X-12599Y78740D02*
D03*
X-66599Y81340D02*
D03*
X-91499Y78740D02*
D03*
X-75399Y310740D02*
D03*
X-53699Y305540D02*
D03*
X-12599Y310740D02*
D03*
D71*
X-616434Y372094D02*
D03*
X-545174Y326425D02*
D03*
X-520142Y285000D02*
D03*
X-630142Y305000D02*
D03*
X-504142Y376000D02*
D03*
X-609142Y170000D02*
D03*
X-536142Y78000D02*
D03*
X-507142Y133000D02*
D03*
X-638142Y72000D02*
D03*
X-545142Y59000D02*
D03*
X-587142Y170000D02*
D03*
X-566142Y47000D02*
D03*
X-569142Y180000D02*
D03*
X-466000Y383000D02*
D03*
D72*
X-145500Y115500D02*
D03*
X-297999D02*
D03*
X-367042Y213500D02*
D03*
X-213500D02*
D03*
X-366542Y114000D02*
D03*
X-367042Y304000D02*
D03*
X-298500Y305500D02*
D03*
Y215500D02*
D03*
Y26000D02*
D03*
X-145500Y305500D02*
D03*
X-213500Y114000D02*
D03*
X-367042Y24000D02*
D03*
X-213500Y304000D02*
D03*
X-145500Y26000D02*
D03*
Y215500D02*
D03*
X-213500Y24000D02*
D03*
D73*
X-591631Y307724D02*
D03*
Y312055D02*
D03*
X-587300Y307724D02*
D03*
Y312055D02*
D03*
X-582969Y307724D02*
D03*
Y312055D02*
D03*
D74*
X-446571Y336653D02*
D03*
X-441847D02*
D03*
X-437123D02*
D03*
Y331929D02*
D03*
X-446571D02*
D03*
Y327205D02*
D03*
X-437162Y327165D02*
D03*
X-446571Y255874D02*
D03*
X-441847D02*
D03*
X-437123D02*
D03*
Y251150D02*
D03*
X-446571D02*
D03*
Y246425D02*
D03*
X-437162Y246386D02*
D03*
X-446571Y170874D02*
D03*
X-441847D02*
D03*
X-437123D02*
D03*
Y166150D02*
D03*
X-446571D02*
D03*
Y161425D02*
D03*
X-437162Y161386D02*
D03*
X-446571Y86874D02*
D03*
X-441847D02*
D03*
X-437123D02*
D03*
Y82150D02*
D03*
X-446571D02*
D03*
Y77425D02*
D03*
X-437162Y77386D02*
D03*
D75*
X-441886Y327165D02*
D03*
Y246386D02*
D03*
Y161386D02*
D03*
Y77386D02*
D03*
M02*
