G04*
G04 #@! TF.GenerationSoftware,Altium Limited,Altium Designer,20.1.11 (218)*
G04*
G04 Layer_Physical_Order=6*
G04 Layer_Color=16711680*
%FSLAX25Y25*%
%MOIN*%
G70*
G04*
G04 #@! TF.SameCoordinates,791B5E8E-85BA-4B16-884C-9818148C06D6*
G04*
G04*
G04 #@! TF.FilePolarity,Positive*
G04*
G01*
G75*
%ADD17C,0.01000*%
%ADD20C,0.02000*%
%ADD27C,0.00700*%
%ADD66C,0.11811*%
%ADD75C,0.02756*%
%ADD77C,0.01400*%
%ADD79C,0.10000*%
%ADD80C,0.09449*%
%ADD81C,0.12598*%
%ADD82C,0.05906*%
%ADD83C,0.03543*%
%ADD84C,0.06000*%
%ADD85C,0.05118*%
%ADD86C,0.01772*%
%ADD87C,0.02362*%
%ADD88C,0.01968*%
D17*
X-454703Y46000D02*
X-454142D01*
X-454703D02*
Y51000D01*
X-456703D02*
X-454703D01*
X-456703Y41000D02*
Y51000D01*
X-458703Y41000D02*
X-456703D01*
X-458703D02*
Y51000D01*
X-460703D02*
X-458703D01*
X-460703Y41000D02*
Y51000D01*
X-462703Y41000D02*
X-460703D01*
X-462703D02*
Y51000D01*
X-464703D02*
X-462703D01*
X-464703Y41000D02*
Y51000D01*
X-466703Y41000D02*
X-464703D01*
X-466703D02*
Y51000D01*
X-468703D02*
X-466703D01*
X-468703Y41000D02*
Y51000D01*
X-470703Y41000D02*
X-468703D01*
X-470703D02*
Y51000D01*
X-472703D02*
X-470703D01*
X-472703Y41000D02*
Y51000D01*
X-474703Y41000D02*
X-472703D01*
X-474703D02*
Y51000D01*
X-476703D02*
X-474703D01*
X-476703Y41000D02*
Y51000D01*
X-478703Y41000D02*
X-476703D01*
X-478703D02*
Y51000D01*
X-480703D02*
X-478703D01*
X-480703Y41000D02*
Y51000D01*
X-482703Y41000D02*
X-480703D01*
X-482703D02*
Y51000D01*
X-484703D02*
X-482703D01*
X-484703Y41000D02*
Y51000D01*
X-486703Y41000D02*
X-484703D01*
X-486703D02*
Y51000D01*
X-488703D02*
X-486703D01*
X-488703Y41000D02*
Y51000D01*
X-490703Y41000D02*
X-488703D01*
X-490703D02*
Y51000D01*
X-492703D02*
X-490703D01*
X-492703Y41000D02*
Y51000D01*
X-494703Y41000D02*
X-492703D01*
X-494703D02*
Y51000D01*
X-496703D02*
X-494703D01*
X-496703Y46000D02*
Y51000D01*
X-497203Y46000D02*
X-496703D01*
X-567622D02*
X-497203D01*
X-624642Y81500D02*
X-615142Y91000D01*
X-552142D02*
X-494642Y148500D01*
X-615142Y91000D02*
X-552142D01*
X-494642Y148500D02*
Y268500D01*
X-454142Y46000D02*
X-451142D01*
X-494642Y275000D02*
Y277000D01*
X-499642Y275000D02*
X-494642D01*
X-499642Y273000D02*
Y275000D01*
Y273000D02*
X-489642D01*
Y271000D02*
Y273000D01*
X-499642Y271000D02*
X-489642D01*
X-499642Y269000D02*
Y271000D01*
Y269000D02*
X-494642D01*
Y268500D02*
Y269000D01*
Y277000D02*
Y288182D01*
X-597890Y76268D02*
X-567622Y46000D01*
X-494642Y288182D02*
X-480825Y302000D01*
X-446642D01*
X-162523Y359697D02*
X-162490Y359730D01*
X-162556Y239174D02*
X-162523Y239207D01*
X-641642Y326965D02*
X-631670Y336937D01*
X-641642Y286000D02*
Y326965D01*
X-568292Y285000D02*
X-547142Y306150D01*
X-586142Y285000D02*
X-568292D01*
D20*
X-162537Y79525D02*
Y169525D01*
X-162523Y239207D02*
Y359697D01*
X-563142Y318000D02*
Y319000D01*
X-591941Y294250D02*
X-586892D01*
X-563142Y318000D01*
D27*
X-615000Y115000D02*
X-611757Y111757D01*
X-618000Y115000D02*
X-615000D01*
X-620000Y113000D02*
X-618000Y115000D01*
X-620000Y102000D02*
X-619000Y101000D01*
X-620000Y102000D02*
Y113000D01*
X-586757Y106757D02*
X-583635Y103635D01*
X-580464D01*
X-578500Y105598D01*
Y112915D01*
X-580236Y114651D02*
Y117813D01*
Y114651D02*
X-578500Y112915D01*
X-255742Y158914D02*
X-243816Y170839D01*
X-276062Y104600D02*
X-255742Y124920D01*
Y158914D01*
X-276642Y106000D02*
X-257142Y125500D01*
Y159493D01*
X-244396Y172239D01*
X-438930Y104600D02*
X-276062D01*
X-439510Y106000D02*
X-276642D01*
X-441958Y101571D02*
X-438930Y104600D01*
X-442948Y102561D02*
X-439510Y106000D01*
X-244396Y172239D02*
X-242883D01*
X-241902Y173221D02*
X-241642D01*
X-243816Y170839D02*
X-242883D01*
Y172239D02*
X-241902Y173221D01*
Y169858D02*
X-241642D01*
X-242883Y170839D02*
X-241902Y169858D01*
X-442142Y100000D02*
X-441958Y100184D01*
Y101571D01*
X-444336Y102561D02*
X-442948D01*
X-444520Y102377D02*
X-444336Y102561D01*
X-241402Y154069D02*
X-241142D01*
X-242384Y155050D02*
X-241402Y154069D01*
X-243317Y155050D02*
X-242384D01*
X-251742Y146624D02*
X-243317Y155050D01*
X-251742Y123920D02*
Y146624D01*
X-274962Y100700D02*
X-251742Y123920D01*
X-241402Y157431D02*
X-241142D01*
X-242384Y156450D02*
X-241402Y157431D01*
X-243896Y156450D02*
X-242384D01*
X-253142Y147204D02*
X-243896Y156450D01*
X-253142Y124500D02*
Y147204D01*
X-275542Y102100D02*
X-253142Y124500D01*
X-429410Y102100D02*
X-275542D01*
X-433142Y95000D02*
X-432958Y95184D01*
X-435520Y97377D02*
X-435336Y97561D01*
X-428830Y100700D02*
X-274962D01*
X-435336Y97561D02*
X-433948D01*
X-429410Y102100D01*
X-432958Y95184D02*
Y96571D01*
X-428830Y100700D01*
X-428642Y91000D02*
X-428458Y91184D01*
X-427071D01*
X-418755Y99500D01*
X-273142D01*
X-426265Y88623D02*
X-426081Y88806D01*
Y90194D01*
X-418175Y98100D01*
X-272562D01*
X-273142Y99500D02*
X-249542Y123100D01*
X-248142Y122520D02*
Y133482D01*
X-272562Y98100D02*
X-248142Y122520D01*
X-243896Y139708D02*
X-242384D01*
X-241402Y137327D02*
X-241142D01*
X-242384Y139708D02*
X-241402Y140689D01*
X-249542Y134062D02*
X-243896Y139708D01*
X-249542Y123100D02*
Y134062D01*
X-241402Y140689D02*
X-241142D01*
X-242384Y138308D02*
X-241402Y137327D01*
X-243317Y138308D02*
X-242384D01*
X-248142Y133482D02*
X-243317Y138308D01*
X-421142Y87500D02*
X-420958Y87684D01*
X-419571D01*
X-411355Y95900D01*
X-418765Y85123D02*
X-418581Y85306D01*
Y86694D01*
X-410775Y94500D01*
X-241402Y124431D02*
X-241142D01*
X-242384Y123450D02*
X-241402Y124431D01*
X-272396Y95900D02*
X-244846Y123450D01*
X-411355Y95900D02*
X-272396D01*
X-241402Y121069D02*
X-241142D01*
X-271816Y94500D02*
X-244267Y122050D01*
X-244846Y123450D02*
X-242384D01*
Y122050D02*
X-241402Y121069D01*
X-244267Y122050D02*
X-242384D01*
X-410775Y94500D02*
X-271816D01*
X-414765Y324377D02*
X-414581Y324194D01*
Y322806D02*
Y324194D01*
Y322806D02*
X-386675Y294900D01*
X-417142Y322000D02*
X-416958Y321816D01*
X-415571D01*
X-387255Y293500D01*
X-262652Y291090D02*
X-243455Y271893D01*
X-386675Y294900D02*
X-266462D01*
X-263147Y291585D01*
Y291585D02*
Y291585D01*
Y291585D02*
X-262652Y291090D01*
X-387255Y293500D02*
X-267042D01*
X-244035Y270493D01*
X-242384D01*
X-241402Y272874D02*
X-241142D01*
X-243455Y271893D02*
X-242384D01*
X-241402Y269512D02*
X-241142D01*
X-242384Y271893D02*
X-241402Y272874D01*
X-242384Y270493D02*
X-241402Y269512D01*
X-424555Y321588D02*
X-423813Y320846D01*
X-255542Y266849D02*
Y277900D01*
X-268142Y290500D02*
X-255542Y277900D01*
Y266849D02*
X-243396Y254703D01*
X-393053Y290500D02*
X-268142D01*
X-241883Y254703D02*
X-240902Y253722D01*
X-243396Y254703D02*
X-241883D01*
X-240902Y253722D02*
X-240642D01*
X-240902Y257085D02*
X-240642D01*
X-254142Y267429D02*
Y278480D01*
X-241883Y256103D02*
X-240902Y257085D01*
X-254142Y267429D02*
X-242816Y256103D01*
X-241883D01*
X-267562Y291900D02*
X-254142Y278480D01*
X-392473Y291900D02*
X-267562D01*
X-422765Y323377D02*
X-422480Y323093D01*
Y321907D02*
Y323093D01*
Y321907D02*
X-392473Y291900D01*
X-423813Y320846D02*
X-423399D01*
X-393053Y290500D01*
X-258542Y252607D02*
Y276420D01*
X-261142Y240929D02*
Y274900D01*
X-271742Y285500D02*
X-261142Y274900D01*
X-416010Y287500D02*
X-269622D01*
X-262542Y240350D02*
Y274320D01*
X-421662Y285500D02*
X-271742D01*
X-269622Y287500D02*
X-258542Y276420D01*
X-415430Y288900D02*
X-269042D01*
X-272322Y284100D02*
X-262542Y274320D01*
X-422242Y284100D02*
X-272322D01*
X-269042Y288900D02*
X-257142Y277000D01*
Y253187D02*
Y277000D01*
X-434475Y296333D02*
X-422242Y284100D01*
X-433075Y296913D02*
X-421662Y285500D01*
X-242384Y237961D02*
X-241402Y236980D01*
X-241142D01*
X-243896Y237961D02*
X-242384D01*
X-258542Y252607D02*
X-243896Y237961D01*
X-241402Y240342D02*
X-241142D01*
X-242384Y239361D02*
X-241402Y240342D01*
X-243317Y239361D02*
X-242384D01*
X-257142Y253187D02*
X-243317Y239361D01*
X-432142Y307000D02*
X-431958Y306816D01*
Y305429D02*
Y306816D01*
Y305429D02*
X-415430Y288900D01*
X-434520Y304623D02*
X-434336Y304439D01*
X-432948D01*
X-416010Y287500D01*
X-241402Y224085D02*
X-241142D01*
X-242384Y223103D02*
X-241402Y224085D01*
X-261142Y240929D02*
X-243317Y223103D01*
X-242384D01*
X-241402Y220722D02*
X-241142D01*
X-243896Y221704D02*
X-242384D01*
X-262542Y240350D02*
X-243896Y221704D01*
X-242384D02*
X-241402Y220722D01*
X-437020Y297623D02*
X-436836Y297439D01*
X-435448D01*
X-434458Y298429D02*
Y299816D01*
X-434642Y300000D02*
X-434458Y299816D01*
X-435448Y297439D02*
X-434475Y296466D01*
X-433075Y296913D02*
Y297046D01*
X-434458Y298429D02*
X-433075Y297046D01*
X-434475Y296333D02*
Y296466D01*
D66*
X-652087Y21850D02*
D03*
Y371850D02*
D03*
D75*
X-446571Y336653D02*
D03*
X-441847D02*
D03*
X-437123D02*
D03*
Y331929D02*
D03*
X-446571D02*
D03*
Y327205D02*
D03*
X-441886Y327165D02*
D03*
X-437162D02*
D03*
Y246386D02*
D03*
X-441886D02*
D03*
X-446571Y246425D02*
D03*
Y251150D02*
D03*
X-437123D02*
D03*
Y255874D02*
D03*
X-441847D02*
D03*
X-446571D02*
D03*
Y170874D02*
D03*
X-441847D02*
D03*
X-437123D02*
D03*
Y166150D02*
D03*
X-446571D02*
D03*
Y161425D02*
D03*
X-441886Y161386D02*
D03*
X-437162D02*
D03*
Y77386D02*
D03*
X-441886D02*
D03*
X-446571Y77425D02*
D03*
Y82150D02*
D03*
X-437123D02*
D03*
Y86874D02*
D03*
X-441847D02*
D03*
X-446571D02*
D03*
D77*
X-78339Y87000D02*
X-65599Y99740D01*
X-88309Y87000D02*
X-78339D01*
X-70252Y101667D02*
X-67526Y104393D01*
X-63672D02*
X-60066Y100788D01*
X-67526Y104393D02*
X-63672D01*
X-60066Y99208D02*
Y100788D01*
X-70252Y97891D02*
Y101667D01*
X-60066Y99208D02*
X-55599Y94740D01*
X-79042Y89100D02*
X-70252Y97891D01*
X-87439Y89100D02*
X-79042D01*
X-103070Y101761D02*
X-88309Y87000D01*
X-116978Y117096D02*
X-116346D01*
X-100970Y102631D02*
X-87439Y89100D01*
X-117882Y118000D02*
X-116978Y117096D01*
X-100970Y102631D02*
Y104690D01*
X-114861Y118581D02*
Y119213D01*
X-115765Y120117D02*
X-114861Y119213D01*
X-115765Y120117D02*
Y120377D01*
X-103070Y101761D02*
Y103820D01*
X-116346Y117096D02*
X-103070Y103820D01*
X-118142Y118000D02*
X-117882D01*
X-114861Y118581D02*
X-100970Y104690D01*
X-74142Y129000D02*
X-65599Y120457D01*
Y119740D02*
Y120457D01*
X-75142Y127000D02*
X-70252Y122109D01*
Y117813D02*
Y122109D01*
X-60066Y109208D02*
Y110788D01*
X-64279Y115000D02*
X-60066Y110788D01*
Y109208D02*
X-55599Y104740D01*
X-67526Y115087D02*
X-67230D01*
X-70252Y117813D02*
X-67526Y115087D01*
X-67142Y115000D02*
X-64279D01*
X-67230Y115087D02*
X-67142Y115000D01*
X-103483Y155356D02*
X-75142Y127015D01*
X-74157Y129000D02*
X-74142D01*
X-116941Y154832D02*
X-115815D01*
X-115292Y155356D02*
X-103483D01*
X-102613Y157456D02*
X-74157Y129000D01*
X-117125Y154648D02*
X-116941Y154832D01*
X-117125Y158163D02*
X-116941Y157978D01*
X-115292Y157456D02*
X-102613D01*
X-115815Y154832D02*
X-115292Y155356D01*
X-75142Y127000D02*
Y127015D01*
X-115815Y157978D02*
X-115292Y157456D01*
X-116941Y157978D02*
X-115815D01*
X-67542Y269500D02*
X-63779D01*
X-67930Y269887D02*
X-67930D01*
X-67542Y269500D01*
X-65882Y264740D02*
X-65599D01*
X-75142Y274000D02*
Y289360D01*
Y274000D02*
X-65882Y264740D01*
X-63779Y269500D02*
X-60923Y266644D01*
X-73042Y275000D02*
X-67930Y269887D01*
X-60923Y266644D02*
Y266644D01*
X-55599Y259740D02*
Y260959D01*
X-56982Y262342D02*
X-55599Y260959D01*
X-56982Y262342D02*
Y262703D01*
X-60923Y266644D02*
X-56982Y262703D01*
X-76846Y291064D02*
X-75142Y289360D01*
X-76846Y291064D02*
Y292204D01*
X-73042Y275000D02*
Y290230D01*
X-74746Y291933D02*
X-73042Y290230D01*
X-74746Y291933D02*
Y293074D01*
X-107941Y309037D02*
X-106815D01*
X-106292Y309560D01*
X-108125Y312367D02*
X-107941Y312183D01*
X-93333Y311660D02*
X-74746Y293074D01*
X-108125Y308853D02*
X-107941Y309037D01*
X-106292Y309560D02*
X-94203D01*
X-76846Y292204D01*
X-107941Y312183D02*
X-106815D01*
X-106292Y311660D01*
X-93333D01*
X-90487Y312844D02*
Y321237D01*
Y312844D02*
X-72152Y294510D01*
X-70252Y282813D02*
Y290126D01*
X-72152Y292026D02*
Y294510D01*
Y292026D02*
X-70252Y290126D01*
X-88387Y314244D02*
Y322107D01*
Y314244D02*
X-70252Y296110D01*
Y292813D02*
X-66414Y288975D01*
X-70252Y292813D02*
Y296110D01*
X-66414Y285555D02*
Y288975D01*
X-59642Y276000D02*
Y276000D01*
X-56461Y270602D02*
X-55599Y269740D01*
X-56461Y270602D02*
Y272819D01*
X-59642Y276000D02*
X-56461Y272819D01*
X-63730Y280087D02*
X-59642Y276000D01*
X-66414Y285555D02*
X-65599Y284740D01*
X-67526Y280087D02*
X-63730D01*
X-70252Y282813D02*
X-67526Y280087D01*
X-107861Y341581D02*
X-88387Y322107D01*
X-107861Y341581D02*
Y342213D01*
X-108765Y343117D02*
Y343377D01*
X-109346Y340096D02*
X-90487Y321237D01*
X-108765Y343117D02*
X-107861Y342213D01*
X-109978Y340096D02*
X-109346D01*
X-110882Y341000D02*
X-109978Y340096D01*
X-111142Y341000D02*
X-110882D01*
D79*
X-616434Y372094D02*
D03*
X-545174Y326425D02*
D03*
X-520142Y285000D02*
D03*
X-630142Y305000D02*
D03*
X-504142Y376000D02*
D03*
X-609142Y170000D02*
D03*
X-536142Y78000D02*
D03*
X-507142Y133000D02*
D03*
X-638142Y72000D02*
D03*
X-545142Y59000D02*
D03*
X-587142Y170000D02*
D03*
X-566142Y47000D02*
D03*
X-569142Y180000D02*
D03*
D80*
X-12599Y310740D02*
D03*
X-53699Y305540D02*
D03*
X-75399Y310740D02*
D03*
X-91499Y78740D02*
D03*
X-66599Y81340D02*
D03*
X-12599Y78740D02*
D03*
D81*
X-30599Y299740D02*
D03*
Y89740D02*
D03*
D82*
X-55599Y94740D02*
D03*
X-65599Y99740D02*
D03*
X-55599Y104740D02*
D03*
X-65599Y109740D02*
D03*
X-55599Y114740D02*
D03*
X-65599Y119740D02*
D03*
X-55599Y124740D02*
D03*
X-65599Y129740D02*
D03*
Y184740D02*
D03*
X-55599Y179740D02*
D03*
X-65599Y174740D02*
D03*
X-55599Y169740D02*
D03*
X-65599Y164740D02*
D03*
X-55599Y159740D02*
D03*
X-65599Y154740D02*
D03*
X-55599Y149740D02*
D03*
X-65599Y239740D02*
D03*
X-55599Y234740D02*
D03*
X-65599Y229740D02*
D03*
X-55599Y224740D02*
D03*
X-65599Y219740D02*
D03*
X-55599Y214740D02*
D03*
X-65599Y209740D02*
D03*
X-55599Y204740D02*
D03*
X-65599Y294740D02*
D03*
X-55599Y289740D02*
D03*
X-65599Y284740D02*
D03*
X-55599Y279740D02*
D03*
X-65599Y274740D02*
D03*
X-55599Y269740D02*
D03*
X-65599Y264740D02*
D03*
X-55599Y259740D02*
D03*
X-81499D02*
D03*
X-91499Y264740D02*
D03*
X-81499Y269740D02*
D03*
X-91499Y274740D02*
D03*
X-81499Y279740D02*
D03*
X-91499Y284740D02*
D03*
X-81499Y289740D02*
D03*
X-91499Y294740D02*
D03*
X-81499Y204740D02*
D03*
X-91499Y209740D02*
D03*
X-81499Y214740D02*
D03*
X-91499Y219740D02*
D03*
X-81499Y224740D02*
D03*
X-91499Y229740D02*
D03*
X-81499Y234740D02*
D03*
X-91499Y239740D02*
D03*
X-81499Y149740D02*
D03*
X-91499Y154740D02*
D03*
X-81499Y159740D02*
D03*
X-91499Y164740D02*
D03*
X-81499Y169740D02*
D03*
X-91499Y174740D02*
D03*
X-81499Y179740D02*
D03*
X-91499Y184740D02*
D03*
Y129740D02*
D03*
X-81499Y124740D02*
D03*
X-91499Y119740D02*
D03*
X-81499Y114740D02*
D03*
X-91499Y109740D02*
D03*
X-81499Y104740D02*
D03*
X-91499Y99740D02*
D03*
X-81499Y94740D02*
D03*
D83*
X-581756Y111757D02*
D03*
Y106757D02*
D03*
X-586757Y111757D02*
D03*
Y106757D02*
D03*
X-591756Y111757D02*
D03*
Y106757D02*
D03*
X-596757Y111757D02*
D03*
Y106757D02*
D03*
X-601756Y111757D02*
D03*
Y106757D02*
D03*
X-606756Y111757D02*
D03*
Y106757D02*
D03*
X-611757Y111757D02*
D03*
Y106757D02*
D03*
X-616756Y111757D02*
D03*
Y106757D02*
D03*
D84*
X-631670Y336937D02*
D03*
X-621670D02*
D03*
X-631670Y326937D02*
D03*
X-621670D02*
D03*
D85*
X-549505Y354969D02*
D03*
Y345126D02*
D03*
X-572339Y363039D02*
D03*
X-582182D02*
D03*
X-441847Y331929D02*
D03*
Y251150D02*
D03*
Y166150D02*
D03*
Y82150D02*
D03*
D86*
X-583500Y117114D02*
D03*
X-619000Y101000D02*
D03*
X-599521Y102000D02*
D03*
X-580236Y117813D02*
D03*
X-595909Y116091D02*
D03*
X-609164Y101187D02*
D03*
X-606694Y68110D02*
D03*
X-231201Y370374D02*
D03*
X-231595Y279232D02*
D03*
Y179724D02*
D03*
X-228839Y96653D02*
D03*
X-386221Y89764D02*
D03*
X-384351Y180709D02*
D03*
X-376280Y279331D02*
D03*
X-376182Y370276D02*
D03*
X-561615Y166929D02*
D03*
X-451575Y340551D02*
D03*
X-454858Y335342D02*
D03*
X-451575Y259842D02*
D03*
X-454776Y254480D02*
D03*
X-451575Y90551D02*
D03*
X-454776Y85480D02*
D03*
Y169480D02*
D03*
X-621642Y61000D02*
D03*
X-621544Y71357D02*
D03*
X-606406Y80931D02*
D03*
X-601743Y86899D02*
D03*
X-361743Y170742D02*
D03*
X-357049Y169902D02*
D03*
X-364243Y158742D02*
D03*
X-357003Y159653D02*
D03*
X-363743Y148742D02*
D03*
X-357001Y149810D02*
D03*
X-363688Y137276D02*
D03*
X-357001Y139968D02*
D03*
X-315590Y169972D02*
D03*
X-309781Y169780D02*
D03*
X-315654Y159653D02*
D03*
X-308743Y158742D02*
D03*
X-315655Y149810D02*
D03*
X-308743Y147742D02*
D03*
X-315656Y139968D02*
D03*
X-308743Y137742D02*
D03*
X-351489Y158742D02*
D03*
Y148742D02*
D03*
Y139242D02*
D03*
X-351743Y130125D02*
D03*
X-329509Y157667D02*
D03*
X-329743Y147742D02*
D03*
X-329540Y137982D02*
D03*
X-208690Y170295D02*
D03*
X-203996Y169455D02*
D03*
X-211190Y158295D02*
D03*
X-203950Y159206D02*
D03*
X-210690Y148295D02*
D03*
X-203948Y149363D02*
D03*
X-210635Y136829D02*
D03*
X-203948Y139521D02*
D03*
X-162537Y169525D02*
D03*
X-156728Y169334D02*
D03*
X-162601Y159206D02*
D03*
X-155690Y158295D02*
D03*
X-162602Y149363D02*
D03*
X-155690Y147295D02*
D03*
X-162603Y139521D02*
D03*
X-155690Y137295D02*
D03*
X-198436Y158295D02*
D03*
Y148295D02*
D03*
Y138795D02*
D03*
X-198690Y129678D02*
D03*
X-176456Y157220D02*
D03*
X-176690Y147295D02*
D03*
X-176487Y137535D02*
D03*
X-362690Y80295D02*
D03*
X-357996Y79455D02*
D03*
X-365190Y68295D02*
D03*
X-357950Y69206D02*
D03*
X-364690Y58295D02*
D03*
X-357948Y59363D02*
D03*
X-364635Y46830D02*
D03*
X-357948Y49521D02*
D03*
X-316537Y79525D02*
D03*
X-310728Y79334D02*
D03*
X-316601Y69206D02*
D03*
X-309690Y68295D02*
D03*
X-316602Y59363D02*
D03*
X-309690Y57295D02*
D03*
X-316603Y49521D02*
D03*
X-309690Y47295D02*
D03*
X-352436Y68295D02*
D03*
Y58295D02*
D03*
Y48795D02*
D03*
X-352690Y39678D02*
D03*
X-330456Y67220D02*
D03*
X-330690Y57295D02*
D03*
X-330487Y47535D02*
D03*
X-362186Y269949D02*
D03*
X-357492Y269109D02*
D03*
X-364686Y257949D02*
D03*
X-357446Y258859D02*
D03*
X-364186Y247949D02*
D03*
X-357445Y249017D02*
D03*
X-364131Y236483D02*
D03*
X-357444Y239174D02*
D03*
X-316033Y269179D02*
D03*
X-310224Y268987D02*
D03*
X-316097Y258859D02*
D03*
X-309186Y257949D02*
D03*
X-316098Y249017D02*
D03*
X-309186Y246949D02*
D03*
X-316099Y239174D02*
D03*
X-309186Y236949D02*
D03*
X-351932Y257949D02*
D03*
Y247949D02*
D03*
Y238449D02*
D03*
X-352186Y229332D02*
D03*
X-329952Y256874D02*
D03*
X-330186Y246949D02*
D03*
X-329983Y237189D02*
D03*
X-362186Y360500D02*
D03*
X-357492Y359660D02*
D03*
X-364686Y348500D02*
D03*
X-357446Y349411D02*
D03*
X-364186Y338500D02*
D03*
X-357445Y339568D02*
D03*
X-364131Y327034D02*
D03*
X-357444Y329726D02*
D03*
X-316033Y359730D02*
D03*
X-310224Y359538D02*
D03*
X-316097Y349411D02*
D03*
X-309186Y348500D02*
D03*
X-316098Y339568D02*
D03*
X-309186Y337500D02*
D03*
X-316099Y329726D02*
D03*
X-309186Y327500D02*
D03*
X-351932Y348500D02*
D03*
Y338500D02*
D03*
Y329000D02*
D03*
X-352186Y319883D02*
D03*
X-329952Y347425D02*
D03*
X-330186Y337500D02*
D03*
X-329983Y327740D02*
D03*
X-208690Y80295D02*
D03*
X-203996Y79455D02*
D03*
X-211190Y68295D02*
D03*
X-203950Y69206D02*
D03*
X-210690Y58295D02*
D03*
X-203948Y59363D02*
D03*
X-210635Y46830D02*
D03*
X-203948Y49521D02*
D03*
X-162537Y79525D02*
D03*
X-156728Y79334D02*
D03*
X-162601Y69206D02*
D03*
X-155690Y68295D02*
D03*
X-162602Y59363D02*
D03*
X-155690Y57295D02*
D03*
X-162603Y49521D02*
D03*
X-155690Y47295D02*
D03*
X-198436Y68295D02*
D03*
Y58295D02*
D03*
Y48795D02*
D03*
X-198690Y39678D02*
D03*
X-176456Y67220D02*
D03*
X-176690Y57295D02*
D03*
X-176487Y47535D02*
D03*
X-208642Y269949D02*
D03*
X-203949Y269109D02*
D03*
X-211142Y257949D02*
D03*
X-203903Y258859D02*
D03*
X-210642Y247949D02*
D03*
X-203901Y249017D02*
D03*
X-210588Y236483D02*
D03*
X-203901Y239174D02*
D03*
X-162490Y269179D02*
D03*
X-156681Y268987D02*
D03*
X-162554Y258859D02*
D03*
X-155642Y257949D02*
D03*
X-162555Y249017D02*
D03*
X-155642Y246949D02*
D03*
X-162556Y239174D02*
D03*
X-155642Y236949D02*
D03*
X-198389Y257949D02*
D03*
Y247949D02*
D03*
Y238449D02*
D03*
X-198642Y229332D02*
D03*
X-176409Y256874D02*
D03*
X-176642Y246949D02*
D03*
X-176440Y237189D02*
D03*
X-155642Y327500D02*
D03*
Y337500D02*
D03*
Y348500D02*
D03*
X-156681Y359538D02*
D03*
X-176440Y327740D02*
D03*
X-176642Y337500D02*
D03*
X-176409Y347425D02*
D03*
X-210588Y327034D02*
D03*
X-210642Y338500D02*
D03*
X-211142Y348500D02*
D03*
X-208642Y360500D02*
D03*
X-203949Y359660D02*
D03*
X-203903Y349411D02*
D03*
X-203901Y339568D02*
D03*
X-203901Y329726D02*
D03*
X-198642Y319883D02*
D03*
X-198389Y348500D02*
D03*
Y338500D02*
D03*
Y329000D02*
D03*
X-162556Y329726D02*
D03*
X-162490Y359730D02*
D03*
X-162554Y349411D02*
D03*
X-162555Y339568D02*
D03*
X-469642Y102720D02*
D03*
X-471142Y114720D02*
D03*
X-464142Y117720D02*
D03*
X-448642Y55221D02*
D03*
X-455642Y62721D02*
D03*
X-460142Y107220D02*
D03*
X-469642Y186721D02*
D03*
X-471142Y198721D02*
D03*
X-464142Y201720D02*
D03*
X-448642Y139220D02*
D03*
X-455642Y146721D02*
D03*
X-460142Y191220D02*
D03*
X-469642Y271721D02*
D03*
X-471142Y283720D02*
D03*
X-464142Y286720D02*
D03*
X-448642Y224220D02*
D03*
X-455642Y231720D02*
D03*
X-460142Y276220D02*
D03*
X-455642Y312500D02*
D03*
X-448642Y305000D02*
D03*
X-464142Y367500D02*
D03*
X-460142Y357000D02*
D03*
X-469642Y352500D02*
D03*
X-471142Y364500D02*
D03*
D87*
X-273125Y236302D02*
D03*
X-451575Y175197D02*
D03*
X-500142Y74500D02*
D03*
X-458642Y68000D02*
D03*
X-557142Y200000D02*
D03*
X-455142Y72000D02*
D03*
X-578642Y202000D02*
D03*
X-464142Y72000D02*
D03*
X-599642Y206500D02*
D03*
X-558642Y208500D02*
D03*
X-561642Y220000D02*
D03*
X-556642Y196500D02*
D03*
X-581642Y208500D02*
D03*
X-584642Y219500D02*
D03*
X-579642Y196500D02*
D03*
X-604879Y209736D02*
D03*
X-607642Y219500D02*
D03*
X-602142Y196500D02*
D03*
X-463642Y156000D02*
D03*
X-458142Y151000D02*
D03*
X-455142Y156000D02*
D03*
X-458642Y236500D02*
D03*
X-463642Y241000D02*
D03*
X-454642D02*
D03*
X-462142Y322000D02*
D03*
X-458142Y317500D02*
D03*
X-454686Y322043D02*
D03*
X-556642Y71000D02*
D03*
X-573642Y76000D02*
D03*
X-581642Y69000D02*
D03*
X-451142Y46000D02*
D03*
X-446642Y302000D02*
D03*
X-597890Y76268D02*
D03*
X-624642Y81500D02*
D03*
X-559142Y227000D02*
D03*
X-552142Y223000D02*
D03*
X-582142Y227000D02*
D03*
X-605142D02*
D03*
X-575557Y223239D02*
D03*
X-598557Y223239D02*
D03*
X-597642Y191500D02*
D03*
X-574142D02*
D03*
X-551142D02*
D03*
X-603642Y175500D02*
D03*
X-557642D02*
D03*
X-580642D02*
D03*
X-574642Y151500D02*
D03*
X-589142Y143500D02*
D03*
X-589039Y153901D02*
D03*
X-570056Y171500D02*
D03*
X-448642Y115000D02*
D03*
X-450142Y202000D02*
D03*
X-451142Y287000D02*
D03*
X-25642Y47890D02*
D03*
X-241642Y173221D02*
D03*
Y169858D02*
D03*
X-241142Y154069D02*
D03*
Y157431D02*
D03*
X-433142Y95000D02*
D03*
X-435520Y97377D02*
D03*
X-428642Y91000D02*
D03*
X-426265Y88623D02*
D03*
X-421142Y87500D02*
D03*
X-418765Y85123D02*
D03*
X-444520Y102377D02*
D03*
X-442142Y100000D02*
D03*
X-241142Y137327D02*
D03*
Y140689D02*
D03*
Y121069D02*
D03*
Y124431D02*
D03*
X-450318Y319731D02*
D03*
X-450176Y239052D02*
D03*
Y154052D02*
D03*
Y70052D02*
D03*
X-417142Y322000D02*
D03*
X-414765Y324377D02*
D03*
X-241142Y272874D02*
D03*
Y269512D02*
D03*
X-240642Y253722D02*
D03*
Y257085D02*
D03*
X-422765Y323377D02*
D03*
X-425142Y321000D02*
D03*
X-241142Y236980D02*
D03*
Y240342D02*
D03*
X-434520Y304623D02*
D03*
X-432142Y307000D02*
D03*
X-241142Y224085D02*
D03*
Y220722D02*
D03*
X-437020Y297623D02*
D03*
X-434642Y300000D02*
D03*
X-273125Y119095D02*
D03*
Y122609D02*
D03*
Y158609D02*
D03*
Y155095D02*
D03*
Y176610D02*
D03*
Y173095D02*
D03*
Y137095D02*
D03*
Y140610D02*
D03*
X-274125Y50163D02*
D03*
Y46648D02*
D03*
Y82648D02*
D03*
Y86163D02*
D03*
Y64648D02*
D03*
Y68163D02*
D03*
Y28648D02*
D03*
Y32163D02*
D03*
X-118142Y118000D02*
D03*
X-115765Y120377D02*
D03*
X-117125Y158163D02*
D03*
Y154648D02*
D03*
X-273125Y221816D02*
D03*
Y218302D02*
D03*
Y239816D02*
D03*
Y257816D02*
D03*
Y254302D02*
D03*
X-273625Y275816D02*
D03*
Y272302D02*
D03*
X-274125Y308853D02*
D03*
Y312367D02*
D03*
X-273625Y344853D02*
D03*
Y348367D02*
D03*
X-274125Y326853D02*
D03*
Y330367D02*
D03*
X-273623Y366394D02*
D03*
Y362826D02*
D03*
X-108125Y312367D02*
D03*
Y308853D02*
D03*
X-108765Y343377D02*
D03*
X-111142Y341000D02*
D03*
X-383243Y115242D02*
D03*
X-383743Y130742D02*
D03*
Y147742D02*
D03*
Y164242D02*
D03*
X-230190Y114795D02*
D03*
X-230690Y130295D02*
D03*
Y147295D02*
D03*
Y163795D02*
D03*
X-384190Y24795D02*
D03*
X-384690Y40295D02*
D03*
Y57295D02*
D03*
Y73795D02*
D03*
X-383686Y214449D02*
D03*
X-384186Y229949D02*
D03*
Y246949D02*
D03*
Y263449D02*
D03*
X-383686Y305000D02*
D03*
X-384186Y320500D02*
D03*
Y337500D02*
D03*
Y354000D02*
D03*
X-230190Y24795D02*
D03*
X-230690Y40295D02*
D03*
Y57295D02*
D03*
Y73795D02*
D03*
X-230142Y214449D02*
D03*
X-230642Y229949D02*
D03*
Y246949D02*
D03*
Y263449D02*
D03*
X-230142Y305000D02*
D03*
X-230642Y320500D02*
D03*
Y337500D02*
D03*
Y354000D02*
D03*
X-470142Y82221D02*
D03*
X-475142Y69221D02*
D03*
Y81221D02*
D03*
X-462792Y89720D02*
D03*
X-470142Y166220D02*
D03*
X-475142Y153220D02*
D03*
Y165220D02*
D03*
X-462792Y173721D02*
D03*
X-470142Y251220D02*
D03*
X-475142Y238221D02*
D03*
Y250220D02*
D03*
X-462792Y258720D02*
D03*
Y339500D02*
D03*
X-470142Y332000D02*
D03*
X-475142Y319000D02*
D03*
Y331000D02*
D03*
X-613642Y280000D02*
D03*
X-641642Y286000D02*
D03*
X-508142Y345000D02*
D03*
X-503142D02*
D03*
X-500142Y349000D02*
D03*
Y355000D02*
D03*
X-503142Y359000D02*
D03*
X-508142D02*
D03*
Y303000D02*
D03*
X-503142D02*
D03*
X-500142Y307000D02*
D03*
Y313000D02*
D03*
X-503142Y317000D02*
D03*
X-508142D02*
D03*
X-537142Y304000D02*
D03*
Y299000D02*
D03*
X-531142D02*
D03*
X-525142D02*
D03*
Y304000D02*
D03*
X-517142Y329000D02*
D03*
X-512142D02*
D03*
Y335000D02*
D03*
Y341000D02*
D03*
X-517142D02*
D03*
X-586142Y285000D02*
D03*
X-547142Y306150D02*
D03*
X-563142Y319000D02*
D03*
X-591941Y294250D02*
D03*
D88*
X-582969Y312055D02*
D03*
Y307724D02*
D03*
X-587300Y312055D02*
D03*
Y307724D02*
D03*
X-591631Y312055D02*
D03*
Y307724D02*
D03*
M02*
