G04*
G04 #@! TF.GenerationSoftware,Altium Limited,Altium Designer,20.1.11 (218)*
G04*
G04 Layer_Color=16711935*
%FSLAX25Y25*%
%MOIN*%
G70*
G04*
G04 #@! TF.SameCoordinates,EFBFEF3F-44E6-4950-A5DF-AD3F0B9A94F3*
G04*
G04*
G04 #@! TF.FilePolarity,Negative*
G04*
G01*
G75*
%ADD54R,0.03556X0.05524*%
%ADD55R,0.05524X0.03556*%
%ADD66C,0.10800*%
%ADD67C,0.10249*%
%ADD68C,0.13398*%
%ADD69C,0.06706*%
%ADD70C,0.11811*%
%ADD71C,0.04343*%
%ADD72C,0.05918*%
%ADD73C,0.06600*%
D54*
X-263000Y365000D02*
D03*
X-269299D02*
D03*
X-110000Y366000D02*
D03*
X-116299D02*
D03*
X-129000Y97000D02*
D03*
X-135299D02*
D03*
X-112000Y125000D02*
D03*
X-118299D02*
D03*
X-112701Y163000D02*
D03*
X-119000D02*
D03*
D55*
X-269000Y38000D02*
D03*
Y31701D02*
D03*
Y57000D02*
D03*
Y50701D02*
D03*
Y75299D02*
D03*
Y69000D02*
D03*
Y81000D02*
D03*
Y87299D02*
D03*
X-268000Y129299D02*
D03*
Y123000D02*
D03*
Y147299D02*
D03*
Y141000D02*
D03*
Y165000D02*
D03*
Y158701D02*
D03*
Y183000D02*
D03*
Y176701D02*
D03*
Y214701D02*
D03*
Y221000D02*
D03*
Y245000D02*
D03*
Y238701D02*
D03*
Y263000D02*
D03*
Y256701D02*
D03*
Y268000D02*
D03*
Y274299D02*
D03*
X-269000Y304701D02*
D03*
Y311000D02*
D03*
Y336000D02*
D03*
Y329701D02*
D03*
Y354000D02*
D03*
Y347701D02*
D03*
X-116000Y181000D02*
D03*
Y174701D02*
D03*
Y56000D02*
D03*
Y49701D02*
D03*
Y74000D02*
D03*
Y67701D02*
D03*
Y145000D02*
D03*
Y138701D02*
D03*
Y216000D02*
D03*
Y222299D02*
D03*
Y232701D02*
D03*
Y239000D02*
D03*
X-117000Y251000D02*
D03*
Y257299D02*
D03*
X-116000Y281000D02*
D03*
Y274701D02*
D03*
Y305701D02*
D03*
Y312000D02*
D03*
Y335299D02*
D03*
Y329000D02*
D03*
X-115000Y353299D02*
D03*
Y347000D02*
D03*
X-116000Y38000D02*
D03*
Y31701D02*
D03*
D66*
X-569142Y180000D02*
D03*
X-566142Y47000D02*
D03*
X-587142Y170000D02*
D03*
X-545142Y59000D02*
D03*
X-638142Y72000D02*
D03*
X-507142Y133000D02*
D03*
X-536142Y78000D02*
D03*
X-609142Y170000D02*
D03*
X-504142Y376000D02*
D03*
X-630142Y305000D02*
D03*
X-520142Y285000D02*
D03*
X-545174Y326425D02*
D03*
X-616434Y372094D02*
D03*
D67*
X-12599Y310740D02*
D03*
X-53699Y305540D02*
D03*
X-75399Y310740D02*
D03*
X-91499Y78740D02*
D03*
X-66599Y81340D02*
D03*
X-12599Y78740D02*
D03*
D68*
X-30599Y299740D02*
D03*
Y89740D02*
D03*
D69*
X-55599Y94740D02*
D03*
X-65599Y99740D02*
D03*
X-55599Y104740D02*
D03*
X-65599Y109740D02*
D03*
X-55599Y114740D02*
D03*
X-65599Y119740D02*
D03*
X-55599Y124740D02*
D03*
X-65599Y129740D02*
D03*
Y184740D02*
D03*
X-55599Y179740D02*
D03*
X-65599Y174740D02*
D03*
X-55599Y169740D02*
D03*
X-65599Y164740D02*
D03*
X-55599Y159740D02*
D03*
X-65599Y154740D02*
D03*
X-55599Y149740D02*
D03*
X-65599Y239740D02*
D03*
X-55599Y234740D02*
D03*
X-65599Y229740D02*
D03*
X-55599Y224740D02*
D03*
X-65599Y219740D02*
D03*
X-55599Y214740D02*
D03*
X-65599Y209740D02*
D03*
X-55599Y204740D02*
D03*
X-65599Y294740D02*
D03*
X-55599Y289740D02*
D03*
X-65599Y284740D02*
D03*
X-55599Y279740D02*
D03*
X-65599Y274740D02*
D03*
X-55599Y269740D02*
D03*
X-65599Y264740D02*
D03*
X-55599Y259740D02*
D03*
X-81499D02*
D03*
X-91499Y264740D02*
D03*
X-81499Y269740D02*
D03*
X-91499Y274740D02*
D03*
X-81499Y279740D02*
D03*
X-91499Y284740D02*
D03*
X-81499Y289740D02*
D03*
X-91499Y294740D02*
D03*
X-81499Y204740D02*
D03*
X-91499Y209740D02*
D03*
X-81499Y214740D02*
D03*
X-91499Y219740D02*
D03*
X-81499Y224740D02*
D03*
X-91499Y229740D02*
D03*
X-81499Y234740D02*
D03*
X-91499Y239740D02*
D03*
X-81499Y149740D02*
D03*
X-91499Y154740D02*
D03*
X-81499Y159740D02*
D03*
X-91499Y164740D02*
D03*
X-81499Y169740D02*
D03*
X-91499Y174740D02*
D03*
X-81499Y179740D02*
D03*
X-91499Y184740D02*
D03*
Y129740D02*
D03*
X-81499Y124740D02*
D03*
X-91499Y119740D02*
D03*
X-81499Y114740D02*
D03*
X-91499Y109740D02*
D03*
X-81499Y104740D02*
D03*
X-91499Y99740D02*
D03*
X-81499Y94740D02*
D03*
D70*
X-652087Y371850D02*
D03*
Y21850D02*
D03*
D71*
X-581756Y111757D02*
D03*
Y106757D02*
D03*
X-586757Y111757D02*
D03*
Y106757D02*
D03*
X-591756Y111757D02*
D03*
Y106757D02*
D03*
X-596757Y111757D02*
D03*
Y106757D02*
D03*
X-601756Y111757D02*
D03*
Y106757D02*
D03*
X-606756Y111757D02*
D03*
Y106757D02*
D03*
X-611757Y111757D02*
D03*
Y106757D02*
D03*
X-616756Y111757D02*
D03*
Y106757D02*
D03*
D72*
X-572339Y363039D02*
D03*
X-582182D02*
D03*
X-549505Y354969D02*
D03*
Y345126D02*
D03*
D73*
X-631670Y336937D02*
D03*
X-621670D02*
D03*
X-631670Y326937D02*
D03*
X-621670D02*
D03*
M02*
