G04*
G04 #@! TF.GenerationSoftware,Altium Limited,Altium Designer,20.1.11 (218)*
G04*
G04 Layer_Color=8421504*
%FSLAX25Y25*%
%MOIN*%
G70*
G04*
G04 #@! TF.SameCoordinates,791B5E8E-85BA-4B16-884C-9818148C06D6*
G04*
G04*
G04 #@! TF.FilePolarity,Positive*
G04*
G01*
G75*
%ADD28R,0.04724X0.04331*%
%ADD29R,0.08268X0.04724*%
%ADD30R,0.02756X0.02520*%
%ADD31R,0.02756X0.01968*%
%ADD32O,0.00984X0.02953*%
%ADD33O,0.02953X0.00984*%
%ADD34R,0.04724X0.08268*%
%ADD35R,0.02756X0.04724*%
%ADD36R,0.04724X0.02756*%
%ADD37R,0.04724X0.03150*%
%ADD38R,0.03150X0.04724*%
%ADD39R,0.05512X0.01772*%
%ADD40O,0.06299X0.01181*%
%ADD41R,0.02362X0.06102*%
%ADD42R,0.12205X0.10236*%
%ADD43R,0.01772X0.05906*%
%ADD44R,0.15748X0.05906*%
%ADD45R,0.02362X0.04331*%
%ADD46R,0.10000X0.10000*%
G36*
X-445430Y75024D02*
X-445823Y75417D01*
Y77780D01*
X-446217Y78173D01*
X-448579D01*
X-448973Y78567D01*
Y80929D01*
X-448579Y81323D01*
X-443068D01*
X-442674Y80929D01*
Y75417D01*
X-443068Y75024D01*
X-445430D01*
D02*
G37*
G36*
X-448973Y85654D02*
X-448579Y86047D01*
X-446217D01*
X-445823Y86441D01*
Y88803D01*
X-442674D01*
Y83291D01*
X-443068Y82898D01*
X-448579D01*
X-448973Y83291D01*
Y85654D01*
D02*
G37*
G36*
X-434800Y78567D02*
X-435193Y78173D01*
X-437556D01*
X-437949Y77780D01*
Y75417D01*
X-438343Y75024D01*
X-440705D01*
X-441099Y75417D01*
Y80929D01*
X-440705Y81323D01*
X-435193D01*
X-434800Y80929D01*
Y78567D01*
D02*
G37*
G36*
X-438343Y89197D02*
X-437949Y88803D01*
Y86441D01*
X-437556Y86047D01*
X-435193D01*
X-434800Y85654D01*
Y83291D01*
X-435193Y82898D01*
X-440705D01*
X-441099Y83291D01*
Y88803D01*
X-440705Y89197D01*
X-438343D01*
D02*
G37*
G36*
X-445430Y159024D02*
X-445823Y159417D01*
Y161779D01*
X-446217Y162173D01*
X-448579D01*
X-448973Y162567D01*
Y164929D01*
X-448579Y165323D01*
X-443068D01*
X-442674Y164929D01*
Y159417D01*
X-443068Y159024D01*
X-445430D01*
D02*
G37*
G36*
X-448973Y169653D02*
X-448579Y170047D01*
X-446217D01*
X-445823Y170441D01*
Y172803D01*
X-442674D01*
Y167291D01*
X-443068Y166898D01*
X-448579D01*
X-448973Y167291D01*
Y169653D01*
D02*
G37*
G36*
X-434800Y162567D02*
X-435193Y162173D01*
X-437556D01*
X-437949Y161779D01*
Y159417D01*
X-438343Y159024D01*
X-440705D01*
X-441099Y159417D01*
Y164929D01*
X-440705Y165323D01*
X-435193D01*
X-434800Y164929D01*
Y162567D01*
D02*
G37*
G36*
X-438343Y173197D02*
X-437949Y172803D01*
Y170441D01*
X-437556Y170047D01*
X-435193D01*
X-434800Y169653D01*
Y167291D01*
X-435193Y166898D01*
X-440705D01*
X-441099Y167291D01*
Y172803D01*
X-440705Y173197D01*
X-438343D01*
D02*
G37*
G36*
X-445430Y244024D02*
X-445823Y244417D01*
Y246779D01*
X-446217Y247173D01*
X-448579D01*
X-448973Y247567D01*
Y249929D01*
X-448579Y250323D01*
X-443068D01*
X-442674Y249929D01*
Y244417D01*
X-443068Y244024D01*
X-445430D01*
D02*
G37*
G36*
X-448973Y254654D02*
X-448579Y255047D01*
X-446217D01*
X-445823Y255441D01*
Y257803D01*
X-442674D01*
Y252291D01*
X-443068Y251898D01*
X-448579D01*
X-448973Y252291D01*
Y254654D01*
D02*
G37*
G36*
X-434800Y247567D02*
X-435193Y247173D01*
X-437556D01*
X-437949Y246779D01*
Y244417D01*
X-438343Y244024D01*
X-440705D01*
X-441099Y244417D01*
Y249929D01*
X-440705Y250323D01*
X-435193D01*
X-434800Y249929D01*
Y247567D01*
D02*
G37*
G36*
X-438343Y258197D02*
X-437949Y257803D01*
Y255441D01*
X-437556Y255047D01*
X-435193D01*
X-434800Y254654D01*
Y252291D01*
X-435193Y251898D01*
X-440705D01*
X-441099Y252291D01*
Y257803D01*
X-440705Y258197D01*
X-438343D01*
D02*
G37*
G36*
X-445430Y324803D02*
X-445823Y325197D01*
Y327559D01*
X-446217Y327953D01*
X-448579D01*
X-448973Y328346D01*
Y330709D01*
X-448579Y331102D01*
X-443068D01*
X-442674Y330709D01*
Y325197D01*
X-443068Y324803D01*
X-445430D01*
D02*
G37*
G36*
X-448973Y335433D02*
X-448579Y335827D01*
X-446217D01*
X-445823Y336221D01*
Y338583D01*
X-442674D01*
Y333071D01*
X-443068Y332677D01*
X-448579D01*
X-448973Y333071D01*
Y335433D01*
D02*
G37*
G36*
X-434800Y328346D02*
X-435193Y327953D01*
X-437556D01*
X-437949Y327559D01*
Y325197D01*
X-438343Y324803D01*
X-440705D01*
X-441099Y325197D01*
Y330709D01*
X-440705Y331102D01*
X-435193D01*
X-434800Y330709D01*
Y328346D01*
D02*
G37*
G36*
X-438343Y338976D02*
X-437949Y338583D01*
Y336221D01*
X-437556Y335827D01*
X-435193D01*
X-434800Y335433D01*
Y333071D01*
X-435193Y332677D01*
X-440705D01*
X-441099Y333071D01*
Y338583D01*
X-440705Y338976D01*
X-438343D01*
D02*
G37*
D28*
X-618465Y271835D02*
D03*
Y280102D02*
D03*
X-638969D02*
D03*
Y271835D02*
D03*
D29*
X-19000Y59701D02*
D03*
Y47890D02*
D03*
X-602260Y358709D02*
D03*
Y346898D02*
D03*
X-531142Y304000D02*
D03*
Y315811D02*
D03*
X-125095Y304705D02*
D03*
Y316516D02*
D03*
Y225964D02*
D03*
Y214154D02*
D03*
X-278638Y304705D02*
D03*
Y316516D02*
D03*
Y225964D02*
D03*
Y214154D02*
D03*
X-278195Y114947D02*
D03*
Y126758D02*
D03*
X-279142Y36311D02*
D03*
Y24500D02*
D03*
X-125142Y114500D02*
D03*
Y126311D02*
D03*
Y36311D02*
D03*
Y24500D02*
D03*
X-125095Y322705D02*
D03*
Y334516D02*
D03*
Y243965D02*
D03*
Y232154D02*
D03*
X-278638Y322705D02*
D03*
Y334516D02*
D03*
Y243965D02*
D03*
Y232154D02*
D03*
X-278195Y132947D02*
D03*
Y144758D02*
D03*
X-279142Y54311D02*
D03*
Y42500D02*
D03*
X-125142Y132500D02*
D03*
Y144311D02*
D03*
Y54311D02*
D03*
Y42500D02*
D03*
X-125095Y340705D02*
D03*
Y352516D02*
D03*
Y261965D02*
D03*
Y250153D02*
D03*
X-278638Y340705D02*
D03*
Y352516D02*
D03*
Y261965D02*
D03*
Y250153D02*
D03*
X-278195Y150947D02*
D03*
Y162758D02*
D03*
X-279142Y72311D02*
D03*
Y60500D02*
D03*
X-125142Y150500D02*
D03*
Y162311D02*
D03*
Y72311D02*
D03*
Y60500D02*
D03*
X-125095Y358705D02*
D03*
Y370516D02*
D03*
Y279964D02*
D03*
Y268154D02*
D03*
X-278638Y358705D02*
D03*
Y370516D02*
D03*
Y279964D02*
D03*
Y268154D02*
D03*
X-278195Y168947D02*
D03*
Y180758D02*
D03*
X-279142Y90311D02*
D03*
Y78500D02*
D03*
X-125142Y168500D02*
D03*
Y180311D02*
D03*
Y90311D02*
D03*
Y78500D02*
D03*
X-31899Y59701D02*
D03*
Y47890D02*
D03*
X-135595Y316516D02*
D03*
Y304705D02*
D03*
Y214154D02*
D03*
Y225964D02*
D03*
X-289138Y316516D02*
D03*
Y304705D02*
D03*
Y214154D02*
D03*
Y225964D02*
D03*
X-288695Y126758D02*
D03*
Y114947D02*
D03*
X-289642Y24500D02*
D03*
Y36311D02*
D03*
X-135642Y126311D02*
D03*
Y114500D02*
D03*
Y24500D02*
D03*
Y36311D02*
D03*
X-135595Y334516D02*
D03*
Y322705D02*
D03*
Y232154D02*
D03*
Y243965D02*
D03*
X-289138Y334516D02*
D03*
Y322705D02*
D03*
Y232154D02*
D03*
Y243965D02*
D03*
X-288695Y144758D02*
D03*
Y132947D02*
D03*
X-289642Y42500D02*
D03*
Y54311D02*
D03*
X-135642Y144311D02*
D03*
Y132500D02*
D03*
Y42500D02*
D03*
Y54311D02*
D03*
X-135595Y352516D02*
D03*
Y340705D02*
D03*
Y250153D02*
D03*
Y261965D02*
D03*
X-289138Y352516D02*
D03*
Y340705D02*
D03*
Y250153D02*
D03*
Y261965D02*
D03*
X-288695Y162758D02*
D03*
Y150947D02*
D03*
X-289642Y60500D02*
D03*
Y72311D02*
D03*
X-135642Y162311D02*
D03*
Y150500D02*
D03*
Y60500D02*
D03*
Y72311D02*
D03*
X-135595Y370516D02*
D03*
Y358705D02*
D03*
Y268154D02*
D03*
Y279964D02*
D03*
X-289138Y370516D02*
D03*
Y358705D02*
D03*
Y268154D02*
D03*
Y279964D02*
D03*
X-288695Y180758D02*
D03*
Y168947D02*
D03*
X-289642Y78500D02*
D03*
Y90311D02*
D03*
X-135642Y180311D02*
D03*
Y168500D02*
D03*
Y78500D02*
D03*
Y90311D02*
D03*
D30*
X-180639Y304413D02*
D03*
Y314846D02*
D03*
X-186151Y304413D02*
D03*
Y314846D02*
D03*
Y224295D02*
D03*
Y213862D02*
D03*
X-180639Y224295D02*
D03*
Y213862D02*
D03*
X-334183Y304413D02*
D03*
Y314846D02*
D03*
X-339694Y304413D02*
D03*
Y314846D02*
D03*
Y224295D02*
D03*
Y213862D02*
D03*
X-334183Y224295D02*
D03*
Y213862D02*
D03*
X-333739Y114655D02*
D03*
Y125089D02*
D03*
X-339251Y114655D02*
D03*
Y125089D02*
D03*
X-340198Y34642D02*
D03*
Y24209D02*
D03*
X-334686Y34642D02*
D03*
Y24209D02*
D03*
X-180686Y114209D02*
D03*
Y124642D02*
D03*
X-186198Y114209D02*
D03*
Y124642D02*
D03*
Y34642D02*
D03*
Y24209D02*
D03*
X-180686Y34642D02*
D03*
Y24209D02*
D03*
X-180639Y360319D02*
D03*
Y370752D02*
D03*
X-186151Y360319D02*
D03*
Y370752D02*
D03*
Y280201D02*
D03*
Y269768D02*
D03*
X-180639Y280201D02*
D03*
Y269768D02*
D03*
X-334183Y360319D02*
D03*
Y370752D02*
D03*
X-339694Y360319D02*
D03*
Y370752D02*
D03*
Y280201D02*
D03*
Y269768D02*
D03*
X-334183Y280201D02*
D03*
Y269768D02*
D03*
X-333739Y170561D02*
D03*
Y180994D02*
D03*
X-339251Y170561D02*
D03*
Y180994D02*
D03*
X-340198Y90547D02*
D03*
Y80114D02*
D03*
X-334686Y90547D02*
D03*
Y80114D02*
D03*
X-180686Y170114D02*
D03*
Y180547D02*
D03*
X-186198Y170114D02*
D03*
Y180547D02*
D03*
Y90547D02*
D03*
Y80114D02*
D03*
X-180686Y90547D02*
D03*
Y80114D02*
D03*
D31*
X-180639Y308055D02*
D03*
Y311205D02*
D03*
X-186151Y308055D02*
D03*
Y311205D02*
D03*
Y220654D02*
D03*
Y217504D02*
D03*
X-180639Y220654D02*
D03*
Y217504D02*
D03*
X-334183Y308055D02*
D03*
Y311205D02*
D03*
X-339694Y308055D02*
D03*
Y311205D02*
D03*
Y220654D02*
D03*
Y217504D02*
D03*
X-334183Y220654D02*
D03*
Y217504D02*
D03*
X-333739Y118297D02*
D03*
Y121447D02*
D03*
X-339251Y118297D02*
D03*
Y121447D02*
D03*
X-340198Y31000D02*
D03*
Y27850D02*
D03*
X-334686Y31000D02*
D03*
Y27850D02*
D03*
X-180686Y117850D02*
D03*
Y121000D02*
D03*
X-186198Y117850D02*
D03*
Y121000D02*
D03*
Y31000D02*
D03*
Y27850D02*
D03*
X-180686Y31000D02*
D03*
Y27850D02*
D03*
X-180639Y363961D02*
D03*
Y367110D02*
D03*
X-186151Y363961D02*
D03*
Y367110D02*
D03*
Y276559D02*
D03*
Y273410D02*
D03*
X-180639Y276559D02*
D03*
Y273410D02*
D03*
X-334183Y363961D02*
D03*
Y367110D02*
D03*
X-339694Y363961D02*
D03*
Y367110D02*
D03*
Y276559D02*
D03*
Y273410D02*
D03*
X-334183Y276559D02*
D03*
Y273410D02*
D03*
X-333739Y174203D02*
D03*
Y177352D02*
D03*
X-339251Y174203D02*
D03*
Y177352D02*
D03*
X-340198Y86905D02*
D03*
Y83756D02*
D03*
X-334686Y86905D02*
D03*
Y83756D02*
D03*
X-180686Y173756D02*
D03*
Y176906D02*
D03*
X-186198Y173756D02*
D03*
Y176906D02*
D03*
Y86905D02*
D03*
Y83756D02*
D03*
X-180686Y86905D02*
D03*
Y83756D02*
D03*
D32*
X-434997Y322146D02*
D03*
X-436965D02*
D03*
X-438934D02*
D03*
X-440902D02*
D03*
X-442871D02*
D03*
X-444839D02*
D03*
X-446808D02*
D03*
X-448776D02*
D03*
Y341634D02*
D03*
X-446808D02*
D03*
X-444839D02*
D03*
X-442871D02*
D03*
X-440902D02*
D03*
X-438934D02*
D03*
X-436965D02*
D03*
X-434997D02*
D03*
Y260854D02*
D03*
X-436965D02*
D03*
X-438934D02*
D03*
X-440902D02*
D03*
X-442871D02*
D03*
X-444839D02*
D03*
X-446808D02*
D03*
X-448776D02*
D03*
Y241366D02*
D03*
X-446808D02*
D03*
X-444839D02*
D03*
X-442871D02*
D03*
X-440902D02*
D03*
X-438934D02*
D03*
X-436965D02*
D03*
X-434997D02*
D03*
Y156366D02*
D03*
X-436965D02*
D03*
X-438934D02*
D03*
X-440902D02*
D03*
X-442871D02*
D03*
X-444839D02*
D03*
X-446808D02*
D03*
X-448776D02*
D03*
Y175854D02*
D03*
X-446808D02*
D03*
X-444839D02*
D03*
X-442871D02*
D03*
X-440902D02*
D03*
X-438934D02*
D03*
X-436965D02*
D03*
X-434997D02*
D03*
Y91854D02*
D03*
X-436965D02*
D03*
X-438934D02*
D03*
X-440902D02*
D03*
X-442871D02*
D03*
X-444839D02*
D03*
X-446808D02*
D03*
X-448776D02*
D03*
Y72366D02*
D03*
X-446808D02*
D03*
X-444839D02*
D03*
X-442871D02*
D03*
X-440902D02*
D03*
X-438934D02*
D03*
X-436965D02*
D03*
X-434997D02*
D03*
D33*
X-451630Y325000D02*
D03*
Y326969D02*
D03*
Y328937D02*
D03*
Y330906D02*
D03*
Y332874D02*
D03*
Y334842D02*
D03*
Y336811D02*
D03*
Y338779D02*
D03*
X-432142D02*
D03*
Y325000D02*
D03*
Y336811D02*
D03*
Y334842D02*
D03*
Y332874D02*
D03*
Y330906D02*
D03*
Y328937D02*
D03*
Y326969D02*
D03*
Y246189D02*
D03*
Y248158D02*
D03*
Y250126D02*
D03*
Y252095D02*
D03*
Y254063D02*
D03*
Y256031D02*
D03*
Y244220D02*
D03*
Y258000D02*
D03*
X-451630D02*
D03*
Y256031D02*
D03*
Y254063D02*
D03*
Y252095D02*
D03*
Y250126D02*
D03*
Y248158D02*
D03*
Y246189D02*
D03*
Y244220D02*
D03*
Y159221D02*
D03*
Y161189D02*
D03*
Y163157D02*
D03*
Y165126D02*
D03*
Y167095D02*
D03*
Y169063D02*
D03*
Y171031D02*
D03*
Y173000D02*
D03*
X-432142D02*
D03*
Y159221D02*
D03*
Y171031D02*
D03*
Y169063D02*
D03*
Y167095D02*
D03*
Y165126D02*
D03*
Y163157D02*
D03*
Y161189D02*
D03*
Y77189D02*
D03*
Y79158D02*
D03*
Y81126D02*
D03*
Y83095D02*
D03*
Y85063D02*
D03*
Y87032D02*
D03*
Y75221D02*
D03*
Y89000D02*
D03*
X-451630D02*
D03*
Y87032D02*
D03*
Y85063D02*
D03*
Y83095D02*
D03*
Y81126D02*
D03*
Y79158D02*
D03*
Y77189D02*
D03*
Y75221D02*
D03*
D34*
X-517142Y335000D02*
D03*
X-528953D02*
D03*
X-561316Y330756D02*
D03*
X-573127D02*
D03*
X-573520Y342961D02*
D03*
X-585331D02*
D03*
D35*
X-221523Y311705D02*
D03*
X-215224D02*
D03*
Y221153D02*
D03*
X-221523D02*
D03*
X-375066Y311705D02*
D03*
X-368767D02*
D03*
Y221153D02*
D03*
X-375066D02*
D03*
X-374623Y121947D02*
D03*
X-368324D02*
D03*
X-369271Y31500D02*
D03*
X-375570D02*
D03*
X-221570Y121500D02*
D03*
X-215271D02*
D03*
Y31500D02*
D03*
X-221570D02*
D03*
X-150394Y313705D02*
D03*
X-144095D02*
D03*
Y223153D02*
D03*
X-150394D02*
D03*
X-303938Y313705D02*
D03*
X-297638D02*
D03*
Y223153D02*
D03*
X-303938D02*
D03*
X-303495Y123947D02*
D03*
X-297195D02*
D03*
X-298142Y33500D02*
D03*
X-304441D02*
D03*
X-150442Y123500D02*
D03*
X-144142D02*
D03*
Y33500D02*
D03*
X-150442D02*
D03*
X-221481Y318205D02*
D03*
X-215182D02*
D03*
Y227654D02*
D03*
X-221481D02*
D03*
X-375024Y318205D02*
D03*
X-368725D02*
D03*
Y227654D02*
D03*
X-375024D02*
D03*
X-374581Y128447D02*
D03*
X-368282D02*
D03*
X-369229Y38000D02*
D03*
X-375528D02*
D03*
X-221528Y128000D02*
D03*
X-215229D02*
D03*
Y38000D02*
D03*
X-221528D02*
D03*
X-150394Y320205D02*
D03*
X-144095D02*
D03*
Y229654D02*
D03*
X-150394D02*
D03*
X-303938Y320205D02*
D03*
X-297638D02*
D03*
Y229654D02*
D03*
X-303938D02*
D03*
X-303495Y130447D02*
D03*
X-297195D02*
D03*
X-298142Y40000D02*
D03*
X-304441D02*
D03*
X-150442Y130000D02*
D03*
X-144142D02*
D03*
Y40000D02*
D03*
X-150442D02*
D03*
X-221481Y326705D02*
D03*
X-215182D02*
D03*
Y236154D02*
D03*
X-221481D02*
D03*
X-375024Y326705D02*
D03*
X-368725D02*
D03*
Y236154D02*
D03*
X-375024D02*
D03*
X-374581Y136947D02*
D03*
X-368282D02*
D03*
X-369229Y46500D02*
D03*
X-375528D02*
D03*
X-221528Y136500D02*
D03*
X-215229D02*
D03*
Y46500D02*
D03*
X-221528D02*
D03*
X-150394Y327705D02*
D03*
X-144095D02*
D03*
Y237154D02*
D03*
X-150394D02*
D03*
X-303938Y327705D02*
D03*
X-297638D02*
D03*
Y237154D02*
D03*
X-303938D02*
D03*
X-303495Y137947D02*
D03*
X-297195D02*
D03*
X-298142Y47500D02*
D03*
X-304441D02*
D03*
X-150442Y137500D02*
D03*
X-144142D02*
D03*
Y47500D02*
D03*
X-150442D02*
D03*
X-221481Y333205D02*
D03*
X-215182D02*
D03*
Y242653D02*
D03*
X-221481D02*
D03*
X-375024Y333205D02*
D03*
X-368725D02*
D03*
Y242653D02*
D03*
X-375024D02*
D03*
X-374581Y143447D02*
D03*
X-368282D02*
D03*
X-369229Y53000D02*
D03*
X-375528D02*
D03*
X-221528Y143000D02*
D03*
X-215229D02*
D03*
Y53000D02*
D03*
X-221528D02*
D03*
X-150394Y334205D02*
D03*
X-144095D02*
D03*
Y243653D02*
D03*
X-150394D02*
D03*
X-303938Y334205D02*
D03*
X-297638D02*
D03*
Y243653D02*
D03*
X-303938D02*
D03*
X-303495Y144447D02*
D03*
X-297195D02*
D03*
X-298142Y54000D02*
D03*
X-304441D02*
D03*
X-150442Y144000D02*
D03*
X-144142D02*
D03*
Y54000D02*
D03*
X-150442D02*
D03*
X-221481Y341705D02*
D03*
X-215182D02*
D03*
Y251153D02*
D03*
X-221481D02*
D03*
X-375024Y341705D02*
D03*
X-368725D02*
D03*
Y251153D02*
D03*
X-375024D02*
D03*
X-374581Y151947D02*
D03*
X-368282D02*
D03*
X-369229Y61500D02*
D03*
X-375528D02*
D03*
X-221528Y151500D02*
D03*
X-215229D02*
D03*
Y61500D02*
D03*
X-221528D02*
D03*
X-150394Y341705D02*
D03*
X-144095D02*
D03*
Y251153D02*
D03*
X-150394D02*
D03*
X-303938Y341705D02*
D03*
X-297638D02*
D03*
Y251153D02*
D03*
X-303938D02*
D03*
X-303495Y151947D02*
D03*
X-297195D02*
D03*
X-298142Y61500D02*
D03*
X-304441D02*
D03*
X-150442Y151500D02*
D03*
X-144142D02*
D03*
Y61500D02*
D03*
X-150442D02*
D03*
X-221481Y348205D02*
D03*
X-215182D02*
D03*
Y257653D02*
D03*
X-221481D02*
D03*
X-375024Y348205D02*
D03*
X-368725D02*
D03*
Y257653D02*
D03*
X-375024D02*
D03*
X-374581Y158447D02*
D03*
X-368282D02*
D03*
X-369229Y68000D02*
D03*
X-375528D02*
D03*
X-221528Y158000D02*
D03*
X-215229D02*
D03*
Y68000D02*
D03*
X-221528D02*
D03*
X-150394Y348205D02*
D03*
X-144095D02*
D03*
Y257653D02*
D03*
X-150394D02*
D03*
X-303938Y348205D02*
D03*
X-297638D02*
D03*
Y257653D02*
D03*
X-303938D02*
D03*
X-303495Y158447D02*
D03*
X-297195D02*
D03*
X-298142Y68000D02*
D03*
X-304441D02*
D03*
X-150442Y158000D02*
D03*
X-144142D02*
D03*
Y68000D02*
D03*
X-150442D02*
D03*
X-221481Y356705D02*
D03*
X-215182D02*
D03*
Y266154D02*
D03*
X-221481D02*
D03*
X-375024Y356705D02*
D03*
X-368725D02*
D03*
Y266154D02*
D03*
X-375024D02*
D03*
X-374581Y166947D02*
D03*
X-368282D02*
D03*
X-369229Y76500D02*
D03*
X-375528D02*
D03*
X-221528Y166500D02*
D03*
X-215229D02*
D03*
Y76500D02*
D03*
X-221528D02*
D03*
X-150394Y355705D02*
D03*
X-144095D02*
D03*
Y265154D02*
D03*
X-150394D02*
D03*
X-303938Y355705D02*
D03*
X-297638D02*
D03*
Y265154D02*
D03*
X-303938D02*
D03*
X-303495Y165947D02*
D03*
X-297195D02*
D03*
X-298142Y75500D02*
D03*
X-304441D02*
D03*
X-150442Y165500D02*
D03*
X-144142D02*
D03*
Y75500D02*
D03*
X-150442D02*
D03*
X-221481Y363205D02*
D03*
X-215182D02*
D03*
Y272654D02*
D03*
X-221481D02*
D03*
X-375024Y363205D02*
D03*
X-368725D02*
D03*
Y272654D02*
D03*
X-375024D02*
D03*
X-374581Y173447D02*
D03*
X-368282D02*
D03*
X-369229Y83000D02*
D03*
X-375528D02*
D03*
X-221528Y173000D02*
D03*
X-215229D02*
D03*
Y83000D02*
D03*
X-221528D02*
D03*
X-150394Y362205D02*
D03*
X-144095D02*
D03*
Y271654D02*
D03*
X-150394D02*
D03*
X-303938Y362205D02*
D03*
X-297638D02*
D03*
Y271654D02*
D03*
X-303938D02*
D03*
X-303495Y172447D02*
D03*
X-297195D02*
D03*
X-298142Y82000D02*
D03*
X-304441D02*
D03*
X-150442Y172000D02*
D03*
X-144142D02*
D03*
Y82000D02*
D03*
X-150442D02*
D03*
X-589142Y291386D02*
D03*
X-595441D02*
D03*
X-505142Y74500D02*
D03*
X-511442D02*
D03*
D36*
X-600757Y161457D02*
D03*
Y155157D02*
D03*
Y149756D02*
D03*
Y143457D02*
D03*
X-562756Y143157D02*
D03*
Y149457D02*
D03*
X-603599Y178587D02*
D03*
Y184886D02*
D03*
X-580599D02*
D03*
Y178587D02*
D03*
X-557599D02*
D03*
Y184886D02*
D03*
X-592024Y335087D02*
D03*
Y341386D02*
D03*
X-547142Y303299D02*
D03*
Y297000D02*
D03*
X-601473Y320913D02*
D03*
Y327213D02*
D03*
X-601079Y297685D02*
D03*
Y291386D02*
D03*
X-618465Y259039D02*
D03*
Y265339D02*
D03*
X-562756Y161457D02*
D03*
Y155157D02*
D03*
X-638969Y259039D02*
D03*
Y265339D02*
D03*
D37*
X-233981Y310492D02*
D03*
Y304980D02*
D03*
Y214429D02*
D03*
Y219941D02*
D03*
X-387524Y310492D02*
D03*
Y304980D02*
D03*
Y214429D02*
D03*
Y219941D02*
D03*
X-387081Y120734D02*
D03*
Y115222D02*
D03*
X-388028Y24776D02*
D03*
Y30287D02*
D03*
X-234028Y120287D02*
D03*
Y114776D02*
D03*
Y24776D02*
D03*
Y30287D02*
D03*
X-226981Y315968D02*
D03*
Y310457D02*
D03*
Y219905D02*
D03*
Y225417D02*
D03*
X-380524Y315968D02*
D03*
Y310457D02*
D03*
Y219905D02*
D03*
Y225417D02*
D03*
X-380081Y126211D02*
D03*
Y120699D02*
D03*
X-381028Y30252D02*
D03*
Y35764D02*
D03*
X-227028Y125764D02*
D03*
Y120252D02*
D03*
Y30252D02*
D03*
Y35764D02*
D03*
X-233981Y320929D02*
D03*
Y315417D02*
D03*
Y224866D02*
D03*
Y230378D02*
D03*
X-387524Y320929D02*
D03*
Y315417D02*
D03*
Y224866D02*
D03*
Y230378D02*
D03*
X-387081Y131171D02*
D03*
Y125659D02*
D03*
X-388028Y35213D02*
D03*
Y40724D02*
D03*
X-234028Y130724D02*
D03*
Y125213D02*
D03*
Y35213D02*
D03*
Y40724D02*
D03*
X-226981Y326492D02*
D03*
Y320980D02*
D03*
Y230429D02*
D03*
Y235941D02*
D03*
X-380524Y326492D02*
D03*
Y320980D02*
D03*
Y230429D02*
D03*
Y235941D02*
D03*
X-380081Y136734D02*
D03*
Y131222D02*
D03*
X-381028Y40776D02*
D03*
Y46287D02*
D03*
X-227028Y136287D02*
D03*
Y130776D02*
D03*
Y40776D02*
D03*
Y46287D02*
D03*
X-233981Y331968D02*
D03*
Y326457D02*
D03*
Y235906D02*
D03*
Y241417D02*
D03*
X-387524Y331968D02*
D03*
Y326457D02*
D03*
Y235906D02*
D03*
Y241417D02*
D03*
X-387081Y142211D02*
D03*
Y136699D02*
D03*
X-388028Y46252D02*
D03*
Y51764D02*
D03*
X-234028Y141764D02*
D03*
Y136252D02*
D03*
Y46252D02*
D03*
Y51764D02*
D03*
X-226981Y336929D02*
D03*
Y331417D02*
D03*
Y240866D02*
D03*
Y246378D02*
D03*
X-380524Y336929D02*
D03*
Y331417D02*
D03*
Y240866D02*
D03*
Y246378D02*
D03*
X-380081Y147171D02*
D03*
Y141659D02*
D03*
X-381028Y51213D02*
D03*
Y56724D02*
D03*
X-227028Y146724D02*
D03*
Y141213D02*
D03*
Y51213D02*
D03*
Y56724D02*
D03*
X-233981Y343492D02*
D03*
Y337980D02*
D03*
Y247429D02*
D03*
Y252941D02*
D03*
X-387524Y343492D02*
D03*
Y337980D02*
D03*
Y247429D02*
D03*
Y252941D02*
D03*
X-387081Y153734D02*
D03*
Y148222D02*
D03*
X-388028Y57776D02*
D03*
Y63287D02*
D03*
X-234028Y153287D02*
D03*
Y147776D02*
D03*
Y57776D02*
D03*
Y63287D02*
D03*
X-226981Y348457D02*
D03*
Y342945D02*
D03*
Y252394D02*
D03*
Y257906D02*
D03*
X-380524Y348457D02*
D03*
Y342945D02*
D03*
Y252394D02*
D03*
Y257906D02*
D03*
X-380081Y158699D02*
D03*
Y153187D02*
D03*
X-381028Y62740D02*
D03*
Y68252D02*
D03*
X-227028Y158252D02*
D03*
Y152740D02*
D03*
Y62740D02*
D03*
Y68252D02*
D03*
X-233981Y353929D02*
D03*
Y348417D02*
D03*
Y257866D02*
D03*
Y263378D02*
D03*
X-387524Y353929D02*
D03*
Y348417D02*
D03*
Y257866D02*
D03*
Y263378D02*
D03*
X-387081Y164171D02*
D03*
Y158659D02*
D03*
X-388028Y68213D02*
D03*
Y73724D02*
D03*
X-234028Y163724D02*
D03*
Y158213D02*
D03*
Y68213D02*
D03*
Y73724D02*
D03*
X-226981Y359492D02*
D03*
Y353980D02*
D03*
Y263429D02*
D03*
Y268941D02*
D03*
X-380524Y359492D02*
D03*
Y353980D02*
D03*
Y263429D02*
D03*
Y268941D02*
D03*
X-380081Y169734D02*
D03*
Y164222D02*
D03*
X-381028Y73776D02*
D03*
Y79287D02*
D03*
X-227028Y169287D02*
D03*
Y163776D02*
D03*
Y73776D02*
D03*
Y79287D02*
D03*
X-233981Y364500D02*
D03*
Y358988D02*
D03*
Y268437D02*
D03*
Y273949D02*
D03*
X-387524Y364500D02*
D03*
Y358988D02*
D03*
Y268437D02*
D03*
Y273949D02*
D03*
X-387081Y174742D02*
D03*
Y169230D02*
D03*
X-388028Y78784D02*
D03*
Y84295D02*
D03*
X-234028Y174295D02*
D03*
Y168783D02*
D03*
Y78784D02*
D03*
Y84295D02*
D03*
X-226981Y369969D02*
D03*
Y364457D02*
D03*
Y273905D02*
D03*
Y279417D02*
D03*
X-380524Y369969D02*
D03*
Y364457D02*
D03*
Y273905D02*
D03*
Y279417D02*
D03*
X-380081Y180211D02*
D03*
Y174699D02*
D03*
X-381028Y84252D02*
D03*
Y89764D02*
D03*
X-227028Y179764D02*
D03*
Y174252D02*
D03*
Y84252D02*
D03*
Y89764D02*
D03*
X-465934Y337146D02*
D03*
Y331634D02*
D03*
Y250854D02*
D03*
Y256366D02*
D03*
Y171366D02*
D03*
Y165854D02*
D03*
Y81854D02*
D03*
Y87366D02*
D03*
X-458934Y337146D02*
D03*
Y331634D02*
D03*
Y250854D02*
D03*
Y256366D02*
D03*
Y171366D02*
D03*
Y165854D02*
D03*
Y81854D02*
D03*
Y87366D02*
D03*
X-469934Y355634D02*
D03*
Y361146D02*
D03*
Y280366D02*
D03*
Y274854D02*
D03*
Y189854D02*
D03*
Y195366D02*
D03*
Y111366D02*
D03*
Y105854D02*
D03*
X-474957Y322252D02*
D03*
Y327764D02*
D03*
Y246984D02*
D03*
Y241472D02*
D03*
Y156473D02*
D03*
Y161984D02*
D03*
Y77984D02*
D03*
Y72473D02*
D03*
X-577757Y75957D02*
D03*
Y70445D02*
D03*
X-601599Y221374D02*
D03*
Y226886D02*
D03*
X-578599D02*
D03*
Y221374D02*
D03*
X-555599D02*
D03*
Y226886D02*
D03*
X-547142Y314512D02*
D03*
Y309000D02*
D03*
D38*
X-207361Y356874D02*
D03*
X-201850D02*
D03*
Y266323D02*
D03*
X-207361D02*
D03*
X-360905Y356874D02*
D03*
X-355393D02*
D03*
Y266323D02*
D03*
X-360905D02*
D03*
X-360462Y167116D02*
D03*
X-354950D02*
D03*
X-355897Y76669D02*
D03*
X-361408D02*
D03*
X-207408Y166669D02*
D03*
X-201897D02*
D03*
Y76669D02*
D03*
X-207408D02*
D03*
X-207361Y346963D02*
D03*
X-201850D02*
D03*
Y256412D02*
D03*
X-207361D02*
D03*
X-360905Y346963D02*
D03*
X-355393D02*
D03*
Y256412D02*
D03*
X-360905D02*
D03*
X-360462Y157205D02*
D03*
X-354950D02*
D03*
X-355897Y66758D02*
D03*
X-361408D02*
D03*
X-207408Y156758D02*
D03*
X-201897D02*
D03*
Y66758D02*
D03*
X-207408D02*
D03*
X-207361Y337158D02*
D03*
X-201850D02*
D03*
Y246607D02*
D03*
X-207361D02*
D03*
X-360905Y337158D02*
D03*
X-355393D02*
D03*
Y246607D02*
D03*
X-360905D02*
D03*
X-360462Y147400D02*
D03*
X-354950D02*
D03*
X-355897Y56953D02*
D03*
X-361408D02*
D03*
X-207408Y146953D02*
D03*
X-201897D02*
D03*
Y56953D02*
D03*
X-207408D02*
D03*
X-207361Y327346D02*
D03*
X-201850D02*
D03*
Y236795D02*
D03*
X-207361D02*
D03*
X-360905Y327346D02*
D03*
X-355393D02*
D03*
Y236795D02*
D03*
X-360905D02*
D03*
X-360462Y137589D02*
D03*
X-354950D02*
D03*
X-355897Y47142D02*
D03*
X-361408D02*
D03*
X-207408Y137142D02*
D03*
X-201897D02*
D03*
Y47142D02*
D03*
X-207408D02*
D03*
X-164607Y356874D02*
D03*
X-159095D02*
D03*
Y266323D02*
D03*
X-164607D02*
D03*
X-318150Y356874D02*
D03*
X-312638D02*
D03*
Y266323D02*
D03*
X-318150D02*
D03*
X-317707Y167116D02*
D03*
X-312195D02*
D03*
X-313142Y76669D02*
D03*
X-318654D02*
D03*
X-164654Y166669D02*
D03*
X-159142D02*
D03*
Y76669D02*
D03*
X-164654D02*
D03*
X-164607Y346963D02*
D03*
X-159095D02*
D03*
Y256412D02*
D03*
X-164607D02*
D03*
X-318150Y346963D02*
D03*
X-312638D02*
D03*
Y256412D02*
D03*
X-318150D02*
D03*
X-317707Y157205D02*
D03*
X-312195D02*
D03*
X-313142Y66758D02*
D03*
X-318654D02*
D03*
X-164654Y156758D02*
D03*
X-159142D02*
D03*
Y66758D02*
D03*
X-164654D02*
D03*
X-164607Y337158D02*
D03*
X-159095D02*
D03*
Y246607D02*
D03*
X-164607D02*
D03*
X-318150Y337158D02*
D03*
X-312638D02*
D03*
Y246607D02*
D03*
X-318150D02*
D03*
X-317707Y147400D02*
D03*
X-312195D02*
D03*
X-313142Y56953D02*
D03*
X-318654D02*
D03*
X-164654Y146953D02*
D03*
X-159142D02*
D03*
Y56953D02*
D03*
X-164654D02*
D03*
X-164607Y327346D02*
D03*
X-159095D02*
D03*
Y236795D02*
D03*
X-164607D02*
D03*
X-318150Y327346D02*
D03*
X-312638D02*
D03*
Y236795D02*
D03*
X-318150D02*
D03*
X-317707Y137589D02*
D03*
X-312195D02*
D03*
X-313142Y47142D02*
D03*
X-318654D02*
D03*
X-164654Y137142D02*
D03*
X-159142D02*
D03*
Y47142D02*
D03*
X-164654D02*
D03*
X-460934Y367634D02*
D03*
X-455422D02*
D03*
Y286854D02*
D03*
X-460934D02*
D03*
Y201854D02*
D03*
X-455422D02*
D03*
Y117854D02*
D03*
X-460934D02*
D03*
Y343634D02*
D03*
X-455422D02*
D03*
Y262854D02*
D03*
X-460934D02*
D03*
Y177854D02*
D03*
X-455422D02*
D03*
Y93854D02*
D03*
X-460934D02*
D03*
X-453083Y308929D02*
D03*
X-447572D02*
D03*
Y228150D02*
D03*
X-453083D02*
D03*
Y143150D02*
D03*
X-447572D02*
D03*
Y59150D02*
D03*
X-453083D02*
D03*
X-452934Y315634D02*
D03*
X-447422D02*
D03*
Y234854D02*
D03*
X-452934D02*
D03*
Y149854D02*
D03*
X-447422D02*
D03*
Y65854D02*
D03*
X-452934D02*
D03*
X-565245Y167457D02*
D03*
X-570756D02*
D03*
X-599756Y83957D02*
D03*
X-605268D02*
D03*
X-584150Y291386D02*
D03*
X-578638D02*
D03*
X-572733Y321701D02*
D03*
X-567221D02*
D03*
X-584938Y328787D02*
D03*
X-579426D02*
D03*
X-595568Y328787D02*
D03*
X-590056D02*
D03*
X-589642Y284500D02*
D03*
X-595154D02*
D03*
D39*
X-625371Y78913D02*
D03*
Y76354D02*
D03*
Y73795D02*
D03*
Y71236D02*
D03*
Y68677D02*
D03*
Y66118D02*
D03*
Y63559D02*
D03*
Y61000D02*
D03*
X-602142Y78913D02*
D03*
Y76354D02*
D03*
Y73795D02*
D03*
Y71236D02*
D03*
Y68677D02*
D03*
Y66118D02*
D03*
Y63559D02*
D03*
Y61000D02*
D03*
X-593371Y161413D02*
D03*
Y158854D02*
D03*
Y156295D02*
D03*
Y153736D02*
D03*
Y151177D02*
D03*
Y148618D02*
D03*
Y146059D02*
D03*
Y143500D02*
D03*
X-570142Y161413D02*
D03*
Y158854D02*
D03*
Y156295D02*
D03*
Y153736D02*
D03*
Y151177D02*
D03*
Y148618D02*
D03*
Y146059D02*
D03*
Y143500D02*
D03*
D40*
X-194394Y264748D02*
D03*
Y262779D02*
D03*
Y260811D02*
D03*
Y258842D02*
D03*
Y256874D02*
D03*
Y254906D02*
D03*
Y252937D02*
D03*
Y250969D02*
D03*
Y249000D02*
D03*
Y247031D02*
D03*
Y245063D02*
D03*
Y243094D02*
D03*
Y241126D02*
D03*
Y239158D02*
D03*
Y237189D02*
D03*
Y235221D02*
D03*
Y233252D02*
D03*
Y231283D02*
D03*
Y229315D02*
D03*
X-172347Y264748D02*
D03*
Y262779D02*
D03*
Y260811D02*
D03*
Y258842D02*
D03*
Y256874D02*
D03*
Y254906D02*
D03*
Y252937D02*
D03*
Y250969D02*
D03*
Y249000D02*
D03*
Y247031D02*
D03*
Y245063D02*
D03*
Y243094D02*
D03*
Y241126D02*
D03*
Y239158D02*
D03*
Y237189D02*
D03*
Y235221D02*
D03*
Y233252D02*
D03*
Y231283D02*
D03*
Y229315D02*
D03*
Y319866D02*
D03*
Y321835D02*
D03*
Y323803D02*
D03*
Y325772D02*
D03*
Y327740D02*
D03*
Y329709D02*
D03*
Y331677D02*
D03*
Y333646D02*
D03*
Y335614D02*
D03*
Y337583D02*
D03*
Y339551D02*
D03*
Y341520D02*
D03*
Y343488D02*
D03*
Y345457D02*
D03*
Y347425D02*
D03*
Y349394D02*
D03*
Y351362D02*
D03*
Y353331D02*
D03*
Y355299D02*
D03*
X-194394Y319866D02*
D03*
Y321835D02*
D03*
Y323803D02*
D03*
Y325772D02*
D03*
Y327740D02*
D03*
Y329709D02*
D03*
Y331677D02*
D03*
Y333646D02*
D03*
Y335614D02*
D03*
Y337583D02*
D03*
Y339551D02*
D03*
Y341520D02*
D03*
Y343488D02*
D03*
Y345457D02*
D03*
Y347425D02*
D03*
Y349394D02*
D03*
Y351362D02*
D03*
Y353331D02*
D03*
Y355299D02*
D03*
X-325890Y319866D02*
D03*
Y321835D02*
D03*
Y323803D02*
D03*
Y325772D02*
D03*
Y327740D02*
D03*
Y329709D02*
D03*
Y331677D02*
D03*
Y333646D02*
D03*
Y335614D02*
D03*
Y337583D02*
D03*
Y339551D02*
D03*
Y341520D02*
D03*
Y343488D02*
D03*
Y345457D02*
D03*
Y347425D02*
D03*
Y349394D02*
D03*
Y351362D02*
D03*
Y353331D02*
D03*
Y355299D02*
D03*
X-347938Y319866D02*
D03*
Y321835D02*
D03*
Y323803D02*
D03*
Y325772D02*
D03*
Y327740D02*
D03*
Y329709D02*
D03*
Y331677D02*
D03*
Y333646D02*
D03*
Y335614D02*
D03*
Y337583D02*
D03*
Y339551D02*
D03*
Y341520D02*
D03*
Y343488D02*
D03*
Y345457D02*
D03*
Y347425D02*
D03*
Y349394D02*
D03*
Y351362D02*
D03*
Y353331D02*
D03*
Y355299D02*
D03*
Y264748D02*
D03*
Y262779D02*
D03*
Y260811D02*
D03*
Y258842D02*
D03*
Y256874D02*
D03*
Y254906D02*
D03*
Y252937D02*
D03*
Y250969D02*
D03*
Y249000D02*
D03*
Y247031D02*
D03*
Y245063D02*
D03*
Y243094D02*
D03*
Y241126D02*
D03*
Y239158D02*
D03*
Y237189D02*
D03*
Y235221D02*
D03*
Y233252D02*
D03*
Y231283D02*
D03*
Y229315D02*
D03*
X-325890Y264748D02*
D03*
Y262779D02*
D03*
Y260811D02*
D03*
Y258842D02*
D03*
Y256874D02*
D03*
Y254906D02*
D03*
Y252937D02*
D03*
Y250969D02*
D03*
Y249000D02*
D03*
Y247031D02*
D03*
Y245063D02*
D03*
Y243094D02*
D03*
Y241126D02*
D03*
Y239158D02*
D03*
Y237189D02*
D03*
Y235221D02*
D03*
Y233252D02*
D03*
Y231283D02*
D03*
Y229315D02*
D03*
X-325447Y130108D02*
D03*
Y132077D02*
D03*
Y134045D02*
D03*
Y136014D02*
D03*
Y137982D02*
D03*
Y139951D02*
D03*
Y141919D02*
D03*
Y143888D02*
D03*
Y145856D02*
D03*
Y147825D02*
D03*
Y149793D02*
D03*
Y151762D02*
D03*
Y153730D02*
D03*
Y155699D02*
D03*
Y157667D02*
D03*
Y159636D02*
D03*
Y161604D02*
D03*
Y163573D02*
D03*
Y165541D02*
D03*
X-347495Y130108D02*
D03*
Y132077D02*
D03*
Y134045D02*
D03*
Y136014D02*
D03*
Y137982D02*
D03*
Y139951D02*
D03*
Y141919D02*
D03*
Y143888D02*
D03*
Y145856D02*
D03*
Y147825D02*
D03*
Y149793D02*
D03*
Y151762D02*
D03*
Y153730D02*
D03*
Y155699D02*
D03*
Y157667D02*
D03*
Y159636D02*
D03*
Y161604D02*
D03*
Y163573D02*
D03*
Y165541D02*
D03*
X-348442Y75094D02*
D03*
Y73126D02*
D03*
Y71157D02*
D03*
Y69189D02*
D03*
Y67220D02*
D03*
Y65252D02*
D03*
Y63283D02*
D03*
Y61315D02*
D03*
Y59346D02*
D03*
Y57378D02*
D03*
Y55409D02*
D03*
Y53441D02*
D03*
Y51472D02*
D03*
Y49504D02*
D03*
Y47535D02*
D03*
Y45567D02*
D03*
Y43598D02*
D03*
Y41630D02*
D03*
Y39661D02*
D03*
X-326394Y75094D02*
D03*
Y73126D02*
D03*
Y71157D02*
D03*
Y69189D02*
D03*
Y67220D02*
D03*
Y65252D02*
D03*
Y63283D02*
D03*
Y61315D02*
D03*
Y59346D02*
D03*
Y57378D02*
D03*
Y55409D02*
D03*
Y53441D02*
D03*
Y51472D02*
D03*
Y49504D02*
D03*
Y47535D02*
D03*
Y45567D02*
D03*
Y43598D02*
D03*
Y41630D02*
D03*
Y39661D02*
D03*
X-172394Y129661D02*
D03*
Y131630D02*
D03*
Y133598D02*
D03*
Y135567D02*
D03*
Y137535D02*
D03*
Y139504D02*
D03*
Y141472D02*
D03*
Y143441D02*
D03*
Y145409D02*
D03*
Y147378D02*
D03*
Y149346D02*
D03*
Y151315D02*
D03*
Y153283D02*
D03*
Y155252D02*
D03*
Y157220D02*
D03*
Y159189D02*
D03*
Y161158D02*
D03*
Y163126D02*
D03*
Y165094D02*
D03*
X-194441Y129661D02*
D03*
Y131630D02*
D03*
Y133598D02*
D03*
Y135567D02*
D03*
Y137535D02*
D03*
Y139504D02*
D03*
Y141472D02*
D03*
Y143441D02*
D03*
Y145409D02*
D03*
Y147378D02*
D03*
Y149346D02*
D03*
Y151315D02*
D03*
Y153283D02*
D03*
Y155252D02*
D03*
Y157220D02*
D03*
Y159189D02*
D03*
Y161158D02*
D03*
Y163126D02*
D03*
Y165094D02*
D03*
Y75094D02*
D03*
Y73126D02*
D03*
Y71157D02*
D03*
Y69189D02*
D03*
Y67220D02*
D03*
Y65252D02*
D03*
Y63283D02*
D03*
Y61315D02*
D03*
Y59346D02*
D03*
Y57378D02*
D03*
Y55409D02*
D03*
Y53441D02*
D03*
Y51472D02*
D03*
Y49504D02*
D03*
Y47535D02*
D03*
Y45567D02*
D03*
Y43598D02*
D03*
Y41630D02*
D03*
Y39661D02*
D03*
X-172394Y75094D02*
D03*
Y73126D02*
D03*
Y71157D02*
D03*
Y69189D02*
D03*
Y67220D02*
D03*
Y65252D02*
D03*
Y63283D02*
D03*
Y61315D02*
D03*
Y59346D02*
D03*
Y57378D02*
D03*
Y55409D02*
D03*
Y53441D02*
D03*
Y51472D02*
D03*
Y49504D02*
D03*
Y47535D02*
D03*
Y45567D02*
D03*
Y43598D02*
D03*
Y41630D02*
D03*
Y39661D02*
D03*
D41*
X-556256Y87587D02*
D03*
X-561257D02*
D03*
X-566257D02*
D03*
X-571256D02*
D03*
X-556256Y66327D02*
D03*
X-561257D02*
D03*
X-566257D02*
D03*
X-571256D02*
D03*
X-579800Y320520D02*
D03*
X-584800D02*
D03*
X-589800D02*
D03*
X-594800D02*
D03*
X-579800Y299260D02*
D03*
X-584800D02*
D03*
X-589800D02*
D03*
X-594800D02*
D03*
D42*
X-587300Y309890D02*
D03*
D43*
X-607438Y191469D02*
D03*
X-604879D02*
D03*
X-602319D02*
D03*
X-599760D02*
D03*
X-607438Y214303D02*
D03*
X-604879D02*
D03*
X-602319D02*
D03*
X-599760D02*
D03*
X-584438Y191469D02*
D03*
X-581879D02*
D03*
X-579319D02*
D03*
X-576760D02*
D03*
X-584438Y214303D02*
D03*
X-581879D02*
D03*
X-579319D02*
D03*
X-576760D02*
D03*
X-561438Y191469D02*
D03*
X-558879D02*
D03*
X-556320D02*
D03*
X-553760D02*
D03*
X-561438Y214303D02*
D03*
X-558879D02*
D03*
X-556320D02*
D03*
X-553760D02*
D03*
D44*
X-561315Y313433D02*
D03*
Y299260D02*
D03*
D45*
X-456193Y360752D02*
D03*
X-459934D02*
D03*
X-463674D02*
D03*
Y350516D02*
D03*
X-456193D02*
D03*
Y279972D02*
D03*
X-459934D02*
D03*
X-463674D02*
D03*
Y269736D02*
D03*
X-456193D02*
D03*
Y194972D02*
D03*
X-459934D02*
D03*
X-463674D02*
D03*
Y184736D02*
D03*
X-456193D02*
D03*
Y110972D02*
D03*
X-459934D02*
D03*
X-463674D02*
D03*
Y100736D02*
D03*
X-456193D02*
D03*
D46*
X-507142Y310000D02*
D03*
X-517142D02*
D03*
Y352000D02*
D03*
X-507142D02*
D03*
M02*
