G04*
G04 #@! TF.GenerationSoftware,Altium Limited,Altium Designer,20.1.11 (218)*
G04*
G04 Layer_Physical_Order=2*
G04 Layer_Color=36540*
%FSLAX25Y25*%
%MOIN*%
G70*
G04*
G04 #@! TF.SameCoordinates,791B5E8E-85BA-4B16-884C-9818148C06D6*
G04*
G04*
G04 #@! TF.FilePolarity,Positive*
G04*
G01*
G75*
%ADD75C,0.02756*%
%ADD79C,0.10000*%
%ADD85C,0.05118*%
%ADD86C,0.01772*%
%ADD87C,0.02362*%
G36*
X-443642Y323500D02*
X-443642Y299500D01*
X-465642Y299500D01*
X-481642Y283500D01*
Y246500D01*
X-478642Y243500D01*
X-444642Y243500D01*
X-443642Y242500D01*
X-443642Y216500D01*
X-451142Y209000D01*
X-469142Y209000D01*
X-479642Y198500D01*
Y159500D01*
X-478642Y158500D01*
X-444642D01*
X-443642Y157500D01*
Y133000D01*
X-451642Y125000D01*
X-470142Y125000D01*
X-479642Y115500D01*
X-479642Y76000D01*
X-478142Y74500D01*
X-444642Y74500D01*
X-443642Y73500D01*
X-443642Y2039D01*
X-639000D01*
Y38000D01*
X-639022Y38022D01*
X-655242D01*
X-655242Y288000D01*
X-642572D01*
X-642423Y287500D01*
X-642854Y287212D01*
X-643226Y286656D01*
X-643356Y286000D01*
X-643226Y285344D01*
X-642854Y284788D01*
X-642298Y284416D01*
X-641642Y284286D01*
X-640986Y284416D01*
X-640430Y284788D01*
X-640059Y285344D01*
X-639928Y286000D01*
X-640059Y286656D01*
X-640430Y287212D01*
X-640861Y287500D01*
X-640712Y288000D01*
X-562642Y288000D01*
X-541142Y309500D01*
X-529642D01*
X-526142Y313000D01*
Y324500D01*
X-444642D01*
X-443642Y323500D01*
D02*
G37*
G36*
X-4725Y2039D02*
X-442142D01*
Y74000D01*
X-444142Y76000D01*
X-449142D01*
Y80000D01*
X-453142D01*
X-457142Y76000D01*
X-477642Y76000D01*
X-478142Y76500D01*
Y115000D01*
X-469642Y123500D01*
X-450642D01*
X-442142Y132000D01*
Y158000D01*
X-444142Y160000D01*
X-449142D01*
Y164000D01*
X-453142D01*
X-457142Y160000D01*
X-477642D01*
X-478142Y160500D01*
Y197500D01*
X-468142Y207500D01*
X-450642D01*
X-442142Y216000D01*
X-442142Y243000D01*
X-444142Y245000D01*
X-449142D01*
Y249000D01*
X-453142D01*
X-457142Y245000D01*
X-478142Y245000D01*
X-480142Y247000D01*
X-480142Y283000D01*
X-465014Y298128D01*
X-442142D01*
Y324000D01*
X-443642Y325500D01*
X-449142Y325500D01*
Y330000D01*
X-453142D01*
X-457142Y326000D01*
X-526142D01*
X-526142Y391662D01*
X-4725D01*
X-4725Y2039D01*
D02*
G37*
%LPC*%
G36*
X-454686Y323758D02*
X-455342Y323627D01*
X-455898Y323255D01*
X-456269Y322699D01*
X-456400Y322043D01*
X-456269Y321388D01*
X-455898Y320831D01*
X-455342Y320460D01*
X-454686Y320329D01*
X-454030Y320460D01*
X-453474Y320831D01*
X-453102Y321388D01*
X-452972Y322043D01*
X-453102Y322699D01*
X-453474Y323255D01*
X-454030Y323627D01*
X-454686Y323758D01*
D02*
G37*
G36*
X-462142Y323714D02*
X-462798Y323584D01*
X-463354Y323212D01*
X-463726Y322656D01*
X-463856Y322000D01*
X-463726Y321344D01*
X-463354Y320788D01*
X-462798Y320416D01*
X-462142Y320286D01*
X-461486Y320416D01*
X-460930Y320788D01*
X-460559Y321344D01*
X-460428Y322000D01*
X-460559Y322656D01*
X-460930Y323212D01*
X-461486Y323584D01*
X-462142Y323714D01*
D02*
G37*
G36*
X-458142Y319214D02*
X-458798Y319084D01*
X-459354Y318712D01*
X-459726Y318156D01*
X-459856Y317500D01*
X-459726Y316844D01*
X-459354Y316288D01*
X-458798Y315916D01*
X-458142Y315786D01*
X-457486Y315916D01*
X-456930Y316288D01*
X-456559Y316844D01*
X-456428Y317500D01*
X-456559Y318156D01*
X-456930Y318712D01*
X-457486Y319084D01*
X-458142Y319214D01*
D02*
G37*
G36*
X-448642Y306421D02*
X-449186Y306313D01*
X-449647Y306005D01*
X-449955Y305544D01*
X-450063Y305000D01*
X-449955Y304456D01*
X-449647Y303995D01*
X-449186Y303687D01*
X-448642Y303579D01*
X-448099Y303687D01*
X-447638Y303995D01*
X-447330Y304456D01*
X-447221Y305000D01*
X-447330Y305544D01*
X-447638Y306005D01*
X-448099Y306313D01*
X-448642Y306421D01*
D02*
G37*
G36*
X-525142Y305714D02*
X-525798Y305584D01*
X-526354Y305212D01*
X-526726Y304656D01*
X-526856Y304000D01*
X-526726Y303344D01*
X-526354Y302788D01*
X-525798Y302416D01*
X-525142Y302286D01*
X-524486Y302416D01*
X-523930Y302788D01*
X-523559Y303344D01*
X-523428Y304000D01*
X-523559Y304656D01*
X-523930Y305212D01*
X-524486Y305584D01*
X-525142Y305714D01*
D02*
G37*
G36*
X-537142D02*
X-537798Y305584D01*
X-538354Y305212D01*
X-538726Y304656D01*
X-538856Y304000D01*
X-538726Y303344D01*
X-538354Y302788D01*
X-537798Y302416D01*
X-537142Y302286D01*
X-536486Y302416D01*
X-535930Y302788D01*
X-535559Y303344D01*
X-535428Y304000D01*
X-535559Y304656D01*
X-535930Y305212D01*
X-536486Y305584D01*
X-537142Y305714D01*
D02*
G37*
G36*
X-446642Y303714D02*
X-447298Y303584D01*
X-447854Y303212D01*
X-448226Y302656D01*
X-448356Y302000D01*
X-448226Y301344D01*
X-447854Y300788D01*
X-447298Y300416D01*
X-446642Y300286D01*
X-445986Y300416D01*
X-445430Y300788D01*
X-445059Y301344D01*
X-444928Y302000D01*
X-445059Y302656D01*
X-445430Y303212D01*
X-445986Y303584D01*
X-446642Y303714D01*
D02*
G37*
G36*
X-525142Y300714D02*
X-525798Y300584D01*
X-526354Y300212D01*
X-526726Y299656D01*
X-526856Y299000D01*
X-526726Y298344D01*
X-526354Y297788D01*
X-525798Y297416D01*
X-525142Y297286D01*
X-524486Y297416D01*
X-523930Y297788D01*
X-523559Y298344D01*
X-523428Y299000D01*
X-523559Y299656D01*
X-523930Y300212D01*
X-524486Y300584D01*
X-525142Y300714D01*
D02*
G37*
G36*
X-531142D02*
X-531798Y300584D01*
X-532354Y300212D01*
X-532726Y299656D01*
X-532856Y299000D01*
X-532726Y298344D01*
X-532354Y297788D01*
X-531798Y297416D01*
X-531142Y297286D01*
X-530486Y297416D01*
X-529930Y297788D01*
X-529559Y298344D01*
X-529428Y299000D01*
X-529559Y299656D01*
X-529930Y300212D01*
X-530486Y300584D01*
X-531142Y300714D01*
D02*
G37*
G36*
X-537142D02*
X-537798Y300584D01*
X-538354Y300212D01*
X-538726Y299656D01*
X-538856Y299000D01*
X-538726Y298344D01*
X-538354Y297788D01*
X-537798Y297416D01*
X-537142Y297286D01*
X-536486Y297416D01*
X-535930Y297788D01*
X-535559Y298344D01*
X-535428Y299000D01*
X-535559Y299656D01*
X-535930Y300212D01*
X-536486Y300584D01*
X-537142Y300714D01*
D02*
G37*
G36*
X-586142Y286714D02*
X-586798Y286584D01*
X-587354Y286212D01*
X-587726Y285656D01*
X-587856Y285000D01*
X-587726Y284344D01*
X-587354Y283788D01*
X-586798Y283416D01*
X-586142Y283286D01*
X-585486Y283416D01*
X-584930Y283788D01*
X-584559Y284344D01*
X-584428Y285000D01*
X-584559Y285656D01*
X-584930Y286212D01*
X-585486Y286584D01*
X-586142Y286714D01*
D02*
G37*
G36*
X-613642Y281714D02*
X-614298Y281584D01*
X-614854Y281212D01*
X-615226Y280656D01*
X-615356Y280000D01*
X-615226Y279344D01*
X-614854Y278788D01*
X-614298Y278416D01*
X-613642Y278286D01*
X-612986Y278416D01*
X-612430Y278788D01*
X-612059Y279344D01*
X-611928Y280000D01*
X-612059Y280656D01*
X-612430Y281212D01*
X-612986Y281584D01*
X-613642Y281714D01*
D02*
G37*
G36*
X-454642Y242714D02*
X-455298Y242584D01*
X-455854Y242212D01*
X-456226Y241656D01*
X-456356Y241000D01*
X-456226Y240344D01*
X-455854Y239788D01*
X-455298Y239416D01*
X-454642Y239286D01*
X-453986Y239416D01*
X-453430Y239788D01*
X-453059Y240344D01*
X-452928Y241000D01*
X-453059Y241656D01*
X-453430Y242212D01*
X-453986Y242584D01*
X-454642Y242714D01*
D02*
G37*
G36*
X-463642D02*
X-464298Y242584D01*
X-464854Y242212D01*
X-465226Y241656D01*
X-465356Y241000D01*
X-465226Y240344D01*
X-464854Y239788D01*
X-464298Y239416D01*
X-463642Y239286D01*
X-462986Y239416D01*
X-462430Y239788D01*
X-462059Y240344D01*
X-461928Y241000D01*
X-462059Y241656D01*
X-462430Y242212D01*
X-462986Y242584D01*
X-463642Y242714D01*
D02*
G37*
G36*
X-458642Y238214D02*
X-459298Y238084D01*
X-459854Y237712D01*
X-460226Y237156D01*
X-460356Y236500D01*
X-460226Y235844D01*
X-459854Y235288D01*
X-459298Y234916D01*
X-458642Y234786D01*
X-457986Y234916D01*
X-457430Y235288D01*
X-457059Y235844D01*
X-456928Y236500D01*
X-457059Y237156D01*
X-457430Y237712D01*
X-457986Y238084D01*
X-458642Y238214D01*
D02*
G37*
G36*
X-448642Y225641D02*
X-449186Y225533D01*
X-449647Y225225D01*
X-449955Y224764D01*
X-450063Y224220D01*
X-449955Y223677D01*
X-449647Y223216D01*
X-449186Y222908D01*
X-448642Y222799D01*
X-448099Y222908D01*
X-447638Y223216D01*
X-447330Y223677D01*
X-447221Y224220D01*
X-447330Y224764D01*
X-447638Y225225D01*
X-448099Y225533D01*
X-448642Y225641D01*
D02*
G37*
G36*
X-598557Y224953D02*
X-599213Y224822D01*
X-599768Y224451D01*
X-600140Y223895D01*
X-600271Y223239D01*
X-600140Y222583D01*
X-599768Y222027D01*
X-599213Y221655D01*
X-598557Y221525D01*
X-597901Y221655D01*
X-597344Y222027D01*
X-596973Y222583D01*
X-596842Y223239D01*
X-596973Y223895D01*
X-597344Y224451D01*
X-597901Y224822D01*
X-598557Y224953D01*
D02*
G37*
G36*
X-575557Y224953D02*
X-576213Y224822D01*
X-576768Y224451D01*
X-577140Y223895D01*
X-577271Y223239D01*
X-577140Y222583D01*
X-576768Y222027D01*
X-576213Y221655D01*
X-575557Y221525D01*
X-574901Y221655D01*
X-574344Y222027D01*
X-573973Y222583D01*
X-573842Y223239D01*
X-573973Y223895D01*
X-574344Y224451D01*
X-574901Y224822D01*
X-575557Y224953D01*
D02*
G37*
G36*
X-552142Y224714D02*
X-552798Y224584D01*
X-553354Y224212D01*
X-553726Y223656D01*
X-553856Y223000D01*
X-553726Y222344D01*
X-553354Y221788D01*
X-552798Y221416D01*
X-552142Y221286D01*
X-551486Y221416D01*
X-550930Y221788D01*
X-550559Y222344D01*
X-550428Y223000D01*
X-550559Y223656D01*
X-550930Y224212D01*
X-551486Y224584D01*
X-552142Y224714D01*
D02*
G37*
G36*
X-561642Y221714D02*
X-562298Y221584D01*
X-562854Y221212D01*
X-563226Y220656D01*
X-563356Y220000D01*
X-563226Y219344D01*
X-562854Y218788D01*
X-562298Y218416D01*
X-561642Y218286D01*
X-560986Y218416D01*
X-560430Y218788D01*
X-560059Y219344D01*
X-559928Y220000D01*
X-560059Y220656D01*
X-560430Y221212D01*
X-560986Y221584D01*
X-561642Y221714D01*
D02*
G37*
G36*
X-584642Y221214D02*
X-585298Y221084D01*
X-585854Y220712D01*
X-586226Y220156D01*
X-586356Y219500D01*
X-586226Y218844D01*
X-585854Y218288D01*
X-585298Y217916D01*
X-584642Y217786D01*
X-583986Y217916D01*
X-583430Y218288D01*
X-583059Y218844D01*
X-582928Y219500D01*
X-583059Y220156D01*
X-583430Y220712D01*
X-583986Y221084D01*
X-584642Y221214D01*
D02*
G37*
G36*
X-607642D02*
X-608298Y221084D01*
X-608854Y220712D01*
X-609226Y220156D01*
X-609356Y219500D01*
X-609226Y218844D01*
X-608854Y218288D01*
X-608298Y217916D01*
X-607642Y217786D01*
X-606986Y217916D01*
X-606430Y218288D01*
X-606059Y218844D01*
X-605928Y219500D01*
X-606059Y220156D01*
X-606430Y220712D01*
X-606986Y221084D01*
X-607642Y221214D01*
D02*
G37*
G36*
X-604879Y211450D02*
X-605535Y211320D01*
X-606090Y210948D01*
X-606462Y210392D01*
X-606593Y209736D01*
X-606462Y209080D01*
X-606090Y208524D01*
X-605535Y208153D01*
X-604879Y208022D01*
X-604223Y208153D01*
X-603666Y208524D01*
X-603295Y209080D01*
X-603164Y209736D01*
X-603295Y210392D01*
X-603666Y210948D01*
X-604223Y211320D01*
X-604879Y211450D01*
D02*
G37*
G36*
X-558642Y210214D02*
X-559298Y210084D01*
X-559854Y209712D01*
X-560226Y209156D01*
X-560356Y208500D01*
X-560226Y207844D01*
X-559854Y207288D01*
X-559298Y206916D01*
X-558642Y206786D01*
X-557986Y206916D01*
X-557430Y207288D01*
X-557059Y207844D01*
X-556928Y208500D01*
X-557059Y209156D01*
X-557430Y209712D01*
X-557986Y210084D01*
X-558642Y210214D01*
D02*
G37*
G36*
X-581642D02*
X-582298Y210084D01*
X-582854Y209712D01*
X-583226Y209156D01*
X-583356Y208500D01*
X-583226Y207844D01*
X-582854Y207288D01*
X-582298Y206916D01*
X-581642Y206786D01*
X-580986Y206916D01*
X-580430Y207288D01*
X-580059Y207844D01*
X-579928Y208500D01*
X-580059Y209156D01*
X-580430Y209712D01*
X-580986Y210084D01*
X-581642Y210214D01*
D02*
G37*
G36*
X-599642Y208214D02*
X-600298Y208084D01*
X-600854Y207712D01*
X-601226Y207156D01*
X-601356Y206500D01*
X-601226Y205844D01*
X-600854Y205288D01*
X-600298Y204916D01*
X-599642Y204786D01*
X-598986Y204916D01*
X-598430Y205288D01*
X-598059Y205844D01*
X-597928Y206500D01*
X-598059Y207156D01*
X-598430Y207712D01*
X-598986Y208084D01*
X-599642Y208214D01*
D02*
G37*
G36*
X-578642Y203714D02*
X-579298Y203584D01*
X-579854Y203212D01*
X-580226Y202656D01*
X-580356Y202000D01*
X-580226Y201344D01*
X-579854Y200788D01*
X-579298Y200416D01*
X-578642Y200286D01*
X-577986Y200416D01*
X-577430Y200788D01*
X-577059Y201344D01*
X-576928Y202000D01*
X-577059Y202656D01*
X-577430Y203212D01*
X-577986Y203584D01*
X-578642Y203714D01*
D02*
G37*
G36*
X-557142Y201714D02*
X-557798Y201584D01*
X-558354Y201212D01*
X-558726Y200656D01*
X-558856Y200000D01*
X-558726Y199344D01*
X-558354Y198788D01*
X-557798Y198416D01*
X-557723Y198401D01*
X-557617Y197871D01*
X-557854Y197712D01*
X-558226Y197156D01*
X-558356Y196500D01*
X-558226Y195844D01*
X-557854Y195288D01*
X-557298Y194916D01*
X-556642Y194786D01*
X-555986Y194916D01*
X-555430Y195288D01*
X-555059Y195844D01*
X-554928Y196500D01*
X-555059Y197156D01*
X-555430Y197712D01*
X-555986Y198084D01*
X-556062Y198099D01*
X-556168Y198629D01*
X-555930Y198788D01*
X-555559Y199344D01*
X-555428Y200000D01*
X-555559Y200656D01*
X-555930Y201212D01*
X-556486Y201584D01*
X-557142Y201714D01*
D02*
G37*
G36*
X-579642Y198214D02*
X-580298Y198084D01*
X-580854Y197712D01*
X-581226Y197156D01*
X-581356Y196500D01*
X-581226Y195844D01*
X-580854Y195288D01*
X-580298Y194916D01*
X-579642Y194786D01*
X-578986Y194916D01*
X-578430Y195288D01*
X-578059Y195844D01*
X-577928Y196500D01*
X-578059Y197156D01*
X-578430Y197712D01*
X-578986Y198084D01*
X-579642Y198214D01*
D02*
G37*
G36*
X-602142D02*
X-602798Y198084D01*
X-603354Y197712D01*
X-603726Y197156D01*
X-603856Y196500D01*
X-603726Y195844D01*
X-603354Y195288D01*
X-602798Y194916D01*
X-602142Y194786D01*
X-601486Y194916D01*
X-600930Y195288D01*
X-600559Y195844D01*
X-600428Y196500D01*
X-600559Y197156D01*
X-600930Y197712D01*
X-601486Y198084D01*
X-602142Y198214D01*
D02*
G37*
G36*
X-569142Y185547D02*
X-570578Y185358D01*
X-571916Y184804D01*
X-573065Y183923D01*
X-573947Y182774D01*
X-574501Y181436D01*
X-574690Y180000D01*
X-574501Y178564D01*
X-573947Y177226D01*
X-573065Y176077D01*
X-571916Y175196D01*
X-570578Y174642D01*
X-569142Y174452D01*
X-567706Y174642D01*
X-566369Y175196D01*
X-565220Y176077D01*
X-564338Y177226D01*
X-563784Y178564D01*
X-563595Y180000D01*
X-563784Y181436D01*
X-564338Y182774D01*
X-565220Y183923D01*
X-566369Y184804D01*
X-567706Y185358D01*
X-569142Y185547D01*
D02*
G37*
G36*
X-557642Y177214D02*
X-558298Y177084D01*
X-558854Y176712D01*
X-559226Y176156D01*
X-559356Y175500D01*
X-559226Y174844D01*
X-558854Y174288D01*
X-558298Y173916D01*
X-557642Y173786D01*
X-556986Y173916D01*
X-556430Y174288D01*
X-556059Y174844D01*
X-555928Y175500D01*
X-556059Y176156D01*
X-556430Y176712D01*
X-556986Y177084D01*
X-557642Y177214D01*
D02*
G37*
G36*
X-580642D02*
X-581298Y177084D01*
X-581854Y176712D01*
X-582226Y176156D01*
X-582356Y175500D01*
X-582226Y174844D01*
X-581854Y174288D01*
X-581298Y173916D01*
X-580642Y173786D01*
X-579986Y173916D01*
X-579430Y174288D01*
X-579059Y174844D01*
X-578928Y175500D01*
X-579059Y176156D01*
X-579430Y176712D01*
X-579986Y177084D01*
X-580642Y177214D01*
D02*
G37*
G36*
X-603642D02*
X-604298Y177084D01*
X-604854Y176712D01*
X-605226Y176156D01*
X-605356Y175500D01*
X-605226Y174844D01*
X-604854Y174288D01*
X-604298Y173916D01*
X-603642Y173786D01*
X-602986Y173916D01*
X-602430Y174288D01*
X-602059Y174844D01*
X-601928Y175500D01*
X-602059Y176156D01*
X-602430Y176712D01*
X-602986Y177084D01*
X-603642Y177214D01*
D02*
G37*
G36*
X-570056Y173214D02*
X-570712Y173084D01*
X-571268Y172712D01*
X-571639Y172156D01*
X-571770Y171500D01*
X-571639Y170844D01*
X-571268Y170288D01*
X-570712Y169916D01*
X-570056Y169786D01*
X-569400Y169916D01*
X-568844Y170288D01*
X-568472Y170844D01*
X-568342Y171500D01*
X-568472Y172156D01*
X-568844Y172712D01*
X-569400Y173084D01*
X-570056Y173214D01*
D02*
G37*
G36*
X-587142Y175548D02*
X-588578Y175358D01*
X-589916Y174804D01*
X-591065Y173923D01*
X-591947Y172774D01*
X-592501Y171436D01*
X-592690Y170000D01*
X-592501Y168564D01*
X-591947Y167226D01*
X-591065Y166077D01*
X-589916Y165196D01*
X-588578Y164642D01*
X-587142Y164453D01*
X-585707Y164642D01*
X-584369Y165196D01*
X-583220Y166077D01*
X-582338Y167226D01*
X-581784Y168564D01*
X-581595Y170000D01*
X-581784Y171436D01*
X-582338Y172774D01*
X-583220Y173923D01*
X-584369Y174804D01*
X-585707Y175358D01*
X-587142Y175548D01*
D02*
G37*
G36*
X-609142D02*
X-610578Y175358D01*
X-611916Y174804D01*
X-613065Y173923D01*
X-613947Y172774D01*
X-614501Y171436D01*
X-614690Y170000D01*
X-614501Y168564D01*
X-613947Y167226D01*
X-613065Y166077D01*
X-611916Y165196D01*
X-610578Y164642D01*
X-609142Y164453D01*
X-607706Y164642D01*
X-606369Y165196D01*
X-605220Y166077D01*
X-604338Y167226D01*
X-603784Y168564D01*
X-603595Y170000D01*
X-603784Y171436D01*
X-604338Y172774D01*
X-605220Y173923D01*
X-606369Y174804D01*
X-607706Y175358D01*
X-609142Y175548D01*
D02*
G37*
G36*
X-455142Y157714D02*
X-455798Y157584D01*
X-456354Y157212D01*
X-456726Y156656D01*
X-456856Y156000D01*
X-456726Y155344D01*
X-456354Y154788D01*
X-455798Y154416D01*
X-455142Y154286D01*
X-454486Y154416D01*
X-453930Y154788D01*
X-453559Y155344D01*
X-453428Y156000D01*
X-453559Y156656D01*
X-453930Y157212D01*
X-454486Y157584D01*
X-455142Y157714D01*
D02*
G37*
G36*
X-463642D02*
X-464298Y157584D01*
X-464854Y157212D01*
X-465226Y156656D01*
X-465356Y156000D01*
X-465226Y155344D01*
X-464854Y154788D01*
X-464298Y154416D01*
X-463642Y154286D01*
X-462986Y154416D01*
X-462430Y154788D01*
X-462059Y155344D01*
X-461928Y156000D01*
X-462059Y156656D01*
X-462430Y157212D01*
X-462986Y157584D01*
X-463642Y157714D01*
D02*
G37*
G36*
X-589039Y155615D02*
X-589695Y155485D01*
X-590251Y155113D01*
X-590623Y154557D01*
X-590753Y153901D01*
X-590623Y153245D01*
X-590251Y152689D01*
X-589695Y152318D01*
X-589039Y152187D01*
X-588383Y152318D01*
X-587827Y152689D01*
X-587456Y153245D01*
X-587325Y153901D01*
X-587456Y154557D01*
X-587827Y155113D01*
X-588383Y155485D01*
X-589039Y155615D01*
D02*
G37*
G36*
X-458142Y152714D02*
X-458798Y152584D01*
X-459354Y152212D01*
X-459726Y151656D01*
X-459856Y151000D01*
X-459726Y150344D01*
X-459354Y149788D01*
X-458798Y149416D01*
X-458142Y149286D01*
X-457486Y149416D01*
X-456930Y149788D01*
X-456559Y150344D01*
X-456428Y151000D01*
X-456559Y151656D01*
X-456930Y152212D01*
X-457486Y152584D01*
X-458142Y152714D01*
D02*
G37*
G36*
X-448642Y140641D02*
X-449186Y140533D01*
X-449647Y140225D01*
X-449955Y139764D01*
X-450063Y139220D01*
X-449955Y138677D01*
X-449647Y138216D01*
X-449186Y137908D01*
X-448642Y137800D01*
X-448099Y137908D01*
X-447638Y138216D01*
X-447330Y138677D01*
X-447221Y139220D01*
X-447330Y139764D01*
X-447638Y140225D01*
X-448099Y140533D01*
X-448642Y140641D01*
D02*
G37*
G36*
X-507142Y138548D02*
X-508578Y138358D01*
X-509916Y137804D01*
X-511065Y136923D01*
X-511947Y135774D01*
X-512501Y134436D01*
X-512690Y133000D01*
X-512501Y131564D01*
X-511947Y130226D01*
X-511065Y129077D01*
X-509916Y128196D01*
X-508578Y127642D01*
X-507142Y127453D01*
X-505707Y127642D01*
X-504369Y128196D01*
X-503220Y129077D01*
X-502338Y130226D01*
X-501784Y131564D01*
X-501595Y133000D01*
X-501784Y134436D01*
X-502338Y135774D01*
X-503220Y136923D01*
X-504369Y137804D01*
X-505707Y138358D01*
X-507142Y138548D01*
D02*
G37*
G36*
X-580236Y119234D02*
X-580780Y119125D01*
X-581241Y118817D01*
X-581549Y118356D01*
X-581657Y117813D01*
X-581549Y117269D01*
X-581241Y116808D01*
X-580780Y116500D01*
X-580236Y116392D01*
X-579692Y116500D01*
X-579231Y116808D01*
X-578923Y117269D01*
X-578815Y117813D01*
X-578923Y118356D01*
X-579231Y118817D01*
X-579692Y119125D01*
X-580236Y119234D01*
D02*
G37*
G36*
X-583500Y118535D02*
X-584044Y118427D01*
X-584505Y118119D01*
X-584813Y117658D01*
X-584921Y117114D01*
X-584813Y116570D01*
X-584505Y116109D01*
X-584044Y115801D01*
X-583500Y115693D01*
X-582956Y115801D01*
X-582495Y116109D01*
X-582187Y116570D01*
X-582079Y117114D01*
X-582187Y117658D01*
X-582495Y118119D01*
X-582956Y118427D01*
X-583500Y118535D01*
D02*
G37*
G36*
X-595909Y117512D02*
X-596453Y117404D01*
X-596914Y117096D01*
X-597222Y116635D01*
X-597330Y116091D01*
X-597222Y115547D01*
X-596914Y115086D01*
X-596453Y114778D01*
X-595909Y114670D01*
X-595365Y114778D01*
X-594904Y115086D01*
X-594596Y115547D01*
X-594488Y116091D01*
X-594596Y116635D01*
X-594904Y117096D01*
X-595365Y117404D01*
X-595909Y117512D01*
D02*
G37*
G36*
X-581756Y114081D02*
X-582646Y113904D01*
X-583400Y113400D01*
X-583904Y112646D01*
X-584002Y112154D01*
X-584511D01*
X-584609Y112646D01*
X-585113Y113400D01*
X-585867Y113904D01*
X-586757Y114081D01*
X-587646Y113904D01*
X-588400Y113400D01*
X-588904Y112646D01*
X-589002Y112154D01*
X-589511D01*
X-589609Y112646D01*
X-590113Y113400D01*
X-590867Y113904D01*
X-591756Y114081D01*
X-592646Y113904D01*
X-593400Y113400D01*
X-593904Y112646D01*
X-594002Y112154D01*
X-594511D01*
X-594609Y112646D01*
X-595113Y113400D01*
X-595867Y113904D01*
X-596757Y114081D01*
X-597646Y113904D01*
X-598400Y113400D01*
X-598904Y112646D01*
X-599002Y112154D01*
X-599511D01*
X-599609Y112646D01*
X-600113Y113400D01*
X-600867Y113904D01*
X-601756Y114081D01*
X-602646Y113904D01*
X-603400Y113400D01*
X-603904Y112646D01*
X-604002Y112154D01*
X-604511D01*
X-604609Y112646D01*
X-605113Y113400D01*
X-605867Y113904D01*
X-606756Y114081D01*
X-607646Y113904D01*
X-608400Y113400D01*
X-608904Y112646D01*
X-609002Y112154D01*
X-609511D01*
X-609609Y112646D01*
X-610113Y113400D01*
X-610867Y113904D01*
X-611757Y114081D01*
X-612646Y113904D01*
X-613400Y113400D01*
X-613904Y112646D01*
X-614002Y112154D01*
X-614511D01*
X-614609Y112646D01*
X-615113Y113400D01*
X-615867Y113904D01*
X-616756Y114081D01*
X-617646Y113904D01*
X-618400Y113400D01*
X-618904Y112646D01*
X-619081Y111757D01*
X-618904Y110867D01*
X-618400Y110113D01*
X-617646Y109609D01*
X-617154Y109512D01*
Y109002D01*
X-617646Y108904D01*
X-618400Y108400D01*
X-618904Y107646D01*
X-619081Y106757D01*
X-618904Y105867D01*
X-618400Y105113D01*
X-617646Y104609D01*
X-616756Y104432D01*
X-615867Y104609D01*
X-615113Y105113D01*
X-614609Y105867D01*
X-614511Y106359D01*
X-614002D01*
X-613904Y105867D01*
X-613400Y105113D01*
X-612646Y104609D01*
X-611757Y104432D01*
X-610867Y104609D01*
X-610113Y105113D01*
X-609609Y105867D01*
X-609511Y106359D01*
X-609002D01*
X-608904Y105867D01*
X-608400Y105113D01*
X-607646Y104609D01*
X-606756Y104432D01*
X-605867Y104609D01*
X-605113Y105113D01*
X-604609Y105867D01*
X-604511Y106359D01*
X-604002D01*
X-603904Y105867D01*
X-603400Y105113D01*
X-602646Y104609D01*
X-601756Y104432D01*
X-600867Y104609D01*
X-600113Y105113D01*
X-599609Y105867D01*
X-599511Y106359D01*
X-599002D01*
X-598904Y105867D01*
X-598400Y105113D01*
X-597646Y104609D01*
X-596757Y104432D01*
X-595867Y104609D01*
X-595113Y105113D01*
X-594609Y105867D01*
X-594511Y106359D01*
X-594002D01*
X-593904Y105867D01*
X-593400Y105113D01*
X-592646Y104609D01*
X-591756Y104432D01*
X-590867Y104609D01*
X-590113Y105113D01*
X-589609Y105867D01*
X-589511Y106359D01*
X-589002D01*
X-588904Y105867D01*
X-588400Y105113D01*
X-587646Y104609D01*
X-586757Y104432D01*
X-585867Y104609D01*
X-585113Y105113D01*
X-584609Y105867D01*
X-584511Y106359D01*
X-584002D01*
X-583904Y105867D01*
X-583400Y105113D01*
X-582646Y104609D01*
X-581756Y104432D01*
X-580867Y104609D01*
X-580113Y105113D01*
X-579609Y105867D01*
X-579432Y106757D01*
X-579609Y107646D01*
X-580113Y108400D01*
X-580867Y108904D01*
X-581359Y109002D01*
Y109512D01*
X-580867Y109609D01*
X-580113Y110113D01*
X-579609Y110867D01*
X-579432Y111757D01*
X-579609Y112646D01*
X-580113Y113400D01*
X-580867Y113904D01*
X-581756Y114081D01*
D02*
G37*
G36*
X-599521Y103421D02*
X-600065Y103313D01*
X-600526Y103005D01*
X-600834Y102544D01*
X-600942Y102000D01*
X-600834Y101456D01*
X-600526Y100995D01*
X-600065Y100687D01*
X-599521Y100579D01*
X-598977Y100687D01*
X-598516Y100995D01*
X-598208Y101456D01*
X-598100Y102000D01*
X-598208Y102544D01*
X-598516Y103005D01*
X-598977Y103313D01*
X-599521Y103421D01*
D02*
G37*
G36*
X-609164Y102608D02*
X-609708Y102500D01*
X-610169Y102192D01*
X-610477Y101731D01*
X-610585Y101187D01*
X-610477Y100643D01*
X-610169Y100182D01*
X-609708Y99874D01*
X-609164Y99766D01*
X-608620Y99874D01*
X-608159Y100182D01*
X-607851Y100643D01*
X-607743Y101187D01*
X-607851Y101731D01*
X-608159Y102192D01*
X-608620Y102500D01*
X-609164Y102608D01*
D02*
G37*
G36*
X-619000Y102421D02*
X-619544Y102313D01*
X-620005Y102005D01*
X-620313Y101544D01*
X-620421Y101000D01*
X-620313Y100456D01*
X-620005Y99995D01*
X-619544Y99687D01*
X-619000Y99579D01*
X-618456Y99687D01*
X-617995Y99995D01*
X-617687Y100456D01*
X-617579Y101000D01*
X-617687Y101544D01*
X-617995Y102005D01*
X-618456Y102313D01*
X-619000Y102421D01*
D02*
G37*
G36*
X-601743Y88320D02*
X-602287Y88212D01*
X-602748Y87904D01*
X-603056Y87443D01*
X-603164Y86899D01*
X-603056Y86356D01*
X-602748Y85895D01*
X-602287Y85587D01*
X-601743Y85478D01*
X-601199Y85587D01*
X-600738Y85895D01*
X-600430Y86356D01*
X-600322Y86899D01*
X-600430Y87443D01*
X-600738Y87904D01*
X-601199Y88212D01*
X-601743Y88320D01*
D02*
G37*
G36*
X-624642Y83214D02*
X-625298Y83084D01*
X-625854Y82712D01*
X-626226Y82156D01*
X-626356Y81500D01*
X-626226Y80844D01*
X-625854Y80288D01*
X-625298Y79916D01*
X-624642Y79786D01*
X-623986Y79916D01*
X-623430Y80288D01*
X-623059Y80844D01*
X-622928Y81500D01*
X-623059Y82156D01*
X-623430Y82712D01*
X-623986Y83084D01*
X-624642Y83214D01*
D02*
G37*
G36*
X-597890Y77982D02*
X-598546Y77851D01*
X-599102Y77480D01*
X-599473Y76924D01*
X-599604Y76268D01*
X-599473Y75612D01*
X-599102Y75056D01*
X-598546Y74684D01*
X-597890Y74554D01*
X-597234Y74684D01*
X-596678Y75056D01*
X-596306Y75612D01*
X-596176Y76268D01*
X-596306Y76924D01*
X-596678Y77480D01*
X-597234Y77851D01*
X-597890Y77982D01*
D02*
G37*
G36*
X-500142Y76214D02*
X-500798Y76084D01*
X-501354Y75712D01*
X-501726Y75156D01*
X-501856Y74500D01*
X-501726Y73844D01*
X-501354Y73288D01*
X-500798Y72916D01*
X-500142Y72786D01*
X-499486Y72916D01*
X-498930Y73288D01*
X-498559Y73844D01*
X-498428Y74500D01*
X-498559Y75156D01*
X-498930Y75712D01*
X-499486Y76084D01*
X-500142Y76214D01*
D02*
G37*
G36*
X-536142Y83548D02*
X-537578Y83358D01*
X-538916Y82804D01*
X-540065Y81923D01*
X-540947Y80774D01*
X-541501Y79436D01*
X-541690Y78000D01*
X-541501Y76564D01*
X-540947Y75226D01*
X-540065Y74077D01*
X-538916Y73196D01*
X-537578Y72642D01*
X-536142Y72452D01*
X-534706Y72642D01*
X-533369Y73196D01*
X-532220Y74077D01*
X-531338Y75226D01*
X-530784Y76564D01*
X-530595Y78000D01*
X-530784Y79436D01*
X-531338Y80774D01*
X-532220Y81923D01*
X-533369Y82804D01*
X-534706Y83358D01*
X-536142Y83548D01*
D02*
G37*
G36*
X-455142Y73714D02*
X-455798Y73584D01*
X-456354Y73212D01*
X-456726Y72656D01*
X-456856Y72000D01*
X-456726Y71344D01*
X-456354Y70788D01*
X-455798Y70416D01*
X-455142Y70286D01*
X-454486Y70416D01*
X-453930Y70788D01*
X-453559Y71344D01*
X-453428Y72000D01*
X-453559Y72656D01*
X-453930Y73212D01*
X-454486Y73584D01*
X-455142Y73714D01*
D02*
G37*
G36*
X-464142D02*
X-464798Y73584D01*
X-465354Y73212D01*
X-465726Y72656D01*
X-465856Y72000D01*
X-465726Y71344D01*
X-465354Y70788D01*
X-464798Y70416D01*
X-464142Y70286D01*
X-463486Y70416D01*
X-462930Y70788D01*
X-462559Y71344D01*
X-462428Y72000D01*
X-462559Y72656D01*
X-462930Y73212D01*
X-463486Y73584D01*
X-464142Y73714D01*
D02*
G37*
G36*
X-621544Y72778D02*
X-622088Y72670D01*
X-622549Y72362D01*
X-622857Y71901D01*
X-622965Y71357D01*
X-622857Y70813D01*
X-622549Y70352D01*
X-622088Y70044D01*
X-621544Y69936D01*
X-621000Y70044D01*
X-620539Y70352D01*
X-620231Y70813D01*
X-620123Y71357D01*
X-620231Y71901D01*
X-620539Y72362D01*
X-621000Y72670D01*
X-621544Y72778D01*
D02*
G37*
G36*
X-581642Y70714D02*
X-582298Y70584D01*
X-582854Y70212D01*
X-583226Y69656D01*
X-583356Y69000D01*
X-583226Y68344D01*
X-582854Y67788D01*
X-582298Y67416D01*
X-581642Y67286D01*
X-580986Y67416D01*
X-580430Y67788D01*
X-580059Y68344D01*
X-579928Y69000D01*
X-580059Y69656D01*
X-580430Y70212D01*
X-580986Y70584D01*
X-581642Y70714D01*
D02*
G37*
G36*
X-638142Y77548D02*
X-639578Y77358D01*
X-640916Y76804D01*
X-642065Y75923D01*
X-642947Y74774D01*
X-643501Y73436D01*
X-643690Y72000D01*
X-643501Y70564D01*
X-642947Y69226D01*
X-642065Y68077D01*
X-640916Y67196D01*
X-639578Y66642D01*
X-638142Y66452D01*
X-636706Y66642D01*
X-635369Y67196D01*
X-634220Y68077D01*
X-633338Y69226D01*
X-632784Y70564D01*
X-632595Y72000D01*
X-632784Y73436D01*
X-633338Y74774D01*
X-634220Y75923D01*
X-635369Y76804D01*
X-636706Y77358D01*
X-638142Y77548D01*
D02*
G37*
G36*
X-458642Y69714D02*
X-459298Y69584D01*
X-459854Y69212D01*
X-460226Y68656D01*
X-460356Y68000D01*
X-460226Y67344D01*
X-459854Y66788D01*
X-459298Y66416D01*
X-458642Y66286D01*
X-457986Y66416D01*
X-457430Y66788D01*
X-457059Y67344D01*
X-456928Y68000D01*
X-457059Y68656D01*
X-457430Y69212D01*
X-457986Y69584D01*
X-458642Y69714D01*
D02*
G37*
G36*
X-448642Y56642D02*
X-449186Y56533D01*
X-449647Y56225D01*
X-449955Y55764D01*
X-450063Y55221D01*
X-449955Y54677D01*
X-449647Y54216D01*
X-449186Y53908D01*
X-448642Y53799D01*
X-448099Y53908D01*
X-447638Y54216D01*
X-447330Y54677D01*
X-447221Y55221D01*
X-447330Y55764D01*
X-447638Y56225D01*
X-448099Y56533D01*
X-448642Y56642D01*
D02*
G37*
G36*
X-545142Y64547D02*
X-546578Y64358D01*
X-547916Y63804D01*
X-549065Y62923D01*
X-549947Y61774D01*
X-550501Y60436D01*
X-550690Y59000D01*
X-550501Y57564D01*
X-549947Y56226D01*
X-549065Y55077D01*
X-547916Y54196D01*
X-546578Y53642D01*
X-545142Y53452D01*
X-543707Y53642D01*
X-542369Y54196D01*
X-541220Y55077D01*
X-540338Y56226D01*
X-539784Y57564D01*
X-539595Y59000D01*
X-539784Y60436D01*
X-540338Y61774D01*
X-541220Y62923D01*
X-542369Y63804D01*
X-543707Y64358D01*
X-545142Y64547D01*
D02*
G37*
G36*
X-451142Y47714D02*
X-451798Y47584D01*
X-452354Y47212D01*
X-452726Y46656D01*
X-452856Y46000D01*
X-452726Y45344D01*
X-452354Y44788D01*
X-451798Y44416D01*
X-451142Y44286D01*
X-450486Y44416D01*
X-449930Y44788D01*
X-449559Y45344D01*
X-449428Y46000D01*
X-449559Y46656D01*
X-449930Y47212D01*
X-450486Y47584D01*
X-451142Y47714D01*
D02*
G37*
G36*
X-566142Y52548D02*
X-567578Y52358D01*
X-568916Y51804D01*
X-570065Y50923D01*
X-570947Y49774D01*
X-571501Y48436D01*
X-571690Y47000D01*
X-571501Y45564D01*
X-570947Y44226D01*
X-570065Y43077D01*
X-568916Y42196D01*
X-567578Y41642D01*
X-566142Y41453D01*
X-564707Y41642D01*
X-563369Y42196D01*
X-562220Y43077D01*
X-561338Y44226D01*
X-560784Y45564D01*
X-560595Y47000D01*
X-560784Y48436D01*
X-561338Y49774D01*
X-562220Y50923D01*
X-563369Y51804D01*
X-564707Y52358D01*
X-566142Y52548D01*
D02*
G37*
G36*
X-471142Y365921D02*
X-471686Y365813D01*
X-472147Y365505D01*
X-472455Y365044D01*
X-472563Y364500D01*
X-472455Y363956D01*
X-472147Y363495D01*
X-471686Y363187D01*
X-471142Y363079D01*
X-470599Y363187D01*
X-470138Y363495D01*
X-469830Y363956D01*
X-469721Y364500D01*
X-469830Y365044D01*
X-470138Y365505D01*
X-470599Y365813D01*
X-471142Y365921D01*
D02*
G37*
G36*
X-273623Y368108D02*
X-274279Y367978D01*
X-274835Y367606D01*
X-275207Y367050D01*
X-275338Y366394D01*
X-275207Y365738D01*
X-274835Y365182D01*
X-274395Y364888D01*
X-274360Y364744D01*
Y364477D01*
X-274395Y364332D01*
X-274835Y364038D01*
X-275207Y363482D01*
X-275338Y362826D01*
X-275207Y362170D01*
X-274835Y361614D01*
X-274279Y361243D01*
X-273623Y361112D01*
X-272968Y361243D01*
X-272411Y361614D01*
X-272040Y362170D01*
X-271909Y362826D01*
X-272040Y363482D01*
X-272411Y364038D01*
X-272852Y364332D01*
X-272887Y364477D01*
Y364744D01*
X-272852Y364888D01*
X-272411Y365182D01*
X-272040Y365738D01*
X-271909Y366394D01*
X-272040Y367050D01*
X-272411Y367606D01*
X-272968Y367978D01*
X-273623Y368108D01*
D02*
G37*
G36*
X-162490Y361151D02*
X-163034Y361043D01*
X-163495Y360735D01*
X-163803Y360274D01*
X-163911Y359730D01*
X-163803Y359186D01*
X-163495Y358725D01*
X-163034Y358417D01*
X-162490Y358309D01*
X-161946Y358417D01*
X-161485Y358725D01*
X-161177Y359186D01*
X-161069Y359730D01*
X-161177Y360274D01*
X-161485Y360735D01*
X-161946Y361043D01*
X-162490Y361151D01*
D02*
G37*
G36*
X-316033D02*
X-316577Y361043D01*
X-317038Y360735D01*
X-317346Y360274D01*
X-317454Y359730D01*
X-317346Y359186D01*
X-317038Y358725D01*
X-316577Y358417D01*
X-316033Y358309D01*
X-315489Y358417D01*
X-315028Y358725D01*
X-314720Y359186D01*
X-314612Y359730D01*
X-314720Y360274D01*
X-315028Y360735D01*
X-315489Y361043D01*
X-316033Y361151D01*
D02*
G37*
G36*
X-203949Y361081D02*
X-204493Y360973D01*
X-204954Y360665D01*
X-205262Y360204D01*
X-205370Y359660D01*
X-205262Y359116D01*
X-204954Y358655D01*
X-204493Y358347D01*
X-203949Y358239D01*
X-203405Y358347D01*
X-202944Y358655D01*
X-202636Y359116D01*
X-202528Y359660D01*
X-202636Y360204D01*
X-202944Y360665D01*
X-203405Y360973D01*
X-203949Y361081D01*
D02*
G37*
G36*
X-357492D02*
X-358036Y360973D01*
X-358497Y360665D01*
X-358805Y360204D01*
X-358913Y359660D01*
X-358805Y359116D01*
X-358497Y358655D01*
X-358036Y358347D01*
X-357492Y358239D01*
X-356948Y358347D01*
X-356487Y358655D01*
X-356179Y359116D01*
X-356071Y359660D01*
X-356179Y360204D01*
X-356487Y360665D01*
X-356948Y360973D01*
X-357492Y361081D01*
D02*
G37*
G36*
X-162554Y350832D02*
X-163098Y350724D01*
X-163558Y350415D01*
X-163867Y349954D01*
X-163975Y349411D01*
X-163867Y348867D01*
X-163558Y348406D01*
X-163098Y348098D01*
X-162554Y347990D01*
X-162010Y348098D01*
X-161549Y348406D01*
X-161241Y348867D01*
X-161133Y349411D01*
X-161241Y349954D01*
X-161549Y350415D01*
X-162010Y350724D01*
X-162554Y350832D01*
D02*
G37*
G36*
X-203903D02*
X-204446Y350724D01*
X-204907Y350415D01*
X-205215Y349954D01*
X-205324Y349411D01*
X-205215Y348867D01*
X-204907Y348406D01*
X-204446Y348098D01*
X-203903Y347990D01*
X-203359Y348098D01*
X-202898Y348406D01*
X-202590Y348867D01*
X-202482Y349411D01*
X-202590Y349954D01*
X-202898Y350415D01*
X-203359Y350724D01*
X-203903Y350832D01*
D02*
G37*
G36*
X-316097D02*
X-316641Y350724D01*
X-317102Y350415D01*
X-317410Y349954D01*
X-317518Y349411D01*
X-317410Y348867D01*
X-317102Y348406D01*
X-316641Y348098D01*
X-316097Y347990D01*
X-315553Y348098D01*
X-315092Y348406D01*
X-314784Y348867D01*
X-314676Y349411D01*
X-314784Y349954D01*
X-315092Y350415D01*
X-315553Y350724D01*
X-316097Y350832D01*
D02*
G37*
G36*
X-357446D02*
X-357990Y350724D01*
X-358451Y350415D01*
X-358759Y349954D01*
X-358867Y349411D01*
X-358759Y348867D01*
X-358451Y348406D01*
X-357990Y348098D01*
X-357446Y347990D01*
X-356902Y348098D01*
X-356441Y348406D01*
X-356133Y348867D01*
X-356025Y349411D01*
X-356133Y349954D01*
X-356441Y350415D01*
X-356902Y350724D01*
X-357446Y350832D01*
D02*
G37*
G36*
X-273625Y350081D02*
X-274281Y349951D01*
X-274837Y349579D01*
X-275208Y349023D01*
X-275339Y348367D01*
X-275208Y347711D01*
X-274837Y347155D01*
X-274437Y346888D01*
X-274424Y346850D01*
Y346370D01*
X-274437Y346332D01*
X-274837Y346065D01*
X-275208Y345509D01*
X-275339Y344853D01*
X-275208Y344197D01*
X-274837Y343641D01*
X-274281Y343269D01*
X-273625Y343139D01*
X-272969Y343269D01*
X-272413Y343641D01*
X-272041Y344197D01*
X-271911Y344853D01*
X-272041Y345509D01*
X-272413Y346065D01*
X-272813Y346332D01*
X-272826Y346370D01*
Y346850D01*
X-272813Y346888D01*
X-272413Y347155D01*
X-272041Y347711D01*
X-271911Y348367D01*
X-272041Y349023D01*
X-272413Y349579D01*
X-272969Y349951D01*
X-273625Y350081D01*
D02*
G37*
G36*
X-108765Y345092D02*
X-109421Y344961D01*
X-109977Y344589D01*
X-110348Y344033D01*
X-110479Y343377D01*
X-110420Y343080D01*
X-110845Y342655D01*
X-111142Y342714D01*
X-111798Y342584D01*
X-112354Y342212D01*
X-112726Y341656D01*
X-112856Y341000D01*
X-112726Y340344D01*
X-112354Y339788D01*
X-111798Y339416D01*
X-111142Y339286D01*
X-110486Y339416D01*
X-109930Y339788D01*
X-109559Y340344D01*
X-109428Y341000D01*
X-109487Y341297D01*
X-109062Y341722D01*
X-108765Y341663D01*
X-108109Y341794D01*
X-107553Y342165D01*
X-107181Y342722D01*
X-107051Y343377D01*
X-107181Y344033D01*
X-107553Y344589D01*
X-108109Y344961D01*
X-108765Y345092D01*
D02*
G37*
G36*
X-512142Y342714D02*
X-512798Y342584D01*
X-513354Y342212D01*
X-513726Y341656D01*
X-513856Y341000D01*
X-513726Y340344D01*
X-513354Y339788D01*
X-512798Y339416D01*
X-512142Y339286D01*
X-511486Y339416D01*
X-510930Y339788D01*
X-510559Y340344D01*
X-510428Y341000D01*
X-510559Y341656D01*
X-510930Y342212D01*
X-511486Y342584D01*
X-512142Y342714D01*
D02*
G37*
G36*
X-517142D02*
X-517798Y342584D01*
X-518354Y342212D01*
X-518726Y341656D01*
X-518856Y341000D01*
X-518726Y340344D01*
X-518354Y339788D01*
X-517798Y339416D01*
X-517142Y339286D01*
X-516486Y339416D01*
X-515930Y339788D01*
X-515559Y340344D01*
X-515428Y341000D01*
X-515559Y341656D01*
X-515930Y342212D01*
X-516486Y342584D01*
X-517142Y342714D01*
D02*
G37*
G36*
X-162555Y340989D02*
X-163099Y340881D01*
X-163560Y340573D01*
X-163868Y340112D01*
X-163976Y339568D01*
X-163868Y339024D01*
X-163560Y338563D01*
X-163099Y338255D01*
X-162555Y338147D01*
X-162011Y338255D01*
X-161550Y338563D01*
X-161242Y339024D01*
X-161134Y339568D01*
X-161242Y340112D01*
X-161550Y340573D01*
X-162011Y340881D01*
X-162555Y340989D01*
D02*
G37*
G36*
X-203901D02*
X-204445Y340881D01*
X-204906Y340573D01*
X-205214Y340112D01*
X-205322Y339568D01*
X-205214Y339024D01*
X-204906Y338563D01*
X-204445Y338255D01*
X-203901Y338147D01*
X-203357Y338255D01*
X-202896Y338563D01*
X-202588Y339024D01*
X-202480Y339568D01*
X-202588Y340112D01*
X-202896Y340573D01*
X-203357Y340881D01*
X-203901Y340989D01*
D02*
G37*
G36*
X-316098D02*
X-316642Y340881D01*
X-317103Y340573D01*
X-317411Y340112D01*
X-317519Y339568D01*
X-317411Y339024D01*
X-317103Y338563D01*
X-316642Y338255D01*
X-316098Y338147D01*
X-315555Y338255D01*
X-315094Y338563D01*
X-314786Y339024D01*
X-314677Y339568D01*
X-314786Y340112D01*
X-315094Y340573D01*
X-315555Y340881D01*
X-316098Y340989D01*
D02*
G37*
G36*
X-357445D02*
X-357988Y340881D01*
X-358449Y340573D01*
X-358757Y340112D01*
X-358865Y339568D01*
X-358757Y339024D01*
X-358449Y338563D01*
X-357988Y338255D01*
X-357445Y338147D01*
X-356901Y338255D01*
X-356440Y338563D01*
X-356132Y339024D01*
X-356024Y339568D01*
X-356132Y340112D01*
X-356440Y340573D01*
X-356901Y340881D01*
X-357445Y340989D01*
D02*
G37*
G36*
X-512142Y336714D02*
X-512798Y336584D01*
X-513354Y336212D01*
X-513726Y335656D01*
X-513856Y335000D01*
X-513726Y334344D01*
X-513354Y333788D01*
X-512798Y333416D01*
X-512142Y333286D01*
X-511486Y333416D01*
X-510930Y333788D01*
X-510559Y334344D01*
X-510428Y335000D01*
X-510559Y335656D01*
X-510930Y336212D01*
X-511486Y336584D01*
X-512142Y336714D01*
D02*
G37*
G36*
X-470142Y333714D02*
X-470798Y333584D01*
X-471354Y333212D01*
X-471726Y332656D01*
X-471856Y332000D01*
X-471726Y331344D01*
X-471354Y330788D01*
X-470798Y330416D01*
X-470142Y330286D01*
X-469486Y330416D01*
X-468930Y330788D01*
X-468559Y331344D01*
X-468428Y332000D01*
X-468559Y332656D01*
X-468930Y333212D01*
X-469486Y333584D01*
X-470142Y333714D01*
D02*
G37*
G36*
X-162556Y331147D02*
X-163099Y331038D01*
X-163560Y330730D01*
X-163868Y330269D01*
X-163977Y329726D01*
X-163868Y329182D01*
X-163560Y328721D01*
X-163099Y328413D01*
X-162556Y328305D01*
X-162012Y328413D01*
X-161551Y328721D01*
X-161243Y329182D01*
X-161135Y329726D01*
X-161243Y330269D01*
X-161551Y330730D01*
X-162012Y331038D01*
X-162556Y331147D01*
D02*
G37*
G36*
X-203901D02*
X-204445Y331038D01*
X-204906Y330730D01*
X-205213Y330269D01*
X-205322Y329726D01*
X-205213Y329182D01*
X-204906Y328721D01*
X-204445Y328413D01*
X-203901Y328305D01*
X-203357Y328413D01*
X-202896Y328721D01*
X-202588Y329182D01*
X-202480Y329726D01*
X-202588Y330269D01*
X-202896Y330730D01*
X-203357Y331038D01*
X-203901Y331147D01*
D02*
G37*
G36*
X-316099D02*
X-316643Y331038D01*
X-317104Y330730D01*
X-317412Y330269D01*
X-317520Y329726D01*
X-317412Y329182D01*
X-317104Y328721D01*
X-316643Y328413D01*
X-316099Y328305D01*
X-315555Y328413D01*
X-315094Y328721D01*
X-314786Y329182D01*
X-314678Y329726D01*
X-314786Y330269D01*
X-315094Y330730D01*
X-315555Y331038D01*
X-316099Y331147D01*
D02*
G37*
G36*
X-357444D02*
X-357988Y331038D01*
X-358449Y330730D01*
X-358757Y330269D01*
X-358865Y329726D01*
X-358757Y329182D01*
X-358449Y328721D01*
X-357988Y328413D01*
X-357444Y328305D01*
X-356900Y328413D01*
X-356439Y328721D01*
X-356131Y329182D01*
X-356023Y329726D01*
X-356131Y330269D01*
X-356439Y330730D01*
X-356900Y331038D01*
X-357444Y331147D01*
D02*
G37*
G36*
X-512142Y330714D02*
X-512798Y330584D01*
X-513354Y330212D01*
X-513726Y329656D01*
X-513856Y329000D01*
X-513726Y328344D01*
X-513354Y327788D01*
X-512798Y327416D01*
X-512142Y327286D01*
X-511486Y327416D01*
X-510930Y327788D01*
X-510559Y328344D01*
X-510428Y329000D01*
X-510559Y329656D01*
X-510930Y330212D01*
X-511486Y330584D01*
X-512142Y330714D01*
D02*
G37*
G36*
X-517142D02*
X-517798Y330584D01*
X-518354Y330212D01*
X-518726Y329656D01*
X-518856Y329000D01*
X-518726Y328344D01*
X-518354Y327788D01*
X-517798Y327416D01*
X-517142Y327286D01*
X-516486Y327416D01*
X-515930Y327788D01*
X-515559Y328344D01*
X-515428Y329000D01*
X-515559Y329656D01*
X-515930Y330212D01*
X-516486Y330584D01*
X-517142Y330714D01*
D02*
G37*
G36*
X-274125Y332081D02*
X-274781Y331951D01*
X-275337Y331579D01*
X-275708Y331023D01*
X-275839Y330367D01*
X-275708Y329711D01*
X-275337Y329155D01*
X-274937Y328888D01*
X-274923Y328850D01*
Y328370D01*
X-274937Y328332D01*
X-275337Y328065D01*
X-275708Y327509D01*
X-275839Y326853D01*
X-275708Y326197D01*
X-275337Y325641D01*
X-274781Y325270D01*
X-274125Y325139D01*
X-273469Y325270D01*
X-272913Y325641D01*
X-272541Y326197D01*
X-272411Y326853D01*
X-272541Y327509D01*
X-272913Y328065D01*
X-273313Y328332D01*
X-273326Y328370D01*
Y328850D01*
X-273313Y328888D01*
X-272913Y329155D01*
X-272541Y329711D01*
X-272411Y330367D01*
X-272541Y331023D01*
X-272913Y331579D01*
X-273469Y331951D01*
X-274125Y332081D01*
D02*
G37*
G36*
X-414765Y326092D02*
X-415421Y325961D01*
X-415977Y325589D01*
X-416348Y325033D01*
X-416479Y324377D01*
X-416420Y324080D01*
X-416845Y323655D01*
X-417142Y323714D01*
X-417798Y323584D01*
X-418354Y323212D01*
X-418726Y322656D01*
X-418856Y322000D01*
X-418726Y321344D01*
X-418354Y320788D01*
X-417798Y320416D01*
X-417142Y320286D01*
X-416486Y320416D01*
X-415930Y320788D01*
X-415559Y321344D01*
X-415428Y322000D01*
X-415487Y322297D01*
X-415062Y322723D01*
X-414765Y322663D01*
X-414109Y322794D01*
X-413553Y323165D01*
X-413181Y323722D01*
X-413051Y324377D01*
X-413181Y325033D01*
X-413553Y325589D01*
X-414109Y325961D01*
X-414765Y326092D01*
D02*
G37*
G36*
X-422765Y325092D02*
X-423421Y324961D01*
X-423977Y324589D01*
X-424348Y324033D01*
X-424479Y323377D01*
X-424420Y323080D01*
X-424845Y322655D01*
X-425142Y322714D01*
X-425798Y322584D01*
X-426354Y322212D01*
X-426726Y321656D01*
X-426856Y321000D01*
X-426726Y320344D01*
X-426354Y319788D01*
X-425798Y319416D01*
X-425142Y319286D01*
X-424486Y319416D01*
X-423930Y319788D01*
X-423559Y320344D01*
X-423428Y321000D01*
X-423487Y321297D01*
X-423062Y321723D01*
X-422765Y321663D01*
X-422109Y321794D01*
X-421553Y322165D01*
X-421181Y322722D01*
X-421051Y323377D01*
X-421181Y324033D01*
X-421553Y324589D01*
X-422109Y324961D01*
X-422765Y325092D01*
D02*
G37*
G36*
X-108125Y314081D02*
X-108781Y313951D01*
X-109337Y313579D01*
X-109708Y313023D01*
X-109839Y312367D01*
X-109708Y311711D01*
X-109337Y311155D01*
X-108937Y310888D01*
X-108923Y310850D01*
Y310370D01*
X-108937Y310332D01*
X-109337Y310065D01*
X-109708Y309509D01*
X-109839Y308853D01*
X-109708Y308197D01*
X-109337Y307641D01*
X-108781Y307270D01*
X-108125Y307139D01*
X-107469Y307270D01*
X-106913Y307641D01*
X-106541Y308197D01*
X-106411Y308853D01*
X-106541Y309509D01*
X-106913Y310065D01*
X-107313Y310332D01*
X-107326Y310370D01*
Y310850D01*
X-107313Y310888D01*
X-106913Y311155D01*
X-106541Y311711D01*
X-106411Y312367D01*
X-106541Y313023D01*
X-106913Y313579D01*
X-107469Y313951D01*
X-108125Y314081D01*
D02*
G37*
G36*
X-274125D02*
X-274781Y313951D01*
X-275337Y313579D01*
X-275708Y313023D01*
X-275839Y312367D01*
X-275708Y311711D01*
X-275337Y311155D01*
X-274937Y310888D01*
X-274923Y310850D01*
Y310370D01*
X-274937Y310332D01*
X-275337Y310065D01*
X-275708Y309509D01*
X-275839Y308853D01*
X-275708Y308197D01*
X-275337Y307641D01*
X-274781Y307270D01*
X-274125Y307139D01*
X-273469Y307270D01*
X-272913Y307641D01*
X-272541Y308197D01*
X-272411Y308853D01*
X-272541Y309509D01*
X-272913Y310065D01*
X-273313Y310332D01*
X-273326Y310370D01*
Y310850D01*
X-273313Y310888D01*
X-272913Y311155D01*
X-272541Y311711D01*
X-272411Y312367D01*
X-272541Y313023D01*
X-272913Y313579D01*
X-273469Y313951D01*
X-274125Y314081D01*
D02*
G37*
G36*
X-432142Y308714D02*
X-432798Y308584D01*
X-433354Y308212D01*
X-433726Y307656D01*
X-433856Y307000D01*
X-433797Y306703D01*
X-434222Y306277D01*
X-434520Y306337D01*
X-435176Y306206D01*
X-435732Y305835D01*
X-436103Y305278D01*
X-436234Y304623D01*
X-436103Y303967D01*
X-435732Y303411D01*
X-435176Y303039D01*
X-434520Y302908D01*
X-433864Y303039D01*
X-433308Y303411D01*
X-432936Y303967D01*
X-432806Y304623D01*
X-432865Y304920D01*
X-432440Y305345D01*
X-432142Y305286D01*
X-431486Y305416D01*
X-430930Y305788D01*
X-430559Y306344D01*
X-430428Y307000D01*
X-430559Y307656D01*
X-430930Y308212D01*
X-431486Y308584D01*
X-432142Y308714D01*
D02*
G37*
G36*
X-12599Y316010D02*
X-13963Y315830D01*
X-15234Y315304D01*
X-16325Y314466D01*
X-17163Y313375D01*
X-17689Y312104D01*
X-17868Y310740D01*
X-17689Y309376D01*
X-17163Y308105D01*
X-16325Y307014D01*
X-15234Y306177D01*
X-13963Y305650D01*
X-12599Y305471D01*
X-11235Y305650D01*
X-9964Y306177D01*
X-8873Y307014D01*
X-8036Y308105D01*
X-7509Y309376D01*
X-7329Y310740D01*
X-7509Y312104D01*
X-8036Y313375D01*
X-8873Y314466D01*
X-9964Y315304D01*
X-11235Y315830D01*
X-12599Y316010D01*
D02*
G37*
G36*
X-75399D02*
X-76763Y315830D01*
X-78034Y315304D01*
X-79125Y314466D01*
X-79962Y313375D01*
X-80489Y312104D01*
X-80668Y310740D01*
X-80489Y309376D01*
X-79962Y308105D01*
X-79125Y307014D01*
X-78034Y306177D01*
X-76763Y305650D01*
X-75399Y305471D01*
X-74035Y305650D01*
X-72764Y306177D01*
X-71673Y307014D01*
X-70836Y308105D01*
X-70309Y309376D01*
X-70130Y310740D01*
X-70309Y312104D01*
X-70836Y313375D01*
X-71673Y314466D01*
X-72764Y315304D01*
X-74035Y315830D01*
X-75399Y316010D01*
D02*
G37*
G36*
X-53699Y310810D02*
X-55063Y310630D01*
X-56334Y310104D01*
X-57425Y309266D01*
X-58262Y308175D01*
X-58789Y306904D01*
X-58969Y305540D01*
X-58789Y304176D01*
X-58262Y302905D01*
X-57425Y301814D01*
X-56334Y300977D01*
X-55063Y300450D01*
X-53699Y300271D01*
X-52335Y300450D01*
X-51064Y300977D01*
X-49973Y301814D01*
X-49136Y302905D01*
X-48609Y304176D01*
X-48430Y305540D01*
X-48609Y306904D01*
X-49136Y308175D01*
X-49973Y309266D01*
X-51064Y310104D01*
X-52335Y310630D01*
X-53699Y310810D01*
D02*
G37*
G36*
X-434642Y301714D02*
X-435298Y301584D01*
X-435854Y301212D01*
X-436226Y300656D01*
X-436356Y300000D01*
X-436297Y299703D01*
X-436722Y299277D01*
X-437020Y299337D01*
X-437676Y299206D01*
X-438232Y298835D01*
X-438603Y298278D01*
X-438734Y297623D01*
X-438603Y296967D01*
X-438232Y296411D01*
X-437676Y296039D01*
X-437020Y295908D01*
X-436364Y296039D01*
X-435808Y296411D01*
X-435436Y296967D01*
X-435306Y297623D01*
X-435365Y297920D01*
X-434940Y298345D01*
X-434642Y298286D01*
X-433986Y298416D01*
X-433430Y298788D01*
X-433059Y299344D01*
X-432928Y300000D01*
X-433059Y300656D01*
X-433430Y301212D01*
X-433986Y301584D01*
X-434642Y301714D01*
D02*
G37*
G36*
X-30599Y307075D02*
X-32030Y306934D01*
X-33406Y306516D01*
X-34674Y305839D01*
X-35785Y304926D01*
X-36697Y303815D01*
X-37375Y302547D01*
X-37793Y301171D01*
X-37933Y299740D01*
X-37793Y298309D01*
X-37375Y296933D01*
X-36697Y295665D01*
X-35785Y294554D01*
X-34674Y293642D01*
X-33406Y292964D01*
X-32030Y292547D01*
X-30599Y292406D01*
X-29168Y292547D01*
X-27792Y292964D01*
X-26524Y293642D01*
X-25413Y294554D01*
X-24501Y295665D01*
X-23823Y296933D01*
X-23405Y298309D01*
X-23265Y299740D01*
X-23405Y301171D01*
X-23823Y302547D01*
X-24501Y303815D01*
X-25413Y304926D01*
X-26524Y305839D01*
X-27792Y306516D01*
X-29168Y306934D01*
X-30599Y307075D01*
D02*
G37*
G36*
X-65599Y298223D02*
X-66500Y298104D01*
X-67340Y297756D01*
X-68062Y297203D01*
X-68615Y296481D01*
X-68963Y295641D01*
X-69082Y294740D01*
X-68963Y293839D01*
X-68615Y292999D01*
X-68062Y292278D01*
X-67340Y291724D01*
X-66500Y291376D01*
X-65599Y291258D01*
X-64698Y291376D01*
X-63858Y291724D01*
X-63137Y292278D01*
X-62583Y292999D01*
X-62235Y293839D01*
X-62116Y294740D01*
X-62235Y295641D01*
X-62583Y296481D01*
X-63137Y297203D01*
X-63858Y297756D01*
X-64698Y298104D01*
X-65599Y298223D01*
D02*
G37*
G36*
X-91499D02*
X-92400Y298104D01*
X-93240Y297756D01*
X-93962Y297203D01*
X-94515Y296481D01*
X-94863Y295641D01*
X-94982Y294740D01*
X-94863Y293839D01*
X-94515Y292999D01*
X-93962Y292278D01*
X-93240Y291724D01*
X-92400Y291376D01*
X-91499Y291258D01*
X-90598Y291376D01*
X-89758Y291724D01*
X-89037Y292278D01*
X-88483Y292999D01*
X-88135Y293839D01*
X-88016Y294740D01*
X-88135Y295641D01*
X-88483Y296481D01*
X-89037Y297203D01*
X-89758Y297756D01*
X-90598Y298104D01*
X-91499Y298223D01*
D02*
G37*
G36*
X-55599Y293223D02*
X-56500Y293104D01*
X-57340Y292756D01*
X-58061Y292203D01*
X-58615Y291481D01*
X-58963Y290641D01*
X-59082Y289740D01*
X-58963Y288839D01*
X-58615Y287999D01*
X-58061Y287278D01*
X-57340Y286724D01*
X-56500Y286376D01*
X-55599Y286258D01*
X-54698Y286376D01*
X-53858Y286724D01*
X-53136Y287278D01*
X-52583Y287999D01*
X-52235Y288839D01*
X-52117Y289740D01*
X-52235Y290641D01*
X-52583Y291481D01*
X-53136Y292203D01*
X-53858Y292756D01*
X-54698Y293104D01*
X-55599Y293223D01*
D02*
G37*
G36*
X-81499D02*
X-82400Y293104D01*
X-83240Y292756D01*
X-83961Y292203D01*
X-84515Y291481D01*
X-84863Y290641D01*
X-84982Y289740D01*
X-84863Y288839D01*
X-84515Y287999D01*
X-83961Y287278D01*
X-83240Y286724D01*
X-82400Y286376D01*
X-81499Y286258D01*
X-80598Y286376D01*
X-79758Y286724D01*
X-79036Y287278D01*
X-78483Y287999D01*
X-78135Y288839D01*
X-78017Y289740D01*
X-78135Y290641D01*
X-78483Y291481D01*
X-79036Y292203D01*
X-79758Y292756D01*
X-80598Y293104D01*
X-81499Y293223D01*
D02*
G37*
G36*
X-451142Y288714D02*
X-451798Y288584D01*
X-452354Y288212D01*
X-452726Y287656D01*
X-452856Y287000D01*
X-452726Y286344D01*
X-452354Y285788D01*
X-451798Y285416D01*
X-451142Y285286D01*
X-450486Y285416D01*
X-449930Y285788D01*
X-449559Y286344D01*
X-449428Y287000D01*
X-449559Y287656D01*
X-449930Y288212D01*
X-450486Y288584D01*
X-451142Y288714D01*
D02*
G37*
G36*
X-471142Y285141D02*
X-471686Y285033D01*
X-472147Y284725D01*
X-472455Y284264D01*
X-472563Y283720D01*
X-472455Y283177D01*
X-472147Y282716D01*
X-471686Y282408D01*
X-471142Y282299D01*
X-470599Y282408D01*
X-470138Y282716D01*
X-469830Y283177D01*
X-469721Y283720D01*
X-469830Y284264D01*
X-470138Y284725D01*
X-470599Y285033D01*
X-471142Y285141D01*
D02*
G37*
G36*
X-65599Y288223D02*
X-66500Y288104D01*
X-67340Y287756D01*
X-68062Y287203D01*
X-68615Y286481D01*
X-68963Y285642D01*
X-69082Y284740D01*
X-68963Y283839D01*
X-68615Y282999D01*
X-68062Y282278D01*
X-67340Y281724D01*
X-66500Y281376D01*
X-65599Y281258D01*
X-64698Y281376D01*
X-63858Y281724D01*
X-63137Y282278D01*
X-62583Y282999D01*
X-62235Y283839D01*
X-62116Y284740D01*
X-62235Y285642D01*
X-62583Y286481D01*
X-63137Y287203D01*
X-63858Y287756D01*
X-64698Y288104D01*
X-65599Y288223D01*
D02*
G37*
G36*
X-91499D02*
X-92400Y288104D01*
X-93240Y287756D01*
X-93962Y287203D01*
X-94515Y286481D01*
X-94863Y285642D01*
X-94982Y284740D01*
X-94863Y283839D01*
X-94515Y282999D01*
X-93962Y282278D01*
X-93240Y281724D01*
X-92400Y281376D01*
X-91499Y281258D01*
X-90598Y281376D01*
X-89758Y281724D01*
X-89037Y282278D01*
X-88483Y282999D01*
X-88135Y283839D01*
X-88016Y284740D01*
X-88135Y285642D01*
X-88483Y286481D01*
X-89037Y287203D01*
X-89758Y287756D01*
X-90598Y288104D01*
X-91499Y288223D01*
D02*
G37*
G36*
X-55599Y283223D02*
X-56500Y283104D01*
X-57340Y282756D01*
X-58061Y282203D01*
X-58615Y281481D01*
X-58963Y280642D01*
X-59082Y279740D01*
X-58963Y278839D01*
X-58615Y277999D01*
X-58061Y277278D01*
X-57340Y276724D01*
X-56500Y276376D01*
X-55599Y276258D01*
X-54698Y276376D01*
X-53858Y276724D01*
X-53136Y277278D01*
X-52583Y277999D01*
X-52235Y278839D01*
X-52117Y279740D01*
X-52235Y280642D01*
X-52583Y281481D01*
X-53136Y282203D01*
X-53858Y282756D01*
X-54698Y283104D01*
X-55599Y283223D01*
D02*
G37*
G36*
X-81499D02*
X-82400Y283104D01*
X-83240Y282756D01*
X-83961Y282203D01*
X-84515Y281481D01*
X-84863Y280642D01*
X-84982Y279740D01*
X-84863Y278839D01*
X-84515Y277999D01*
X-83961Y277278D01*
X-83240Y276724D01*
X-82400Y276376D01*
X-81499Y276258D01*
X-80598Y276376D01*
X-79758Y276724D01*
X-79036Y277278D01*
X-78483Y277999D01*
X-78135Y278839D01*
X-78017Y279740D01*
X-78135Y280642D01*
X-78483Y281481D01*
X-79036Y282203D01*
X-79758Y282756D01*
X-80598Y283104D01*
X-81499Y283223D01*
D02*
G37*
G36*
X-65599Y278223D02*
X-66500Y278104D01*
X-67340Y277756D01*
X-68062Y277203D01*
X-68615Y276481D01*
X-68963Y275641D01*
X-69082Y274740D01*
X-68963Y273839D01*
X-68615Y272999D01*
X-68062Y272278D01*
X-67340Y271724D01*
X-66500Y271376D01*
X-65599Y271258D01*
X-64698Y271376D01*
X-63858Y271724D01*
X-63137Y272278D01*
X-62583Y272999D01*
X-62235Y273839D01*
X-62116Y274740D01*
X-62235Y275641D01*
X-62583Y276481D01*
X-63137Y277203D01*
X-63858Y277756D01*
X-64698Y278104D01*
X-65599Y278223D01*
D02*
G37*
G36*
X-91499D02*
X-92400Y278104D01*
X-93240Y277756D01*
X-93962Y277203D01*
X-94515Y276481D01*
X-94863Y275641D01*
X-94982Y274740D01*
X-94863Y273839D01*
X-94515Y272999D01*
X-93962Y272278D01*
X-93240Y271724D01*
X-92400Y271376D01*
X-91499Y271258D01*
X-90598Y271376D01*
X-89758Y271724D01*
X-89037Y272278D01*
X-88483Y272999D01*
X-88135Y273839D01*
X-88016Y274740D01*
X-88135Y275641D01*
X-88483Y276481D01*
X-89037Y277203D01*
X-89758Y277756D01*
X-90598Y278104D01*
X-91499Y278223D01*
D02*
G37*
G36*
X-273625Y277530D02*
X-274281Y277400D01*
X-274837Y277028D01*
X-275208Y276472D01*
X-275339Y275816D01*
X-275208Y275160D01*
X-274837Y274604D01*
X-274437Y274337D01*
X-274424Y274299D01*
Y273819D01*
X-274437Y273781D01*
X-274837Y273514D01*
X-275208Y272958D01*
X-275339Y272302D01*
X-275208Y271646D01*
X-274837Y271090D01*
X-274281Y270718D01*
X-273625Y270588D01*
X-272969Y270718D01*
X-272413Y271090D01*
X-272041Y271646D01*
X-271911Y272302D01*
X-272041Y272958D01*
X-272413Y273514D01*
X-272813Y273781D01*
X-272826Y273819D01*
Y274299D01*
X-272813Y274337D01*
X-272413Y274604D01*
X-272041Y275160D01*
X-271911Y275816D01*
X-272041Y276472D01*
X-272413Y277028D01*
X-272969Y277400D01*
X-273625Y277530D01*
D02*
G37*
G36*
X-241142Y274588D02*
X-241798Y274458D01*
X-242354Y274086D01*
X-242726Y273530D01*
X-242856Y272874D01*
X-242726Y272218D01*
X-242354Y271662D01*
X-242102Y271494D01*
Y270892D01*
X-242354Y270724D01*
X-242726Y270168D01*
X-242856Y269512D01*
X-242726Y268856D01*
X-242354Y268300D01*
X-241798Y267928D01*
X-241142Y267798D01*
X-240486Y267928D01*
X-239930Y268300D01*
X-239559Y268856D01*
X-239428Y269512D01*
X-239559Y270168D01*
X-239930Y270724D01*
X-240182Y270892D01*
Y271494D01*
X-239930Y271662D01*
X-239559Y272218D01*
X-239428Y272874D01*
X-239559Y273530D01*
X-239930Y274086D01*
X-240486Y274458D01*
X-241142Y274588D01*
D02*
G37*
G36*
X-162490Y270600D02*
X-163034Y270492D01*
X-163495Y270184D01*
X-163803Y269723D01*
X-163911Y269179D01*
X-163803Y268635D01*
X-163495Y268174D01*
X-163034Y267866D01*
X-162490Y267758D01*
X-161946Y267866D01*
X-161485Y268174D01*
X-161177Y268635D01*
X-161069Y269179D01*
X-161177Y269723D01*
X-161485Y270184D01*
X-161946Y270492D01*
X-162490Y270600D01*
D02*
G37*
G36*
X-316033D02*
X-316577Y270492D01*
X-317038Y270184D01*
X-317346Y269723D01*
X-317454Y269179D01*
X-317346Y268635D01*
X-317038Y268174D01*
X-316577Y267866D01*
X-316033Y267758D01*
X-315489Y267866D01*
X-315028Y268174D01*
X-314720Y268635D01*
X-314612Y269179D01*
X-314720Y269723D01*
X-315028Y270184D01*
X-315489Y270492D01*
X-316033Y270600D01*
D02*
G37*
G36*
X-203949Y270530D02*
X-204493Y270422D01*
X-204954Y270113D01*
X-205262Y269653D01*
X-205370Y269109D01*
X-205262Y268565D01*
X-204954Y268104D01*
X-204493Y267796D01*
X-203949Y267688D01*
X-203405Y267796D01*
X-202944Y268104D01*
X-202636Y268565D01*
X-202528Y269109D01*
X-202636Y269653D01*
X-202944Y270113D01*
X-203405Y270422D01*
X-203949Y270530D01*
D02*
G37*
G36*
X-357492D02*
X-358036Y270422D01*
X-358497Y270113D01*
X-358805Y269653D01*
X-358913Y269109D01*
X-358805Y268565D01*
X-358497Y268104D01*
X-358036Y267796D01*
X-357492Y267688D01*
X-356948Y267796D01*
X-356487Y268104D01*
X-356179Y268565D01*
X-356071Y269109D01*
X-356179Y269653D01*
X-356487Y270113D01*
X-356948Y270422D01*
X-357492Y270530D01*
D02*
G37*
G36*
X-55599Y273223D02*
X-56500Y273104D01*
X-57340Y272756D01*
X-58061Y272203D01*
X-58615Y271481D01*
X-58963Y270641D01*
X-59082Y269740D01*
X-58963Y268839D01*
X-58615Y267999D01*
X-58061Y267278D01*
X-57340Y266724D01*
X-56500Y266376D01*
X-55599Y266258D01*
X-54698Y266376D01*
X-53858Y266724D01*
X-53136Y267278D01*
X-52583Y267999D01*
X-52235Y268839D01*
X-52117Y269740D01*
X-52235Y270641D01*
X-52583Y271481D01*
X-53136Y272203D01*
X-53858Y272756D01*
X-54698Y273104D01*
X-55599Y273223D01*
D02*
G37*
G36*
X-81499D02*
X-82400Y273104D01*
X-83240Y272756D01*
X-83961Y272203D01*
X-84515Y271481D01*
X-84863Y270641D01*
X-84982Y269740D01*
X-84863Y268839D01*
X-84515Y267999D01*
X-83961Y267278D01*
X-83240Y266724D01*
X-82400Y266376D01*
X-81499Y266258D01*
X-80598Y266376D01*
X-79758Y266724D01*
X-79036Y267278D01*
X-78483Y267999D01*
X-78135Y268839D01*
X-78017Y269740D01*
X-78135Y270641D01*
X-78483Y271481D01*
X-79036Y272203D01*
X-79758Y272756D01*
X-80598Y273104D01*
X-81499Y273223D01*
D02*
G37*
G36*
X-65599Y268223D02*
X-66500Y268104D01*
X-67340Y267756D01*
X-68062Y267203D01*
X-68615Y266481D01*
X-68963Y265641D01*
X-69082Y264740D01*
X-68963Y263839D01*
X-68615Y262999D01*
X-68062Y262278D01*
X-67340Y261724D01*
X-66500Y261376D01*
X-65599Y261258D01*
X-64698Y261376D01*
X-63858Y261724D01*
X-63137Y262278D01*
X-62583Y262999D01*
X-62235Y263839D01*
X-62116Y264740D01*
X-62235Y265641D01*
X-62583Y266481D01*
X-63137Y267203D01*
X-63858Y267756D01*
X-64698Y268104D01*
X-65599Y268223D01*
D02*
G37*
G36*
X-91499D02*
X-92400Y268104D01*
X-93240Y267756D01*
X-93962Y267203D01*
X-94515Y266481D01*
X-94863Y265641D01*
X-94982Y264740D01*
X-94863Y263839D01*
X-94515Y262999D01*
X-93962Y262278D01*
X-93240Y261724D01*
X-92400Y261376D01*
X-91499Y261258D01*
X-90598Y261376D01*
X-89758Y261724D01*
X-89037Y262278D01*
X-88483Y262999D01*
X-88135Y263839D01*
X-88016Y264740D01*
X-88135Y265641D01*
X-88483Y266481D01*
X-89037Y267203D01*
X-89758Y267756D01*
X-90598Y268104D01*
X-91499Y268223D01*
D02*
G37*
G36*
X-162554Y260280D02*
X-163098Y260172D01*
X-163558Y259864D01*
X-163867Y259403D01*
X-163975Y258859D01*
X-163867Y258316D01*
X-163558Y257855D01*
X-163098Y257547D01*
X-162554Y257438D01*
X-162010Y257547D01*
X-161549Y257855D01*
X-161241Y258316D01*
X-161133Y258859D01*
X-161241Y259403D01*
X-161549Y259864D01*
X-162010Y260172D01*
X-162554Y260280D01*
D02*
G37*
G36*
X-203903D02*
X-204446Y260172D01*
X-204907Y259864D01*
X-205215Y259403D01*
X-205324Y258859D01*
X-205215Y258316D01*
X-204907Y257855D01*
X-204446Y257547D01*
X-203903Y257438D01*
X-203359Y257547D01*
X-202898Y257855D01*
X-202590Y258316D01*
X-202482Y258859D01*
X-202590Y259403D01*
X-202898Y259864D01*
X-203359Y260172D01*
X-203903Y260280D01*
D02*
G37*
G36*
X-316097D02*
X-316641Y260172D01*
X-317102Y259864D01*
X-317410Y259403D01*
X-317518Y258859D01*
X-317410Y258316D01*
X-317102Y257855D01*
X-316641Y257547D01*
X-316097Y257438D01*
X-315553Y257547D01*
X-315092Y257855D01*
X-314784Y258316D01*
X-314676Y258859D01*
X-314784Y259403D01*
X-315092Y259864D01*
X-315553Y260172D01*
X-316097Y260280D01*
D02*
G37*
G36*
X-357446D02*
X-357990Y260172D01*
X-358451Y259864D01*
X-358759Y259403D01*
X-358867Y258859D01*
X-358759Y258316D01*
X-358451Y257855D01*
X-357990Y257547D01*
X-357446Y257438D01*
X-356902Y257547D01*
X-356441Y257855D01*
X-356133Y258316D01*
X-356025Y258859D01*
X-356133Y259403D01*
X-356441Y259864D01*
X-356902Y260172D01*
X-357446Y260280D01*
D02*
G37*
G36*
X-55599Y263223D02*
X-56500Y263104D01*
X-57340Y262756D01*
X-58061Y262203D01*
X-58615Y261481D01*
X-58963Y260642D01*
X-59082Y259740D01*
X-58963Y258839D01*
X-58615Y257999D01*
X-58061Y257278D01*
X-57340Y256724D01*
X-56500Y256376D01*
X-55599Y256258D01*
X-54698Y256376D01*
X-53858Y256724D01*
X-53136Y257278D01*
X-52583Y257999D01*
X-52235Y258839D01*
X-52117Y259740D01*
X-52235Y260642D01*
X-52583Y261481D01*
X-53136Y262203D01*
X-53858Y262756D01*
X-54698Y263104D01*
X-55599Y263223D01*
D02*
G37*
G36*
X-81499D02*
X-82400Y263104D01*
X-83240Y262756D01*
X-83961Y262203D01*
X-84515Y261481D01*
X-84863Y260642D01*
X-84982Y259740D01*
X-84863Y258839D01*
X-84515Y257999D01*
X-83961Y257278D01*
X-83240Y256724D01*
X-82400Y256376D01*
X-81499Y256258D01*
X-80598Y256376D01*
X-79758Y256724D01*
X-79036Y257278D01*
X-78483Y257999D01*
X-78135Y258839D01*
X-78017Y259740D01*
X-78135Y260642D01*
X-78483Y261481D01*
X-79036Y262203D01*
X-79758Y262756D01*
X-80598Y263104D01*
X-81499Y263223D01*
D02*
G37*
G36*
X-273125Y259530D02*
X-273781Y259400D01*
X-274337Y259028D01*
X-274708Y258472D01*
X-274839Y257816D01*
X-274708Y257160D01*
X-274337Y256604D01*
X-273937Y256337D01*
X-273923Y256299D01*
Y255819D01*
X-273937Y255781D01*
X-274337Y255514D01*
X-274708Y254958D01*
X-274839Y254302D01*
X-274708Y253646D01*
X-274337Y253090D01*
X-273781Y252718D01*
X-273125Y252588D01*
X-272469Y252718D01*
X-271913Y253090D01*
X-271541Y253646D01*
X-271411Y254302D01*
X-271541Y254958D01*
X-271913Y255514D01*
X-272313Y255781D01*
X-272326Y255819D01*
Y256299D01*
X-272313Y256337D01*
X-271913Y256604D01*
X-271541Y257160D01*
X-271411Y257816D01*
X-271541Y258472D01*
X-271913Y259028D01*
X-272469Y259400D01*
X-273125Y259530D01*
D02*
G37*
G36*
X-240642Y258799D02*
X-241298Y258668D01*
X-241854Y258297D01*
X-242226Y257740D01*
X-242356Y257085D01*
X-242226Y256429D01*
X-241854Y255873D01*
X-241602Y255704D01*
Y255103D01*
X-241854Y254934D01*
X-242226Y254378D01*
X-242356Y253722D01*
X-242226Y253066D01*
X-241854Y252510D01*
X-241298Y252139D01*
X-240642Y252008D01*
X-239986Y252139D01*
X-239430Y252510D01*
X-239059Y253066D01*
X-238928Y253722D01*
X-239059Y254378D01*
X-239430Y254934D01*
X-239682Y255103D01*
Y255704D01*
X-239430Y255873D01*
X-239059Y256429D01*
X-238928Y257085D01*
X-239059Y257740D01*
X-239430Y258297D01*
X-239986Y258668D01*
X-240642Y258799D01*
D02*
G37*
G36*
X-470142Y252935D02*
X-470798Y252804D01*
X-471354Y252432D01*
X-471726Y251876D01*
X-471856Y251220D01*
X-471726Y250565D01*
X-471354Y250009D01*
X-470798Y249637D01*
X-470142Y249506D01*
X-469486Y249637D01*
X-468930Y250009D01*
X-468559Y250565D01*
X-468428Y251220D01*
X-468559Y251876D01*
X-468930Y252432D01*
X-469486Y252804D01*
X-470142Y252935D01*
D02*
G37*
G36*
X-162555Y250438D02*
X-163099Y250330D01*
X-163560Y250022D01*
X-163868Y249561D01*
X-163976Y249017D01*
X-163868Y248473D01*
X-163560Y248012D01*
X-163099Y247704D01*
X-162555Y247596D01*
X-162011Y247704D01*
X-161550Y248012D01*
X-161242Y248473D01*
X-161134Y249017D01*
X-161242Y249561D01*
X-161550Y250022D01*
X-162011Y250330D01*
X-162555Y250438D01*
D02*
G37*
G36*
X-203901D02*
X-204445Y250330D01*
X-204906Y250022D01*
X-205214Y249561D01*
X-205322Y249017D01*
X-205214Y248473D01*
X-204906Y248012D01*
X-204445Y247704D01*
X-203901Y247596D01*
X-203357Y247704D01*
X-202896Y248012D01*
X-202588Y248473D01*
X-202480Y249017D01*
X-202588Y249561D01*
X-202896Y250022D01*
X-203357Y250330D01*
X-203901Y250438D01*
D02*
G37*
G36*
X-316098D02*
X-316642Y250330D01*
X-317103Y250022D01*
X-317411Y249561D01*
X-317519Y249017D01*
X-317411Y248473D01*
X-317103Y248012D01*
X-316642Y247704D01*
X-316098Y247596D01*
X-315555Y247704D01*
X-315094Y248012D01*
X-314786Y248473D01*
X-314677Y249017D01*
X-314786Y249561D01*
X-315094Y250022D01*
X-315555Y250330D01*
X-316098Y250438D01*
D02*
G37*
G36*
X-357445D02*
X-357988Y250330D01*
X-358449Y250022D01*
X-358757Y249561D01*
X-358865Y249017D01*
X-358757Y248473D01*
X-358449Y248012D01*
X-357988Y247704D01*
X-357445Y247596D01*
X-356901Y247704D01*
X-356440Y248012D01*
X-356132Y248473D01*
X-356024Y249017D01*
X-356132Y249561D01*
X-356440Y250022D01*
X-356901Y250330D01*
X-357445Y250438D01*
D02*
G37*
G36*
X-162556Y240595D02*
X-163099Y240487D01*
X-163560Y240179D01*
X-163868Y239718D01*
X-163977Y239174D01*
X-163868Y238631D01*
X-163560Y238170D01*
X-163099Y237862D01*
X-162556Y237753D01*
X-162012Y237862D01*
X-161551Y238170D01*
X-161243Y238631D01*
X-161135Y239174D01*
X-161243Y239718D01*
X-161551Y240179D01*
X-162012Y240487D01*
X-162556Y240595D01*
D02*
G37*
G36*
X-203901D02*
X-204445Y240487D01*
X-204906Y240179D01*
X-205213Y239718D01*
X-205322Y239174D01*
X-205213Y238631D01*
X-204906Y238170D01*
X-204445Y237862D01*
X-203901Y237753D01*
X-203357Y237862D01*
X-202896Y238170D01*
X-202588Y238631D01*
X-202480Y239174D01*
X-202588Y239718D01*
X-202896Y240179D01*
X-203357Y240487D01*
X-203901Y240595D01*
D02*
G37*
G36*
X-316099D02*
X-316643Y240487D01*
X-317104Y240179D01*
X-317412Y239718D01*
X-317520Y239174D01*
X-317412Y238631D01*
X-317104Y238170D01*
X-316643Y237862D01*
X-316099Y237753D01*
X-315555Y237862D01*
X-315094Y238170D01*
X-314786Y238631D01*
X-314678Y239174D01*
X-314786Y239718D01*
X-315094Y240179D01*
X-315555Y240487D01*
X-316099Y240595D01*
D02*
G37*
G36*
X-357444D02*
X-357988Y240487D01*
X-358449Y240179D01*
X-358757Y239718D01*
X-358865Y239174D01*
X-358757Y238631D01*
X-358449Y238170D01*
X-357988Y237862D01*
X-357444Y237753D01*
X-356900Y237862D01*
X-356439Y238170D01*
X-356131Y238631D01*
X-356023Y239174D01*
X-356131Y239718D01*
X-356439Y240179D01*
X-356900Y240487D01*
X-357444Y240595D01*
D02*
G37*
G36*
X-65599Y243223D02*
X-66500Y243104D01*
X-67340Y242756D01*
X-68062Y242203D01*
X-68615Y241481D01*
X-68963Y240641D01*
X-69082Y239740D01*
X-68963Y238839D01*
X-68615Y237999D01*
X-68062Y237278D01*
X-67340Y236724D01*
X-66500Y236376D01*
X-65599Y236258D01*
X-64698Y236376D01*
X-63858Y236724D01*
X-63137Y237278D01*
X-62583Y237999D01*
X-62235Y238839D01*
X-62116Y239740D01*
X-62235Y240641D01*
X-62583Y241481D01*
X-63137Y242203D01*
X-63858Y242756D01*
X-64698Y243104D01*
X-65599Y243223D01*
D02*
G37*
G36*
X-91499D02*
X-92400Y243104D01*
X-93240Y242756D01*
X-93962Y242203D01*
X-94515Y241481D01*
X-94863Y240641D01*
X-94982Y239740D01*
X-94863Y238839D01*
X-94515Y237999D01*
X-93962Y237278D01*
X-93240Y236724D01*
X-92400Y236376D01*
X-91499Y236258D01*
X-90598Y236376D01*
X-89758Y236724D01*
X-89037Y237278D01*
X-88483Y237999D01*
X-88135Y238839D01*
X-88016Y239740D01*
X-88135Y240641D01*
X-88483Y241481D01*
X-89037Y242203D01*
X-89758Y242756D01*
X-90598Y243104D01*
X-91499Y243223D01*
D02*
G37*
G36*
X-241142Y242057D02*
X-241798Y241926D01*
X-242354Y241554D01*
X-242726Y240999D01*
X-242856Y240342D01*
X-242726Y239687D01*
X-242354Y239130D01*
X-242102Y238962D01*
Y238361D01*
X-242354Y238192D01*
X-242726Y237636D01*
X-242856Y236980D01*
X-242726Y236324D01*
X-242354Y235768D01*
X-241798Y235397D01*
X-241142Y235266D01*
X-240486Y235397D01*
X-239930Y235768D01*
X-239559Y236324D01*
X-239428Y236980D01*
X-239559Y237636D01*
X-239930Y238192D01*
X-240182Y238361D01*
Y238962D01*
X-239930Y239130D01*
X-239559Y239687D01*
X-239428Y240342D01*
X-239559Y240999D01*
X-239930Y241554D01*
X-240486Y241926D01*
X-241142Y242057D01*
D02*
G37*
G36*
X-273125Y241530D02*
X-273781Y241400D01*
X-274337Y241028D01*
X-274708Y240472D01*
X-274839Y239816D01*
X-274708Y239160D01*
X-274337Y238604D01*
X-273937Y238337D01*
X-273923Y238299D01*
Y237819D01*
X-273937Y237781D01*
X-274337Y237514D01*
X-274708Y236958D01*
X-274839Y236302D01*
X-274708Y235646D01*
X-274337Y235090D01*
X-273781Y234718D01*
X-273125Y234588D01*
X-272469Y234718D01*
X-271913Y235090D01*
X-271541Y235646D01*
X-271411Y236302D01*
X-271541Y236958D01*
X-271913Y237514D01*
X-272313Y237781D01*
X-272326Y237819D01*
Y238299D01*
X-272313Y238337D01*
X-271913Y238604D01*
X-271541Y239160D01*
X-271411Y239816D01*
X-271541Y240472D01*
X-271913Y241028D01*
X-272469Y241400D01*
X-273125Y241530D01*
D02*
G37*
G36*
X-55599Y238223D02*
X-56500Y238104D01*
X-57340Y237756D01*
X-58061Y237203D01*
X-58615Y236481D01*
X-58963Y235642D01*
X-59082Y234740D01*
X-58963Y233839D01*
X-58615Y232999D01*
X-58061Y232278D01*
X-57340Y231724D01*
X-56500Y231376D01*
X-55599Y231258D01*
X-54698Y231376D01*
X-53858Y231724D01*
X-53136Y232278D01*
X-52583Y232999D01*
X-52235Y233839D01*
X-52117Y234740D01*
X-52235Y235642D01*
X-52583Y236481D01*
X-53136Y237203D01*
X-53858Y237756D01*
X-54698Y238104D01*
X-55599Y238223D01*
D02*
G37*
G36*
X-81499D02*
X-82400Y238104D01*
X-83240Y237756D01*
X-83961Y237203D01*
X-84515Y236481D01*
X-84863Y235642D01*
X-84982Y234740D01*
X-84863Y233839D01*
X-84515Y232999D01*
X-83961Y232278D01*
X-83240Y231724D01*
X-82400Y231376D01*
X-81499Y231258D01*
X-80598Y231376D01*
X-79758Y231724D01*
X-79036Y232278D01*
X-78483Y232999D01*
X-78135Y233839D01*
X-78017Y234740D01*
X-78135Y235642D01*
X-78483Y236481D01*
X-79036Y237203D01*
X-79758Y237756D01*
X-80598Y238104D01*
X-81499Y238223D01*
D02*
G37*
G36*
X-65599Y233223D02*
X-66500Y233104D01*
X-67340Y232756D01*
X-68062Y232203D01*
X-68615Y231481D01*
X-68963Y230642D01*
X-69082Y229740D01*
X-68963Y228839D01*
X-68615Y227999D01*
X-68062Y227278D01*
X-67340Y226724D01*
X-66500Y226376D01*
X-65599Y226258D01*
X-64698Y226376D01*
X-63858Y226724D01*
X-63137Y227278D01*
X-62583Y227999D01*
X-62235Y228839D01*
X-62116Y229740D01*
X-62235Y230642D01*
X-62583Y231481D01*
X-63137Y232203D01*
X-63858Y232756D01*
X-64698Y233104D01*
X-65599Y233223D01*
D02*
G37*
G36*
X-91499D02*
X-92400Y233104D01*
X-93240Y232756D01*
X-93962Y232203D01*
X-94515Y231481D01*
X-94863Y230642D01*
X-94982Y229740D01*
X-94863Y228839D01*
X-94515Y227999D01*
X-93962Y227278D01*
X-93240Y226724D01*
X-92400Y226376D01*
X-91499Y226258D01*
X-90598Y226376D01*
X-89758Y226724D01*
X-89037Y227278D01*
X-88483Y227999D01*
X-88135Y228839D01*
X-88016Y229740D01*
X-88135Y230642D01*
X-88483Y231481D01*
X-89037Y232203D01*
X-89758Y232756D01*
X-90598Y233104D01*
X-91499Y233223D01*
D02*
G37*
G36*
X-55599Y228223D02*
X-56500Y228104D01*
X-57340Y227756D01*
X-58061Y227203D01*
X-58615Y226481D01*
X-58963Y225641D01*
X-59082Y224740D01*
X-58963Y223839D01*
X-58615Y222999D01*
X-58061Y222278D01*
X-57340Y221724D01*
X-56500Y221376D01*
X-55599Y221258D01*
X-54698Y221376D01*
X-53858Y221724D01*
X-53136Y222278D01*
X-52583Y222999D01*
X-52235Y223839D01*
X-52117Y224740D01*
X-52235Y225641D01*
X-52583Y226481D01*
X-53136Y227203D01*
X-53858Y227756D01*
X-54698Y228104D01*
X-55599Y228223D01*
D02*
G37*
G36*
X-81499D02*
X-82400Y228104D01*
X-83240Y227756D01*
X-83961Y227203D01*
X-84515Y226481D01*
X-84863Y225641D01*
X-84982Y224740D01*
X-84863Y223839D01*
X-84515Y222999D01*
X-83961Y222278D01*
X-83240Y221724D01*
X-82400Y221376D01*
X-81499Y221258D01*
X-80598Y221376D01*
X-79758Y221724D01*
X-79036Y222278D01*
X-78483Y222999D01*
X-78135Y223839D01*
X-78017Y224740D01*
X-78135Y225641D01*
X-78483Y226481D01*
X-79036Y227203D01*
X-79758Y227756D01*
X-80598Y228104D01*
X-81499Y228223D01*
D02*
G37*
G36*
X-241142Y225799D02*
X-241798Y225668D01*
X-242354Y225297D01*
X-242726Y224741D01*
X-242856Y224085D01*
X-242726Y223429D01*
X-242354Y222873D01*
X-242102Y222704D01*
Y222103D01*
X-242354Y221934D01*
X-242726Y221378D01*
X-242856Y220722D01*
X-242726Y220066D01*
X-242354Y219510D01*
X-241798Y219139D01*
X-241142Y219008D01*
X-240486Y219139D01*
X-239930Y219510D01*
X-239559Y220066D01*
X-239428Y220722D01*
X-239559Y221378D01*
X-239930Y221934D01*
X-240182Y222103D01*
Y222704D01*
X-239930Y222873D01*
X-239559Y223429D01*
X-239428Y224085D01*
X-239559Y224741D01*
X-239930Y225297D01*
X-240486Y225668D01*
X-241142Y225799D01*
D02*
G37*
G36*
X-273125Y223530D02*
X-273781Y223400D01*
X-274337Y223028D01*
X-274708Y222472D01*
X-274839Y221816D01*
X-274708Y221160D01*
X-274337Y220604D01*
X-273937Y220337D01*
X-273923Y220299D01*
Y219819D01*
X-273937Y219781D01*
X-274337Y219514D01*
X-274708Y218958D01*
X-274839Y218302D01*
X-274708Y217646D01*
X-274337Y217090D01*
X-273781Y216718D01*
X-273125Y216588D01*
X-272469Y216718D01*
X-271913Y217090D01*
X-271541Y217646D01*
X-271411Y218302D01*
X-271541Y218958D01*
X-271913Y219514D01*
X-272313Y219781D01*
X-272326Y219819D01*
Y220299D01*
X-272313Y220337D01*
X-271913Y220604D01*
X-271541Y221160D01*
X-271411Y221816D01*
X-271541Y222472D01*
X-271913Y223028D01*
X-272469Y223400D01*
X-273125Y223530D01*
D02*
G37*
G36*
X-65599Y223223D02*
X-66500Y223104D01*
X-67340Y222756D01*
X-68062Y222203D01*
X-68615Y221481D01*
X-68963Y220641D01*
X-69082Y219740D01*
X-68963Y218839D01*
X-68615Y217999D01*
X-68062Y217278D01*
X-67340Y216724D01*
X-66500Y216376D01*
X-65599Y216258D01*
X-64698Y216376D01*
X-63858Y216724D01*
X-63137Y217278D01*
X-62583Y217999D01*
X-62235Y218839D01*
X-62116Y219740D01*
X-62235Y220641D01*
X-62583Y221481D01*
X-63137Y222203D01*
X-63858Y222756D01*
X-64698Y223104D01*
X-65599Y223223D01*
D02*
G37*
G36*
X-91499D02*
X-92400Y223104D01*
X-93240Y222756D01*
X-93962Y222203D01*
X-94515Y221481D01*
X-94863Y220641D01*
X-94982Y219740D01*
X-94863Y218839D01*
X-94515Y217999D01*
X-93962Y217278D01*
X-93240Y216724D01*
X-92400Y216376D01*
X-91499Y216258D01*
X-90598Y216376D01*
X-89758Y216724D01*
X-89037Y217278D01*
X-88483Y217999D01*
X-88135Y218839D01*
X-88016Y219740D01*
X-88135Y220641D01*
X-88483Y221481D01*
X-89037Y222203D01*
X-89758Y222756D01*
X-90598Y223104D01*
X-91499Y223223D01*
D02*
G37*
G36*
X-55599Y218223D02*
X-56500Y218104D01*
X-57340Y217756D01*
X-58061Y217203D01*
X-58615Y216481D01*
X-58963Y215641D01*
X-59082Y214740D01*
X-58963Y213839D01*
X-58615Y212999D01*
X-58061Y212278D01*
X-57340Y211724D01*
X-56500Y211376D01*
X-55599Y211258D01*
X-54698Y211376D01*
X-53858Y211724D01*
X-53136Y212278D01*
X-52583Y212999D01*
X-52235Y213839D01*
X-52117Y214740D01*
X-52235Y215641D01*
X-52583Y216481D01*
X-53136Y217203D01*
X-53858Y217756D01*
X-54698Y218104D01*
X-55599Y218223D01*
D02*
G37*
G36*
X-81499D02*
X-82400Y218104D01*
X-83240Y217756D01*
X-83961Y217203D01*
X-84515Y216481D01*
X-84863Y215641D01*
X-84982Y214740D01*
X-84863Y213839D01*
X-84515Y212999D01*
X-83961Y212278D01*
X-83240Y211724D01*
X-82400Y211376D01*
X-81499Y211258D01*
X-80598Y211376D01*
X-79758Y211724D01*
X-79036Y212278D01*
X-78483Y212999D01*
X-78135Y213839D01*
X-78017Y214740D01*
X-78135Y215641D01*
X-78483Y216481D01*
X-79036Y217203D01*
X-79758Y217756D01*
X-80598Y218104D01*
X-81499Y218223D01*
D02*
G37*
G36*
X-65599Y213223D02*
X-66500Y213104D01*
X-67340Y212756D01*
X-68062Y212203D01*
X-68615Y211481D01*
X-68963Y210642D01*
X-69082Y209740D01*
X-68963Y208839D01*
X-68615Y207999D01*
X-68062Y207278D01*
X-67340Y206724D01*
X-66500Y206376D01*
X-65599Y206258D01*
X-64698Y206376D01*
X-63858Y206724D01*
X-63137Y207278D01*
X-62583Y207999D01*
X-62235Y208839D01*
X-62116Y209740D01*
X-62235Y210642D01*
X-62583Y211481D01*
X-63137Y212203D01*
X-63858Y212756D01*
X-64698Y213104D01*
X-65599Y213223D01*
D02*
G37*
G36*
X-91499D02*
X-92400Y213104D01*
X-93240Y212756D01*
X-93962Y212203D01*
X-94515Y211481D01*
X-94863Y210642D01*
X-94982Y209740D01*
X-94863Y208839D01*
X-94515Y207999D01*
X-93962Y207278D01*
X-93240Y206724D01*
X-92400Y206376D01*
X-91499Y206258D01*
X-90598Y206376D01*
X-89758Y206724D01*
X-89037Y207278D01*
X-88483Y207999D01*
X-88135Y208839D01*
X-88016Y209740D01*
X-88135Y210642D01*
X-88483Y211481D01*
X-89037Y212203D01*
X-89758Y212756D01*
X-90598Y213104D01*
X-91499Y213223D01*
D02*
G37*
G36*
X-55599Y208223D02*
X-56500Y208104D01*
X-57340Y207756D01*
X-58061Y207203D01*
X-58615Y206481D01*
X-58963Y205642D01*
X-59082Y204740D01*
X-58963Y203839D01*
X-58615Y202999D01*
X-58061Y202278D01*
X-57340Y201724D01*
X-56500Y201376D01*
X-55599Y201258D01*
X-54698Y201376D01*
X-53858Y201724D01*
X-53136Y202278D01*
X-52583Y202999D01*
X-52235Y203839D01*
X-52117Y204740D01*
X-52235Y205642D01*
X-52583Y206481D01*
X-53136Y207203D01*
X-53858Y207756D01*
X-54698Y208104D01*
X-55599Y208223D01*
D02*
G37*
G36*
X-81499D02*
X-82400Y208104D01*
X-83240Y207756D01*
X-83961Y207203D01*
X-84515Y206481D01*
X-84863Y205642D01*
X-84982Y204740D01*
X-84863Y203839D01*
X-84515Y202999D01*
X-83961Y202278D01*
X-83240Y201724D01*
X-82400Y201376D01*
X-81499Y201258D01*
X-80598Y201376D01*
X-79758Y201724D01*
X-79036Y202278D01*
X-78483Y202999D01*
X-78135Y203839D01*
X-78017Y204740D01*
X-78135Y205642D01*
X-78483Y206481D01*
X-79036Y207203D01*
X-79758Y207756D01*
X-80598Y208104D01*
X-81499Y208223D01*
D02*
G37*
G36*
X-450142Y203714D02*
X-450798Y203584D01*
X-451354Y203212D01*
X-451726Y202656D01*
X-451856Y202000D01*
X-451726Y201344D01*
X-451354Y200788D01*
X-450798Y200416D01*
X-450142Y200286D01*
X-449486Y200416D01*
X-448930Y200788D01*
X-448559Y201344D01*
X-448428Y202000D01*
X-448559Y202656D01*
X-448930Y203212D01*
X-449486Y203584D01*
X-450142Y203714D01*
D02*
G37*
G36*
X-471142Y200142D02*
X-471686Y200033D01*
X-472147Y199725D01*
X-472455Y199264D01*
X-472563Y198721D01*
X-472455Y198177D01*
X-472147Y197716D01*
X-471686Y197408D01*
X-471142Y197300D01*
X-470599Y197408D01*
X-470138Y197716D01*
X-469830Y198177D01*
X-469721Y198721D01*
X-469830Y199264D01*
X-470138Y199725D01*
X-470599Y200033D01*
X-471142Y200142D01*
D02*
G37*
G36*
X-65599Y188223D02*
X-66500Y188104D01*
X-67340Y187756D01*
X-68062Y187203D01*
X-68615Y186481D01*
X-68963Y185642D01*
X-69082Y184740D01*
X-68963Y183839D01*
X-68615Y182999D01*
X-68062Y182278D01*
X-67340Y181724D01*
X-66500Y181376D01*
X-65599Y181258D01*
X-64698Y181376D01*
X-63858Y181724D01*
X-63137Y182278D01*
X-62583Y182999D01*
X-62235Y183839D01*
X-62116Y184740D01*
X-62235Y185642D01*
X-62583Y186481D01*
X-63137Y187203D01*
X-63858Y187756D01*
X-64698Y188104D01*
X-65599Y188223D01*
D02*
G37*
G36*
X-91499D02*
X-92400Y188104D01*
X-93240Y187756D01*
X-93962Y187203D01*
X-94515Y186481D01*
X-94863Y185642D01*
X-94982Y184740D01*
X-94863Y183839D01*
X-94515Y182999D01*
X-93962Y182278D01*
X-93240Y181724D01*
X-92400Y181376D01*
X-91499Y181258D01*
X-90598Y181376D01*
X-89758Y181724D01*
X-89037Y182278D01*
X-88483Y182999D01*
X-88135Y183839D01*
X-88016Y184740D01*
X-88135Y185642D01*
X-88483Y186481D01*
X-89037Y187203D01*
X-89758Y187756D01*
X-90598Y188104D01*
X-91499Y188223D01*
D02*
G37*
G36*
X-55599Y183223D02*
X-56500Y183104D01*
X-57340Y182756D01*
X-58061Y182203D01*
X-58615Y181481D01*
X-58963Y180641D01*
X-59082Y179740D01*
X-58963Y178839D01*
X-58615Y177999D01*
X-58061Y177278D01*
X-57340Y176724D01*
X-56500Y176376D01*
X-55599Y176258D01*
X-54698Y176376D01*
X-53858Y176724D01*
X-53136Y177278D01*
X-52583Y177999D01*
X-52235Y178839D01*
X-52117Y179740D01*
X-52235Y180641D01*
X-52583Y181481D01*
X-53136Y182203D01*
X-53858Y182756D01*
X-54698Y183104D01*
X-55599Y183223D01*
D02*
G37*
G36*
X-81499D02*
X-82400Y183104D01*
X-83240Y182756D01*
X-83961Y182203D01*
X-84515Y181481D01*
X-84863Y180641D01*
X-84982Y179740D01*
X-84863Y178839D01*
X-84515Y177999D01*
X-83961Y177278D01*
X-83240Y176724D01*
X-82400Y176376D01*
X-81499Y176258D01*
X-80598Y176376D01*
X-79758Y176724D01*
X-79036Y177278D01*
X-78483Y177999D01*
X-78135Y178839D01*
X-78017Y179740D01*
X-78135Y180641D01*
X-78483Y181481D01*
X-79036Y182203D01*
X-79758Y182756D01*
X-80598Y183104D01*
X-81499Y183223D01*
D02*
G37*
G36*
X-273125Y178323D02*
X-273781Y178193D01*
X-274337Y177822D01*
X-274708Y177265D01*
X-274839Y176610D01*
X-274708Y175953D01*
X-274337Y175398D01*
X-273937Y175130D01*
X-273923Y175092D01*
Y174613D01*
X-273937Y174574D01*
X-274337Y174307D01*
X-274708Y173751D01*
X-274839Y173095D01*
X-274708Y172439D01*
X-274337Y171883D01*
X-273781Y171512D01*
X-273125Y171381D01*
X-272469Y171512D01*
X-271913Y171883D01*
X-271541Y172439D01*
X-271411Y173095D01*
X-271541Y173751D01*
X-271913Y174307D01*
X-272313Y174574D01*
X-272326Y174613D01*
Y175092D01*
X-272313Y175130D01*
X-271913Y175398D01*
X-271541Y175953D01*
X-271411Y176610D01*
X-271541Y177265D01*
X-271913Y177822D01*
X-272469Y178193D01*
X-273125Y178323D01*
D02*
G37*
G36*
X-65599Y178223D02*
X-66500Y178104D01*
X-67340Y177756D01*
X-68062Y177203D01*
X-68615Y176481D01*
X-68963Y175642D01*
X-69082Y174740D01*
X-68963Y173839D01*
X-68615Y172999D01*
X-68062Y172278D01*
X-67340Y171724D01*
X-66500Y171376D01*
X-65599Y171258D01*
X-64698Y171376D01*
X-63858Y171724D01*
X-63137Y172278D01*
X-62583Y172999D01*
X-62235Y173839D01*
X-62116Y174740D01*
X-62235Y175642D01*
X-62583Y176481D01*
X-63137Y177203D01*
X-63858Y177756D01*
X-64698Y178104D01*
X-65599Y178223D01*
D02*
G37*
G36*
X-91499D02*
X-92400Y178104D01*
X-93240Y177756D01*
X-93962Y177203D01*
X-94515Y176481D01*
X-94863Y175642D01*
X-94982Y174740D01*
X-94863Y173839D01*
X-94515Y172999D01*
X-93962Y172278D01*
X-93240Y171724D01*
X-92400Y171376D01*
X-91499Y171258D01*
X-90598Y171376D01*
X-89758Y171724D01*
X-89037Y172278D01*
X-88483Y172999D01*
X-88135Y173839D01*
X-88016Y174740D01*
X-88135Y175642D01*
X-88483Y176481D01*
X-89037Y177203D01*
X-89758Y177756D01*
X-90598Y178104D01*
X-91499Y178223D01*
D02*
G37*
G36*
X-315590Y171393D02*
X-316134Y171285D01*
X-316595Y170977D01*
X-316903Y170516D01*
X-317011Y169972D01*
X-316903Y169428D01*
X-316595Y168967D01*
X-316134Y168659D01*
X-315590Y168551D01*
X-315046Y168659D01*
X-314585Y168967D01*
X-314277Y169428D01*
X-314169Y169972D01*
X-314277Y170516D01*
X-314585Y170977D01*
X-315046Y171285D01*
X-315590Y171393D01*
D02*
G37*
G36*
X-357049Y171323D02*
X-357593Y171215D01*
X-358054Y170907D01*
X-358362Y170446D01*
X-358470Y169902D01*
X-358362Y169358D01*
X-358054Y168897D01*
X-357593Y168589D01*
X-357049Y168481D01*
X-356505Y168589D01*
X-356044Y168897D01*
X-355736Y169358D01*
X-355628Y169902D01*
X-355736Y170446D01*
X-356044Y170907D01*
X-356505Y171215D01*
X-357049Y171323D01*
D02*
G37*
G36*
X-241642Y174934D02*
X-242298Y174804D01*
X-242854Y174433D01*
X-243226Y173876D01*
X-243356Y173221D01*
X-243226Y172565D01*
X-242854Y172009D01*
X-242602Y171840D01*
Y171239D01*
X-242854Y171070D01*
X-243226Y170514D01*
X-243356Y169858D01*
X-243226Y169202D01*
X-242854Y168646D01*
X-242298Y168275D01*
X-241642Y168144D01*
X-240986Y168275D01*
X-240430Y168646D01*
X-240059Y169202D01*
X-239928Y169858D01*
X-240059Y170514D01*
X-240430Y171070D01*
X-240682Y171239D01*
Y171840D01*
X-240430Y172009D01*
X-240059Y172565D01*
X-239928Y173221D01*
X-240059Y173876D01*
X-240430Y174433D01*
X-240986Y174804D01*
X-241642Y174934D01*
D02*
G37*
G36*
X-162537Y170946D02*
X-163081Y170838D01*
X-163542Y170530D01*
X-163850Y170069D01*
X-163958Y169525D01*
X-163850Y168981D01*
X-163542Y168520D01*
X-163081Y168212D01*
X-162537Y168104D01*
X-161993Y168212D01*
X-161532Y168520D01*
X-161224Y168981D01*
X-161116Y169525D01*
X-161224Y170069D01*
X-161532Y170530D01*
X-161993Y170838D01*
X-162537Y170946D01*
D02*
G37*
G36*
X-203996Y170876D02*
X-204540Y170768D01*
X-205001Y170460D01*
X-205309Y169999D01*
X-205417Y169455D01*
X-205309Y168911D01*
X-205001Y168450D01*
X-204540Y168142D01*
X-203996Y168034D01*
X-203452Y168142D01*
X-202991Y168450D01*
X-202683Y168911D01*
X-202575Y169455D01*
X-202683Y169999D01*
X-202991Y170460D01*
X-203452Y170768D01*
X-203996Y170876D01*
D02*
G37*
G36*
X-55599Y173223D02*
X-56500Y173104D01*
X-57340Y172756D01*
X-58061Y172203D01*
X-58615Y171481D01*
X-58963Y170642D01*
X-59082Y169740D01*
X-58963Y168839D01*
X-58615Y167999D01*
X-58061Y167278D01*
X-57340Y166724D01*
X-56500Y166376D01*
X-55599Y166258D01*
X-54698Y166376D01*
X-53858Y166724D01*
X-53136Y167278D01*
X-52583Y167999D01*
X-52235Y168839D01*
X-52117Y169740D01*
X-52235Y170642D01*
X-52583Y171481D01*
X-53136Y172203D01*
X-53858Y172756D01*
X-54698Y173104D01*
X-55599Y173223D01*
D02*
G37*
G36*
X-81499D02*
X-82400Y173104D01*
X-83240Y172756D01*
X-83961Y172203D01*
X-84515Y171481D01*
X-84863Y170642D01*
X-84982Y169740D01*
X-84863Y168839D01*
X-84515Y167999D01*
X-83961Y167278D01*
X-83240Y166724D01*
X-82400Y166376D01*
X-81499Y166258D01*
X-80598Y166376D01*
X-79758Y166724D01*
X-79036Y167278D01*
X-78483Y167999D01*
X-78135Y168839D01*
X-78017Y169740D01*
X-78135Y170642D01*
X-78483Y171481D01*
X-79036Y172203D01*
X-79758Y172756D01*
X-80598Y173104D01*
X-81499Y173223D01*
D02*
G37*
G36*
X-470142Y167935D02*
X-470798Y167804D01*
X-471354Y167432D01*
X-471726Y166876D01*
X-471856Y166220D01*
X-471726Y165565D01*
X-471354Y165008D01*
X-470798Y164637D01*
X-470142Y164506D01*
X-469486Y164637D01*
X-468930Y165008D01*
X-468559Y165565D01*
X-468428Y166220D01*
X-468559Y166876D01*
X-468930Y167432D01*
X-469486Y167804D01*
X-470142Y167935D01*
D02*
G37*
G36*
X-65599Y168223D02*
X-66500Y168104D01*
X-67340Y167756D01*
X-68062Y167203D01*
X-68615Y166481D01*
X-68963Y165641D01*
X-69082Y164740D01*
X-68963Y163839D01*
X-68615Y162999D01*
X-68062Y162278D01*
X-67340Y161724D01*
X-66500Y161376D01*
X-65599Y161258D01*
X-64698Y161376D01*
X-63858Y161724D01*
X-63137Y162278D01*
X-62583Y162999D01*
X-62235Y163839D01*
X-62116Y164740D01*
X-62235Y165641D01*
X-62583Y166481D01*
X-63137Y167203D01*
X-63858Y167756D01*
X-64698Y168104D01*
X-65599Y168223D01*
D02*
G37*
G36*
X-91499D02*
X-92400Y168104D01*
X-93240Y167756D01*
X-93962Y167203D01*
X-94515Y166481D01*
X-94863Y165641D01*
X-94982Y164740D01*
X-94863Y163839D01*
X-94515Y162999D01*
X-93962Y162278D01*
X-93240Y161724D01*
X-92400Y161376D01*
X-91499Y161258D01*
X-90598Y161376D01*
X-89758Y161724D01*
X-89037Y162278D01*
X-88483Y162999D01*
X-88135Y163839D01*
X-88016Y164740D01*
X-88135Y165641D01*
X-88483Y166481D01*
X-89037Y167203D01*
X-89758Y167756D01*
X-90598Y168104D01*
X-91499Y168223D01*
D02*
G37*
G36*
X-315654Y161074D02*
X-316198Y160966D01*
X-316659Y160658D01*
X-316967Y160196D01*
X-317075Y159653D01*
X-316967Y159109D01*
X-316659Y158648D01*
X-316198Y158340D01*
X-315654Y158232D01*
X-315110Y158340D01*
X-314649Y158648D01*
X-314341Y159109D01*
X-314233Y159653D01*
X-314341Y160196D01*
X-314649Y160658D01*
X-315110Y160966D01*
X-315654Y161074D01*
D02*
G37*
G36*
X-357003D02*
X-357547Y160966D01*
X-358008Y160658D01*
X-358316Y160196D01*
X-358424Y159653D01*
X-358316Y159109D01*
X-358008Y158648D01*
X-357547Y158340D01*
X-357003Y158232D01*
X-356459Y158340D01*
X-355998Y158648D01*
X-355690Y159109D01*
X-355582Y159653D01*
X-355690Y160196D01*
X-355998Y160658D01*
X-356459Y160966D01*
X-357003Y161074D01*
D02*
G37*
G36*
X-162601Y160627D02*
X-163145Y160519D01*
X-163606Y160211D01*
X-163914Y159750D01*
X-164022Y159206D01*
X-163914Y158662D01*
X-163606Y158201D01*
X-163145Y157893D01*
X-162601Y157785D01*
X-162057Y157893D01*
X-161596Y158201D01*
X-161288Y158662D01*
X-161180Y159206D01*
X-161288Y159750D01*
X-161596Y160211D01*
X-162057Y160519D01*
X-162601Y160627D01*
D02*
G37*
G36*
X-203950D02*
X-204494Y160519D01*
X-204955Y160211D01*
X-205263Y159750D01*
X-205371Y159206D01*
X-205263Y158662D01*
X-204955Y158201D01*
X-204494Y157893D01*
X-203950Y157785D01*
X-203406Y157893D01*
X-202945Y158201D01*
X-202637Y158662D01*
X-202529Y159206D01*
X-202637Y159750D01*
X-202945Y160211D01*
X-203406Y160519D01*
X-203950Y160627D01*
D02*
G37*
G36*
X-55599Y163223D02*
X-56500Y163104D01*
X-57340Y162756D01*
X-58061Y162203D01*
X-58615Y161481D01*
X-58963Y160642D01*
X-59082Y159740D01*
X-58963Y158839D01*
X-58615Y157999D01*
X-58061Y157278D01*
X-57340Y156724D01*
X-56500Y156376D01*
X-55599Y156258D01*
X-54698Y156376D01*
X-53858Y156724D01*
X-53136Y157278D01*
X-52583Y157999D01*
X-52235Y158839D01*
X-52117Y159740D01*
X-52235Y160642D01*
X-52583Y161481D01*
X-53136Y162203D01*
X-53858Y162756D01*
X-54698Y163104D01*
X-55599Y163223D01*
D02*
G37*
G36*
X-81499D02*
X-82400Y163104D01*
X-83240Y162756D01*
X-83961Y162203D01*
X-84515Y161481D01*
X-84863Y160642D01*
X-84982Y159740D01*
X-84863Y158839D01*
X-84515Y157999D01*
X-83961Y157278D01*
X-83240Y156724D01*
X-82400Y156376D01*
X-81499Y156258D01*
X-80598Y156376D01*
X-79758Y156724D01*
X-79036Y157278D01*
X-78483Y157999D01*
X-78135Y158839D01*
X-78017Y159740D01*
X-78135Y160642D01*
X-78483Y161481D01*
X-79036Y162203D01*
X-79758Y162756D01*
X-80598Y163104D01*
X-81499Y163223D01*
D02*
G37*
G36*
X-273125Y160324D02*
X-273781Y160193D01*
X-274337Y159821D01*
X-274708Y159265D01*
X-274839Y158609D01*
X-274708Y157954D01*
X-274337Y157397D01*
X-273937Y157130D01*
X-273923Y157092D01*
Y156613D01*
X-273937Y156574D01*
X-274337Y156307D01*
X-274708Y155751D01*
X-274839Y155095D01*
X-274708Y154439D01*
X-274337Y153883D01*
X-273781Y153512D01*
X-273125Y153381D01*
X-272469Y153512D01*
X-271913Y153883D01*
X-271541Y154439D01*
X-271411Y155095D01*
X-271541Y155751D01*
X-271913Y156307D01*
X-272313Y156574D01*
X-272326Y156613D01*
Y157092D01*
X-272313Y157130D01*
X-271913Y157397D01*
X-271541Y157954D01*
X-271411Y158609D01*
X-271541Y159265D01*
X-271913Y159821D01*
X-272469Y160193D01*
X-273125Y160324D01*
D02*
G37*
G36*
X-117125Y159877D02*
X-117781Y159746D01*
X-118337Y159375D01*
X-118708Y158818D01*
X-118839Y158163D01*
X-118708Y157507D01*
X-118337Y156951D01*
X-117937Y156683D01*
X-117923Y156645D01*
Y156166D01*
X-117937Y156128D01*
X-118337Y155860D01*
X-118708Y155304D01*
X-118839Y154648D01*
X-118708Y153992D01*
X-118337Y153436D01*
X-117781Y153065D01*
X-117125Y152934D01*
X-116469Y153065D01*
X-115913Y153436D01*
X-115541Y153992D01*
X-115411Y154648D01*
X-115541Y155304D01*
X-115913Y155860D01*
X-116313Y156128D01*
X-116326Y156166D01*
Y156645D01*
X-116313Y156683D01*
X-115913Y156951D01*
X-115541Y157507D01*
X-115411Y158163D01*
X-115541Y158818D01*
X-115913Y159375D01*
X-116469Y159746D01*
X-117125Y159877D01*
D02*
G37*
G36*
X-241142Y159145D02*
X-241798Y159015D01*
X-242354Y158643D01*
X-242726Y158087D01*
X-242856Y157431D01*
X-242726Y156775D01*
X-242354Y156219D01*
X-242102Y156051D01*
Y155449D01*
X-242354Y155281D01*
X-242726Y154725D01*
X-242856Y154069D01*
X-242726Y153413D01*
X-242354Y152857D01*
X-241798Y152485D01*
X-241142Y152355D01*
X-240486Y152485D01*
X-239930Y152857D01*
X-239559Y153413D01*
X-239428Y154069D01*
X-239559Y154725D01*
X-239930Y155281D01*
X-240182Y155449D01*
Y156051D01*
X-239930Y156219D01*
X-239559Y156775D01*
X-239428Y157431D01*
X-239559Y158087D01*
X-239930Y158643D01*
X-240486Y159015D01*
X-241142Y159145D01*
D02*
G37*
G36*
X-65599Y158223D02*
X-66500Y158104D01*
X-67340Y157756D01*
X-68062Y157203D01*
X-68615Y156481D01*
X-68963Y155641D01*
X-69082Y154740D01*
X-68963Y153839D01*
X-68615Y152999D01*
X-68062Y152278D01*
X-67340Y151724D01*
X-66500Y151376D01*
X-65599Y151258D01*
X-64698Y151376D01*
X-63858Y151724D01*
X-63137Y152278D01*
X-62583Y152999D01*
X-62235Y153839D01*
X-62116Y154740D01*
X-62235Y155641D01*
X-62583Y156481D01*
X-63137Y157203D01*
X-63858Y157756D01*
X-64698Y158104D01*
X-65599Y158223D01*
D02*
G37*
G36*
X-91499D02*
X-92400Y158104D01*
X-93240Y157756D01*
X-93962Y157203D01*
X-94515Y156481D01*
X-94863Y155641D01*
X-94982Y154740D01*
X-94863Y153839D01*
X-94515Y152999D01*
X-93962Y152278D01*
X-93240Y151724D01*
X-92400Y151376D01*
X-91499Y151258D01*
X-90598Y151376D01*
X-89758Y151724D01*
X-89037Y152278D01*
X-88483Y152999D01*
X-88135Y153839D01*
X-88016Y154740D01*
X-88135Y155641D01*
X-88483Y156481D01*
X-89037Y157203D01*
X-89758Y157756D01*
X-90598Y158104D01*
X-91499Y158223D01*
D02*
G37*
G36*
X-315655Y151231D02*
X-316199Y151123D01*
X-316660Y150815D01*
X-316968Y150354D01*
X-317076Y149810D01*
X-316968Y149266D01*
X-316660Y148805D01*
X-316199Y148497D01*
X-315655Y148389D01*
X-315112Y148497D01*
X-314651Y148805D01*
X-314342Y149266D01*
X-314234Y149810D01*
X-314342Y150354D01*
X-314651Y150815D01*
X-315112Y151123D01*
X-315655Y151231D01*
D02*
G37*
G36*
X-357001D02*
X-357545Y151123D01*
X-358006Y150815D01*
X-358314Y150354D01*
X-358422Y149810D01*
X-358314Y149266D01*
X-358006Y148805D01*
X-357545Y148497D01*
X-357001Y148389D01*
X-356458Y148497D01*
X-355997Y148805D01*
X-355689Y149266D01*
X-355580Y149810D01*
X-355689Y150354D01*
X-355997Y150815D01*
X-356458Y151123D01*
X-357001Y151231D01*
D02*
G37*
G36*
X-162602Y150784D02*
X-163146Y150676D01*
X-163607Y150368D01*
X-163915Y149907D01*
X-164023Y149363D01*
X-163915Y148820D01*
X-163607Y148359D01*
X-163146Y148050D01*
X-162602Y147942D01*
X-162058Y148050D01*
X-161598Y148359D01*
X-161290Y148820D01*
X-161181Y149363D01*
X-161290Y149907D01*
X-161598Y150368D01*
X-162058Y150676D01*
X-162602Y150784D01*
D02*
G37*
G36*
X-203948D02*
X-204492Y150676D01*
X-204953Y150368D01*
X-205261Y149907D01*
X-205369Y149363D01*
X-205261Y148820D01*
X-204953Y148359D01*
X-204492Y148050D01*
X-203948Y147942D01*
X-203405Y148050D01*
X-202944Y148359D01*
X-202636Y148820D01*
X-202527Y149363D01*
X-202636Y149907D01*
X-202944Y150368D01*
X-203405Y150676D01*
X-203948Y150784D01*
D02*
G37*
G36*
X-55599Y153223D02*
X-56500Y153104D01*
X-57340Y152756D01*
X-58061Y152203D01*
X-58615Y151481D01*
X-58963Y150642D01*
X-59082Y149740D01*
X-58963Y148839D01*
X-58615Y147999D01*
X-58061Y147278D01*
X-57340Y146724D01*
X-56500Y146376D01*
X-55599Y146258D01*
X-54698Y146376D01*
X-53858Y146724D01*
X-53136Y147278D01*
X-52583Y147999D01*
X-52235Y148839D01*
X-52117Y149740D01*
X-52235Y150642D01*
X-52583Y151481D01*
X-53136Y152203D01*
X-53858Y152756D01*
X-54698Y153104D01*
X-55599Y153223D01*
D02*
G37*
G36*
X-81499D02*
X-82400Y153104D01*
X-83240Y152756D01*
X-83961Y152203D01*
X-84515Y151481D01*
X-84863Y150642D01*
X-84982Y149740D01*
X-84863Y148839D01*
X-84515Y147999D01*
X-83961Y147278D01*
X-83240Y146724D01*
X-82400Y146376D01*
X-81499Y146258D01*
X-80598Y146376D01*
X-79758Y146724D01*
X-79036Y147278D01*
X-78483Y147999D01*
X-78135Y148839D01*
X-78017Y149740D01*
X-78135Y150642D01*
X-78483Y151481D01*
X-79036Y152203D01*
X-79758Y152756D01*
X-80598Y153104D01*
X-81499Y153223D01*
D02*
G37*
G36*
X-315656Y141389D02*
X-316200Y141280D01*
X-316661Y140972D01*
X-316969Y140512D01*
X-317077Y139968D01*
X-316969Y139424D01*
X-316661Y138963D01*
X-316200Y138655D01*
X-315656Y138547D01*
X-315112Y138655D01*
X-314651Y138963D01*
X-314343Y139424D01*
X-314235Y139968D01*
X-314343Y140512D01*
X-314651Y140972D01*
X-315112Y141280D01*
X-315656Y141389D01*
D02*
G37*
G36*
X-357001D02*
X-357545Y141280D01*
X-358006Y140972D01*
X-358314Y140512D01*
X-358422Y139968D01*
X-358314Y139424D01*
X-358006Y138963D01*
X-357545Y138655D01*
X-357001Y138547D01*
X-356457Y138655D01*
X-355996Y138963D01*
X-355688Y139424D01*
X-355580Y139968D01*
X-355688Y140512D01*
X-355996Y140972D01*
X-356457Y141280D01*
X-357001Y141389D01*
D02*
G37*
G36*
X-162603Y140942D02*
X-163147Y140834D01*
X-163608Y140526D01*
X-163916Y140065D01*
X-164024Y139521D01*
X-163916Y138977D01*
X-163608Y138516D01*
X-163147Y138208D01*
X-162603Y138100D01*
X-162059Y138208D01*
X-161598Y138516D01*
X-161290Y138977D01*
X-161182Y139521D01*
X-161290Y140065D01*
X-161598Y140526D01*
X-162059Y140834D01*
X-162603Y140942D01*
D02*
G37*
G36*
X-203948D02*
X-204492Y140834D01*
X-204953Y140526D01*
X-205261Y140065D01*
X-205369Y139521D01*
X-205261Y138977D01*
X-204953Y138516D01*
X-204492Y138208D01*
X-203948Y138100D01*
X-203404Y138208D01*
X-202943Y138516D01*
X-202635Y138977D01*
X-202527Y139521D01*
X-202635Y140065D01*
X-202943Y140526D01*
X-203404Y140834D01*
X-203948Y140942D01*
D02*
G37*
G36*
X-241142Y142403D02*
X-241798Y142273D01*
X-242354Y141901D01*
X-242726Y141345D01*
X-242856Y140689D01*
X-242726Y140033D01*
X-242354Y139477D01*
X-242102Y139309D01*
Y138707D01*
X-242354Y138539D01*
X-242726Y137983D01*
X-242856Y137327D01*
X-242726Y136671D01*
X-242354Y136115D01*
X-241798Y135743D01*
X-241142Y135613D01*
X-240486Y135743D01*
X-239930Y136115D01*
X-239559Y136671D01*
X-239428Y137327D01*
X-239559Y137983D01*
X-239930Y138539D01*
X-240182Y138707D01*
Y139309D01*
X-239930Y139477D01*
X-239559Y140033D01*
X-239428Y140689D01*
X-239559Y141345D01*
X-239930Y141901D01*
X-240486Y142273D01*
X-241142Y142403D01*
D02*
G37*
G36*
X-273125Y142324D02*
X-273781Y142193D01*
X-274337Y141822D01*
X-274708Y141265D01*
X-274839Y140610D01*
X-274708Y139953D01*
X-274337Y139398D01*
X-273937Y139130D01*
X-273923Y139092D01*
Y138613D01*
X-273937Y138575D01*
X-274337Y138307D01*
X-274708Y137751D01*
X-274839Y137095D01*
X-274708Y136439D01*
X-274337Y135883D01*
X-273781Y135512D01*
X-273125Y135381D01*
X-272469Y135512D01*
X-271913Y135883D01*
X-271541Y136439D01*
X-271411Y137095D01*
X-271541Y137751D01*
X-271913Y138307D01*
X-272313Y138575D01*
X-272326Y138613D01*
Y139092D01*
X-272313Y139130D01*
X-271913Y139398D01*
X-271541Y139953D01*
X-271411Y140610D01*
X-271541Y141265D01*
X-271913Y141822D01*
X-272469Y142193D01*
X-273125Y142324D01*
D02*
G37*
G36*
X-65599Y133223D02*
X-66500Y133104D01*
X-67340Y132756D01*
X-68062Y132203D01*
X-68615Y131481D01*
X-68963Y130641D01*
X-69082Y129740D01*
X-68963Y128839D01*
X-68615Y127999D01*
X-68062Y127278D01*
X-67340Y126724D01*
X-66500Y126376D01*
X-65599Y126258D01*
X-64698Y126376D01*
X-63858Y126724D01*
X-63137Y127278D01*
X-62583Y127999D01*
X-62235Y128839D01*
X-62116Y129740D01*
X-62235Y130641D01*
X-62583Y131481D01*
X-63137Y132203D01*
X-63858Y132756D01*
X-64698Y133104D01*
X-65599Y133223D01*
D02*
G37*
G36*
X-91499D02*
X-92400Y133104D01*
X-93240Y132756D01*
X-93962Y132203D01*
X-94515Y131481D01*
X-94863Y130641D01*
X-94982Y129740D01*
X-94863Y128839D01*
X-94515Y127999D01*
X-93962Y127278D01*
X-93240Y126724D01*
X-92400Y126376D01*
X-91499Y126258D01*
X-90598Y126376D01*
X-89758Y126724D01*
X-89037Y127278D01*
X-88483Y127999D01*
X-88135Y128839D01*
X-88016Y129740D01*
X-88135Y130641D01*
X-88483Y131481D01*
X-89037Y132203D01*
X-89758Y132756D01*
X-90598Y133104D01*
X-91499Y133223D01*
D02*
G37*
G36*
X-55599Y128223D02*
X-56500Y128104D01*
X-57340Y127756D01*
X-58061Y127203D01*
X-58615Y126481D01*
X-58963Y125642D01*
X-59082Y124740D01*
X-58963Y123839D01*
X-58615Y122999D01*
X-58061Y122278D01*
X-57340Y121724D01*
X-56500Y121376D01*
X-55599Y121258D01*
X-54698Y121376D01*
X-53858Y121724D01*
X-53136Y122278D01*
X-52583Y122999D01*
X-52235Y123839D01*
X-52117Y124740D01*
X-52235Y125642D01*
X-52583Y126481D01*
X-53136Y127203D01*
X-53858Y127756D01*
X-54698Y128104D01*
X-55599Y128223D01*
D02*
G37*
G36*
X-81499D02*
X-82400Y128104D01*
X-83240Y127756D01*
X-83961Y127203D01*
X-84515Y126481D01*
X-84863Y125642D01*
X-84982Y124740D01*
X-84863Y123839D01*
X-84515Y122999D01*
X-83961Y122278D01*
X-83240Y121724D01*
X-82400Y121376D01*
X-81499Y121258D01*
X-80598Y121376D01*
X-79758Y121724D01*
X-79036Y122278D01*
X-78483Y122999D01*
X-78135Y123839D01*
X-78017Y124740D01*
X-78135Y125642D01*
X-78483Y126481D01*
X-79036Y127203D01*
X-79758Y127756D01*
X-80598Y128104D01*
X-81499Y128223D01*
D02*
G37*
G36*
X-115765Y122091D02*
X-116421Y121961D01*
X-116977Y121589D01*
X-117349Y121033D01*
X-117479Y120377D01*
X-117420Y120080D01*
X-117845Y119655D01*
X-118142Y119714D01*
X-118798Y119584D01*
X-119354Y119212D01*
X-119726Y118656D01*
X-119856Y118000D01*
X-119726Y117344D01*
X-119354Y116788D01*
X-118798Y116416D01*
X-118142Y116286D01*
X-117486Y116416D01*
X-116930Y116788D01*
X-116559Y117344D01*
X-116428Y118000D01*
X-116487Y118297D01*
X-116062Y118722D01*
X-115765Y118663D01*
X-115109Y118794D01*
X-114553Y119165D01*
X-114181Y119721D01*
X-114051Y120377D01*
X-114181Y121033D01*
X-114553Y121589D01*
X-115109Y121961D01*
X-115765Y122091D01*
D02*
G37*
G36*
X-241142Y126145D02*
X-241798Y126015D01*
X-242354Y125643D01*
X-242726Y125087D01*
X-242856Y124431D01*
X-242726Y123775D01*
X-242354Y123219D01*
X-242102Y123051D01*
Y122449D01*
X-242354Y122281D01*
X-242726Y121725D01*
X-242856Y121069D01*
X-242726Y120413D01*
X-242354Y119857D01*
X-241798Y119485D01*
X-241142Y119355D01*
X-240486Y119485D01*
X-239930Y119857D01*
X-239559Y120413D01*
X-239428Y121069D01*
X-239559Y121725D01*
X-239930Y122281D01*
X-240182Y122449D01*
Y123051D01*
X-239930Y123219D01*
X-239559Y123775D01*
X-239428Y124431D01*
X-239559Y125087D01*
X-239930Y125643D01*
X-240486Y126015D01*
X-241142Y126145D01*
D02*
G37*
G36*
X-273125Y124323D02*
X-273781Y124193D01*
X-274337Y123821D01*
X-274708Y123265D01*
X-274839Y122609D01*
X-274708Y121953D01*
X-274337Y121397D01*
X-273937Y121130D01*
X-273923Y121092D01*
Y120613D01*
X-273937Y120574D01*
X-274337Y120307D01*
X-274708Y119751D01*
X-274839Y119095D01*
X-274708Y118439D01*
X-274337Y117883D01*
X-273781Y117512D01*
X-273125Y117381D01*
X-272469Y117512D01*
X-271913Y117883D01*
X-271541Y118439D01*
X-271411Y119095D01*
X-271541Y119751D01*
X-271913Y120307D01*
X-272313Y120574D01*
X-272326Y120613D01*
Y121092D01*
X-272313Y121130D01*
X-271913Y121397D01*
X-271541Y121953D01*
X-271411Y122609D01*
X-271541Y123265D01*
X-271913Y123821D01*
X-272469Y124193D01*
X-273125Y124323D01*
D02*
G37*
G36*
X-65599Y123223D02*
X-66500Y123104D01*
X-67340Y122756D01*
X-68062Y122203D01*
X-68615Y121481D01*
X-68963Y120642D01*
X-69082Y119740D01*
X-68963Y118839D01*
X-68615Y117999D01*
X-68062Y117278D01*
X-67340Y116724D01*
X-66500Y116376D01*
X-65599Y116258D01*
X-64698Y116376D01*
X-63858Y116724D01*
X-63137Y117278D01*
X-62583Y117999D01*
X-62235Y118839D01*
X-62116Y119740D01*
X-62235Y120642D01*
X-62583Y121481D01*
X-63137Y122203D01*
X-63858Y122756D01*
X-64698Y123104D01*
X-65599Y123223D01*
D02*
G37*
G36*
X-91499D02*
X-92400Y123104D01*
X-93240Y122756D01*
X-93962Y122203D01*
X-94515Y121481D01*
X-94863Y120642D01*
X-94982Y119740D01*
X-94863Y118839D01*
X-94515Y117999D01*
X-93962Y117278D01*
X-93240Y116724D01*
X-92400Y116376D01*
X-91499Y116258D01*
X-90598Y116376D01*
X-89758Y116724D01*
X-89037Y117278D01*
X-88483Y117999D01*
X-88135Y118839D01*
X-88016Y119740D01*
X-88135Y120642D01*
X-88483Y121481D01*
X-89037Y122203D01*
X-89758Y122756D01*
X-90598Y123104D01*
X-91499Y123223D01*
D02*
G37*
G36*
X-471142Y116141D02*
X-471686Y116033D01*
X-472147Y115725D01*
X-472455Y115264D01*
X-472563Y114720D01*
X-472455Y114177D01*
X-472147Y113716D01*
X-471686Y113408D01*
X-471142Y113300D01*
X-470599Y113408D01*
X-470138Y113716D01*
X-469830Y114177D01*
X-469721Y114720D01*
X-469830Y115264D01*
X-470138Y115725D01*
X-470599Y116033D01*
X-471142Y116141D01*
D02*
G37*
G36*
X-448642Y116714D02*
X-449298Y116584D01*
X-449854Y116212D01*
X-450226Y115656D01*
X-450356Y115000D01*
X-450226Y114344D01*
X-449854Y113788D01*
X-449298Y113416D01*
X-448642Y113286D01*
X-447986Y113416D01*
X-447430Y113788D01*
X-447059Y114344D01*
X-446928Y115000D01*
X-447059Y115656D01*
X-447430Y116212D01*
X-447986Y116584D01*
X-448642Y116714D01*
D02*
G37*
G36*
X-55599Y118223D02*
X-56500Y118104D01*
X-57340Y117756D01*
X-58061Y117203D01*
X-58615Y116481D01*
X-58963Y115641D01*
X-59082Y114740D01*
X-58963Y113839D01*
X-58615Y112999D01*
X-58061Y112278D01*
X-57340Y111724D01*
X-56500Y111376D01*
X-55599Y111258D01*
X-54698Y111376D01*
X-53858Y111724D01*
X-53136Y112278D01*
X-52583Y112999D01*
X-52235Y113839D01*
X-52117Y114740D01*
X-52235Y115641D01*
X-52583Y116481D01*
X-53136Y117203D01*
X-53858Y117756D01*
X-54698Y118104D01*
X-55599Y118223D01*
D02*
G37*
G36*
X-81499D02*
X-82400Y118104D01*
X-83240Y117756D01*
X-83961Y117203D01*
X-84515Y116481D01*
X-84863Y115641D01*
X-84982Y114740D01*
X-84863Y113839D01*
X-84515Y112999D01*
X-83961Y112278D01*
X-83240Y111724D01*
X-82400Y111376D01*
X-81499Y111258D01*
X-80598Y111376D01*
X-79758Y111724D01*
X-79036Y112278D01*
X-78483Y112999D01*
X-78135Y113839D01*
X-78017Y114740D01*
X-78135Y115641D01*
X-78483Y116481D01*
X-79036Y117203D01*
X-79758Y117756D01*
X-80598Y118104D01*
X-81499Y118223D01*
D02*
G37*
G36*
X-65599Y113223D02*
X-66500Y113104D01*
X-67340Y112756D01*
X-68062Y112203D01*
X-68615Y111481D01*
X-68963Y110642D01*
X-69082Y109740D01*
X-68963Y108839D01*
X-68615Y107999D01*
X-68062Y107278D01*
X-67340Y106724D01*
X-66500Y106376D01*
X-65599Y106258D01*
X-64698Y106376D01*
X-63858Y106724D01*
X-63137Y107278D01*
X-62583Y107999D01*
X-62235Y108839D01*
X-62116Y109740D01*
X-62235Y110642D01*
X-62583Y111481D01*
X-63137Y112203D01*
X-63858Y112756D01*
X-64698Y113104D01*
X-65599Y113223D01*
D02*
G37*
G36*
X-91499D02*
X-92400Y113104D01*
X-93240Y112756D01*
X-93962Y112203D01*
X-94515Y111481D01*
X-94863Y110642D01*
X-94982Y109740D01*
X-94863Y108839D01*
X-94515Y107999D01*
X-93962Y107278D01*
X-93240Y106724D01*
X-92400Y106376D01*
X-91499Y106258D01*
X-90598Y106376D01*
X-89758Y106724D01*
X-89037Y107278D01*
X-88483Y107999D01*
X-88135Y108839D01*
X-88016Y109740D01*
X-88135Y110642D01*
X-88483Y111481D01*
X-89037Y112203D01*
X-89758Y112756D01*
X-90598Y113104D01*
X-91499Y113223D01*
D02*
G37*
G36*
X-55599Y108223D02*
X-56500Y108104D01*
X-57340Y107756D01*
X-58061Y107203D01*
X-58615Y106481D01*
X-58963Y105641D01*
X-59082Y104740D01*
X-58963Y103839D01*
X-58615Y102999D01*
X-58061Y102278D01*
X-57340Y101724D01*
X-56500Y101376D01*
X-55599Y101258D01*
X-54698Y101376D01*
X-53858Y101724D01*
X-53136Y102278D01*
X-52583Y102999D01*
X-52235Y103839D01*
X-52117Y104740D01*
X-52235Y105641D01*
X-52583Y106481D01*
X-53136Y107203D01*
X-53858Y107756D01*
X-54698Y108104D01*
X-55599Y108223D01*
D02*
G37*
G36*
X-81499D02*
X-82400Y108104D01*
X-83240Y107756D01*
X-83961Y107203D01*
X-84515Y106481D01*
X-84863Y105641D01*
X-84982Y104740D01*
X-84863Y103839D01*
X-84515Y102999D01*
X-83961Y102278D01*
X-83240Y101724D01*
X-82400Y101376D01*
X-81499Y101258D01*
X-80598Y101376D01*
X-79758Y101724D01*
X-79036Y102278D01*
X-78483Y102999D01*
X-78135Y103839D01*
X-78017Y104740D01*
X-78135Y105641D01*
X-78483Y106481D01*
X-79036Y107203D01*
X-79758Y107756D01*
X-80598Y108104D01*
X-81499Y108223D01*
D02*
G37*
G36*
X-444520Y104092D02*
X-445176Y103961D01*
X-445732Y103589D01*
X-446103Y103033D01*
X-446234Y102377D01*
X-446103Y101722D01*
X-445732Y101165D01*
X-445176Y100794D01*
X-444520Y100663D01*
X-444222Y100723D01*
X-443797Y100297D01*
X-443856Y100000D01*
X-443726Y99344D01*
X-443354Y98788D01*
X-442798Y98416D01*
X-442142Y98286D01*
X-441486Y98416D01*
X-440930Y98788D01*
X-440559Y99344D01*
X-440428Y100000D01*
X-440559Y100656D01*
X-440930Y101212D01*
X-441486Y101584D01*
X-442142Y101714D01*
X-442440Y101655D01*
X-442865Y102080D01*
X-442806Y102377D01*
X-442936Y103033D01*
X-443308Y103589D01*
X-443864Y103961D01*
X-444520Y104092D01*
D02*
G37*
G36*
X-65599Y103223D02*
X-66500Y103104D01*
X-67340Y102756D01*
X-68062Y102203D01*
X-68615Y101481D01*
X-68963Y100642D01*
X-69082Y99740D01*
X-68963Y98839D01*
X-68615Y97999D01*
X-68062Y97278D01*
X-67340Y96724D01*
X-66500Y96376D01*
X-65599Y96258D01*
X-64698Y96376D01*
X-63858Y96724D01*
X-63137Y97278D01*
X-62583Y97999D01*
X-62235Y98839D01*
X-62116Y99740D01*
X-62235Y100642D01*
X-62583Y101481D01*
X-63137Y102203D01*
X-63858Y102756D01*
X-64698Y103104D01*
X-65599Y103223D01*
D02*
G37*
G36*
X-91499D02*
X-92400Y103104D01*
X-93240Y102756D01*
X-93962Y102203D01*
X-94515Y101481D01*
X-94863Y100642D01*
X-94982Y99740D01*
X-94863Y98839D01*
X-94515Y97999D01*
X-93962Y97278D01*
X-93240Y96724D01*
X-92400Y96376D01*
X-91499Y96258D01*
X-90598Y96376D01*
X-89758Y96724D01*
X-89037Y97278D01*
X-88483Y97999D01*
X-88135Y98839D01*
X-88016Y99740D01*
X-88135Y100642D01*
X-88483Y101481D01*
X-89037Y102203D01*
X-89758Y102756D01*
X-90598Y103104D01*
X-91499Y103223D01*
D02*
G37*
G36*
X-435520Y99092D02*
X-436176Y98961D01*
X-436732Y98589D01*
X-437103Y98033D01*
X-437234Y97377D01*
X-437103Y96722D01*
X-436732Y96165D01*
X-436176Y95794D01*
X-435520Y95663D01*
X-435222Y95723D01*
X-434797Y95297D01*
X-434856Y95000D01*
X-434726Y94344D01*
X-434354Y93788D01*
X-433798Y93416D01*
X-433142Y93286D01*
X-432486Y93416D01*
X-431930Y93788D01*
X-431559Y94344D01*
X-431428Y95000D01*
X-431559Y95656D01*
X-431930Y96212D01*
X-432486Y96584D01*
X-433142Y96714D01*
X-433440Y96655D01*
X-433865Y97080D01*
X-433806Y97377D01*
X-433936Y98033D01*
X-434308Y98589D01*
X-434864Y98961D01*
X-435520Y99092D01*
D02*
G37*
G36*
X-55599Y98223D02*
X-56500Y98104D01*
X-57340Y97756D01*
X-58061Y97203D01*
X-58615Y96481D01*
X-58963Y95641D01*
X-59082Y94740D01*
X-58963Y93839D01*
X-58615Y92999D01*
X-58061Y92278D01*
X-57340Y91724D01*
X-56500Y91376D01*
X-55599Y91258D01*
X-54698Y91376D01*
X-53858Y91724D01*
X-53136Y92278D01*
X-52583Y92999D01*
X-52235Y93839D01*
X-52117Y94740D01*
X-52235Y95641D01*
X-52583Y96481D01*
X-53136Y97203D01*
X-53858Y97756D01*
X-54698Y98104D01*
X-55599Y98223D01*
D02*
G37*
G36*
X-81499D02*
X-82400Y98104D01*
X-83240Y97756D01*
X-83961Y97203D01*
X-84515Y96481D01*
X-84863Y95641D01*
X-84982Y94740D01*
X-84863Y93839D01*
X-84515Y92999D01*
X-83961Y92278D01*
X-83240Y91724D01*
X-82400Y91376D01*
X-81499Y91258D01*
X-80598Y91376D01*
X-79758Y91724D01*
X-79036Y92278D01*
X-78483Y92999D01*
X-78135Y93839D01*
X-78017Y94740D01*
X-78135Y95641D01*
X-78483Y96481D01*
X-79036Y97203D01*
X-79758Y97756D01*
X-80598Y98104D01*
X-81499Y98223D01*
D02*
G37*
G36*
X-428642Y92714D02*
X-429298Y92584D01*
X-429854Y92212D01*
X-430226Y91656D01*
X-430356Y91000D01*
X-430226Y90344D01*
X-429854Y89788D01*
X-429298Y89416D01*
X-428642Y89286D01*
X-428345Y89345D01*
X-427920Y88920D01*
X-427979Y88623D01*
X-427848Y87967D01*
X-427477Y87411D01*
X-426921Y87039D01*
X-426265Y86909D01*
X-425609Y87039D01*
X-425053Y87411D01*
X-424681Y87967D01*
X-424551Y88623D01*
X-424681Y89279D01*
X-425053Y89835D01*
X-425609Y90206D01*
X-426265Y90337D01*
X-426562Y90277D01*
X-426987Y90703D01*
X-426928Y91000D01*
X-427059Y91656D01*
X-427430Y92212D01*
X-427986Y92584D01*
X-428642Y92714D01*
D02*
G37*
G36*
X-421142Y89214D02*
X-421798Y89084D01*
X-422354Y88712D01*
X-422726Y88156D01*
X-422856Y87500D01*
X-422726Y86844D01*
X-422354Y86288D01*
X-421798Y85916D01*
X-421142Y85786D01*
X-420845Y85845D01*
X-420420Y85420D01*
X-420479Y85123D01*
X-420348Y84467D01*
X-419977Y83911D01*
X-419421Y83539D01*
X-418765Y83408D01*
X-418109Y83539D01*
X-417553Y83911D01*
X-417181Y84467D01*
X-417051Y85123D01*
X-417181Y85778D01*
X-417553Y86335D01*
X-418109Y86706D01*
X-418765Y86837D01*
X-419062Y86778D01*
X-419487Y87203D01*
X-419428Y87500D01*
X-419559Y88156D01*
X-419930Y88712D01*
X-420486Y89084D01*
X-421142Y89214D01*
D02*
G37*
G36*
X-30599Y97075D02*
X-32030Y96934D01*
X-33406Y96516D01*
X-34674Y95839D01*
X-35785Y94927D01*
X-36697Y93815D01*
X-37375Y92547D01*
X-37793Y91171D01*
X-37933Y89740D01*
X-37793Y88309D01*
X-37375Y86933D01*
X-36697Y85665D01*
X-35785Y84554D01*
X-34674Y83642D01*
X-33406Y82964D01*
X-32030Y82547D01*
X-30599Y82406D01*
X-29168Y82547D01*
X-27792Y82964D01*
X-26524Y83642D01*
X-25413Y84554D01*
X-24501Y85665D01*
X-23823Y86933D01*
X-23405Y88309D01*
X-23265Y89740D01*
X-23405Y91171D01*
X-23823Y92547D01*
X-24501Y93815D01*
X-25413Y94927D01*
X-26524Y95839D01*
X-27792Y96516D01*
X-29168Y96934D01*
X-30599Y97075D01*
D02*
G37*
G36*
X-274125Y87877D02*
X-274781Y87746D01*
X-275337Y87375D01*
X-275708Y86818D01*
X-275839Y86163D01*
X-275708Y85507D01*
X-275337Y84951D01*
X-274937Y84683D01*
X-274923Y84645D01*
Y84166D01*
X-274937Y84128D01*
X-275337Y83860D01*
X-275708Y83304D01*
X-275839Y82648D01*
X-275708Y81992D01*
X-275337Y81436D01*
X-274781Y81065D01*
X-274125Y80934D01*
X-273469Y81065D01*
X-272913Y81436D01*
X-272541Y81992D01*
X-272411Y82648D01*
X-272541Y83304D01*
X-272913Y83860D01*
X-273313Y84128D01*
X-273326Y84166D01*
Y84645D01*
X-273313Y84683D01*
X-272913Y84951D01*
X-272541Y85507D01*
X-272411Y86163D01*
X-272541Y86818D01*
X-272913Y87375D01*
X-273469Y87746D01*
X-274125Y87877D01*
D02*
G37*
G36*
X-470142Y83934D02*
X-470798Y83804D01*
X-471354Y83433D01*
X-471726Y82876D01*
X-471856Y82221D01*
X-471726Y81564D01*
X-471354Y81008D01*
X-470798Y80637D01*
X-470142Y80506D01*
X-469486Y80637D01*
X-468930Y81008D01*
X-468559Y81564D01*
X-468428Y82221D01*
X-468559Y82876D01*
X-468930Y83433D01*
X-469486Y83804D01*
X-470142Y83934D01*
D02*
G37*
G36*
X-162537Y80946D02*
X-163081Y80838D01*
X-163542Y80530D01*
X-163850Y80069D01*
X-163958Y79525D01*
X-163850Y78981D01*
X-163542Y78520D01*
X-163081Y78212D01*
X-162537Y78104D01*
X-161993Y78212D01*
X-161532Y78520D01*
X-161224Y78981D01*
X-161116Y79525D01*
X-161224Y80069D01*
X-161532Y80530D01*
X-161993Y80838D01*
X-162537Y80946D01*
D02*
G37*
G36*
X-316537D02*
X-317081Y80838D01*
X-317542Y80530D01*
X-317850Y80069D01*
X-317958Y79525D01*
X-317850Y78981D01*
X-317542Y78520D01*
X-317081Y78212D01*
X-316537Y78104D01*
X-315993Y78212D01*
X-315532Y78520D01*
X-315224Y78981D01*
X-315116Y79525D01*
X-315224Y80069D01*
X-315532Y80530D01*
X-315993Y80838D01*
X-316537Y80946D01*
D02*
G37*
G36*
X-203996Y80876D02*
X-204540Y80768D01*
X-205001Y80460D01*
X-205309Y79999D01*
X-205417Y79455D01*
X-205309Y78911D01*
X-205001Y78450D01*
X-204540Y78142D01*
X-203996Y78034D01*
X-203452Y78142D01*
X-202991Y78450D01*
X-202683Y78911D01*
X-202575Y79455D01*
X-202683Y79999D01*
X-202991Y80460D01*
X-203452Y80768D01*
X-203996Y80876D01*
D02*
G37*
G36*
X-357996D02*
X-358540Y80768D01*
X-359001Y80460D01*
X-359309Y79999D01*
X-359417Y79455D01*
X-359309Y78911D01*
X-359001Y78450D01*
X-358540Y78142D01*
X-357996Y78034D01*
X-357452Y78142D01*
X-356991Y78450D01*
X-356683Y78911D01*
X-356575Y79455D01*
X-356683Y79999D01*
X-356991Y80460D01*
X-357452Y80768D01*
X-357996Y80876D01*
D02*
G37*
G36*
X-66599Y86610D02*
X-67963Y86430D01*
X-69234Y85904D01*
X-70325Y85066D01*
X-71162Y83975D01*
X-71689Y82704D01*
X-71868Y81340D01*
X-71689Y79976D01*
X-71162Y78705D01*
X-70325Y77614D01*
X-69234Y76777D01*
X-67963Y76250D01*
X-66599Y76071D01*
X-65235Y76250D01*
X-63964Y76777D01*
X-62873Y77614D01*
X-62036Y78705D01*
X-61509Y79976D01*
X-61330Y81340D01*
X-61509Y82704D01*
X-62036Y83975D01*
X-62873Y85066D01*
X-63964Y85904D01*
X-65235Y86430D01*
X-66599Y86610D01*
D02*
G37*
G36*
X-12599Y84010D02*
X-13963Y83830D01*
X-15234Y83304D01*
X-16325Y82466D01*
X-17163Y81375D01*
X-17689Y80104D01*
X-17868Y78740D01*
X-17689Y77376D01*
X-17163Y76105D01*
X-16325Y75014D01*
X-15234Y74177D01*
X-13963Y73650D01*
X-12599Y73471D01*
X-11235Y73650D01*
X-9964Y74177D01*
X-8873Y75014D01*
X-8036Y76105D01*
X-7509Y77376D01*
X-7329Y78740D01*
X-7509Y80104D01*
X-8036Y81375D01*
X-8873Y82466D01*
X-9964Y83304D01*
X-11235Y83830D01*
X-12599Y84010D01*
D02*
G37*
G36*
X-91499D02*
X-92863Y83830D01*
X-94134Y83304D01*
X-95225Y82466D01*
X-96062Y81375D01*
X-96589Y80104D01*
X-96768Y78740D01*
X-96589Y77376D01*
X-96062Y76105D01*
X-95225Y75014D01*
X-94134Y74177D01*
X-92863Y73650D01*
X-91499Y73471D01*
X-90135Y73650D01*
X-88864Y74177D01*
X-87773Y75014D01*
X-86936Y76105D01*
X-86409Y77376D01*
X-86229Y78740D01*
X-86409Y80104D01*
X-86936Y81375D01*
X-87773Y82466D01*
X-88864Y83304D01*
X-90135Y83830D01*
X-91499Y84010D01*
D02*
G37*
G36*
X-162601Y70627D02*
X-163145Y70519D01*
X-163606Y70211D01*
X-163914Y69750D01*
X-164022Y69206D01*
X-163914Y68662D01*
X-163606Y68201D01*
X-163145Y67893D01*
X-162601Y67785D01*
X-162057Y67893D01*
X-161596Y68201D01*
X-161288Y68662D01*
X-161180Y69206D01*
X-161288Y69750D01*
X-161596Y70211D01*
X-162057Y70519D01*
X-162601Y70627D01*
D02*
G37*
G36*
X-203950D02*
X-204494Y70519D01*
X-204955Y70211D01*
X-205263Y69750D01*
X-205371Y69206D01*
X-205263Y68662D01*
X-204955Y68201D01*
X-204494Y67893D01*
X-203950Y67785D01*
X-203406Y67893D01*
X-202945Y68201D01*
X-202637Y68662D01*
X-202529Y69206D01*
X-202637Y69750D01*
X-202945Y70211D01*
X-203406Y70519D01*
X-203950Y70627D01*
D02*
G37*
G36*
X-316601D02*
X-317145Y70519D01*
X-317606Y70211D01*
X-317914Y69750D01*
X-318022Y69206D01*
X-317914Y68662D01*
X-317606Y68201D01*
X-317145Y67893D01*
X-316601Y67785D01*
X-316057Y67893D01*
X-315596Y68201D01*
X-315288Y68662D01*
X-315180Y69206D01*
X-315288Y69750D01*
X-315596Y70211D01*
X-316057Y70519D01*
X-316601Y70627D01*
D02*
G37*
G36*
X-357950D02*
X-358494Y70519D01*
X-358955Y70211D01*
X-359263Y69750D01*
X-359371Y69206D01*
X-359263Y68662D01*
X-358955Y68201D01*
X-358494Y67893D01*
X-357950Y67785D01*
X-357406Y67893D01*
X-356945Y68201D01*
X-356637Y68662D01*
X-356529Y69206D01*
X-356637Y69750D01*
X-356945Y70211D01*
X-357406Y70519D01*
X-357950Y70627D01*
D02*
G37*
G36*
X-274125Y69877D02*
X-274781Y69746D01*
X-275337Y69375D01*
X-275708Y68818D01*
X-275839Y68163D01*
X-275708Y67507D01*
X-275337Y66951D01*
X-274937Y66683D01*
X-274923Y66645D01*
Y66166D01*
X-274937Y66128D01*
X-275337Y65860D01*
X-275708Y65304D01*
X-275839Y64648D01*
X-275708Y63992D01*
X-275337Y63436D01*
X-274781Y63065D01*
X-274125Y62934D01*
X-273469Y63065D01*
X-272913Y63436D01*
X-272541Y63992D01*
X-272411Y64648D01*
X-272541Y65304D01*
X-272913Y65860D01*
X-273313Y66128D01*
X-273326Y66166D01*
Y66645D01*
X-273313Y66683D01*
X-272913Y66951D01*
X-272541Y67507D01*
X-272411Y68163D01*
X-272541Y68818D01*
X-272913Y69375D01*
X-273469Y69746D01*
X-274125Y69877D01*
D02*
G37*
G36*
X-162602Y60784D02*
X-163146Y60676D01*
X-163607Y60368D01*
X-163915Y59907D01*
X-164023Y59363D01*
X-163915Y58820D01*
X-163607Y58359D01*
X-163146Y58051D01*
X-162602Y57942D01*
X-162058Y58051D01*
X-161598Y58359D01*
X-161290Y58820D01*
X-161181Y59363D01*
X-161290Y59907D01*
X-161598Y60368D01*
X-162058Y60676D01*
X-162602Y60784D01*
D02*
G37*
G36*
X-203948D02*
X-204492Y60676D01*
X-204953Y60368D01*
X-205261Y59907D01*
X-205369Y59363D01*
X-205261Y58820D01*
X-204953Y58359D01*
X-204492Y58051D01*
X-203948Y57942D01*
X-203405Y58051D01*
X-202944Y58359D01*
X-202636Y58820D01*
X-202527Y59363D01*
X-202636Y59907D01*
X-202944Y60368D01*
X-203405Y60676D01*
X-203948Y60784D01*
D02*
G37*
G36*
X-316602D02*
X-317146Y60676D01*
X-317607Y60368D01*
X-317915Y59907D01*
X-318023Y59363D01*
X-317915Y58820D01*
X-317607Y58359D01*
X-317146Y58051D01*
X-316602Y57942D01*
X-316058Y58051D01*
X-315598Y58359D01*
X-315289Y58820D01*
X-315181Y59363D01*
X-315289Y59907D01*
X-315598Y60368D01*
X-316058Y60676D01*
X-316602Y60784D01*
D02*
G37*
G36*
X-357948D02*
X-358492Y60676D01*
X-358953Y60368D01*
X-359261Y59907D01*
X-359369Y59363D01*
X-359261Y58820D01*
X-358953Y58359D01*
X-358492Y58051D01*
X-357948Y57942D01*
X-357405Y58051D01*
X-356944Y58359D01*
X-356636Y58820D01*
X-356527Y59363D01*
X-356636Y59907D01*
X-356944Y60368D01*
X-357405Y60676D01*
X-357948Y60784D01*
D02*
G37*
G36*
X-162603Y50942D02*
X-163147Y50834D01*
X-163608Y50526D01*
X-163916Y50065D01*
X-164024Y49521D01*
X-163916Y48977D01*
X-163608Y48516D01*
X-163147Y48208D01*
X-162603Y48100D01*
X-162059Y48208D01*
X-161598Y48516D01*
X-161290Y48977D01*
X-161182Y49521D01*
X-161290Y50065D01*
X-161598Y50526D01*
X-162059Y50834D01*
X-162603Y50942D01*
D02*
G37*
G36*
X-203948D02*
X-204492Y50834D01*
X-204953Y50526D01*
X-205261Y50065D01*
X-205369Y49521D01*
X-205261Y48977D01*
X-204953Y48516D01*
X-204492Y48208D01*
X-203948Y48100D01*
X-203404Y48208D01*
X-202943Y48516D01*
X-202635Y48977D01*
X-202527Y49521D01*
X-202635Y50065D01*
X-202943Y50526D01*
X-203404Y50834D01*
X-203948Y50942D01*
D02*
G37*
G36*
X-316603D02*
X-317147Y50834D01*
X-317608Y50526D01*
X-317916Y50065D01*
X-318024Y49521D01*
X-317916Y48977D01*
X-317608Y48516D01*
X-317147Y48208D01*
X-316603Y48100D01*
X-316059Y48208D01*
X-315598Y48516D01*
X-315290Y48977D01*
X-315182Y49521D01*
X-315290Y50065D01*
X-315598Y50526D01*
X-316059Y50834D01*
X-316603Y50942D01*
D02*
G37*
G36*
X-357948D02*
X-358492Y50834D01*
X-358953Y50526D01*
X-359261Y50065D01*
X-359369Y49521D01*
X-359261Y48977D01*
X-358953Y48516D01*
X-358492Y48208D01*
X-357948Y48100D01*
X-357404Y48208D01*
X-356943Y48516D01*
X-356635Y48977D01*
X-356527Y49521D01*
X-356635Y50065D01*
X-356943Y50526D01*
X-357404Y50834D01*
X-357948Y50942D01*
D02*
G37*
G36*
X-274125Y51877D02*
X-274781Y51746D01*
X-275337Y51375D01*
X-275708Y50819D01*
X-275839Y50163D01*
X-275708Y49507D01*
X-275337Y48951D01*
X-274937Y48683D01*
X-274923Y48645D01*
Y48166D01*
X-274937Y48128D01*
X-275337Y47860D01*
X-275708Y47304D01*
X-275839Y46648D01*
X-275708Y45992D01*
X-275337Y45436D01*
X-274781Y45065D01*
X-274125Y44934D01*
X-273469Y45065D01*
X-272913Y45436D01*
X-272541Y45992D01*
X-272411Y46648D01*
X-272541Y47304D01*
X-272913Y47860D01*
X-273313Y48128D01*
X-273326Y48166D01*
Y48645D01*
X-273313Y48683D01*
X-272913Y48951D01*
X-272541Y49507D01*
X-272411Y50163D01*
X-272541Y50819D01*
X-272913Y51375D01*
X-273469Y51746D01*
X-274125Y51877D01*
D02*
G37*
G36*
Y33877D02*
X-274781Y33746D01*
X-275337Y33375D01*
X-275708Y32818D01*
X-275839Y32163D01*
X-275708Y31507D01*
X-275337Y30951D01*
X-274937Y30683D01*
X-274923Y30645D01*
Y30166D01*
X-274937Y30128D01*
X-275337Y29860D01*
X-275708Y29304D01*
X-275839Y28648D01*
X-275708Y27992D01*
X-275337Y27436D01*
X-274781Y27065D01*
X-274125Y26934D01*
X-273469Y27065D01*
X-272913Y27436D01*
X-272541Y27992D01*
X-272411Y28648D01*
X-272541Y29304D01*
X-272913Y29860D01*
X-273313Y30128D01*
X-273326Y30166D01*
Y30645D01*
X-273313Y30683D01*
X-272913Y30951D01*
X-272541Y31507D01*
X-272411Y32163D01*
X-272541Y32818D01*
X-272913Y33375D01*
X-273469Y33746D01*
X-274125Y33877D01*
D02*
G37*
%LPD*%
D75*
X-446571Y336653D02*
D03*
X-441847D02*
D03*
X-437123D02*
D03*
Y331929D02*
D03*
X-446571D02*
D03*
Y327205D02*
D03*
X-441886Y327165D02*
D03*
X-437162D02*
D03*
Y246386D02*
D03*
X-441886D02*
D03*
X-446571Y246425D02*
D03*
Y251150D02*
D03*
X-437123D02*
D03*
Y255874D02*
D03*
X-441847D02*
D03*
X-446571D02*
D03*
Y170874D02*
D03*
X-441847D02*
D03*
X-437123D02*
D03*
Y166150D02*
D03*
X-446571D02*
D03*
Y161425D02*
D03*
X-441886Y161386D02*
D03*
X-437162D02*
D03*
Y77386D02*
D03*
X-441886D02*
D03*
X-446571Y77425D02*
D03*
Y82150D02*
D03*
X-437123D02*
D03*
Y86874D02*
D03*
X-441847D02*
D03*
X-446571D02*
D03*
D79*
X-520142Y285000D02*
D03*
X-504142Y376000D02*
D03*
D85*
X-441847Y331929D02*
D03*
Y251150D02*
D03*
Y166150D02*
D03*
Y82150D02*
D03*
D86*
X-606694Y68110D02*
D03*
X-231201Y370374D02*
D03*
X-231595Y279232D02*
D03*
Y179724D02*
D03*
X-228839Y96653D02*
D03*
X-386221Y89764D02*
D03*
X-384351Y180709D02*
D03*
X-376280Y279331D02*
D03*
X-376182Y370276D02*
D03*
X-561615Y166929D02*
D03*
X-451575Y340551D02*
D03*
X-454858Y335342D02*
D03*
X-451575Y259842D02*
D03*
X-454776Y254480D02*
D03*
X-451575Y90551D02*
D03*
X-454776Y85480D02*
D03*
Y169480D02*
D03*
X-621642Y61000D02*
D03*
X-606406Y80931D02*
D03*
X-361743Y170742D02*
D03*
X-364243Y158742D02*
D03*
X-363743Y148742D02*
D03*
X-363688Y137276D02*
D03*
X-309781Y169780D02*
D03*
X-308743Y158742D02*
D03*
Y147742D02*
D03*
Y137742D02*
D03*
X-351489Y158742D02*
D03*
Y148742D02*
D03*
Y139242D02*
D03*
X-351743Y130125D02*
D03*
X-329509Y157667D02*
D03*
X-329743Y147742D02*
D03*
X-329540Y137982D02*
D03*
X-208690Y170295D02*
D03*
X-211190Y158295D02*
D03*
X-210690Y148295D02*
D03*
X-210635Y136829D02*
D03*
X-156728Y169334D02*
D03*
X-155690Y158295D02*
D03*
Y147295D02*
D03*
Y137295D02*
D03*
X-198436Y158295D02*
D03*
Y148295D02*
D03*
Y138795D02*
D03*
X-198690Y129678D02*
D03*
X-176456Y157220D02*
D03*
X-176690Y147295D02*
D03*
X-176487Y137535D02*
D03*
X-362690Y80295D02*
D03*
X-365190Y68295D02*
D03*
X-364690Y58295D02*
D03*
X-364635Y46830D02*
D03*
X-310728Y79334D02*
D03*
X-309690Y68295D02*
D03*
Y57295D02*
D03*
Y47295D02*
D03*
X-352436Y68295D02*
D03*
Y58295D02*
D03*
Y48795D02*
D03*
X-352690Y39678D02*
D03*
X-330456Y67220D02*
D03*
X-330690Y57295D02*
D03*
X-330487Y47535D02*
D03*
X-362186Y269949D02*
D03*
X-364686Y257949D02*
D03*
X-364186Y247949D02*
D03*
X-364131Y236483D02*
D03*
X-310224Y268987D02*
D03*
X-309186Y257949D02*
D03*
Y246949D02*
D03*
Y236949D02*
D03*
X-351932Y257949D02*
D03*
Y247949D02*
D03*
Y238449D02*
D03*
X-352186Y229332D02*
D03*
X-329952Y256874D02*
D03*
X-330186Y246949D02*
D03*
X-329983Y237189D02*
D03*
X-362186Y360500D02*
D03*
X-364686Y348500D02*
D03*
X-364186Y338500D02*
D03*
X-364131Y327034D02*
D03*
X-310224Y359538D02*
D03*
X-309186Y348500D02*
D03*
Y337500D02*
D03*
Y327500D02*
D03*
X-351932Y348500D02*
D03*
Y338500D02*
D03*
Y329000D02*
D03*
X-352186Y319883D02*
D03*
X-329952Y347425D02*
D03*
X-330186Y337500D02*
D03*
X-329983Y327740D02*
D03*
X-208690Y80295D02*
D03*
X-211190Y68295D02*
D03*
X-210690Y58295D02*
D03*
X-210635Y46830D02*
D03*
X-156728Y79334D02*
D03*
X-155690Y68295D02*
D03*
Y57295D02*
D03*
Y47295D02*
D03*
X-198436Y68295D02*
D03*
Y58295D02*
D03*
Y48795D02*
D03*
X-198690Y39678D02*
D03*
X-176456Y67220D02*
D03*
X-176690Y57295D02*
D03*
X-176487Y47535D02*
D03*
X-208642Y269949D02*
D03*
X-211142Y257949D02*
D03*
X-210642Y247949D02*
D03*
X-210588Y236483D02*
D03*
X-156681Y268987D02*
D03*
X-155642Y257949D02*
D03*
Y246949D02*
D03*
Y236949D02*
D03*
X-198389Y257949D02*
D03*
Y247949D02*
D03*
Y238449D02*
D03*
X-198642Y229332D02*
D03*
X-176409Y256874D02*
D03*
X-176642Y246949D02*
D03*
X-176440Y237189D02*
D03*
X-155642Y327500D02*
D03*
Y337500D02*
D03*
Y348500D02*
D03*
X-156681Y359538D02*
D03*
X-176440Y327740D02*
D03*
X-176642Y337500D02*
D03*
X-176409Y347425D02*
D03*
X-210588Y327034D02*
D03*
X-210642Y338500D02*
D03*
X-211142Y348500D02*
D03*
X-208642Y360500D02*
D03*
X-198642Y319883D02*
D03*
X-198389Y348500D02*
D03*
Y338500D02*
D03*
Y329000D02*
D03*
X-469642Y102720D02*
D03*
X-464142Y117720D02*
D03*
X-455642Y62721D02*
D03*
X-460142Y107220D02*
D03*
X-469642Y186721D02*
D03*
X-464142Y201720D02*
D03*
X-455642Y146721D02*
D03*
X-460142Y191220D02*
D03*
X-469642Y271721D02*
D03*
X-464142Y286720D02*
D03*
X-455642Y231720D02*
D03*
X-460142Y276220D02*
D03*
X-455642Y312500D02*
D03*
X-464142Y367500D02*
D03*
X-460142Y357000D02*
D03*
X-469642Y352500D02*
D03*
D87*
X-451575Y175197D02*
D03*
X-556642Y71000D02*
D03*
X-573642Y76000D02*
D03*
X-559142Y227000D02*
D03*
X-582142D02*
D03*
X-605142D02*
D03*
X-597642Y191500D02*
D03*
X-574142D02*
D03*
X-551142D02*
D03*
X-574642Y151500D02*
D03*
X-589142Y143500D02*
D03*
X-25642Y47890D02*
D03*
X-450318Y319731D02*
D03*
X-450176Y239052D02*
D03*
Y154052D02*
D03*
Y70052D02*
D03*
X-383243Y115242D02*
D03*
X-383743Y130742D02*
D03*
Y147742D02*
D03*
Y164242D02*
D03*
X-230190Y114795D02*
D03*
X-230690Y130295D02*
D03*
Y147295D02*
D03*
Y163795D02*
D03*
X-384190Y24795D02*
D03*
X-384690Y40295D02*
D03*
Y57295D02*
D03*
Y73795D02*
D03*
X-383686Y214449D02*
D03*
X-384186Y229949D02*
D03*
Y246949D02*
D03*
Y263449D02*
D03*
X-383686Y305000D02*
D03*
X-384186Y320500D02*
D03*
Y337500D02*
D03*
Y354000D02*
D03*
X-230190Y24795D02*
D03*
X-230690Y40295D02*
D03*
Y57295D02*
D03*
Y73795D02*
D03*
X-230142Y214449D02*
D03*
X-230642Y229949D02*
D03*
Y246949D02*
D03*
Y263449D02*
D03*
X-230142Y305000D02*
D03*
X-230642Y320500D02*
D03*
Y337500D02*
D03*
Y354000D02*
D03*
X-475142Y69221D02*
D03*
Y81221D02*
D03*
X-462792Y89720D02*
D03*
X-475142Y153220D02*
D03*
Y165220D02*
D03*
X-462792Y173721D02*
D03*
X-475142Y238221D02*
D03*
Y250220D02*
D03*
X-462792Y258720D02*
D03*
Y339500D02*
D03*
X-475142Y319000D02*
D03*
Y331000D02*
D03*
X-508142Y345000D02*
D03*
X-503142D02*
D03*
X-500142Y349000D02*
D03*
Y355000D02*
D03*
X-503142Y359000D02*
D03*
X-508142D02*
D03*
Y303000D02*
D03*
X-503142D02*
D03*
X-500142Y307000D02*
D03*
Y313000D02*
D03*
X-503142Y317000D02*
D03*
X-508142D02*
D03*
M02*
