M48
;Layer_Color=9474304
;FILE_FORMAT=2:5
INCH,TZ
;TYPE=PLATED
T1F00S00C0.00787
T2F00S00C0.01181
T3F00S00C0.02559
T4F00S00C0.02756
T5F00S00C0.03150
T6F00S00C0.03543
T7F00S00C0.04000
T8F00S00C0.06299
T9F00S00C0.06299
;TYPE=NON_PLATED
T10F00S00C0.11811
T11F00S00C0.12598
%
T01
X-621642Y61000
X-621544Y71357
X-606694Y68110
X-606406Y80931
X-601743Y86899
X-599521Y102000
X-609164Y101187
X-619000Y101000
X-595909Y116091
X-583500Y117114
X-580236Y117813
X-471142Y114720
X-464142Y117720
X-460142Y107220
X-469642Y102720
X-451575Y90551
X-454776Y85480
X-455642Y62721
X-448642Y55221
Y139220
X-455642Y146721
X-363743Y148742
X-357001Y149810
X-357001Y139968
X-363688Y137276
X-362690Y80295
X-357996Y79455
X-357950Y69206
X-365190Y68295
X-364690Y58295
X-357948Y59363
X-357948Y49521
X-364635Y46830
X-386221Y89764
X-352436Y68295
Y58295
Y48795
X-352690Y39678
X-330487Y47535
X-330690Y57295
X-330456Y67220
X-316601Y69206
X-309690Y68295
Y57295
X-316602Y59363
X-316603Y49521
X-309690Y47295
X-310728Y79334
X-316537Y79525
X-315656Y139968
X-308743Y137742
Y147742
X-315655Y149810
X-329743Y147742
X-329540Y137982
X-351489Y139242
X-351743Y130125
X-351489Y148742
X-210690Y148295
X-203948Y149363
X-198436Y148295
Y138795
X-203948Y139521
X-210635Y136829
X-198690Y129678
X-203996Y79455
X-208690Y80295
X-211190Y68295
X-203950Y69206
X-198436Y68295
Y58295
X-203948Y59363
X-210690Y58295
X-210635Y46830
X-203948Y49521
X-198436Y48795
X-198690Y39678
X-228839Y96653
X-176456Y67220
X-176690Y57295
X-176487Y47535
X-162603Y49521
X-155690Y47295
Y57295
X-162602Y59363
X-162601Y69206
X-155690Y68295
X-156728Y79334
X-162537Y79525
X-162603Y139521
X-155690Y137295
Y147295
X-162602Y149363
X-176690Y147295
X-176487Y137535
X-176456Y157220
X-162601Y159206
X-155690Y158295
X-156728Y169334
X-162537Y169525
X-162556Y239174
X-155642Y236949
Y246949
X-162555Y249017
X-162554Y258859
X-155642Y257949
X-156681Y268987
X-162490Y269179
X-176409Y256874
X-176642Y246949
X-176440Y237189
X-198389Y238449
X-203901Y239174
X-210588Y236483
X-210642Y247949
X-203901Y249017
X-198389Y247949
Y257949
X-203903Y258859
X-211142Y257949
X-208642Y269949
X-203949Y269109
X-231595Y279232
X-198642Y229332
X-203996Y169455
X-208690Y170295
X-211190Y158295
X-203950Y159206
X-198436Y158295
X-231595Y179724
X-309781Y169780
X-315590Y169972
X-315654Y159653
X-308743Y158742
X-329509Y157667
X-351489Y158742
X-352186Y229332
X-351932Y238449
Y247949
Y257949
X-329952Y256874
X-330186Y246949
X-329983Y237189
X-316099Y239174
X-309186Y236949
Y246949
X-316098Y249017
X-316097Y258859
X-309186Y257949
X-310224Y268987
X-316033Y269179
X-357492Y269109
X-362186Y269949
X-364686Y257949
X-357446Y258859
X-357445Y249017
X-364186Y247949
X-364131Y236483
X-357444Y239174
X-376280Y279331
X-460142Y276220
X-469642Y271721
X-471142Y283720
X-464142Y286720
X-448642Y305000
X-451575Y259842
X-454776Y254480
X-455642Y231720
X-448642Y224220
X-464142Y201720
X-471142Y198721
X-469642Y186721
X-460142Y191220
X-454776Y169480
X-384351Y180709
X-361743Y170742
X-357049Y169902
X-357003Y159653
X-364243Y158742
X-561615Y166929
X-582969Y307724
Y312055
X-587300
Y307724
X-591631
Y312055
X-455642Y312500
X-454858Y335342
X-451575Y340551
X-460142Y357000
X-469642Y352500
X-471142Y364500
X-464142Y367500
X-376182Y370276
X-362186Y360500
X-357492Y359660
X-357446Y349411
X-364686Y348500
X-364186Y338500
X-357445Y339568
X-357444Y329726
X-364131Y327034
X-351932Y329000
X-352186Y319883
X-351932Y338500
Y348500
X-329952Y347425
X-330186Y337500
X-329983Y327740
X-316099Y329726
X-309186Y327500
Y337500
X-316098Y339568
X-316097Y349411
X-309186Y348500
X-310224Y359538
X-316033Y359730
X-231201Y370374
X-208642Y360500
X-203949Y359660
X-203903Y349411
X-198389Y348500
Y338500
X-203901Y339568
X-210642Y338500
X-211142Y348500
X-210588Y327034
X-203901Y329726
X-198389Y329000
X-198642Y319883
X-176440Y327740
X-176642Y337500
X-176409Y347425
X-162554Y349411
X-155642Y348500
Y337500
X-162555Y339568
X-162556Y329726
X-155642Y327500
X-156681Y359538
X-162490Y359730
T02
X-624642Y81500
X-597890Y76268
X-581642Y69000
X-573642Y76000
X-556642Y71000
X-574642Y151500
X-589039Y153901
X-589142Y143500
X-475142Y153220
X-463642Y156000
X-455142
X-450176Y154052
X-458142Y151000
X-448642Y115000
X-444520Y102377
X-442142Y100000
X-435520Y97377
X-433142Y95000
X-428642Y91000
X-426265Y88623
X-421142Y87500
X-418765Y85123
X-437123Y86874
Y82150
X-437162Y77386
X-441886
X-446571Y77425
Y82150
Y86874
X-441847
X-462792Y89720
X-470142Y82221
X-475142Y81221
Y69221
X-464142Y72000
X-455142
X-450176Y70052
X-458642Y68000
X-451142Y46000
X-384690Y40295
X-384190Y24795
X-384690Y57295
Y73795
X-383243Y115242
X-383743Y130742
Y147742
X-500142Y74500
X-274125Y68163
Y64648
Y50163
Y46648
Y32163
Y28648
X-230190Y24795
X-230690Y40295
Y57295
Y73795
X-230190Y114795
X-230690Y130295
X-241142Y124431
Y121069
Y137327
Y140689
Y154069
X-230690Y147295
X-273125Y140610
Y137095
Y122609
Y119095
X-274125Y86163
Y82648
X-273125Y155095
X-117125Y154648
X-115765Y120377
X-118142Y118000
X-25642Y47890
X-117125Y158163
X-108125Y308853
Y312367
X-230142Y305000
X-230642Y263449
X-240642Y257085
Y253722
X-241142Y240342
Y236980
Y224085
Y220722
X-230142Y214449
X-230642Y229949
Y246949
X-241142Y269512
Y272874
X-273625Y272302
Y275816
X-273125Y257816
Y254302
Y239816
Y236302
Y221816
Y218302
Y176610
Y173095
Y158609
X-241142Y157431
X-241642Y169858
Y173221
X-230690Y163795
X-274125Y308853
Y312367
X-383686Y305000
X-384186Y263449
Y246949
Y229949
X-383686Y214449
X-383743Y164242
X-437123Y166150
Y170874
X-441847
X-446571
Y166150
Y161425
X-441886Y161386
X-437162
X-451575Y175197
X-462792Y173721
X-470142Y166220
X-475142Y165220
X-450142Y202000
X-450176Y239052
X-454642Y241000
X-458642Y236500
X-463642Y241000
X-475142Y238221
Y250220
X-470142Y251220
X-462792Y258720
X-446571Y255874
Y251150
Y246425
X-441886Y246386
X-437162
X-437123Y251150
Y255874
X-441847
X-451142Y287000
X-446642Y302000
X-437020Y297623
X-434642Y300000
X-434520Y304623
X-432142Y307000
X-500142
X-503142Y303000
X-508142
X-525142Y304000
Y299000
X-531142
X-537142
Y304000
X-547142Y306150
X-591941Y294250
X-586142Y285000
X-613642Y280000
X-641642Y286000
X-605142Y227000
X-607642Y219500
X-604879Y209736
X-599642Y206500
X-602142Y196500
X-597642Y191500
X-603642Y175500
X-580642
X-570056Y171500
X-557642Y175500
X-556642Y196500
X-557142Y200000
X-558642Y208500
X-561642Y220000
X-559142Y227000
X-552142Y223000
X-575557Y223239
X-582142Y227000
X-584642Y219500
X-581642Y208500
X-578642Y202000
X-579642Y196500
X-574142Y191500
X-551142
X-598557Y223239
X-563142Y319000
X-517142Y329000
X-512142
Y335000
Y341000
X-517142
X-508142Y345000
X-503142
X-500142Y349000
Y355000
X-503142Y359000
X-508142
Y317000
X-503142
X-500142Y313000
X-475142Y319000
Y331000
X-470142Y332000
X-462792Y339500
X-462142Y322000
X-454686Y322043
X-450318Y319731
X-458142Y317500
X-446571Y327205
Y331929
Y336653
X-441847
X-437123
Y331929
X-437162Y327165
X-441886
X-422765Y323377
X-425142Y321000
X-417142Y322000
X-414765Y324377
X-384186Y320500
Y337500
Y354000
X-273625Y348367
Y344853
X-274125Y330367
Y326853
X-273623Y362826
Y366394
X-230642Y354000
Y337500
Y320500
X-111142Y341000
X-108765Y343377
T03
X-616756Y106757
X-611757
X-606756
X-601756
X-596757
X-591756
X-586757
X-581756
Y111757
X-586757
X-591756
X-596757
X-601756
X-606756
X-611757
X-616756
T04
X-441847Y82150
Y166150
Y251150
Y331929
T05
X-582182Y363039
X-572339
X-549505Y354969
Y345126
T06
X-91499Y99740
Y109740
Y119740
Y129740
X-81499Y124740
Y114740
Y104740
Y94740
X-65599Y99740
Y109740
Y119740
Y129740
X-55599Y124740
Y114740
Y104740
Y94740
Y149740
X-65599Y154740
X-81499Y149740
X-91499Y154740
Y164740
Y174740
Y184740
X-81499Y179740
Y169740
Y159740
X-65599Y164740
Y174740
Y184740
X-55599Y179740
Y169740
Y159740
Y204740
Y214740
Y224740
Y234740
X-65599Y239740
Y229740
Y219740
Y209740
X-81499Y204740
Y214740
Y224740
Y234740
X-91499Y229740
Y219740
Y209740
Y239740
Y264740
Y274740
Y284740
Y294740
X-81499Y289740
Y279740
Y269740
Y259740
X-65599Y264740
Y274740
Y284740
Y294740
X-55599Y289740
Y279740
Y269740
Y259740
T07
X-631670Y326937
Y336937
X-621670
Y326937
T08
X-91499Y78740
X-66599Y81340
X-12599Y78740
Y310740
X-53699Y305540
X-75399Y310740
T09
X-638142Y72000
X-566142Y47000
X-545142Y59000
X-536142Y78000
X-507142Y133000
X-569142Y180000
X-587142Y170000
X-609142
X-630142Y305000
X-520142Y285000
X-545174Y326425
X-616434Y372094
X-504142Y376000
T10
X-652087Y21850
Y371850
T11
X-30599Y89740
Y299740
M30
