G04*
G04 #@! TF.GenerationSoftware,Altium Limited,Altium Designer,20.1.11 (218)*
G04*
G04 Layer_Color=32896*
%FSLAX25Y25*%
%MOIN*%
G70*
G04*
G04 #@! TF.SameCoordinates,762B3F94-A553-4E42-A398-E91607147E77*
G04*
G04*
G04 #@! TF.FilePolarity,Positive*
G04*
G01*
G75*
%ADD15C,0.00500*%
%ADD26C,0.00800*%
D15*
X-266008Y29693D02*
Y40008D01*
X-271992Y29693D02*
X-266008D01*
X-271992D02*
Y40008D01*
X-266008D01*
Y48693D02*
Y59008D01*
X-271992Y48693D02*
X-266008D01*
X-271992D02*
Y59008D01*
X-266008D01*
Y66992D02*
Y77307D01*
X-271992Y66992D02*
X-266008D01*
X-271992D02*
Y77307D01*
X-266008D01*
X-271992Y78992D02*
Y89307D01*
X-266008D01*
Y78992D02*
Y89307D01*
X-271992Y78992D02*
X-266008D01*
X-265008Y120992D02*
Y131307D01*
X-270992Y120992D02*
X-265008D01*
X-270992D02*
Y131307D01*
X-265008D01*
Y138992D02*
Y149307D01*
X-270992Y138992D02*
X-265008D01*
X-270992D02*
Y149307D01*
X-265008D01*
Y156693D02*
Y167008D01*
X-270992Y156693D02*
X-265008D01*
X-270992D02*
Y167008D01*
X-265008D01*
Y174693D02*
Y185008D01*
X-270992Y174693D02*
X-265008D01*
X-270992D02*
Y185008D01*
X-265008D01*
X-270992Y212693D02*
Y223008D01*
X-265008D01*
Y212693D02*
Y223008D01*
X-270992Y212693D02*
X-265008D01*
Y236693D02*
Y247008D01*
X-270992Y236693D02*
X-265008D01*
X-270992D02*
Y247008D01*
X-265008D01*
Y254693D02*
Y265008D01*
X-270992Y254693D02*
X-265008D01*
X-270992D02*
Y265008D01*
X-265008D01*
X-270992Y265992D02*
Y276307D01*
X-265008D01*
Y265992D02*
Y276307D01*
X-270992Y265992D02*
X-265008D01*
X-271992Y302693D02*
Y313008D01*
X-266008D01*
Y302693D02*
Y313008D01*
X-271992Y302693D02*
X-266008D01*
Y327693D02*
Y338008D01*
X-271992Y327693D02*
X-266008D01*
X-271992D02*
Y338008D01*
X-266008D01*
Y345693D02*
Y356008D01*
X-271992Y345693D02*
X-266008D01*
X-271992D02*
Y356008D01*
X-266008D01*
X-271307Y362008D02*
X-260992D01*
X-271307D02*
Y367992D01*
X-260992D01*
Y362008D02*
Y367992D01*
X-118307Y363008D02*
X-107992D01*
X-118307D02*
Y368992D01*
X-107992D01*
Y363008D02*
Y368992D01*
X-113008Y172693D02*
Y183008D01*
X-118992Y172693D02*
X-113008D01*
X-118992D02*
Y183008D01*
X-113008D01*
Y47693D02*
Y58008D01*
X-118992Y47693D02*
X-113008D01*
X-118992D02*
Y58008D01*
X-113008D01*
Y65693D02*
Y76008D01*
X-118992Y65693D02*
X-113008D01*
X-118992D02*
Y76008D01*
X-113008D01*
X-137307Y94008D02*
X-126992D01*
X-137307D02*
Y99992D01*
X-126992D01*
Y94008D02*
Y99992D01*
X-113008Y136693D02*
Y147008D01*
X-118992Y136693D02*
X-113008D01*
X-118992D02*
Y147008D01*
X-113008D01*
X-120307Y122008D02*
X-109992D01*
X-120307D02*
Y127992D01*
X-109992D01*
Y122008D02*
Y127992D01*
X-121008Y160008D02*
X-110693D01*
X-121008D02*
Y165992D01*
X-110693D01*
Y160008D02*
Y165992D01*
X-118992Y213992D02*
Y224307D01*
X-113008D01*
Y213992D02*
Y224307D01*
X-118992Y213992D02*
X-113008D01*
X-118992Y230693D02*
Y241008D01*
X-113008D01*
Y230693D02*
Y241008D01*
X-118992Y230693D02*
X-113008D01*
X-119992Y248992D02*
Y259307D01*
X-114008D01*
Y248992D02*
Y259307D01*
X-119992Y248992D02*
X-114008D01*
X-113008Y272693D02*
Y283008D01*
X-118992Y272693D02*
X-113008D01*
X-118992D02*
Y283008D01*
X-113008D01*
X-118992Y303693D02*
Y314008D01*
X-113008D01*
Y303693D02*
Y314008D01*
X-118992Y303693D02*
X-113008D01*
Y326992D02*
Y337307D01*
X-118992Y326992D02*
X-113008D01*
X-118992D02*
Y337307D01*
X-113008D01*
X-112008Y344992D02*
Y355307D01*
X-117992Y344992D02*
X-112008D01*
X-117992D02*
Y355307D01*
X-112008D01*
X-113008Y29693D02*
Y40008D01*
X-118992Y29693D02*
X-113008D01*
X-118992D02*
Y40008D01*
X-113008D01*
D26*
X-127669Y101001D02*
Y104999D01*
X-129668D01*
X-130335Y104333D01*
Y103000D01*
X-129668Y102334D01*
X-127669D01*
X-129002D02*
X-130335Y101001D01*
X-133667D02*
Y104999D01*
X-131668Y103000D01*
X-134334D01*
X-138332Y101001D02*
X-135667D01*
X-138332Y103666D01*
Y104333D01*
X-137666Y104999D01*
X-136333D01*
X-135667Y104333D01*
X-139665Y104999D02*
Y101001D01*
Y103000D01*
X-142331D01*
Y104999D01*
Y101001D01*
X-111842Y186100D02*
Y190099D01*
X-113842D01*
X-114508Y189432D01*
Y188099D01*
X-113842Y187433D01*
X-111842D01*
X-113175D02*
X-114508Y186100D01*
X-117840D02*
Y190099D01*
X-115841Y188099D01*
X-118507D01*
X-122505Y186100D02*
X-119840D01*
X-122505Y188766D01*
Y189432D01*
X-121839Y190099D01*
X-120506D01*
X-119840Y189432D01*
X-126504D02*
X-125838Y190099D01*
X-124505D01*
X-123838Y189432D01*
Y186767D01*
X-124505Y186100D01*
X-125838D01*
X-126504Y186767D01*
Y188099D01*
X-125171D01*
X-273842Y84400D02*
Y88399D01*
X-275842D01*
X-276508Y87732D01*
Y86399D01*
X-275842Y85733D01*
X-273842D01*
X-275175D02*
X-276508Y84400D01*
X-279840D02*
Y88399D01*
X-277841Y86399D01*
X-280507D01*
X-284506Y84400D02*
X-281840D01*
X-284506Y87066D01*
Y87732D01*
X-283839Y88399D01*
X-282506D01*
X-281840Y87732D01*
X-288504Y88399D02*
X-285839D01*
Y86399D01*
X-287171D01*
X-285839D01*
Y84400D01*
X-265669Y186001D02*
Y189999D01*
X-267668D01*
X-268335Y189333D01*
Y188000D01*
X-267668Y187334D01*
X-265669D01*
X-267002D02*
X-268335Y186001D01*
X-271667D02*
Y189999D01*
X-269668Y188000D01*
X-272334D01*
X-276332Y186001D02*
X-273667D01*
X-276332Y188666D01*
Y189333D01*
X-275666Y189999D01*
X-274333D01*
X-273667Y189333D01*
X-280331Y189999D02*
X-277665D01*
Y186001D01*
X-280331D01*
X-277665Y188000D02*
X-278998D01*
X-272669Y272001D02*
Y275999D01*
X-274668D01*
X-275335Y275333D01*
Y274000D01*
X-274668Y273334D01*
X-272669D01*
X-274002D02*
X-275335Y272001D01*
X-278667D02*
Y275999D01*
X-276668Y274000D01*
X-279334D01*
X-283332Y272001D02*
X-280666D01*
X-283332Y274666D01*
Y275333D01*
X-282666Y275999D01*
X-281333D01*
X-280666Y275333D01*
X-284665Y275999D02*
Y272001D01*
X-286665D01*
X-287331Y272667D01*
Y275333D01*
X-286665Y275999D01*
X-284665D01*
X-260669Y369001D02*
Y372999D01*
X-262668D01*
X-263335Y372333D01*
Y371000D01*
X-262668Y370334D01*
X-260669D01*
X-262002D02*
X-263335Y369001D01*
X-266667D02*
Y372999D01*
X-264668Y371000D01*
X-267334D01*
X-271332Y369001D02*
X-268667D01*
X-271332Y371666D01*
Y372333D01*
X-270666Y372999D01*
X-269333D01*
X-268667Y372333D01*
X-275331D02*
X-274664Y372999D01*
X-273332D01*
X-272665Y372333D01*
Y369667D01*
X-273332Y369001D01*
X-274664D01*
X-275331Y369667D01*
X-112669Y285001D02*
Y288999D01*
X-114668D01*
X-115335Y288333D01*
Y287000D01*
X-114668Y286334D01*
X-112669D01*
X-114002D02*
X-115335Y285001D01*
X-118667D02*
Y288999D01*
X-116668Y287000D01*
X-119334D01*
X-123332Y285001D02*
X-120667D01*
X-123332Y287666D01*
Y288333D01*
X-122666Y288999D01*
X-121333D01*
X-120667Y288333D01*
X-124665Y288999D02*
Y285001D01*
X-126664D01*
X-127331Y285667D01*
Y286334D01*
X-126664Y287000D01*
X-124665D01*
X-126664D01*
X-127331Y287666D01*
Y288333D01*
X-126664Y288999D01*
X-124665D01*
X-107669Y370001D02*
Y373999D01*
X-109668D01*
X-110335Y373333D01*
Y372000D01*
X-109668Y371334D01*
X-107669D01*
X-109002D02*
X-110335Y370001D01*
X-113667D02*
Y373999D01*
X-111668Y372000D01*
X-114333D01*
X-118332Y370001D02*
X-115666D01*
X-118332Y372666D01*
Y373333D01*
X-117666Y373999D01*
X-116333D01*
X-115666Y373333D01*
X-119665Y370001D02*
Y372666D01*
X-120998Y373999D01*
X-122331Y372666D01*
Y370001D01*
Y372000D01*
X-119665D01*
X-113002Y77001D02*
Y80999D01*
X-115002D01*
X-115668Y80333D01*
Y79000D01*
X-115002Y78334D01*
X-113002D01*
X-114335D02*
X-115668Y77001D01*
X-119000D02*
Y80999D01*
X-117001Y79000D01*
X-119667D01*
X-121000Y77001D02*
X-122333D01*
X-121666D01*
Y80999D01*
X-121000Y80333D01*
X-124332Y80999D02*
Y77001D01*
Y79000D01*
X-126998D01*
Y80999D01*
Y77001D01*
X-123002Y161001D02*
Y164999D01*
X-125002D01*
X-125668Y164333D01*
Y163000D01*
X-125002Y162334D01*
X-123002D01*
X-124335D02*
X-125668Y161001D01*
X-129000D02*
Y164999D01*
X-127001Y163000D01*
X-129667D01*
X-131000Y161001D02*
X-132333D01*
X-131666D01*
Y164999D01*
X-131000Y164333D01*
X-136998D02*
X-136331Y164999D01*
X-134998D01*
X-134332Y164333D01*
Y161667D01*
X-134998Y161001D01*
X-136331D01*
X-136998Y161667D01*
Y163000D01*
X-135665D01*
X-274542Y72400D02*
Y76399D01*
X-276542D01*
X-277208Y75732D01*
Y74399D01*
X-276542Y73733D01*
X-274542D01*
X-275875D02*
X-277208Y72400D01*
X-280540D02*
Y76399D01*
X-278541Y74399D01*
X-281207D01*
X-282540Y72400D02*
X-283873D01*
X-283206D01*
Y76399D01*
X-282540Y75732D01*
X-288538Y76399D02*
X-285872D01*
Y74399D01*
X-287205D01*
X-285872D01*
Y72400D01*
X-265002Y168001D02*
Y171999D01*
X-267002D01*
X-267668Y171333D01*
Y170000D01*
X-267002Y169334D01*
X-265002D01*
X-266335D02*
X-267668Y168001D01*
X-271000D02*
Y171999D01*
X-269001Y170000D01*
X-271667D01*
X-273000Y168001D02*
X-274333D01*
X-273666D01*
Y171999D01*
X-273000Y171333D01*
X-278998Y171999D02*
X-276332D01*
Y168001D01*
X-278998D01*
X-276332Y170000D02*
X-277665D01*
X-273002Y261001D02*
Y264999D01*
X-275002D01*
X-275668Y264333D01*
Y263000D01*
X-275002Y262334D01*
X-273002D01*
X-274335D02*
X-275668Y261001D01*
X-279000D02*
Y264999D01*
X-277001Y263000D01*
X-279667D01*
X-281000Y261001D02*
X-282333D01*
X-281666D01*
Y264999D01*
X-281000Y264333D01*
X-284332Y264999D02*
Y261001D01*
X-286331D01*
X-286998Y261667D01*
Y264333D01*
X-286331Y264999D01*
X-284332D01*
X-273002Y352001D02*
Y355999D01*
X-275002D01*
X-275668Y355333D01*
Y354000D01*
X-275002Y353334D01*
X-273002D01*
X-274335D02*
X-275668Y352001D01*
X-279000D02*
Y355999D01*
X-277001Y354000D01*
X-279667D01*
X-281000Y352001D02*
X-282333D01*
X-281666D01*
Y355999D01*
X-281000Y355333D01*
X-286998D02*
X-286331Y355999D01*
X-284998D01*
X-284332Y355333D01*
Y352667D01*
X-284998Y352001D01*
X-286331D01*
X-286998Y352667D01*
X-115002Y261001D02*
Y264999D01*
X-117002D01*
X-117668Y264333D01*
Y263000D01*
X-117002Y262334D01*
X-115002D01*
X-116335D02*
X-117668Y261001D01*
X-121000D02*
Y264999D01*
X-119001Y263000D01*
X-121667D01*
X-123000Y261001D02*
X-124333D01*
X-123666D01*
Y264999D01*
X-123000Y264333D01*
X-126332Y264999D02*
Y261001D01*
X-128331D01*
X-128998Y261667D01*
Y262334D01*
X-128331Y263000D01*
X-126332D01*
X-128331D01*
X-128998Y263666D01*
Y264333D01*
X-128331Y264999D01*
X-126332D01*
X-112002Y357001D02*
Y360999D01*
X-114002D01*
X-114668Y360333D01*
Y359000D01*
X-114002Y358334D01*
X-112002D01*
X-113335D02*
X-114668Y357001D01*
X-118000D02*
Y360999D01*
X-116001Y359000D01*
X-118667D01*
X-120000Y357001D02*
X-121333D01*
X-120666D01*
Y360999D01*
X-120000Y360333D01*
X-123332Y357001D02*
Y359666D01*
X-124665Y360999D01*
X-125998Y359666D01*
Y357001D01*
Y359000D01*
X-123332D01*
X-112669Y59001D02*
Y62999D01*
X-114668D01*
X-115335Y62333D01*
Y61000D01*
X-114668Y60334D01*
X-112669D01*
X-114002D02*
X-115335Y59001D01*
X-118667D02*
Y62999D01*
X-116668Y61000D01*
X-119334D01*
X-120667Y62333D02*
X-121333Y62999D01*
X-122666D01*
X-123332Y62333D01*
Y59667D01*
X-122666Y59001D01*
X-121333D01*
X-120667Y59667D01*
Y62333D01*
X-124665Y62999D02*
Y59001D01*
Y61000D01*
X-127331D01*
Y62999D01*
Y59001D01*
X-113669Y148001D02*
Y151999D01*
X-115668D01*
X-116335Y151333D01*
Y150000D01*
X-115668Y149334D01*
X-113669D01*
X-115002D02*
X-116335Y148001D01*
X-119667D02*
Y151999D01*
X-117668Y150000D01*
X-120334D01*
X-121667Y151333D02*
X-122333Y151999D01*
X-123666D01*
X-124332Y151333D01*
Y148667D01*
X-123666Y148001D01*
X-122333D01*
X-121667Y148667D01*
Y151333D01*
X-128331D02*
X-127664Y151999D01*
X-126332D01*
X-125665Y151333D01*
Y148667D01*
X-126332Y148001D01*
X-127664D01*
X-128331Y148667D01*
Y150000D01*
X-126998D01*
X-273842Y54100D02*
Y58099D01*
X-275842D01*
X-276508Y57432D01*
Y56099D01*
X-275842Y55433D01*
X-273842D01*
X-275175D02*
X-276508Y54100D01*
X-279840D02*
Y58099D01*
X-277841Y56099D01*
X-280507D01*
X-281840Y57432D02*
X-282506Y58099D01*
X-283839D01*
X-284506Y57432D01*
Y54766D01*
X-283839Y54100D01*
X-282506D01*
X-281840Y54766D01*
Y57432D01*
X-288504Y58099D02*
X-285839D01*
Y56099D01*
X-287171D01*
X-285839D01*
Y54100D01*
X-272669Y145001D02*
Y148999D01*
X-274668D01*
X-275335Y148333D01*
Y147000D01*
X-274668Y146334D01*
X-272669D01*
X-274002D02*
X-275335Y145001D01*
X-278667D02*
Y148999D01*
X-276668Y147000D01*
X-279334D01*
X-280666Y148333D02*
X-281333Y148999D01*
X-282666D01*
X-283332Y148333D01*
Y145667D01*
X-282666Y145001D01*
X-281333D01*
X-280666Y145667D01*
Y148333D01*
X-287331Y148999D02*
X-284665D01*
Y145001D01*
X-287331D01*
X-284665Y147000D02*
X-285998D01*
X-264669Y248001D02*
Y251999D01*
X-266668D01*
X-267335Y251333D01*
Y250000D01*
X-266668Y249334D01*
X-264669D01*
X-266002D02*
X-267335Y248001D01*
X-270667D02*
Y251999D01*
X-268668Y250000D01*
X-271334D01*
X-272667Y251333D02*
X-273333Y251999D01*
X-274666D01*
X-275332Y251333D01*
Y248667D01*
X-274666Y248001D01*
X-273333D01*
X-272667Y248667D01*
Y251333D01*
X-276665Y251999D02*
Y248001D01*
X-278664D01*
X-279331Y248667D01*
Y251333D01*
X-278664Y251999D01*
X-276665D01*
X-266669Y339001D02*
Y342999D01*
X-268668D01*
X-269335Y342333D01*
Y341000D01*
X-268668Y340334D01*
X-266669D01*
X-268002D02*
X-269335Y339001D01*
X-272667D02*
Y342999D01*
X-270668Y341000D01*
X-273334D01*
X-274667Y342333D02*
X-275333Y342999D01*
X-276666D01*
X-277332Y342333D01*
Y339667D01*
X-276666Y339001D01*
X-275333D01*
X-274667Y339667D01*
Y342333D01*
X-281331D02*
X-280664Y342999D01*
X-279332D01*
X-278665Y342333D01*
Y339667D01*
X-279332Y339001D01*
X-280664D01*
X-281331Y339667D01*
X-114669Y242001D02*
Y245999D01*
X-116668D01*
X-117335Y245333D01*
Y244000D01*
X-116668Y243334D01*
X-114669D01*
X-116002D02*
X-117335Y242001D01*
X-120667D02*
Y245999D01*
X-118668Y244000D01*
X-121334D01*
X-122667Y245333D02*
X-123333Y245999D01*
X-124666D01*
X-125332Y245333D01*
Y242667D01*
X-124666Y242001D01*
X-123333D01*
X-122667Y242667D01*
Y245333D01*
X-126665Y245999D02*
Y242001D01*
X-128665D01*
X-129331Y242667D01*
Y243334D01*
X-128665Y244000D01*
X-126665D01*
X-128665D01*
X-129331Y244666D01*
Y245333D01*
X-128665Y245999D01*
X-126665D01*
X-112669Y339001D02*
Y342999D01*
X-114668D01*
X-115335Y342333D01*
Y341000D01*
X-114668Y340334D01*
X-112669D01*
X-114002D02*
X-115335Y339001D01*
X-118667D02*
Y342999D01*
X-116668Y341000D01*
X-119334D01*
X-120667Y342333D02*
X-121333Y342999D01*
X-122666D01*
X-123332Y342333D01*
Y339667D01*
X-122666Y339001D01*
X-121333D01*
X-120667Y339667D01*
Y342333D01*
X-124665Y339001D02*
Y341666D01*
X-125998Y342999D01*
X-127331Y341666D01*
Y339001D01*
Y341000D01*
X-124665D01*
X-112669Y41001D02*
Y44999D01*
X-114668D01*
X-115335Y44333D01*
Y43000D01*
X-114668Y42334D01*
X-112669D01*
X-114002D02*
X-115335Y41001D01*
X-116668Y44333D02*
X-117334Y44999D01*
X-118667D01*
X-119334Y44333D01*
Y43666D01*
X-118667Y43000D01*
X-118001D01*
X-118667D01*
X-119334Y42334D01*
Y41667D01*
X-118667Y41001D01*
X-117334D01*
X-116668Y41667D01*
X-120667D02*
X-121333Y41001D01*
X-122666D01*
X-123332Y41667D01*
Y44333D01*
X-122666Y44999D01*
X-121333D01*
X-120667Y44333D01*
Y43666D01*
X-121333Y43000D01*
X-123332D01*
X-124665Y44999D02*
Y41001D01*
Y43000D01*
X-127331D01*
Y44999D01*
Y41001D01*
X-109669Y129001D02*
Y132999D01*
X-111668D01*
X-112335Y132333D01*
Y131000D01*
X-111668Y130333D01*
X-109669D01*
X-111002D02*
X-112335Y129001D01*
X-113668Y132333D02*
X-114334Y132999D01*
X-115667D01*
X-116333Y132333D01*
Y131667D01*
X-115667Y131000D01*
X-115001D01*
X-115667D01*
X-116333Y130333D01*
Y129667D01*
X-115667Y129001D01*
X-114334D01*
X-113668Y129667D01*
X-117666D02*
X-118333Y129001D01*
X-119666D01*
X-120332Y129667D01*
Y132333D01*
X-119666Y132999D01*
X-118333D01*
X-117666Y132333D01*
Y131667D01*
X-118333Y131000D01*
X-120332D01*
X-124331Y132333D02*
X-123664Y132999D01*
X-122332D01*
X-121665Y132333D01*
Y129667D01*
X-122332Y129001D01*
X-123664D01*
X-124331Y129667D01*
Y131000D01*
X-122998D01*
X-273842Y35100D02*
Y39099D01*
X-275842D01*
X-276508Y38432D01*
Y37099D01*
X-275842Y36433D01*
X-273842D01*
X-275175D02*
X-276508Y35100D01*
X-277841Y38432D02*
X-278507Y39099D01*
X-279840D01*
X-280507Y38432D01*
Y37766D01*
X-279840Y37099D01*
X-279174D01*
X-279840D01*
X-280507Y36433D01*
Y35766D01*
X-279840Y35100D01*
X-278507D01*
X-277841Y35766D01*
X-281840D02*
X-282506Y35100D01*
X-283839D01*
X-284506Y35766D01*
Y38432D01*
X-283839Y39099D01*
X-282506D01*
X-281840Y38432D01*
Y37766D01*
X-282506Y37099D01*
X-284506D01*
X-288504Y39099D02*
X-285839D01*
Y37099D01*
X-287171D01*
X-285839D01*
Y35100D01*
X-272669Y127001D02*
Y130999D01*
X-274668D01*
X-275335Y130333D01*
Y129000D01*
X-274668Y128333D01*
X-272669D01*
X-274002D02*
X-275335Y127001D01*
X-276668Y130333D02*
X-277334Y130999D01*
X-278667D01*
X-279334Y130333D01*
Y129666D01*
X-278667Y129000D01*
X-278001D01*
X-278667D01*
X-279334Y128333D01*
Y127667D01*
X-278667Y127001D01*
X-277334D01*
X-276668Y127667D01*
X-280666D02*
X-281333Y127001D01*
X-282666D01*
X-283332Y127667D01*
Y130333D01*
X-282666Y130999D01*
X-281333D01*
X-280666Y130333D01*
Y129666D01*
X-281333Y129000D01*
X-283332D01*
X-287331Y130999D02*
X-284665D01*
Y127001D01*
X-287331D01*
X-284665Y129000D02*
X-285998D01*
X-264669Y224001D02*
Y227999D01*
X-266668D01*
X-267335Y227333D01*
Y226000D01*
X-266668Y225334D01*
X-264669D01*
X-266002D02*
X-267335Y224001D01*
X-268668Y227333D02*
X-269334Y227999D01*
X-270667D01*
X-271334Y227333D01*
Y226666D01*
X-270667Y226000D01*
X-270001D01*
X-270667D01*
X-271334Y225334D01*
Y224667D01*
X-270667Y224001D01*
X-269334D01*
X-268668Y224667D01*
X-272667D02*
X-273333Y224001D01*
X-274666D01*
X-275332Y224667D01*
Y227333D01*
X-274666Y227999D01*
X-273333D01*
X-272667Y227333D01*
Y226666D01*
X-273333Y226000D01*
X-275332D01*
X-276665Y227999D02*
Y224001D01*
X-278664D01*
X-279331Y224667D01*
Y227333D01*
X-278664Y227999D01*
X-276665D01*
X-265669Y315001D02*
Y318999D01*
X-267668D01*
X-268335Y318333D01*
Y317000D01*
X-267668Y316334D01*
X-265669D01*
X-267002D02*
X-268335Y315001D01*
X-269668Y318333D02*
X-270334Y318999D01*
X-271667D01*
X-272334Y318333D01*
Y317666D01*
X-271667Y317000D01*
X-271001D01*
X-271667D01*
X-272334Y316334D01*
Y315667D01*
X-271667Y315001D01*
X-270334D01*
X-269668Y315667D01*
X-273667D02*
X-274333Y315001D01*
X-275666D01*
X-276332Y315667D01*
Y318333D01*
X-275666Y318999D01*
X-274333D01*
X-273667Y318333D01*
Y317666D01*
X-274333Y317000D01*
X-276332D01*
X-280331Y318333D02*
X-279664Y318999D01*
X-278332D01*
X-277665Y318333D01*
Y315667D01*
X-278332Y315001D01*
X-279664D01*
X-280331Y315667D01*
X-113669Y209001D02*
Y212999D01*
X-115668D01*
X-116335Y212333D01*
Y211000D01*
X-115668Y210334D01*
X-113669D01*
X-115002D02*
X-116335Y209001D01*
X-117668Y212333D02*
X-118334Y212999D01*
X-119667D01*
X-120334Y212333D01*
Y211666D01*
X-119667Y211000D01*
X-119001D01*
X-119667D01*
X-120334Y210334D01*
Y209667D01*
X-119667Y209001D01*
X-118334D01*
X-117668Y209667D01*
X-121667D02*
X-122333Y209001D01*
X-123666D01*
X-124332Y209667D01*
Y212333D01*
X-123666Y212999D01*
X-122333D01*
X-121667Y212333D01*
Y211666D01*
X-122333Y211000D01*
X-124332D01*
X-125665Y212999D02*
Y209001D01*
X-127664D01*
X-128331Y209667D01*
Y210334D01*
X-127664Y211000D01*
X-125665D01*
X-127664D01*
X-128331Y211666D01*
Y212333D01*
X-127664Y212999D01*
X-125665D01*
X-111669Y316001D02*
Y319999D01*
X-113668D01*
X-114335Y319333D01*
Y318000D01*
X-113668Y317334D01*
X-111669D01*
X-113002D02*
X-114335Y316001D01*
X-115668Y319333D02*
X-116334Y319999D01*
X-117667D01*
X-118333Y319333D01*
Y318666D01*
X-117667Y318000D01*
X-117001D01*
X-117667D01*
X-118333Y317334D01*
Y316667D01*
X-117667Y316001D01*
X-116334D01*
X-115668Y316667D01*
X-119667D02*
X-120333Y316001D01*
X-121666D01*
X-122332Y316667D01*
Y319333D01*
X-121666Y319999D01*
X-120333D01*
X-119667Y319333D01*
Y318666D01*
X-120333Y318000D01*
X-122332D01*
X-123665Y316001D02*
Y318666D01*
X-124998Y319999D01*
X-126331Y318666D01*
Y316001D01*
Y318000D01*
X-123665D01*
M02*
