G04*
G04 #@! TF.GenerationSoftware,Altium Limited,Altium Designer,20.1.11 (218)*
G04*
G04 Layer_Color=16711935*
%FSLAX25Y25*%
%MOIN*%
G70*
G04*
G04 #@! TF.SameCoordinates,1535AC9A-FC7F-4EF0-A2C1-5D59974DCB20*
G04*
G04*
G04 #@! TF.FilePolarity,Negative*
G04*
G01*
G75*
%ADD66C,0.10800*%
%ADD67C,0.10249*%
%ADD68C,0.13398*%
%ADD69C,0.06706*%
%ADD70C,0.11811*%
%ADD71C,0.04343*%
%ADD72C,0.05918*%
%ADD73C,0.06600*%
D66*
X-569142Y180000D02*
D03*
X-566142Y47000D02*
D03*
X-587142Y170000D02*
D03*
X-545142Y59000D02*
D03*
X-638142Y72000D02*
D03*
X-507142Y133000D02*
D03*
X-536142Y78000D02*
D03*
X-609142Y170000D02*
D03*
X-504142Y376000D02*
D03*
X-630142Y305000D02*
D03*
X-520142Y285000D02*
D03*
X-545174Y326425D02*
D03*
X-616434Y372094D02*
D03*
D67*
X-12599Y310740D02*
D03*
X-53699Y305540D02*
D03*
X-75399Y310740D02*
D03*
X-91499Y78740D02*
D03*
X-66599Y81340D02*
D03*
X-12599Y78740D02*
D03*
D68*
X-30599Y299740D02*
D03*
Y89740D02*
D03*
D69*
X-55599Y94740D02*
D03*
X-65599Y99740D02*
D03*
X-55599Y104740D02*
D03*
X-65599Y109740D02*
D03*
X-55599Y114740D02*
D03*
X-65599Y119740D02*
D03*
X-55599Y124740D02*
D03*
X-65599Y129740D02*
D03*
Y184740D02*
D03*
X-55599Y179740D02*
D03*
X-65599Y174740D02*
D03*
X-55599Y169740D02*
D03*
X-65599Y164740D02*
D03*
X-55599Y159740D02*
D03*
X-65599Y154740D02*
D03*
X-55599Y149740D02*
D03*
X-65599Y239740D02*
D03*
X-55599Y234740D02*
D03*
X-65599Y229740D02*
D03*
X-55599Y224740D02*
D03*
X-65599Y219740D02*
D03*
X-55599Y214740D02*
D03*
X-65599Y209740D02*
D03*
X-55599Y204740D02*
D03*
X-65599Y294740D02*
D03*
X-55599Y289740D02*
D03*
X-65599Y284740D02*
D03*
X-55599Y279740D02*
D03*
X-65599Y274740D02*
D03*
X-55599Y269740D02*
D03*
X-65599Y264740D02*
D03*
X-55599Y259740D02*
D03*
X-81499D02*
D03*
X-91499Y264740D02*
D03*
X-81499Y269740D02*
D03*
X-91499Y274740D02*
D03*
X-81499Y279740D02*
D03*
X-91499Y284740D02*
D03*
X-81499Y289740D02*
D03*
X-91499Y294740D02*
D03*
X-81499Y204740D02*
D03*
X-91499Y209740D02*
D03*
X-81499Y214740D02*
D03*
X-91499Y219740D02*
D03*
X-81499Y224740D02*
D03*
X-91499Y229740D02*
D03*
X-81499Y234740D02*
D03*
X-91499Y239740D02*
D03*
X-81499Y149740D02*
D03*
X-91499Y154740D02*
D03*
X-81499Y159740D02*
D03*
X-91499Y164740D02*
D03*
X-81499Y169740D02*
D03*
X-91499Y174740D02*
D03*
X-81499Y179740D02*
D03*
X-91499Y184740D02*
D03*
Y129740D02*
D03*
X-81499Y124740D02*
D03*
X-91499Y119740D02*
D03*
X-81499Y114740D02*
D03*
X-91499Y109740D02*
D03*
X-81499Y104740D02*
D03*
X-91499Y99740D02*
D03*
X-81499Y94740D02*
D03*
D70*
X-652087Y371850D02*
D03*
Y21850D02*
D03*
D71*
X-581756Y111757D02*
D03*
Y106757D02*
D03*
X-586757Y111757D02*
D03*
Y106757D02*
D03*
X-591756Y111757D02*
D03*
Y106757D02*
D03*
X-596757Y111757D02*
D03*
Y106757D02*
D03*
X-601756Y111757D02*
D03*
Y106757D02*
D03*
X-606756Y111757D02*
D03*
Y106757D02*
D03*
X-611757Y111757D02*
D03*
Y106757D02*
D03*
X-616756Y111757D02*
D03*
Y106757D02*
D03*
D72*
X-572339Y363039D02*
D03*
X-582182D02*
D03*
X-549505Y354969D02*
D03*
Y345126D02*
D03*
X-441847Y331929D02*
D03*
Y251150D02*
D03*
Y166150D02*
D03*
Y82150D02*
D03*
D73*
X-631670Y336937D02*
D03*
X-621670D02*
D03*
X-631670Y326937D02*
D03*
X-621670D02*
D03*
M02*
