G04*
G04 #@! TF.GenerationSoftware,Altium Limited,Altium Designer,25.8.1 (18)*
G04*
G04 Layer_Color=16711935*
%FSLAX25Y25*%
%MOIN*%
G70*
G04*
G04 #@! TF.SameCoordinates,915AE6A9-C4C5-440B-A756-940E0959A614*
G04*
G04*
G04 #@! TF.FilePolarity,Positive*
G04*
G01*
G75*
%ADD13C,0.00500*%
D13*
X-7874D02*
X-6846Y67D01*
X-5836Y268D01*
X-4861Y599D01*
X-3937Y1055D01*
X-3081Y1627D01*
X-2306Y2306D01*
X-1627Y3081D01*
X-1055Y3937D01*
X-599Y4861D01*
X-268Y5836D01*
X-67Y6846D01*
X0Y7874D01*
Y385827D02*
X-67Y386855D01*
X-268Y387865D01*
X-599Y388840D01*
X-1055Y389764D01*
X-1627Y390620D01*
X-2306Y391394D01*
X-3081Y392074D01*
X-3937Y392646D01*
X-4861Y393101D01*
X-5836Y393432D01*
X-6846Y393633D01*
X-7874Y393701D01*
X-681103Y5000D02*
X-681007Y4025D01*
X-680722Y3087D01*
X-680260Y2222D01*
X-679638Y1464D01*
X-678881Y843D01*
X-678016Y381D01*
X-677078Y96D01*
X-676103Y0D01*
Y393701D02*
X-677078Y393605D01*
X-678016Y393320D01*
X-678881Y392858D01*
X-679638Y392236D01*
X-680260Y391479D01*
X-680722Y390614D01*
X-681007Y389676D01*
X-681103Y388701D01*
X-676103Y0D02*
X-7874D01*
X-1Y7874D02*
Y385827D01*
X-676103Y393701D02*
X-7874D01*
X-681103Y5000D02*
Y388701D01*
M02*
