G04*
G04 #@! TF.GenerationSoftware,Altium Limited,Altium Designer,25.8.1 (18)*
G04*
G04 Layer_Physical_Order=2*
G04 Layer_Color=36540*
%FSLAX25Y25*%
%MOIN*%
G70*
G04*
G04 #@! TF.SameCoordinates,915AE6A9-C4C5-440B-A756-940E0959A614*
G04*
G04*
G04 #@! TF.FilePolarity,Positive*
G04*
G01*
G75*
%ADD72C,0.02756*%
%ADD83C,0.05118*%
%ADD86C,0.10000*%
%ADD89C,0.02362*%
%ADD90C,0.01772*%
G36*
X-443642Y323500D02*
X-443642Y299500D01*
X-465642Y299500D01*
X-481642Y283500D01*
Y246500D01*
X-478642Y243500D01*
X-444642Y243500D01*
X-443642Y242500D01*
X-443642Y216500D01*
X-451142Y209000D01*
X-469142Y209000D01*
X-479642Y198500D01*
Y159500D01*
X-478642Y158500D01*
X-444642D01*
X-443642Y157500D01*
Y133000D01*
X-451642Y125000D01*
X-470142Y125000D01*
X-479642Y115500D01*
X-479642Y76000D01*
X-478142Y74500D01*
X-444642Y74500D01*
X-443642Y73500D01*
X-443642Y59000D01*
Y57564D01*
Y51804D01*
X-443642Y45564D01*
Y42196D01*
X-443642Y2039D01*
X-639000D01*
Y38000D01*
X-639022Y38022D01*
X-655242D01*
X-655242Y288000D01*
X-642572D01*
X-642423Y287500D01*
X-642854Y287212D01*
X-643226Y286656D01*
X-643356Y286000D01*
X-643226Y285344D01*
X-642854Y284788D01*
X-642298Y284416D01*
X-641642Y284286D01*
X-640986Y284416D01*
X-640430Y284788D01*
X-640059Y285344D01*
X-639928Y286000D01*
X-640059Y286656D01*
X-640430Y287212D01*
X-640861Y287500D01*
X-640712Y288000D01*
X-598929Y288000D01*
X-598903Y287868D01*
X-598531Y287312D01*
X-597975Y286940D01*
X-597320Y286810D01*
X-596664Y286940D01*
X-596107Y287312D01*
X-595736Y287868D01*
X-595710Y288000D01*
X-562642D01*
X-541142Y309500D01*
X-529642D01*
X-526142Y313000D01*
Y324500D01*
X-444642D01*
X-443642Y323500D01*
D02*
G37*
G36*
X-7874Y391662D02*
X-7299D01*
X-6172Y391437D01*
X-5110Y390998D01*
X-4725Y390740D01*
Y387804D01*
Y383000D01*
Y378196D01*
Y367151D01*
Y363549D01*
Y358655D01*
Y353845D01*
Y350081D01*
Y345423D01*
Y340462D01*
Y335656D01*
Y330690D01*
X-4725Y325727D01*
Y320741D01*
Y316010D01*
Y311711D01*
Y307962D01*
Y303099D01*
Y298309D01*
Y293223D01*
Y288584D01*
Y284740D01*
Y279740D01*
Y277028D01*
Y272203D01*
Y267796D01*
Y262756D01*
Y257794D01*
Y252935D01*
Y248012D01*
Y243223D01*
Y239160D01*
Y234220D01*
Y229740D01*
Y227157D01*
Y222005D01*
Y217241D01*
Y212278D01*
Y207500D01*
Y202656D01*
Y197716D01*
X-4725Y188223D01*
Y184740D01*
Y179740D01*
Y176724D01*
Y171920D01*
Y167203D01*
Y162203D01*
Y157203D01*
Y152203D01*
Y147278D01*
Y142726D01*
Y138221D01*
Y133223D01*
Y127756D01*
Y122840D01*
Y118197D01*
Y113416D01*
Y108839D01*
Y103223D01*
Y98647D01*
Y93839D01*
Y88960D01*
Y83934D01*
Y78999D01*
Y74000D01*
Y69005D01*
X-4725Y64235D01*
Y59363D01*
Y51965D01*
Y50163D01*
Y45528D01*
Y37107D01*
Y34830D01*
Y29901D01*
Y25099D01*
Y20636D01*
Y2961D01*
X-5111Y2703D01*
X-6172Y2263D01*
X-7299Y2039D01*
X-7874Y2039D01*
X-442142D01*
Y74000D01*
X-444142Y76000D01*
X-449142D01*
Y80000D01*
X-453142D01*
X-457142Y76000D01*
X-477642Y76000D01*
X-478142Y76500D01*
Y115000D01*
X-469642Y123500D01*
X-450642D01*
X-442142Y132000D01*
Y158000D01*
X-444142Y160000D01*
X-449142D01*
Y164000D01*
X-453142D01*
X-457142Y160000D01*
X-477642D01*
X-478142Y160500D01*
Y197500D01*
X-468142Y207500D01*
X-450642D01*
X-442142Y216000D01*
X-442142Y243000D01*
X-444142Y245000D01*
X-449142D01*
Y249000D01*
X-453142D01*
X-457142Y245000D01*
X-478142Y245000D01*
X-480142Y247000D01*
X-480142Y283000D01*
X-465014Y298128D01*
X-442142D01*
Y324000D01*
X-443642Y325500D01*
X-449142Y325500D01*
Y330000D01*
X-453142D01*
X-457142Y326000D01*
X-526142D01*
X-526142Y391662D01*
X-7874Y391662D01*
D02*
G37*
%LPC*%
G36*
X-454686Y323758D02*
X-455342Y323627D01*
X-455898Y323255D01*
X-456269Y322699D01*
X-456400Y322043D01*
X-456269Y321388D01*
X-455898Y320831D01*
X-455342Y320460D01*
X-454686Y320329D01*
X-454030Y320460D01*
X-453474Y320831D01*
X-453102Y321388D01*
X-452972Y322043D01*
X-453102Y322699D01*
X-453474Y323255D01*
X-454030Y323627D01*
X-454686Y323758D01*
D02*
G37*
G36*
X-462142Y323714D02*
X-462798Y323584D01*
X-463354Y323212D01*
X-463726Y322656D01*
X-463856Y322000D01*
X-463726Y321344D01*
X-463354Y320788D01*
X-462798Y320416D01*
X-462142Y320286D01*
X-461486Y320416D01*
X-460930Y320788D01*
X-460559Y321344D01*
X-460428Y322000D01*
X-460559Y322656D01*
X-460930Y323212D01*
X-461486Y323584D01*
X-462142Y323714D01*
D02*
G37*
G36*
X-503500Y322414D02*
X-504156Y322284D01*
X-504712Y321912D01*
X-505084Y321356D01*
X-505214Y320700D01*
X-505084Y320044D01*
X-504712Y319488D01*
X-504156Y319116D01*
X-503500Y318986D01*
X-502844Y319116D01*
X-502288Y319488D01*
X-501916Y320044D01*
X-501786Y320700D01*
X-501916Y321356D01*
X-502288Y321912D01*
X-502844Y322284D01*
X-503500Y322414D01*
D02*
G37*
G36*
X-508500D02*
X-509156Y322284D01*
X-509712Y321912D01*
X-510084Y321356D01*
X-510214Y320700D01*
X-510084Y320044D01*
X-509712Y319488D01*
X-509156Y319116D01*
X-508500Y318986D01*
X-507844Y319116D01*
X-507288Y319488D01*
X-506916Y320044D01*
X-506786Y320700D01*
X-506916Y321356D01*
X-507288Y321912D01*
X-507844Y322284D01*
X-508500Y322414D01*
D02*
G37*
G36*
X-458142Y319214D02*
X-458798Y319084D01*
X-459354Y318712D01*
X-459726Y318156D01*
X-459856Y317500D01*
X-459726Y316844D01*
X-459354Y316288D01*
X-458798Y315916D01*
X-458142Y315786D01*
X-457486Y315916D01*
X-456930Y316288D01*
X-456559Y316844D01*
X-456428Y317500D01*
X-456559Y318156D01*
X-456930Y318712D01*
X-457486Y319084D01*
X-458142Y319214D01*
D02*
G37*
G36*
X-503500Y316414D02*
X-504156Y316284D01*
X-504712Y315912D01*
X-505084Y315356D01*
X-505214Y314700D01*
X-505084Y314044D01*
X-504712Y313488D01*
X-504156Y313116D01*
X-503500Y312986D01*
X-502844Y313116D01*
X-502288Y313488D01*
X-501916Y314044D01*
X-501786Y314700D01*
X-501916Y315356D01*
X-502288Y315912D01*
X-502844Y316284D01*
X-503500Y316414D01*
D02*
G37*
G36*
Y310414D02*
X-504156Y310284D01*
X-504712Y309912D01*
X-505084Y309356D01*
X-505214Y308700D01*
X-505084Y308044D01*
X-504712Y307488D01*
X-504156Y307116D01*
X-503500Y306986D01*
X-502844Y307116D01*
X-502288Y307488D01*
X-501916Y308044D01*
X-501786Y308700D01*
X-501916Y309356D01*
X-502288Y309912D01*
X-502844Y310284D01*
X-503500Y310414D01*
D02*
G37*
G36*
X-508500D02*
X-509156Y310284D01*
X-509712Y309912D01*
X-510084Y309356D01*
X-510214Y308700D01*
X-510084Y308044D01*
X-509712Y307488D01*
X-509156Y307116D01*
X-508500Y306986D01*
X-507844Y307116D01*
X-507288Y307488D01*
X-506916Y308044D01*
X-506786Y308700D01*
X-506916Y309356D01*
X-507288Y309912D01*
X-507844Y310284D01*
X-508500Y310414D01*
D02*
G37*
G36*
X-448642Y306421D02*
X-449186Y306313D01*
X-449647Y306005D01*
X-449955Y305544D01*
X-450063Y305000D01*
X-449955Y304456D01*
X-449647Y303995D01*
X-449186Y303687D01*
X-448642Y303579D01*
X-448099Y303687D01*
X-447638Y303995D01*
X-447330Y304456D01*
X-447221Y305000D01*
X-447330Y305544D01*
X-447638Y306005D01*
X-448099Y306313D01*
X-448642Y306421D01*
D02*
G37*
G36*
X-446642Y303714D02*
X-447298Y303584D01*
X-447854Y303212D01*
X-448226Y302656D01*
X-448356Y302000D01*
X-448226Y301344D01*
X-447854Y300788D01*
X-447298Y300416D01*
X-446642Y300286D01*
X-445986Y300416D01*
X-445430Y300788D01*
X-445059Y301344D01*
X-444928Y302000D01*
X-445059Y302656D01*
X-445430Y303212D01*
X-445986Y303584D01*
X-446642Y303714D01*
D02*
G37*
G36*
X-613642Y281714D02*
X-614298Y281584D01*
X-614854Y281212D01*
X-615226Y280656D01*
X-615356Y280000D01*
X-615226Y279344D01*
X-614854Y278788D01*
X-614298Y278416D01*
X-613642Y278286D01*
X-612986Y278416D01*
X-612430Y278788D01*
X-612059Y279344D01*
X-611928Y280000D01*
X-612059Y280656D01*
X-612430Y281212D01*
X-612986Y281584D01*
X-613642Y281714D01*
D02*
G37*
G36*
X-454642Y242714D02*
X-455298Y242584D01*
X-455854Y242212D01*
X-456226Y241656D01*
X-456356Y241000D01*
X-456226Y240344D01*
X-455854Y239788D01*
X-455298Y239416D01*
X-454642Y239286D01*
X-453986Y239416D01*
X-453430Y239788D01*
X-453059Y240344D01*
X-452928Y241000D01*
X-453059Y241656D01*
X-453430Y242212D01*
X-453986Y242584D01*
X-454642Y242714D01*
D02*
G37*
G36*
X-463642D02*
X-464298Y242584D01*
X-464854Y242212D01*
X-465226Y241656D01*
X-465356Y241000D01*
X-465226Y240344D01*
X-464854Y239788D01*
X-464298Y239416D01*
X-463642Y239286D01*
X-462986Y239416D01*
X-462430Y239788D01*
X-462059Y240344D01*
X-461928Y241000D01*
X-462059Y241656D01*
X-462430Y242212D01*
X-462986Y242584D01*
X-463642Y242714D01*
D02*
G37*
G36*
X-458642Y238214D02*
X-459298Y238084D01*
X-459854Y237712D01*
X-460226Y237156D01*
X-460356Y236500D01*
X-460226Y235844D01*
X-459854Y235288D01*
X-459298Y234916D01*
X-458642Y234786D01*
X-457986Y234916D01*
X-457430Y235288D01*
X-457059Y235844D01*
X-456928Y236500D01*
X-457059Y237156D01*
X-457430Y237712D01*
X-457986Y238084D01*
X-458642Y238214D01*
D02*
G37*
G36*
X-448642Y225641D02*
X-449186Y225533D01*
X-449647Y225225D01*
X-449955Y224764D01*
X-450063Y224220D01*
X-449955Y223677D01*
X-449647Y223216D01*
X-449186Y222908D01*
X-448642Y222799D01*
X-448099Y222908D01*
X-447638Y223216D01*
X-447330Y223677D01*
X-447221Y224220D01*
X-447330Y224764D01*
X-447638Y225225D01*
X-448099Y225533D01*
X-448642Y225641D01*
D02*
G37*
G36*
X-598557Y224953D02*
X-599213Y224822D01*
X-599768Y224451D01*
X-600140Y223895D01*
X-600271Y223239D01*
X-600140Y222583D01*
X-599768Y222027D01*
X-599213Y221655D01*
X-598557Y221525D01*
X-597901Y221655D01*
X-597344Y222027D01*
X-596973Y222583D01*
X-596842Y223239D01*
X-596973Y223895D01*
X-597344Y224451D01*
X-597901Y224822D01*
X-598557Y224953D01*
D02*
G37*
G36*
X-575557Y224953D02*
X-576213Y224822D01*
X-576768Y224451D01*
X-577140Y223895D01*
X-577271Y223239D01*
X-577140Y222583D01*
X-576768Y222027D01*
X-576213Y221655D01*
X-575557Y221525D01*
X-574901Y221655D01*
X-574344Y222027D01*
X-573973Y222583D01*
X-573842Y223239D01*
X-573973Y223895D01*
X-574344Y224451D01*
X-574901Y224822D01*
X-575557Y224953D01*
D02*
G37*
G36*
X-552142Y224714D02*
X-552798Y224584D01*
X-553354Y224212D01*
X-553726Y223656D01*
X-553856Y223000D01*
X-553726Y222344D01*
X-553354Y221788D01*
X-552798Y221416D01*
X-552142Y221286D01*
X-551486Y221416D01*
X-550930Y221788D01*
X-550559Y222344D01*
X-550428Y223000D01*
X-550559Y223656D01*
X-550930Y224212D01*
X-551486Y224584D01*
X-552142Y224714D01*
D02*
G37*
G36*
X-561642Y221714D02*
X-562298Y221584D01*
X-562854Y221212D01*
X-563226Y220656D01*
X-563356Y220000D01*
X-563226Y219344D01*
X-562854Y218788D01*
X-562298Y218416D01*
X-561642Y218286D01*
X-560986Y218416D01*
X-560430Y218788D01*
X-560059Y219344D01*
X-559928Y220000D01*
X-560059Y220656D01*
X-560430Y221212D01*
X-560986Y221584D01*
X-561642Y221714D01*
D02*
G37*
G36*
X-584642Y221214D02*
X-585298Y221084D01*
X-585854Y220712D01*
X-586226Y220156D01*
X-586356Y219500D01*
X-586226Y218844D01*
X-585854Y218288D01*
X-585298Y217916D01*
X-584642Y217786D01*
X-583986Y217916D01*
X-583430Y218288D01*
X-583059Y218844D01*
X-582928Y219500D01*
X-583059Y220156D01*
X-583430Y220712D01*
X-583986Y221084D01*
X-584642Y221214D01*
D02*
G37*
G36*
X-607642D02*
X-608298Y221084D01*
X-608854Y220712D01*
X-609226Y220156D01*
X-609356Y219500D01*
X-609226Y218844D01*
X-608854Y218288D01*
X-608298Y217916D01*
X-607642Y217786D01*
X-606986Y217916D01*
X-606430Y218288D01*
X-606059Y218844D01*
X-605928Y219500D01*
X-606059Y220156D01*
X-606430Y220712D01*
X-606986Y221084D01*
X-607642Y221214D01*
D02*
G37*
G36*
X-604879Y211450D02*
X-605535Y211320D01*
X-606090Y210948D01*
X-606462Y210392D01*
X-606593Y209736D01*
X-606462Y209080D01*
X-606090Y208524D01*
X-605535Y208153D01*
X-604879Y208022D01*
X-604223Y208153D01*
X-603666Y208524D01*
X-603295Y209080D01*
X-603164Y209736D01*
X-603295Y210392D01*
X-603666Y210948D01*
X-604223Y211320D01*
X-604879Y211450D01*
D02*
G37*
G36*
X-558642Y210214D02*
X-559298Y210084D01*
X-559854Y209712D01*
X-560226Y209156D01*
X-560356Y208500D01*
X-560226Y207844D01*
X-559854Y207288D01*
X-559298Y206916D01*
X-558642Y206786D01*
X-557986Y206916D01*
X-557430Y207288D01*
X-557059Y207844D01*
X-556928Y208500D01*
X-557059Y209156D01*
X-557430Y209712D01*
X-557986Y210084D01*
X-558642Y210214D01*
D02*
G37*
G36*
X-581642D02*
X-582298Y210084D01*
X-582854Y209712D01*
X-583226Y209156D01*
X-583356Y208500D01*
X-583226Y207844D01*
X-582854Y207288D01*
X-582298Y206916D01*
X-581642Y206786D01*
X-580986Y206916D01*
X-580430Y207288D01*
X-580059Y207844D01*
X-579928Y208500D01*
X-580059Y209156D01*
X-580430Y209712D01*
X-580986Y210084D01*
X-581642Y210214D01*
D02*
G37*
G36*
X-599642Y208214D02*
X-600298Y208084D01*
X-600854Y207712D01*
X-601226Y207156D01*
X-601356Y206500D01*
X-601226Y205844D01*
X-600854Y205288D01*
X-600298Y204916D01*
X-599642Y204786D01*
X-598986Y204916D01*
X-598430Y205288D01*
X-598059Y205844D01*
X-597928Y206500D01*
X-598059Y207156D01*
X-598430Y207712D01*
X-598986Y208084D01*
X-599642Y208214D01*
D02*
G37*
G36*
X-578642Y203714D02*
X-579298Y203584D01*
X-579854Y203212D01*
X-580226Y202656D01*
X-580356Y202000D01*
X-580226Y201344D01*
X-579854Y200788D01*
X-579298Y200416D01*
X-578642Y200286D01*
X-577986Y200416D01*
X-577430Y200788D01*
X-577059Y201344D01*
X-576928Y202000D01*
X-577059Y202656D01*
X-577430Y203212D01*
X-577986Y203584D01*
X-578642Y203714D01*
D02*
G37*
G36*
X-557142Y201714D02*
X-557798Y201584D01*
X-558354Y201212D01*
X-558726Y200656D01*
X-558856Y200000D01*
X-558726Y199344D01*
X-558354Y198788D01*
X-557798Y198416D01*
X-557723Y198401D01*
X-557617Y197871D01*
X-557854Y197712D01*
X-558226Y197156D01*
X-558356Y196500D01*
X-558226Y195844D01*
X-557854Y195288D01*
X-557298Y194916D01*
X-556642Y194786D01*
X-555986Y194916D01*
X-555430Y195288D01*
X-555059Y195844D01*
X-554928Y196500D01*
X-555059Y197156D01*
X-555430Y197712D01*
X-555986Y198084D01*
X-556062Y198099D01*
X-556168Y198629D01*
X-555930Y198788D01*
X-555559Y199344D01*
X-555428Y200000D01*
X-555559Y200656D01*
X-555930Y201212D01*
X-556486Y201584D01*
X-557142Y201714D01*
D02*
G37*
G36*
X-579642Y198214D02*
X-580298Y198084D01*
X-580854Y197712D01*
X-581226Y197156D01*
X-581356Y196500D01*
X-581226Y195844D01*
X-580854Y195288D01*
X-580298Y194916D01*
X-579642Y194786D01*
X-578986Y194916D01*
X-578430Y195288D01*
X-578059Y195844D01*
X-577928Y196500D01*
X-578059Y197156D01*
X-578430Y197712D01*
X-578986Y198084D01*
X-579642Y198214D01*
D02*
G37*
G36*
X-602142D02*
X-602798Y198084D01*
X-603354Y197712D01*
X-603726Y197156D01*
X-603856Y196500D01*
X-603726Y195844D01*
X-603354Y195288D01*
X-602798Y194916D01*
X-602142Y194786D01*
X-601486Y194916D01*
X-600930Y195288D01*
X-600559Y195844D01*
X-600428Y196500D01*
X-600559Y197156D01*
X-600930Y197712D01*
X-601486Y198084D01*
X-602142Y198214D01*
D02*
G37*
G36*
X-569142Y185547D02*
X-570578Y185358D01*
X-571916Y184804D01*
X-573065Y183923D01*
X-573947Y182774D01*
X-574501Y181436D01*
X-574690Y180000D01*
X-574501Y178564D01*
X-573947Y177226D01*
X-573065Y176077D01*
X-571916Y175196D01*
X-570578Y174642D01*
X-569142Y174452D01*
X-567706Y174642D01*
X-566369Y175196D01*
X-565220Y176077D01*
X-564338Y177226D01*
X-563784Y178564D01*
X-563595Y180000D01*
X-563784Y181436D01*
X-564338Y182774D01*
X-565220Y183923D01*
X-566369Y184804D01*
X-567706Y185358D01*
X-569142Y185547D01*
D02*
G37*
G36*
X-557642Y177214D02*
X-558298Y177084D01*
X-558854Y176712D01*
X-559226Y176156D01*
X-559356Y175500D01*
X-559226Y174844D01*
X-558854Y174288D01*
X-558298Y173916D01*
X-557642Y173786D01*
X-556986Y173916D01*
X-556430Y174288D01*
X-556059Y174844D01*
X-555928Y175500D01*
X-556059Y176156D01*
X-556430Y176712D01*
X-556986Y177084D01*
X-557642Y177214D01*
D02*
G37*
G36*
X-580642D02*
X-581298Y177084D01*
X-581854Y176712D01*
X-582226Y176156D01*
X-582356Y175500D01*
X-582226Y174844D01*
X-581854Y174288D01*
X-581298Y173916D01*
X-580642Y173786D01*
X-579986Y173916D01*
X-579430Y174288D01*
X-579059Y174844D01*
X-578928Y175500D01*
X-579059Y176156D01*
X-579430Y176712D01*
X-579986Y177084D01*
X-580642Y177214D01*
D02*
G37*
G36*
X-603642D02*
X-604298Y177084D01*
X-604854Y176712D01*
X-605226Y176156D01*
X-605356Y175500D01*
X-605226Y174844D01*
X-604854Y174288D01*
X-604298Y173916D01*
X-603642Y173786D01*
X-602986Y173916D01*
X-602430Y174288D01*
X-602059Y174844D01*
X-601928Y175500D01*
X-602059Y176156D01*
X-602430Y176712D01*
X-602986Y177084D01*
X-603642Y177214D01*
D02*
G37*
G36*
X-570056Y173214D02*
X-570712Y173084D01*
X-571268Y172712D01*
X-571639Y172156D01*
X-571770Y171500D01*
X-571639Y170844D01*
X-571268Y170288D01*
X-570712Y169916D01*
X-570056Y169786D01*
X-569400Y169916D01*
X-568844Y170288D01*
X-568472Y170844D01*
X-568342Y171500D01*
X-568472Y172156D01*
X-568844Y172712D01*
X-569400Y173084D01*
X-570056Y173214D01*
D02*
G37*
G36*
X-587142Y175548D02*
X-588578Y175358D01*
X-589916Y174804D01*
X-591065Y173923D01*
X-591947Y172774D01*
X-592501Y171436D01*
X-592690Y170000D01*
X-592501Y168564D01*
X-591947Y167226D01*
X-591065Y166077D01*
X-589916Y165196D01*
X-588578Y164642D01*
X-587142Y164453D01*
X-585707Y164642D01*
X-584369Y165196D01*
X-583220Y166077D01*
X-582338Y167226D01*
X-581784Y168564D01*
X-581595Y170000D01*
X-581784Y171436D01*
X-582338Y172774D01*
X-583220Y173923D01*
X-584369Y174804D01*
X-585707Y175358D01*
X-587142Y175548D01*
D02*
G37*
G36*
X-609142D02*
X-610578Y175358D01*
X-611916Y174804D01*
X-613065Y173923D01*
X-613947Y172774D01*
X-614501Y171436D01*
X-614690Y170000D01*
X-614501Y168564D01*
X-613947Y167226D01*
X-613065Y166077D01*
X-611916Y165196D01*
X-610578Y164642D01*
X-609142Y164453D01*
X-607706Y164642D01*
X-606369Y165196D01*
X-605220Y166077D01*
X-604338Y167226D01*
X-603784Y168564D01*
X-603595Y170000D01*
X-603784Y171436D01*
X-604338Y172774D01*
X-605220Y173923D01*
X-606369Y174804D01*
X-607706Y175358D01*
X-609142Y175548D01*
D02*
G37*
G36*
X-455142Y157714D02*
X-455798Y157584D01*
X-456354Y157212D01*
X-456726Y156656D01*
X-456856Y156000D01*
X-456726Y155344D01*
X-456354Y154788D01*
X-455798Y154416D01*
X-455142Y154286D01*
X-454486Y154416D01*
X-453930Y154788D01*
X-453559Y155344D01*
X-453428Y156000D01*
X-453559Y156656D01*
X-453930Y157212D01*
X-454486Y157584D01*
X-455142Y157714D01*
D02*
G37*
G36*
X-463642D02*
X-464298Y157584D01*
X-464854Y157212D01*
X-465226Y156656D01*
X-465356Y156000D01*
X-465226Y155344D01*
X-464854Y154788D01*
X-464298Y154416D01*
X-463642Y154286D01*
X-462986Y154416D01*
X-462430Y154788D01*
X-462059Y155344D01*
X-461928Y156000D01*
X-462059Y156656D01*
X-462430Y157212D01*
X-462986Y157584D01*
X-463642Y157714D01*
D02*
G37*
G36*
X-589039Y155615D02*
X-589695Y155485D01*
X-590251Y155113D01*
X-590623Y154557D01*
X-590753Y153901D01*
X-590623Y153245D01*
X-590251Y152689D01*
X-589695Y152318D01*
X-589039Y152187D01*
X-588383Y152318D01*
X-587827Y152689D01*
X-587456Y153245D01*
X-587325Y153901D01*
X-587456Y154557D01*
X-587827Y155113D01*
X-588383Y155485D01*
X-589039Y155615D01*
D02*
G37*
G36*
X-458142Y152714D02*
X-458798Y152584D01*
X-459354Y152212D01*
X-459726Y151656D01*
X-459856Y151000D01*
X-459726Y150344D01*
X-459354Y149788D01*
X-458798Y149416D01*
X-458142Y149286D01*
X-457486Y149416D01*
X-456930Y149788D01*
X-456559Y150344D01*
X-456428Y151000D01*
X-456559Y151656D01*
X-456930Y152212D01*
X-457486Y152584D01*
X-458142Y152714D01*
D02*
G37*
G36*
X-448642Y140641D02*
X-449186Y140533D01*
X-449647Y140225D01*
X-449955Y139764D01*
X-450063Y139220D01*
X-449955Y138677D01*
X-449647Y138216D01*
X-449186Y137908D01*
X-448642Y137800D01*
X-448099Y137908D01*
X-447638Y138216D01*
X-447330Y138677D01*
X-447221Y139220D01*
X-447330Y139764D01*
X-447638Y140225D01*
X-448099Y140533D01*
X-448642Y140641D01*
D02*
G37*
G36*
X-507142Y138548D02*
X-508578Y138358D01*
X-509916Y137804D01*
X-511065Y136923D01*
X-511947Y135774D01*
X-512501Y134436D01*
X-512690Y133000D01*
X-512501Y131564D01*
X-511947Y130226D01*
X-511065Y129077D01*
X-509916Y128196D01*
X-508578Y127642D01*
X-507142Y127453D01*
X-505707Y127642D01*
X-504369Y128196D01*
X-503220Y129077D01*
X-502338Y130226D01*
X-501784Y131564D01*
X-501595Y133000D01*
X-501784Y134436D01*
X-502338Y135774D01*
X-503220Y136923D01*
X-504369Y137804D01*
X-505707Y138358D01*
X-507142Y138548D01*
D02*
G37*
G36*
X-580236Y119234D02*
X-580780Y119125D01*
X-581241Y118817D01*
X-581549Y118356D01*
X-581657Y117813D01*
X-581549Y117269D01*
X-581241Y116808D01*
X-580780Y116500D01*
X-580236Y116392D01*
X-579692Y116500D01*
X-579231Y116808D01*
X-578923Y117269D01*
X-578815Y117813D01*
X-578923Y118356D01*
X-579231Y118817D01*
X-579692Y119125D01*
X-580236Y119234D01*
D02*
G37*
G36*
X-583500Y118535D02*
X-584044Y118427D01*
X-584505Y118119D01*
X-584813Y117658D01*
X-584921Y117114D01*
X-584813Y116570D01*
X-584505Y116109D01*
X-584044Y115801D01*
X-583500Y115693D01*
X-582956Y115801D01*
X-582495Y116109D01*
X-582187Y116570D01*
X-582079Y117114D01*
X-582187Y117658D01*
X-582495Y118119D01*
X-582956Y118427D01*
X-583500Y118535D01*
D02*
G37*
G36*
X-595909Y117512D02*
X-596453Y117404D01*
X-596914Y117096D01*
X-597222Y116635D01*
X-597330Y116091D01*
X-597222Y115547D01*
X-596914Y115086D01*
X-596453Y114778D01*
X-595909Y114670D01*
X-595365Y114778D01*
X-594904Y115086D01*
X-594596Y115547D01*
X-594488Y116091D01*
X-594596Y116635D01*
X-594904Y117096D01*
X-595365Y117404D01*
X-595909Y117512D01*
D02*
G37*
G36*
X-581756Y114081D02*
X-582646Y113904D01*
X-583400Y113400D01*
X-583904Y112646D01*
X-584002Y112154D01*
X-584511D01*
X-584609Y112646D01*
X-585113Y113400D01*
X-585867Y113904D01*
X-586757Y114081D01*
X-587646Y113904D01*
X-588400Y113400D01*
X-588904Y112646D01*
X-589002Y112154D01*
X-589511D01*
X-589609Y112646D01*
X-590113Y113400D01*
X-590867Y113904D01*
X-591756Y114081D01*
X-592646Y113904D01*
X-593400Y113400D01*
X-593904Y112646D01*
X-594002Y112154D01*
X-594511D01*
X-594609Y112646D01*
X-595113Y113400D01*
X-595867Y113904D01*
X-596757Y114081D01*
X-597646Y113904D01*
X-598400Y113400D01*
X-598904Y112646D01*
X-599002Y112154D01*
X-599511D01*
X-599609Y112646D01*
X-600113Y113400D01*
X-600867Y113904D01*
X-601756Y114081D01*
X-602646Y113904D01*
X-603400Y113400D01*
X-603904Y112646D01*
X-604002Y112154D01*
X-604511D01*
X-604609Y112646D01*
X-605113Y113400D01*
X-605867Y113904D01*
X-606756Y114081D01*
X-607646Y113904D01*
X-608400Y113400D01*
X-608904Y112646D01*
X-609002Y112154D01*
X-609511D01*
X-609609Y112646D01*
X-610113Y113400D01*
X-610867Y113904D01*
X-611757Y114081D01*
X-612646Y113904D01*
X-613400Y113400D01*
X-613904Y112646D01*
X-614002Y112154D01*
X-614511D01*
X-614609Y112646D01*
X-615113Y113400D01*
X-615867Y113904D01*
X-616756Y114081D01*
X-617646Y113904D01*
X-618400Y113400D01*
X-618904Y112646D01*
X-619081Y111757D01*
X-618904Y110867D01*
X-618400Y110113D01*
X-617646Y109609D01*
X-617154Y109512D01*
Y109002D01*
X-617646Y108904D01*
X-618400Y108400D01*
X-618904Y107646D01*
X-619081Y106757D01*
X-618904Y105867D01*
X-618400Y105113D01*
X-617646Y104609D01*
X-616756Y104432D01*
X-615867Y104609D01*
X-615113Y105113D01*
X-614609Y105867D01*
X-614511Y106359D01*
X-614002D01*
X-613904Y105867D01*
X-613400Y105113D01*
X-612646Y104609D01*
X-611757Y104432D01*
X-610867Y104609D01*
X-610113Y105113D01*
X-609609Y105867D01*
X-609511Y106359D01*
X-609002D01*
X-608904Y105867D01*
X-608400Y105113D01*
X-607646Y104609D01*
X-606756Y104432D01*
X-605867Y104609D01*
X-605113Y105113D01*
X-604609Y105867D01*
X-604511Y106359D01*
X-604002D01*
X-603904Y105867D01*
X-603400Y105113D01*
X-602646Y104609D01*
X-601756Y104432D01*
X-600867Y104609D01*
X-600113Y105113D01*
X-599609Y105867D01*
X-599511Y106359D01*
X-599002D01*
X-598904Y105867D01*
X-598400Y105113D01*
X-597646Y104609D01*
X-596757Y104432D01*
X-595867Y104609D01*
X-595113Y105113D01*
X-594609Y105867D01*
X-594511Y106359D01*
X-594002D01*
X-593904Y105867D01*
X-593400Y105113D01*
X-592646Y104609D01*
X-591756Y104432D01*
X-590867Y104609D01*
X-590113Y105113D01*
X-589609Y105867D01*
X-589511Y106359D01*
X-589002D01*
X-588904Y105867D01*
X-588400Y105113D01*
X-587646Y104609D01*
X-586757Y104432D01*
X-585867Y104609D01*
X-585113Y105113D01*
X-584609Y105867D01*
X-584511Y106359D01*
X-584002D01*
X-583904Y105867D01*
X-583400Y105113D01*
X-582646Y104609D01*
X-581756Y104432D01*
X-580867Y104609D01*
X-580113Y105113D01*
X-579609Y105867D01*
X-579432Y106757D01*
X-579609Y107646D01*
X-580113Y108400D01*
X-580867Y108904D01*
X-581359Y109002D01*
Y109512D01*
X-580867Y109609D01*
X-580113Y110113D01*
X-579609Y110867D01*
X-579432Y111757D01*
X-579609Y112646D01*
X-580113Y113400D01*
X-580867Y113904D01*
X-581756Y114081D01*
D02*
G37*
G36*
X-599521Y103421D02*
X-600065Y103313D01*
X-600526Y103005D01*
X-600834Y102544D01*
X-600942Y102000D01*
X-600834Y101456D01*
X-600526Y100995D01*
X-600065Y100687D01*
X-599521Y100579D01*
X-598977Y100687D01*
X-598516Y100995D01*
X-598208Y101456D01*
X-598100Y102000D01*
X-598208Y102544D01*
X-598516Y103005D01*
X-598977Y103313D01*
X-599521Y103421D01*
D02*
G37*
G36*
X-609164Y102608D02*
X-609708Y102500D01*
X-610169Y102192D01*
X-610477Y101731D01*
X-610585Y101187D01*
X-610477Y100643D01*
X-610169Y100182D01*
X-609708Y99874D01*
X-609164Y99766D01*
X-608620Y99874D01*
X-608159Y100182D01*
X-607851Y100643D01*
X-607743Y101187D01*
X-607851Y101731D01*
X-608159Y102192D01*
X-608620Y102500D01*
X-609164Y102608D01*
D02*
G37*
G36*
X-619000Y102421D02*
X-619544Y102313D01*
X-620005Y102005D01*
X-620313Y101544D01*
X-620421Y101000D01*
X-620313Y100456D01*
X-620005Y99995D01*
X-619544Y99687D01*
X-619000Y99579D01*
X-618456Y99687D01*
X-617995Y99995D01*
X-617687Y100456D01*
X-617579Y101000D01*
X-617687Y101544D01*
X-617995Y102005D01*
X-618456Y102313D01*
X-619000Y102421D01*
D02*
G37*
G36*
X-601743Y88320D02*
X-602287Y88212D01*
X-602748Y87904D01*
X-603056Y87443D01*
X-603164Y86899D01*
X-603056Y86356D01*
X-602748Y85895D01*
X-602287Y85587D01*
X-601743Y85478D01*
X-601199Y85587D01*
X-600738Y85895D01*
X-600430Y86356D01*
X-600322Y86899D01*
X-600430Y87443D01*
X-600738Y87904D01*
X-601199Y88212D01*
X-601743Y88320D01*
D02*
G37*
G36*
X-624642Y83214D02*
X-625298Y83084D01*
X-625854Y82712D01*
X-626226Y82156D01*
X-626356Y81500D01*
X-626226Y80844D01*
X-625854Y80288D01*
X-625298Y79916D01*
X-624642Y79786D01*
X-623986Y79916D01*
X-623430Y80288D01*
X-623059Y80844D01*
X-622928Y81500D01*
X-623059Y82156D01*
X-623430Y82712D01*
X-623986Y83084D01*
X-624642Y83214D01*
D02*
G37*
G36*
X-597890Y77982D02*
X-598546Y77851D01*
X-599102Y77480D01*
X-599473Y76924D01*
X-599604Y76268D01*
X-599473Y75612D01*
X-599102Y75056D01*
X-598546Y74684D01*
X-597890Y74554D01*
X-597234Y74684D01*
X-596678Y75056D01*
X-596306Y75612D01*
X-596176Y76268D01*
X-596306Y76924D01*
X-596678Y77480D01*
X-597234Y77851D01*
X-597890Y77982D01*
D02*
G37*
G36*
X-500142Y76214D02*
X-500798Y76084D01*
X-501354Y75712D01*
X-501726Y75156D01*
X-501856Y74500D01*
X-501726Y73844D01*
X-501354Y73288D01*
X-500798Y72916D01*
X-500142Y72786D01*
X-499486Y72916D01*
X-498930Y73288D01*
X-498559Y73844D01*
X-498428Y74500D01*
X-498559Y75156D01*
X-498930Y75712D01*
X-499486Y76084D01*
X-500142Y76214D01*
D02*
G37*
G36*
X-536142Y83548D02*
X-537578Y83358D01*
X-538916Y82804D01*
X-540065Y81923D01*
X-540947Y80774D01*
X-541501Y79436D01*
X-541690Y78000D01*
X-541501Y76564D01*
X-540947Y75226D01*
X-540065Y74077D01*
X-538916Y73196D01*
X-537578Y72642D01*
X-536142Y72452D01*
X-534706Y72642D01*
X-533369Y73196D01*
X-532220Y74077D01*
X-531338Y75226D01*
X-530784Y76564D01*
X-530595Y78000D01*
X-530784Y79436D01*
X-531338Y80774D01*
X-532220Y81923D01*
X-533369Y82804D01*
X-534706Y83358D01*
X-536142Y83548D01*
D02*
G37*
G36*
X-455142Y73714D02*
X-455798Y73584D01*
X-456354Y73212D01*
X-456726Y72656D01*
X-456856Y72000D01*
X-456726Y71344D01*
X-456354Y70788D01*
X-455798Y70416D01*
X-455142Y70286D01*
X-454486Y70416D01*
X-453930Y70788D01*
X-453559Y71344D01*
X-453428Y72000D01*
X-453559Y72656D01*
X-453930Y73212D01*
X-454486Y73584D01*
X-455142Y73714D01*
D02*
G37*
G36*
X-464142D02*
X-464798Y73584D01*
X-465354Y73212D01*
X-465726Y72656D01*
X-465856Y72000D01*
X-465726Y71344D01*
X-465354Y70788D01*
X-464798Y70416D01*
X-464142Y70286D01*
X-463486Y70416D01*
X-462930Y70788D01*
X-462559Y71344D01*
X-462428Y72000D01*
X-462559Y72656D01*
X-462930Y73212D01*
X-463486Y73584D01*
X-464142Y73714D01*
D02*
G37*
G36*
X-621544Y72778D02*
X-622088Y72670D01*
X-622549Y72362D01*
X-622857Y71901D01*
X-622965Y71357D01*
X-622857Y70813D01*
X-622549Y70352D01*
X-622088Y70044D01*
X-621544Y69936D01*
X-621000Y70044D01*
X-620539Y70352D01*
X-620231Y70813D01*
X-620123Y71357D01*
X-620231Y71901D01*
X-620539Y72362D01*
X-621000Y72670D01*
X-621544Y72778D01*
D02*
G37*
G36*
X-581642Y70714D02*
X-582298Y70584D01*
X-582854Y70212D01*
X-583226Y69656D01*
X-583356Y69000D01*
X-583226Y68344D01*
X-582854Y67788D01*
X-582298Y67416D01*
X-581642Y67286D01*
X-580986Y67416D01*
X-580430Y67788D01*
X-580059Y68344D01*
X-579928Y69000D01*
X-580059Y69656D01*
X-580430Y70212D01*
X-580986Y70584D01*
X-581642Y70714D01*
D02*
G37*
G36*
X-638142Y77548D02*
X-639578Y77358D01*
X-640916Y76804D01*
X-642065Y75923D01*
X-642947Y74774D01*
X-643501Y73436D01*
X-643690Y72000D01*
X-643501Y70564D01*
X-642947Y69226D01*
X-642065Y68077D01*
X-640916Y67196D01*
X-639578Y66642D01*
X-638142Y66452D01*
X-636706Y66642D01*
X-635369Y67196D01*
X-634220Y68077D01*
X-633338Y69226D01*
X-632784Y70564D01*
X-632595Y72000D01*
X-632784Y73436D01*
X-633338Y74774D01*
X-634220Y75923D01*
X-635369Y76804D01*
X-636706Y77358D01*
X-638142Y77548D01*
D02*
G37*
G36*
X-458642Y69714D02*
X-459298Y69584D01*
X-459854Y69212D01*
X-460226Y68656D01*
X-460356Y68000D01*
X-460226Y67344D01*
X-459854Y66788D01*
X-459298Y66416D01*
X-458642Y66286D01*
X-457986Y66416D01*
X-457430Y66788D01*
X-457059Y67344D01*
X-456928Y68000D01*
X-457059Y68656D01*
X-457430Y69212D01*
X-457986Y69584D01*
X-458642Y69714D01*
D02*
G37*
G36*
X-448642Y56642D02*
X-449186Y56533D01*
X-449647Y56225D01*
X-449955Y55764D01*
X-450063Y55221D01*
X-449955Y54677D01*
X-449647Y54216D01*
X-449186Y53908D01*
X-448642Y53799D01*
X-448099Y53908D01*
X-447638Y54216D01*
X-447330Y54677D01*
X-447221Y55221D01*
X-447330Y55764D01*
X-447638Y56225D01*
X-448099Y56533D01*
X-448642Y56642D01*
D02*
G37*
G36*
X-545142Y64547D02*
X-546578Y64358D01*
X-547916Y63804D01*
X-549065Y62923D01*
X-549947Y61774D01*
X-550501Y60436D01*
X-550690Y59000D01*
X-550501Y57564D01*
X-549947Y56226D01*
X-549065Y55077D01*
X-547916Y54196D01*
X-546578Y53642D01*
X-545142Y53452D01*
X-543707Y53642D01*
X-542369Y54196D01*
X-541220Y55077D01*
X-540338Y56226D01*
X-539784Y57564D01*
X-539595Y59000D01*
X-539784Y60436D01*
X-540338Y61774D01*
X-541220Y62923D01*
X-542369Y63804D01*
X-543707Y64358D01*
X-545142Y64547D01*
D02*
G37*
G36*
X-451142Y47714D02*
X-451798Y47584D01*
X-452354Y47212D01*
X-452726Y46656D01*
X-452856Y46000D01*
X-452726Y45344D01*
X-452354Y44788D01*
X-451798Y44416D01*
X-451142Y44286D01*
X-450486Y44416D01*
X-449930Y44788D01*
X-449559Y45344D01*
X-449428Y46000D01*
X-449559Y46656D01*
X-449930Y47212D01*
X-450486Y47584D01*
X-451142Y47714D01*
D02*
G37*
G36*
X-566142Y52548D02*
X-567578Y52358D01*
X-568916Y51804D01*
X-570065Y50923D01*
X-570947Y49774D01*
X-571501Y48436D01*
X-571690Y47000D01*
X-571501Y45564D01*
X-570947Y44226D01*
X-570065Y43077D01*
X-568916Y42196D01*
X-567578Y41642D01*
X-566142Y41453D01*
X-564707Y41642D01*
X-563369Y42196D01*
X-562220Y43077D01*
X-561338Y44226D01*
X-560784Y45564D01*
X-560595Y47000D01*
X-560784Y48436D01*
X-561338Y49774D01*
X-562220Y50923D01*
X-563369Y51804D01*
X-564707Y52358D01*
X-566142Y52548D01*
D02*
G37*
G36*
X-466000Y388547D02*
X-467436Y388358D01*
X-468774Y387804D01*
X-469923Y386923D01*
X-470804Y385774D01*
X-471358Y384436D01*
X-471548Y383000D01*
X-471358Y381564D01*
X-470804Y380226D01*
X-469923Y379077D01*
X-468774Y378196D01*
X-467436Y377642D01*
X-466000Y377452D01*
X-464564Y377642D01*
X-463226Y378196D01*
X-462077Y379077D01*
X-461196Y380226D01*
X-460642Y381564D01*
X-460453Y383000D01*
X-460642Y384436D01*
X-461196Y385774D01*
X-462077Y386923D01*
X-463226Y387804D01*
X-464564Y388358D01*
X-466000Y388547D01*
D02*
G37*
G36*
X-121000Y367567D02*
X-121544Y367459D01*
X-122005Y367151D01*
X-122313Y366690D01*
X-122421Y366146D01*
X-122313Y365602D01*
X-122005Y365141D01*
X-121544Y364833D01*
X-121000Y364725D01*
X-120456Y364833D01*
X-119995Y365141D01*
X-119687Y365602D01*
X-119579Y366146D01*
X-119687Y366690D01*
X-119995Y367151D01*
X-120456Y367459D01*
X-121000Y367567D01*
D02*
G37*
G36*
X-471142Y365921D02*
X-471686Y365813D01*
X-472147Y365505D01*
X-472455Y365044D01*
X-472563Y364500D01*
X-472455Y363956D01*
X-472147Y363495D01*
X-471686Y363187D01*
X-471142Y363079D01*
X-470599Y363187D01*
X-470138Y363495D01*
X-469830Y363956D01*
X-469721Y364500D01*
X-469830Y365044D01*
X-470138Y365505D01*
X-470599Y365813D01*
X-471142Y365921D01*
D02*
G37*
G36*
X-273623Y368108D02*
X-274279Y367978D01*
X-274835Y367606D01*
X-275207Y367050D01*
X-275338Y366394D01*
X-275207Y365738D01*
X-274835Y365182D01*
X-274395Y364888D01*
X-274360Y364744D01*
Y364477D01*
X-274395Y364332D01*
X-274835Y364038D01*
X-275207Y363482D01*
X-275338Y362826D01*
X-275207Y362170D01*
X-274835Y361614D01*
X-274279Y361243D01*
X-273623Y361112D01*
X-272968Y361243D01*
X-272411Y361614D01*
X-272040Y362170D01*
X-271909Y362826D01*
X-272040Y363482D01*
X-272411Y364038D01*
X-272852Y364332D01*
X-272887Y364477D01*
Y364744D01*
X-272852Y364888D01*
X-272411Y365182D01*
X-272040Y365738D01*
X-271909Y366394D01*
X-272040Y367050D01*
X-272411Y367606D01*
X-272968Y367978D01*
X-273623Y368108D01*
D02*
G37*
G36*
X-394500Y363657D02*
X-395044Y363549D01*
X-395505Y363241D01*
X-395813Y362780D01*
X-395921Y362236D01*
X-395813Y361692D01*
X-395505Y361231D01*
X-395044Y360923D01*
X-394500Y360815D01*
X-393956Y360923D01*
X-393495Y361231D01*
X-393187Y361692D01*
X-393079Y362236D01*
X-393187Y362780D01*
X-393495Y363241D01*
X-393956Y363549D01*
X-394500Y363657D01*
D02*
G37*
G36*
X-238179Y363242D02*
X-238723Y363134D01*
X-239184Y362826D01*
X-239492Y362365D01*
X-239600Y361821D01*
X-239492Y361277D01*
X-239184Y360816D01*
X-238723Y360508D01*
X-238179Y360400D01*
X-237635Y360508D01*
X-237174Y360816D01*
X-236866Y361277D01*
X-236758Y361821D01*
X-236866Y362365D01*
X-237174Y362826D01*
X-237635Y363134D01*
X-238179Y363242D01*
D02*
G37*
G36*
X-243841Y362580D02*
X-244385Y362472D01*
X-244846Y362164D01*
X-245154Y361703D01*
X-245262Y361159D01*
X-245154Y360615D01*
X-244846Y360154D01*
X-244385Y359846D01*
X-243841Y359738D01*
X-243297Y359846D01*
X-242836Y360154D01*
X-242528Y360615D01*
X-242420Y361159D01*
X-242528Y361703D01*
X-242836Y362164D01*
X-243297Y362472D01*
X-243841Y362580D01*
D02*
G37*
G36*
X-162490Y361151D02*
X-163034Y361043D01*
X-163495Y360735D01*
X-163803Y360274D01*
X-163911Y359730D01*
X-163803Y359186D01*
X-163495Y358725D01*
X-163034Y358417D01*
X-162490Y358309D01*
X-161946Y358417D01*
X-161485Y358725D01*
X-161177Y359186D01*
X-161069Y359730D01*
X-161177Y360274D01*
X-161485Y360735D01*
X-161946Y361043D01*
X-162490Y361151D01*
D02*
G37*
G36*
X-316033D02*
X-316577Y361043D01*
X-317038Y360735D01*
X-317346Y360274D01*
X-317454Y359730D01*
X-317346Y359186D01*
X-317038Y358725D01*
X-316577Y358417D01*
X-316033Y358309D01*
X-315489Y358417D01*
X-315028Y358725D01*
X-314720Y359186D01*
X-314612Y359730D01*
X-314720Y360274D01*
X-315028Y360735D01*
X-315489Y361043D01*
X-316033Y361151D01*
D02*
G37*
G36*
X-203949Y361081D02*
X-204493Y360973D01*
X-204954Y360665D01*
X-205262Y360204D01*
X-205370Y359660D01*
X-205262Y359116D01*
X-204954Y358655D01*
X-204493Y358347D01*
X-203949Y358239D01*
X-203405Y358347D01*
X-202944Y358655D01*
X-202636Y359116D01*
X-202528Y359660D01*
X-202636Y360204D01*
X-202944Y360665D01*
X-203405Y360973D01*
X-203949Y361081D01*
D02*
G37*
G36*
X-357492D02*
X-358036Y360973D01*
X-358497Y360665D01*
X-358805Y360204D01*
X-358913Y359660D01*
X-358805Y359116D01*
X-358497Y358655D01*
X-358036Y358347D01*
X-357492Y358239D01*
X-356948Y358347D01*
X-356487Y358655D01*
X-356179Y359116D01*
X-356071Y359660D01*
X-356179Y360204D01*
X-356487Y360665D01*
X-356948Y360973D01*
X-357492Y361081D01*
D02*
G37*
G36*
X-396554Y359185D02*
X-397098Y359077D01*
X-397559Y358769D01*
X-397867Y358308D01*
X-397975Y357764D01*
X-397867Y357220D01*
X-397559Y356759D01*
X-397098Y356451D01*
X-396554Y356343D01*
X-396010Y356451D01*
X-395549Y356759D01*
X-395241Y357220D01*
X-395133Y357764D01*
X-395241Y358308D01*
X-395549Y358769D01*
X-396010Y359077D01*
X-396554Y359185D01*
D02*
G37*
G36*
X-33720Y361182D02*
X-34918Y361064D01*
X-36070Y360715D01*
X-37132Y360148D01*
X-38062Y359384D01*
X-38826Y358454D01*
X-39393Y357392D01*
X-39742Y356240D01*
X-39860Y355043D01*
X-39742Y353845D01*
X-39393Y352693D01*
X-38826Y351631D01*
X-38062Y350701D01*
X-37132Y349938D01*
X-36070Y349370D01*
X-34918Y349021D01*
X-33720Y348903D01*
X-32523Y349021D01*
X-31371Y349370D01*
X-30309Y349938D01*
X-29379Y350701D01*
X-28615Y351631D01*
X-28048Y352693D01*
X-27699Y353845D01*
X-27581Y355043D01*
X-27699Y356240D01*
X-28048Y357392D01*
X-28615Y358454D01*
X-29379Y359384D01*
X-30309Y360148D01*
X-31371Y360715D01*
X-32523Y361064D01*
X-33720Y361182D01*
D02*
G37*
G36*
X-61279D02*
X-62477Y361064D01*
X-63629Y360715D01*
X-64691Y360148D01*
X-65621Y359384D01*
X-66385Y358454D01*
X-66952Y357392D01*
X-67301Y356240D01*
X-67419Y355043D01*
X-67301Y353845D01*
X-66952Y352693D01*
X-66385Y351631D01*
X-65621Y350701D01*
X-64691Y349938D01*
X-63629Y349370D01*
X-62477Y349021D01*
X-61279Y348903D01*
X-60082Y349021D01*
X-58930Y349370D01*
X-57868Y349938D01*
X-56938Y350701D01*
X-56174Y351631D01*
X-55607Y352693D01*
X-55258Y353845D01*
X-55140Y355043D01*
X-55258Y356240D01*
X-55607Y357392D01*
X-56174Y358454D01*
X-56938Y359384D01*
X-57868Y360148D01*
X-58930Y360715D01*
X-60082Y361064D01*
X-61279Y361182D01*
D02*
G37*
G36*
X-162554Y350832D02*
X-163098Y350724D01*
X-163558Y350415D01*
X-163867Y349954D01*
X-163975Y349411D01*
X-163867Y348867D01*
X-163558Y348406D01*
X-163098Y348098D01*
X-162554Y347990D01*
X-162010Y348098D01*
X-161549Y348406D01*
X-161241Y348867D01*
X-161133Y349411D01*
X-161241Y349954D01*
X-161549Y350415D01*
X-162010Y350724D01*
X-162554Y350832D01*
D02*
G37*
G36*
X-203903D02*
X-204446Y350724D01*
X-204907Y350415D01*
X-205215Y349954D01*
X-205324Y349411D01*
X-205215Y348867D01*
X-204907Y348406D01*
X-204446Y348098D01*
X-203903Y347990D01*
X-203359Y348098D01*
X-202898Y348406D01*
X-202590Y348867D01*
X-202482Y349411D01*
X-202590Y349954D01*
X-202898Y350415D01*
X-203359Y350724D01*
X-203903Y350832D01*
D02*
G37*
G36*
X-316097D02*
X-316641Y350724D01*
X-317102Y350415D01*
X-317410Y349954D01*
X-317518Y349411D01*
X-317410Y348867D01*
X-317102Y348406D01*
X-316641Y348098D01*
X-316097Y347990D01*
X-315553Y348098D01*
X-315092Y348406D01*
X-314784Y348867D01*
X-314676Y349411D01*
X-314784Y349954D01*
X-315092Y350415D01*
X-315553Y350724D01*
X-316097Y350832D01*
D02*
G37*
G36*
X-357446D02*
X-357990Y350724D01*
X-358451Y350415D01*
X-358759Y349954D01*
X-358867Y349411D01*
X-358759Y348867D01*
X-358451Y348406D01*
X-357990Y348098D01*
X-357446Y347990D01*
X-356902Y348098D01*
X-356441Y348406D01*
X-356133Y348867D01*
X-356025Y349411D01*
X-356133Y349954D01*
X-356441Y350415D01*
X-356902Y350724D01*
X-357446Y350832D01*
D02*
G37*
G36*
X-237919Y348502D02*
X-238463Y348394D01*
X-238924Y348086D01*
X-239232Y347625D01*
X-239340Y347081D01*
X-239232Y346537D01*
X-238924Y346076D01*
X-238463Y345768D01*
X-237919Y345660D01*
X-237375Y345768D01*
X-236914Y346076D01*
X-236606Y346537D01*
X-236498Y347081D01*
X-236606Y347625D01*
X-236914Y348086D01*
X-237375Y348394D01*
X-237919Y348502D01*
D02*
G37*
G36*
X-244081Y348340D02*
X-244625Y348232D01*
X-245086Y347924D01*
X-245394Y347463D01*
X-245502Y346919D01*
X-245394Y346375D01*
X-245086Y345914D01*
X-244625Y345606D01*
X-244081Y345498D01*
X-243537Y345606D01*
X-243076Y345914D01*
X-242768Y346375D01*
X-242660Y346919D01*
X-242768Y347463D01*
X-243076Y347924D01*
X-243537Y348232D01*
X-244081Y348340D01*
D02*
G37*
G36*
X-394000Y348157D02*
X-394544Y348049D01*
X-395005Y347741D01*
X-395313Y347280D01*
X-395421Y346736D01*
X-395313Y346192D01*
X-395005Y345731D01*
X-394544Y345423D01*
X-394000Y345315D01*
X-393456Y345423D01*
X-392995Y345731D01*
X-392687Y346192D01*
X-392579Y346736D01*
X-392687Y347280D01*
X-392995Y347741D01*
X-393456Y348049D01*
X-394000Y348157D01*
D02*
G37*
G36*
X-273625Y350081D02*
X-274281Y349951D01*
X-274837Y349579D01*
X-275208Y349023D01*
X-275339Y348367D01*
X-275208Y347711D01*
X-274837Y347155D01*
X-274437Y346888D01*
X-274424Y346850D01*
Y346370D01*
X-274437Y346332D01*
X-274837Y346065D01*
X-275208Y345509D01*
X-275339Y344853D01*
X-275208Y344197D01*
X-274837Y343641D01*
X-274281Y343269D01*
X-273625Y343139D01*
X-272969Y343269D01*
X-272413Y343641D01*
X-272041Y344197D01*
X-271911Y344853D01*
X-272041Y345509D01*
X-272413Y346065D01*
X-272813Y346332D01*
X-272826Y346370D01*
Y346850D01*
X-272813Y346888D01*
X-272413Y347155D01*
X-272041Y347711D01*
X-271911Y348367D01*
X-272041Y349023D01*
X-272413Y349579D01*
X-272969Y349951D01*
X-273625Y350081D01*
D02*
G37*
G36*
X-108765Y345092D02*
X-109421Y344961D01*
X-109977Y344589D01*
X-110348Y344033D01*
X-110479Y343377D01*
X-110420Y343080D01*
X-110845Y342655D01*
X-111142Y342714D01*
X-111798Y342584D01*
X-112354Y342212D01*
X-112726Y341656D01*
X-112856Y341000D01*
X-112726Y340344D01*
X-112354Y339788D01*
X-111798Y339416D01*
X-111142Y339286D01*
X-110486Y339416D01*
X-109930Y339788D01*
X-109559Y340344D01*
X-109428Y341000D01*
X-109487Y341297D01*
X-109062Y341722D01*
X-108765Y341663D01*
X-108109Y341794D01*
X-107553Y342165D01*
X-107181Y342722D01*
X-107051Y343377D01*
X-107181Y344033D01*
X-107553Y344589D01*
X-108109Y344961D01*
X-108765Y345092D01*
D02*
G37*
G36*
X-396574Y343685D02*
X-397118Y343577D01*
X-397579Y343269D01*
X-397887Y342808D01*
X-397995Y342264D01*
X-397887Y341720D01*
X-397579Y341259D01*
X-397118Y340951D01*
X-396574Y340843D01*
X-396030Y340951D01*
X-395569Y341259D01*
X-395261Y341720D01*
X-395153Y342264D01*
X-395261Y342808D01*
X-395569Y343269D01*
X-396030Y343577D01*
X-396574Y343685D01*
D02*
G37*
G36*
X-512142Y342714D02*
X-512798Y342584D01*
X-513354Y342212D01*
X-513726Y341656D01*
X-513856Y341000D01*
X-513726Y340344D01*
X-513354Y339788D01*
X-512798Y339416D01*
X-512142Y339286D01*
X-511486Y339416D01*
X-510930Y339788D01*
X-510559Y340344D01*
X-510428Y341000D01*
X-510559Y341656D01*
X-510930Y342212D01*
X-511486Y342584D01*
X-512142Y342714D01*
D02*
G37*
G36*
X-517142D02*
X-517798Y342584D01*
X-518354Y342212D01*
X-518726Y341656D01*
X-518856Y341000D01*
X-518726Y340344D01*
X-518354Y339788D01*
X-517798Y339416D01*
X-517142Y339286D01*
X-516486Y339416D01*
X-515930Y339788D01*
X-515559Y340344D01*
X-515428Y341000D01*
X-515559Y341656D01*
X-515930Y342212D01*
X-516486Y342584D01*
X-517142Y342714D01*
D02*
G37*
G36*
X-162555Y340989D02*
X-163099Y340881D01*
X-163560Y340573D01*
X-163868Y340112D01*
X-163976Y339568D01*
X-163868Y339024D01*
X-163560Y338563D01*
X-163099Y338255D01*
X-162555Y338147D01*
X-162011Y338255D01*
X-161550Y338563D01*
X-161242Y339024D01*
X-161134Y339568D01*
X-161242Y340112D01*
X-161550Y340573D01*
X-162011Y340881D01*
X-162555Y340989D01*
D02*
G37*
G36*
X-203901D02*
X-204445Y340881D01*
X-204906Y340573D01*
X-205214Y340112D01*
X-205322Y339568D01*
X-205214Y339024D01*
X-204906Y338563D01*
X-204445Y338255D01*
X-203901Y338147D01*
X-203357Y338255D01*
X-202896Y338563D01*
X-202588Y339024D01*
X-202480Y339568D01*
X-202588Y340112D01*
X-202896Y340573D01*
X-203357Y340881D01*
X-203901Y340989D01*
D02*
G37*
G36*
X-316098D02*
X-316642Y340881D01*
X-317103Y340573D01*
X-317411Y340112D01*
X-317519Y339568D01*
X-317411Y339024D01*
X-317103Y338563D01*
X-316642Y338255D01*
X-316098Y338147D01*
X-315555Y338255D01*
X-315094Y338563D01*
X-314786Y339024D01*
X-314677Y339568D01*
X-314786Y340112D01*
X-315094Y340573D01*
X-315555Y340881D01*
X-316098Y340989D01*
D02*
G37*
G36*
X-357445D02*
X-357988Y340881D01*
X-358449Y340573D01*
X-358757Y340112D01*
X-358865Y339568D01*
X-358757Y339024D01*
X-358449Y338563D01*
X-357988Y338255D01*
X-357445Y338147D01*
X-356901Y338255D01*
X-356440Y338563D01*
X-356132Y339024D01*
X-356024Y339568D01*
X-356132Y340112D01*
X-356440Y340573D01*
X-356901Y340881D01*
X-357445Y340989D01*
D02*
G37*
G36*
X-512142Y336714D02*
X-512798Y336584D01*
X-513354Y336212D01*
X-513726Y335656D01*
X-513856Y335000D01*
X-513726Y334344D01*
X-513354Y333788D01*
X-512798Y333416D01*
X-512142Y333286D01*
X-511486Y333416D01*
X-510930Y333788D01*
X-510559Y334344D01*
X-510428Y335000D01*
X-510559Y335656D01*
X-510930Y336212D01*
X-511486Y336584D01*
X-512142Y336714D01*
D02*
G37*
G36*
X-470142Y333714D02*
X-470798Y333584D01*
X-471354Y333212D01*
X-471726Y332656D01*
X-471856Y332000D01*
X-471726Y331344D01*
X-471354Y330788D01*
X-470798Y330416D01*
X-470142Y330286D01*
X-469486Y330416D01*
X-468930Y330788D01*
X-468559Y331344D01*
X-468428Y332000D01*
X-468559Y332656D01*
X-468930Y333212D01*
X-469486Y333584D01*
X-470142Y333714D01*
D02*
G37*
G36*
X-423000Y334421D02*
X-423544Y334313D01*
X-424005Y334005D01*
X-424313Y333544D01*
X-424421Y333000D01*
X-424313Y332456D01*
X-424005Y331995D01*
X-423544Y331687D01*
X-423000Y331579D01*
X-422858Y331607D01*
X-422433Y331182D01*
X-422461Y331040D01*
X-422353Y330496D01*
X-422045Y330035D01*
X-421584Y329727D01*
X-421040Y329619D01*
X-420496Y329727D01*
X-420035Y330035D01*
X-419727Y330496D01*
X-419619Y331040D01*
X-419727Y331584D01*
X-420035Y332045D01*
X-420496Y332353D01*
X-421040Y332461D01*
X-421182Y332433D01*
X-421607Y332858D01*
X-421579Y333000D01*
X-421687Y333544D01*
X-421995Y334005D01*
X-422456Y334313D01*
X-423000Y334421D01*
D02*
G37*
G36*
X-33720Y341497D02*
X-34918Y341379D01*
X-36070Y341030D01*
X-37132Y340462D01*
X-38062Y339699D01*
X-38826Y338769D01*
X-39393Y337707D01*
X-39742Y336555D01*
X-39860Y335357D01*
X-39742Y334160D01*
X-39393Y333008D01*
X-38826Y331946D01*
X-38062Y331016D01*
X-37132Y330252D01*
X-36070Y329685D01*
X-34918Y329336D01*
X-33720Y329218D01*
X-32523Y329336D01*
X-31371Y329685D01*
X-30309Y330252D01*
X-29379Y331016D01*
X-28615Y331946D01*
X-28048Y333008D01*
X-27699Y334160D01*
X-27581Y335357D01*
X-27699Y336555D01*
X-28048Y337707D01*
X-28615Y338769D01*
X-29379Y339699D01*
X-30309Y340462D01*
X-31371Y341030D01*
X-32523Y341379D01*
X-33720Y341497D01*
D02*
G37*
G36*
X-61279D02*
X-62477Y341379D01*
X-63629Y341030D01*
X-64691Y340462D01*
X-65621Y339699D01*
X-66385Y338769D01*
X-66952Y337707D01*
X-67301Y336555D01*
X-67419Y335357D01*
X-67301Y334160D01*
X-66952Y333008D01*
X-66385Y331946D01*
X-65621Y331016D01*
X-64691Y330252D01*
X-63629Y329685D01*
X-62477Y329336D01*
X-61279Y329218D01*
X-60082Y329336D01*
X-58930Y329685D01*
X-57868Y330252D01*
X-56938Y331016D01*
X-56174Y331946D01*
X-55607Y333008D01*
X-55258Y334160D01*
X-55140Y335357D01*
X-55258Y336555D01*
X-55607Y337707D01*
X-56174Y338769D01*
X-56938Y339699D01*
X-57868Y340462D01*
X-58930Y341030D01*
X-60082Y341379D01*
X-61279Y341497D01*
D02*
G37*
G36*
X-121000Y331567D02*
X-121544Y331459D01*
X-122005Y331151D01*
X-122313Y330690D01*
X-122421Y330146D01*
X-122313Y329602D01*
X-122005Y329141D01*
X-121544Y328833D01*
X-121000Y328725D01*
X-120456Y328833D01*
X-119995Y329141D01*
X-119687Y329602D01*
X-119579Y330146D01*
X-119687Y330690D01*
X-119995Y331151D01*
X-120456Y331459D01*
X-121000Y331567D01*
D02*
G37*
G36*
X-241355Y331338D02*
X-241899Y331230D01*
X-242360Y330922D01*
X-242668Y330461D01*
X-242776Y329917D01*
X-242668Y329374D01*
X-242360Y328913D01*
X-241899Y328605D01*
X-241355Y328496D01*
X-240812Y328605D01*
X-240351Y328913D01*
X-240043Y329374D01*
X-239934Y329917D01*
X-240043Y330461D01*
X-240351Y330922D01*
X-240812Y331230D01*
X-241355Y331338D01*
D02*
G37*
G36*
X-395000Y331302D02*
X-395544Y331194D01*
X-396005Y330886D01*
X-396313Y330425D01*
X-396421Y329881D01*
X-396313Y329337D01*
X-396005Y328876D01*
X-395544Y328568D01*
X-395000Y328460D01*
X-394456Y328568D01*
X-393995Y328876D01*
X-393687Y329337D01*
X-393579Y329881D01*
X-393687Y330425D01*
X-393995Y330886D01*
X-394456Y331194D01*
X-395000Y331302D01*
D02*
G37*
G36*
X-162556Y331147D02*
X-163099Y331038D01*
X-163560Y330730D01*
X-163868Y330269D01*
X-163977Y329726D01*
X-163868Y329182D01*
X-163560Y328721D01*
X-163099Y328413D01*
X-162556Y328305D01*
X-162012Y328413D01*
X-161551Y328721D01*
X-161243Y329182D01*
X-161135Y329726D01*
X-161243Y330269D01*
X-161551Y330730D01*
X-162012Y331038D01*
X-162556Y331147D01*
D02*
G37*
G36*
X-203901D02*
X-204445Y331038D01*
X-204906Y330730D01*
X-205213Y330269D01*
X-205322Y329726D01*
X-205213Y329182D01*
X-204906Y328721D01*
X-204445Y328413D01*
X-203901Y328305D01*
X-203357Y328413D01*
X-202896Y328721D01*
X-202588Y329182D01*
X-202480Y329726D01*
X-202588Y330269D01*
X-202896Y330730D01*
X-203357Y331038D01*
X-203901Y331147D01*
D02*
G37*
G36*
X-316099D02*
X-316643Y331038D01*
X-317104Y330730D01*
X-317412Y330269D01*
X-317520Y329726D01*
X-317412Y329182D01*
X-317104Y328721D01*
X-316643Y328413D01*
X-316099Y328305D01*
X-315555Y328413D01*
X-315094Y328721D01*
X-314786Y329182D01*
X-314678Y329726D01*
X-314786Y330269D01*
X-315094Y330730D01*
X-315555Y331038D01*
X-316099Y331147D01*
D02*
G37*
G36*
X-357444D02*
X-357988Y331038D01*
X-358449Y330730D01*
X-358757Y330269D01*
X-358865Y329726D01*
X-358757Y329182D01*
X-358449Y328721D01*
X-357988Y328413D01*
X-357444Y328305D01*
X-356900Y328413D01*
X-356439Y328721D01*
X-356131Y329182D01*
X-356023Y329726D01*
X-356131Y330269D01*
X-356439Y330730D01*
X-356900Y331038D01*
X-357444Y331147D01*
D02*
G37*
G36*
X-512142Y330714D02*
X-512798Y330584D01*
X-513354Y330212D01*
X-513726Y329656D01*
X-513856Y329000D01*
X-513726Y328344D01*
X-513354Y327788D01*
X-512798Y327416D01*
X-512142Y327286D01*
X-511486Y327416D01*
X-510930Y327788D01*
X-510559Y328344D01*
X-510428Y329000D01*
X-510559Y329656D01*
X-510930Y330212D01*
X-511486Y330584D01*
X-512142Y330714D01*
D02*
G37*
G36*
X-517142D02*
X-517798Y330584D01*
X-518354Y330212D01*
X-518726Y329656D01*
X-518856Y329000D01*
X-518726Y328344D01*
X-518354Y327788D01*
X-517798Y327416D01*
X-517142Y327286D01*
X-516486Y327416D01*
X-515930Y327788D01*
X-515559Y328344D01*
X-515428Y329000D01*
X-515559Y329656D01*
X-515930Y330212D01*
X-516486Y330584D01*
X-517142Y330714D01*
D02*
G37*
G36*
X-245131Y328790D02*
X-245675Y328682D01*
X-246136Y328374D01*
X-246444Y327913D01*
X-246552Y327369D01*
X-246444Y326825D01*
X-246136Y326364D01*
X-245675Y326056D01*
X-245131Y325948D01*
X-244587Y326056D01*
X-244126Y326364D01*
X-243818Y326825D01*
X-243710Y327369D01*
X-243818Y327913D01*
X-244126Y328374D01*
X-244587Y328682D01*
X-245131Y328790D01*
D02*
G37*
G36*
X-274125Y332081D02*
X-274781Y331951D01*
X-275337Y331579D01*
X-275708Y331023D01*
X-275839Y330367D01*
X-275708Y329711D01*
X-275337Y329155D01*
X-274937Y328888D01*
X-274923Y328850D01*
Y328370D01*
X-274937Y328332D01*
X-275337Y328065D01*
X-275708Y327509D01*
X-275839Y326853D01*
X-275708Y326197D01*
X-275337Y325641D01*
X-274781Y325270D01*
X-274125Y325139D01*
X-273469Y325270D01*
X-272913Y325641D01*
X-272541Y326197D01*
X-272411Y326853D01*
X-272541Y327509D01*
X-272913Y328065D01*
X-273313Y328332D01*
X-273326Y328370D01*
Y328850D01*
X-273313Y328888D01*
X-272913Y329155D01*
X-272541Y329711D01*
X-272411Y330367D01*
X-272541Y331023D01*
X-272913Y331579D01*
X-273469Y331951D01*
X-274125Y332081D01*
D02*
G37*
G36*
X-396574Y326685D02*
X-397118Y326577D01*
X-397579Y326269D01*
X-397887Y325808D01*
X-397995Y325264D01*
X-397887Y324720D01*
X-397579Y324259D01*
X-397118Y323951D01*
X-396574Y323843D01*
X-396030Y323951D01*
X-395569Y324259D01*
X-395261Y324720D01*
X-395153Y325264D01*
X-395261Y325808D01*
X-395569Y326269D01*
X-396030Y326577D01*
X-396574Y326685D01*
D02*
G37*
G36*
X-424730Y327691D02*
X-425274Y327583D01*
X-425735Y327275D01*
X-426043Y326814D01*
X-426151Y326270D01*
X-426043Y325727D01*
X-425735Y325266D01*
X-425274Y324957D01*
X-424730Y324849D01*
X-424588Y324878D01*
X-424163Y324452D01*
X-424191Y324310D01*
X-424083Y323767D01*
X-423775Y323306D01*
X-423314Y322998D01*
X-422770Y322889D01*
X-422226Y322998D01*
X-421765Y323306D01*
X-421457Y323767D01*
X-421349Y324310D01*
X-421457Y324854D01*
X-421765Y325315D01*
X-422226Y325623D01*
X-422770Y325731D01*
X-422912Y325703D01*
X-423337Y326128D01*
X-423309Y326270D01*
X-423417Y326814D01*
X-423725Y327275D01*
X-424186Y327583D01*
X-424730Y327691D01*
D02*
G37*
G36*
X-430000Y323167D02*
X-430544Y323059D01*
X-431005Y322751D01*
X-431313Y322290D01*
X-431421Y321746D01*
X-431313Y321202D01*
X-431005Y320741D01*
X-430544Y320433D01*
X-430000Y320325D01*
X-429456Y320433D01*
X-428995Y320741D01*
X-428687Y321202D01*
X-428579Y321746D01*
X-428687Y322290D01*
X-428995Y322751D01*
X-429456Y323059D01*
X-430000Y323167D01*
D02*
G37*
G36*
X-428040Y320461D02*
X-428584Y320353D01*
X-429045Y320045D01*
X-429353Y319584D01*
X-429461Y319040D01*
X-429353Y318496D01*
X-429045Y318035D01*
X-428584Y317727D01*
X-428040Y317619D01*
X-427496Y317727D01*
X-427035Y318035D01*
X-426727Y318496D01*
X-426619Y319040D01*
X-426727Y319584D01*
X-427035Y320045D01*
X-427496Y320353D01*
X-428040Y320461D01*
D02*
G37*
G36*
X-245179Y316242D02*
X-245723Y316134D01*
X-246184Y315826D01*
X-246492Y315365D01*
X-246600Y314821D01*
X-246492Y314277D01*
X-246184Y313816D01*
X-245723Y313508D01*
X-245179Y313400D01*
X-244635Y313508D01*
X-244174Y313816D01*
X-243866Y314277D01*
X-243758Y314821D01*
X-243866Y315365D01*
X-244174Y315826D01*
X-244635Y316134D01*
X-245179Y316242D01*
D02*
G37*
G36*
X-396500Y315421D02*
X-397044Y315313D01*
X-397505Y315005D01*
X-397813Y314544D01*
X-397921Y314000D01*
X-397813Y313456D01*
X-397505Y312995D01*
X-397044Y312687D01*
X-396500Y312579D01*
X-395956Y312687D01*
X-395495Y312995D01*
X-395187Y313456D01*
X-395079Y314000D01*
X-395187Y314544D01*
X-395495Y315005D01*
X-395956Y315313D01*
X-396500Y315421D01*
D02*
G37*
G36*
X-250091Y314830D02*
X-250635Y314722D01*
X-251096Y314414D01*
X-251404Y313953D01*
X-251512Y313409D01*
X-251404Y312865D01*
X-251096Y312404D01*
X-250635Y312096D01*
X-250091Y311988D01*
X-249547Y312096D01*
X-249086Y312404D01*
X-248778Y312865D01*
X-248670Y313409D01*
X-248778Y313953D01*
X-249086Y314414D01*
X-249547Y314722D01*
X-250091Y314830D01*
D02*
G37*
G36*
X-431548Y315873D02*
X-432092Y315765D01*
X-432553Y315457D01*
X-432861Y314996D01*
X-432969Y314452D01*
X-432861Y313908D01*
X-432553Y313447D01*
X-432161Y313186D01*
X-432076Y313054D01*
X-431994Y312610D01*
X-432198Y312305D01*
X-432306Y311761D01*
X-432198Y311217D01*
X-431890Y310756D01*
X-431429Y310448D01*
X-430885Y310340D01*
X-430341Y310448D01*
X-429880Y310756D01*
X-429572Y311217D01*
X-429464Y311761D01*
X-429572Y312305D01*
X-429880Y312766D01*
X-430272Y313027D01*
X-430357Y313159D01*
X-430439Y313603D01*
X-430235Y313908D01*
X-430127Y314452D01*
X-430235Y314996D01*
X-430543Y315457D01*
X-431004Y315765D01*
X-431548Y315873D01*
D02*
G37*
G36*
X-399420Y310685D02*
X-399964Y310577D01*
X-400425Y310269D01*
X-400733Y309808D01*
X-400841Y309264D01*
X-400733Y308720D01*
X-400425Y308259D01*
X-399964Y307951D01*
X-399420Y307843D01*
X-398876Y307951D01*
X-398415Y308259D01*
X-398107Y308720D01*
X-397999Y309264D01*
X-398107Y309808D01*
X-398415Y310269D01*
X-398876Y310577D01*
X-399420Y310685D01*
D02*
G37*
G36*
X-108125Y314081D02*
X-108781Y313951D01*
X-109337Y313579D01*
X-109708Y313023D01*
X-109839Y312367D01*
X-109708Y311711D01*
X-109337Y311155D01*
X-108937Y310888D01*
X-108923Y310850D01*
Y310370D01*
X-108937Y310332D01*
X-109337Y310065D01*
X-109708Y309509D01*
X-109839Y308853D01*
X-109708Y308197D01*
X-109337Y307641D01*
X-108781Y307270D01*
X-108125Y307139D01*
X-107469Y307270D01*
X-106913Y307641D01*
X-106541Y308197D01*
X-106411Y308853D01*
X-106541Y309509D01*
X-106913Y310065D01*
X-107313Y310332D01*
X-107326Y310370D01*
Y310850D01*
X-107313Y310888D01*
X-106913Y311155D01*
X-106541Y311711D01*
X-106411Y312367D01*
X-106541Y313023D01*
X-106913Y313579D01*
X-107469Y313951D01*
X-108125Y314081D01*
D02*
G37*
G36*
X-274125D02*
X-274781Y313951D01*
X-275337Y313579D01*
X-275708Y313023D01*
X-275839Y312367D01*
X-275708Y311711D01*
X-275337Y311155D01*
X-274937Y310888D01*
X-274923Y310850D01*
Y310370D01*
X-274937Y310332D01*
X-275337Y310065D01*
X-275708Y309509D01*
X-275839Y308853D01*
X-275708Y308197D01*
X-275337Y307641D01*
X-274781Y307270D01*
X-274125Y307139D01*
X-273469Y307270D01*
X-272913Y307641D01*
X-272541Y308197D01*
X-272411Y308853D01*
X-272541Y309509D01*
X-272913Y310065D01*
X-273313Y310332D01*
X-273326Y310370D01*
Y310850D01*
X-273313Y310888D01*
X-272913Y311155D01*
X-272541Y311711D01*
X-272411Y312367D01*
X-272541Y313023D01*
X-272913Y313579D01*
X-273469Y313951D01*
X-274125Y314081D01*
D02*
G37*
G36*
X-12599Y316010D02*
X-13963Y315830D01*
X-15234Y315304D01*
X-16325Y314466D01*
X-17163Y313375D01*
X-17689Y312104D01*
X-17868Y310740D01*
X-17689Y309376D01*
X-17163Y308105D01*
X-16325Y307014D01*
X-15234Y306177D01*
X-13963Y305650D01*
X-12599Y305471D01*
X-11235Y305650D01*
X-9964Y306177D01*
X-8873Y307014D01*
X-8036Y308105D01*
X-7509Y309376D01*
X-7329Y310740D01*
X-7509Y312104D01*
X-8036Y313375D01*
X-8873Y314466D01*
X-9964Y315304D01*
X-11235Y315830D01*
X-12599Y316010D01*
D02*
G37*
G36*
X-75399D02*
X-76763Y315830D01*
X-78034Y315304D01*
X-79125Y314466D01*
X-79962Y313375D01*
X-80489Y312104D01*
X-80668Y310740D01*
X-80489Y309376D01*
X-79962Y308105D01*
X-79125Y307014D01*
X-78034Y306177D01*
X-76763Y305650D01*
X-75399Y305471D01*
X-74035Y305650D01*
X-72764Y306177D01*
X-71673Y307014D01*
X-70836Y308105D01*
X-70309Y309376D01*
X-70130Y310740D01*
X-70309Y312104D01*
X-70836Y313375D01*
X-71673Y314466D01*
X-72764Y315304D01*
X-74035Y315830D01*
X-75399Y316010D01*
D02*
G37*
G36*
X-142047Y308953D02*
X-148953D01*
Y302047D01*
X-142047D01*
Y308953D01*
D02*
G37*
G36*
X-295047D02*
X-301953D01*
Y302047D01*
X-295047D01*
Y308953D01*
D02*
G37*
G36*
X-155500Y308982D02*
X-156401Y308864D01*
X-157241Y308516D01*
X-157963Y307962D01*
X-158516Y307241D01*
X-158864Y306401D01*
X-158983Y305500D01*
X-158864Y304599D01*
X-158516Y303759D01*
X-157963Y303038D01*
X-157241Y302484D01*
X-156401Y302136D01*
X-155500Y302017D01*
X-154599Y302136D01*
X-153759Y302484D01*
X-153038Y303038D01*
X-152484Y303759D01*
X-152136Y304599D01*
X-152017Y305500D01*
X-152136Y306401D01*
X-152484Y307241D01*
X-153038Y307962D01*
X-153759Y308516D01*
X-154599Y308864D01*
X-155500Y308982D01*
D02*
G37*
G36*
X-308500D02*
X-309401Y308864D01*
X-310241Y308516D01*
X-310963Y307962D01*
X-311516Y307241D01*
X-311864Y306401D01*
X-311982Y305500D01*
X-311864Y304599D01*
X-311516Y303759D01*
X-310963Y303038D01*
X-310241Y302484D01*
X-309401Y302136D01*
X-308500Y302017D01*
X-307599Y302136D01*
X-306759Y302484D01*
X-306037Y303038D01*
X-305484Y303759D01*
X-305136Y304599D01*
X-305017Y305500D01*
X-305136Y306401D01*
X-305484Y307241D01*
X-306037Y307962D01*
X-306759Y308516D01*
X-307599Y308864D01*
X-308500Y308982D01*
D02*
G37*
G36*
X-210047Y307453D02*
X-216953D01*
Y300547D01*
X-210047D01*
Y307453D01*
D02*
G37*
G36*
X-363590D02*
X-370495D01*
Y300547D01*
X-363590D01*
Y307453D01*
D02*
G37*
G36*
X-223500Y307483D02*
X-224401Y307364D01*
X-225241Y307016D01*
X-225962Y306463D01*
X-226516Y305741D01*
X-226864Y304901D01*
X-226982Y304000D01*
X-226864Y303099D01*
X-226516Y302259D01*
X-225962Y301537D01*
X-225241Y300984D01*
X-224401Y300636D01*
X-223500Y300518D01*
X-222599Y300636D01*
X-221759Y300984D01*
X-221038Y301537D01*
X-220484Y302259D01*
X-220136Y303099D01*
X-220018Y304000D01*
X-220136Y304901D01*
X-220484Y305741D01*
X-221038Y306463D01*
X-221759Y307016D01*
X-222599Y307364D01*
X-223500Y307483D01*
D02*
G37*
G36*
X-377043D02*
X-377944Y307364D01*
X-378784Y307016D01*
X-379505Y306463D01*
X-380058Y305741D01*
X-380406Y304901D01*
X-380525Y304000D01*
X-380406Y303099D01*
X-380058Y302259D01*
X-379505Y301537D01*
X-378784Y300984D01*
X-377944Y300636D01*
X-377043Y300518D01*
X-376141Y300636D01*
X-375301Y300984D01*
X-374580Y301537D01*
X-374026Y302259D01*
X-373679Y303099D01*
X-373560Y304000D01*
X-373679Y304901D01*
X-374026Y305741D01*
X-374580Y306463D01*
X-375301Y307016D01*
X-376141Y307364D01*
X-377043Y307483D01*
D02*
G37*
G36*
X-53699Y310810D02*
X-55063Y310630D01*
X-56334Y310104D01*
X-57425Y309266D01*
X-58262Y308175D01*
X-58789Y306904D01*
X-58969Y305540D01*
X-58789Y304176D01*
X-58262Y302905D01*
X-57425Y301814D01*
X-56334Y300977D01*
X-55063Y300450D01*
X-53699Y300271D01*
X-52335Y300450D01*
X-51064Y300977D01*
X-49973Y301814D01*
X-49136Y302905D01*
X-48609Y304176D01*
X-48430Y305540D01*
X-48609Y306904D01*
X-49136Y308175D01*
X-49973Y309266D01*
X-51064Y310104D01*
X-52335Y310630D01*
X-53699Y310810D01*
D02*
G37*
G36*
X-30599Y307075D02*
X-32030Y306934D01*
X-33406Y306516D01*
X-34674Y305839D01*
X-35785Y304926D01*
X-36697Y303815D01*
X-37375Y302547D01*
X-37793Y301171D01*
X-37933Y299740D01*
X-37793Y298309D01*
X-37375Y296933D01*
X-36697Y295665D01*
X-35785Y294554D01*
X-34674Y293642D01*
X-33406Y292964D01*
X-32030Y292547D01*
X-30599Y292406D01*
X-29168Y292547D01*
X-27792Y292964D01*
X-26524Y293642D01*
X-25413Y294554D01*
X-24501Y295665D01*
X-23823Y296933D01*
X-23405Y298309D01*
X-23265Y299740D01*
X-23405Y301171D01*
X-23823Y302547D01*
X-24501Y303815D01*
X-25413Y304926D01*
X-26524Y305839D01*
X-27792Y306516D01*
X-29168Y306934D01*
X-30599Y307075D01*
D02*
G37*
G36*
X-65599Y298223D02*
X-66500Y298104D01*
X-67340Y297756D01*
X-68062Y297203D01*
X-68615Y296481D01*
X-68963Y295641D01*
X-69082Y294740D01*
X-68963Y293839D01*
X-68615Y292999D01*
X-68062Y292278D01*
X-67340Y291724D01*
X-66500Y291376D01*
X-65599Y291258D01*
X-64698Y291376D01*
X-63858Y291724D01*
X-63137Y292278D01*
X-62583Y292999D01*
X-62235Y293839D01*
X-62116Y294740D01*
X-62235Y295641D01*
X-62583Y296481D01*
X-63137Y297203D01*
X-63858Y297756D01*
X-64698Y298104D01*
X-65599Y298223D01*
D02*
G37*
G36*
X-91499D02*
X-92400Y298104D01*
X-93240Y297756D01*
X-93962Y297203D01*
X-94515Y296481D01*
X-94863Y295641D01*
X-94982Y294740D01*
X-94863Y293839D01*
X-94515Y292999D01*
X-93962Y292278D01*
X-93240Y291724D01*
X-92400Y291376D01*
X-91499Y291258D01*
X-90598Y291376D01*
X-89758Y291724D01*
X-89037Y292278D01*
X-88483Y292999D01*
X-88135Y293839D01*
X-88016Y294740D01*
X-88135Y295641D01*
X-88483Y296481D01*
X-89037Y297203D01*
X-89758Y297756D01*
X-90598Y298104D01*
X-91499Y298223D01*
D02*
G37*
G36*
X-55599Y293223D02*
X-56500Y293104D01*
X-57340Y292756D01*
X-58061Y292203D01*
X-58615Y291481D01*
X-58963Y290641D01*
X-59082Y289740D01*
X-58963Y288839D01*
X-58615Y287999D01*
X-58061Y287278D01*
X-57340Y286724D01*
X-56500Y286376D01*
X-55599Y286258D01*
X-54698Y286376D01*
X-53858Y286724D01*
X-53136Y287278D01*
X-52583Y287999D01*
X-52235Y288839D01*
X-52117Y289740D01*
X-52235Y290641D01*
X-52583Y291481D01*
X-53136Y292203D01*
X-53858Y292756D01*
X-54698Y293104D01*
X-55599Y293223D01*
D02*
G37*
G36*
X-81499D02*
X-82400Y293104D01*
X-83240Y292756D01*
X-83961Y292203D01*
X-84515Y291481D01*
X-84863Y290641D01*
X-84982Y289740D01*
X-84863Y288839D01*
X-84515Y287999D01*
X-83961Y287278D01*
X-83240Y286724D01*
X-82400Y286376D01*
X-81499Y286258D01*
X-80598Y286376D01*
X-79758Y286724D01*
X-79036Y287278D01*
X-78483Y287999D01*
X-78135Y288839D01*
X-78017Y289740D01*
X-78135Y290641D01*
X-78483Y291481D01*
X-79036Y292203D01*
X-79758Y292756D01*
X-80598Y293104D01*
X-81499Y293223D01*
D02*
G37*
G36*
X-451142Y288714D02*
X-451798Y288584D01*
X-452354Y288212D01*
X-452726Y287656D01*
X-452856Y287000D01*
X-452726Y286344D01*
X-452354Y285788D01*
X-451798Y285416D01*
X-451142Y285286D01*
X-450486Y285416D01*
X-449930Y285788D01*
X-449559Y286344D01*
X-449428Y287000D01*
X-449559Y287656D01*
X-449930Y288212D01*
X-450486Y288584D01*
X-451142Y288714D01*
D02*
G37*
G36*
X-471142Y285141D02*
X-471686Y285033D01*
X-472147Y284725D01*
X-472455Y284264D01*
X-472563Y283720D01*
X-472455Y283177D01*
X-472147Y282716D01*
X-471686Y282408D01*
X-471142Y282299D01*
X-470599Y282408D01*
X-470138Y282716D01*
X-469830Y283177D01*
X-469721Y283720D01*
X-469830Y284264D01*
X-470138Y284725D01*
X-470599Y285033D01*
X-471142Y285141D01*
D02*
G37*
G36*
X-65599Y288223D02*
X-66500Y288104D01*
X-67340Y287756D01*
X-68062Y287203D01*
X-68615Y286481D01*
X-68963Y285642D01*
X-69082Y284740D01*
X-68963Y283839D01*
X-68615Y282999D01*
X-68062Y282278D01*
X-67340Y281724D01*
X-66500Y281376D01*
X-65599Y281258D01*
X-64698Y281376D01*
X-63858Y281724D01*
X-63137Y282278D01*
X-62583Y282999D01*
X-62235Y283839D01*
X-62116Y284740D01*
X-62235Y285642D01*
X-62583Y286481D01*
X-63137Y287203D01*
X-63858Y287756D01*
X-64698Y288104D01*
X-65599Y288223D01*
D02*
G37*
G36*
X-91499D02*
X-92400Y288104D01*
X-93240Y287756D01*
X-93962Y287203D01*
X-94515Y286481D01*
X-94863Y285642D01*
X-94982Y284740D01*
X-94863Y283839D01*
X-94515Y282999D01*
X-93962Y282278D01*
X-93240Y281724D01*
X-92400Y281376D01*
X-91499Y281258D01*
X-90598Y281376D01*
X-89758Y281724D01*
X-89037Y282278D01*
X-88483Y282999D01*
X-88135Y283839D01*
X-88016Y284740D01*
X-88135Y285642D01*
X-88483Y286481D01*
X-89037Y287203D01*
X-89758Y287756D01*
X-90598Y288104D01*
X-91499Y288223D01*
D02*
G37*
G36*
X-55599Y283223D02*
X-56500Y283104D01*
X-57340Y282756D01*
X-58061Y282203D01*
X-58615Y281481D01*
X-58963Y280642D01*
X-59082Y279740D01*
X-58963Y278839D01*
X-58615Y277999D01*
X-58061Y277278D01*
X-57340Y276724D01*
X-56500Y276376D01*
X-55599Y276258D01*
X-54698Y276376D01*
X-53858Y276724D01*
X-53136Y277278D01*
X-52583Y277999D01*
X-52235Y278839D01*
X-52117Y279740D01*
X-52235Y280642D01*
X-52583Y281481D01*
X-53136Y282203D01*
X-53858Y282756D01*
X-54698Y283104D01*
X-55599Y283223D01*
D02*
G37*
G36*
X-81499D02*
X-82400Y283104D01*
X-83240Y282756D01*
X-83961Y282203D01*
X-84515Y281481D01*
X-84863Y280642D01*
X-84982Y279740D01*
X-84863Y278839D01*
X-84515Y277999D01*
X-83961Y277278D01*
X-83240Y276724D01*
X-82400Y276376D01*
X-81499Y276258D01*
X-80598Y276376D01*
X-79758Y276724D01*
X-79036Y277278D01*
X-78483Y277999D01*
X-78135Y278839D01*
X-78017Y279740D01*
X-78135Y280642D01*
X-78483Y281481D01*
X-79036Y282203D01*
X-79758Y282756D01*
X-80598Y283104D01*
X-81499Y283223D01*
D02*
G37*
G36*
X-127264Y277016D02*
X-127808Y276908D01*
X-128269Y276600D01*
X-128577Y276139D01*
X-128685Y275595D01*
X-128577Y275051D01*
X-128269Y274590D01*
X-127808Y274282D01*
X-127264Y274174D01*
X-126720Y274282D01*
X-126259Y274590D01*
X-125951Y275051D01*
X-125843Y275595D01*
X-125951Y276139D01*
X-126259Y276600D01*
X-126720Y276908D01*
X-127264Y277016D01*
D02*
G37*
G36*
X-65599Y278223D02*
X-66500Y278104D01*
X-67340Y277756D01*
X-68062Y277203D01*
X-68615Y276481D01*
X-68963Y275641D01*
X-69082Y274740D01*
X-68963Y273839D01*
X-68615Y272999D01*
X-68062Y272278D01*
X-67340Y271724D01*
X-66500Y271376D01*
X-65599Y271258D01*
X-64698Y271376D01*
X-63858Y271724D01*
X-63137Y272278D01*
X-62583Y272999D01*
X-62235Y273839D01*
X-62116Y274740D01*
X-62235Y275641D01*
X-62583Y276481D01*
X-63137Y277203D01*
X-63858Y277756D01*
X-64698Y278104D01*
X-65599Y278223D01*
D02*
G37*
G36*
X-91499D02*
X-92400Y278104D01*
X-93240Y277756D01*
X-93962Y277203D01*
X-94515Y276481D01*
X-94863Y275641D01*
X-94982Y274740D01*
X-94863Y273839D01*
X-94515Y272999D01*
X-93962Y272278D01*
X-93240Y271724D01*
X-92400Y271376D01*
X-91499Y271258D01*
X-90598Y271376D01*
X-89758Y271724D01*
X-89037Y272278D01*
X-88483Y272999D01*
X-88135Y273839D01*
X-88016Y274740D01*
X-88135Y275641D01*
X-88483Y276481D01*
X-89037Y277203D01*
X-89758Y277756D01*
X-90598Y278104D01*
X-91499Y278223D01*
D02*
G37*
G36*
X-273625Y277530D02*
X-274281Y277400D01*
X-274837Y277028D01*
X-275208Y276472D01*
X-275339Y275816D01*
X-275208Y275160D01*
X-274837Y274604D01*
X-274437Y274337D01*
X-274424Y274299D01*
Y273819D01*
X-274437Y273781D01*
X-274837Y273514D01*
X-275208Y272958D01*
X-275339Y272302D01*
X-275208Y271646D01*
X-274837Y271090D01*
X-274281Y270718D01*
X-273625Y270588D01*
X-272969Y270718D01*
X-272413Y271090D01*
X-272041Y271646D01*
X-271911Y272302D01*
X-272041Y272958D01*
X-272413Y273514D01*
X-272813Y273781D01*
X-272826Y273819D01*
Y274299D01*
X-272813Y274337D01*
X-272413Y274604D01*
X-272041Y275160D01*
X-271911Y275816D01*
X-272041Y276472D01*
X-272413Y277028D01*
X-272969Y277400D01*
X-273625Y277530D01*
D02*
G37*
G36*
X-394461Y273278D02*
X-395005Y273170D01*
X-395466Y272862D01*
X-395774Y272401D01*
X-395882Y271857D01*
X-395774Y271314D01*
X-395466Y270852D01*
X-395005Y270545D01*
X-394461Y270436D01*
X-393917Y270545D01*
X-393456Y270852D01*
X-393148Y271314D01*
X-393040Y271857D01*
X-393148Y272401D01*
X-393456Y272862D01*
X-393917Y273170D01*
X-394461Y273278D01*
D02*
G37*
G36*
X-240000Y274000D02*
X-240544Y273892D01*
X-241005Y273584D01*
X-241313Y273123D01*
X-241421Y272579D01*
X-241313Y272035D01*
X-241005Y271574D01*
X-240884Y271494D01*
Y270892D01*
X-241005Y270812D01*
X-241313Y270351D01*
X-241421Y269807D01*
X-241313Y269263D01*
X-241005Y268802D01*
X-240544Y268494D01*
X-240000Y268386D01*
X-239456Y268494D01*
X-238995Y268802D01*
X-238687Y269263D01*
X-238579Y269807D01*
X-238687Y270351D01*
X-238995Y270812D01*
X-239116Y270892D01*
Y271494D01*
X-238995Y271574D01*
X-238687Y272035D01*
X-238579Y272579D01*
X-238687Y273123D01*
X-238995Y273584D01*
X-239456Y273892D01*
X-240000Y274000D01*
D02*
G37*
G36*
X-162490Y270600D02*
X-163034Y270492D01*
X-163495Y270184D01*
X-163803Y269723D01*
X-163911Y269179D01*
X-163803Y268635D01*
X-163495Y268174D01*
X-163034Y267866D01*
X-162490Y267758D01*
X-161946Y267866D01*
X-161485Y268174D01*
X-161177Y268635D01*
X-161069Y269179D01*
X-161177Y269723D01*
X-161485Y270184D01*
X-161946Y270492D01*
X-162490Y270600D01*
D02*
G37*
G36*
X-316033D02*
X-316577Y270492D01*
X-317038Y270184D01*
X-317346Y269723D01*
X-317454Y269179D01*
X-317346Y268635D01*
X-317038Y268174D01*
X-316577Y267866D01*
X-316033Y267758D01*
X-315489Y267866D01*
X-315028Y268174D01*
X-314720Y268635D01*
X-314612Y269179D01*
X-314720Y269723D01*
X-315028Y270184D01*
X-315489Y270492D01*
X-316033Y270600D01*
D02*
G37*
G36*
X-203949Y270530D02*
X-204493Y270422D01*
X-204954Y270113D01*
X-205262Y269653D01*
X-205370Y269109D01*
X-205262Y268565D01*
X-204954Y268104D01*
X-204493Y267796D01*
X-203949Y267688D01*
X-203405Y267796D01*
X-202944Y268104D01*
X-202636Y268565D01*
X-202528Y269109D01*
X-202636Y269653D01*
X-202944Y270113D01*
X-203405Y270422D01*
X-203949Y270530D01*
D02*
G37*
G36*
X-357492D02*
X-358036Y270422D01*
X-358497Y270113D01*
X-358805Y269653D01*
X-358913Y269109D01*
X-358805Y268565D01*
X-358497Y268104D01*
X-358036Y267796D01*
X-357492Y267688D01*
X-356948Y267796D01*
X-356487Y268104D01*
X-356179Y268565D01*
X-356071Y269109D01*
X-356179Y269653D01*
X-356487Y270113D01*
X-356948Y270422D01*
X-357492Y270530D01*
D02*
G37*
G36*
X-55599Y273223D02*
X-56500Y273104D01*
X-57340Y272756D01*
X-58061Y272203D01*
X-58615Y271481D01*
X-58963Y270641D01*
X-59082Y269740D01*
X-58963Y268839D01*
X-58615Y267999D01*
X-58061Y267278D01*
X-57340Y266724D01*
X-56500Y266376D01*
X-55599Y266258D01*
X-54698Y266376D01*
X-53858Y266724D01*
X-53136Y267278D01*
X-52583Y267999D01*
X-52235Y268839D01*
X-52117Y269740D01*
X-52235Y270641D01*
X-52583Y271481D01*
X-53136Y272203D01*
X-53858Y272756D01*
X-54698Y273104D01*
X-55599Y273223D01*
D02*
G37*
G36*
X-81499D02*
X-82400Y273104D01*
X-83240Y272756D01*
X-83961Y272203D01*
X-84515Y271481D01*
X-84863Y270641D01*
X-84982Y269740D01*
X-84863Y268839D01*
X-84515Y267999D01*
X-83961Y267278D01*
X-83240Y266724D01*
X-82400Y266376D01*
X-81499Y266258D01*
X-80598Y266376D01*
X-79758Y266724D01*
X-79036Y267278D01*
X-78483Y267999D01*
X-78135Y268839D01*
X-78017Y269740D01*
X-78135Y270641D01*
X-78483Y271481D01*
X-79036Y272203D01*
X-79758Y272756D01*
X-80598Y273104D01*
X-81499Y273223D01*
D02*
G37*
G36*
X-399000Y268585D02*
X-399544Y268477D01*
X-400005Y268169D01*
X-400313Y267708D01*
X-400421Y267164D01*
X-400313Y266620D01*
X-400005Y266159D01*
X-399544Y265851D01*
X-399000Y265743D01*
X-398456Y265851D01*
X-397995Y266159D01*
X-397687Y266620D01*
X-397579Y267164D01*
X-397687Y267708D01*
X-397995Y268169D01*
X-398456Y268477D01*
X-399000Y268585D01*
D02*
G37*
G36*
X-65599Y268223D02*
X-66500Y268104D01*
X-67340Y267756D01*
X-68062Y267203D01*
X-68615Y266481D01*
X-68963Y265641D01*
X-69082Y264740D01*
X-68963Y263839D01*
X-68615Y262999D01*
X-68062Y262278D01*
X-67340Y261724D01*
X-66500Y261376D01*
X-65599Y261258D01*
X-64698Y261376D01*
X-63858Y261724D01*
X-63137Y262278D01*
X-62583Y262999D01*
X-62235Y263839D01*
X-62116Y264740D01*
X-62235Y265641D01*
X-62583Y266481D01*
X-63137Y267203D01*
X-63858Y267756D01*
X-64698Y268104D01*
X-65599Y268223D01*
D02*
G37*
G36*
X-91499D02*
X-92400Y268104D01*
X-93240Y267756D01*
X-93962Y267203D01*
X-94515Y266481D01*
X-94863Y265641D01*
X-94982Y264740D01*
X-94863Y263839D01*
X-94515Y262999D01*
X-93962Y262278D01*
X-93240Y261724D01*
X-92400Y261376D01*
X-91499Y261258D01*
X-90598Y261376D01*
X-89758Y261724D01*
X-89037Y262278D01*
X-88483Y262999D01*
X-88135Y263839D01*
X-88016Y264740D01*
X-88135Y265641D01*
X-88483Y266481D01*
X-89037Y267203D01*
X-89758Y267756D01*
X-90598Y268104D01*
X-91499Y268223D01*
D02*
G37*
G36*
X-162554Y260280D02*
X-163098Y260172D01*
X-163558Y259864D01*
X-163867Y259403D01*
X-163975Y258859D01*
X-163867Y258316D01*
X-163558Y257855D01*
X-163098Y257547D01*
X-162554Y257438D01*
X-162010Y257547D01*
X-161549Y257855D01*
X-161241Y258316D01*
X-161133Y258859D01*
X-161241Y259403D01*
X-161549Y259864D01*
X-162010Y260172D01*
X-162554Y260280D01*
D02*
G37*
G36*
X-203903D02*
X-204446Y260172D01*
X-204907Y259864D01*
X-205215Y259403D01*
X-205324Y258859D01*
X-205215Y258316D01*
X-204907Y257855D01*
X-204446Y257547D01*
X-203903Y257438D01*
X-203359Y257547D01*
X-202898Y257855D01*
X-202590Y258316D01*
X-202482Y258859D01*
X-202590Y259403D01*
X-202898Y259864D01*
X-203359Y260172D01*
X-203903Y260280D01*
D02*
G37*
G36*
X-316097D02*
X-316641Y260172D01*
X-317102Y259864D01*
X-317410Y259403D01*
X-317518Y258859D01*
X-317410Y258316D01*
X-317102Y257855D01*
X-316641Y257547D01*
X-316097Y257438D01*
X-315553Y257547D01*
X-315092Y257855D01*
X-314784Y258316D01*
X-314676Y258859D01*
X-314784Y259403D01*
X-315092Y259864D01*
X-315553Y260172D01*
X-316097Y260280D01*
D02*
G37*
G36*
X-357446D02*
X-357990Y260172D01*
X-358451Y259864D01*
X-358759Y259403D01*
X-358867Y258859D01*
X-358759Y258316D01*
X-358451Y257855D01*
X-357990Y257547D01*
X-357446Y257438D01*
X-356902Y257547D01*
X-356441Y257855D01*
X-356133Y258316D01*
X-356025Y258859D01*
X-356133Y259403D01*
X-356441Y259864D01*
X-356902Y260172D01*
X-357446Y260280D01*
D02*
G37*
G36*
X-55599Y263223D02*
X-56500Y263104D01*
X-57340Y262756D01*
X-58061Y262203D01*
X-58615Y261481D01*
X-58963Y260642D01*
X-59082Y259740D01*
X-58963Y258839D01*
X-58615Y257999D01*
X-58061Y257278D01*
X-57340Y256724D01*
X-56500Y256376D01*
X-55599Y256258D01*
X-54698Y256376D01*
X-53858Y256724D01*
X-53136Y257278D01*
X-52583Y257999D01*
X-52235Y258839D01*
X-52117Y259740D01*
X-52235Y260642D01*
X-52583Y261481D01*
X-53136Y262203D01*
X-53858Y262756D01*
X-54698Y263104D01*
X-55599Y263223D01*
D02*
G37*
G36*
X-81499D02*
X-82400Y263104D01*
X-83240Y262756D01*
X-83961Y262203D01*
X-84515Y261481D01*
X-84863Y260642D01*
X-84982Y259740D01*
X-84863Y258839D01*
X-84515Y257999D01*
X-83961Y257278D01*
X-83240Y256724D01*
X-82400Y256376D01*
X-81499Y256258D01*
X-80598Y256376D01*
X-79758Y256724D01*
X-79036Y257278D01*
X-78483Y257999D01*
X-78135Y258839D01*
X-78017Y259740D01*
X-78135Y260642D01*
X-78483Y261481D01*
X-79036Y262203D01*
X-79758Y262756D01*
X-80598Y263104D01*
X-81499Y263223D01*
D02*
G37*
G36*
X-121000Y259016D02*
X-121544Y258908D01*
X-122005Y258600D01*
X-122313Y258139D01*
X-122421Y257595D01*
X-122313Y257051D01*
X-122005Y256590D01*
X-121544Y256282D01*
X-121000Y256174D01*
X-120456Y256282D01*
X-119995Y256590D01*
X-119687Y257051D01*
X-119579Y257595D01*
X-119687Y258139D01*
X-119995Y258600D01*
X-120456Y258908D01*
X-121000Y259016D01*
D02*
G37*
G36*
X-395025Y257647D02*
X-395569Y257539D01*
X-396030Y257231D01*
X-396338Y256770D01*
X-396446Y256226D01*
X-396338Y255682D01*
X-396030Y255221D01*
X-395569Y254913D01*
X-395025Y254805D01*
X-394481Y254913D01*
X-394020Y255221D01*
X-393712Y255682D01*
X-393604Y256226D01*
X-393712Y256770D01*
X-394020Y257231D01*
X-394481Y257539D01*
X-395025Y257647D01*
D02*
G37*
G36*
X-240000Y258210D02*
X-240544Y258102D01*
X-241005Y257794D01*
X-241313Y257333D01*
X-241421Y256789D01*
X-241313Y256246D01*
X-241005Y255785D01*
X-240884Y255704D01*
Y255103D01*
X-241005Y255023D01*
X-241313Y254561D01*
X-241421Y254018D01*
X-241313Y253474D01*
X-241005Y253013D01*
X-240544Y252705D01*
X-240000Y252597D01*
X-239456Y252705D01*
X-238995Y253013D01*
X-238687Y253474D01*
X-238579Y254018D01*
X-238687Y254561D01*
X-238995Y255023D01*
X-239116Y255103D01*
Y255704D01*
X-238995Y255785D01*
X-238687Y256246D01*
X-238579Y256789D01*
X-238687Y257333D01*
X-238995Y257794D01*
X-239456Y258102D01*
X-240000Y258210D01*
D02*
G37*
G36*
X-273125Y259530D02*
X-273781Y259400D01*
X-274337Y259028D01*
X-274708Y258472D01*
X-274839Y257816D01*
X-274708Y257160D01*
X-274337Y256604D01*
X-273937Y256337D01*
X-273923Y256299D01*
Y255819D01*
X-273937Y255781D01*
X-274337Y255514D01*
X-274708Y254958D01*
X-274839Y254302D01*
X-274708Y253646D01*
X-274337Y253090D01*
X-273781Y252718D01*
X-273125Y252588D01*
X-272469Y252718D01*
X-271913Y253090D01*
X-271541Y253646D01*
X-271411Y254302D01*
X-271541Y254958D01*
X-271913Y255514D01*
X-272313Y255781D01*
X-272326Y255819D01*
Y256299D01*
X-272313Y256337D01*
X-271913Y256604D01*
X-271541Y257160D01*
X-271411Y257816D01*
X-271541Y258472D01*
X-271913Y259028D01*
X-272469Y259400D01*
X-273125Y259530D01*
D02*
G37*
G36*
X-399056Y253175D02*
X-399600Y253067D01*
X-400061Y252759D01*
X-400368Y252298D01*
X-400477Y251754D01*
X-400368Y251210D01*
X-400061Y250749D01*
X-399600Y250441D01*
X-399056Y250333D01*
X-398512Y250441D01*
X-398051Y250749D01*
X-397743Y251210D01*
X-397635Y251754D01*
X-397743Y252298D01*
X-398051Y252759D01*
X-398512Y253067D01*
X-399056Y253175D01*
D02*
G37*
G36*
X-470142Y252935D02*
X-470798Y252804D01*
X-471354Y252432D01*
X-471726Y251876D01*
X-471856Y251220D01*
X-471726Y250565D01*
X-471354Y250009D01*
X-470798Y249637D01*
X-470142Y249506D01*
X-469486Y249637D01*
X-468930Y250009D01*
X-468559Y250565D01*
X-468428Y251220D01*
X-468559Y251876D01*
X-468930Y252432D01*
X-469486Y252804D01*
X-470142Y252935D01*
D02*
G37*
G36*
X-162555Y250438D02*
X-163099Y250330D01*
X-163560Y250022D01*
X-163868Y249561D01*
X-163976Y249017D01*
X-163868Y248473D01*
X-163560Y248012D01*
X-163099Y247704D01*
X-162555Y247596D01*
X-162011Y247704D01*
X-161550Y248012D01*
X-161242Y248473D01*
X-161134Y249017D01*
X-161242Y249561D01*
X-161550Y250022D01*
X-162011Y250330D01*
X-162555Y250438D01*
D02*
G37*
G36*
X-203901D02*
X-204445Y250330D01*
X-204906Y250022D01*
X-205214Y249561D01*
X-205322Y249017D01*
X-205214Y248473D01*
X-204906Y248012D01*
X-204445Y247704D01*
X-203901Y247596D01*
X-203357Y247704D01*
X-202896Y248012D01*
X-202588Y248473D01*
X-202480Y249017D01*
X-202588Y249561D01*
X-202896Y250022D01*
X-203357Y250330D01*
X-203901Y250438D01*
D02*
G37*
G36*
X-316098D02*
X-316642Y250330D01*
X-317103Y250022D01*
X-317411Y249561D01*
X-317519Y249017D01*
X-317411Y248473D01*
X-317103Y248012D01*
X-316642Y247704D01*
X-316098Y247596D01*
X-315555Y247704D01*
X-315094Y248012D01*
X-314786Y248473D01*
X-314677Y249017D01*
X-314786Y249561D01*
X-315094Y250022D01*
X-315555Y250330D01*
X-316098Y250438D01*
D02*
G37*
G36*
X-357445D02*
X-357988Y250330D01*
X-358449Y250022D01*
X-358757Y249561D01*
X-358865Y249017D01*
X-358757Y248473D01*
X-358449Y248012D01*
X-357988Y247704D01*
X-357445Y247596D01*
X-356901Y247704D01*
X-356440Y248012D01*
X-356132Y248473D01*
X-356024Y249017D01*
X-356132Y249561D01*
X-356440Y250022D01*
X-356901Y250330D01*
X-357445Y250438D01*
D02*
G37*
G36*
X-120000Y241421D02*
X-120544Y241313D01*
X-121005Y241005D01*
X-121313Y240544D01*
X-121421Y240000D01*
X-121313Y239456D01*
X-121005Y238995D01*
X-120544Y238687D01*
X-120000Y238579D01*
X-119456Y238687D01*
X-118995Y238995D01*
X-118687Y239456D01*
X-118579Y240000D01*
X-118687Y240544D01*
X-118995Y241005D01*
X-119456Y241313D01*
X-120000Y241421D01*
D02*
G37*
G36*
X-396000Y240657D02*
X-396544Y240549D01*
X-397005Y240241D01*
X-397313Y239780D01*
X-397421Y239236D01*
X-397313Y238692D01*
X-397005Y238231D01*
X-396544Y237923D01*
X-396000Y237815D01*
X-395456Y237923D01*
X-394995Y238231D01*
X-394687Y238692D01*
X-394579Y239236D01*
X-394687Y239780D01*
X-394995Y240241D01*
X-395456Y240549D01*
X-396000Y240657D01*
D02*
G37*
G36*
X-162556Y240595D02*
X-163099Y240487D01*
X-163560Y240179D01*
X-163868Y239718D01*
X-163977Y239174D01*
X-163868Y238631D01*
X-163560Y238170D01*
X-163099Y237862D01*
X-162556Y237753D01*
X-162012Y237862D01*
X-161551Y238170D01*
X-161243Y238631D01*
X-161135Y239174D01*
X-161243Y239718D01*
X-161551Y240179D01*
X-162012Y240487D01*
X-162556Y240595D01*
D02*
G37*
G36*
X-203901D02*
X-204445Y240487D01*
X-204906Y240179D01*
X-205213Y239718D01*
X-205322Y239174D01*
X-205213Y238631D01*
X-204906Y238170D01*
X-204445Y237862D01*
X-203901Y237753D01*
X-203357Y237862D01*
X-202896Y238170D01*
X-202588Y238631D01*
X-202480Y239174D01*
X-202588Y239718D01*
X-202896Y240179D01*
X-203357Y240487D01*
X-203901Y240595D01*
D02*
G37*
G36*
X-316099D02*
X-316643Y240487D01*
X-317104Y240179D01*
X-317412Y239718D01*
X-317520Y239174D01*
X-317412Y238631D01*
X-317104Y238170D01*
X-316643Y237862D01*
X-316099Y237753D01*
X-315555Y237862D01*
X-315094Y238170D01*
X-314786Y238631D01*
X-314678Y239174D01*
X-314786Y239718D01*
X-315094Y240179D01*
X-315555Y240487D01*
X-316099Y240595D01*
D02*
G37*
G36*
X-357444D02*
X-357988Y240487D01*
X-358449Y240179D01*
X-358757Y239718D01*
X-358865Y239174D01*
X-358757Y238631D01*
X-358449Y238170D01*
X-357988Y237862D01*
X-357444Y237753D01*
X-356900Y237862D01*
X-356439Y238170D01*
X-356131Y238631D01*
X-356023Y239174D01*
X-356131Y239718D01*
X-356439Y240179D01*
X-356900Y240487D01*
X-357444Y240595D01*
D02*
G37*
G36*
X-65599Y243223D02*
X-66500Y243104D01*
X-67340Y242756D01*
X-68062Y242203D01*
X-68615Y241481D01*
X-68963Y240641D01*
X-69082Y239740D01*
X-68963Y238839D01*
X-68615Y237999D01*
X-68062Y237278D01*
X-67340Y236724D01*
X-66500Y236376D01*
X-65599Y236258D01*
X-64698Y236376D01*
X-63858Y236724D01*
X-63137Y237278D01*
X-62583Y237999D01*
X-62235Y238839D01*
X-62116Y239740D01*
X-62235Y240641D01*
X-62583Y241481D01*
X-63137Y242203D01*
X-63858Y242756D01*
X-64698Y243104D01*
X-65599Y243223D01*
D02*
G37*
G36*
X-91499D02*
X-92400Y243104D01*
X-93240Y242756D01*
X-93962Y242203D01*
X-94515Y241481D01*
X-94863Y240641D01*
X-94982Y239740D01*
X-94863Y238839D01*
X-94515Y237999D01*
X-93962Y237278D01*
X-93240Y236724D01*
X-92400Y236376D01*
X-91499Y236258D01*
X-90598Y236376D01*
X-89758Y236724D01*
X-89037Y237278D01*
X-88483Y237999D01*
X-88135Y238839D01*
X-88016Y239740D01*
X-88135Y240641D01*
X-88483Y241481D01*
X-89037Y242203D01*
X-89758Y242756D01*
X-90598Y243104D01*
X-91499Y243223D01*
D02*
G37*
G36*
X-240000Y241468D02*
X-240544Y241360D01*
X-241005Y241052D01*
X-241313Y240591D01*
X-241421Y240047D01*
X-241313Y239504D01*
X-241005Y239042D01*
X-240884Y238962D01*
Y238361D01*
X-241005Y238280D01*
X-241313Y237819D01*
X-241421Y237276D01*
X-241313Y236732D01*
X-241005Y236271D01*
X-240544Y235963D01*
X-240000Y235855D01*
X-239456Y235963D01*
X-238995Y236271D01*
X-238687Y236732D01*
X-238579Y237276D01*
X-238687Y237819D01*
X-238995Y238280D01*
X-239116Y238361D01*
Y238962D01*
X-238995Y239042D01*
X-238687Y239504D01*
X-238579Y240047D01*
X-238687Y240591D01*
X-238995Y241052D01*
X-239456Y241360D01*
X-240000Y241468D01*
D02*
G37*
G36*
X-273125Y241530D02*
X-273781Y241400D01*
X-274337Y241028D01*
X-274708Y240472D01*
X-274839Y239816D01*
X-274708Y239160D01*
X-274337Y238604D01*
X-273937Y238337D01*
X-273923Y238299D01*
Y237819D01*
X-273937Y237781D01*
X-274337Y237514D01*
X-274708Y236958D01*
X-274839Y236302D01*
X-274708Y235646D01*
X-274337Y235090D01*
X-273781Y234718D01*
X-273125Y234588D01*
X-272469Y234718D01*
X-271913Y235090D01*
X-271541Y235646D01*
X-271411Y236302D01*
X-271541Y236958D01*
X-271913Y237514D01*
X-272313Y237781D01*
X-272326Y237819D01*
Y238299D01*
X-272313Y238337D01*
X-271913Y238604D01*
X-271541Y239160D01*
X-271411Y239816D01*
X-271541Y240472D01*
X-271913Y241028D01*
X-272469Y241400D01*
X-273125Y241530D01*
D02*
G37*
G36*
X-398500Y236185D02*
X-399044Y236077D01*
X-399505Y235769D01*
X-399813Y235308D01*
X-399921Y234764D01*
X-399813Y234220D01*
X-399505Y233759D01*
X-399044Y233451D01*
X-398500Y233343D01*
X-397956Y233451D01*
X-397495Y233759D01*
X-397187Y234220D01*
X-397079Y234764D01*
X-397187Y235308D01*
X-397495Y235769D01*
X-397956Y236077D01*
X-398500Y236185D01*
D02*
G37*
G36*
X-55599Y238223D02*
X-56500Y238104D01*
X-57340Y237756D01*
X-58061Y237203D01*
X-58615Y236481D01*
X-58963Y235642D01*
X-59082Y234740D01*
X-58963Y233839D01*
X-58615Y232999D01*
X-58061Y232278D01*
X-57340Y231724D01*
X-56500Y231376D01*
X-55599Y231258D01*
X-54698Y231376D01*
X-53858Y231724D01*
X-53136Y232278D01*
X-52583Y232999D01*
X-52235Y233839D01*
X-52117Y234740D01*
X-52235Y235642D01*
X-52583Y236481D01*
X-53136Y237203D01*
X-53858Y237756D01*
X-54698Y238104D01*
X-55599Y238223D01*
D02*
G37*
G36*
X-81499D02*
X-82400Y238104D01*
X-83240Y237756D01*
X-83961Y237203D01*
X-84515Y236481D01*
X-84863Y235642D01*
X-84982Y234740D01*
X-84863Y233839D01*
X-84515Y232999D01*
X-83961Y232278D01*
X-83240Y231724D01*
X-82400Y231376D01*
X-81499Y231258D01*
X-80598Y231376D01*
X-79758Y231724D01*
X-79036Y232278D01*
X-78483Y232999D01*
X-78135Y233839D01*
X-78017Y234740D01*
X-78135Y235642D01*
X-78483Y236481D01*
X-79036Y237203D01*
X-79758Y237756D01*
X-80598Y238104D01*
X-81499Y238223D01*
D02*
G37*
G36*
X-65599Y233223D02*
X-66500Y233104D01*
X-67340Y232756D01*
X-68062Y232203D01*
X-68615Y231481D01*
X-68963Y230642D01*
X-69082Y229740D01*
X-68963Y228839D01*
X-68615Y227999D01*
X-68062Y227278D01*
X-67340Y226724D01*
X-66500Y226376D01*
X-65599Y226258D01*
X-64698Y226376D01*
X-63858Y226724D01*
X-63137Y227278D01*
X-62583Y227999D01*
X-62235Y228839D01*
X-62116Y229740D01*
X-62235Y230642D01*
X-62583Y231481D01*
X-63137Y232203D01*
X-63858Y232756D01*
X-64698Y233104D01*
X-65599Y233223D01*
D02*
G37*
G36*
X-91499D02*
X-92400Y233104D01*
X-93240Y232756D01*
X-93962Y232203D01*
X-94515Y231481D01*
X-94863Y230642D01*
X-94982Y229740D01*
X-94863Y228839D01*
X-94515Y227999D01*
X-93962Y227278D01*
X-93240Y226724D01*
X-92400Y226376D01*
X-91499Y226258D01*
X-90598Y226376D01*
X-89758Y226724D01*
X-89037Y227278D01*
X-88483Y227999D01*
X-88135Y228839D01*
X-88016Y229740D01*
X-88135Y230642D01*
X-88483Y231481D01*
X-89037Y232203D01*
X-89758Y232756D01*
X-90598Y233104D01*
X-91499Y233223D01*
D02*
G37*
G36*
X-399000Y227157D02*
X-399544Y227049D01*
X-400005Y226741D01*
X-400313Y226280D01*
X-400421Y225736D01*
X-400313Y225192D01*
X-400005Y224731D01*
X-399544Y224423D01*
X-399000Y224315D01*
X-398456Y224423D01*
X-397995Y224731D01*
X-397687Y225192D01*
X-397579Y225736D01*
X-397687Y226280D01*
X-397995Y226741D01*
X-398456Y227049D01*
X-399000Y227157D01*
D02*
G37*
G36*
X-55599Y228223D02*
X-56500Y228104D01*
X-57340Y227756D01*
X-58061Y227203D01*
X-58615Y226481D01*
X-58963Y225641D01*
X-59082Y224740D01*
X-58963Y223839D01*
X-58615Y222999D01*
X-58061Y222278D01*
X-57340Y221724D01*
X-56500Y221376D01*
X-55599Y221258D01*
X-54698Y221376D01*
X-53858Y221724D01*
X-53136Y222278D01*
X-52583Y222999D01*
X-52235Y223839D01*
X-52117Y224740D01*
X-52235Y225641D01*
X-52583Y226481D01*
X-53136Y227203D01*
X-53858Y227756D01*
X-54698Y228104D01*
X-55599Y228223D01*
D02*
G37*
G36*
X-81499D02*
X-82400Y228104D01*
X-83240Y227756D01*
X-83961Y227203D01*
X-84515Y226481D01*
X-84863Y225641D01*
X-84982Y224740D01*
X-84863Y223839D01*
X-84515Y222999D01*
X-83961Y222278D01*
X-83240Y221724D01*
X-82400Y221376D01*
X-81499Y221258D01*
X-80598Y221376D01*
X-79758Y221724D01*
X-79036Y222278D01*
X-78483Y222999D01*
X-78135Y223839D01*
X-78017Y224740D01*
X-78135Y225641D01*
X-78483Y226481D01*
X-79036Y227203D01*
X-79758Y227756D01*
X-80598Y228104D01*
X-81499Y228223D01*
D02*
G37*
G36*
X-273000Y223718D02*
X-273656Y223587D01*
X-274212Y223216D01*
X-274584Y222660D01*
X-274714Y222004D01*
X-274584Y221348D01*
X-274212Y220792D01*
X-273656Y220420D01*
X-273000Y220290D01*
X-272344Y220420D01*
X-271788Y220792D01*
X-271416Y221348D01*
X-271286Y222004D01*
X-271416Y222660D01*
X-271788Y223216D01*
X-272344Y223587D01*
X-273000Y223718D01*
D02*
G37*
G36*
X-125144Y223076D02*
X-125688Y222968D01*
X-126149Y222660D01*
X-126457Y222199D01*
X-126565Y221655D01*
X-126457Y221111D01*
X-126149Y220651D01*
X-125688Y220342D01*
X-125144Y220234D01*
X-124600Y220342D01*
X-124139Y220651D01*
X-123831Y221111D01*
X-123723Y221655D01*
X-123831Y222199D01*
X-124139Y222660D01*
X-124600Y222968D01*
X-125144Y223076D01*
D02*
G37*
G36*
X-239920Y225210D02*
X-240464Y225102D01*
X-240925Y224794D01*
X-241233Y224333D01*
X-241341Y223789D01*
X-241233Y223246D01*
X-240925Y222785D01*
X-240805Y222704D01*
Y222103D01*
X-240925Y222023D01*
X-241233Y221562D01*
X-241341Y221018D01*
X-241233Y220474D01*
X-240925Y220013D01*
X-240464Y219705D01*
X-239920Y219597D01*
X-239376Y219705D01*
X-238915Y220013D01*
X-238608Y220474D01*
X-238499Y221018D01*
X-238608Y221562D01*
X-238915Y222023D01*
X-239036Y222103D01*
Y222704D01*
X-238915Y222785D01*
X-238608Y223246D01*
X-238499Y223789D01*
X-238608Y224333D01*
X-238915Y224794D01*
X-239376Y225102D01*
X-239920Y225210D01*
D02*
G37*
G36*
X-394500Y222421D02*
X-395044Y222313D01*
X-395505Y222005D01*
X-395813Y221544D01*
X-395921Y221000D01*
X-395813Y220456D01*
X-395505Y219995D01*
X-395044Y219687D01*
X-394500Y219579D01*
X-393956Y219687D01*
X-393495Y219995D01*
X-393187Y220456D01*
X-393079Y221000D01*
X-393187Y221544D01*
X-393495Y222005D01*
X-393956Y222313D01*
X-394500Y222421D01*
D02*
G37*
G36*
X-65599Y223223D02*
X-66500Y223104D01*
X-67340Y222756D01*
X-68062Y222203D01*
X-68615Y221481D01*
X-68963Y220641D01*
X-69082Y219740D01*
X-68963Y218839D01*
X-68615Y217999D01*
X-68062Y217278D01*
X-67340Y216724D01*
X-66500Y216376D01*
X-65599Y216258D01*
X-64698Y216376D01*
X-63858Y216724D01*
X-63137Y217278D01*
X-62583Y217999D01*
X-62235Y218839D01*
X-62116Y219740D01*
X-62235Y220641D01*
X-62583Y221481D01*
X-63137Y222203D01*
X-63858Y222756D01*
X-64698Y223104D01*
X-65599Y223223D01*
D02*
G37*
G36*
X-91499D02*
X-92400Y223104D01*
X-93240Y222756D01*
X-93962Y222203D01*
X-94515Y221481D01*
X-94863Y220641D01*
X-94982Y219740D01*
X-94863Y218839D01*
X-94515Y217999D01*
X-93962Y217278D01*
X-93240Y216724D01*
X-92400Y216376D01*
X-91499Y216258D01*
X-90598Y216376D01*
X-89758Y216724D01*
X-89037Y217278D01*
X-88483Y217999D01*
X-88135Y218839D01*
X-88016Y219740D01*
X-88135Y220641D01*
X-88483Y221481D01*
X-89037Y222203D01*
X-89758Y222756D01*
X-90598Y223104D01*
X-91499Y223223D01*
D02*
G37*
G36*
X-271634Y219564D02*
X-272290Y219434D01*
X-272846Y219062D01*
X-273218Y218506D01*
X-273348Y217850D01*
X-273218Y217195D01*
X-272846Y216638D01*
X-272290Y216267D01*
X-271634Y216136D01*
X-270978Y216267D01*
X-270422Y216638D01*
X-270051Y217195D01*
X-269920Y217850D01*
X-270051Y218506D01*
X-270422Y219062D01*
X-270978Y219434D01*
X-271634Y219564D01*
D02*
G37*
G36*
X-142047Y218953D02*
X-148953D01*
Y212047D01*
X-142047D01*
Y218953D01*
D02*
G37*
G36*
X-295047D02*
X-301953D01*
Y212047D01*
X-295047D01*
Y218953D01*
D02*
G37*
G36*
X-155500Y218983D02*
X-156401Y218864D01*
X-157241Y218516D01*
X-157963Y217963D01*
X-158516Y217241D01*
X-158864Y216401D01*
X-158983Y215500D01*
X-158864Y214599D01*
X-158516Y213759D01*
X-157963Y213037D01*
X-157241Y212484D01*
X-156401Y212136D01*
X-155500Y212017D01*
X-154599Y212136D01*
X-153759Y212484D01*
X-153038Y213037D01*
X-152484Y213759D01*
X-152136Y214599D01*
X-152017Y215500D01*
X-152136Y216401D01*
X-152484Y217241D01*
X-153038Y217963D01*
X-153759Y218516D01*
X-154599Y218864D01*
X-155500Y218983D01*
D02*
G37*
G36*
X-308500D02*
X-309401Y218864D01*
X-310241Y218516D01*
X-310963Y217963D01*
X-311516Y217241D01*
X-311864Y216401D01*
X-311982Y215500D01*
X-311864Y214599D01*
X-311516Y213759D01*
X-310963Y213037D01*
X-310241Y212484D01*
X-309401Y212136D01*
X-308500Y212017D01*
X-307599Y212136D01*
X-306759Y212484D01*
X-306037Y213037D01*
X-305484Y213759D01*
X-305136Y214599D01*
X-305017Y215500D01*
X-305136Y216401D01*
X-305484Y217241D01*
X-306037Y217963D01*
X-306759Y218516D01*
X-307599Y218864D01*
X-308500Y218983D01*
D02*
G37*
G36*
X-55599Y218223D02*
X-56500Y218104D01*
X-57340Y217756D01*
X-58061Y217203D01*
X-58615Y216481D01*
X-58963Y215641D01*
X-59082Y214740D01*
X-58963Y213839D01*
X-58615Y212999D01*
X-58061Y212278D01*
X-57340Y211724D01*
X-56500Y211376D01*
X-55599Y211258D01*
X-54698Y211376D01*
X-53858Y211724D01*
X-53136Y212278D01*
X-52583Y212999D01*
X-52235Y213839D01*
X-52117Y214740D01*
X-52235Y215641D01*
X-52583Y216481D01*
X-53136Y217203D01*
X-53858Y217756D01*
X-54698Y218104D01*
X-55599Y218223D01*
D02*
G37*
G36*
X-81499D02*
X-82400Y218104D01*
X-83240Y217756D01*
X-83961Y217203D01*
X-84515Y216481D01*
X-84863Y215641D01*
X-84982Y214740D01*
X-84863Y213839D01*
X-84515Y212999D01*
X-83961Y212278D01*
X-83240Y211724D01*
X-82400Y211376D01*
X-81499Y211258D01*
X-80598Y211376D01*
X-79758Y211724D01*
X-79036Y212278D01*
X-78483Y212999D01*
X-78135Y213839D01*
X-78017Y214740D01*
X-78135Y215641D01*
X-78483Y216481D01*
X-79036Y217203D01*
X-79758Y217756D01*
X-80598Y218104D01*
X-81499Y218223D01*
D02*
G37*
G36*
X-210047Y216953D02*
X-216953D01*
Y210047D01*
X-210047D01*
Y216953D01*
D02*
G37*
G36*
X-363590D02*
X-370495D01*
Y210047D01*
X-363590D01*
Y216953D01*
D02*
G37*
G36*
X-223500Y216983D02*
X-224401Y216864D01*
X-225241Y216516D01*
X-225962Y215963D01*
X-226516Y215241D01*
X-226864Y214401D01*
X-226982Y213500D01*
X-226864Y212599D01*
X-226516Y211759D01*
X-225962Y211037D01*
X-225241Y210484D01*
X-224401Y210136D01*
X-223500Y210017D01*
X-222599Y210136D01*
X-221759Y210484D01*
X-221038Y211037D01*
X-220484Y211759D01*
X-220136Y212599D01*
X-220018Y213500D01*
X-220136Y214401D01*
X-220484Y215241D01*
X-221038Y215963D01*
X-221759Y216516D01*
X-222599Y216864D01*
X-223500Y216983D01*
D02*
G37*
G36*
X-377043D02*
X-377944Y216864D01*
X-378784Y216516D01*
X-379505Y215963D01*
X-380058Y215241D01*
X-380406Y214401D01*
X-380525Y213500D01*
X-380406Y212599D01*
X-380058Y211759D01*
X-379505Y211037D01*
X-378784Y210484D01*
X-377944Y210136D01*
X-377043Y210017D01*
X-376141Y210136D01*
X-375301Y210484D01*
X-374580Y211037D01*
X-374026Y211759D01*
X-373679Y212599D01*
X-373560Y213500D01*
X-373679Y214401D01*
X-374026Y215241D01*
X-374580Y215963D01*
X-375301Y216516D01*
X-376141Y216864D01*
X-377043Y216983D01*
D02*
G37*
G36*
X-65599Y213223D02*
X-66500Y213104D01*
X-67340Y212756D01*
X-68062Y212203D01*
X-68615Y211481D01*
X-68963Y210642D01*
X-69082Y209740D01*
X-68963Y208839D01*
X-68615Y207999D01*
X-68062Y207278D01*
X-67340Y206724D01*
X-66500Y206376D01*
X-65599Y206258D01*
X-64698Y206376D01*
X-63858Y206724D01*
X-63137Y207278D01*
X-62583Y207999D01*
X-62235Y208839D01*
X-62116Y209740D01*
X-62235Y210642D01*
X-62583Y211481D01*
X-63137Y212203D01*
X-63858Y212756D01*
X-64698Y213104D01*
X-65599Y213223D01*
D02*
G37*
G36*
X-91499D02*
X-92400Y213104D01*
X-93240Y212756D01*
X-93962Y212203D01*
X-94515Y211481D01*
X-94863Y210642D01*
X-94982Y209740D01*
X-94863Y208839D01*
X-94515Y207999D01*
X-93962Y207278D01*
X-93240Y206724D01*
X-92400Y206376D01*
X-91499Y206258D01*
X-90598Y206376D01*
X-89758Y206724D01*
X-89037Y207278D01*
X-88483Y207999D01*
X-88135Y208839D01*
X-88016Y209740D01*
X-88135Y210642D01*
X-88483Y211481D01*
X-89037Y212203D01*
X-89758Y212756D01*
X-90598Y213104D01*
X-91499Y213223D01*
D02*
G37*
G36*
X-55599Y208223D02*
X-56500Y208104D01*
X-57340Y207756D01*
X-58061Y207203D01*
X-58615Y206481D01*
X-58963Y205642D01*
X-59082Y204740D01*
X-58963Y203839D01*
X-58615Y202999D01*
X-58061Y202278D01*
X-57340Y201724D01*
X-56500Y201376D01*
X-55599Y201258D01*
X-54698Y201376D01*
X-53858Y201724D01*
X-53136Y202278D01*
X-52583Y202999D01*
X-52235Y203839D01*
X-52117Y204740D01*
X-52235Y205642D01*
X-52583Y206481D01*
X-53136Y207203D01*
X-53858Y207756D01*
X-54698Y208104D01*
X-55599Y208223D01*
D02*
G37*
G36*
X-81499D02*
X-82400Y208104D01*
X-83240Y207756D01*
X-83961Y207203D01*
X-84515Y206481D01*
X-84863Y205642D01*
X-84982Y204740D01*
X-84863Y203839D01*
X-84515Y202999D01*
X-83961Y202278D01*
X-83240Y201724D01*
X-82400Y201376D01*
X-81499Y201258D01*
X-80598Y201376D01*
X-79758Y201724D01*
X-79036Y202278D01*
X-78483Y202999D01*
X-78135Y203839D01*
X-78017Y204740D01*
X-78135Y205642D01*
X-78483Y206481D01*
X-79036Y207203D01*
X-79758Y207756D01*
X-80598Y208104D01*
X-81499Y208223D01*
D02*
G37*
G36*
X-450142Y203714D02*
X-450798Y203584D01*
X-451354Y203212D01*
X-451726Y202656D01*
X-451856Y202000D01*
X-451726Y201344D01*
X-451354Y200788D01*
X-450798Y200416D01*
X-450142Y200286D01*
X-449486Y200416D01*
X-448930Y200788D01*
X-448559Y201344D01*
X-448428Y202000D01*
X-448559Y202656D01*
X-448930Y203212D01*
X-449486Y203584D01*
X-450142Y203714D01*
D02*
G37*
G36*
X-471142Y200142D02*
X-471686Y200033D01*
X-472147Y199725D01*
X-472455Y199264D01*
X-472563Y198721D01*
X-472455Y198177D01*
X-472147Y197716D01*
X-471686Y197408D01*
X-471142Y197300D01*
X-470599Y197408D01*
X-470138Y197716D01*
X-469830Y198177D01*
X-469721Y198721D01*
X-469830Y199264D01*
X-470138Y199725D01*
X-470599Y200033D01*
X-471142Y200142D01*
D02*
G37*
G36*
X-65599Y188223D02*
X-66500Y188104D01*
X-67340Y187756D01*
X-68062Y187203D01*
X-68615Y186481D01*
X-68963Y185642D01*
X-69082Y184740D01*
X-68963Y183839D01*
X-68615Y182999D01*
X-68062Y182278D01*
X-67340Y181724D01*
X-66500Y181376D01*
X-65599Y181258D01*
X-64698Y181376D01*
X-63858Y181724D01*
X-63137Y182278D01*
X-62583Y182999D01*
X-62235Y183839D01*
X-62116Y184740D01*
X-62235Y185642D01*
X-62583Y186481D01*
X-63137Y187203D01*
X-63858Y187756D01*
X-64698Y188104D01*
X-65599Y188223D01*
D02*
G37*
G36*
X-91499D02*
X-92400Y188104D01*
X-93240Y187756D01*
X-93962Y187203D01*
X-94515Y186481D01*
X-94863Y185642D01*
X-94982Y184740D01*
X-94863Y183839D01*
X-94515Y182999D01*
X-93962Y182278D01*
X-93240Y181724D01*
X-92400Y181376D01*
X-91499Y181258D01*
X-90598Y181376D01*
X-89758Y181724D01*
X-89037Y182278D01*
X-88483Y182999D01*
X-88135Y183839D01*
X-88016Y184740D01*
X-88135Y185642D01*
X-88483Y186481D01*
X-89037Y187203D01*
X-89758Y187756D01*
X-90598Y188104D01*
X-91499Y188223D01*
D02*
G37*
G36*
X-55599Y183223D02*
X-56500Y183104D01*
X-57340Y182756D01*
X-58061Y182203D01*
X-58615Y181481D01*
X-58963Y180641D01*
X-59082Y179740D01*
X-58963Y178839D01*
X-58615Y177999D01*
X-58061Y177278D01*
X-57340Y176724D01*
X-56500Y176376D01*
X-55599Y176258D01*
X-54698Y176376D01*
X-53858Y176724D01*
X-53136Y177278D01*
X-52583Y177999D01*
X-52235Y178839D01*
X-52117Y179740D01*
X-52235Y180641D01*
X-52583Y181481D01*
X-53136Y182203D01*
X-53858Y182756D01*
X-54698Y183104D01*
X-55599Y183223D01*
D02*
G37*
G36*
X-81499D02*
X-82400Y183104D01*
X-83240Y182756D01*
X-83961Y182203D01*
X-84515Y181481D01*
X-84863Y180641D01*
X-84982Y179740D01*
X-84863Y178839D01*
X-84515Y177999D01*
X-83961Y177278D01*
X-83240Y176724D01*
X-82400Y176376D01*
X-81499Y176258D01*
X-80598Y176376D01*
X-79758Y176724D01*
X-79036Y177278D01*
X-78483Y177999D01*
X-78135Y178839D01*
X-78017Y179740D01*
X-78135Y180641D01*
X-78483Y181481D01*
X-79036Y182203D01*
X-79758Y182756D01*
X-80598Y183104D01*
X-81499Y183223D01*
D02*
G37*
G36*
X-120000Y177421D02*
X-120544Y177313D01*
X-121005Y177005D01*
X-121313Y176544D01*
X-121421Y176000D01*
X-121313Y175456D01*
X-121005Y174995D01*
X-120544Y174687D01*
X-120000Y174579D01*
X-119456Y174687D01*
X-118995Y174995D01*
X-118687Y175456D01*
X-118579Y176000D01*
X-118687Y176544D01*
X-118995Y177005D01*
X-119456Y177313D01*
X-120000Y177421D01*
D02*
G37*
G36*
X-397500Y176101D02*
X-398044Y175993D01*
X-398505Y175685D01*
X-398813Y175224D01*
X-398921Y174680D01*
X-398813Y174136D01*
X-398505Y173675D01*
X-398044Y173367D01*
X-397500Y173259D01*
X-396956Y173367D01*
X-396495Y173675D01*
X-396187Y174136D01*
X-396079Y174680D01*
X-396187Y175224D01*
X-396495Y175685D01*
X-396956Y175993D01*
X-397500Y176101D01*
D02*
G37*
G36*
X-65599Y178223D02*
X-66500Y178104D01*
X-67340Y177756D01*
X-68062Y177203D01*
X-68615Y176481D01*
X-68963Y175642D01*
X-69082Y174740D01*
X-68963Y173839D01*
X-68615Y172999D01*
X-68062Y172278D01*
X-67340Y171724D01*
X-66500Y171376D01*
X-65599Y171258D01*
X-64698Y171376D01*
X-63858Y171724D01*
X-63137Y172278D01*
X-62583Y172999D01*
X-62235Y173839D01*
X-62116Y174740D01*
X-62235Y175642D01*
X-62583Y176481D01*
X-63137Y177203D01*
X-63858Y177756D01*
X-64698Y178104D01*
X-65599Y178223D01*
D02*
G37*
G36*
X-91499D02*
X-92400Y178104D01*
X-93240Y177756D01*
X-93962Y177203D01*
X-94515Y176481D01*
X-94863Y175642D01*
X-94982Y174740D01*
X-94863Y173839D01*
X-94515Y172999D01*
X-93962Y172278D01*
X-93240Y171724D01*
X-92400Y171376D01*
X-91499Y171258D01*
X-90598Y171376D01*
X-89758Y171724D01*
X-89037Y172278D01*
X-88483Y172999D01*
X-88135Y173839D01*
X-88016Y174740D01*
X-88135Y175642D01*
X-88483Y176481D01*
X-89037Y177203D01*
X-89758Y177756D01*
X-90598Y178104D01*
X-91499Y178223D01*
D02*
G37*
G36*
X-273123Y178108D02*
X-273779Y177978D01*
X-274335Y177606D01*
X-274706Y177050D01*
X-274837Y176394D01*
X-274706Y175738D01*
X-274335Y175182D01*
X-273894Y174888D01*
X-273860Y174744D01*
Y174477D01*
X-273894Y174332D01*
X-274335Y174038D01*
X-274706Y173482D01*
X-274837Y172826D01*
X-274706Y172170D01*
X-274335Y171614D01*
X-273779Y171243D01*
X-273123Y171112D01*
X-272467Y171243D01*
X-271911Y171614D01*
X-271539Y172170D01*
X-271409Y172826D01*
X-271539Y173482D01*
X-271911Y174038D01*
X-272351Y174332D01*
X-272386Y174477D01*
Y174744D01*
X-272351Y174888D01*
X-271911Y175182D01*
X-271539Y175738D01*
X-271409Y176394D01*
X-271539Y177050D01*
X-271911Y177606D01*
X-272467Y177978D01*
X-273123Y178108D01*
D02*
G37*
G36*
X-393000Y171629D02*
X-393544Y171521D01*
X-394005Y171213D01*
X-394313Y170752D01*
X-394421Y170208D01*
X-394313Y169665D01*
X-394005Y169203D01*
X-393544Y168895D01*
X-393000Y168787D01*
X-392456Y168895D01*
X-391995Y169203D01*
X-391687Y169665D01*
X-391579Y170208D01*
X-391687Y170752D01*
X-391995Y171213D01*
X-392456Y171521D01*
X-393000Y171629D01*
D02*
G37*
G36*
X-239500Y174346D02*
X-240044Y174238D01*
X-240505Y173930D01*
X-240813Y173469D01*
X-240921Y172925D01*
X-240813Y172381D01*
X-240505Y171920D01*
X-240385Y171840D01*
Y171239D01*
X-240505Y171158D01*
X-240813Y170697D01*
X-240921Y170154D01*
X-240813Y169610D01*
X-240505Y169149D01*
X-240044Y168841D01*
X-239500Y168733D01*
X-238956Y168841D01*
X-238495Y169149D01*
X-238187Y169610D01*
X-238079Y170154D01*
X-238187Y170697D01*
X-238495Y171158D01*
X-238615Y171239D01*
Y171840D01*
X-238495Y171920D01*
X-238187Y172381D01*
X-238079Y172925D01*
X-238187Y173469D01*
X-238495Y173930D01*
X-238956Y174238D01*
X-239500Y174346D01*
D02*
G37*
G36*
X-315532Y171151D02*
X-316076Y171043D01*
X-316537Y170735D01*
X-316845Y170274D01*
X-316953Y169730D01*
X-316845Y169186D01*
X-316537Y168725D01*
X-316076Y168417D01*
X-315532Y168309D01*
X-314989Y168417D01*
X-314528Y168725D01*
X-314219Y169186D01*
X-314111Y169730D01*
X-314219Y170274D01*
X-314528Y170735D01*
X-314989Y171043D01*
X-315532Y171151D01*
D02*
G37*
G36*
X-356991Y171081D02*
X-357535Y170973D01*
X-357996Y170665D01*
X-358304Y170204D01*
X-358412Y169660D01*
X-358304Y169116D01*
X-357996Y168655D01*
X-357535Y168347D01*
X-356991Y168239D01*
X-356448Y168347D01*
X-355986Y168655D01*
X-355679Y169116D01*
X-355570Y169660D01*
X-355679Y170204D01*
X-355986Y170665D01*
X-356448Y170973D01*
X-356991Y171081D01*
D02*
G37*
G36*
X-162537Y170946D02*
X-163081Y170838D01*
X-163542Y170530D01*
X-163850Y170069D01*
X-163958Y169525D01*
X-163850Y168981D01*
X-163542Y168520D01*
X-163081Y168212D01*
X-162537Y168104D01*
X-161993Y168212D01*
X-161532Y168520D01*
X-161224Y168981D01*
X-161116Y169525D01*
X-161224Y170069D01*
X-161532Y170530D01*
X-161993Y170838D01*
X-162537Y170946D01*
D02*
G37*
G36*
X-203996Y170876D02*
X-204540Y170768D01*
X-205001Y170460D01*
X-205309Y169999D01*
X-205417Y169455D01*
X-205309Y168911D01*
X-205001Y168450D01*
X-204540Y168142D01*
X-203996Y168034D01*
X-203452Y168142D01*
X-202991Y168450D01*
X-202683Y168911D01*
X-202575Y169455D01*
X-202683Y169999D01*
X-202991Y170460D01*
X-203452Y170768D01*
X-203996Y170876D01*
D02*
G37*
G36*
X-55599Y173223D02*
X-56500Y173104D01*
X-57340Y172756D01*
X-58061Y172203D01*
X-58615Y171481D01*
X-58963Y170642D01*
X-59082Y169740D01*
X-58963Y168839D01*
X-58615Y167999D01*
X-58061Y167278D01*
X-57340Y166724D01*
X-56500Y166376D01*
X-55599Y166258D01*
X-54698Y166376D01*
X-53858Y166724D01*
X-53136Y167278D01*
X-52583Y167999D01*
X-52235Y168839D01*
X-52117Y169740D01*
X-52235Y170642D01*
X-52583Y171481D01*
X-53136Y172203D01*
X-53858Y172756D01*
X-54698Y173104D01*
X-55599Y173223D01*
D02*
G37*
G36*
X-81499D02*
X-82400Y173104D01*
X-83240Y172756D01*
X-83961Y172203D01*
X-84515Y171481D01*
X-84863Y170642D01*
X-84982Y169740D01*
X-84863Y168839D01*
X-84515Y167999D01*
X-83961Y167278D01*
X-83240Y166724D01*
X-82400Y166376D01*
X-81499Y166258D01*
X-80598Y166376D01*
X-79758Y166724D01*
X-79036Y167278D01*
X-78483Y167999D01*
X-78135Y168839D01*
X-78017Y169740D01*
X-78135Y170642D01*
X-78483Y171481D01*
X-79036Y172203D01*
X-79758Y172756D01*
X-80598Y173104D01*
X-81499Y173223D01*
D02*
G37*
G36*
X-470142Y167935D02*
X-470798Y167804D01*
X-471354Y167432D01*
X-471726Y166876D01*
X-471856Y166220D01*
X-471726Y165565D01*
X-471354Y165008D01*
X-470798Y164637D01*
X-470142Y164506D01*
X-469486Y164637D01*
X-468930Y165008D01*
X-468559Y165565D01*
X-468428Y166220D01*
X-468559Y166876D01*
X-468930Y167432D01*
X-469486Y167804D01*
X-470142Y167935D01*
D02*
G37*
G36*
X-65599Y168223D02*
X-66500Y168104D01*
X-67340Y167756D01*
X-68062Y167203D01*
X-68615Y166481D01*
X-68963Y165641D01*
X-69082Y164740D01*
X-68963Y163839D01*
X-68615Y162999D01*
X-68062Y162278D01*
X-67340Y161724D01*
X-66500Y161376D01*
X-65599Y161258D01*
X-64698Y161376D01*
X-63858Y161724D01*
X-63137Y162278D01*
X-62583Y162999D01*
X-62235Y163839D01*
X-62116Y164740D01*
X-62235Y165641D01*
X-62583Y166481D01*
X-63137Y167203D01*
X-63858Y167756D01*
X-64698Y168104D01*
X-65599Y168223D01*
D02*
G37*
G36*
X-91499D02*
X-92400Y168104D01*
X-93240Y167756D01*
X-93962Y167203D01*
X-94515Y166481D01*
X-94863Y165641D01*
X-94982Y164740D01*
X-94863Y163839D01*
X-94515Y162999D01*
X-93962Y162278D01*
X-93240Y161724D01*
X-92400Y161376D01*
X-91499Y161258D01*
X-90598Y161376D01*
X-89758Y161724D01*
X-89037Y162278D01*
X-88483Y162999D01*
X-88135Y163839D01*
X-88016Y164740D01*
X-88135Y165641D01*
X-88483Y166481D01*
X-89037Y167203D01*
X-89758Y167756D01*
X-90598Y168104D01*
X-91499Y168223D01*
D02*
G37*
G36*
X-315596Y160832D02*
X-316140Y160723D01*
X-316601Y160415D01*
X-316909Y159954D01*
X-317017Y159411D01*
X-316909Y158867D01*
X-316601Y158406D01*
X-316140Y158098D01*
X-315596Y157990D01*
X-315052Y158098D01*
X-314591Y158406D01*
X-314283Y158867D01*
X-314175Y159411D01*
X-314283Y159954D01*
X-314591Y160415D01*
X-315052Y160723D01*
X-315596Y160832D01*
D02*
G37*
G36*
X-356945D02*
X-357489Y160723D01*
X-357950Y160415D01*
X-358258Y159954D01*
X-358366Y159411D01*
X-358258Y158867D01*
X-357950Y158406D01*
X-357489Y158098D01*
X-356945Y157990D01*
X-356401Y158098D01*
X-355940Y158406D01*
X-355632Y158867D01*
X-355524Y159411D01*
X-355632Y159954D01*
X-355940Y160415D01*
X-356401Y160723D01*
X-356945Y160832D01*
D02*
G37*
G36*
X-162601Y160627D02*
X-163145Y160519D01*
X-163606Y160211D01*
X-163914Y159750D01*
X-164022Y159206D01*
X-163914Y158662D01*
X-163606Y158201D01*
X-163145Y157893D01*
X-162601Y157785D01*
X-162057Y157893D01*
X-161596Y158201D01*
X-161288Y158662D01*
X-161180Y159206D01*
X-161288Y159750D01*
X-161596Y160211D01*
X-162057Y160519D01*
X-162601Y160627D01*
D02*
G37*
G36*
X-203950D02*
X-204494Y160519D01*
X-204955Y160211D01*
X-205263Y159750D01*
X-205371Y159206D01*
X-205263Y158662D01*
X-204955Y158201D01*
X-204494Y157893D01*
X-203950Y157785D01*
X-203406Y157893D01*
X-202945Y158201D01*
X-202637Y158662D01*
X-202529Y159206D01*
X-202637Y159750D01*
X-202945Y160211D01*
X-203406Y160519D01*
X-203950Y160627D01*
D02*
G37*
G36*
X-397000Y160311D02*
X-397544Y160203D01*
X-398005Y159895D01*
X-398313Y159434D01*
X-398421Y158890D01*
X-398313Y158347D01*
X-398005Y157886D01*
X-397544Y157578D01*
X-397000Y157469D01*
X-396456Y157578D01*
X-395995Y157886D01*
X-395687Y158347D01*
X-395579Y158890D01*
X-395687Y159434D01*
X-395995Y159895D01*
X-396456Y160203D01*
X-397000Y160311D01*
D02*
G37*
G36*
X-55599Y163223D02*
X-56500Y163104D01*
X-57340Y162756D01*
X-58061Y162203D01*
X-58615Y161481D01*
X-58963Y160642D01*
X-59082Y159740D01*
X-58963Y158839D01*
X-58615Y157999D01*
X-58061Y157278D01*
X-57340Y156724D01*
X-56500Y156376D01*
X-55599Y156258D01*
X-54698Y156376D01*
X-53858Y156724D01*
X-53136Y157278D01*
X-52583Y157999D01*
X-52235Y158839D01*
X-52117Y159740D01*
X-52235Y160642D01*
X-52583Y161481D01*
X-53136Y162203D01*
X-53858Y162756D01*
X-54698Y163104D01*
X-55599Y163223D01*
D02*
G37*
G36*
X-81499D02*
X-82400Y163104D01*
X-83240Y162756D01*
X-83961Y162203D01*
X-84515Y161481D01*
X-84863Y160642D01*
X-84982Y159740D01*
X-84863Y158839D01*
X-84515Y157999D01*
X-83961Y157278D01*
X-83240Y156724D01*
X-82400Y156376D01*
X-81499Y156258D01*
X-80598Y156376D01*
X-79758Y156724D01*
X-79036Y157278D01*
X-78483Y157999D01*
X-78135Y158839D01*
X-78017Y159740D01*
X-78135Y160642D01*
X-78483Y161481D01*
X-79036Y162203D01*
X-79758Y162756D01*
X-80598Y163104D01*
X-81499Y163223D01*
D02*
G37*
G36*
X-273124Y160081D02*
X-273780Y159951D01*
X-274336Y159579D01*
X-274708Y159023D01*
X-274838Y158367D01*
X-274708Y157711D01*
X-274336Y157155D01*
X-273936Y156888D01*
X-273923Y156850D01*
Y156370D01*
X-273936Y156332D01*
X-274336Y156065D01*
X-274708Y155509D01*
X-274838Y154853D01*
X-274708Y154197D01*
X-274336Y153641D01*
X-273780Y153270D01*
X-273124Y153139D01*
X-272468Y153270D01*
X-271912Y153641D01*
X-271540Y154197D01*
X-271410Y154853D01*
X-271540Y155509D01*
X-271912Y156065D01*
X-272312Y156332D01*
X-272325Y156370D01*
Y156850D01*
X-272312Y156888D01*
X-271912Y157155D01*
X-271540Y157711D01*
X-271410Y158367D01*
X-271540Y159023D01*
X-271912Y159579D01*
X-272468Y159951D01*
X-273124Y160081D01*
D02*
G37*
G36*
X-393000Y155840D02*
X-393544Y155732D01*
X-394005Y155424D01*
X-394313Y154963D01*
X-394421Y154419D01*
X-394313Y153875D01*
X-394005Y153414D01*
X-393544Y153106D01*
X-393000Y152998D01*
X-392456Y153106D01*
X-391995Y153414D01*
X-391687Y153875D01*
X-391579Y154419D01*
X-391687Y154963D01*
X-391995Y155424D01*
X-392456Y155732D01*
X-393000Y155840D01*
D02*
G37*
G36*
X-117125Y159877D02*
X-117781Y159746D01*
X-118337Y159375D01*
X-118708Y158818D01*
X-118839Y158163D01*
X-118708Y157507D01*
X-118337Y156951D01*
X-117937Y156683D01*
X-117923Y156645D01*
Y156166D01*
X-117937Y156128D01*
X-118337Y155860D01*
X-118708Y155304D01*
X-118839Y154648D01*
X-118708Y153992D01*
X-118337Y153436D01*
X-117781Y153065D01*
X-117125Y152934D01*
X-116469Y153065D01*
X-115913Y153436D01*
X-115541Y153992D01*
X-115411Y154648D01*
X-115541Y155304D01*
X-115913Y155860D01*
X-116313Y156128D01*
X-116326Y156166D01*
Y156645D01*
X-116313Y156683D01*
X-115913Y156951D01*
X-115541Y157507D01*
X-115411Y158163D01*
X-115541Y158818D01*
X-115913Y159375D01*
X-116469Y159746D01*
X-117125Y159877D01*
D02*
G37*
G36*
X-239411Y158595D02*
X-239954Y158487D01*
X-240415Y158179D01*
X-240723Y157718D01*
X-240832Y157174D01*
X-240723Y156630D01*
X-240415Y156169D01*
X-240238Y156051D01*
Y155449D01*
X-240415Y155331D01*
X-240723Y154870D01*
X-240832Y154326D01*
X-240723Y153782D01*
X-240415Y153321D01*
X-239954Y153013D01*
X-239411Y152905D01*
X-238867Y153013D01*
X-238406Y153321D01*
X-238098Y153782D01*
X-237990Y154326D01*
X-238098Y154870D01*
X-238406Y155331D01*
X-238583Y155449D01*
Y156051D01*
X-238406Y156169D01*
X-238098Y156630D01*
X-237990Y157174D01*
X-238098Y157718D01*
X-238406Y158179D01*
X-238867Y158487D01*
X-239411Y158595D01*
D02*
G37*
G36*
X-65599Y158223D02*
X-66500Y158104D01*
X-67340Y157756D01*
X-68062Y157203D01*
X-68615Y156481D01*
X-68963Y155641D01*
X-69082Y154740D01*
X-68963Y153839D01*
X-68615Y152999D01*
X-68062Y152278D01*
X-67340Y151724D01*
X-66500Y151376D01*
X-65599Y151258D01*
X-64698Y151376D01*
X-63858Y151724D01*
X-63137Y152278D01*
X-62583Y152999D01*
X-62235Y153839D01*
X-62116Y154740D01*
X-62235Y155641D01*
X-62583Y156481D01*
X-63137Y157203D01*
X-63858Y157756D01*
X-64698Y158104D01*
X-65599Y158223D01*
D02*
G37*
G36*
X-91499D02*
X-92400Y158104D01*
X-93240Y157756D01*
X-93962Y157203D01*
X-94515Y156481D01*
X-94863Y155641D01*
X-94982Y154740D01*
X-94863Y153839D01*
X-94515Y152999D01*
X-93962Y152278D01*
X-93240Y151724D01*
X-92400Y151376D01*
X-91499Y151258D01*
X-90598Y151376D01*
X-89758Y151724D01*
X-89037Y152278D01*
X-88483Y152999D01*
X-88135Y153839D01*
X-88016Y154740D01*
X-88135Y155641D01*
X-88483Y156481D01*
X-89037Y157203D01*
X-89758Y157756D01*
X-90598Y158104D01*
X-91499Y158223D01*
D02*
G37*
G36*
X-315598Y150989D02*
X-316141Y150881D01*
X-316602Y150573D01*
X-316910Y150112D01*
X-317019Y149568D01*
X-316910Y149024D01*
X-316602Y148563D01*
X-316141Y148255D01*
X-315598Y148147D01*
X-315054Y148255D01*
X-314593Y148563D01*
X-314285Y149024D01*
X-314177Y149568D01*
X-314285Y150112D01*
X-314593Y150573D01*
X-315054Y150881D01*
X-315598Y150989D01*
D02*
G37*
G36*
X-356944D02*
X-357488Y150881D01*
X-357948Y150573D01*
X-358257Y150112D01*
X-358365Y149568D01*
X-358257Y149024D01*
X-357948Y148563D01*
X-357488Y148255D01*
X-356944Y148147D01*
X-356400Y148255D01*
X-355939Y148563D01*
X-355631Y149024D01*
X-355523Y149568D01*
X-355631Y150112D01*
X-355939Y150573D01*
X-356400Y150881D01*
X-356944Y150989D01*
D02*
G37*
G36*
X-162602Y150784D02*
X-163146Y150676D01*
X-163607Y150368D01*
X-163915Y149907D01*
X-164023Y149363D01*
X-163915Y148820D01*
X-163607Y148359D01*
X-163146Y148050D01*
X-162602Y147942D01*
X-162058Y148050D01*
X-161598Y148359D01*
X-161290Y148820D01*
X-161181Y149363D01*
X-161290Y149907D01*
X-161598Y150368D01*
X-162058Y150676D01*
X-162602Y150784D01*
D02*
G37*
G36*
X-203948D02*
X-204492Y150676D01*
X-204953Y150368D01*
X-205261Y149907D01*
X-205369Y149363D01*
X-205261Y148820D01*
X-204953Y148359D01*
X-204492Y148050D01*
X-203948Y147942D01*
X-203405Y148050D01*
X-202944Y148359D01*
X-202636Y148820D01*
X-202527Y149363D01*
X-202636Y149907D01*
X-202944Y150368D01*
X-203405Y150676D01*
X-203948Y150784D01*
D02*
G37*
G36*
X-55599Y153223D02*
X-56500Y153104D01*
X-57340Y152756D01*
X-58061Y152203D01*
X-58615Y151481D01*
X-58963Y150642D01*
X-59082Y149740D01*
X-58963Y148839D01*
X-58615Y147999D01*
X-58061Y147278D01*
X-57340Y146724D01*
X-56500Y146376D01*
X-55599Y146258D01*
X-54698Y146376D01*
X-53858Y146724D01*
X-53136Y147278D01*
X-52583Y147999D01*
X-52235Y148839D01*
X-52117Y149740D01*
X-52235Y150642D01*
X-52583Y151481D01*
X-53136Y152203D01*
X-53858Y152756D01*
X-54698Y153104D01*
X-55599Y153223D01*
D02*
G37*
G36*
X-81499D02*
X-82400Y153104D01*
X-83240Y152756D01*
X-83961Y152203D01*
X-84515Y151481D01*
X-84863Y150642D01*
X-84982Y149740D01*
X-84863Y148839D01*
X-84515Y147999D01*
X-83961Y147278D01*
X-83240Y146724D01*
X-82400Y146376D01*
X-81499Y146258D01*
X-80598Y146376D01*
X-79758Y146724D01*
X-79036Y147278D01*
X-78483Y147999D01*
X-78135Y148839D01*
X-78017Y149740D01*
X-78135Y150642D01*
X-78483Y151481D01*
X-79036Y152203D01*
X-79758Y152756D01*
X-80598Y153104D01*
X-81499Y153223D01*
D02*
G37*
G36*
X-397318Y143603D02*
X-397861Y143495D01*
X-398322Y143187D01*
X-398630Y142726D01*
X-398739Y142182D01*
X-398630Y141639D01*
X-398322Y141178D01*
X-397861Y140870D01*
X-397318Y140761D01*
X-396774Y140870D01*
X-396313Y141178D01*
X-396005Y141639D01*
X-395897Y142182D01*
X-396005Y142726D01*
X-396313Y143187D01*
X-396774Y143495D01*
X-397318Y143603D01*
D02*
G37*
G36*
X-120000Y141421D02*
X-120544Y141313D01*
X-121005Y141005D01*
X-121313Y140544D01*
X-121421Y140000D01*
X-121313Y139456D01*
X-121005Y138995D01*
X-120544Y138687D01*
X-120000Y138579D01*
X-119456Y138687D01*
X-118995Y138995D01*
X-118687Y139456D01*
X-118579Y140000D01*
X-118687Y140544D01*
X-118995Y141005D01*
X-119456Y141313D01*
X-120000Y141421D01*
D02*
G37*
G36*
X-315598Y141147D02*
X-316142Y141038D01*
X-316603Y140730D01*
X-316911Y140269D01*
X-317019Y139726D01*
X-316911Y139182D01*
X-316603Y138721D01*
X-316142Y138413D01*
X-315598Y138305D01*
X-315054Y138413D01*
X-314593Y138721D01*
X-314285Y139182D01*
X-314177Y139726D01*
X-314285Y140269D01*
X-314593Y140730D01*
X-315054Y141038D01*
X-315598Y141147D01*
D02*
G37*
G36*
X-356943D02*
X-357487Y141038D01*
X-357948Y140730D01*
X-358256Y140269D01*
X-358364Y139726D01*
X-358256Y139182D01*
X-357948Y138721D01*
X-357487Y138413D01*
X-356943Y138305D01*
X-356399Y138413D01*
X-355938Y138721D01*
X-355630Y139182D01*
X-355522Y139726D01*
X-355630Y140269D01*
X-355938Y140730D01*
X-356399Y141038D01*
X-356943Y141147D01*
D02*
G37*
G36*
X-162603Y140942D02*
X-163147Y140834D01*
X-163608Y140526D01*
X-163916Y140065D01*
X-164024Y139521D01*
X-163916Y138977D01*
X-163608Y138516D01*
X-163147Y138208D01*
X-162603Y138100D01*
X-162059Y138208D01*
X-161598Y138516D01*
X-161290Y138977D01*
X-161182Y139521D01*
X-161290Y140065D01*
X-161598Y140526D01*
X-162059Y140834D01*
X-162603Y140942D01*
D02*
G37*
G36*
X-203948D02*
X-204492Y140834D01*
X-204953Y140526D01*
X-205261Y140065D01*
X-205369Y139521D01*
X-205261Y138977D01*
X-204953Y138516D01*
X-204492Y138208D01*
X-203948Y138100D01*
X-203404Y138208D01*
X-202943Y138516D01*
X-202635Y138977D01*
X-202527Y139521D01*
X-202635Y140065D01*
X-202943Y140526D01*
X-203404Y140834D01*
X-203948Y140942D01*
D02*
G37*
G36*
X-394000Y139098D02*
X-394544Y138990D01*
X-395005Y138682D01*
X-395313Y138221D01*
X-395421Y137677D01*
X-395313Y137133D01*
X-395005Y136672D01*
X-394544Y136364D01*
X-394000Y136256D01*
X-393456Y136364D01*
X-392995Y136672D01*
X-392687Y137133D01*
X-392579Y137677D01*
X-392687Y138221D01*
X-392995Y138682D01*
X-393456Y138990D01*
X-394000Y139098D01*
D02*
G37*
G36*
X-239000Y141815D02*
X-239544Y141707D01*
X-240005Y141399D01*
X-240313Y140937D01*
X-240421Y140394D01*
X-240313Y139850D01*
X-240005Y139389D01*
X-239884Y139309D01*
Y138707D01*
X-240005Y138627D01*
X-240313Y138166D01*
X-240421Y137622D01*
X-240313Y137078D01*
X-240005Y136617D01*
X-239544Y136309D01*
X-239000Y136201D01*
X-238456Y136309D01*
X-237995Y136617D01*
X-237687Y137078D01*
X-237579Y137622D01*
X-237687Y138166D01*
X-237995Y138627D01*
X-238116Y138707D01*
Y139309D01*
X-237995Y139389D01*
X-237687Y139850D01*
X-237579Y140394D01*
X-237687Y140937D01*
X-237995Y141399D01*
X-238456Y141707D01*
X-239000Y141815D01*
D02*
G37*
G36*
X-273624Y142081D02*
X-274280Y141951D01*
X-274836Y141579D01*
X-275207Y141023D01*
X-275338Y140367D01*
X-275207Y139711D01*
X-274836Y139155D01*
X-274436Y138888D01*
X-274423Y138850D01*
Y138370D01*
X-274436Y138332D01*
X-274836Y138065D01*
X-275207Y137509D01*
X-275338Y136853D01*
X-275207Y136197D01*
X-274836Y135641D01*
X-274280Y135269D01*
X-273624Y135139D01*
X-272968Y135269D01*
X-272412Y135641D01*
X-272040Y136197D01*
X-271910Y136853D01*
X-272040Y137509D01*
X-272412Y138065D01*
X-272812Y138332D01*
X-272825Y138370D01*
Y138850D01*
X-272812Y138888D01*
X-272412Y139155D01*
X-272040Y139711D01*
X-271910Y140367D01*
X-272040Y141023D01*
X-272412Y141579D01*
X-272968Y141951D01*
X-273624Y142081D01*
D02*
G37*
G36*
X-65599Y133223D02*
X-66500Y133104D01*
X-67340Y132756D01*
X-68062Y132203D01*
X-68615Y131481D01*
X-68963Y130641D01*
X-69082Y129740D01*
X-68963Y128839D01*
X-68615Y127999D01*
X-68062Y127278D01*
X-67340Y126724D01*
X-66500Y126376D01*
X-65599Y126258D01*
X-64698Y126376D01*
X-63858Y126724D01*
X-63137Y127278D01*
X-62583Y127999D01*
X-62235Y128839D01*
X-62116Y129740D01*
X-62235Y130641D01*
X-62583Y131481D01*
X-63137Y132203D01*
X-63858Y132756D01*
X-64698Y133104D01*
X-65599Y133223D01*
D02*
G37*
G36*
X-91499D02*
X-92400Y133104D01*
X-93240Y132756D01*
X-93962Y132203D01*
X-94515Y131481D01*
X-94863Y130641D01*
X-94982Y129740D01*
X-94863Y128839D01*
X-94515Y127999D01*
X-93962Y127278D01*
X-93240Y126724D01*
X-92400Y126376D01*
X-91499Y126258D01*
X-90598Y126376D01*
X-89758Y126724D01*
X-89037Y127278D01*
X-88483Y127999D01*
X-88135Y128839D01*
X-88016Y129740D01*
X-88135Y130641D01*
X-88483Y131481D01*
X-89037Y132203D01*
X-89758Y132756D01*
X-90598Y133104D01*
X-91499Y133223D01*
D02*
G37*
G36*
X-399026Y127312D02*
X-399569Y127203D01*
X-400031Y126895D01*
X-400339Y126434D01*
X-400447Y125891D01*
X-400339Y125347D01*
X-400031Y124886D01*
X-399569Y124578D01*
X-399026Y124469D01*
X-398482Y124578D01*
X-398021Y124886D01*
X-397713Y125347D01*
X-397605Y125891D01*
X-397713Y126434D01*
X-398021Y126895D01*
X-398482Y127203D01*
X-399026Y127312D01*
D02*
G37*
G36*
X-55599Y128223D02*
X-56500Y128104D01*
X-57340Y127756D01*
X-58061Y127203D01*
X-58615Y126481D01*
X-58963Y125642D01*
X-59082Y124740D01*
X-58963Y123839D01*
X-58615Y122999D01*
X-58061Y122278D01*
X-57340Y121724D01*
X-56500Y121376D01*
X-55599Y121258D01*
X-54698Y121376D01*
X-53858Y121724D01*
X-53136Y122278D01*
X-52583Y122999D01*
X-52235Y123839D01*
X-52117Y124740D01*
X-52235Y125642D01*
X-52583Y126481D01*
X-53136Y127203D01*
X-53858Y127756D01*
X-54698Y128104D01*
X-55599Y128223D01*
D02*
G37*
G36*
X-81499D02*
X-82400Y128104D01*
X-83240Y127756D01*
X-83961Y127203D01*
X-84515Y126481D01*
X-84863Y125642D01*
X-84982Y124740D01*
X-84863Y123839D01*
X-84515Y122999D01*
X-83961Y122278D01*
X-83240Y121724D01*
X-82400Y121376D01*
X-81499Y121258D01*
X-80598Y121376D01*
X-79758Y121724D01*
X-79036Y122278D01*
X-78483Y122999D01*
X-78135Y123839D01*
X-78017Y124740D01*
X-78135Y125642D01*
X-78483Y126481D01*
X-79036Y127203D01*
X-79758Y127756D01*
X-80598Y128104D01*
X-81499Y128223D01*
D02*
G37*
G36*
X-395000Y122840D02*
X-395544Y122732D01*
X-396005Y122424D01*
X-396313Y121963D01*
X-396421Y121419D01*
X-396313Y120875D01*
X-396005Y120414D01*
X-395544Y120106D01*
X-395000Y119998D01*
X-394456Y120106D01*
X-393995Y120414D01*
X-393687Y120875D01*
X-393579Y121419D01*
X-393687Y121963D01*
X-393995Y122424D01*
X-394456Y122732D01*
X-395000Y122840D01*
D02*
G37*
G36*
X-239021Y125645D02*
X-239565Y125537D01*
X-240026Y125229D01*
X-240334Y124768D01*
X-240442Y124224D01*
X-240334Y123680D01*
X-240026Y123219D01*
X-239739Y123028D01*
X-239736Y123020D01*
Y122480D01*
X-239739Y122472D01*
X-240026Y122281D01*
X-240334Y121819D01*
X-240442Y121276D01*
X-240334Y120732D01*
X-240026Y120271D01*
X-239565Y119963D01*
X-239021Y119855D01*
X-238477Y119963D01*
X-238016Y120271D01*
X-237708Y120732D01*
X-237600Y121276D01*
X-237708Y121819D01*
X-238016Y122281D01*
X-238303Y122472D01*
X-238306Y122480D01*
Y123020D01*
X-238303Y123028D01*
X-238016Y123219D01*
X-237708Y123680D01*
X-237600Y124224D01*
X-237708Y124768D01*
X-238016Y125229D01*
X-238477Y125537D01*
X-239021Y125645D01*
D02*
G37*
G36*
X-115765Y122091D02*
X-116421Y121961D01*
X-116977Y121589D01*
X-117349Y121033D01*
X-117479Y120377D01*
X-117420Y120080D01*
X-117845Y119655D01*
X-118142Y119714D01*
X-118798Y119584D01*
X-119354Y119212D01*
X-119726Y118656D01*
X-119856Y118000D01*
X-119726Y117344D01*
X-119354Y116788D01*
X-118798Y116416D01*
X-118142Y116286D01*
X-117486Y116416D01*
X-116930Y116788D01*
X-116559Y117344D01*
X-116428Y118000D01*
X-116487Y118297D01*
X-116062Y118722D01*
X-115765Y118663D01*
X-115109Y118794D01*
X-114553Y119165D01*
X-114181Y119721D01*
X-114051Y120377D01*
X-114181Y121033D01*
X-114553Y121589D01*
X-115109Y121961D01*
X-115765Y122091D01*
D02*
G37*
G36*
X-273624Y124081D02*
X-274280Y123951D01*
X-274836Y123579D01*
X-275207Y123023D01*
X-275338Y122367D01*
X-275207Y121711D01*
X-274836Y121155D01*
X-274436Y120888D01*
X-274423Y120850D01*
Y120370D01*
X-274436Y120332D01*
X-274836Y120065D01*
X-275207Y119509D01*
X-275338Y118853D01*
X-275207Y118197D01*
X-274836Y117641D01*
X-274280Y117270D01*
X-273624Y117139D01*
X-272968Y117270D01*
X-272412Y117641D01*
X-272040Y118197D01*
X-271910Y118853D01*
X-272040Y119509D01*
X-272412Y120065D01*
X-272812Y120332D01*
X-272825Y120370D01*
Y120850D01*
X-272812Y120888D01*
X-272412Y121155D01*
X-272040Y121711D01*
X-271910Y122367D01*
X-272040Y123023D01*
X-272412Y123579D01*
X-272968Y123951D01*
X-273624Y124081D01*
D02*
G37*
G36*
X-65599Y123223D02*
X-66500Y123104D01*
X-67340Y122756D01*
X-68062Y122203D01*
X-68615Y121481D01*
X-68963Y120642D01*
X-69082Y119740D01*
X-68963Y118839D01*
X-68615Y117999D01*
X-68062Y117278D01*
X-67340Y116724D01*
X-66500Y116376D01*
X-65599Y116258D01*
X-64698Y116376D01*
X-63858Y116724D01*
X-63137Y117278D01*
X-62583Y117999D01*
X-62235Y118839D01*
X-62116Y119740D01*
X-62235Y120642D01*
X-62583Y121481D01*
X-63137Y122203D01*
X-63858Y122756D01*
X-64698Y123104D01*
X-65599Y123223D01*
D02*
G37*
G36*
X-91499D02*
X-92400Y123104D01*
X-93240Y122756D01*
X-93962Y122203D01*
X-94515Y121481D01*
X-94863Y120642D01*
X-94982Y119740D01*
X-94863Y118839D01*
X-94515Y117999D01*
X-93962Y117278D01*
X-93240Y116724D01*
X-92400Y116376D01*
X-91499Y116258D01*
X-90598Y116376D01*
X-89758Y116724D01*
X-89037Y117278D01*
X-88483Y117999D01*
X-88135Y118839D01*
X-88016Y119740D01*
X-88135Y120642D01*
X-88483Y121481D01*
X-89037Y122203D01*
X-89758Y122756D01*
X-90598Y123104D01*
X-91499Y123223D01*
D02*
G37*
G36*
X-471142Y116141D02*
X-471686Y116033D01*
X-472147Y115725D01*
X-472455Y115264D01*
X-472563Y114720D01*
X-472455Y114177D01*
X-472147Y113716D01*
X-471686Y113408D01*
X-471142Y113300D01*
X-470599Y113408D01*
X-470138Y113716D01*
X-469830Y114177D01*
X-469721Y114720D01*
X-469830Y115264D01*
X-470138Y115725D01*
X-470599Y116033D01*
X-471142Y116141D01*
D02*
G37*
G36*
X-448642Y116714D02*
X-449298Y116584D01*
X-449854Y116212D01*
X-450226Y115656D01*
X-450356Y115000D01*
X-450226Y114344D01*
X-449854Y113788D01*
X-449298Y113416D01*
X-448642Y113286D01*
X-447986Y113416D01*
X-447430Y113788D01*
X-447059Y114344D01*
X-446928Y115000D01*
X-447059Y115656D01*
X-447430Y116212D01*
X-447986Y116584D01*
X-448642Y116714D01*
D02*
G37*
G36*
X-142047Y118953D02*
X-148953D01*
Y112047D01*
X-142047D01*
Y118953D01*
D02*
G37*
G36*
X-294546D02*
X-301452D01*
Y112047D01*
X-294546D01*
Y118953D01*
D02*
G37*
G36*
X-155500Y118983D02*
X-156401Y118864D01*
X-157241Y118516D01*
X-157963Y117963D01*
X-158516Y117241D01*
X-158864Y116401D01*
X-158983Y115500D01*
X-158864Y114599D01*
X-158516Y113759D01*
X-157963Y113038D01*
X-157241Y112484D01*
X-156401Y112136D01*
X-155500Y112018D01*
X-154599Y112136D01*
X-153759Y112484D01*
X-153038Y113038D01*
X-152484Y113759D01*
X-152136Y114599D01*
X-152017Y115500D01*
X-152136Y116401D01*
X-152484Y117241D01*
X-153038Y117963D01*
X-153759Y118516D01*
X-154599Y118864D01*
X-155500Y118983D01*
D02*
G37*
G36*
X-307999D02*
X-308900Y118864D01*
X-309740Y118516D01*
X-310462Y117963D01*
X-311015Y117241D01*
X-311363Y116401D01*
X-311482Y115500D01*
X-311363Y114599D01*
X-311015Y113759D01*
X-310462Y113038D01*
X-309740Y112484D01*
X-308900Y112136D01*
X-307999Y112018D01*
X-307098Y112136D01*
X-306258Y112484D01*
X-305537Y113038D01*
X-304983Y113759D01*
X-304635Y114599D01*
X-304517Y115500D01*
X-304635Y116401D01*
X-304983Y117241D01*
X-305537Y117963D01*
X-306258Y118516D01*
X-307098Y118864D01*
X-307999Y118983D01*
D02*
G37*
G36*
X-55599Y118223D02*
X-56500Y118104D01*
X-57340Y117756D01*
X-58061Y117203D01*
X-58615Y116481D01*
X-58963Y115641D01*
X-59082Y114740D01*
X-58963Y113839D01*
X-58615Y112999D01*
X-58061Y112278D01*
X-57340Y111724D01*
X-56500Y111376D01*
X-55599Y111258D01*
X-54698Y111376D01*
X-53858Y111724D01*
X-53136Y112278D01*
X-52583Y112999D01*
X-52235Y113839D01*
X-52117Y114740D01*
X-52235Y115641D01*
X-52583Y116481D01*
X-53136Y117203D01*
X-53858Y117756D01*
X-54698Y118104D01*
X-55599Y118223D01*
D02*
G37*
G36*
X-81499D02*
X-82400Y118104D01*
X-83240Y117756D01*
X-83961Y117203D01*
X-84515Y116481D01*
X-84863Y115641D01*
X-84982Y114740D01*
X-84863Y113839D01*
X-84515Y112999D01*
X-83961Y112278D01*
X-83240Y111724D01*
X-82400Y111376D01*
X-81499Y111258D01*
X-80598Y111376D01*
X-79758Y111724D01*
X-79036Y112278D01*
X-78483Y112999D01*
X-78135Y113839D01*
X-78017Y114740D01*
X-78135Y115641D01*
X-78483Y116481D01*
X-79036Y117203D01*
X-79758Y117756D01*
X-80598Y118104D01*
X-81499Y118223D01*
D02*
G37*
G36*
X-210047Y117453D02*
X-216953D01*
Y110547D01*
X-210047D01*
Y117453D01*
D02*
G37*
G36*
X-363089D02*
X-369994D01*
Y110547D01*
X-363089D01*
Y117453D01*
D02*
G37*
G36*
X-223500Y117482D02*
X-224401Y117364D01*
X-225241Y117016D01*
X-225962Y116463D01*
X-226516Y115741D01*
X-226864Y114901D01*
X-226982Y114000D01*
X-226864Y113099D01*
X-226516Y112259D01*
X-225962Y111538D01*
X-225241Y110984D01*
X-224401Y110636D01*
X-223500Y110518D01*
X-222599Y110636D01*
X-221759Y110984D01*
X-221038Y111538D01*
X-220484Y112259D01*
X-220136Y113099D01*
X-220018Y114000D01*
X-220136Y114901D01*
X-220484Y115741D01*
X-221038Y116463D01*
X-221759Y117016D01*
X-222599Y117364D01*
X-223500Y117482D01*
D02*
G37*
G36*
X-376542D02*
X-377443Y117364D01*
X-378283Y117016D01*
X-379004Y116463D01*
X-379558Y115741D01*
X-379906Y114901D01*
X-380024Y114000D01*
X-379906Y113099D01*
X-379558Y112259D01*
X-379004Y111538D01*
X-378283Y110984D01*
X-377443Y110636D01*
X-376542Y110518D01*
X-375640Y110636D01*
X-374800Y110984D01*
X-374079Y111538D01*
X-373526Y112259D01*
X-373178Y113099D01*
X-373059Y114000D01*
X-373178Y114901D01*
X-373526Y115741D01*
X-374079Y116463D01*
X-374800Y117016D01*
X-375640Y117364D01*
X-376542Y117482D01*
D02*
G37*
G36*
X-65599Y113223D02*
X-66500Y113104D01*
X-67340Y112756D01*
X-68062Y112203D01*
X-68615Y111481D01*
X-68963Y110642D01*
X-69082Y109740D01*
X-68963Y108839D01*
X-68615Y107999D01*
X-68062Y107278D01*
X-67340Y106724D01*
X-66500Y106376D01*
X-65599Y106258D01*
X-64698Y106376D01*
X-63858Y106724D01*
X-63137Y107278D01*
X-62583Y107999D01*
X-62235Y108839D01*
X-62116Y109740D01*
X-62235Y110642D01*
X-62583Y111481D01*
X-63137Y112203D01*
X-63858Y112756D01*
X-64698Y113104D01*
X-65599Y113223D01*
D02*
G37*
G36*
X-91499D02*
X-92400Y113104D01*
X-93240Y112756D01*
X-93962Y112203D01*
X-94515Y111481D01*
X-94863Y110642D01*
X-94982Y109740D01*
X-94863Y108839D01*
X-94515Y107999D01*
X-93962Y107278D01*
X-93240Y106724D01*
X-92400Y106376D01*
X-91499Y106258D01*
X-90598Y106376D01*
X-89758Y106724D01*
X-89037Y107278D01*
X-88483Y107999D01*
X-88135Y108839D01*
X-88016Y109740D01*
X-88135Y110642D01*
X-88483Y111481D01*
X-89037Y112203D01*
X-89758Y112756D01*
X-90598Y113104D01*
X-91499Y113223D01*
D02*
G37*
G36*
X-55599Y108223D02*
X-56500Y108104D01*
X-57340Y107756D01*
X-58061Y107203D01*
X-58615Y106481D01*
X-58963Y105641D01*
X-59082Y104740D01*
X-58963Y103839D01*
X-58615Y102999D01*
X-58061Y102278D01*
X-57340Y101724D01*
X-56500Y101376D01*
X-55599Y101258D01*
X-54698Y101376D01*
X-53858Y101724D01*
X-53136Y102278D01*
X-52583Y102999D01*
X-52235Y103839D01*
X-52117Y104740D01*
X-52235Y105641D01*
X-52583Y106481D01*
X-53136Y107203D01*
X-53858Y107756D01*
X-54698Y108104D01*
X-55599Y108223D01*
D02*
G37*
G36*
X-81499D02*
X-82400Y108104D01*
X-83240Y107756D01*
X-83961Y107203D01*
X-84515Y106481D01*
X-84863Y105641D01*
X-84982Y104740D01*
X-84863Y103839D01*
X-84515Y102999D01*
X-83961Y102278D01*
X-83240Y101724D01*
X-82400Y101376D01*
X-81499Y101258D01*
X-80598Y101376D01*
X-79758Y101724D01*
X-79036Y102278D01*
X-78483Y102999D01*
X-78135Y103839D01*
X-78017Y104740D01*
X-78135Y105641D01*
X-78483Y106481D01*
X-79036Y107203D01*
X-79758Y107756D01*
X-80598Y108104D01*
X-81499Y108223D01*
D02*
G37*
G36*
X-447040Y101381D02*
X-447584Y101273D01*
X-448045Y100965D01*
X-448353Y100504D01*
X-448461Y99960D01*
X-448433Y99818D01*
X-448858Y99393D01*
X-449000Y99421D01*
X-449544Y99313D01*
X-450005Y99005D01*
X-450313Y98544D01*
X-450421Y98000D01*
X-450313Y97456D01*
X-450005Y96995D01*
X-449544Y96687D01*
X-449000Y96579D01*
X-448456Y96687D01*
X-447995Y96995D01*
X-447687Y97456D01*
X-447579Y98000D01*
X-447607Y98142D01*
X-447182Y98567D01*
X-447040Y98539D01*
X-446496Y98647D01*
X-446035Y98955D01*
X-445727Y99416D01*
X-445619Y99960D01*
X-445727Y100504D01*
X-446035Y100965D01*
X-446496Y101273D01*
X-447040Y101381D01*
D02*
G37*
G36*
X-436608Y100308D02*
X-437152Y100200D01*
X-437613Y99892D01*
X-437921Y99431D01*
X-438029Y98887D01*
X-438001Y98747D01*
X-438426Y98322D01*
X-438570Y98351D01*
X-439114Y98243D01*
X-439575Y97935D01*
X-439883Y97474D01*
X-439991Y96930D01*
X-439883Y96386D01*
X-439575Y95925D01*
X-439114Y95617D01*
X-438570Y95509D01*
X-438027Y95617D01*
X-437566Y95925D01*
X-437257Y96386D01*
X-437149Y96930D01*
X-437177Y97070D01*
X-436752Y97495D01*
X-436608Y97466D01*
X-436064Y97574D01*
X-435603Y97882D01*
X-435295Y98343D01*
X-435187Y98887D01*
X-435295Y99431D01*
X-435603Y99892D01*
X-436064Y100200D01*
X-436608Y100308D01*
D02*
G37*
G36*
X-65599Y103223D02*
X-66500Y103104D01*
X-67340Y102756D01*
X-68062Y102203D01*
X-68615Y101481D01*
X-68963Y100642D01*
X-69082Y99740D01*
X-68963Y98839D01*
X-68615Y97999D01*
X-68062Y97278D01*
X-67340Y96724D01*
X-66500Y96376D01*
X-65599Y96258D01*
X-64698Y96376D01*
X-63858Y96724D01*
X-63137Y97278D01*
X-62583Y97999D01*
X-62235Y98839D01*
X-62116Y99740D01*
X-62235Y100642D01*
X-62583Y101481D01*
X-63137Y102203D01*
X-63858Y102756D01*
X-64698Y103104D01*
X-65599Y103223D01*
D02*
G37*
G36*
X-91499D02*
X-92400Y103104D01*
X-93240Y102756D01*
X-93962Y102203D01*
X-94515Y101481D01*
X-94863Y100642D01*
X-94982Y99740D01*
X-94863Y98839D01*
X-94515Y97999D01*
X-93962Y97278D01*
X-93240Y96724D01*
X-92400Y96376D01*
X-91499Y96258D01*
X-90598Y96376D01*
X-89758Y96724D01*
X-89037Y97278D01*
X-88483Y97999D01*
X-88135Y98839D01*
X-88016Y99740D01*
X-88135Y100642D01*
X-88483Y101481D01*
X-89037Y102203D01*
X-89758Y102756D01*
X-90598Y103104D01*
X-91499Y103223D01*
D02*
G37*
G36*
X-139000Y98007D02*
X-139544Y97899D01*
X-140005Y97591D01*
X-140313Y97130D01*
X-140421Y96586D01*
X-140313Y96042D01*
X-140005Y95581D01*
X-139544Y95273D01*
X-139000Y95165D01*
X-138456Y95273D01*
X-137995Y95581D01*
X-137687Y96042D01*
X-137579Y96586D01*
X-137687Y97130D01*
X-137995Y97591D01*
X-138456Y97899D01*
X-139000Y98007D01*
D02*
G37*
G36*
X-55599Y98223D02*
X-56500Y98104D01*
X-57340Y97756D01*
X-58061Y97203D01*
X-58615Y96481D01*
X-58963Y95641D01*
X-59082Y94740D01*
X-58963Y93839D01*
X-58615Y92999D01*
X-58061Y92278D01*
X-57340Y91724D01*
X-56500Y91376D01*
X-55599Y91258D01*
X-54698Y91376D01*
X-53858Y91724D01*
X-53136Y92278D01*
X-52583Y92999D01*
X-52235Y93839D01*
X-52117Y94740D01*
X-52235Y95641D01*
X-52583Y96481D01*
X-53136Y97203D01*
X-53858Y97756D01*
X-54698Y98104D01*
X-55599Y98223D01*
D02*
G37*
G36*
X-81499D02*
X-82400Y98104D01*
X-83240Y97756D01*
X-83961Y97203D01*
X-84515Y96481D01*
X-84863Y95641D01*
X-84982Y94740D01*
X-84863Y93839D01*
X-84515Y92999D01*
X-83961Y92278D01*
X-83240Y91724D01*
X-82400Y91376D01*
X-81499Y91258D01*
X-80598Y91376D01*
X-79758Y91724D01*
X-79036Y92278D01*
X-78483Y92999D01*
X-78135Y93839D01*
X-78017Y94740D01*
X-78135Y95641D01*
X-78483Y96481D01*
X-79036Y97203D01*
X-79758Y97756D01*
X-80598Y98104D01*
X-81499Y98223D01*
D02*
G37*
G36*
X-422540Y90381D02*
X-423084Y90273D01*
X-423545Y89965D01*
X-423853Y89504D01*
X-423961Y88960D01*
X-423935Y88830D01*
X-424361Y88405D01*
X-424515Y88436D01*
X-425058Y88327D01*
X-425519Y88019D01*
X-425827Y87558D01*
X-425936Y87015D01*
X-425827Y86471D01*
X-425519Y86010D01*
X-425058Y85702D01*
X-424515Y85594D01*
X-423971Y85702D01*
X-423510Y86010D01*
X-423202Y86471D01*
X-423094Y87015D01*
X-423119Y87144D01*
X-422694Y87569D01*
X-422540Y87539D01*
X-421996Y87647D01*
X-421535Y87955D01*
X-421227Y88416D01*
X-421119Y88960D01*
X-421227Y89504D01*
X-421535Y89965D01*
X-421996Y90273D01*
X-422540Y90381D01*
D02*
G37*
G36*
X-396813Y85896D02*
X-397357Y85788D01*
X-397818Y85480D01*
X-398126Y85019D01*
X-398234Y84475D01*
X-398126Y83931D01*
X-397818Y83470D01*
X-397357Y83162D01*
X-396813Y83054D01*
X-396269Y83162D01*
X-395809Y83470D01*
X-395500Y83931D01*
X-395392Y84475D01*
X-395500Y85019D01*
X-395809Y85480D01*
X-396269Y85788D01*
X-396813Y85896D01*
D02*
G37*
G36*
X-30599Y97075D02*
X-32030Y96934D01*
X-33406Y96516D01*
X-34674Y95839D01*
X-35785Y94927D01*
X-36697Y93815D01*
X-37375Y92547D01*
X-37793Y91171D01*
X-37933Y89740D01*
X-37793Y88309D01*
X-37375Y86933D01*
X-36697Y85665D01*
X-35785Y84554D01*
X-34674Y83642D01*
X-33406Y82964D01*
X-32030Y82547D01*
X-30599Y82406D01*
X-29168Y82547D01*
X-27792Y82964D01*
X-26524Y83642D01*
X-25413Y84554D01*
X-24501Y85665D01*
X-23823Y86933D01*
X-23405Y88309D01*
X-23265Y89740D01*
X-23405Y91171D01*
X-23823Y92547D01*
X-24501Y93815D01*
X-25413Y94927D01*
X-26524Y95839D01*
X-27792Y96516D01*
X-29168Y96934D01*
X-30599Y97075D01*
D02*
G37*
G36*
X-418998Y83923D02*
X-419542Y83815D01*
X-420003Y83506D01*
X-420311Y83045D01*
X-420419Y82502D01*
X-420391Y82360D01*
X-420816Y81935D01*
X-420958Y81963D01*
X-421502Y81855D01*
X-421963Y81547D01*
X-422271Y81086D01*
X-422379Y80542D01*
X-422271Y79998D01*
X-421963Y79537D01*
X-421502Y79229D01*
X-420958Y79121D01*
X-420414Y79229D01*
X-419953Y79537D01*
X-419645Y79998D01*
X-419537Y80542D01*
X-419565Y80684D01*
X-419140Y81109D01*
X-418998Y81081D01*
X-418455Y81189D01*
X-417994Y81497D01*
X-417686Y81958D01*
X-417577Y82502D01*
X-417686Y83045D01*
X-417994Y83506D01*
X-418455Y83815D01*
X-418998Y83923D01*
D02*
G37*
G36*
X-274125Y87877D02*
X-274781Y87746D01*
X-275337Y87375D01*
X-275708Y86818D01*
X-275839Y86163D01*
X-275708Y85507D01*
X-275337Y84951D01*
X-274937Y84683D01*
X-274923Y84645D01*
Y84166D01*
X-274937Y84128D01*
X-275337Y83860D01*
X-275708Y83304D01*
X-275839Y82648D01*
X-275708Y81992D01*
X-275337Y81436D01*
X-274781Y81065D01*
X-274125Y80934D01*
X-273469Y81065D01*
X-272913Y81436D01*
X-272541Y81992D01*
X-272411Y82648D01*
X-272541Y83304D01*
X-272913Y83860D01*
X-273313Y84128D01*
X-273326Y84166D01*
Y84645D01*
X-273313Y84683D01*
X-272913Y84951D01*
X-272541Y85507D01*
X-272411Y86163D01*
X-272541Y86818D01*
X-272913Y87375D01*
X-273469Y87746D01*
X-274125Y87877D01*
D02*
G37*
G36*
X-470142Y83934D02*
X-470798Y83804D01*
X-471354Y83433D01*
X-471726Y82876D01*
X-471856Y82221D01*
X-471726Y81564D01*
X-471354Y81008D01*
X-470798Y80637D01*
X-470142Y80506D01*
X-469486Y80637D01*
X-468930Y81008D01*
X-468559Y81564D01*
X-468428Y82221D01*
X-468559Y82876D01*
X-468930Y83433D01*
X-469486Y83804D01*
X-470142Y83934D01*
D02*
G37*
G36*
X-239500Y82735D02*
X-240044Y82627D01*
X-240505Y82319D01*
X-240813Y81858D01*
X-240921Y81314D01*
X-240813Y80770D01*
X-240505Y80309D01*
X-240044Y80001D01*
X-239500Y79893D01*
X-238956Y80001D01*
X-238495Y80309D01*
X-238187Y80770D01*
X-238079Y81314D01*
X-238187Y81858D01*
X-238495Y82319D01*
X-238956Y82627D01*
X-239500Y82735D01*
D02*
G37*
G36*
X-394000Y81425D02*
X-394544Y81316D01*
X-395005Y81008D01*
X-395313Y80547D01*
X-395421Y80004D01*
X-395313Y79460D01*
X-395005Y78999D01*
X-394544Y78691D01*
X-394000Y78583D01*
X-393456Y78691D01*
X-392995Y78999D01*
X-392687Y79460D01*
X-392579Y80004D01*
X-392687Y80547D01*
X-392995Y81008D01*
X-393456Y81316D01*
X-394000Y81425D01*
D02*
G37*
G36*
X-162537Y80946D02*
X-163081Y80838D01*
X-163542Y80530D01*
X-163850Y80069D01*
X-163958Y79525D01*
X-163850Y78981D01*
X-163542Y78520D01*
X-163081Y78212D01*
X-162537Y78104D01*
X-161993Y78212D01*
X-161532Y78520D01*
X-161224Y78981D01*
X-161116Y79525D01*
X-161224Y80069D01*
X-161532Y80530D01*
X-161993Y80838D01*
X-162537Y80946D01*
D02*
G37*
G36*
X-316537D02*
X-317081Y80838D01*
X-317542Y80530D01*
X-317850Y80069D01*
X-317958Y79525D01*
X-317850Y78981D01*
X-317542Y78520D01*
X-317081Y78212D01*
X-316537Y78104D01*
X-315993Y78212D01*
X-315532Y78520D01*
X-315224Y78981D01*
X-315116Y79525D01*
X-315224Y80069D01*
X-315532Y80530D01*
X-315993Y80838D01*
X-316537Y80946D01*
D02*
G37*
G36*
X-203996Y80876D02*
X-204540Y80768D01*
X-205001Y80460D01*
X-205309Y79999D01*
X-205417Y79455D01*
X-205309Y78911D01*
X-205001Y78450D01*
X-204540Y78142D01*
X-203996Y78034D01*
X-203452Y78142D01*
X-202991Y78450D01*
X-202683Y78911D01*
X-202575Y79455D01*
X-202683Y79999D01*
X-202991Y80460D01*
X-203452Y80768D01*
X-203996Y80876D01*
D02*
G37*
G36*
X-357996D02*
X-358540Y80768D01*
X-359001Y80460D01*
X-359309Y79999D01*
X-359417Y79455D01*
X-359309Y78911D01*
X-359001Y78450D01*
X-358540Y78142D01*
X-357996Y78034D01*
X-357452Y78142D01*
X-356991Y78450D01*
X-356683Y78911D01*
X-356575Y79455D01*
X-356683Y79999D01*
X-356991Y80460D01*
X-357452Y80768D01*
X-357996Y80876D01*
D02*
G37*
G36*
X-66599Y86610D02*
X-67963Y86430D01*
X-69234Y85904D01*
X-70325Y85066D01*
X-71162Y83975D01*
X-71689Y82704D01*
X-71868Y81340D01*
X-71689Y79976D01*
X-71162Y78705D01*
X-70325Y77614D01*
X-69234Y76777D01*
X-67963Y76250D01*
X-66599Y76071D01*
X-65235Y76250D01*
X-63964Y76777D01*
X-62873Y77614D01*
X-62036Y78705D01*
X-61509Y79976D01*
X-61330Y81340D01*
X-61509Y82704D01*
X-62036Y83975D01*
X-62873Y85066D01*
X-63964Y85904D01*
X-65235Y86430D01*
X-66599Y86610D01*
D02*
G37*
G36*
X-244790Y77969D02*
X-245334Y77860D01*
X-245795Y77552D01*
X-246103Y77091D01*
X-246211Y76548D01*
X-246103Y76004D01*
X-245795Y75543D01*
X-245334Y75235D01*
X-244790Y75127D01*
X-244247Y75235D01*
X-243786Y75543D01*
X-243478Y76004D01*
X-243369Y76548D01*
X-243478Y77091D01*
X-243786Y77552D01*
X-244247Y77860D01*
X-244790Y77969D01*
D02*
G37*
G36*
X-12599Y84010D02*
X-13963Y83830D01*
X-15234Y83304D01*
X-16325Y82466D01*
X-17163Y81375D01*
X-17689Y80104D01*
X-17868Y78740D01*
X-17689Y77376D01*
X-17163Y76105D01*
X-16325Y75014D01*
X-15234Y74177D01*
X-13963Y73650D01*
X-12599Y73471D01*
X-11235Y73650D01*
X-9964Y74177D01*
X-8873Y75014D01*
X-8036Y76105D01*
X-7509Y77376D01*
X-7329Y78740D01*
X-7509Y80104D01*
X-8036Y81375D01*
X-8873Y82466D01*
X-9964Y83304D01*
X-11235Y83830D01*
X-12599Y84010D01*
D02*
G37*
G36*
X-91499D02*
X-92863Y83830D01*
X-94134Y83304D01*
X-95225Y82466D01*
X-96062Y81375D01*
X-96589Y80104D01*
X-96768Y78740D01*
X-96589Y77376D01*
X-96062Y76105D01*
X-95225Y75014D01*
X-94134Y74177D01*
X-92863Y73650D01*
X-91499Y73471D01*
X-90135Y73650D01*
X-88864Y74177D01*
X-87773Y75014D01*
X-86936Y76105D01*
X-86409Y77376D01*
X-86229Y78740D01*
X-86409Y80104D01*
X-86936Y81375D01*
X-87773Y82466D01*
X-88864Y83304D01*
X-90135Y83830D01*
X-91499Y84010D01*
D02*
G37*
G36*
X-162601Y70627D02*
X-163145Y70519D01*
X-163606Y70211D01*
X-163914Y69750D01*
X-164022Y69206D01*
X-163914Y68662D01*
X-163606Y68201D01*
X-163145Y67893D01*
X-162601Y67785D01*
X-162057Y67893D01*
X-161596Y68201D01*
X-161288Y68662D01*
X-161180Y69206D01*
X-161288Y69750D01*
X-161596Y70211D01*
X-162057Y70519D01*
X-162601Y70627D01*
D02*
G37*
G36*
X-203950D02*
X-204494Y70519D01*
X-204955Y70211D01*
X-205263Y69750D01*
X-205371Y69206D01*
X-205263Y68662D01*
X-204955Y68201D01*
X-204494Y67893D01*
X-203950Y67785D01*
X-203406Y67893D01*
X-202945Y68201D01*
X-202637Y68662D01*
X-202529Y69206D01*
X-202637Y69750D01*
X-202945Y70211D01*
X-203406Y70519D01*
X-203950Y70627D01*
D02*
G37*
G36*
X-316601D02*
X-317145Y70519D01*
X-317606Y70211D01*
X-317914Y69750D01*
X-318022Y69206D01*
X-317914Y68662D01*
X-317606Y68201D01*
X-317145Y67893D01*
X-316601Y67785D01*
X-316057Y67893D01*
X-315596Y68201D01*
X-315288Y68662D01*
X-315180Y69206D01*
X-315288Y69750D01*
X-315596Y70211D01*
X-316057Y70519D01*
X-316601Y70627D01*
D02*
G37*
G36*
X-357950D02*
X-358494Y70519D01*
X-358955Y70211D01*
X-359263Y69750D01*
X-359371Y69206D01*
X-359263Y68662D01*
X-358955Y68201D01*
X-358494Y67893D01*
X-357950Y67785D01*
X-357406Y67893D01*
X-356945Y68201D01*
X-356637Y68662D01*
X-356529Y69206D01*
X-356637Y69750D01*
X-356945Y70211D01*
X-357406Y70519D01*
X-357950Y70627D01*
D02*
G37*
G36*
X-395818Y70603D02*
X-396361Y70495D01*
X-396822Y70187D01*
X-397130Y69726D01*
X-397239Y69182D01*
X-397130Y68639D01*
X-396822Y68178D01*
X-396361Y67870D01*
X-395818Y67761D01*
X-395274Y67870D01*
X-394813Y68178D01*
X-394505Y68639D01*
X-394397Y69182D01*
X-394505Y69726D01*
X-394813Y70187D01*
X-395274Y70495D01*
X-395818Y70603D01*
D02*
G37*
G36*
X-120000Y69421D02*
X-120544Y69313D01*
X-121005Y69005D01*
X-121313Y68544D01*
X-121421Y68000D01*
X-121313Y67456D01*
X-121005Y66995D01*
X-120544Y66687D01*
X-120000Y66579D01*
X-119456Y66687D01*
X-118995Y66995D01*
X-118687Y67456D01*
X-118579Y68000D01*
X-118687Y68544D01*
X-118995Y69005D01*
X-119456Y69313D01*
X-120000Y69421D01*
D02*
G37*
G36*
X-244500Y68707D02*
X-245044Y68599D01*
X-245505Y68291D01*
X-245813Y67830D01*
X-245921Y67286D01*
X-245813Y66742D01*
X-245505Y66281D01*
X-245044Y65973D01*
X-244500Y65865D01*
X-243956Y65973D01*
X-243495Y66281D01*
X-243187Y66742D01*
X-243079Y67286D01*
X-243187Y67830D01*
X-243495Y68291D01*
X-243956Y68599D01*
X-244500Y68707D01*
D02*
G37*
G36*
X-274125Y69877D02*
X-274781Y69746D01*
X-275337Y69375D01*
X-275708Y68818D01*
X-275839Y68163D01*
X-275708Y67507D01*
X-275337Y66951D01*
X-274937Y66683D01*
X-274923Y66645D01*
Y66166D01*
X-274937Y66128D01*
X-275337Y65860D01*
X-275708Y65304D01*
X-275839Y64648D01*
X-275708Y63992D01*
X-275337Y63436D01*
X-274781Y63065D01*
X-274125Y62934D01*
X-273469Y63065D01*
X-272913Y63436D01*
X-272541Y63992D01*
X-272411Y64648D01*
X-272541Y65304D01*
X-272913Y65860D01*
X-273313Y66128D01*
X-273326Y66166D01*
Y66645D01*
X-273313Y66683D01*
X-272913Y66951D01*
X-272541Y67507D01*
X-272411Y68163D01*
X-272541Y68818D01*
X-272913Y69375D01*
X-273469Y69746D01*
X-274125Y69877D01*
D02*
G37*
G36*
X-393500Y65635D02*
X-394044Y65527D01*
X-394505Y65219D01*
X-394813Y64758D01*
X-394921Y64214D01*
X-394813Y63670D01*
X-394505Y63209D01*
X-394044Y62901D01*
X-393500Y62793D01*
X-392956Y62901D01*
X-392495Y63209D01*
X-392187Y63670D01*
X-392079Y64214D01*
X-392187Y64758D01*
X-392495Y65219D01*
X-392956Y65527D01*
X-393500Y65635D01*
D02*
G37*
G36*
X-249500Y64235D02*
X-250044Y64127D01*
X-250505Y63819D01*
X-250813Y63358D01*
X-250921Y62814D01*
X-250813Y62270D01*
X-250505Y61809D01*
X-250044Y61501D01*
X-249500Y61393D01*
X-248956Y61501D01*
X-248495Y61809D01*
X-248187Y62270D01*
X-248079Y62814D01*
X-248187Y63358D01*
X-248495Y63819D01*
X-248956Y64127D01*
X-249500Y64235D01*
D02*
G37*
G36*
X-162602Y60784D02*
X-163146Y60676D01*
X-163607Y60368D01*
X-163915Y59907D01*
X-164023Y59363D01*
X-163915Y58820D01*
X-163607Y58359D01*
X-163146Y58051D01*
X-162602Y57942D01*
X-162058Y58051D01*
X-161598Y58359D01*
X-161290Y58820D01*
X-161181Y59363D01*
X-161290Y59907D01*
X-161598Y60368D01*
X-162058Y60676D01*
X-162602Y60784D01*
D02*
G37*
G36*
X-203948D02*
X-204492Y60676D01*
X-204953Y60368D01*
X-205261Y59907D01*
X-205369Y59363D01*
X-205261Y58820D01*
X-204953Y58359D01*
X-204492Y58051D01*
X-203948Y57942D01*
X-203405Y58051D01*
X-202944Y58359D01*
X-202636Y58820D01*
X-202527Y59363D01*
X-202636Y59907D01*
X-202944Y60368D01*
X-203405Y60676D01*
X-203948Y60784D01*
D02*
G37*
G36*
X-316602D02*
X-317146Y60676D01*
X-317607Y60368D01*
X-317915Y59907D01*
X-318023Y59363D01*
X-317915Y58820D01*
X-317607Y58359D01*
X-317146Y58051D01*
X-316602Y57942D01*
X-316058Y58051D01*
X-315598Y58359D01*
X-315289Y58820D01*
X-315181Y59363D01*
X-315289Y59907D01*
X-315598Y60368D01*
X-316058Y60676D01*
X-316602Y60784D01*
D02*
G37*
G36*
X-357948D02*
X-358492Y60676D01*
X-358953Y60368D01*
X-359261Y59907D01*
X-359369Y59363D01*
X-359261Y58820D01*
X-358953Y58359D01*
X-358492Y58051D01*
X-357948Y57942D01*
X-357405Y58051D01*
X-356944Y58359D01*
X-356636Y58820D01*
X-356527Y59363D01*
X-356636Y59907D01*
X-356944Y60368D01*
X-357405Y60676D01*
X-357948Y60784D01*
D02*
G37*
G36*
X-397000Y53365D02*
X-397544Y53257D01*
X-398005Y52948D01*
X-398313Y52487D01*
X-398421Y51944D01*
X-398313Y51400D01*
X-398005Y50939D01*
X-397544Y50631D01*
X-397000Y50523D01*
X-396456Y50631D01*
X-395995Y50939D01*
X-395687Y51400D01*
X-395579Y51944D01*
X-395687Y52487D01*
X-395995Y52948D01*
X-396456Y53257D01*
X-397000Y53365D01*
D02*
G37*
G36*
X-242000Y51965D02*
X-242544Y51857D01*
X-243005Y51548D01*
X-243313Y51087D01*
X-243421Y50544D01*
X-243313Y50000D01*
X-243005Y49539D01*
X-242544Y49231D01*
X-242000Y49123D01*
X-241456Y49231D01*
X-240995Y49539D01*
X-240687Y50000D01*
X-240579Y50544D01*
X-240687Y51087D01*
X-240995Y51548D01*
X-241456Y51857D01*
X-242000Y51965D01*
D02*
G37*
G36*
X-120000Y51421D02*
X-120544Y51313D01*
X-121005Y51005D01*
X-121313Y50544D01*
X-121421Y50000D01*
X-121313Y49456D01*
X-121005Y48995D01*
X-120544Y48687D01*
X-120000Y48579D01*
X-119456Y48687D01*
X-118995Y48995D01*
X-118687Y49456D01*
X-118579Y50000D01*
X-118687Y50544D01*
X-118995Y51005D01*
X-119456Y51313D01*
X-120000Y51421D01*
D02*
G37*
G36*
X-162603Y50942D02*
X-163147Y50834D01*
X-163608Y50526D01*
X-163916Y50065D01*
X-164024Y49521D01*
X-163916Y48977D01*
X-163608Y48516D01*
X-163147Y48208D01*
X-162603Y48100D01*
X-162059Y48208D01*
X-161598Y48516D01*
X-161290Y48977D01*
X-161182Y49521D01*
X-161290Y50065D01*
X-161598Y50526D01*
X-162059Y50834D01*
X-162603Y50942D01*
D02*
G37*
G36*
X-203948D02*
X-204492Y50834D01*
X-204953Y50526D01*
X-205261Y50065D01*
X-205369Y49521D01*
X-205261Y48977D01*
X-204953Y48516D01*
X-204492Y48208D01*
X-203948Y48100D01*
X-203404Y48208D01*
X-202943Y48516D01*
X-202635Y48977D01*
X-202527Y49521D01*
X-202635Y50065D01*
X-202943Y50526D01*
X-203404Y50834D01*
X-203948Y50942D01*
D02*
G37*
G36*
X-316603D02*
X-317147Y50834D01*
X-317608Y50526D01*
X-317916Y50065D01*
X-318024Y49521D01*
X-317916Y48977D01*
X-317608Y48516D01*
X-317147Y48208D01*
X-316603Y48100D01*
X-316059Y48208D01*
X-315598Y48516D01*
X-315290Y48977D01*
X-315182Y49521D01*
X-315290Y50065D01*
X-315598Y50526D01*
X-316059Y50834D01*
X-316603Y50942D01*
D02*
G37*
G36*
X-357948D02*
X-358492Y50834D01*
X-358953Y50526D01*
X-359261Y50065D01*
X-359369Y49521D01*
X-359261Y48977D01*
X-358953Y48516D01*
X-358492Y48208D01*
X-357948Y48100D01*
X-357404Y48208D01*
X-356943Y48516D01*
X-356635Y48977D01*
X-356527Y49521D01*
X-356635Y50065D01*
X-356943Y50526D01*
X-357404Y50834D01*
X-357948Y50942D01*
D02*
G37*
G36*
X-394000Y48893D02*
X-394544Y48785D01*
X-395005Y48477D01*
X-395313Y48016D01*
X-395421Y47472D01*
X-395313Y46928D01*
X-395005Y46467D01*
X-394544Y46159D01*
X-394000Y46051D01*
X-393456Y46159D01*
X-392995Y46467D01*
X-392687Y46928D01*
X-392579Y47472D01*
X-392687Y48016D01*
X-392995Y48477D01*
X-393456Y48785D01*
X-394000Y48893D01*
D02*
G37*
G36*
X-274125Y51877D02*
X-274781Y51746D01*
X-275337Y51375D01*
X-275708Y50819D01*
X-275839Y50163D01*
X-275708Y49507D01*
X-275337Y48951D01*
X-274937Y48683D01*
X-274923Y48645D01*
Y48166D01*
X-274937Y48128D01*
X-275337Y47860D01*
X-275708Y47304D01*
X-275839Y46648D01*
X-275708Y45992D01*
X-275337Y45436D01*
X-274781Y45065D01*
X-274125Y44934D01*
X-273469Y45065D01*
X-272913Y45436D01*
X-272541Y45992D01*
X-272411Y46648D01*
X-272541Y47304D01*
X-272913Y47860D01*
X-273313Y48128D01*
X-273326Y48166D01*
Y48645D01*
X-273313Y48683D01*
X-272913Y48951D01*
X-272541Y49507D01*
X-272411Y50163D01*
X-272541Y50819D01*
X-272913Y51375D01*
X-273469Y51746D01*
X-274125Y51877D01*
D02*
G37*
G36*
X-245815Y47493D02*
X-246359Y47385D01*
X-246820Y47077D01*
X-247128Y46616D01*
X-247236Y46072D01*
X-247128Y45528D01*
X-246820Y45067D01*
X-246359Y44759D01*
X-245815Y44651D01*
X-245272Y44759D01*
X-244811Y45067D01*
X-244503Y45528D01*
X-244394Y46072D01*
X-244503Y46616D01*
X-244811Y47077D01*
X-245272Y47385D01*
X-245815Y47493D01*
D02*
G37*
G36*
X-398000Y37107D02*
X-398544Y36999D01*
X-399005Y36691D01*
X-399313Y36230D01*
X-399421Y35686D01*
X-399313Y35142D01*
X-399005Y34681D01*
X-398544Y34373D01*
X-398000Y34265D01*
X-397456Y34373D01*
X-396995Y34681D01*
X-396687Y35142D01*
X-396579Y35686D01*
X-396687Y36230D01*
X-396995Y36691D01*
X-397456Y36999D01*
X-398000Y37107D01*
D02*
G37*
G36*
X-239500Y35707D02*
X-240044Y35599D01*
X-240505Y35291D01*
X-240813Y34830D01*
X-240921Y34286D01*
X-240813Y33742D01*
X-240505Y33281D01*
X-240044Y32973D01*
X-239500Y32865D01*
X-238956Y32973D01*
X-238495Y33281D01*
X-238187Y33742D01*
X-238079Y34286D01*
X-238187Y34830D01*
X-238495Y35291D01*
X-238956Y35599D01*
X-239500Y35707D01*
D02*
G37*
G36*
X-120000Y33407D02*
X-120544Y33299D01*
X-121005Y32991D01*
X-121313Y32530D01*
X-121421Y31986D01*
X-121313Y31442D01*
X-121005Y30981D01*
X-120544Y30673D01*
X-120000Y30565D01*
X-119456Y30673D01*
X-118995Y30981D01*
X-118687Y31442D01*
X-118579Y31986D01*
X-118687Y32530D01*
X-118995Y32991D01*
X-119456Y33299D01*
X-120000Y33407D01*
D02*
G37*
G36*
X-394500Y32635D02*
X-395044Y32527D01*
X-395505Y32219D01*
X-395813Y31758D01*
X-395921Y31214D01*
X-395813Y30670D01*
X-395505Y30209D01*
X-395044Y29901D01*
X-394500Y29793D01*
X-393956Y29901D01*
X-393495Y30209D01*
X-393187Y30670D01*
X-393079Y31214D01*
X-393187Y31758D01*
X-393495Y32219D01*
X-393956Y32527D01*
X-394500Y32635D01*
D02*
G37*
G36*
X-243666Y31235D02*
X-244209Y31127D01*
X-244670Y30819D01*
X-244978Y30358D01*
X-245087Y29814D01*
X-244978Y29270D01*
X-244670Y28809D01*
X-244209Y28501D01*
X-243666Y28393D01*
X-243122Y28501D01*
X-242661Y28809D01*
X-242353Y29270D01*
X-242245Y29814D01*
X-242353Y30358D01*
X-242661Y30819D01*
X-243122Y31127D01*
X-243666Y31235D01*
D02*
G37*
G36*
X-274125Y33877D02*
X-274781Y33746D01*
X-275337Y33375D01*
X-275708Y32818D01*
X-275839Y32163D01*
X-275708Y31507D01*
X-275337Y30951D01*
X-274937Y30683D01*
X-274923Y30645D01*
Y30166D01*
X-274937Y30128D01*
X-275337Y29860D01*
X-275708Y29304D01*
X-275839Y28648D01*
X-275708Y27992D01*
X-275337Y27436D01*
X-274781Y27065D01*
X-274125Y26934D01*
X-273469Y27065D01*
X-272913Y27436D01*
X-272541Y27992D01*
X-272411Y28648D01*
X-272541Y29304D01*
X-272913Y29860D01*
X-273313Y30128D01*
X-273326Y30166D01*
Y30645D01*
X-273313Y30683D01*
X-272913Y30951D01*
X-272541Y31507D01*
X-272411Y32163D01*
X-272541Y32818D01*
X-272913Y33375D01*
X-273469Y33746D01*
X-274125Y33877D01*
D02*
G37*
G36*
X-142047Y29453D02*
X-148953D01*
Y22547D01*
X-142047D01*
Y29453D01*
D02*
G37*
G36*
X-295047D02*
X-301953D01*
Y22547D01*
X-295047D01*
Y29453D01*
D02*
G37*
G36*
X-155500Y29482D02*
X-156401Y29364D01*
X-157241Y29016D01*
X-157963Y28462D01*
X-158516Y27741D01*
X-158864Y26901D01*
X-158983Y26000D01*
X-158864Y25099D01*
X-158516Y24259D01*
X-157963Y23538D01*
X-157241Y22984D01*
X-156401Y22636D01*
X-155500Y22517D01*
X-154599Y22636D01*
X-153759Y22984D01*
X-153038Y23538D01*
X-152484Y24259D01*
X-152136Y25099D01*
X-152017Y26000D01*
X-152136Y26901D01*
X-152484Y27741D01*
X-153038Y28462D01*
X-153759Y29016D01*
X-154599Y29364D01*
X-155500Y29482D01*
D02*
G37*
G36*
X-308500D02*
X-309401Y29364D01*
X-310241Y29016D01*
X-310963Y28462D01*
X-311516Y27741D01*
X-311864Y26901D01*
X-311982Y26000D01*
X-311864Y25099D01*
X-311516Y24259D01*
X-310963Y23538D01*
X-310241Y22984D01*
X-309401Y22636D01*
X-308500Y22517D01*
X-307599Y22636D01*
X-306759Y22984D01*
X-306037Y23538D01*
X-305484Y24259D01*
X-305136Y25099D01*
X-305017Y26000D01*
X-305136Y26901D01*
X-305484Y27741D01*
X-306037Y28462D01*
X-306759Y29016D01*
X-307599Y29364D01*
X-308500Y29482D01*
D02*
G37*
G36*
X-210047Y27453D02*
X-216953D01*
Y20547D01*
X-210047D01*
Y27453D01*
D02*
G37*
G36*
X-363590D02*
X-370495D01*
Y20547D01*
X-363590D01*
Y27453D01*
D02*
G37*
G36*
X-223500Y27483D02*
X-224401Y27364D01*
X-225241Y27016D01*
X-225962Y26463D01*
X-226516Y25741D01*
X-226864Y24901D01*
X-226982Y24000D01*
X-226864Y23099D01*
X-226516Y22259D01*
X-225962Y21538D01*
X-225241Y20984D01*
X-224401Y20636D01*
X-223500Y20517D01*
X-222599Y20636D01*
X-221759Y20984D01*
X-221038Y21538D01*
X-220484Y22259D01*
X-220136Y23099D01*
X-220018Y24000D01*
X-220136Y24901D01*
X-220484Y25741D01*
X-221038Y26463D01*
X-221759Y27016D01*
X-222599Y27364D01*
X-223500Y27483D01*
D02*
G37*
G36*
X-377043D02*
X-377944Y27364D01*
X-378784Y27016D01*
X-379505Y26463D01*
X-380058Y25741D01*
X-380406Y24901D01*
X-380525Y24000D01*
X-380406Y23099D01*
X-380058Y22259D01*
X-379505Y21538D01*
X-378784Y20984D01*
X-377944Y20636D01*
X-377043Y20517D01*
X-376141Y20636D01*
X-375301Y20984D01*
X-374580Y21538D01*
X-374026Y22259D01*
X-373679Y23099D01*
X-373560Y24000D01*
X-373679Y24901D01*
X-374026Y25741D01*
X-374580Y26463D01*
X-375301Y27016D01*
X-376141Y27364D01*
X-377043Y27483D01*
D02*
G37*
%LPD*%
D72*
X-446571Y336653D02*
D03*
X-441847D02*
D03*
X-437123D02*
D03*
Y331929D02*
D03*
X-446571D02*
D03*
Y327205D02*
D03*
X-441886Y327165D02*
D03*
X-437162D02*
D03*
Y246386D02*
D03*
X-441886D02*
D03*
X-446571Y246425D02*
D03*
Y251150D02*
D03*
X-437123D02*
D03*
Y255874D02*
D03*
X-441847D02*
D03*
X-446571D02*
D03*
Y170874D02*
D03*
X-441847D02*
D03*
X-437123D02*
D03*
Y166150D02*
D03*
X-446571D02*
D03*
Y161425D02*
D03*
X-441886Y161386D02*
D03*
X-437162D02*
D03*
Y77386D02*
D03*
X-441886D02*
D03*
X-446571Y77425D02*
D03*
Y82150D02*
D03*
X-437123D02*
D03*
Y86874D02*
D03*
X-441847D02*
D03*
X-446571D02*
D03*
D83*
X-441847Y331929D02*
D03*
Y251150D02*
D03*
Y166150D02*
D03*
Y82150D02*
D03*
D86*
X-535400Y161200D02*
D03*
X-504142Y376000D02*
D03*
D89*
X-383185Y115000D02*
D03*
X-383685Y130500D02*
D03*
Y147500D02*
D03*
Y164000D02*
D03*
X-384186Y354000D02*
D03*
Y337500D02*
D03*
Y320500D02*
D03*
X-383686Y305000D02*
D03*
X-451575Y175197D02*
D03*
X-556642Y71000D02*
D03*
X-573642Y76000D02*
D03*
X-559142Y227000D02*
D03*
X-582142D02*
D03*
X-605142D02*
D03*
X-597642Y191500D02*
D03*
X-574142D02*
D03*
X-551142D02*
D03*
X-574642Y151500D02*
D03*
X-589142Y143500D02*
D03*
X-25642Y47890D02*
D03*
X-450318Y319731D02*
D03*
X-450176Y239052D02*
D03*
Y154052D02*
D03*
Y70052D02*
D03*
X-230190Y114795D02*
D03*
X-230690Y130295D02*
D03*
Y147295D02*
D03*
Y163795D02*
D03*
X-384190Y24795D02*
D03*
X-384690Y40295D02*
D03*
Y57295D02*
D03*
Y73795D02*
D03*
X-383686Y214449D02*
D03*
X-384186Y229949D02*
D03*
Y246949D02*
D03*
Y263449D02*
D03*
X-230190Y24795D02*
D03*
X-230690Y40295D02*
D03*
Y57295D02*
D03*
Y73795D02*
D03*
X-230142Y214449D02*
D03*
X-230642Y229949D02*
D03*
Y246949D02*
D03*
Y263449D02*
D03*
X-230142Y305000D02*
D03*
X-230642Y320500D02*
D03*
Y337500D02*
D03*
Y354000D02*
D03*
X-475142Y69221D02*
D03*
Y81221D02*
D03*
X-462792Y89720D02*
D03*
X-475142Y153220D02*
D03*
Y165220D02*
D03*
X-462792Y173721D02*
D03*
X-475142Y238221D02*
D03*
Y250220D02*
D03*
X-462792Y258720D02*
D03*
Y339500D02*
D03*
X-475142Y319000D02*
D03*
Y331000D02*
D03*
X-508142Y345000D02*
D03*
X-503142D02*
D03*
X-500142Y349000D02*
D03*
Y355000D02*
D03*
X-503142Y359000D02*
D03*
X-508142D02*
D03*
X-507242Y288900D02*
D03*
X-502242D02*
D03*
X-499242Y292900D02*
D03*
Y298900D02*
D03*
X-502242Y302900D02*
D03*
X-507242D02*
D03*
D90*
X-330500Y158000D02*
D03*
X-352000Y129500D02*
D03*
X-270000Y167000D02*
D03*
X-330000Y137500D02*
D03*
X-330500Y147500D02*
D03*
X-361685Y170500D02*
D03*
X-364185Y158500D02*
D03*
X-363685Y148500D02*
D03*
X-363630Y137034D02*
D03*
X-375681Y180276D02*
D03*
X-309723Y169538D02*
D03*
X-308685Y158500D02*
D03*
Y147500D02*
D03*
Y137500D02*
D03*
X-351431Y139000D02*
D03*
Y148500D02*
D03*
Y158500D02*
D03*
X-270499Y143000D02*
D03*
X-329983Y327740D02*
D03*
X-330186Y337500D02*
D03*
X-329952Y347425D02*
D03*
X-352186Y319883D02*
D03*
X-351932Y329000D02*
D03*
Y338500D02*
D03*
Y348500D02*
D03*
X-309186Y327500D02*
D03*
Y337500D02*
D03*
Y348500D02*
D03*
X-310224Y359538D02*
D03*
X-376182Y370276D02*
D03*
X-364131Y327034D02*
D03*
X-364186Y338500D02*
D03*
X-364686Y348500D02*
D03*
X-362186Y360500D02*
D03*
X-112633Y367367D02*
D03*
X-115000Y351000D02*
D03*
X-116000Y332264D02*
D03*
X-112000Y306000D02*
D03*
X-115125Y284125D02*
D03*
X-115993Y253993D02*
D03*
X-116779Y235736D02*
D03*
X-117758Y218758D02*
D03*
X-260152Y363848D02*
D03*
X-271778Y352000D02*
D03*
X-271000Y333000D02*
D03*
Y302000D02*
D03*
X-271377Y267622D02*
D03*
X-270000Y260000D02*
D03*
Y242000D02*
D03*
Y211000D02*
D03*
X-272000Y180000D02*
D03*
X-271052Y126133D02*
D03*
X-273000Y79000D02*
D03*
Y72000D02*
D03*
X-272728Y54000D02*
D03*
X-271000Y35000D02*
D03*
X-117000Y178000D02*
D03*
X-115736Y163000D02*
D03*
X-117000Y142041D02*
D03*
X-115000Y125000D02*
D03*
X-132000Y97000D02*
D03*
X-118127Y71127D02*
D03*
X-116000Y53000D02*
D03*
Y35000D02*
D03*
X-606694Y68110D02*
D03*
X-231201Y370374D02*
D03*
X-231595Y279232D02*
D03*
Y179724D02*
D03*
X-228839Y96653D02*
D03*
X-386221Y89764D02*
D03*
X-376280Y279331D02*
D03*
X-561615Y166929D02*
D03*
X-451575Y340551D02*
D03*
X-454858Y335342D02*
D03*
X-451575Y259842D02*
D03*
X-454776Y254480D02*
D03*
X-451575Y90551D02*
D03*
X-454776Y85480D02*
D03*
Y169480D02*
D03*
X-621642Y61000D02*
D03*
X-606406Y80931D02*
D03*
X-208690Y170295D02*
D03*
X-211190Y158295D02*
D03*
X-210690Y148295D02*
D03*
X-210635Y136829D02*
D03*
X-156728Y169334D02*
D03*
X-155690Y158295D02*
D03*
Y147295D02*
D03*
Y137295D02*
D03*
X-198436Y158295D02*
D03*
Y148295D02*
D03*
Y138795D02*
D03*
X-198690Y129678D02*
D03*
X-176456Y157220D02*
D03*
X-176690Y147295D02*
D03*
X-176487Y137535D02*
D03*
X-362690Y80295D02*
D03*
X-365190Y68295D02*
D03*
X-364690Y58295D02*
D03*
X-364635Y46830D02*
D03*
X-310728Y79334D02*
D03*
X-309690Y68295D02*
D03*
Y57295D02*
D03*
Y47295D02*
D03*
X-352436Y68295D02*
D03*
Y58295D02*
D03*
Y48795D02*
D03*
X-352690Y39678D02*
D03*
X-330456Y67220D02*
D03*
X-330690Y57295D02*
D03*
X-330487Y47535D02*
D03*
X-362186Y269949D02*
D03*
X-364686Y257949D02*
D03*
X-364186Y247949D02*
D03*
X-364131Y236483D02*
D03*
X-310224Y268987D02*
D03*
X-309186Y257949D02*
D03*
Y246949D02*
D03*
Y236949D02*
D03*
X-351932Y257949D02*
D03*
Y247949D02*
D03*
Y238449D02*
D03*
X-352186Y229332D02*
D03*
X-329952Y256874D02*
D03*
X-330186Y246949D02*
D03*
X-329983Y237189D02*
D03*
X-208690Y80295D02*
D03*
X-211190Y68295D02*
D03*
X-210690Y58295D02*
D03*
X-210635Y46830D02*
D03*
X-156728Y79334D02*
D03*
X-155690Y68295D02*
D03*
Y57295D02*
D03*
Y47295D02*
D03*
X-198436Y68295D02*
D03*
Y58295D02*
D03*
Y48795D02*
D03*
X-198690Y39678D02*
D03*
X-176456Y67220D02*
D03*
X-176690Y57295D02*
D03*
X-176487Y47535D02*
D03*
X-208642Y269949D02*
D03*
X-211142Y257949D02*
D03*
X-210642Y247949D02*
D03*
X-210588Y236483D02*
D03*
X-156681Y268987D02*
D03*
X-155642Y257949D02*
D03*
Y246949D02*
D03*
Y236949D02*
D03*
X-198389Y257949D02*
D03*
Y247949D02*
D03*
Y238449D02*
D03*
X-198642Y229332D02*
D03*
X-176409Y256874D02*
D03*
X-176642Y246949D02*
D03*
X-176440Y237189D02*
D03*
X-155642Y327500D02*
D03*
Y337500D02*
D03*
Y348500D02*
D03*
X-156681Y359538D02*
D03*
X-176440Y327740D02*
D03*
X-176642Y337500D02*
D03*
X-176409Y347425D02*
D03*
X-210588Y327034D02*
D03*
X-210642Y338500D02*
D03*
X-211142Y348500D02*
D03*
X-208642Y360500D02*
D03*
X-198642Y319883D02*
D03*
X-198389Y348500D02*
D03*
Y338500D02*
D03*
Y329000D02*
D03*
X-469642Y102720D02*
D03*
X-464142Y117720D02*
D03*
X-455642Y62721D02*
D03*
X-460142Y107220D02*
D03*
X-469642Y186721D02*
D03*
X-464142Y201720D02*
D03*
X-455642Y146721D02*
D03*
X-460142Y191220D02*
D03*
X-469642Y271721D02*
D03*
X-464142Y286720D02*
D03*
X-455642Y231720D02*
D03*
X-460142Y276220D02*
D03*
X-455642Y312500D02*
D03*
X-464142Y367500D02*
D03*
X-460142Y357000D02*
D03*
X-469642Y352500D02*
D03*
M02*
