G04*
G04 #@! TF.GenerationSoftware,Altium Limited,Altium Designer,25.8.1 (18)*
G04*
G04 Layer_Physical_Order=3*
G04 Layer_Color=16440176*
%FSLAX25Y25*%
%MOIN*%
G70*
G04*
G04 #@! TF.SameCoordinates,915AE6A9-C4C5-440B-A756-940E0959A614*
G04*
G04*
G04 #@! TF.FilePolarity,Positive*
G04*
G01*
G75*
%ADD20C,0.01000*%
%ADD21C,0.02000*%
%ADD76C,0.00700*%
%ADD77C,0.01400*%
%ADD81C,0.03543*%
%ADD84C,0.05906*%
%ADD89C,0.02362*%
%ADD90C,0.01772*%
D20*
X-540642Y266000D02*
X-539164D01*
X-541504Y265138D02*
X-540642Y266000D01*
X-541504Y265138D02*
X-537969Y261602D01*
X-539383Y260188D02*
X-537969Y261602D01*
X-546454Y267259D02*
X-539383Y260188D01*
X-547868Y265845D02*
X-546454Y267259D01*
X-547868Y265845D02*
X-540797Y258774D01*
X-542212Y257360D02*
X-540797Y258774D01*
X-549283Y264431D02*
X-542212Y257360D01*
X-550697Y263017D02*
X-549283Y264431D01*
X-550697Y263017D02*
X-543626Y255945D01*
X-545040Y254531D02*
X-543626Y255945D01*
X-552111Y261602D02*
X-545040Y254531D01*
X-553525Y260188D02*
X-552111Y261602D01*
X-553525Y260188D02*
X-546454Y253117D01*
X-547868Y251703D02*
X-546454Y253117D01*
X-554940Y258774D02*
X-547868Y251703D01*
X-556354Y257360D02*
X-554940Y258774D01*
X-556354Y257360D02*
X-549283Y250289D01*
X-550697Y248874D02*
X-549283Y250289D01*
X-557768Y255945D02*
X-550697Y248874D01*
X-559182Y254531D02*
X-557768Y255945D01*
X-559182Y254531D02*
X-552111Y247460D01*
X-553525Y246046D02*
X-552111Y247460D01*
X-560596Y253117D02*
X-553525Y246046D01*
X-562011Y251703D02*
X-560596Y253117D01*
X-562011Y251703D02*
X-554940Y244632D01*
X-556354Y243217D02*
X-554940Y244632D01*
X-563177Y250041D02*
X-556354Y243217D01*
X-564591Y248626D02*
X-563177Y250041D01*
X-564591Y248626D02*
X-557768Y241803D01*
X-559182Y240389D02*
X-557768Y241803D01*
X-565877Y247084D02*
X-559182Y240389D01*
X-567291Y245670D02*
X-565877Y247084D01*
X-567291Y245670D02*
X-560596Y238975D01*
X-562010Y237561D02*
X-560596Y238975D01*
X-568700Y244250D02*
X-562010Y237561D01*
X-570114Y242836D02*
X-568700Y244250D01*
X-570114Y242836D02*
X-563425Y236146D01*
X-564839Y234732D02*
X-563425Y236146D01*
X-571528Y241422D02*
X-564839Y234732D01*
X-572942Y240007D02*
X-571528Y241422D01*
X-572942Y240007D02*
X-569789Y236854D01*
X-570142Y236500D02*
X-569789Y236854D01*
X-539164Y266000D02*
X-514142D01*
X-503453Y272189D02*
X-458142Y317500D01*
X-504433Y271209D02*
X-503453Y272189D01*
X-505623Y272398D02*
X-504433Y271209D01*
X-507037Y270984D02*
X-505623Y272398D01*
X-507037Y270984D02*
X-502312Y266259D01*
X-503726Y264845D02*
X-502312Y266259D01*
X-508451Y269570D02*
X-503726Y264845D01*
X-509865Y268156D02*
X-508451Y269570D01*
X-509865Y268156D02*
X-505140Y263431D01*
X-506555Y262017D02*
X-505140Y263431D01*
X-511280Y266741D02*
X-506555Y262017D01*
X-512694Y265327D02*
X-511280Y266741D01*
X-512694Y265327D02*
X-507969Y260602D01*
X-509383Y259188D02*
X-507969Y260602D01*
X-514695Y264500D02*
X-509383Y259188D01*
X-516109Y263086D02*
X-514695Y264500D01*
X-516109Y263086D02*
X-510797Y257774D01*
X-512212Y256360D02*
X-510797Y257774D01*
X-519283Y263431D02*
X-512212Y256360D01*
X-520697Y262017D02*
X-519283Y263431D01*
X-520697Y262017D02*
X-513626Y254945D01*
X-515040Y253531D02*
X-513626Y254945D01*
X-522111Y260602D02*
X-515040Y253531D01*
X-523525Y259188D02*
X-522111Y260602D01*
X-523525Y259188D02*
X-516454Y252117D01*
X-517868Y250703D02*
X-516454Y252117D01*
X-524939Y257774D02*
X-517868Y250703D01*
X-526354Y256360D02*
X-524939Y257774D01*
X-526354Y256360D02*
X-519283Y249289D01*
X-520697Y247874D02*
X-519283Y249289D01*
X-527768Y254945D02*
X-520697Y247874D01*
X-529182Y253531D02*
X-527768Y254945D01*
X-529182Y253531D02*
X-522111Y246460D01*
X-523525Y245046D02*
X-522111Y246460D01*
X-530596Y252117D02*
X-523525Y245046D01*
X-532011Y250703D02*
X-530596Y252117D01*
X-532011Y250703D02*
X-524939Y243632D01*
X-526354Y242217D02*
X-524939Y243632D01*
X-533425Y249289D02*
X-526354Y242217D01*
X-534839Y247874D02*
X-533425Y249289D01*
X-534839Y247874D02*
X-527768Y240803D01*
X-529182Y239389D02*
X-527768Y240803D01*
X-536253Y246460D02*
X-529182Y239389D01*
X-537667Y245046D02*
X-536253Y246460D01*
X-537667Y245046D02*
X-530596Y237975D01*
X-532011Y236561D02*
X-530596Y237975D01*
X-539082Y243632D02*
X-532011Y236561D01*
X-540496Y242217D02*
X-539082Y243632D01*
X-540496Y242217D02*
X-533425Y235146D01*
X-534839Y233732D02*
X-533425Y235146D01*
X-541910Y240803D02*
X-534839Y233732D01*
X-543324Y239389D02*
X-541910Y240803D01*
X-543324Y239389D02*
X-539789Y235854D01*
X-540142Y235500D02*
X-539789Y235854D01*
X-565412Y256730D02*
X-550642Y271500D01*
X-566333Y255809D02*
X-565412Y256730D01*
X-566333Y255809D02*
X-563174Y252650D01*
X-564588Y251236D02*
X-563174Y252650D01*
X-571283Y257931D02*
X-564588Y251236D01*
X-572697Y256517D02*
X-571283Y257931D01*
X-572697Y256517D02*
X-565754Y249574D01*
X-567168Y248160D02*
X-565754Y249574D01*
X-574111Y255102D02*
X-567168Y248160D01*
X-575525Y253688D02*
X-574111Y255102D01*
X-575525Y253688D02*
X-568454Y246617D01*
X-569868Y245203D02*
X-568454Y246617D01*
X-576939Y252274D02*
X-569868Y245203D01*
X-578354Y250860D02*
X-576939Y252274D01*
X-578354Y250860D02*
X-571283Y243789D01*
X-572697Y242374D02*
X-571283Y243789D01*
X-579768Y249446D02*
X-572697Y242374D01*
X-581182Y248031D02*
X-579768Y249446D01*
X-581182Y248031D02*
X-574111Y240960D01*
X-575525Y239546D02*
X-574111Y240960D01*
X-582596Y246617D02*
X-575525Y239546D01*
X-584011Y245203D02*
X-582596Y246617D01*
X-584011Y245203D02*
X-576939Y238132D01*
X-578354Y236718D02*
X-576939Y238132D01*
X-585425Y243789D02*
X-578354Y236718D01*
X-586839Y242374D02*
X-585425Y243789D01*
X-586839Y242374D02*
X-579768Y235303D01*
X-581182Y233889D02*
X-579768Y235303D01*
X-588253Y240960D02*
X-581182Y233889D01*
X-589667Y239546D02*
X-588253Y240960D01*
X-589667Y239546D02*
X-582596Y232475D01*
X-584011Y231061D02*
X-582596Y232475D01*
X-591082Y238132D02*
X-584011Y231061D01*
X-592496Y236718D02*
X-591082Y238132D01*
X-592496Y236718D02*
X-585425Y229646D01*
X-586839Y228232D02*
X-585425Y229646D01*
X-593910Y235303D02*
X-586839Y228232D01*
X-595324Y233889D02*
X-593910Y235303D01*
X-595324Y233889D02*
X-591789Y230354D01*
X-592142Y230000D02*
X-591789Y230354D01*
X-458099Y322043D02*
X-454686D01*
X-514142Y266000D02*
X-458099Y322043D01*
X-579642Y196500D02*
X-570142Y206000D01*
Y236500D01*
X-540142Y212708D02*
Y235500D01*
X-556642Y196500D02*
X-556351D01*
X-540142Y212708D01*
X-512642Y271500D02*
X-462142Y322000D01*
X-550642Y271500D02*
X-512642D01*
X-592142Y201000D02*
Y230000D01*
X-596642Y196500D02*
X-592142Y201000D01*
X-602142Y196500D02*
X-596642D01*
D21*
X-315598Y169664D02*
X-315532Y169730D01*
X-315598Y139726D02*
Y169664D01*
Y114755D02*
Y139726D01*
X-316099Y304755D02*
Y329726D01*
Y359664D01*
X-316033Y359730D01*
X-316537Y49587D02*
Y79525D01*
X-316603Y49521D02*
X-316537Y49587D01*
X-315656Y80406D02*
Y139968D01*
X-316537Y79525D02*
X-315656Y80406D01*
X-450142Y202000D02*
X-347618D01*
X-315590Y169972D01*
X-333854Y287000D02*
X-316099Y304755D01*
X-316033Y239240D02*
Y269179D01*
X-316099Y239174D02*
X-316033Y239240D01*
X-451142Y287000D02*
X-333854D01*
X-316033Y269179D01*
D76*
X-243666Y29814D02*
Y29967D01*
X-239500Y34133D01*
Y34286D01*
X-242205Y49682D02*
Y50339D01*
X-245815Y46072D02*
X-242205Y49682D01*
Y50339D02*
X-242000Y50544D01*
X-249500Y62814D02*
X-249236D01*
X-244764Y67286D01*
X-244500D01*
X-239705Y81109D02*
X-239500Y81314D01*
X-244790Y76548D02*
X-240229Y81109D01*
X-239705D01*
X-394705Y31419D02*
X-394500Y31214D01*
X-398000Y35686D02*
X-394705Y32391D01*
Y31419D02*
Y32391D01*
X-397000Y51944D02*
X-394205Y49149D01*
Y47677D02*
Y49149D01*
Y47677D02*
X-394000Y47472D01*
X-395818Y66532D02*
Y69182D01*
Y66532D02*
X-393500Y64214D01*
X-394205Y80209D02*
Y81867D01*
X-396813Y84475D02*
X-394205Y81867D01*
Y80209D02*
X-394000Y80004D01*
X-397500Y174680D02*
X-397486D01*
X-393014Y170208D01*
X-393000D01*
X-393205Y154624D02*
X-393000Y154419D01*
X-397000Y158890D02*
X-393205Y155096D01*
Y154624D02*
Y155096D01*
X-399026Y125668D02*
Y125891D01*
Y125668D02*
X-395000Y121642D01*
Y121419D02*
Y121642D01*
X-397318Y142182D02*
X-394205Y139070D01*
Y137882D02*
X-394000Y137677D01*
X-394205Y137882D02*
Y139070D01*
X-399000Y225736D02*
X-394500Y221236D01*
Y221000D02*
Y221236D01*
X-396000Y237264D02*
Y239236D01*
X-398500Y234764D02*
X-396000Y237264D01*
X-395025Y256005D02*
Y256226D01*
X-399056Y251975D02*
X-395025Y256005D01*
X-399056Y251754D02*
Y251975D01*
X-399000Y267319D02*
X-394461Y271857D01*
X-399000Y267164D02*
Y267319D01*
X-399420Y309264D02*
Y311080D01*
X-396500Y314000D01*
X-395000Y329796D02*
Y329881D01*
X-396574Y325264D02*
Y328222D01*
X-395000Y329796D01*
X-394038Y346698D02*
X-394000Y346736D01*
X-394038Y344800D02*
Y346698D01*
X-396574Y342264D02*
X-394038Y344800D01*
X-396554Y360182D02*
X-394500Y362236D01*
X-396554Y357764D02*
Y360182D01*
X-242889Y361821D02*
X-238179D01*
X-243551Y361159D02*
X-242889Y361821D01*
X-243841Y361159D02*
X-243551D01*
X-238000Y347000D02*
X-237919Y347081D01*
X-244000Y347000D02*
X-238000D01*
X-244081Y346919D02*
X-244000Y347000D01*
X-244926Y327574D02*
X-243699D01*
X-245131Y327369D02*
X-244926Y327574D01*
X-243699D02*
X-241355Y329917D01*
X-245469Y314821D02*
X-245179D01*
X-246881Y313409D02*
X-245469Y314821D01*
X-250091Y313409D02*
X-246881D01*
X-580598Y103500D02*
X-578500Y105598D01*
X-596757Y106757D02*
X-593500Y103500D01*
X-580598D01*
X-580464Y114878D02*
X-578500Y112915D01*
Y105598D02*
Y112915D01*
X-595619Y116091D02*
X-594406Y114878D01*
X-580464D01*
X-595909Y116091D02*
X-595619D01*
X-620000Y112928D02*
X-618049Y114878D01*
X-620000Y105000D02*
Y112928D01*
X-609878Y114878D02*
X-606756Y111757D01*
X-618049Y114878D02*
X-609878D01*
X-618000Y103000D02*
X-611000D01*
X-620000Y105000D02*
X-618000Y103000D01*
X-609187Y101187D02*
X-609164D01*
X-611000Y103000D02*
X-609187Y101187D01*
D77*
X-78000Y142600D02*
X-77100Y143500D01*
X-77130Y140500D02*
X-75000Y142630D01*
X-79580Y155087D02*
X-75000Y150507D01*
X-83919Y155087D02*
X-79580D01*
X-77100Y143500D02*
Y148153D01*
X-81499Y149740D02*
X-80732Y148973D01*
X-75000Y142630D02*
Y150507D01*
X-80732Y148973D02*
X-77920D01*
X-77100Y148153D01*
X-102142Y105000D02*
Y131827D01*
X-120273Y83900D02*
X-100042Y104130D01*
X-243212Y83900D02*
X-120273D01*
X-244209Y82903D02*
X-243212Y83900D01*
X-244209Y82620D02*
Y82903D01*
X-261762Y65066D02*
X-244209Y82620D01*
X-262045Y65066D02*
X-261762D01*
X-263042Y64069D02*
X-262045Y65066D01*
X-263042Y31406D02*
Y64069D01*
X-265093Y29355D02*
X-263042Y31406D01*
X-272292Y29355D02*
X-265093D01*
X-272815Y28833D02*
X-272292Y29355D01*
X-273941Y28833D02*
X-272815D01*
X-274125Y28648D02*
X-273941Y28833D01*
X-121142Y86000D02*
X-102142Y105000D01*
X-243798Y86000D02*
X-121142D01*
X-265142Y64656D02*
X-243798Y86000D01*
X-265142Y32276D02*
Y64656D01*
X-274125Y32163D02*
X-273941Y31978D01*
X-272815D01*
X-265962Y31455D02*
X-265142Y32276D01*
X-272815Y31978D02*
X-272292Y31455D01*
X-265962D01*
X-90637Y153878D02*
X-85129D01*
X-83919Y155087D01*
X-91499Y154740D02*
X-90637Y153878D01*
X-90500Y140500D02*
X-77130D01*
X-91370Y142600D02*
X-78000D01*
X-100042Y130958D02*
X-90500Y140500D01*
X-102142Y131827D02*
X-91370Y142600D01*
X-100042Y104130D02*
Y130958D01*
X-81739Y204500D02*
X-81499Y204740D01*
X-105015Y203015D02*
X-93985D01*
X-92500Y204500D02*
X-81739D01*
X-93985Y203015D02*
X-92500Y204500D01*
X-105885Y205115D02*
X-95500D01*
X-91499Y209116D01*
Y209740D01*
X-115500Y195500D02*
X-105885Y205115D01*
X-114630Y193400D02*
X-105015Y203015D01*
X-262000Y195500D02*
X-115500D01*
X-262870Y193400D02*
X-114630D01*
X-276000Y209500D02*
X-262000Y195500D01*
X-278100Y208630D02*
X-262870Y193400D01*
X-276000Y209500D02*
Y217293D01*
X-278100Y208630D02*
Y218162D01*
X-273175Y222004D02*
X-273000D01*
X-276000Y217293D02*
X-274516Y218777D01*
X-272821D01*
X-271895Y217850D01*
X-275385Y220877D02*
X-274301D01*
X-273175Y222004D01*
X-271895Y217850D02*
X-271634D01*
X-278100Y218162D02*
X-275385Y220877D01*
X-266242Y170870D02*
X-251027Y186085D01*
X-86472Y191293D02*
X-74726Y179548D01*
Y174318D02*
Y179548D01*
X-101636Y191293D02*
X-86472D01*
X-68396Y167987D02*
X-68338D01*
X-74726Y174318D02*
X-68396Y167987D01*
X-108944Y183985D02*
X-101636Y191293D01*
X-250157Y183985D02*
X-108944D01*
X-264142Y170000D02*
X-250157Y183985D01*
X-68338Y167987D02*
X-65599Y165249D01*
Y164740D02*
Y165249D01*
X-85602Y193393D02*
X-72626Y180417D01*
Y175188D02*
Y180417D01*
X-102506Y193393D02*
X-85602D01*
X-67526Y170087D02*
X-67468D01*
X-72626Y175188D02*
X-67526Y170087D01*
X-109814Y186085D02*
X-102506Y193393D01*
X-251027Y186085D02*
X-109814D01*
X-55652Y169687D02*
X-55599Y169740D01*
X-67468Y170087D02*
X-67068Y169687D01*
X-55652D01*
X-272656Y137560D02*
X-267940D01*
X-273364Y136853D02*
X-272656Y137560D01*
X-273624Y136853D02*
X-273364D01*
X-272656Y139660D02*
X-268810D01*
X-273364Y140367D02*
X-272656Y139660D01*
X-273624Y140367D02*
X-273364D01*
X-264142Y141358D02*
Y170000D01*
X-267940Y137560D02*
X-264142Y141358D01*
X-266242Y142227D02*
Y170870D01*
X-268810Y139660D02*
X-266242Y142227D01*
X-273123Y172826D02*
X-271968D01*
X-273345Y366673D02*
X-261042Y354370D01*
X-272468Y362826D02*
X-263142Y353500D01*
X-273623Y362826D02*
X-272468D01*
X-273941Y330183D02*
X-272815D01*
X-273941Y327037D02*
X-272815D01*
X-272292Y327560D01*
X-272815Y330183D02*
X-272292Y329660D01*
X-269974D01*
X-272292Y327560D02*
X-270844D01*
X-269974Y329660D02*
X-267142Y326829D01*
X-270844Y327560D02*
X-269242Y325959D01*
X-274125Y330367D02*
X-273941Y330183D01*
X-274125Y326853D02*
X-273941Y327037D01*
X-133773Y206400D02*
X-98203Y241970D01*
X-239512Y206400D02*
X-133773D01*
X-260242Y227130D02*
X-239512Y206400D01*
X-258142Y228000D02*
X-238642Y208500D01*
X-134642D01*
X-99073Y244070D01*
X-118616Y199900D02*
X-102023Y216493D01*
X-122449Y202400D02*
X-95594Y229255D01*
X-123319Y204500D02*
X-93426Y234393D01*
X-244668Y199900D02*
X-118616D01*
X-242512Y202400D02*
X-122449D01*
X-263142Y226000D02*
X-241642Y204500D01*
X-245455Y198000D02*
X-117546D01*
X-101153Y214393D01*
X-267442Y222674D02*
X-244668Y199900D01*
X-265242Y225130D02*
X-242512Y202400D01*
X-269342Y221887D02*
X-245455Y198000D01*
X-241642Y204500D02*
X-123319D01*
X-272861Y83281D02*
X-256274Y99869D01*
X-136274D01*
X-124527Y111615D01*
X-137144Y101969D02*
X-126627Y112485D01*
X-257144Y101969D02*
X-137144D01*
X-272765Y86347D02*
X-257144Y101969D01*
X-273642Y272580D02*
X-273180Y272118D01*
X-272731Y275183D02*
X-271739D01*
X-258142Y228000D02*
Y261587D01*
X-271739Y275183D02*
X-258142Y261587D01*
X-272231Y239183D02*
X-271369D01*
X-267442Y222674D02*
Y235257D01*
X-271369Y239183D02*
X-267442Y235257D01*
X-273125Y236302D02*
X-272941Y236118D01*
X-269342Y221887D02*
Y233886D01*
X-271574Y236118D02*
X-269342Y233886D01*
X-272941Y236118D02*
X-271574D01*
X-256273Y188900D02*
X-112242D01*
X-271893Y173279D02*
X-256273Y188900D01*
X-271409Y176734D02*
X-257142Y191000D01*
X-113112D01*
X-83142Y198000D02*
X-69832Y184689D01*
X-106112Y198000D02*
X-83142D01*
X-65650Y184689D02*
X-65599Y184740D01*
X-69832Y184689D02*
X-65650D01*
X-113112Y191000D02*
X-106112Y198000D01*
X-63157Y180602D02*
X-56461D01*
X-84012Y195900D02*
X-68200Y180087D01*
X-63672D02*
X-63157Y180602D01*
X-68200Y180087D02*
X-63672D01*
X-105242Y195900D02*
X-84012D01*
X-112242Y188900D02*
X-105242Y195900D01*
X-56461Y180602D02*
X-55599Y179740D01*
X-271716Y254118D02*
X-265242Y247644D01*
X-272941Y254118D02*
X-271716D01*
X-271811Y257183D02*
X-263142Y248514D01*
X-272231Y257183D02*
X-271811D01*
X-263142Y226000D02*
Y248514D01*
X-272864Y257816D02*
X-272231Y257183D01*
X-273125Y257816D02*
X-272864D01*
X-265242Y225130D02*
Y247644D01*
X-273125Y254302D02*
X-272941Y254118D01*
X-260242Y227130D02*
Y260144D01*
X-272216Y272118D02*
X-260242Y260144D01*
X-273180Y272118D02*
X-272216D01*
X-272864Y239816D02*
X-272231Y239183D01*
X-273125Y239816D02*
X-272864D01*
X-263142Y310030D02*
X-250112Y297000D01*
X-135112D01*
X-263142Y310030D02*
Y353500D01*
X-261042Y310900D02*
Y354370D01*
X-249242Y299100D02*
X-134242D01*
X-261042Y310900D02*
X-249242Y299100D01*
X-267142Y306970D02*
Y326829D01*
Y306970D02*
X-252673Y292500D01*
X-137542D01*
X-269242Y306100D02*
Y325959D01*
Y306100D02*
X-253542Y290400D01*
X-138412D01*
X-126627Y163615D02*
X-103242Y187000D01*
X-95819D01*
X-93426Y189393D02*
X-89572D01*
X-95819Y187000D02*
X-93426Y189393D01*
X-89572D02*
X-86271Y186092D01*
Y184512D02*
Y186092D01*
X-124527Y162745D02*
X-102272Y185000D01*
X-91759D02*
X-91499Y184740D01*
X-102272Y185000D02*
X-91759D01*
X-86271Y184512D02*
X-81499Y179740D01*
X-245455Y90000D02*
X-125142D01*
X-244585Y87900D02*
X-124273D01*
X-272815Y49979D02*
X-272292Y49455D01*
X-273941Y49979D02*
X-272815D01*
X-274125Y50163D02*
X-273941Y49979D01*
X-86598Y164641D02*
X-81499Y169740D01*
X-86598Y163061D02*
Y164641D01*
X-90266Y159393D02*
X-86598Y163061D01*
X-93426Y159393D02*
X-90266D01*
X-105042Y147777D02*
X-93426Y159393D01*
X-105042Y107130D02*
Y147777D01*
X-124273Y87900D02*
X-105042Y107130D01*
X-272815Y46832D02*
X-272292Y47355D01*
X-273941Y46832D02*
X-272815D01*
X-274125Y46648D02*
X-273941Y46832D01*
X-268042Y64443D02*
X-244585Y87900D01*
X-270142Y65313D02*
X-245455Y90000D01*
X-268042Y50735D02*
Y64443D01*
X-270142Y51605D02*
Y65313D01*
X-271422Y47355D02*
X-268042Y50735D01*
X-272292Y47355D02*
X-271422D01*
X-272292Y49455D02*
X-270142Y51605D01*
X-273864Y82648D02*
X-273231Y83281D01*
X-274125Y86163D02*
X-273941Y86347D01*
X-273231Y83281D02*
X-272861D01*
X-274125Y82648D02*
X-273864D01*
X-273941Y86347D02*
X-272765D01*
X-272861Y65281D02*
X-246242Y91900D01*
X-247112Y94000D02*
X-130142D01*
X-246242Y91900D02*
X-129272D01*
X-274125Y64648D02*
X-273864D01*
X-272765Y68347D02*
X-247112Y94000D01*
X-273941Y68347D02*
X-272765D01*
X-273864Y64648D02*
X-273231Y65281D01*
X-272861D01*
X-274125Y68163D02*
X-273941Y68347D01*
X-124527Y111615D02*
Y162745D01*
X-126627Y112485D02*
Y163615D01*
X-96159Y176983D02*
X-93749Y179393D01*
X-96159Y173853D02*
Y176983D01*
X-80179Y175000D02*
X-76846Y171667D01*
X-85142Y175000D02*
X-80179D01*
X-76846Y164393D02*
Y171667D01*
X-81499Y159740D02*
X-76846Y164393D01*
X-93749Y179393D02*
X-89535D01*
X-85142Y175000D01*
X-110142Y111030D02*
Y156900D01*
X-129272Y91900D02*
X-110142Y111030D01*
X-130142Y94000D02*
X-112242Y111900D01*
Y157770D01*
X-92302Y174740D02*
X-91499D01*
X-110142Y156900D02*
X-92302Y174740D01*
X-112242Y157770D02*
X-96159Y173853D01*
X-125142Y90000D02*
X-107142Y108000D01*
X-94238Y161493D02*
X-91499Y164232D01*
X-107142Y148647D02*
X-94296Y161493D01*
X-107142Y108000D02*
Y148647D01*
X-94296Y161493D02*
X-94238D01*
X-91499Y164232D02*
Y164740D01*
X-101153Y214393D02*
X-90266D01*
X-86598Y218061D01*
X-94238Y216493D02*
X-91499Y219232D01*
X-102023Y216493D02*
X-94238D01*
X-86598Y218061D02*
Y219641D01*
X-81499Y224740D01*
X-91499Y219232D02*
Y219740D01*
X-95594Y229255D02*
X-91984D01*
X-91499Y229740D01*
X-89572Y234393D02*
X-85128Y229950D01*
X-93426Y234393D02*
X-89572D01*
X-80128Y229950D02*
X-76846Y226667D01*
Y219393D02*
Y226667D01*
X-85128Y229950D02*
X-80128D01*
X-81499Y214740D02*
X-76846Y219393D01*
X-92342Y239740D02*
X-91499D01*
X-94572Y241970D02*
X-92342Y239740D01*
X-98203Y241970D02*
X-94572D01*
X-94073Y244070D02*
X-93749Y244393D01*
X-99073Y244070D02*
X-94073D01*
X-85966Y239208D02*
X-81499Y234740D01*
X-85966Y239208D02*
Y240788D01*
X-89572Y244393D02*
X-85966Y240788D01*
X-93749Y244393D02*
X-89572D01*
X-138412Y290400D02*
X-98512Y250500D01*
X-137542Y292500D02*
X-97642Y252600D01*
X-98512Y250500D02*
X-90679D01*
X-89809Y252600D02*
X-72449Y235240D01*
X-97642Y252600D02*
X-89809D01*
X-90679Y250500D02*
X-74549Y234370D01*
X-68396Y222987D02*
X-68338D01*
X-67068Y224687D02*
X-55652D01*
X-72449Y230010D02*
Y235240D01*
X-74549Y229140D02*
X-68396Y222987D01*
X-55652Y224687D02*
X-55599Y224740D01*
X-67468Y225087D02*
X-67068Y224687D01*
X-65599Y219740D02*
Y220249D01*
X-74549Y229140D02*
Y234370D01*
X-67526Y225087D02*
X-67468D01*
X-68338Y222987D02*
X-65599Y220249D01*
X-72449Y230010D02*
X-67526Y225087D01*
X-55859Y235000D02*
X-55599Y234740D01*
X-69112Y235000D02*
X-55859D01*
X-66461Y238878D02*
X-65599Y239740D01*
X-68483Y238878D02*
X-66461D01*
X-68672Y238689D02*
X-68483Y238878D01*
X-69832Y238689D02*
X-68672D01*
X-135112Y297000D02*
X-93112Y255000D01*
X-134242Y299100D02*
X-92242Y257100D01*
X-89112Y255000D02*
X-69112Y235000D01*
X-93112Y255000D02*
X-89112D01*
X-88242Y257100D02*
X-69832Y238689D01*
X-92242Y257100D02*
X-88242D01*
D81*
X-606756Y111757D02*
D03*
X-596757Y106757D02*
D03*
D84*
X-91499Y184740D02*
D03*
X-81499Y179740D02*
D03*
X-91499Y174740D02*
D03*
X-81499Y169740D02*
D03*
X-91499Y164740D02*
D03*
X-81499Y159740D02*
D03*
X-91499Y154740D02*
D03*
X-81499Y149740D02*
D03*
X-91499Y239740D02*
D03*
X-81499Y234740D02*
D03*
X-91499Y229740D02*
D03*
X-81499Y224740D02*
D03*
X-91499Y219740D02*
D03*
X-81499Y214740D02*
D03*
X-91499Y209740D02*
D03*
X-81499Y204740D02*
D03*
X-65599Y219740D02*
D03*
X-55599Y224740D02*
D03*
Y234740D02*
D03*
X-65599Y239740D02*
D03*
Y164740D02*
D03*
X-55599Y169740D02*
D03*
Y179740D02*
D03*
X-65599Y184740D02*
D03*
D89*
X-274125Y28648D02*
D03*
Y32163D02*
D03*
X-271634Y217850D02*
D03*
X-273000Y222004D02*
D03*
X-273624Y140367D02*
D03*
Y136853D02*
D03*
X-273123Y172826D02*
D03*
Y176394D02*
D03*
X-273623Y366394D02*
D03*
X-274125Y330367D02*
D03*
X-273623Y362826D02*
D03*
X-274125Y326853D02*
D03*
X-273125Y236302D02*
D03*
X-556642Y196500D02*
D03*
X-579642D02*
D03*
X-602142D02*
D03*
X-462142Y322000D02*
D03*
X-458142Y317500D02*
D03*
X-454686Y322043D02*
D03*
X-450142Y202000D02*
D03*
X-451142Y287000D02*
D03*
X-274125Y50163D02*
D03*
Y46648D02*
D03*
Y82648D02*
D03*
Y86163D02*
D03*
Y64648D02*
D03*
Y68163D02*
D03*
X-273125Y239816D02*
D03*
Y257816D02*
D03*
Y254302D02*
D03*
X-273625Y275816D02*
D03*
Y272302D02*
D03*
D90*
X-239500Y34286D02*
D03*
X-243666Y29814D02*
D03*
X-242000Y50544D02*
D03*
X-245815Y46072D02*
D03*
X-244500Y67286D02*
D03*
X-249500Y62814D02*
D03*
X-244790Y76548D02*
D03*
X-239500Y81314D02*
D03*
X-394500Y31214D02*
D03*
X-398000Y35686D02*
D03*
X-394000Y47472D02*
D03*
X-397000Y51944D02*
D03*
X-393500Y64214D02*
D03*
X-395818Y69182D02*
D03*
X-394000Y80004D02*
D03*
X-396813Y84475D02*
D03*
X-393000Y170208D02*
D03*
X-397500Y174680D02*
D03*
X-393000Y154419D02*
D03*
X-397000Y158890D02*
D03*
X-399026Y125891D02*
D03*
X-395000Y121419D02*
D03*
X-394000Y137677D02*
D03*
X-397318Y142182D02*
D03*
X-399000Y225736D02*
D03*
X-394500Y221000D02*
D03*
X-396000Y239236D02*
D03*
X-398500Y234764D02*
D03*
X-395025Y256226D02*
D03*
X-399056Y251754D02*
D03*
X-394461Y271857D02*
D03*
X-399000Y267164D02*
D03*
X-396500Y314000D02*
D03*
X-399420Y309264D02*
D03*
X-395000Y329881D02*
D03*
X-396574Y325264D02*
D03*
X-394000Y346736D02*
D03*
X-396574Y342264D02*
D03*
X-394500Y362236D02*
D03*
X-396554Y357764D02*
D03*
X-243841Y361159D02*
D03*
X-238179Y361821D02*
D03*
X-244081Y346919D02*
D03*
X-237919Y347081D02*
D03*
X-245131Y327369D02*
D03*
X-241355Y329917D02*
D03*
X-250091Y313409D02*
D03*
X-245179Y314821D02*
D03*
X-315596Y159411D02*
D03*
X-315598Y149568D02*
D03*
X-315532Y169730D02*
D03*
X-315598Y139726D02*
D03*
X-316099Y329726D02*
D03*
X-316033Y359730D02*
D03*
X-316098Y339568D02*
D03*
X-316097Y349411D02*
D03*
X-595909Y116091D02*
D03*
X-609164Y101187D02*
D03*
X-316537Y79525D02*
D03*
X-316601Y69206D02*
D03*
X-316602Y59363D02*
D03*
X-316603Y49521D02*
D03*
X-316033Y269179D02*
D03*
X-316097Y258859D02*
D03*
X-316098Y249017D02*
D03*
X-316099Y239174D02*
D03*
M02*
