G04*
G04 #@! TF.GenerationSoftware,Altium Limited,Altium Designer,25.8.1 (18)*
G04*
G04 Layer_Physical_Order=6*
G04 Layer_Color=16711680*
%FSLAX25Y25*%
%MOIN*%
G70*
G04*
G04 #@! TF.SameCoordinates,915AE6A9-C4C5-440B-A756-940E0959A614*
G04*
G04*
G04 #@! TF.FilePolarity,Positive*
G04*
G01*
G75*
%ADD20C,0.01000*%
%ADD21C,0.02000*%
%ADD38R,0.02756X0.04724*%
%ADD39R,0.04724X0.02756*%
%ADD66C,0.11811*%
%ADD72C,0.02756*%
%ADD76C,0.00700*%
%ADD77C,0.01400*%
%ADD79C,0.11221*%
%ADD80C,0.09449*%
%ADD81C,0.03543*%
%ADD82C,0.06000*%
%ADD83C,0.05118*%
%ADD84C,0.05906*%
%ADD85C,0.12598*%
%ADD86C,0.10000*%
%ADD87R,0.05906X0.05906*%
%ADD88C,0.01968*%
%ADD89C,0.02362*%
%ADD90C,0.01772*%
D20*
X-270000Y163483D02*
X-269483Y164000D01*
X-270000Y163483D02*
Y167000D01*
X-269483Y146000D02*
X-268499D01*
X-270361Y145122D02*
X-269483Y146000D01*
X-270361Y143138D02*
Y145122D01*
X-270499Y143000D02*
X-270361Y143138D01*
X-269483Y164000D02*
X-268499D01*
X-110000Y366000D02*
Y366489D01*
X-110878Y367367D02*
X-110000Y366489D01*
X-112633Y367367D02*
X-110878D01*
X-115000Y351000D02*
Y353299D01*
X-116000Y332264D02*
Y335299D01*
Y305701D02*
X-115849Y305852D01*
X-112148D01*
X-112000Y306000D01*
X-116000Y281000D02*
X-115125Y281875D01*
Y284125D01*
X-117000Y251000D02*
X-116871D01*
X-115993Y251878D01*
Y253993D01*
X-116779Y233480D02*
X-116000Y232701D01*
X-116779Y233480D02*
Y235736D01*
X-116880Y216000D02*
X-116000D01*
X-117758Y216878D02*
X-116880Y216000D01*
X-117758Y216878D02*
Y218758D01*
X-263000Y364726D02*
Y365000D01*
Y364726D02*
X-262122Y363848D01*
X-260152D01*
X-269984Y354000D02*
X-269000D01*
X-271778Y352206D02*
X-269984Y354000D01*
X-271778Y352000D02*
Y352206D01*
X-269984Y336000D02*
X-269000D01*
X-270862Y335122D02*
X-269984Y336000D01*
X-270862Y333138D02*
Y335122D01*
X-271000Y333000D02*
X-270862Y333138D01*
X-269984Y304701D02*
X-269000D01*
X-270862Y303823D02*
X-269984Y304701D01*
X-270862Y302138D02*
Y303823D01*
X-271000Y302000D02*
X-270862Y302138D01*
X-271377Y267622D02*
X-271230Y267770D01*
X-268230D01*
X-268000Y268000D01*
X-268984Y263000D02*
X-268000D01*
X-269862Y262122D02*
X-268984Y263000D01*
X-269862Y260138D02*
Y262122D01*
X-270000Y260000D02*
X-269862Y260138D01*
X-268984Y245000D02*
X-268000D01*
X-269862Y244122D02*
X-268984Y245000D01*
X-269862Y242138D02*
Y244122D01*
X-270000Y242000D02*
X-269862Y242138D01*
X-268984Y214701D02*
X-268000D01*
X-269862Y213823D02*
X-268984Y214701D01*
X-269862Y211138D02*
Y213823D01*
X-270000Y211000D02*
X-269862Y211138D01*
X-268984Y183000D02*
X-268000D01*
X-271984Y180000D02*
X-268984Y183000D01*
X-272000Y180000D02*
X-271984D01*
X-268984Y129299D02*
X-268000D01*
X-270905Y127379D02*
X-268984Y129299D01*
X-270905Y126281D02*
Y127379D01*
X-271052Y126133D02*
X-270905Y126281D01*
X-269984Y81000D02*
X-269000D01*
X-271837Y79148D02*
X-269984Y81000D01*
X-272852Y79148D02*
X-271837D01*
X-273000Y79000D02*
X-272852Y79148D01*
X-269984Y75299D02*
X-269000D01*
X-272852Y72431D02*
X-269984Y75299D01*
X-272852Y72148D02*
Y72431D01*
X-273000Y72000D02*
X-272852Y72148D01*
X-269984Y57000D02*
X-269000D01*
X-272581Y54404D02*
X-269984Y57000D01*
X-272581Y54148D02*
Y54404D01*
X-272728Y54000D02*
X-272581Y54148D01*
X-269984Y38000D02*
X-269000D01*
X-270862Y37122D02*
X-269984Y38000D01*
X-270862Y35138D02*
Y37122D01*
X-271000Y35000D02*
X-270862Y35138D01*
X-116122Y181000D02*
X-116000D01*
X-117000Y180122D02*
X-116122Y181000D01*
X-117000Y178000D02*
Y180122D01*
X-115736Y163000D02*
X-112701D01*
X-116122Y145000D02*
X-116000D01*
X-117000Y144122D02*
X-116122Y145000D01*
X-117000Y142041D02*
Y144122D01*
X-115000Y125000D02*
X-112000D01*
X-132000Y97000D02*
X-129000D01*
X-116984Y74000D02*
X-116000D01*
X-117862Y73122D02*
X-116984Y74000D01*
X-117862Y71601D02*
Y73122D01*
X-118127Y71336D02*
X-117862Y71601D01*
X-118127Y71127D02*
Y71336D01*
X-116000Y53000D02*
Y56000D01*
Y35000D02*
Y38000D01*
X-454703Y46000D02*
X-454142D01*
X-454703D02*
Y51000D01*
X-456703D02*
X-454703D01*
X-456703Y41000D02*
Y51000D01*
X-458703Y41000D02*
X-456703D01*
X-458703D02*
Y51000D01*
X-460703D02*
X-458703D01*
X-460703Y41000D02*
Y51000D01*
X-462703Y41000D02*
X-460703D01*
X-462703D02*
Y51000D01*
X-464703D02*
X-462703D01*
X-464703Y41000D02*
Y51000D01*
X-466703Y41000D02*
X-464703D01*
X-466703D02*
Y51000D01*
X-468703D02*
X-466703D01*
X-468703Y41000D02*
Y51000D01*
X-470703Y41000D02*
X-468703D01*
X-470703D02*
Y51000D01*
X-472703D02*
X-470703D01*
X-472703Y41000D02*
Y51000D01*
X-474703Y41000D02*
X-472703D01*
X-474703D02*
Y51000D01*
X-476703D02*
X-474703D01*
X-476703Y41000D02*
Y51000D01*
X-478703Y41000D02*
X-476703D01*
X-478703D02*
Y51000D01*
X-480703D02*
X-478703D01*
X-480703Y41000D02*
Y51000D01*
X-482703Y41000D02*
X-480703D01*
X-482703D02*
Y51000D01*
X-484703D02*
X-482703D01*
X-484703Y41000D02*
Y51000D01*
X-486703Y41000D02*
X-484703D01*
X-486703D02*
Y51000D01*
X-488703D02*
X-486703D01*
X-488703Y41000D02*
Y51000D01*
X-490703Y41000D02*
X-488703D01*
X-490703D02*
Y51000D01*
X-492703D02*
X-490703D01*
X-492703Y41000D02*
Y51000D01*
X-494703Y41000D02*
X-492703D01*
X-494703D02*
Y51000D01*
X-496703D02*
X-494703D01*
X-496703Y46000D02*
Y51000D01*
X-497203Y46000D02*
X-496703D01*
X-567622D02*
X-497203D01*
X-624642Y81500D02*
X-615142Y91000D01*
X-552142D02*
X-494642Y148500D01*
X-615142Y91000D02*
X-552142D01*
X-494642Y148500D02*
Y268500D01*
X-454142Y46000D02*
X-451142D01*
X-494642Y275000D02*
Y277000D01*
X-499642Y275000D02*
X-494642D01*
X-499642Y273000D02*
Y275000D01*
Y273000D02*
X-489642D01*
Y271000D02*
Y273000D01*
X-499642Y271000D02*
X-489642D01*
X-499642Y269000D02*
Y271000D01*
Y269000D02*
X-494642D01*
Y268500D02*
Y269000D01*
Y277000D02*
Y288182D01*
X-597890Y76268D02*
X-567622Y46000D01*
X-494642Y288182D02*
X-480825Y302000D01*
X-446642D01*
X-162523Y359697D02*
X-162490Y359730D01*
X-162556Y239174D02*
X-162523Y239207D01*
X-641642Y326965D02*
X-631670Y336937D01*
X-641642Y286000D02*
Y326965D01*
D21*
X-597320Y288524D02*
X-560100Y325743D01*
Y337400D01*
X-162537Y79525D02*
Y169525D01*
X-162523Y239207D02*
Y359697D01*
D38*
X-118299Y125000D02*
D03*
X-112000D02*
D03*
X-119000Y163000D02*
D03*
X-112701D02*
D03*
X-116299Y366000D02*
D03*
X-110000D02*
D03*
X-269299Y365000D02*
D03*
X-263000D02*
D03*
X-135299Y97000D02*
D03*
X-129000D02*
D03*
D39*
X-116000Y312000D02*
D03*
Y305701D02*
D03*
Y222299D02*
D03*
Y216000D02*
D03*
X-269000Y311000D02*
D03*
Y304701D02*
D03*
X-268000Y221000D02*
D03*
Y214701D02*
D03*
X-269500Y122500D02*
D03*
Y128799D02*
D03*
X-269000Y31701D02*
D03*
Y38000D02*
D03*
X-116000Y31701D02*
D03*
Y38000D02*
D03*
Y329000D02*
D03*
Y335299D02*
D03*
Y239000D02*
D03*
Y232701D02*
D03*
X-269000Y329701D02*
D03*
Y336000D02*
D03*
X-268000Y238701D02*
D03*
Y245000D02*
D03*
X-268499Y139701D02*
D03*
Y146000D02*
D03*
X-269000Y50701D02*
D03*
Y57000D02*
D03*
X-116000Y138701D02*
D03*
Y145000D02*
D03*
Y49701D02*
D03*
Y56000D02*
D03*
X-115000Y347000D02*
D03*
Y353299D02*
D03*
X-117000Y257299D02*
D03*
Y251000D02*
D03*
X-269000Y347701D02*
D03*
Y354000D02*
D03*
X-268000Y256701D02*
D03*
Y263000D02*
D03*
X-268499Y157701D02*
D03*
Y164000D02*
D03*
X-269000Y69000D02*
D03*
Y75299D02*
D03*
X-116000Y67701D02*
D03*
Y74000D02*
D03*
Y274701D02*
D03*
Y281000D02*
D03*
X-268000Y274299D02*
D03*
Y268000D02*
D03*
Y176701D02*
D03*
Y183000D02*
D03*
X-269000Y87299D02*
D03*
Y81000D02*
D03*
X-116000Y174701D02*
D03*
Y181000D02*
D03*
D66*
X-652087Y21850D02*
D03*
Y371850D02*
D03*
D72*
X-446571Y336653D02*
D03*
X-441847D02*
D03*
X-437123D02*
D03*
Y331929D02*
D03*
X-446571D02*
D03*
Y327205D02*
D03*
X-441886Y327165D02*
D03*
X-437162D02*
D03*
Y246386D02*
D03*
X-441886D02*
D03*
X-446571Y246425D02*
D03*
Y251150D02*
D03*
X-437123D02*
D03*
Y255874D02*
D03*
X-441847D02*
D03*
X-446571D02*
D03*
Y170874D02*
D03*
X-441847D02*
D03*
X-437123D02*
D03*
Y166150D02*
D03*
X-446571D02*
D03*
Y161425D02*
D03*
X-441886Y161386D02*
D03*
X-437162D02*
D03*
Y77386D02*
D03*
X-441886D02*
D03*
X-446571Y77425D02*
D03*
Y82150D02*
D03*
X-437123D02*
D03*
Y86874D02*
D03*
X-441847D02*
D03*
X-446571D02*
D03*
D76*
X-239790Y172925D02*
X-239500D01*
X-240476Y172239D02*
X-239790Y172925D01*
X-242556Y172239D02*
X-240476D01*
X-259670Y155400D02*
X-259395D01*
X-242556Y172239D01*
X-261450Y153620D02*
X-259670Y155400D01*
X-261450Y117030D02*
Y153620D01*
X-272480Y106000D02*
X-261450Y117030D01*
X-240476Y170839D02*
X-239790Y170154D01*
X-241976Y170839D02*
X-240476D01*
X-239790Y170154D02*
X-239500D01*
X-258816Y154000D02*
X-241976Y170839D01*
X-260050Y153040D02*
X-259090Y154000D01*
X-258816D01*
X-271900Y104600D02*
X-260050Y116450D01*
Y153040D01*
X-436500Y106000D02*
X-272480D01*
X-435920Y104600D02*
X-271900D01*
X-444394Y98106D02*
X-436500Y106000D01*
X-443814Y96706D02*
X-435920Y104600D01*
X-447825Y97795D02*
X-446736Y96706D01*
X-448795Y97795D02*
X-447825D01*
X-449000Y98000D02*
X-448795Y97795D01*
X-447040Y99960D02*
X-446835Y99755D01*
X-446736Y96706D02*
X-443814D01*
X-446835Y98785D02*
Y99755D01*
Y98785D02*
X-446156Y98106D01*
X-444394D01*
X-239701Y157174D02*
X-239411D01*
X-240425Y156450D02*
X-239701Y157174D01*
X-258400Y146580D02*
X-248530Y156450D01*
X-240425D01*
X-271480Y102500D02*
X-258400Y115580D01*
Y146580D01*
X-240425Y155050D02*
X-239701Y154326D01*
X-247950Y155050D02*
X-240425D01*
X-239701Y154326D02*
X-239411D01*
X-257000Y146000D02*
X-247950Y155050D01*
X-270900Y101100D02*
X-257000Y115000D01*
Y146000D01*
X-428690Y95830D02*
X-423420Y101100D01*
X-270900D01*
X-429270Y97230D02*
X-424000Y102500D01*
X-271480D01*
X-437399Y96725D02*
X-436504Y95830D01*
X-438365Y96725D02*
X-437399D01*
X-435924Y97230D02*
X-429270D01*
X-438570Y96930D02*
X-438365Y96725D01*
X-436504Y95830D02*
X-428690D01*
X-436608Y98887D02*
X-436403Y98682D01*
Y97708D02*
X-435924Y97230D01*
X-436403Y97708D02*
Y98682D01*
X-239290Y140394D02*
X-239000D01*
X-239976Y139708D02*
X-239290Y140394D01*
X-247772Y139708D02*
X-239976D01*
X-255400Y132080D02*
X-247772Y139708D01*
X-255400Y114100D02*
Y132080D01*
X-270090Y99410D02*
X-255400Y114100D01*
X-239976Y138308D02*
X-239290Y137622D01*
X-247192Y138308D02*
X-239976D01*
X-239290Y137622D02*
X-239000D01*
X-254000Y131500D02*
X-247192Y138308D01*
X-254000Y113520D02*
Y131500D01*
X-269510Y98010D02*
X-254000Y113520D01*
X-425783Y91197D02*
X-417570Y99410D01*
X-270090D01*
X-424383Y90617D02*
X-416990Y98010D01*
X-269510D01*
X-425783Y89275D02*
X-424720Y88211D01*
X-424383Y89855D02*
X-423694Y89165D01*
X-422745D01*
X-424720Y87220D02*
Y88211D01*
X-424383Y89855D02*
Y90617D01*
X-425783Y89275D02*
Y91197D01*
X-424720Y87220D02*
X-424515Y87015D01*
X-422745Y89165D02*
X-422540Y88960D01*
X-239235Y124224D02*
X-239021D01*
X-240009Y123450D02*
X-239235Y124224D01*
X-242030Y123450D02*
X-240009D01*
X-410980Y96500D02*
X-268980D01*
X-242030Y123450D01*
X-240009Y122050D02*
X-239235Y121276D01*
X-241450Y122050D02*
X-240009D01*
X-239235Y121276D02*
X-239021D01*
X-410400Y95100D02*
X-268400D01*
X-241450Y122050D01*
X-422252Y85228D02*
X-410980Y96500D01*
X-420852Y84648D02*
X-410400Y95100D01*
X-420852Y83385D02*
Y84648D01*
X-422252Y82806D02*
X-421163Y81717D01*
X-420852Y83385D02*
X-420173Y82707D01*
X-419203D02*
X-418998Y82502D01*
X-421163Y80747D02*
Y81717D01*
Y80747D02*
X-420958Y80542D01*
X-422252Y82806D02*
Y85228D01*
X-420173Y82707D02*
X-419203D01*
X-406485Y282505D02*
X-269505D01*
X-405905Y283905D02*
X-268925D01*
X-242436Y221704D02*
X-240896D01*
X-240210Y221018D01*
X-239920D01*
X-269505Y282505D02*
X-268500Y281500D01*
X-261400Y240668D02*
Y274400D01*
Y240668D02*
X-242436Y221704D01*
X-268500Y281500D02*
X-261400Y274400D01*
X-240896Y223103D02*
X-240210Y223789D01*
X-239920D01*
X-241856Y223103D02*
X-240896D01*
X-260000Y241247D02*
Y274980D01*
Y241247D02*
X-241856Y223103D01*
X-268925Y283905D02*
X-260000Y274980D01*
X-428500Y306500D02*
X-428005Y306005D01*
X-428005D01*
X-405905Y283905D01*
X-431277Y309277D02*
X-428500Y306500D01*
X-431857Y307877D02*
X-406485Y282505D01*
X-434631Y310484D02*
X-432024Y307877D01*
X-433400Y313453D02*
X-432494D01*
X-431548Y314399D01*
Y314452D01*
X-432821Y312053D02*
X-432029D01*
X-431941Y311966D01*
X-434631Y312223D02*
X-433400Y313453D01*
X-434631Y310484D02*
Y312223D01*
X-431941Y311966D02*
X-431090D01*
X-433231Y311063D02*
X-431444Y309277D01*
X-431090Y311966D02*
X-430885Y311761D01*
X-433231Y311063D02*
Y311643D01*
X-432821Y312053D01*
X-432024Y307877D02*
X-431857D01*
X-431444Y309277D02*
X-431277D01*
X-242516Y237962D02*
X-240976D01*
X-257900Y253346D02*
X-242516Y237962D01*
X-240290Y237276D02*
X-240000D01*
X-240976Y237962D02*
X-240290Y237276D01*
X-268500Y286000D02*
X-267500Y285000D01*
X-257900Y253346D02*
Y275400D01*
X-267500Y285000D02*
X-257900Y275400D01*
X-240290Y240047D02*
X-240000D01*
X-240976Y239362D02*
X-240290Y240047D01*
X-267920Y287400D02*
X-256500Y275980D01*
Y253926D02*
X-241936Y239362D01*
X-240976D01*
X-256500Y253926D02*
Y275980D01*
X-431376Y317442D02*
Y319181D01*
X-430075Y320483D02*
Y321671D01*
X-430000Y321746D01*
X-431376Y319181D02*
X-430075Y320483D01*
X-431376Y317442D02*
X-399934Y286000D01*
X-429976Y318022D02*
X-399354Y287400D01*
X-429976Y318602D02*
X-429458Y319120D01*
X-429976Y318022D02*
Y318602D01*
X-399934Y286000D02*
X-268500D01*
X-399354Y287400D02*
X-267920D01*
X-428120Y319120D02*
X-428040Y319040D01*
X-429458Y319120D02*
X-428120D01*
X-266000Y288500D02*
X-254400Y276900D01*
Y266588D02*
Y276900D01*
X-267005Y289505D02*
X-266000Y288500D01*
X-242516Y254703D02*
X-240976D01*
X-254400Y266588D02*
X-242516Y254703D01*
X-395505Y289505D02*
X-267005D01*
X-240976Y254703D02*
X-240290Y254018D01*
X-240000D01*
X-253000Y267168D02*
Y277480D01*
X-266425Y290905D02*
X-253000Y277480D01*
X-240290Y256789D02*
X-240000D01*
X-394925Y290905D02*
X-266425D01*
X-240976Y256103D02*
X-240290Y256789D01*
X-253000Y267168D02*
X-241936Y256103D01*
X-240976D01*
X-426024Y320024D02*
X-395505Y289505D01*
X-426024Y324006D02*
X-424935Y325095D01*
X-426024Y320024D02*
Y324006D01*
X-424935Y325095D02*
Y326065D01*
X-424730Y326270D01*
X-424624Y320603D02*
X-394925Y290905D01*
X-424624Y323427D02*
X-423945Y324105D01*
X-424624Y320603D02*
Y323427D01*
X-422975Y324105D02*
X-422770Y324310D01*
X-423945Y324105D02*
X-422975D01*
X-243973Y270493D02*
X-240976D01*
X-240290Y269807D01*
X-265980Y292500D02*
X-243973Y270493D01*
X-240290Y269807D02*
X-240000D01*
X-261995Y290495D02*
Y290495D01*
Y290495D02*
X-261500Y290000D01*
X-265400Y293900D02*
X-261995Y290495D01*
X-240290Y272579D02*
X-240000D01*
X-240976Y271893D02*
X-240290Y272579D01*
X-261500Y290000D02*
X-243393Y271893D01*
X-240976D01*
X-387797Y292500D02*
X-265980D01*
X-424294Y328996D02*
X-387797Y292500D01*
X-424294Y330736D02*
X-423205Y331825D01*
X-424294Y328996D02*
Y330736D01*
X-423205Y331825D02*
Y332795D01*
X-423000Y333000D01*
X-387218Y293900D02*
X-265400D01*
X-422894Y329576D02*
X-387218Y293900D01*
X-422215Y330835D02*
X-421245D01*
X-422894Y330156D02*
X-422215Y330835D01*
X-422894Y329576D02*
Y330156D01*
X-421245Y330835D02*
X-421040Y331040D01*
X-272838Y69000D02*
X-269000D01*
X-273675Y68163D02*
X-272838Y69000D01*
X-274125Y68163D02*
X-273675D01*
X-269538Y50163D02*
X-269000Y50701D01*
X-274125Y50163D02*
X-269538D01*
X-615000Y115000D02*
X-611757Y111757D01*
X-618000Y115000D02*
X-615000D01*
X-620000Y113000D02*
X-618000Y115000D01*
X-620000Y102000D02*
X-619000Y101000D01*
X-620000Y102000D02*
Y113000D01*
X-586757Y106757D02*
X-583635Y103635D01*
X-580464D01*
X-578500Y105598D01*
Y112915D01*
X-580236Y114651D02*
Y117813D01*
Y114651D02*
X-578500Y112915D01*
D77*
X-272674Y121678D02*
X-269177D01*
X-268499Y121000D01*
X-268982Y158183D02*
X-268499Y157701D01*
X-272940Y158183D02*
X-268982D01*
X-273124Y158367D02*
X-272940Y158183D01*
X-274125Y32163D02*
X-273864D01*
X-273403Y31701D02*
X-269000D01*
X-273864Y32163D02*
X-273403Y31701D01*
X-119929Y31915D02*
X-116214D01*
X-120000Y31986D02*
X-119929Y31915D01*
X-116214D02*
X-116000Y31701D01*
X-273864Y312367D02*
X-273175Y311678D01*
X-269678D02*
X-269000Y311000D01*
X-273175Y311678D02*
X-269678D01*
X-274125Y312367D02*
X-273864D01*
X-268678Y221678D02*
X-268000Y221000D01*
X-272414Y221678D02*
X-268678D01*
X-272740Y222004D02*
X-272414Y221678D01*
X-273000Y222004D02*
X-272740D01*
X-124399Y222299D02*
X-116000D01*
X-125043Y221655D02*
X-124399Y222299D01*
X-125144Y221655D02*
X-125043D01*
X-76846Y265872D02*
Y292204D01*
X-106292Y309560D02*
X-94203D01*
X-106815Y309037D02*
X-106292Y309560D01*
X-107941Y309037D02*
X-106815D01*
X-108125Y308853D02*
X-107941Y309037D01*
X-94203Y309560D02*
X-76846Y292204D01*
X-108125Y312367D02*
X-107941Y312183D01*
X-108385Y312367D02*
X-108125D01*
X-107941Y312183D02*
X-106815D01*
X-108752Y312000D02*
X-108385Y312367D01*
X-116000Y312000D02*
X-108752D01*
X-74746Y266742D02*
Y293074D01*
X-93333Y311660D02*
X-74746Y293074D01*
X-106815Y312183D02*
X-106292Y311660D01*
X-93333D01*
X-62999Y259340D02*
X-62179Y260160D01*
X-67345Y259340D02*
X-62999D01*
X-76846Y265872D02*
X-68214Y257240D01*
X-65599Y264740D02*
X-62179Y261320D01*
Y260160D02*
Y261320D01*
X-62129Y257240D02*
X-59787Y259582D01*
X-68214Y257240D02*
X-62129D01*
X-74746Y266742D02*
X-67345Y259340D01*
X-55757Y259582D02*
X-55599Y259740D01*
X-59787Y259582D02*
X-55757D01*
X-88309Y87000D02*
X-78172D01*
X-117882Y118000D02*
X-116978Y117096D01*
X-116346D01*
X-118142Y118000D02*
X-117882D01*
X-116346Y117096D02*
X-103070Y103820D01*
Y101761D02*
X-88309Y87000D01*
X-103070Y101761D02*
Y103820D01*
X-115949Y120562D02*
Y121666D01*
X-118299Y124016D02*
X-115949Y121666D01*
Y120562D02*
X-115765Y120377D01*
Y120117D02*
Y120377D01*
X-118299Y124016D02*
Y125000D01*
X-100970Y102631D02*
X-87439Y89100D01*
X-79042D01*
X-115765Y120117D02*
X-114861Y119213D01*
Y118581D02*
Y119213D01*
X-100970Y102631D02*
Y104690D01*
X-114861Y118581D02*
X-100970Y104690D01*
X-63597Y90773D02*
X-59787Y94582D01*
X-55757D02*
X-55599Y94740D01*
X-79042Y89100D02*
X-75270Y92873D01*
X-78172Y87000D02*
X-74400Y90773D01*
X-75270Y92873D02*
X-64466D01*
X-62179Y95160D02*
Y96320D01*
X-74400Y90773D02*
X-63597D01*
X-59787Y94582D02*
X-55757D01*
X-64466Y92873D02*
X-62179Y95160D01*
X-65599Y99740D02*
X-62179Y96320D01*
X-273624Y140367D02*
X-273440Y140183D01*
X-268982D02*
X-268499Y139701D01*
X-273440Y140183D02*
X-268982D01*
X-269476Y176394D02*
X-268798Y175716D01*
X-273123Y176394D02*
X-269476D01*
X-273625Y348367D02*
X-273441Y348183D01*
X-274125Y330367D02*
X-273941Y330183D01*
X-268984Y274299D02*
X-268000D01*
X-269662Y274977D02*
X-268984Y274299D01*
X-269662Y274977D02*
Y274996D01*
X-270482Y275816D02*
X-269662Y274996D01*
X-273625Y275816D02*
X-270482D01*
X-116445Y366146D02*
X-116299Y366000D01*
X-121000Y366146D02*
X-116445D01*
X-115000Y347000D02*
X-114322Y346322D01*
X-111709D01*
X-108765Y343377D01*
X-120000Y329000D02*
X-116000D01*
X-120929Y329929D02*
X-120000Y329000D01*
X-120929Y329929D02*
Y330075D01*
X-121000Y330146D02*
X-120929Y330075D01*
X-127264Y275595D02*
X-127163D01*
X-126269Y274701D01*
X-116000D01*
X-117225Y257524D02*
X-117000Y257299D01*
X-120929Y257524D02*
X-117225D01*
X-121000Y257595D02*
X-120929Y257524D01*
X-116678Y239678D02*
X-116000Y239000D01*
X-119577Y239678D02*
X-116678D01*
X-119899Y240000D02*
X-119577Y239678D01*
X-120000Y240000D02*
X-119899D01*
X-269299Y365000D02*
Y365716D01*
X-269977Y366394D02*
X-269299Y365716D01*
X-273623Y366394D02*
X-269977D01*
X-269482Y348183D02*
X-269000Y347701D01*
X-273441Y348183D02*
X-269482D01*
Y330183D02*
X-269000Y329701D01*
X-273941Y330183D02*
X-269482D01*
X-268678Y257379D02*
X-268000Y256701D01*
X-272427Y257379D02*
X-268678D01*
X-272864Y257816D02*
X-272427Y257379D01*
X-273125Y257816D02*
X-272864D01*
X-268678Y239379D02*
X-268000Y238701D01*
X-272427Y239379D02*
X-268678D01*
X-272864Y239816D02*
X-272427Y239379D01*
X-273125Y239816D02*
X-272864D01*
X-269678Y86621D02*
X-269000Y87299D01*
X-273406Y86621D02*
X-269678D01*
X-273864Y86163D02*
X-273406Y86621D01*
X-274125Y86163D02*
X-273864D01*
X-116678Y175379D02*
X-116000Y174701D01*
X-119278Y175379D02*
X-116678D01*
X-119899Y176000D02*
X-119278Y175379D01*
X-120000Y176000D02*
X-119899D01*
X-119000Y163000D02*
X-118322Y162322D01*
Y159620D02*
Y162322D01*
Y159620D02*
X-117125Y158423D01*
Y158163D02*
Y158423D01*
X-116678Y139379D02*
X-116000Y138701D01*
X-119278Y139379D02*
X-116678D01*
X-119899Y140000D02*
X-119278Y139379D01*
X-120000Y140000D02*
X-119899D01*
X-138485Y97000D02*
X-135299D01*
X-138899Y96586D02*
X-138485Y97000D01*
X-139000Y96586D02*
X-138899D01*
X-116228Y67929D02*
X-116000Y67701D01*
X-119929Y67929D02*
X-116228D01*
X-120000Y68000D02*
X-119929Y67929D01*
X-116228Y49929D02*
X-116000Y49701D01*
X-119929Y49929D02*
X-116228D01*
X-120000Y50000D02*
X-119929Y49929D01*
X-74142Y129000D02*
X-65599Y120457D01*
Y119740D02*
Y120457D01*
X-75142Y127000D02*
X-70252Y122109D01*
Y117813D02*
Y122109D01*
X-60066Y109208D02*
Y110788D01*
X-64279Y115000D02*
X-60066Y110788D01*
Y109208D02*
X-55599Y104740D01*
X-67526Y115087D02*
X-67230D01*
X-70252Y117813D02*
X-67526Y115087D01*
X-67142Y115000D02*
X-64279D01*
X-67230Y115087D02*
X-67142Y115000D01*
X-103483Y155356D02*
X-75142Y127015D01*
X-74157Y129000D02*
X-74142D01*
X-116941Y154832D02*
X-115815D01*
X-115292Y155356D02*
X-103483D01*
X-102613Y157456D02*
X-74157Y129000D01*
X-117125Y154648D02*
X-116941Y154832D01*
X-117125Y158163D02*
X-116941Y157978D01*
X-115292Y157456D02*
X-102613D01*
X-115815Y154832D02*
X-115292Y155356D01*
X-75142Y127000D02*
Y127015D01*
X-115815Y157978D02*
X-115292Y157456D01*
X-116941Y157978D02*
X-115815D01*
X-90487Y312844D02*
Y321237D01*
Y312844D02*
X-72152Y294510D01*
X-70252Y282813D02*
Y290126D01*
X-72152Y292026D02*
Y294510D01*
Y292026D02*
X-70252Y290126D01*
X-88387Y314244D02*
Y322107D01*
Y314244D02*
X-70252Y296110D01*
Y292813D02*
X-66414Y288975D01*
X-70252Y292813D02*
Y296110D01*
X-66414Y285555D02*
Y288975D01*
X-59642Y276000D02*
Y276000D01*
X-56461Y270602D02*
X-55599Y269740D01*
X-56461Y270602D02*
Y272819D01*
X-59642Y276000D02*
X-56461Y272819D01*
X-63730Y280087D02*
X-59642Y276000D01*
X-66414Y285555D02*
X-65599Y284740D01*
X-67526Y280087D02*
X-63730D01*
X-70252Y282813D02*
X-67526Y280087D01*
X-107861Y341581D02*
X-88387Y322107D01*
X-107861Y341581D02*
Y342213D01*
X-108765Y343117D02*
Y343377D01*
X-109346Y340096D02*
X-90487Y321237D01*
X-108765Y343117D02*
X-107861Y342213D01*
X-109978Y340096D02*
X-109346D01*
X-110882Y341000D02*
X-109978Y340096D01*
X-111142Y341000D02*
X-110882D01*
D79*
X-61279Y355043D02*
D03*
Y335357D02*
D03*
X-33720Y355043D02*
D03*
Y335357D02*
D03*
D80*
X-75399Y310740D02*
D03*
X-12599D02*
D03*
X-53699Y305540D02*
D03*
X-12599Y78740D02*
D03*
X-66599Y81340D02*
D03*
X-91499Y78740D02*
D03*
D81*
X-616756Y106757D02*
D03*
Y111757D02*
D03*
X-611757Y106757D02*
D03*
Y111757D02*
D03*
X-606756Y106757D02*
D03*
Y111757D02*
D03*
X-601756Y106757D02*
D03*
Y111757D02*
D03*
X-596757Y106757D02*
D03*
Y111757D02*
D03*
X-591756Y106757D02*
D03*
Y111757D02*
D03*
X-586757Y106757D02*
D03*
Y111757D02*
D03*
X-581756Y106757D02*
D03*
Y111757D02*
D03*
D82*
X-631670Y336937D02*
D03*
X-621670D02*
D03*
X-631670Y326937D02*
D03*
X-621670D02*
D03*
D83*
X-545000Y367961D02*
D03*
Y358118D02*
D03*
X-572339Y363039D02*
D03*
X-582182D02*
D03*
X-441847Y331929D02*
D03*
Y251150D02*
D03*
Y166150D02*
D03*
Y82150D02*
D03*
D84*
X-81499Y94740D02*
D03*
X-91499Y99740D02*
D03*
X-81499Y104740D02*
D03*
X-91499Y109740D02*
D03*
X-81499Y114740D02*
D03*
X-91499Y119740D02*
D03*
X-81499Y124740D02*
D03*
X-91499Y129740D02*
D03*
Y184740D02*
D03*
X-81499Y179740D02*
D03*
X-91499Y174740D02*
D03*
X-81499Y169740D02*
D03*
X-91499Y164740D02*
D03*
X-81499Y159740D02*
D03*
X-91499Y154740D02*
D03*
X-81499Y149740D02*
D03*
X-91499Y239740D02*
D03*
X-81499Y234740D02*
D03*
X-91499Y229740D02*
D03*
X-81499Y224740D02*
D03*
X-91499Y219740D02*
D03*
X-81499Y214740D02*
D03*
X-91499Y209740D02*
D03*
X-81499Y204740D02*
D03*
X-91499Y294740D02*
D03*
X-81499Y289740D02*
D03*
X-91499Y284740D02*
D03*
X-81499Y279740D02*
D03*
X-91499Y274740D02*
D03*
X-81499Y269740D02*
D03*
X-91499Y264740D02*
D03*
X-81499Y259740D02*
D03*
X-55599D02*
D03*
X-65599Y264740D02*
D03*
X-55599Y269740D02*
D03*
X-65599Y274740D02*
D03*
X-55599Y279740D02*
D03*
X-65599Y284740D02*
D03*
X-55599Y289740D02*
D03*
X-65599Y294740D02*
D03*
X-55599Y204740D02*
D03*
X-65599Y209740D02*
D03*
X-55599Y214740D02*
D03*
X-65599Y219740D02*
D03*
X-55599Y224740D02*
D03*
X-65599Y229740D02*
D03*
X-55599Y234740D02*
D03*
X-65599Y239740D02*
D03*
X-55599Y149740D02*
D03*
X-65599Y154740D02*
D03*
X-55599Y159740D02*
D03*
X-65599Y164740D02*
D03*
X-55599Y169740D02*
D03*
X-65599Y174740D02*
D03*
X-55599Y179740D02*
D03*
X-65599Y184740D02*
D03*
Y129740D02*
D03*
X-55599Y124740D02*
D03*
X-65599Y119740D02*
D03*
X-55599Y114740D02*
D03*
X-65599Y109740D02*
D03*
X-55599Y104740D02*
D03*
X-65599Y99740D02*
D03*
X-55599Y94740D02*
D03*
X-155500Y115500D02*
D03*
X-307999D02*
D03*
X-377043Y213500D02*
D03*
X-223500D02*
D03*
X-376542Y114000D02*
D03*
X-377043Y304000D02*
D03*
X-308500Y305500D02*
D03*
Y215500D02*
D03*
Y26000D02*
D03*
X-155500Y305500D02*
D03*
X-223500Y114000D02*
D03*
X-377043Y24000D02*
D03*
X-223500Y304000D02*
D03*
X-155500Y26000D02*
D03*
Y215500D02*
D03*
X-223500Y24000D02*
D03*
D85*
X-30599Y89740D02*
D03*
Y299740D02*
D03*
D86*
X-616434Y372094D02*
D03*
X-540000Y335500D02*
D03*
X-535400Y161200D02*
D03*
X-630142Y305000D02*
D03*
X-504142Y376000D02*
D03*
X-609142Y170000D02*
D03*
X-536142Y78000D02*
D03*
X-507142Y133000D02*
D03*
X-638142Y72000D02*
D03*
X-545142Y59000D02*
D03*
X-587142Y170000D02*
D03*
X-566142Y47000D02*
D03*
X-569142Y180000D02*
D03*
X-466000Y383000D02*
D03*
D87*
X-145500Y115500D02*
D03*
X-297999D02*
D03*
X-367042Y213500D02*
D03*
X-213500D02*
D03*
X-366542Y114000D02*
D03*
X-367042Y304000D02*
D03*
X-298500Y305500D02*
D03*
Y215500D02*
D03*
Y26000D02*
D03*
X-145500Y305500D02*
D03*
X-213500Y114000D02*
D03*
X-367042Y24000D02*
D03*
X-213500Y304000D02*
D03*
X-145500Y26000D02*
D03*
Y215500D02*
D03*
X-213500Y24000D02*
D03*
D88*
X-591631Y307724D02*
D03*
Y312055D02*
D03*
X-587300Y307724D02*
D03*
Y312055D02*
D03*
X-582969Y307724D02*
D03*
Y312055D02*
D03*
D89*
X-560100Y337400D02*
D03*
X-597320Y288524D02*
D03*
X-273624Y122367D02*
D03*
Y118853D02*
D03*
X-273124Y158367D02*
D03*
Y154853D02*
D03*
X-274125Y28648D02*
D03*
Y32163D02*
D03*
Y308853D02*
D03*
Y312367D02*
D03*
X-271634Y217850D02*
D03*
X-273000Y222004D02*
D03*
X-108125Y308853D02*
D03*
Y312367D02*
D03*
X-118142Y118000D02*
D03*
X-115765Y120377D02*
D03*
X-273624Y140367D02*
D03*
Y136853D02*
D03*
X-383185Y115000D02*
D03*
X-383685Y130500D02*
D03*
Y147500D02*
D03*
Y164000D02*
D03*
X-273123Y172826D02*
D03*
Y176394D02*
D03*
X-273623Y366394D02*
D03*
X-273625Y348367D02*
D03*
X-274125Y330367D02*
D03*
X-273623Y362826D02*
D03*
X-273625Y344853D02*
D03*
X-274125Y326853D02*
D03*
X-384186Y354000D02*
D03*
Y337500D02*
D03*
Y320500D02*
D03*
X-383686Y305000D02*
D03*
X-273125Y236302D02*
D03*
X-451575Y175197D02*
D03*
X-500142Y74500D02*
D03*
X-458642Y68000D02*
D03*
X-557142Y200000D02*
D03*
X-455142Y72000D02*
D03*
X-578642Y202000D02*
D03*
X-464142Y72000D02*
D03*
X-599642Y206500D02*
D03*
X-558642Y208500D02*
D03*
X-561642Y220000D02*
D03*
X-556642Y196500D02*
D03*
X-581642Y208500D02*
D03*
X-584642Y219500D02*
D03*
X-579642Y196500D02*
D03*
X-604879Y209736D02*
D03*
X-607642Y219500D02*
D03*
X-602142Y196500D02*
D03*
X-463642Y156000D02*
D03*
X-458142Y151000D02*
D03*
X-455142Y156000D02*
D03*
X-458642Y236500D02*
D03*
X-463642Y241000D02*
D03*
X-454642D02*
D03*
X-462142Y322000D02*
D03*
X-458142Y317500D02*
D03*
X-454686Y322043D02*
D03*
X-556642Y71000D02*
D03*
X-573642Y76000D02*
D03*
X-581642Y69000D02*
D03*
X-451142Y46000D02*
D03*
X-446642Y302000D02*
D03*
X-597890Y76268D02*
D03*
X-624642Y81500D02*
D03*
X-559142Y227000D02*
D03*
X-552142Y223000D02*
D03*
X-582142Y227000D02*
D03*
X-605142D02*
D03*
X-575557Y223239D02*
D03*
X-598557Y223239D02*
D03*
X-597642Y191500D02*
D03*
X-574142D02*
D03*
X-551142D02*
D03*
X-603642Y175500D02*
D03*
X-557642D02*
D03*
X-580642D02*
D03*
X-574642Y151500D02*
D03*
X-589142Y143500D02*
D03*
X-589039Y153901D02*
D03*
X-570056Y171500D02*
D03*
X-448642Y115000D02*
D03*
X-450142Y202000D02*
D03*
X-451142Y287000D02*
D03*
X-25642Y47890D02*
D03*
X-450318Y319731D02*
D03*
X-450176Y239052D02*
D03*
Y154052D02*
D03*
Y70052D02*
D03*
X-274125Y50163D02*
D03*
Y46648D02*
D03*
Y82648D02*
D03*
Y86163D02*
D03*
Y64648D02*
D03*
Y68163D02*
D03*
X-117125Y158163D02*
D03*
Y154648D02*
D03*
X-273125Y239816D02*
D03*
Y257816D02*
D03*
Y254302D02*
D03*
X-273625Y275816D02*
D03*
Y272302D02*
D03*
X-108765Y343377D02*
D03*
X-111142Y341000D02*
D03*
X-230190Y114795D02*
D03*
X-230690Y130295D02*
D03*
Y147295D02*
D03*
Y163795D02*
D03*
X-384190Y24795D02*
D03*
X-384690Y40295D02*
D03*
Y57295D02*
D03*
Y73795D02*
D03*
X-383686Y214449D02*
D03*
X-384186Y229949D02*
D03*
Y246949D02*
D03*
Y263449D02*
D03*
X-230190Y24795D02*
D03*
X-230690Y40295D02*
D03*
Y57295D02*
D03*
Y73795D02*
D03*
X-230142Y214449D02*
D03*
X-230642Y229949D02*
D03*
Y246949D02*
D03*
Y263449D02*
D03*
X-230142Y305000D02*
D03*
X-230642Y320500D02*
D03*
Y337500D02*
D03*
Y354000D02*
D03*
X-470142Y82221D02*
D03*
X-475142Y69221D02*
D03*
Y81221D02*
D03*
X-462792Y89720D02*
D03*
X-470142Y166220D02*
D03*
X-475142Y153220D02*
D03*
Y165220D02*
D03*
X-462792Y173721D02*
D03*
X-470142Y251220D02*
D03*
X-475142Y238221D02*
D03*
Y250220D02*
D03*
X-462792Y258720D02*
D03*
Y339500D02*
D03*
X-470142Y332000D02*
D03*
X-475142Y319000D02*
D03*
Y331000D02*
D03*
X-613642Y280000D02*
D03*
X-641642Y286000D02*
D03*
X-508142Y345000D02*
D03*
X-503142D02*
D03*
X-500142Y349000D02*
D03*
Y355000D02*
D03*
X-503142Y359000D02*
D03*
X-508142D02*
D03*
X-507242Y288900D02*
D03*
X-502242D02*
D03*
X-499242Y292900D02*
D03*
Y298900D02*
D03*
X-502242Y302900D02*
D03*
X-507242D02*
D03*
X-508500Y308700D02*
D03*
X-503500D02*
D03*
Y314700D02*
D03*
Y320700D02*
D03*
X-508500D02*
D03*
X-517142Y329000D02*
D03*
X-512142D02*
D03*
Y335000D02*
D03*
Y341000D02*
D03*
X-517142D02*
D03*
D90*
X-239500Y172925D02*
D03*
Y170154D02*
D03*
X-447040Y99960D02*
D03*
X-449000Y98000D02*
D03*
X-239411Y157174D02*
D03*
Y154326D02*
D03*
X-436608Y98887D02*
D03*
X-438570Y96930D02*
D03*
X-239000Y140394D02*
D03*
Y137622D02*
D03*
X-422540Y88960D02*
D03*
X-424515Y87015D02*
D03*
X-239021Y124224D02*
D03*
Y121276D02*
D03*
X-418998Y82502D02*
D03*
X-420958Y80542D02*
D03*
X-239500Y34286D02*
D03*
X-243666Y29814D02*
D03*
X-242000Y50544D02*
D03*
X-245815Y46072D02*
D03*
X-244500Y67286D02*
D03*
X-249500Y62814D02*
D03*
X-244790Y76548D02*
D03*
X-239500Y81314D02*
D03*
X-394500Y31214D02*
D03*
X-398000Y35686D02*
D03*
X-394000Y47472D02*
D03*
X-397000Y51944D02*
D03*
X-393500Y64214D02*
D03*
X-395818Y69182D02*
D03*
X-394000Y80004D02*
D03*
X-396813Y84475D02*
D03*
X-393000Y170208D02*
D03*
X-397500Y174680D02*
D03*
X-393000Y154419D02*
D03*
X-397000Y158890D02*
D03*
X-399026Y125891D02*
D03*
X-395000Y121419D02*
D03*
X-394000Y137677D02*
D03*
X-397318Y142182D02*
D03*
X-399000Y225736D02*
D03*
X-394500Y221000D02*
D03*
X-396000Y239236D02*
D03*
X-398500Y234764D02*
D03*
X-395025Y256226D02*
D03*
X-399056Y251754D02*
D03*
X-394461Y271857D02*
D03*
X-399000Y267164D02*
D03*
X-396500Y314000D02*
D03*
X-399420Y309264D02*
D03*
X-395000Y329881D02*
D03*
X-396574Y325264D02*
D03*
X-394000Y346736D02*
D03*
X-396574Y342264D02*
D03*
X-394500Y362236D02*
D03*
X-396554Y357764D02*
D03*
X-239920Y221018D02*
D03*
Y223789D02*
D03*
X-431548Y314452D02*
D03*
X-430885Y311761D02*
D03*
X-240000Y237276D02*
D03*
Y240047D02*
D03*
X-428040Y319040D02*
D03*
X-430000Y321746D02*
D03*
X-240000Y254018D02*
D03*
Y256789D02*
D03*
X-422770Y324310D02*
D03*
X-424730Y326270D02*
D03*
X-240000Y269807D02*
D03*
Y272579D02*
D03*
X-421040Y331040D02*
D03*
X-423000Y333000D02*
D03*
X-243841Y361159D02*
D03*
X-238179Y361821D02*
D03*
X-244081Y346919D02*
D03*
X-237919Y347081D02*
D03*
X-245131Y327369D02*
D03*
X-241355Y329917D02*
D03*
X-250091Y313409D02*
D03*
X-245179Y314821D02*
D03*
X-330500Y158000D02*
D03*
X-352000Y129500D02*
D03*
X-270000Y167000D02*
D03*
X-330000Y137500D02*
D03*
X-330500Y147500D02*
D03*
X-120000Y31986D02*
D03*
X-125144Y221655D02*
D03*
X-361685Y170500D02*
D03*
X-356991Y169660D02*
D03*
X-364185Y158500D02*
D03*
X-356945Y159411D02*
D03*
X-363685Y148500D02*
D03*
X-356944Y149568D02*
D03*
X-363630Y137034D02*
D03*
X-356943Y139726D02*
D03*
X-375681Y180276D02*
D03*
X-309723Y169538D02*
D03*
X-315596Y159411D02*
D03*
X-308685Y158500D02*
D03*
X-315598Y149568D02*
D03*
X-308685Y147500D02*
D03*
X-315532Y169730D02*
D03*
X-315598Y139726D02*
D03*
X-308685Y137500D02*
D03*
X-351431Y139000D02*
D03*
Y148500D02*
D03*
Y158500D02*
D03*
X-270499Y143000D02*
D03*
X-329983Y327740D02*
D03*
X-330186Y337500D02*
D03*
X-329952Y347425D02*
D03*
X-352186Y319883D02*
D03*
X-351932Y329000D02*
D03*
Y338500D02*
D03*
Y348500D02*
D03*
X-316099Y329726D02*
D03*
X-316033Y359730D02*
D03*
X-309186Y327500D02*
D03*
X-316098Y339568D02*
D03*
X-309186Y337500D02*
D03*
X-316097Y349411D02*
D03*
X-309186Y348500D02*
D03*
X-310224Y359538D02*
D03*
X-376182Y370276D02*
D03*
X-364131Y327034D02*
D03*
X-357444Y329726D02*
D03*
X-364186Y338500D02*
D03*
X-357445Y339568D02*
D03*
X-364686Y348500D02*
D03*
X-357446Y349411D02*
D03*
X-362186Y360500D02*
D03*
X-357492Y359660D02*
D03*
X-112633Y367367D02*
D03*
X-121000Y366146D02*
D03*
X-115000Y351000D02*
D03*
X-116000Y332264D02*
D03*
X-121000Y330146D02*
D03*
X-112000Y306000D02*
D03*
X-115125Y284125D02*
D03*
X-127264Y275595D02*
D03*
X-115993Y253993D02*
D03*
X-121000Y257595D02*
D03*
X-116779Y235736D02*
D03*
X-120000Y240000D02*
D03*
X-117758Y218758D02*
D03*
X-260152Y363848D02*
D03*
X-271778Y352000D02*
D03*
X-271000Y333000D02*
D03*
Y302000D02*
D03*
X-271377Y267622D02*
D03*
X-270000Y260000D02*
D03*
Y242000D02*
D03*
Y211000D02*
D03*
X-272000Y180000D02*
D03*
X-271052Y126133D02*
D03*
X-273000Y79000D02*
D03*
Y72000D02*
D03*
X-272728Y54000D02*
D03*
X-271000Y35000D02*
D03*
X-117000Y178000D02*
D03*
X-120000Y176000D02*
D03*
X-115736Y163000D02*
D03*
X-117000Y142041D02*
D03*
X-120000Y140000D02*
D03*
X-115000Y125000D02*
D03*
X-132000Y97000D02*
D03*
X-139000Y96586D02*
D03*
X-118127Y71127D02*
D03*
X-120000Y68000D02*
D03*
X-116000Y53000D02*
D03*
X-120000Y50000D02*
D03*
X-116000Y35000D02*
D03*
X-583500Y117114D02*
D03*
X-619000Y101000D02*
D03*
X-599521Y102000D02*
D03*
X-580236Y117813D02*
D03*
X-595909Y116091D02*
D03*
X-609164Y101187D02*
D03*
X-606694Y68110D02*
D03*
X-231201Y370374D02*
D03*
X-231595Y279232D02*
D03*
Y179724D02*
D03*
X-228839Y96653D02*
D03*
X-386221Y89764D02*
D03*
X-376280Y279331D02*
D03*
X-561615Y166929D02*
D03*
X-451575Y340551D02*
D03*
X-454858Y335342D02*
D03*
X-451575Y259842D02*
D03*
X-454776Y254480D02*
D03*
X-451575Y90551D02*
D03*
X-454776Y85480D02*
D03*
Y169480D02*
D03*
X-621642Y61000D02*
D03*
X-621544Y71357D02*
D03*
X-606406Y80931D02*
D03*
X-601743Y86899D02*
D03*
X-208690Y170295D02*
D03*
X-203996Y169455D02*
D03*
X-211190Y158295D02*
D03*
X-203950Y159206D02*
D03*
X-210690Y148295D02*
D03*
X-203948Y149363D02*
D03*
X-210635Y136829D02*
D03*
X-203948Y139521D02*
D03*
X-162537Y169525D02*
D03*
X-156728Y169334D02*
D03*
X-162601Y159206D02*
D03*
X-155690Y158295D02*
D03*
X-162602Y149363D02*
D03*
X-155690Y147295D02*
D03*
X-162603Y139521D02*
D03*
X-155690Y137295D02*
D03*
X-198436Y158295D02*
D03*
Y148295D02*
D03*
Y138795D02*
D03*
X-198690Y129678D02*
D03*
X-176456Y157220D02*
D03*
X-176690Y147295D02*
D03*
X-176487Y137535D02*
D03*
X-362690Y80295D02*
D03*
X-357996Y79455D02*
D03*
X-365190Y68295D02*
D03*
X-357950Y69206D02*
D03*
X-364690Y58295D02*
D03*
X-357948Y59363D02*
D03*
X-364635Y46830D02*
D03*
X-357948Y49521D02*
D03*
X-316537Y79525D02*
D03*
X-310728Y79334D02*
D03*
X-316601Y69206D02*
D03*
X-309690Y68295D02*
D03*
X-316602Y59363D02*
D03*
X-309690Y57295D02*
D03*
X-316603Y49521D02*
D03*
X-309690Y47295D02*
D03*
X-352436Y68295D02*
D03*
Y58295D02*
D03*
Y48795D02*
D03*
X-352690Y39678D02*
D03*
X-330456Y67220D02*
D03*
X-330690Y57295D02*
D03*
X-330487Y47535D02*
D03*
X-362186Y269949D02*
D03*
X-357492Y269109D02*
D03*
X-364686Y257949D02*
D03*
X-357446Y258859D02*
D03*
X-364186Y247949D02*
D03*
X-357445Y249017D02*
D03*
X-364131Y236483D02*
D03*
X-357444Y239174D02*
D03*
X-316033Y269179D02*
D03*
X-310224Y268987D02*
D03*
X-316097Y258859D02*
D03*
X-309186Y257949D02*
D03*
X-316098Y249017D02*
D03*
X-309186Y246949D02*
D03*
X-316099Y239174D02*
D03*
X-309186Y236949D02*
D03*
X-351932Y257949D02*
D03*
Y247949D02*
D03*
Y238449D02*
D03*
X-352186Y229332D02*
D03*
X-329952Y256874D02*
D03*
X-330186Y246949D02*
D03*
X-329983Y237189D02*
D03*
X-208690Y80295D02*
D03*
X-203996Y79455D02*
D03*
X-211190Y68295D02*
D03*
X-203950Y69206D02*
D03*
X-210690Y58295D02*
D03*
X-203948Y59363D02*
D03*
X-210635Y46830D02*
D03*
X-203948Y49521D02*
D03*
X-162537Y79525D02*
D03*
X-156728Y79334D02*
D03*
X-162601Y69206D02*
D03*
X-155690Y68295D02*
D03*
X-162602Y59363D02*
D03*
X-155690Y57295D02*
D03*
X-162603Y49521D02*
D03*
X-155690Y47295D02*
D03*
X-198436Y68295D02*
D03*
Y58295D02*
D03*
Y48795D02*
D03*
X-198690Y39678D02*
D03*
X-176456Y67220D02*
D03*
X-176690Y57295D02*
D03*
X-176487Y47535D02*
D03*
X-208642Y269949D02*
D03*
X-203949Y269109D02*
D03*
X-211142Y257949D02*
D03*
X-203903Y258859D02*
D03*
X-210642Y247949D02*
D03*
X-203901Y249017D02*
D03*
X-210588Y236483D02*
D03*
X-203901Y239174D02*
D03*
X-162490Y269179D02*
D03*
X-156681Y268987D02*
D03*
X-162554Y258859D02*
D03*
X-155642Y257949D02*
D03*
X-162555Y249017D02*
D03*
X-155642Y246949D02*
D03*
X-162556Y239174D02*
D03*
X-155642Y236949D02*
D03*
X-198389Y257949D02*
D03*
Y247949D02*
D03*
Y238449D02*
D03*
X-198642Y229332D02*
D03*
X-176409Y256874D02*
D03*
X-176642Y246949D02*
D03*
X-176440Y237189D02*
D03*
X-155642Y327500D02*
D03*
Y337500D02*
D03*
Y348500D02*
D03*
X-156681Y359538D02*
D03*
X-176440Y327740D02*
D03*
X-176642Y337500D02*
D03*
X-176409Y347425D02*
D03*
X-210588Y327034D02*
D03*
X-210642Y338500D02*
D03*
X-211142Y348500D02*
D03*
X-208642Y360500D02*
D03*
X-203949Y359660D02*
D03*
X-203903Y349411D02*
D03*
X-203901Y339568D02*
D03*
X-203901Y329726D02*
D03*
X-198642Y319883D02*
D03*
X-198389Y348500D02*
D03*
Y338500D02*
D03*
Y329000D02*
D03*
X-162556Y329726D02*
D03*
X-162490Y359730D02*
D03*
X-162554Y349411D02*
D03*
X-162555Y339568D02*
D03*
X-469642Y102720D02*
D03*
X-471142Y114720D02*
D03*
X-464142Y117720D02*
D03*
X-448642Y55221D02*
D03*
X-455642Y62721D02*
D03*
X-460142Y107220D02*
D03*
X-469642Y186721D02*
D03*
X-471142Y198721D02*
D03*
X-464142Y201720D02*
D03*
X-448642Y139220D02*
D03*
X-455642Y146721D02*
D03*
X-460142Y191220D02*
D03*
X-469642Y271721D02*
D03*
X-471142Y283720D02*
D03*
X-464142Y286720D02*
D03*
X-448642Y224220D02*
D03*
X-455642Y231720D02*
D03*
X-460142Y276220D02*
D03*
X-455642Y312500D02*
D03*
X-448642Y305000D02*
D03*
X-464142Y367500D02*
D03*
X-460142Y357000D02*
D03*
X-469642Y352500D02*
D03*
X-471142Y364500D02*
D03*
M02*
