M48
;Layer_Color=9474304
;FILE_FORMAT=2:4
INCH,TZ
;TYPE=PLATED
T01F00S00C0.0079
T02F00S00C0.0118
T03F00S00C0.0256
T04F00S00C0.0276
T05F00S00C0.0315
T06F00S00C0.0354
T07F00S00C0.0354
T08F00S00C0.0400
T09F00S00C0.0630
T10F00S00C0.0630
T11F00S00C0.0748
;TYPE=NON_PLATED
T12F00S00C0.1181
T13F00S00C0.1260
%
T01
X-62164Y6100
X-62154Y7136
X-60669Y6811
X-60641Y8093
X-60174Y8690
X-59952Y10200
X-60916Y10119
X-61900Y10100
X-59591Y11609
X-58350Y11711
X-58024Y11781
X-47114Y11472
X-46414Y11772
X-46014Y10722
X-46964Y10272
X-44704Y9996
X-44900Y9800
X-45158Y9055
X-45478Y8548
X-45564Y6272
X-44864Y5522
X-43857Y9693
X-43661Y9889
X-42451Y8701
X-42254Y8896
X-41900Y8250
X-42096Y8054
X-39400Y8000
X-39681Y8448
X-38622Y8976
X-39582Y6918
X-39350Y6421
X-39700Y5194
X-39400Y4747
X-39800Y3569
X-39450Y3121
X-36463Y4683
X-35795Y4952
X-35795Y5936
X-36469Y5830
X-36519Y6830
X-35795Y6921
X-35800Y7946
X-36269Y8030
X-36363Y13703
X-35694Y13973
X-35694Y14957
X-36368Y14850
X-39300Y15442
X-39732Y14218
X-39400Y13768
X-39903Y12589
X-39500Y12142
X-44864Y13922
X-45564Y14672
X-35143Y14850
Y13900
X-35200Y12950
X-33000Y13750
X-33050Y14750
X-31560Y14957
X-30868Y14750
Y13750
X-31560Y13973
X-27050Y14300
X-27105Y12613
X-23902Y12422
Y12128
X-23900Y13762
Y14039
X-23941Y15433
X-21069Y14830
X-20395Y14936
X-19844Y14830
Y13880
X-20395Y13952
X-21063Y13683
X-19869Y12968
X-20400Y7946
X-20869Y8030
X-21119Y6830
X-20395Y6921
X-19844Y6830
Y5830
X-20395Y5936
X-21069Y5830
X-21063Y4683
X-20395Y4952
X-19844Y4880
X-19869Y3968
X-23950Y3429
X-24367Y2981
X-24582Y4607
X-24200Y5054
X-24450Y6729
X-24950Y6281
X-24479Y7655
X-23950Y8131
X-22884Y9665
X-27300Y7900
Y7200
X-27273Y5400
X-27100Y3500
X-30969Y4730
X-31660Y4952
X-31660Y5936
X-30969Y5730
Y6830
X-31660Y6921
X-31654Y7953
X-31073Y7933
X-33046Y6722
X-33069Y5730
X-33049Y4754
X-35244Y4880
X-35269Y3968
X-35244Y5830
Y6830
X-17646Y6722
X-17669Y5730
X-17649Y4754
X-16260Y4952
X-15569Y4730
Y5730
X-16260Y5936
X-16260Y6921
X-15569Y6830
X-15673Y7933
X-16254Y7953
X-13900Y9659
X-13200Y9700
X-11813Y7113
X-12000Y6800
Y5000
X-11600Y5300
Y3500
X-12000Y3199
X-11500Y12500
X-11700Y14204
X-12000Y14000
X-15569Y13730
X-16260Y13952
X-16260Y14936
X-15569Y14730
X-17669
X-17649Y13754
X-17646Y15722
X-16260Y15921
X-15569Y15830
X-15673Y16933
X-16254Y16953
X-12000Y17600
X-11700Y17800
X-11574Y16300
X-11776Y21876
X-12514Y22166
X-11678Y23574
X-12000Y24000
X-11599Y25399
X-12100Y25759
X-12726Y27559
X-11513Y28413
X-11200Y30600
X-15668Y26899
X-16249Y26918
X-16255Y25886
X-15564Y25795
Y24695
X-16256Y24902
X-16256Y23917
X-15564Y23695
X-17644Y23719
X-17664Y24695
X-17641Y25687
X-19839Y25795
X-20390Y25886
X-21114Y25795
X-21064Y24795
X-20390Y24902
X-19839Y24795
Y23845
X-20390Y23917
X-21059Y23648
X-19864Y22933
X-20395Y26911
X-20864Y26995
X-24000Y26981
Y27258
X-23160Y27923
X-24000Y25679
Y25402
Y24005
Y23728
X-23992Y22379
Y22102
X-27000Y21100
Y24200
Y26000
X-27138Y26762
X-27100Y30200
X-31022Y26899
X-31603Y26918
X-31610Y25886
X-30919Y25795
Y24695
X-31610Y24902
X-31610Y23917
X-30919Y23695
X-32998Y23719
X-33019Y24695
X-32995Y25687
X-35193Y25795
Y24795
Y23845
X-35219Y22933
X-35143Y15850
X-33050Y15800
X-31560Y15941
X-30868Y15850
X-30972Y16954
X-31553Y16973
X-27000Y16700
X-27200Y18000
X-23950Y17293
Y17015
X-23941Y15717
X-21119Y15830
X-20395Y15921
X-19844Y15830
X-20400Y16946
X-20869Y17030
X-23160Y17972
X-35699Y16966
X-36168Y17050
X-36418Y15850
X-35694Y15941
X-37568Y18028
X-39300Y17021
X-39750Y17468
X-39700Y15889
X-39450Y22100
X-39900Y22574
X-39850Y23476
X-39600Y23924
X-39906Y25175
X-39503Y25623
X-39900Y26716
X-39446Y27186
X-37628Y27933
X-36219Y26995
X-35749Y26911
X-35745Y25886
X-36469Y25795
X-36419Y24795
X-35744Y24902
X-35744Y23917
X-36413Y23648
X-45564Y23172
X-44864Y22422
X-45478Y25448
X-45158Y25984
X-46014Y27622
X-46964Y27172
X-47114Y28372
X-46414Y28672
X-44864Y30500
X-43088Y31176
X-39942Y30926
X-46414Y20172
X-47114Y19872
X-46964Y18672
X-46014Y19122
X-45478Y16948
X-56161Y16693
X-58297Y30772
X-58730
X-59163
Y31206
X-58730
X-58297
X-45564Y31250
X-45486Y33534
X-45158Y34055
X-46014Y35700
X-46964Y35250
X-47114Y36450
X-46414Y36750
X-39450Y36224
X-39655Y35776
X-39400Y34674
X-39657Y34226
X-39500Y32988
X-39657Y32526
X-39650Y31400
X-43155Y31445
X-42804Y31904
X-43000Y32175
X-42277Y32431
X-42473Y32627
X-42104Y33104
X-42300Y33300
X-36419Y33850
X-35744Y33957
X-35744Y32973
X-36413Y32703
X-36469Y34850
X-35745Y34941
X-35749Y35966
X-36219Y36050
X-37618Y37028
X-35193Y34850
Y33850
Y32900
X-35219Y31988
X-32998Y32774
X-33019Y33750
X-32995Y34743
X-31610Y34941
X-30919Y34850
Y33750
X-31610Y33957
X-31610Y32973
X-30919Y32750
X-31022Y35954
X-31603Y35973
X-27178Y35200
X-27100Y33300
X-24513Y32737
X-24136Y32992
X-24518Y31482
X-25009Y31341
X-24408Y34692
X-23792Y34708
X-23818Y36182
X-24384Y36116
X-26015Y36385
X-23120Y37037
X-20864Y36050
X-20395Y35966
X-20390Y34941
X-19839Y34850
Y33850
X-20390Y33957
X-21064Y33850
X-21114Y34850
X-21059Y32703
X-20390Y32973
X-19839Y32900
X-19864Y31988
X-17644Y32774
X-17664Y33750
X-17641Y34743
X-16255Y34941
X-15564Y34850
Y33750
X-16256Y33957
X-16256Y32973
X-15564Y32750
X-15668Y35954
X-16249Y35973
X-12100Y36615
X-11263Y36737
X-11500Y35100
X-11600Y33226
X-12100Y33015
T02
X-62464Y8150
X-59789Y7627
X-58164Y6900
X-57364Y7600
X-55664Y7100
X-57464Y15150
X-58904Y15390
X-58914Y14350
X-47514Y15322
X-46364Y15600
X-45514
X-45018Y15405
X-45814Y15100
X-44864Y11500
X-44657Y8687
Y8215
Y7743
X-44189Y7739
X-43716
X-43712Y8215
Y8687
X-44185
X-46279Y8972
X-47014Y8222
X-47514Y8122
Y6922
X-46414Y7200
X-45514
X-45018Y7005
X-45864Y6800
X-45114Y4600
X-38469Y4030
X-38419Y2480
X-38469Y5730
Y7380
X-38318Y11500
X-38368Y13050
Y14750
X-50014Y7450
X-27412Y6816
Y6465
Y5016
Y4665
Y3216
Y2865
X-23019Y2480
X-23069Y4030
Y5730
Y7380
X-23019Y11480
X-23069Y13030
Y14730
X-27362Y14037
Y13685
Y12237
Y11885
X-27412Y8616
Y8265
X-27312Y15485
X-11712Y15465
X-11576Y12038
X-11814Y11800
X-2564Y4789
X-11712Y15816
X-10812Y30885
Y31237
X-23014Y30500
X-23064Y26345
Y24695
Y22995
X-23014Y21445
X-27163Y21785
X-27300Y22200
X-27312Y23630
Y23982
Y25430
Y25782
X-27362Y27230
Y27582
X-27412Y30885
Y31237
X-27312Y17639
Y17283
X-27312Y15837
X-23069Y16380
X-38368Y16400
X-38369Y21445
X-38419Y22995
Y24695
Y26345
X-38369Y30500
X-44664Y30200
X-45114Y28700
X-44657Y25587
Y25115
Y24643
X-44189Y24639
X-43716
X-43712Y25115
Y25587
X-44185
X-46279Y25872
X-47014Y25122
X-47514Y25022
Y23822
X-46364Y24100
X-45464
X-45018Y23905
X-45864Y23650
X-45014Y20200
X-45158Y17520
X-44657Y17087
X-44185
X-43712
Y16615
X-43716Y16139
X-44189
X-44657Y16143
Y16615
X-47014Y16622
X-47514Y16522
X-46279Y17372
X-50224Y28890
X-50724
X-49924Y29290
Y29890
X-50224Y30290
X-50724
X-50850Y30870
X-50350
X-59732Y28852
X-61364Y28000
X-64164Y28600
X-60514Y22700
X-60764Y21950
X-60488Y20974
X-59964Y20650
X-60214Y19650
X-59764Y19150
X-60364Y17550
X-58064
X-57006Y17150
X-55764Y17550
X-55664Y19650
X-55714Y20000
X-55864Y20850
X-56164Y22000
X-55914Y22700
X-55214Y22300
X-57556Y22324
X-58214Y22700
X-58464Y21950
X-58164Y20850
X-57864Y20200
X-57964Y19650
X-57414Y19150
X-55114
X-59856Y22324
X-56010Y33740
X-51714Y34100
X-51214
Y33500
Y32900
X-51714
X-50850Y32070
X-50350
Y31470
X-50314Y34500
X-50814
X-50014Y34900
Y35500
X-50314Y35900
X-50814
X-47514Y33100
X-47014Y33200
X-46279Y33950
X-46214Y32200
X-45469Y32204
X-45032Y31973
X-45814Y31750
X-47514Y31900
X-44657Y32720
Y33193
Y33665
X-44185
X-43712
Y33193
X-43716Y32717
X-44189
X-38419Y32050
Y33750
Y35400
X-27362Y34837
Y34485
X-27412Y33037
Y32685
X-27362Y36283
Y36639
X-23064Y35400
Y33750
Y32050
X-11114Y34100
X-10876Y34338
T03
X-61676Y10676
Y11176
X-61176
Y10676
X-60676
Y11176
X-60176
Y10676
X-59676
Y11176
X-59176
Y10676
X-58676
Y11176
X-58176
Y10676
T04
X-44185Y8215
Y16615
Y25115
Y33193
T05
X-58218Y36304
X-57234
X-54500Y36796
Y35812
T06
X-9150Y9974
Y10974
Y11974
Y12974
X-8150Y12474
Y11474
Y10474
Y9474
X-6560Y9974
Y10974
Y11974
Y12974
X-5560Y12474
Y11474
Y10474
Y9474
Y14974
X-6560Y15474
X-8150Y14974
X-9150Y15474
Y16474
Y17474
Y18474
X-8150Y17974
Y16974
Y15974
X-6560Y16474
Y17474
Y18474
X-5560Y17974
Y16974
Y15974
Y20474
Y21474
Y22474
Y23474
X-6560Y22974
Y21974
Y20974
X-8150Y21474
Y22474
Y23474
X-9150Y23974
Y22974
Y21974
Y20974
X-8150Y20474
X-6560Y23974
Y26474
Y27474
Y28474
Y29474
X-5560Y28974
Y27974
Y26974
Y25974
X-8150
Y26974
Y27974
Y28974
X-9150Y29474
Y28474
Y27474
Y26474
T07
X-37704Y2400
X-36704
X-36654Y11400
X-37654
X-30800Y11550
X-29800
X-22350Y11400
X-21350
Y2400
X-22350
X-29850Y2600
X-30850
X-15550
X-14550
Y11550
X-15550
Y21550
X-14550
Y30550
X-15550
X-21350Y30400
X-22350
X-29850Y30550
X-30850
Y21550
X-29850
X-22350Y21350
X-21350
X-36704
X-37704
Y30400
X-36704
T08
X-63167Y32694
Y33694
X-62167
Y32694
T09
X-9150Y7874
X-6660Y8134
X-1260Y7874
Y31074
X-5370Y30554
X-7540Y31074
T10
X-63814Y7200
X-56614Y4700
X-54514Y5900
X-53614Y7800
X-50714Y13300
X-53540Y16120
X-56914Y18000
X-58714Y17000
X-60914
X-63014Y30500
X-61643Y37209
X-54000Y33550
X-50414Y37600
X-46600Y38300
T11
X-6128Y33536
Y35504
X-3372
Y33536
T12
X-65209Y2185
Y37185
T13
X-3060Y8974
Y29974
M30
