M48
;Layer_Color=9474304
;FILE_FORMAT=4:4
METRIC,LZ
;TYPE=PLATED
T1F00S00C0.2000
T2F00S00C0.3000
T3F00S00C0.6500
T4F00S00C0.7000
T5F00S00C0.8000
T6F00S00C0.9000
T7F00S00C1.0160
T8F00S00C1.6000
T9F00S00C1.6000
;TYPE=NON_PLATED
T10F00S00C3.0000
T11F00S00C3.2000
%
T01
X-01578972Y0015494
X-01578721Y00181247
X-01541001Y00173
X-01540273Y00205565
X-01528427Y00220724
X-01522782Y0025908
X-01547277Y00257015
X-0157226Y0025654
X-01513609Y00294871
X-0148209Y0029747
X-01473799Y00299244
X-01196702Y0029139
X-01178922Y0029901
X-01168762Y0027234
X-01192891Y0026091
X-01147001Y0023
X-01155132Y0021712
X-01157331Y0015931
X-01139551Y0014026
Y0035362
X-01157331Y0037267
X-00923906Y00377805
X-00906784Y00380518
X-00906783Y00355518
X-00923767Y00348682
X-00921232Y0020395
X-0090931Y00201816
X-00909192Y00175783
X-00927581Y0017347
X-00926311Y0014807
X-00909189Y00150783
X-00909188Y00125783
X-00926172Y00118947
X-00981002Y00228
X-00895188Y0017347
Y0014807
Y0012394
X-00895832Y00100783
X-00839437Y0012074
X-00839951Y0014553
X-00839358Y0017074
X-00804166Y00175783
X-00786611Y0017347
Y0014553
X-0080417Y00150783
X-00804171Y00125783
X-00786611Y0012013
X-00789249Y00201507
X-00804004Y00201994
X-00801766Y00355518
X-00784206Y00349865
Y00375265
X-00801765Y00380518
X-00837546Y00375265
X-00837032Y00350475
X-00892782Y00353675
X-00893426Y00330518
X-00892782Y00377805
X-00535151Y0037667
X-00518029Y00379383
X-00504027Y0037667
Y0035254
X-00518028Y00354383
X-00535012Y00347547
X-00504672Y00329383
X-0051815Y00201816
X-00530071Y0020395
X-00536422Y0017347
X-00518032Y00175783
X-00504027Y0017347
Y0014807
X-00518029Y00150783
X-00535151Y0014807
X-00535012Y00118947
X-00518028Y00125783
X-00504027Y0012394
X-00504672Y00100783
X-00581251Y002455
X-00448198Y0017074
X-00448792Y0014553
X-00448277Y0012074
X-00413011Y00125783
X-00395452Y0012013
Y0014553
X-0041301Y00150783
X-00413006Y00175783
X-00395452Y0017347
X-00398089Y00201507
X-00412844Y00201994
X-00413011Y00354383
X-00395452Y0034873
Y0037413
X-0041301Y00379383
X-00448792Y0037413
X-00448277Y0034934
X-00448198Y0039934
X-00413006Y00404383
X-00395452Y0040207
X-00398089Y00430107
X-00412844Y00430594
X-00412891Y00607503
X-00395331Y0060185
Y0062725
X-0041289Y00632503
X-00412886Y00657503
X-00395331Y0065519
X-00397969Y00683227
X-00412724Y00683714
X-00448078Y0065246
X-00448671Y0062725
X-00448157Y0060246
X-00503908Y0060566
X-00517908Y00607503
X-00534892Y00600667
X-00535032Y0062979
X-00517909Y00632503
X-00503908Y0062979
Y0065519
X-00517912Y00657503
X-00536301Y0065519
X-00529952Y0068567
X-0051803Y00683536
X-00588251Y0070925
X-00504552Y00582503
X-0051815Y00430416
X-00530071Y0043255
X-00536422Y0040207
X-00518032Y00404383
X-00504027Y0040207
X-00588251Y004565
X-00786843Y00431242
X-00801599Y00431729
X-00801761Y00405518
X-00784206Y00403205
X-00836953Y00400475
X-00892782Y00403205
X-00894551Y00582503
X-00893907Y0060566
Y0062979
Y0065519
X-00838078Y0065246
X-00838671Y0062725
X-00838157Y0060246
X-00802891Y00607503
X-00785331Y0060185
Y0062725
X-0080289Y00632503
X-00802887Y00657503
X-00785331Y0065519
X-00787969Y00683227
X-00802724Y00683714
X-0090803Y00683536
X-00919951Y0068567
X-00926301Y0065519
X-00907913Y00657503
X-00907909Y00632503
X-00925032Y0062979
X-00924892Y00600667
X-00907908Y00607503
X-00955751Y007095
X-01168762Y007016
X-01192891Y0069017
X-01196702Y0072065
X-01178922Y0072827
X-01139551Y007747
X-01147001Y0066
X-01155132Y0064638
X-01157331Y0058857
X-01139551Y0056952
X-01178922Y0051237
X-01196702Y0050475
X-01192891Y0047427
X-01168762Y004857
X-01155132Y0043048
X-00976252Y00459
X-00918826Y00433685
X-00906905Y00431551
X-00906787Y00405518
X-00925176Y00403205
X-01426501Y00424
X-01480741Y0078162
Y0079262
X-01491741
Y0078162
X-01502742
Y0079262
X-01157331Y0079375
X-0115534Y00851768
X-01147001Y00865
X-01168762Y0090678
X-01192891Y0089535
X-01196702Y0092583
X-01178922Y0093345
X-00955501Y009405
X-00919951Y0091567
X-0090803Y00913536
X-00907913Y00887503
X-00926301Y0088519
X-00925032Y0085979
X-00907909Y00862503
X-00907908Y00837503
X-00924892Y00830667
X-00893907Y0083566
X-00894551Y00812503
X-00893907Y0085979
Y0088519
X-00838078Y0088246
X-00838671Y0085725
X-00838157Y0083246
X-00802891Y00837503
X-00785331Y0083185
Y0085725
X-0080289Y00862503
X-00802887Y00887503
X-00785331Y0088519
X-00787969Y00913227
X-00802724Y00913714
X-00587252Y0094075
X-00529952Y0091567
X-0051803Y00913536
X-00517912Y00887503
X-00503908Y0088519
Y0085979
X-00517909Y00862503
X-00535032Y0085979
X-00536301Y0088519
X-00534892Y00830667
X-00517908Y00837503
X-00503908Y0083566
X-00504552Y00812503
X-00448157Y0083246
X-00448671Y0085725
X-00448078Y0088246
X-00412886Y00887503
X-00395331Y0088519
Y0085725
X-0041289Y00862503
X-00412891Y00837503
X-00395331Y0083185
X-00397969Y00913227
X-00412724Y00913714
T02
X-01586591Y0020701
X-0151864Y0019372
X-01477372Y0017526
X-01457052Y0019304
X-01413871Y0018034
X-01459592Y0038481
X-0149616Y00390909
X-01496422Y0036449
X-01206861Y0038918
X-01177652Y0039624
X-01156061
X-01143446Y00391291
X-01163681Y0038354
X-01139551Y002921
X-0112908Y00260039
X-01123042Y00254
X-0110622Y00247339
X-01100182Y002413
X-01088752Y0023114
X-01082713Y00225101
X-01069702Y0022225
X-01063663Y00216211
X-01110292Y0022066
Y0020866
X-01110391Y0019656
X-01122392
X-01134292Y0019666
Y0020866
Y0022066
X-01122291
X-01175491Y0022789
X-01194162Y0020884
X-01206861Y002063
Y0017582
X-01178922Y0018288
X-01156061
X-01143446Y00177931
X-01164951Y0017272
X-01145901Y0011684
X-00977112Y0010235
X-00975842Y0006298
X-00977112Y0014553
Y0018744
X-00973436Y00292715
X-00974706Y00332085
Y00375265
X-01270361Y0018923
X-00696277Y00173133
Y00164207
Y00127413
Y00118487
Y00081693
Y00072767
X-00584682Y0006298
X-00585951Y0010235
Y0014553
Y0018744
X-00584682Y0029158
X-00585951Y0033095
X-00612501Y00316055
Y00307515
Y0034881
Y0035735
Y00391335
X-00585951Y0037413
X-00693737Y00357148
Y00348222
Y00311428
Y00302502
X-00696277Y00218853
Y00209927
X-00693737Y00393942
X-00297497Y00392807
X-00294043Y00305759
X-00300082Y0029972
X-00065132Y0012164
X-00297497Y00401733
X-00274637Y00784487
Y00793413
X-00584562Y007747
X-00585831Y0066916
X-00611231Y00652995
Y00644455
X-00612501Y0061047
Y0060193
Y00569175
Y00560635
X-00584562Y005447
X-00585831Y0058407
Y0062725
X-00612501Y0068456
Y006931
X-00695007Y00691647
Y00700573
X-00693737Y00654853
Y00645927
Y00609133
Y00600207
Y00563413
Y00554487
Y00448588
Y00439662
Y00402868
X-00612501Y00399875
X-00613772Y0043144
Y0043998
X-00585951Y0041604
X-00696277Y00784487
Y00793413
X-00974561Y007747
X-00975832Y0066916
Y0062725
Y0058407
X-00974561Y005447
X-00974706Y00417175
X-01110292Y0042202
Y0043402
X-01122291
X-01134292
Y0042202
Y0041002
X-01122392Y0040992
X-01110391
X-01147001Y00445
X-01175491Y0044125
X-01194162Y004222
X-01206861Y0041966
X-01143362Y0051308
X-01143446Y00607191
X-01154791Y0061214
X-01164951Y0060071
X-01177652Y0061214
X-01206861Y0060508
Y0063556
X-01194162Y006381
X-01175491Y0065715
X-01134292Y0064992
Y0063792
Y0062592
X-01122392Y0062582
X-01110391
X-01110292Y0063792
Y0064992
X-01122291
X-01145901Y0072898
X-01134472Y0076708
X-0111003Y00755961
X-01103991Y00762
X-0110368Y00773741
X-01097642Y0077978
X-01270361
X-01277981Y0076962
X-01290681
X-01333862Y0077216
Y0075946
X-01349102
X-01364341
Y0077216
X-01389742Y0077762
X-0150353Y00747396
X-01488802Y007239
X-01558651Y007112
X-01629772Y0072644
X-01537061Y0057658
X-01543412Y0055753
X-01536391Y0053273
X-01523091Y0052451
X-01529442Y0049911
X-01518011Y0048641
X-01533251Y0044577
X-01474832
X-01447941Y0043561
X-01416411Y0044577
X-01413871Y0049911
X-01415141Y00508
X-01418952Y0052959
X-01426572Y005588
X-01420222Y0057658
X-01402442Y0056642
X-01461914Y00567026
X-01478642Y0057658
X-01484991Y0055753
X-01477372Y0052959
X-01469751Y0051308
X-01472292Y0049911
X-01458322Y0048641
X-01399901
X-01520334Y00567026
X-01430381Y0081026
X-01313542Y0083566
X-01300842
Y008509
Y0086614
X-01313542
X-01290681Y008763
X-01277981
X-01270361Y0088646
Y009017
X-01277981Y0091186
X-01290681
Y0080518
X-01277981
X-01270361Y0079502
X-01206861Y0081026
Y0084074
X-01194162Y0084328
X-01175491Y0086233
X-01173841Y0081788
X-01154902Y0081799
X-01143809Y00812117
X-01163681Y0080645
X-01134292Y008311
Y008431
Y008551
X-01122291
X-01110292
Y008431
X-01110391Y00831
X-01122392
X-01073823Y00821379
X-01079862Y0081534
X-01059541Y0081788
X-01053503Y00823919
X-00975832Y0081407
Y0085725
Y0089916
X-00695007Y00884853
Y00875927
X-00696277Y00839133
Y00830207
X-00695004Y00921579
Y00930641
X-00585831Y0089916
Y0085725
Y0081407
X-00282302Y0086614
X-00276263Y00872179
T03
X-01566561Y00271162
X-01553862
X-01541161
X-01528461
X-01515762
X-01503062
X-01490361
X-01477661
Y00283862
X-01490361
X-01503062
X-01515762
X-01528461
X-01541161
X-01553862
X-01566561
T04
X-01122291Y0020866
Y0042202
Y0063792
Y008431
T05
X-01478741Y0092212
X-01453741
X-01395741Y0090162
Y0087662
T06
X-00232407Y0025334
Y0027874
Y0030414
Y0032954
X-00207008Y0031684
Y0029144
Y0026604
Y0024064
X-00166621Y0025334
Y0027874
Y0030414
Y0032954
X-00141222Y0031684
Y0029144
Y0026604
Y0024064
Y0038034
X-00166621Y0039304
X-00207008Y0038034
X-00232407Y0039304
Y0041844
Y0044384
Y0046924
X-00207008Y0045654
Y0043114
Y0040574
X-00166621Y0041844
Y0044384
Y0046924
X-00141222Y0045654
Y0043114
Y0040574
Y0052004
Y0054544
Y0057084
Y0059624
X-00166621Y0060894
Y0058354
Y0055814
Y0053274
X-00207008Y0052004
Y0054544
Y0057084
Y0059624
X-00232407Y0058354
Y0055814
Y0053274
Y0060894
Y0067244
Y0069784
Y0072324
Y0074864
X-00207008Y0073594
Y0071054
Y0068514
Y0065974
X-00166621Y0067244
Y0069784
Y0072324
Y0074864
X-00141222Y0073594
Y0071054
Y0068514
Y0065974
T07
X-01604442Y0083042
Y0085582
X-01579041
Y0083042
T08
X-00232407Y002
X-00169161Y00206604
X-00032002Y002
Y0078928
X-00136396Y00776072
X-00191514Y0078928
T09
X-01620882Y0018288
X-01438002Y0011938
X-01384662Y0014986
X-01361801Y0019812
X-01288141Y0033782
X-01445621Y004572
X-01491342Y004318
X-01547222
X-01600562Y007747
X-01321161Y007239
X-01384742Y0082912
X-01565741Y0094512
X-01280522Y0095504
T10
X-01695002Y0006
X-01695Y0094
T11
X-00077722Y0022794
Y0076134
M30
