M48
;Layer_Color=9474304
;FILE_FORMAT=4:4
METRIC,LZ
;TYPE=PLATED
T1F00S00C0.3000
T2F00S00C0.5000
T3F00S00C0.5600
T4F00S00C0.7000
T5F00S00C0.8000
T6F00S00C0.8890
T7F00S00C1.5748
T8F00S00C3.2766
%
T01
X00511Y-0095691
X005465Y-0094861
X00548Y-0096561
X0057275Y-0095571
X005794Y-0092721
X005479Y-0091411
X005468Y-0089461
X005645Y-0089741
X005643Y-0087101
X005138Y-0087721
X00511Y-0090591
X006191Y-0089371
X006515Y-0089881
X006493Y-0087421
X007119Y-0088101
X0069685Y-0089761
X00697Y-0090566
X0069685Y-0091461
Y-0094861
Y-0096561
X0060382Y-0097851
X00763975Y-00962035
Y-00952035
X00763975Y-00910435
Y-00900435
X00952Y-0090591
X009548Y-0087721
X009878Y-0089461
X010055Y-0089741
X010053Y-0087101
X009889Y-0091411
X009875Y-0094861
X00989Y-0096561
X0101375Y-0095571
X010204Y-0092721
X010601Y-0089371
X010925Y-0089881
X010903Y-0087421
X0104482Y-0097851
X00952Y-0095691
X0113785Y-0094861
Y-0096561
Y-0091461
X01138Y-0090566
X0113785Y-0089761
X011529Y-0088101
X01204975Y-00900435
Y-00910435
X01204975Y-00952035
Y-00962035
X01204975Y-00859435
Y-00849435
X012048Y-0080761
Y-0079761
X01204975Y-00754035
Y-00744035
X01204975Y-00702435
Y-00692435
Y-00651435
Y-00641435
X012048Y-0059961
Y-0058961
X011767Y-0062076
X0113785Y-00603809
Y-00586811
Y-0063861
X011382Y-0064706
X0113785Y-0065531
X011529Y-0067301
X0113785Y-0068961
X01138Y-0069766
X0113785Y-0070661
Y-0074061
Y-0075761
Y-00794811
Y-00811809
Y-0084661
X011382Y-0085506
X0113785Y-0086331
X011767Y-0082876
X010894Y-0084951
X010601Y-0084251
Y-0086721
X010754Y-0081671
X0104482Y-0077051
X010204Y-0078291
X00990501Y-00794811
X00990299Y-00811809
X009903Y-0084301
X010059Y-0084541
X009908Y-0086161
X00952Y-0085481
Y-0080291
Y-0074891
X009875Y-0074061
X00989Y-0075761
X0101375Y-0074771
X010204Y-0071921
X009889Y-0070611
X009878Y-0068661
X010055Y-0068941
X010053Y-0066301
X009908Y-0065361
X009903Y-0063501
X010059Y-0063741
X00990299Y-00603809
X00990501Y-00586811
X010204Y-0057491
X00952Y-0059491
Y-0064681
X009548Y-0066921
X00952Y-0069791
X010601Y-0068571
Y-0065921
Y-0063451
X010894Y-0064151
X010903Y-0066621
X010925Y-0069081
X010754Y-0060871
X008882Y-005176
X008772
X008704Y-005266
X008594
X008507Y-005395
X008397
X00835Y-0055
X00824
X007638Y-0058961
Y-0059961
X00763975Y-00641435
Y-00651435
Y-00692435
Y-00702435
X00763975Y-00744035
Y-00754035
X007638Y-0079761
Y-0080761
X00763975Y-00849435
Y-00859435
X007357Y-0082876
Y-0062076
X008594Y-0047352
X008704
X008772Y-0048252
X008882
X0069685Y-00586811
Y-00603809
Y-0063861
X006972Y-0064706
X0069685Y-0065531
X007119Y-0067301
X0069685Y-0068961
X00697Y-0069766
X0069685Y-0070661
Y-0074061
Y-0075761
Y-00794811
Y-00811809
Y-0084661
X006972Y-0085506
X0069685Y-0086331
X006484Y-0084951
X006191Y-0084251
Y-0086721
X006344Y-0081671
X0060382Y-0077051
X005794Y-0078291
X00549501Y-00794811
X00549299Y-00811809
X005493Y-0084301
X005649Y-0084541
X005498Y-0086161
X00511Y-0085481
Y-0080291
Y-0074891
X005465Y-0074061
X00548Y-0075761
X0057275Y-0074771
X005794Y-0071921
X005479Y-0070611
X005468Y-0068661
X005645Y-0068941
X005643Y-0066301
X005498Y-0065361
X005493Y-0063501
X005649Y-0063741
X00549299Y-00603809
X00549501Y-00586811
X005794Y-0057491
X00511Y-0059491
Y-0064681
X005138Y-0066921
X00511Y-0069791
X006191Y-0068571
Y-0065921
Y-0063451
X006484Y-0064151
X006493Y-0066621
X006515Y-0069081
X006344Y-0060871
X0060382Y-0042651
X0057275Y-0040371
X005465Y-0039661
X00548Y-0041361
X00511Y-0040491
Y-0035391
X005138Y-0032521
X00511Y-0030281
X005498Y-0030961
X005493Y-0029101
X005649Y-0029341
X005643Y-0031901
X005645Y-0034541
X005468Y-0034261
X005479Y-0036211
X005794Y-0037521
X006191Y-0034171
Y-0031521
Y-0029051
X006484Y-0029751
X006493Y-0032221
X006515Y-0034681
X0069685Y-0034561
X00697Y-0035366
X0069685Y-0036261
Y-0039661
Y-0041361
X007119Y-0032901
X0069685Y-0031131
X006972Y-0030306
X0069685Y-0029461
Y-00259809
Y-00242811
Y-0020561
Y-0018861
Y-0015461
X00697Y-0014566
X0069685Y-0013761
X007119Y-0012101
X0069685Y-0010331
X006972Y-0009506
X0069685Y-0008661
X006484Y-0008951
X006493Y-0011421
X006515Y-0013881
X006191Y-0013371
Y-0010721
Y-0008251
X005649Y-0008541
X005493Y-0008301
X005498Y-0010161
X005643Y-0011101
X005645Y-0013741
X005468Y-0013461
X005479Y-0015411
X005465Y-0018861
X00548Y-0020561
X0057275Y-0019571
X005794Y-0016721
X005794Y-0023091
X0060382Y-0021851
X006344Y-0026471
X00549299Y-00259809
X00549501Y-00242811
X00511Y-0025091
Y-0019691
Y-0014591
X005138Y-0011721
X00511Y-0009481
X00763975Y-00099435
Y-00089435
Y-00140435
Y-00150435
X00763975Y-00192035
Y-00202035
X007638Y-0024561
Y-0025561
X00763975Y-00297435
Y-00307435
Y-00348435
Y-00358435
X00763975Y-00400035
Y-00410035
X00824Y-0045012
X00835
X008397Y-0046062
X008507
X00952Y-0040491
X009875Y-0039661
X00989Y-0041361
X0101375Y-0040371
X010204Y-0037521
X009889Y-0036211
X009878Y-0034261
X010055Y-0034541
X010053Y-0031901
X009908Y-0030961
X009903Y-0029101
X010059Y-0029341
X00990299Y-00259809
X00990501Y-00242811
X00989Y-0020561
X009875Y-0018861
X0101375Y-0019571
X010204Y-0016721
X009889Y-0015411
X009878Y-0013461
X010055Y-0013741
X010053Y-0011101
X009908Y-0010161
X009903Y-0008301
X010059Y-0008541
X010601Y-0008251
Y-0010721
Y-0013371
X010925Y-0013881
X010903Y-0011421
X010894Y-0008951
X00952Y-0009481
X009548Y-0011721
X00952Y-0014591
Y-0019691
Y-0025091
Y-0030281
X009548Y-0032521
X00952Y-0035391
X010601Y-0034171
Y-0031521
Y-0029051
X010894Y-0029751
X010903Y-0032221
X010925Y-0034681
X010754Y-0026471
X0104482Y-0021851
X010204Y-0023091
X0104482Y-0042651
X007357Y-0027676
X0113785Y-00259809
Y-00242811
Y-0020561
Y-0018861
Y-0015461
X01138Y-0014566
X0113785Y-0013761
X011529Y-0012101
X0113785Y-0010331
X011382Y-0009506
X0113785Y-0008661
X01204975Y-00089435
Y-00099435
Y-00140435
Y-00150435
X01204975Y-00192035
Y-00202035
X012048Y-0024561
Y-0025561
X01204975Y-00297435
Y-00307435
Y-00348435
Y-00358435
X01204975Y-00400035
Y-00410035
X0113785Y-0041361
Y-0039661
Y-0036261
X01138Y-0035366
X0113785Y-0034561
X011529Y-0032901
X0113785Y-0031131
X011382Y-0030306
X0113785Y-0029461
X011767Y-0027676
Y-0006876
X012048Y-0004761
Y-0003761
X0113785Y-00034811
Y-00051809
X010754Y-0005671
X010204Y-0002291
X00990501Y-00034811
X00990299Y-00051809
X00952Y-0004291
X007638Y-0004761
Y-0003761
X007357Y-0006876
X0069685Y-00051809
Y-00034811
X006344Y-0005671
X005794Y-0002291
X00549501Y-00034811
X00549299Y-00051809
X00511Y-0004291
T02
X005959Y-0089451
Y-0086941
X010369
Y-0089451
Y-0084451
X010204Y-0081901
X010369Y-0068651
Y-0066141
Y-0063651
X010204Y-0061101
X005794
X005959Y-0063651
Y-0066141
Y-0068651
X005794Y-0081901
X005959Y-0084451
Y-0034251
Y-0031741
Y-0029251
X005794Y-0026701
X005959Y-0013451
Y-0010941
Y-0008451
X010369
Y-0010941
Y-0013451
X010204Y-0026701
X010369Y-0029251
Y-0031741
Y-0034251
X010204Y-0005901
X005794
T03
X0026215Y-0081115
Y-0079845
Y-0078575
Y-0077305
Y-0076035
Y-0074765
Y-0073495
Y-0072225
Y-0070955
Y-0069685
Y-0068415
Y-0067145
Y-0065875
Y-0064605
Y-0063335
Y-0062065
Y-0060795
Y-0059525
Y-0058255
Y-0056985
Y-0055715
Y-0054445
Y-0053175
Y-0051905
Y-0050635
Y-0049365
Y-0048095
X0028755
Y-0049365
Y-0050635
Y-0051905
Y-0053175
Y-0054445
Y-0055715
Y-0056985
Y-0058255
Y-0059525
Y-0060795
Y-0062065
Y-0063335
Y-0064605
Y-0065875
Y-0067145
Y-0068415
Y-0069685
Y-0070955
Y-0072225
Y-0073495
Y-0074765
Y-0076035
Y-0077305
Y-0078575
Y-0079845
Y-0081115
Y-0046825
Y-0045555
Y-0044285
Y-0043015
Y-0041745
Y-0040475
Y-0039205
Y-0037935
Y-0036665
Y-0035395
Y-0034125
Y-0032855
Y-0031585
Y-0030315
Y-0029045
Y-0027775
Y-0026505
Y-0025235
Y-0023965
Y-0022695
Y-0021425
Y-0020155
Y-0018885
X0026215
Y-0020155
Y-0021425
Y-0022695
Y-0023965
Y-0025235
Y-0026505
Y-0027775
Y-0029045
Y-0030315
Y-0031585
Y-0032855
Y-0034125
Y-0035395
Y-0036665
Y-0037935
Y-0039205
Y-0040475
Y-0041745
Y-0043015
Y-0044285
Y-0045555
Y-0046825
T04
X000772Y-009469
X000562Y-008613
X000564Y-006391
Y-0060965
Y-005802
T05
X001105Y-005032
X001359
X001613
T06
X01269003Y-007413
Y-007159
Y-006905
Y-006651
X01294402Y-006778
Y-007032
Y-007286
Y-00754
X01334789Y-007413
Y-007159
Y-006905
Y-006651
X01360188Y-006778
Y-007032
Y-007286
Y-00754
Y-006143
Y-005889
Y-005635
Y-005381
X01334789Y-005254
Y-005508
Y-005762
Y-006016
X01294402Y-006143
Y-005889
Y-005635
Y-005381
X01269003Y-005508
Y-005762
Y-006016
Y-005254
X01294402Y-004746
X01360188
Y-004492
Y-004238
Y-003984
X01334789Y-003857
Y-004111
Y-004365
Y-004619
X01294402Y-004492
Y-004238
Y-003984
X01269003Y-004111
Y-004365
Y-004619
Y-003857
Y-003222
Y-002968
Y-002714
Y-00246
X01294402Y-002587
Y-002841
Y-003095
Y-003349
X01334789Y-003222
Y-002968
Y-002714
Y-00246
X01360188Y-002587
Y-002841
Y-003095
Y-003349
T07
X01269003Y-0079464
X01332249Y-00788036
X01469409Y-0079464
Y-0020536
X01365014Y-00218568
X01309897Y-0020536
T08
X01423689Y-007667
Y-002333
M30
