M48
;Layer_Color=9474304
;FILE_FORMAT=2:5
INCH,TZ
;TYPE=PLATED
T1F00S00C0.00787
T2F00S00C0.01181
T3F00S00C0.02559
T4F00S00C0.02756
T5F00S00C0.03150
T6F00S00C0.03543
T7F00S00C0.03543
T8F00S00C0.04000
T9F00S00C0.06299
T10F00S00C0.06299
;TYPE=NON_PLATED
T11F00S00C0.11811
T12F00S00C0.12598
%
T01
X-621642Y61000
X-621544Y71357
X-606694Y68110
X-606406Y80931
X-601743Y86899
X-599521Y102000
X-609164Y101187
X-619000Y101000
X-595909Y116091
X-583500Y117114
X-580236Y117813
X-471142Y114720
X-464142Y117720
X-460142Y107220
X-469642Y102720
X-447040Y99960
X-449000Y98000
X-451575Y90551
X-454776Y85480
X-455642Y62721
X-448642Y55221
X-438570Y96930
X-436608Y98887
X-424515Y87015
X-422540Y88960
X-418998Y82502
X-420958Y80542
X-394000Y80004
X-396813Y84475
X-386221Y89764
X-395818Y69182
X-393500Y64214
X-397000Y51944
X-394000Y47472
X-398000Y35686
X-394500Y31214
X-364635Y46830
X-357948Y49521
X-357948Y59363
X-364690Y58295
X-365190Y68295
X-357950Y69206
X-357996Y79455
X-362690Y80295
X-363630Y137034
X-356943Y139726
X-356944Y149568
X-363685Y148500
X-393000Y154419
X-397318Y142182
X-394000Y137677
X-399026Y125891
X-395000Y121419
X-448642Y139220
X-455642Y146721
X-351431Y148500
Y139000
X-352000Y129500
X-330000Y137500
X-330500Y147500
X-315598Y149568
X-308685Y147500
Y137500
X-315598Y139726
X-270499Y143000
X-271052Y126133
X-239021Y124224
Y121276
X-239000Y137622
Y140394
X-239411Y154326
X-210690Y148295
X-203948Y149363
X-198436Y148295
Y138795
X-203948Y139521
X-210635Y136829
X-198690Y129678
X-203996Y79455
X-208690Y80295
X-211190Y68295
X-203950Y69206
X-198436Y68295
Y58295
X-203948Y59363
X-210690Y58295
X-210635Y46830
X-203948Y49521
X-198436Y48795
X-198690Y39678
X-239500Y34286
X-243666Y29814
X-245815Y46072
X-242000Y50544
X-244500Y67286
X-249500Y62814
X-244790Y76548
X-239500Y81314
X-228839Y96653
X-273000Y79000
Y72000
X-272728Y54000
X-271000Y35000
X-309690Y47295
X-316603Y49521
X-316602Y59363
X-309690Y57295
Y68295
X-316601Y69206
X-316537Y79525
X-310728Y79334
X-330456Y67220
X-330690Y57295
X-330487Y47535
X-352436Y48795
X-352690Y39678
X-352436Y58295
Y68295
X-176456Y67220
X-176690Y57295
X-176487Y47535
X-162603Y49521
X-155690Y47295
Y57295
X-162602Y59363
X-162601Y69206
X-155690Y68295
X-156728Y79334
X-162537Y79525
X-139000Y96586
X-132000Y97000
X-118127Y71127
X-120000Y68000
Y50000
X-116000Y53000
Y35000
X-120000Y31986
X-115000Y125000
X-117000Y142041
X-120000Y140000
X-155690Y137295
X-162603Y139521
X-162602Y149363
X-155690Y147295
X-176690
X-176487Y137535
X-176456Y157220
X-162601Y159206
X-155690Y158295
X-156728Y169334
X-162537Y169525
X-120000Y176000
X-117000Y178000
X-115736Y163000
X-117758Y218758
X-125144Y221655
X-116779Y235736
X-120000Y240000
X-115993Y253993
X-121000Y257595
X-127264Y275595
X-115125Y284125
X-112000Y306000
X-156681Y268987
X-162490Y269179
X-162554Y258859
X-155642Y257949
Y246949
X-162555Y249017
X-162556Y239174
X-155642Y236949
X-176440Y237189
X-176642Y246949
X-176409Y256874
X-198389Y257949
X-203903Y258859
X-211142Y257949
X-210642Y247949
X-203901Y249017
X-198389Y247949
Y238449
X-203901Y239174
X-210588Y236483
X-198642Y229332
X-203949Y269109
X-208642Y269949
X-240000Y269807
Y272579
X-231595Y279232
X-240000Y256789
Y254018
Y240047
Y237276
X-239920Y223789
Y221018
X-270000Y211000
Y242000
Y260000
X-271377Y267622
X-271000Y302000
X-310224Y268987
X-316033Y269179
X-316097Y258859
X-309186Y257949
Y246949
X-316098Y249017
X-316099Y239174
X-309186Y236949
X-329983Y237189
X-330186Y246949
X-329952Y256874
X-351932Y257949
Y247949
Y238449
X-352186Y229332
X-351431Y158500
X-330500Y158000
X-315596Y159411
X-308685Y158500
X-309723Y169538
X-315532Y169730
X-270000Y167000
X-272000Y180000
X-239500Y172925
Y170154
X-239411Y157174
X-211190Y158295
X-203950Y159206
X-198436Y158295
X-203996Y169455
X-208690Y170295
X-231595Y179724
X-356991Y169660
X-361685Y170500
X-364185Y158500
X-356945Y159411
X-375681Y180276
X-393000Y170208
X-397500Y174680
X-397000Y158890
X-394500Y221000
X-399000Y225736
X-398500Y234764
X-396000Y239236
X-399056Y251754
X-395025Y256226
X-399000Y267164
X-394461Y271857
X-376280Y279331
X-362186Y269949
X-357492Y269109
X-357446Y258859
X-364686Y257949
X-364186Y247949
X-357445Y249017
X-357444Y239174
X-364131Y236483
X-455642Y231720
X-448642Y224220
X-454776Y254480
X-451575Y259842
X-460142Y276220
X-469642Y271721
X-471142Y283720
X-464142Y286720
X-448642Y305000
X-430885Y311761
X-399420Y309264
X-464142Y201720
X-471142Y198721
X-469642Y186721
X-460142Y191220
X-454776Y169480
X-561615Y166929
X-582969Y307724
X-587300
X-591631
Y312055
X-587300
X-582969
X-455642Y312500
X-454858Y335342
X-451575Y340551
X-460142Y357000
X-469642Y352500
X-471142Y364500
X-464142Y367500
X-394500Y362236
X-396554Y357764
X-394000Y346736
X-396574Y342264
X-395000Y329881
X-396574Y325264
X-396500Y314000
X-431548Y314452
X-428040Y319040
X-430000Y321746
X-422770Y324310
X-424730Y326270
X-421040Y331040
X-423000Y333000
X-364186Y338500
X-357445Y339568
X-357444Y329726
X-364131Y327034
X-364686Y348500
X-357446Y349411
X-357492Y359660
X-362186Y360500
X-376182Y370276
X-351932Y348500
Y338500
Y329000
X-352186Y319883
X-329983Y327740
X-330186Y337500
X-329952Y347425
X-316097Y349411
X-309186Y348500
Y337500
X-316098Y339568
X-316099Y329726
X-309186Y327500
X-310224Y359538
X-316033Y359730
X-271778Y352000
X-271000Y333000
X-245131Y327369
X-241355Y329917
X-245179Y314821
X-250091Y313409
X-244081Y346919
X-237919Y347081
X-238179Y361821
X-243841Y361159
X-260152Y363848
X-231201Y370374
X-208642Y360500
X-203949Y359660
X-203903Y349411
X-198389Y348500
Y338500
X-203901Y339568
X-210642Y338500
X-211142Y348500
X-210588Y327034
X-203901Y329726
X-198389Y329000
X-198642Y319883
X-176440Y327740
X-176642Y337500
X-176409Y347425
X-162554Y349411
X-155642Y348500
Y337500
X-162555Y339568
X-162556Y329726
X-155642Y327500
X-156681Y359538
X-162490Y359730
X-121000Y366146
X-112633Y367367
X-115000Y351000
X-116000Y332264
X-121000Y330146
T02
X-624642Y81500
X-597890Y76268
X-581642Y69000
X-573642Y76000
X-556642Y71000
X-574642Y151500
X-589039Y153901
X-589142Y143500
X-475142Y153220
X-463642Y156000
X-455142
X-450176Y154052
X-458142Y151000
X-448642Y115000
X-446571Y86874
X-441847
X-437123
Y82150
X-437162Y77386
X-441886
X-446571Y77425
Y82150
X-450176Y70052
X-455142Y72000
X-458642Y68000
X-464142Y72000
X-475142Y69221
Y81221
X-470142Y82221
X-462792Y89720
X-500142Y74500
X-451142Y46000
X-384690Y40295
X-384190Y24795
X-384690Y57295
Y73795
X-383185Y115000
X-383685Y130500
Y147500
X-273624Y140367
Y136853
Y122367
Y118853
X-274125Y86163
Y82648
Y68163
Y64648
Y50163
Y46648
Y32163
Y28648
X-230190Y24795
X-230690Y40295
Y57295
Y73795
X-230190Y114795
X-230690Y130295
Y147295
X-273124Y154853
X-117125Y154648
X-115765Y120377
X-118142Y118000
X-25642Y47890
X-117125Y158163
X-108125Y308853
Y312367
X-230142Y305000
X-230642Y263449
Y246949
Y229949
X-230142Y214449
X-271634Y217850
X-273000Y222004
X-273125Y236302
Y239816
Y254302
Y257816
X-273625Y272302
Y275816
X-274125Y308853
Y312367
X-273123Y176394
Y172826
X-273124Y158367
X-230690Y163795
X-383685Y164000
X-383686Y214449
X-384186Y229949
Y246949
Y263449
X-383686Y305000
X-446642Y302000
X-451142Y287000
X-446571Y255874
X-441847
X-437123
Y251150
X-437162Y246386
X-441886
X-446571Y246425
Y251150
X-450176Y239052
X-454642Y241000
X-458642Y236500
X-463642Y241000
X-475142Y238221
Y250220
X-470142Y251220
X-462792Y258720
X-450142Y202000
X-451575Y175197
X-446571Y170874
X-441847
X-437123
Y166150
X-437162Y161386
X-441886
X-446571Y161425
Y166150
X-470142Y166220
X-475142Y165220
X-462792Y173721
X-503142Y303000
X-508142
X-500142Y307000
X-525142Y304000
Y299000
X-531142
X-537142
Y304000
X-547142Y306150
X-591941Y294250
X-586142Y285000
X-613642Y280000
X-641642Y286000
X-605142Y227000
X-607642Y219500
X-604879Y209736
X-599642Y206500
X-602142Y196500
X-597642Y191500
X-603642Y175500
X-580642
X-570056Y171500
X-557642Y175500
X-556642Y196500
X-557142Y200000
X-558642Y208500
X-561642Y220000
X-559142Y227000
X-552142Y223000
X-575557Y223239
X-582142Y227000
X-584642Y219500
X-581642Y208500
X-578642Y202000
X-579642Y196500
X-574142Y191500
X-551142
X-598557Y223239
X-563142Y319000
X-517142Y329000
X-512142
Y335000
Y341000
X-517142
X-508142Y345000
X-503142
X-500142Y349000
Y355000
X-503142Y359000
X-508142
Y317000
X-503142
X-500142Y313000
X-475142Y319000
Y331000
X-470142Y332000
X-462792Y339500
X-462142Y322000
X-454686Y322043
X-450318Y319731
X-458142Y317500
X-446571Y327205
Y331929
Y336653
X-441847
X-437123
Y331929
X-437162Y327165
X-441886
X-384186Y320500
Y337500
Y354000
X-273625Y348367
Y344853
X-274125Y330367
Y326853
X-273623Y362826
Y366394
X-230642Y354000
Y337500
Y320500
X-111142Y341000
X-108765Y343377
T03
X-616756Y106757
Y111757
X-611757
Y106757
X-606756
Y111757
X-601756
Y106757
X-596757
Y111757
X-591756
Y106757
X-586757
Y111757
X-581756
Y106757
T04
X-441847Y82150
Y166150
Y251150
Y331929
T05
X-582182Y363039
X-572339
X-549505Y354969
Y345126
T06
X-91499Y99740
Y109740
Y119740
Y129740
X-81499Y124740
Y114740
Y104740
Y94740
X-65599Y99740
Y109740
Y119740
Y129740
X-55599Y124740
Y114740
Y104740
Y94740
Y149740
X-65599Y154740
X-81499Y149740
X-91499Y154740
Y164740
Y174740
Y184740
X-81499Y179740
Y169740
Y159740
X-65599Y164740
Y174740
Y184740
X-55599Y179740
Y169740
Y159740
Y204740
Y214740
Y224740
Y234740
X-65599Y229740
Y219740
Y209740
X-81499Y214740
Y224740
Y234740
X-91499Y239740
Y229740
Y219740
Y209740
X-81499Y204740
X-65599Y239740
Y264740
Y274740
Y284740
Y294740
X-55599Y289740
Y279740
Y269740
Y259740
X-81499
Y269740
Y279740
Y289740
X-91499Y294740
Y284740
Y274740
Y264740
T07
X-377043Y24000
X-367042
X-366542Y114000
X-376542
X-307999Y115500
X-297999
X-223500Y114000
X-213500
Y24000
X-223500
X-298500Y26000
X-308500
X-155500
X-145500
Y115500
X-155500
Y215500
X-145500
Y305500
X-155500
X-213500Y304000
X-223500
X-298500Y305500
X-308500
Y215500
X-298500
X-223500Y213500
X-213500
X-367042
X-377043
Y304000
X-367042
T08
X-631670Y326937
Y336937
X-621670
Y326937
T09
X-91499Y78740
X-66599Y81340
X-12599Y78740
Y310740
X-53699Y305540
X-75399Y310740
T10
X-638142Y72000
X-566142Y47000
X-545142Y59000
X-536142Y78000
X-507142Y133000
X-569142Y180000
X-587142Y170000
X-609142
X-630142Y305000
X-520142Y285000
X-545174Y326425
X-616434Y372094
X-504142Y376000
X-466000Y383000
T11
X-652087Y21850
Y371850
T12
X-30599Y89740
Y299740
M30
