G04*
G04 #@! TF.GenerationSoftware,Altium Limited,Altium Designer,20.2.3 (150)*
G04*
G04 Layer_Physical_Order=4*
G04 Layer_Color=6736896*
%FSLAX25Y25*%
%MOIN*%
G70*
G04*
G04 #@! TF.SameCoordinates,C059EDD3-54C5-4BBD-8A84-877B5FEAF66B*
G04*
G04*
G04 #@! TF.FilePolarity,Positive*
G04*
G01*
G75*
%ADD20C,0.01000*%
%ADD24C,0.02000*%
%ADD77C,0.00700*%
%ADD78C,0.01400*%
%ADD83C,0.03543*%
%ADD84C,0.05906*%
%ADD89C,0.02362*%
%ADD91C,0.01772*%
D20*
X-519607Y93232D02*
Y94000D01*
X-517571D01*
Y96000D01*
X-519607D02*
X-517571D01*
X-519607D02*
Y98000D01*
X-517571D01*
Y100000D01*
X-519607D02*
X-517571D01*
X-519607D02*
Y102000D01*
X-517571D01*
Y104000D01*
X-519607D02*
X-517571D01*
X-519607D02*
Y106000D01*
X-517571D01*
Y108000D01*
X-519607D02*
X-517571D01*
X-519607D02*
Y110000D01*
X-517571D01*
Y112000D01*
X-521565D02*
X-517571D01*
X-521565D02*
Y114000D01*
X-517571D01*
Y116000D01*
X-521642D02*
X-517571D01*
X-521642D02*
Y118000D01*
X-517571D01*
Y120000D01*
X-521642D02*
X-517571D01*
X-521642D02*
Y122000D01*
X-517571D01*
Y124000D01*
X-521642D02*
X-517571D01*
X-521642D02*
Y126000D01*
X-517571D01*
Y128000D01*
X-521642D02*
X-517571D01*
X-521642D02*
Y130000D01*
X-517571D01*
Y132000D01*
X-521642D02*
X-517571D01*
X-521642D02*
Y134000D01*
X-517571D01*
Y136000D01*
X-521642D02*
X-517571D01*
X-521642D02*
Y138000D01*
X-517571D01*
Y140000D01*
X-521642D02*
X-517571D01*
X-521642D02*
Y142000D01*
X-517571D01*
Y144000D01*
X-521642D02*
X-517571D01*
X-521642D02*
Y146000D01*
X-517571D01*
Y148000D01*
X-521642D02*
X-517571D01*
X-521642D02*
Y150000D01*
X-517571D01*
Y152000D01*
X-521642D02*
X-517571D01*
X-521642D02*
Y154000D01*
X-517571D01*
Y156000D01*
X-521642D02*
X-517571D01*
X-521642D02*
Y158000D01*
X-517571D01*
Y160000D01*
X-521642D02*
X-517571D01*
X-521642D02*
Y162000D01*
X-517571D01*
Y164000D01*
X-521642D02*
X-517571D01*
X-521642D02*
Y166000D01*
X-517571D01*
Y168000D01*
X-521642D02*
X-517571D01*
X-521642D02*
Y170000D01*
X-517571D01*
Y172000D01*
X-521642D02*
X-517571D01*
X-521642D02*
Y174000D01*
X-517571D01*
Y176000D01*
X-519607D02*
X-517571D01*
X-519607D02*
Y176500D01*
Y88964D02*
Y93232D01*
X-523142Y88500D02*
Y90293D01*
X-528142D02*
X-523142D01*
X-528142D02*
Y92293D01*
X-521107D01*
Y94293D01*
X-528142D02*
X-521107D01*
X-528142D02*
Y96293D01*
X-521107D01*
Y98293D01*
X-528142D02*
X-521107D01*
X-528142D02*
Y100293D01*
X-521107D01*
Y102293D01*
X-528142D02*
X-521107D01*
X-528142D02*
Y104293D01*
X-521107D01*
Y106293D01*
X-528142D02*
X-521107D01*
X-528142D02*
Y108293D01*
X-521107D01*
Y110293D01*
X-528142D02*
X-521107D01*
X-528142D02*
Y112293D01*
X-523066D01*
Y114293D01*
X-528142D02*
X-523066D01*
X-528142D02*
Y116293D01*
X-523142D01*
Y118293D01*
X-528142D02*
X-523142D01*
X-528142D02*
Y120293D01*
X-523142D01*
Y122293D01*
X-528142D02*
X-523142D01*
X-528142D02*
Y124293D01*
X-523142D01*
Y126293D01*
X-528142D02*
X-523142D01*
X-528142D02*
Y128293D01*
X-523142D01*
Y130293D01*
X-528142D02*
X-523142D01*
X-528142D02*
Y132293D01*
X-523142D01*
Y134293D01*
X-528142D02*
X-523142D01*
X-528142D02*
Y136293D01*
X-523142D01*
Y138293D01*
X-528142D02*
X-523142D01*
X-528142D02*
Y140293D01*
X-523142D01*
Y142293D01*
X-528142D02*
X-523142D01*
X-528142D02*
Y144293D01*
X-523142D01*
Y146793D01*
Y178500D01*
X-484975Y155333D02*
X-483571Y153929D01*
X-484975Y155333D02*
X-483536Y156772D01*
X-484950Y158186D02*
X-483536Y156772D01*
X-486575Y156561D02*
X-484950Y158186D01*
X-487990Y157975D02*
X-486575Y156561D01*
X-487990Y157975D02*
X-486364Y159600D01*
X-487778Y161015D02*
X-486364Y159600D01*
X-489218Y159575D02*
X-487778Y161015D01*
X-489571Y159929D02*
X-489218Y159575D01*
X-483571Y153929D02*
X-480182Y150539D01*
X-491076Y161434D02*
X-489571Y159929D01*
X-493145Y159003D02*
X-488392Y154250D01*
X-495142Y181503D02*
Y185222D01*
X-500142Y181503D02*
X-495142D01*
X-500142Y179503D02*
Y181503D01*
Y179503D02*
X-495142D01*
Y177503D02*
Y179503D01*
X-500142Y177503D02*
X-495142D01*
X-500142Y175503D02*
Y177503D01*
Y175503D02*
X-495142D01*
Y173503D02*
Y175503D01*
X-500142Y173503D02*
X-495142D01*
X-500142Y171503D02*
Y173503D01*
Y171503D02*
X-493701D01*
Y169503D02*
Y171503D01*
X-500142Y169503D02*
X-493701D01*
X-500142Y167503D02*
Y169503D01*
Y167503D02*
X-492642D01*
Y165503D02*
Y167503D01*
X-500142Y165503D02*
X-492642D01*
X-500142Y163503D02*
Y165503D01*
Y163503D02*
X-492642D01*
Y161503D02*
Y163503D01*
X-500142Y161503D02*
X-492642D01*
X-500142Y159503D02*
Y161503D01*
Y159503D02*
X-493645D01*
X-493145Y159003D01*
X-491142Y183934D02*
Y187049D01*
X-493642Y183934D02*
X-491142D01*
X-493642Y181934D02*
Y183934D01*
Y181934D02*
X-489142D01*
Y179934D02*
Y181934D01*
X-493642Y179934D02*
X-489142D01*
X-493642Y177934D02*
Y179934D01*
Y177934D02*
X-489142D01*
Y175934D02*
Y177934D01*
X-493642Y175934D02*
X-489142D01*
X-493642Y173934D02*
Y175934D01*
Y173934D02*
X-489142D01*
Y171934D02*
Y173934D01*
X-492201Y171934D02*
X-489142D01*
X-492201Y169934D02*
Y171934D01*
Y169934D02*
X-489142D01*
Y167934D02*
Y169934D01*
X-491142Y167934D02*
X-489142D01*
X-491142Y165934D02*
Y167934D01*
Y165934D02*
X-489142D01*
Y163934D02*
Y165934D01*
X-491142Y163934D02*
X-489142D01*
X-491142Y161500D02*
Y163934D01*
Y161500D02*
X-491076Y161434D01*
X-497642Y235000D02*
X-497358D01*
X-498142D02*
X-497642D01*
X-498142D02*
Y239018D01*
X-500142D02*
X-498142D01*
X-500142Y230000D02*
Y239018D01*
X-502142Y230000D02*
X-500142D01*
X-502142D02*
Y238636D01*
X-504142D02*
X-502142D01*
X-504142Y230000D02*
Y238636D01*
X-506142Y230000D02*
X-504142D01*
X-506142D02*
Y239500D01*
X-508142D02*
X-506142D01*
X-508142Y230000D02*
Y239500D01*
X-510142Y230000D02*
X-508142D01*
X-510142D02*
Y239500D01*
X-512142D02*
X-510142D01*
X-512142Y230000D02*
Y239500D01*
X-514142Y230000D02*
X-512142D01*
X-514142D02*
Y239500D01*
X-516142D02*
X-514142D01*
X-516142Y230000D02*
Y239500D01*
X-518142Y230000D02*
X-516142D01*
X-518142D02*
Y239500D01*
X-520142D02*
X-518142D01*
X-520142Y230000D02*
Y239500D01*
X-522142Y230000D02*
X-520142D01*
X-522142D02*
Y239500D01*
X-524142D02*
X-522142D01*
X-524142Y230000D02*
Y239500D01*
X-526142Y230000D02*
X-524142D01*
X-526142D02*
Y239500D01*
X-528142D02*
X-526142D01*
X-528142Y230000D02*
Y239500D01*
X-530142Y230000D02*
X-528142D01*
X-530142D02*
Y239500D01*
X-532142D02*
X-530142D01*
X-532142Y230000D02*
Y239500D01*
X-534142Y230000D02*
X-532142D01*
X-534142D02*
Y239500D01*
X-536142D02*
X-534142D01*
X-536142Y230000D02*
Y239500D01*
X-538142Y230000D02*
X-536142D01*
X-538142D02*
Y239500D01*
X-540142D02*
X-538142D01*
X-540142Y230000D02*
Y239500D01*
X-542142Y230000D02*
X-540142D01*
X-542142D02*
Y239500D01*
X-544142D02*
X-542142D01*
X-544142Y230000D02*
Y239500D01*
X-546142Y230000D02*
X-544142D01*
X-546142D02*
Y239500D01*
X-548142D02*
X-546142D01*
X-548142Y230000D02*
Y239500D01*
X-550142Y230000D02*
X-548142D01*
X-550142D02*
Y239500D01*
X-552142D02*
X-550142D01*
X-552142Y235000D02*
Y239500D01*
X-552642Y235000D02*
X-552142D01*
X-497358D02*
X-465142D01*
X-498611Y241000D02*
X-463642D01*
X-499142D02*
X-498611D01*
X-499142D02*
Y246000D01*
X-501142D02*
X-499142D01*
X-501142Y240136D02*
Y246000D01*
X-503142Y240136D02*
X-501142D01*
X-503142D02*
Y246000D01*
X-505142D02*
X-503142D01*
X-505142Y241000D02*
Y246000D01*
X-507142Y241000D02*
X-505142D01*
X-507142D02*
Y246000D01*
X-509142D02*
X-507142D01*
X-509142Y241000D02*
Y246000D01*
X-511142Y241000D02*
X-509142D01*
X-511142D02*
Y246000D01*
X-513142D02*
X-511142D01*
X-513142Y241000D02*
Y246000D01*
X-515142Y241000D02*
X-513142D01*
X-515142D02*
Y246000D01*
X-517142D02*
X-515142D01*
X-517142Y241000D02*
Y246000D01*
X-519142Y241000D02*
X-517142D01*
X-519142D02*
Y246000D01*
X-521142D02*
X-519142D01*
X-521142Y241000D02*
Y246000D01*
X-523142Y241000D02*
X-521142D01*
X-523142D02*
Y246000D01*
X-525142D02*
X-523142D01*
X-525142Y241000D02*
Y246000D01*
X-527142Y241000D02*
X-525142D01*
X-527142D02*
Y246000D01*
X-529142D02*
X-527142D01*
X-529142Y241000D02*
Y246000D01*
X-531142Y241000D02*
X-529142D01*
X-531142D02*
Y246000D01*
X-533142D02*
X-531142D01*
X-533142Y241000D02*
Y246000D01*
X-535142Y241000D02*
X-533142D01*
X-535142D02*
Y246000D01*
X-537142D02*
X-535142D01*
X-537142Y241000D02*
Y246000D01*
X-539142Y241000D02*
X-537142D01*
X-539142D02*
Y246000D01*
X-541142D02*
X-539142D01*
X-541142Y241000D02*
Y246000D01*
X-543142Y241000D02*
X-541142D01*
X-543142D02*
Y246000D01*
X-545142D02*
X-543142D01*
X-545142Y241000D02*
Y246000D01*
X-547142Y241000D02*
X-545142D01*
X-547142D02*
Y246000D01*
X-549142D02*
X-547142D01*
X-549142Y241000D02*
Y246000D01*
X-551142Y241000D02*
X-549142D01*
X-551142D02*
Y246000D01*
X-553142D02*
X-551142D01*
X-553142Y240618D02*
Y246000D01*
X-555142Y240618D02*
X-553142D01*
X-555142D02*
Y246000D01*
X-557142D02*
X-555142D01*
X-557142Y236500D02*
Y246000D01*
X-559142Y236500D02*
X-557142D01*
X-559142D02*
Y246000D01*
X-561142D02*
X-559142D01*
X-561142Y236000D02*
Y246000D01*
X-563142Y236000D02*
X-561142D01*
X-563142D02*
Y246000D01*
X-565142D02*
X-563142D01*
X-565142Y236000D02*
Y246000D01*
X-567142Y236000D02*
X-565142D01*
X-567142D02*
Y246000D01*
X-569142D02*
X-567142D01*
X-569142Y236000D02*
Y246000D01*
X-571142Y236000D02*
X-569142D01*
X-571142D02*
Y246000D01*
X-573142D02*
X-571142D01*
X-573142Y241000D02*
Y246000D01*
X-573642Y241000D02*
X-573142D01*
X-467264Y147500D02*
X-466801D01*
X-468000D02*
X-467264D01*
X-468000D02*
Y149039D01*
X-470000D02*
X-468000D01*
X-470000Y143500D02*
Y149039D01*
X-472000Y143500D02*
X-470000D01*
X-472000D02*
Y149039D01*
X-474000D02*
X-472000D01*
X-474000Y143500D02*
Y149039D01*
X-476000Y143500D02*
X-474000D01*
X-476000D02*
Y149039D01*
X-478000D02*
X-476000D01*
X-478000Y147500D02*
Y149039D01*
X-478500Y147500D02*
X-478000D01*
X-466801D02*
X-461642D01*
X-482225Y148083D02*
X-481642Y147500D01*
X-483796Y149654D02*
X-482225Y148083D01*
X-483796Y149654D02*
X-482607Y150843D01*
X-484021Y152257D02*
X-482607Y150843D01*
X-488746Y147532D02*
X-484021Y152257D01*
X-490160Y148947D02*
X-488746Y147532D01*
X-490160Y148947D02*
X-485435Y153672D01*
X-486849Y155086D02*
X-485435Y153672D01*
X-488039Y153896D02*
X-486849Y155086D01*
X-488392Y154250D02*
X-488039Y153896D01*
X-481642Y147500D02*
X-478500D01*
X-480642Y220000D02*
X-479450D01*
X-480642Y215000D02*
Y220000D01*
X-482642Y215000D02*
X-480642D01*
X-482642D02*
Y225000D01*
X-484642D02*
X-482642D01*
X-484642Y215000D02*
Y225000D01*
X-486642Y215000D02*
X-484642D01*
X-486642D02*
Y225000D01*
X-488642D02*
X-486642D01*
X-488642Y215000D02*
Y225000D01*
X-490642Y215000D02*
X-488642D01*
X-490642D02*
Y225000D01*
X-492642D02*
X-490642D01*
X-492642Y215000D02*
Y225000D01*
X-494642Y215000D02*
X-492642D01*
X-494642D02*
Y225000D01*
X-496642D02*
X-494642D01*
X-496642Y215000D02*
Y225000D01*
X-498642Y215000D02*
X-496642D01*
X-498642D02*
Y225000D01*
X-500642D02*
X-498642D01*
X-500642Y215000D02*
Y225000D01*
X-502642Y215000D02*
X-500642D01*
X-502642D02*
Y225000D01*
X-504642D02*
X-502642D01*
X-504642Y217914D02*
Y225000D01*
X-506642Y217914D02*
X-504642D01*
X-506642D02*
Y225000D01*
X-508642D02*
X-506642D01*
X-508642Y218000D02*
Y225000D01*
X-510642Y218000D02*
X-508642D01*
X-510642D02*
Y225000D01*
X-512642D02*
X-510642D01*
X-512642Y218000D02*
Y225000D01*
X-514642Y218000D02*
X-512642D01*
X-514642D02*
Y225000D01*
X-516642D02*
X-514642D01*
X-516642Y218000D02*
Y225000D01*
X-518642Y218000D02*
X-516642D01*
X-518642D02*
Y225000D01*
X-520642D02*
X-518642D01*
X-520642Y218000D02*
Y225000D01*
X-522642Y218000D02*
X-520642D01*
X-522642D02*
Y225000D01*
X-524642D02*
X-522642D01*
X-524642Y218000D02*
Y225000D01*
X-526642Y218000D02*
X-524642D01*
X-526642D02*
Y225000D01*
X-528642D02*
X-526642D01*
X-528642Y218000D02*
Y225000D01*
X-530642Y218000D02*
X-528642D01*
X-530642D02*
Y225000D01*
X-532642D02*
X-530642D01*
X-532642Y218000D02*
Y225000D01*
X-534642Y218000D02*
X-532642D01*
X-534642D02*
Y225000D01*
X-536642D02*
X-534642D01*
X-536642Y218000D02*
Y225000D01*
X-538642Y218000D02*
X-536642D01*
X-538642D02*
Y225000D01*
X-540642D02*
X-538642D01*
X-540642Y218000D02*
Y225000D01*
X-542642Y218000D02*
X-540642D01*
X-542642D02*
Y225000D01*
X-544642D02*
X-542642D01*
X-544642Y218000D02*
Y225000D01*
X-546642Y218000D02*
X-544642D01*
X-546642D02*
Y225000D01*
X-548642D02*
X-546642D01*
X-548642Y220000D02*
Y225000D01*
X-549142Y220000D02*
X-548642D01*
X-479450D02*
X-475142D01*
X-495142Y185222D02*
Y185500D01*
X-496146Y205504D02*
X-494071Y203429D01*
X-496146Y205504D02*
X-493318Y208333D01*
X-494732Y209747D02*
X-493318Y208333D01*
X-497561Y206918D02*
X-494732Y209747D01*
X-498975Y208333D02*
X-497561Y206918D01*
X-498975Y208333D02*
X-496146Y211161D01*
X-497561Y212575D02*
X-496146Y211161D01*
X-500816Y209320D02*
X-497561Y212575D01*
X-502230Y210734D02*
X-500816Y209320D01*
X-502230Y210734D02*
X-500879Y212086D01*
X-502293Y213500D02*
X-500879Y212086D01*
X-503218Y212575D02*
X-502293Y213500D01*
X-503571Y212929D02*
X-503218Y212575D01*
X-494071Y203429D02*
X-487642Y197000D01*
X-507142Y216500D02*
X-503571Y212929D01*
X-513615Y216500D02*
X-509642D01*
X-513615Y216140D02*
Y216500D01*
X-515615Y216140D02*
X-513615D01*
X-515615D02*
Y216500D01*
X-517615D02*
X-515615D01*
X-517615Y214000D02*
Y216500D01*
X-519615Y214000D02*
X-517615D01*
X-519615D02*
Y216500D01*
X-521615D02*
X-519615D01*
X-521615Y214000D02*
Y216500D01*
X-523615Y214000D02*
X-521615D01*
X-523615D02*
Y216500D01*
X-525615D02*
X-523615D01*
X-525615Y214000D02*
Y216500D01*
X-527615Y214000D02*
X-525615D01*
X-527615D02*
Y216500D01*
X-529615D02*
X-527615D01*
X-529615Y214000D02*
Y216500D01*
X-531615Y214000D02*
X-529615D01*
X-531615D02*
Y216500D01*
X-533615D02*
X-531615D01*
X-533615Y214000D02*
Y216500D01*
X-535615Y214000D02*
X-533615D01*
X-535615D02*
Y216500D01*
X-537615D02*
X-535615D01*
X-537615Y214000D02*
Y216500D01*
X-539615Y214000D02*
X-537615D01*
X-539615D02*
Y216500D01*
X-541615D02*
X-539615D01*
X-541615Y214000D02*
Y216500D01*
X-543615Y214000D02*
X-541615D01*
X-543615D02*
Y216500D01*
X-545615D02*
X-543615D01*
X-545615Y214000D02*
Y216500D01*
X-547615Y214000D02*
X-545615D01*
X-547615D02*
Y216858D01*
X-549615D02*
X-547615D01*
X-549615Y214000D02*
Y216858D01*
X-551615Y214000D02*
X-549615D01*
X-551615D02*
Y218500D01*
X-553615D02*
X-551615D01*
X-553615Y214000D02*
Y218500D01*
X-555615Y214000D02*
X-553615D01*
X-555615D02*
Y218500D01*
X-557615D02*
X-555615D01*
X-557615Y214000D02*
Y218500D01*
X-559615Y214000D02*
X-557615D01*
X-559615D02*
Y217319D01*
X-561615D02*
X-559615D01*
X-561615Y214000D02*
Y217319D01*
X-563615Y214000D02*
X-561615D01*
X-563615D02*
Y218181D01*
X-565615D02*
X-563615D01*
X-565615Y214000D02*
Y218181D01*
X-567615Y214000D02*
X-565615D01*
X-567615D02*
Y220906D01*
X-569615D02*
X-567615D01*
X-569615Y214000D02*
Y220906D01*
X-571615Y214000D02*
X-569615D01*
X-571615D02*
Y218000D01*
X-573615D02*
X-571615D01*
X-573615Y214000D02*
Y218000D01*
X-575615Y214000D02*
X-573615D01*
X-575615D02*
Y218000D01*
X-577615D02*
X-575615D01*
X-577615Y214000D02*
Y218000D01*
X-579615Y214000D02*
X-577615D01*
X-579615D02*
Y218000D01*
X-581615D02*
X-579615D01*
X-581615Y211500D02*
Y218000D01*
X-583615Y211500D02*
X-581615D01*
X-583615D02*
Y216819D01*
X-585615D02*
X-583615D01*
X-585615Y211500D02*
Y216819D01*
X-587615Y211500D02*
X-585615D01*
X-587615D02*
Y221500D01*
X-589615D02*
X-587615D01*
X-589615Y211500D02*
Y221500D01*
X-591615Y211500D02*
X-589615D01*
X-591615D02*
Y221406D01*
X-593615D02*
X-591615D01*
X-593615Y211500D02*
Y221406D01*
X-595615Y211500D02*
X-593615D01*
X-595615D02*
Y218000D01*
X-597615D02*
X-595615D01*
X-597615Y216500D02*
Y218000D01*
X-598115Y216500D02*
X-597615D01*
X-509642D02*
X-507142D01*
X-491142Y187049D02*
Y187500D01*
X-491142Y72000D02*
X-483500D01*
X-491142D02*
Y74637D01*
X-493142D02*
X-491142D01*
X-493142Y68000D02*
Y74637D01*
X-495142Y68000D02*
X-493142D01*
X-495142D02*
Y79500D01*
X-497142D02*
X-495142D01*
X-497142Y72000D02*
Y79500D01*
X-497642Y72000D02*
X-497142D01*
X-483500D02*
X-464142D01*
X-523142Y87500D02*
Y88500D01*
Y87500D02*
X-499142Y63500D01*
X-519607Y176500D02*
Y179964D01*
X-542642Y203000D02*
X-519607Y179964D01*
X-516071Y176071D02*
Y177437D01*
X-510540Y182969D01*
X-511954Y184383D02*
X-510540Y182969D01*
X-516949Y179388D02*
X-511954Y184383D01*
X-518363Y180803D02*
X-516949Y179388D01*
X-518363Y180803D02*
X-513368Y185797D01*
X-514783Y187211D02*
X-513368Y185797D01*
X-519758Y182237D02*
X-514783Y187211D01*
X-521172Y183651D02*
X-519758Y182237D01*
X-521172Y183651D02*
X-516197Y188626D01*
X-517611Y190040D02*
X-516197Y188626D01*
X-522586Y185065D02*
X-517611Y190040D01*
X-524000Y186479D02*
X-522586Y185065D01*
X-524000Y186479D02*
X-519025Y191454D01*
X-520439Y192868D02*
X-519025Y191454D01*
X-525414Y187893D02*
X-520439Y192868D01*
X-526829Y189308D02*
X-525414Y187893D01*
X-526829Y189308D02*
X-521854Y194282D01*
X-523268Y195697D02*
X-521854Y194282D01*
X-528243Y190722D02*
X-523268Y195697D01*
X-529657Y192136D02*
X-528243Y190722D01*
X-529657Y192136D02*
X-524682Y197111D01*
X-526096Y198525D02*
X-524682Y197111D01*
X-531071Y193550D02*
X-526096Y198525D01*
X-532485Y194964D02*
X-531071Y193550D01*
X-532485Y194964D02*
X-527510Y199939D01*
X-528925Y201354D02*
X-527510Y199939D01*
X-533900Y196379D02*
X-528925Y201354D01*
X-535314Y197793D02*
X-533900Y196379D01*
X-535314Y197793D02*
X-532521Y200586D01*
X-533935Y202000D02*
X-532521Y200586D01*
X-535289Y200646D02*
X-533935Y202000D01*
X-535642Y201000D02*
X-535289Y200646D01*
X-516071Y90429D02*
Y176071D01*
X-540461Y205819D02*
X-535642Y201000D01*
X-495142Y185500D02*
Y188680D01*
X-494232Y189590D01*
X-495647Y191004D02*
X-494232Y189590D01*
X-499182Y187469D02*
X-495647Y191004D01*
X-500596Y188883D02*
X-499182Y187469D01*
X-500596Y188883D02*
X-497061Y192419D01*
X-498475Y193833D02*
X-497061Y192419D01*
X-502011Y190297D02*
X-498475Y193833D01*
X-503425Y191711D02*
X-502011Y190297D01*
X-503425Y191711D02*
X-499889Y195247D01*
X-501303Y196661D02*
X-499889Y195247D01*
X-504839Y193126D02*
X-501303Y196661D01*
X-506253Y194540D02*
X-504839Y193126D01*
X-506253Y194540D02*
X-502718Y198075D01*
X-504132Y199490D02*
X-502718Y198075D01*
X-507667Y195954D02*
X-504132Y199490D01*
X-509082Y197368D02*
X-507667Y195954D01*
X-509082Y197368D02*
X-505459Y200991D01*
X-506873Y202405D02*
X-505459Y200991D01*
X-510496Y198782D02*
X-506873Y202405D01*
X-511910Y200197D02*
X-510496Y198782D01*
X-511910Y200197D02*
X-506852Y205255D01*
X-508266Y206669D02*
X-506852Y205255D01*
X-509789Y205146D02*
X-508266Y206669D01*
X-510142Y205500D02*
X-509789Y205146D01*
X-511642Y207000D02*
X-510142Y205500D01*
X-513142Y208500D02*
X-511642Y207000D01*
X-513642Y208500D02*
X-513142D01*
X-513642Y203500D02*
Y208500D01*
X-515642Y203500D02*
X-513642D01*
X-515642D02*
Y208500D01*
X-517642D02*
X-515642D01*
X-517642Y203500D02*
Y208500D01*
X-519642Y203500D02*
X-517642D01*
X-519642D02*
Y208500D01*
X-521642D02*
X-519642D01*
X-521642Y203500D02*
Y208500D01*
X-523642Y203500D02*
X-521642D01*
X-523642D02*
Y208500D01*
X-525642D02*
X-523642D01*
X-525642Y203500D02*
Y208500D01*
X-527642Y203500D02*
X-525642D01*
X-527642D02*
Y208500D01*
X-529642D02*
X-527642D01*
X-529642Y203500D02*
Y208500D01*
X-531642Y203500D02*
X-529642D01*
X-531642D02*
Y208500D01*
X-533642D02*
X-531642D01*
X-533642Y203500D02*
Y208500D01*
X-535642Y203500D02*
X-533642D01*
X-535642D02*
Y208500D01*
X-537642D02*
X-535642D01*
X-537642Y207076D02*
Y208500D01*
X-539642Y207076D02*
X-537642D01*
X-539642D02*
Y208500D01*
X-541642D02*
X-539642D01*
X-541642Y207319D02*
Y208500D01*
X-543642Y207319D02*
X-541642D01*
X-543642D02*
Y208500D01*
X-545642D02*
X-543642D01*
X-545642Y207319D02*
Y208500D01*
X-547642Y207319D02*
X-545642D01*
X-547642D02*
Y208500D01*
X-549642D02*
X-547642D01*
X-549642Y207319D02*
Y208500D01*
X-551642Y207319D02*
X-549642D01*
X-551642D02*
Y208500D01*
X-554142D02*
X-551642D01*
X-558642D02*
X-554142D01*
X-491142Y187500D02*
Y191837D01*
X-489142Y193837D01*
X-490556Y195251D02*
X-489142Y193837D01*
X-494164Y191643D02*
X-490556Y195251D01*
X-495579Y193058D02*
X-494164Y191643D01*
X-495579Y193058D02*
X-490700Y197936D01*
X-492114Y199351D02*
X-490700Y197936D01*
X-496993Y194472D02*
X-492114Y199351D01*
X-498407Y195886D02*
X-496993Y194472D01*
X-498407Y195886D02*
X-493528Y200765D01*
X-494943Y202179D02*
X-493528Y200765D01*
X-499821Y197300D02*
X-494943Y202179D01*
X-501235Y198714D02*
X-499821Y197300D01*
X-501235Y198714D02*
X-496357Y203593D01*
X-497771Y205007D02*
X-496357Y203593D01*
X-502650Y200129D02*
X-497771Y205007D01*
X-504064Y201543D02*
X-502650Y200129D01*
X-504064Y201543D02*
X-499185Y206421D01*
X-500599Y207836D02*
X-499185Y206421D01*
X-503039Y205396D02*
X-500599Y207836D01*
X-503392Y205750D02*
X-503039Y205396D01*
X-504642Y207000D02*
X-503392Y205750D01*
X-506642Y209000D02*
X-504642Y207000D01*
X-506642Y209000D02*
Y213879D01*
X-508642D02*
X-506642D01*
X-508642Y208121D02*
Y213879D01*
X-510642Y208121D02*
X-508642D01*
X-510642D02*
Y214998D01*
X-512642D02*
X-510642D01*
X-512642Y210000D02*
Y214998D01*
X-514642Y210000D02*
X-512642D01*
X-514642D02*
Y212858D01*
X-516642D02*
X-514642D01*
X-516642Y210000D02*
Y212858D01*
X-518642Y210000D02*
X-516642D01*
X-518642D02*
Y212500D01*
X-520642D02*
X-518642D01*
X-520642Y210000D02*
Y212500D01*
X-522642Y210000D02*
X-520642D01*
X-522642D02*
Y212500D01*
X-524642D02*
X-522642D01*
X-524642Y210000D02*
Y212500D01*
X-526642Y210000D02*
X-524642D01*
X-526642D02*
Y212500D01*
X-528642D02*
X-526642D01*
X-528642Y210000D02*
Y212500D01*
X-530642Y210000D02*
X-528642D01*
X-530642D02*
Y212500D01*
X-532642D02*
X-530642D01*
X-532642Y210000D02*
Y212500D01*
X-534642Y210000D02*
X-532642D01*
X-534642D02*
Y212500D01*
X-536642D02*
X-534642D01*
X-536642Y210000D02*
Y212500D01*
X-538642Y210000D02*
X-536642D01*
X-538642D02*
Y212500D01*
X-540642D02*
X-538642D01*
X-540642Y210000D02*
Y212500D01*
X-542642Y210000D02*
X-540642D01*
X-542642D02*
Y212500D01*
X-544642D02*
X-542642D01*
X-544642Y210000D02*
Y212500D01*
X-546642Y210000D02*
X-544642D01*
X-546642D02*
Y212500D01*
X-548642D02*
X-546642D01*
X-548642Y210000D02*
Y212500D01*
X-550642Y210000D02*
X-548642D01*
X-550642D02*
Y212500D01*
X-552642D02*
X-550642D01*
X-552642Y210000D02*
Y212500D01*
X-554642Y210000D02*
X-552642D01*
X-554642D02*
Y212500D01*
X-556642D02*
X-554642D01*
X-556642Y211181D02*
Y212500D01*
X-558642Y211181D02*
X-556642D01*
X-558642D02*
Y212500D01*
X-560642D02*
X-558642D01*
X-560642Y210292D02*
Y212500D01*
X-562642Y210292D02*
X-560642D01*
X-562642D02*
Y212500D01*
X-564642D02*
X-562642D01*
X-564642Y207500D02*
Y212500D01*
X-566642Y207500D02*
X-564642D01*
X-566642D02*
Y212500D01*
X-568642D02*
X-566642D01*
X-568642Y207500D02*
Y212500D01*
X-570642Y207500D02*
X-568642D01*
X-570642D02*
Y212500D01*
X-572642D02*
X-570642D01*
X-572642Y207500D02*
Y212500D01*
X-574642Y207500D02*
X-572642D01*
X-574642D02*
Y212500D01*
X-577142D02*
X-574642D01*
X-577642D02*
X-577142D01*
X-576142Y241000D02*
X-573642D01*
X-557642Y235000D02*
X-552642D01*
X-561642Y220000D02*
X-549142D01*
X-475142D02*
X-458642Y236500D01*
X-487642Y163000D02*
Y197000D01*
X-480642Y156000D02*
X-463642D01*
X-487642Y163000D02*
X-480642Y156000D01*
X-500142Y74500D02*
X-497642Y72000D01*
X-516071Y90429D02*
X-500142Y74500D01*
X-463142Y63500D02*
X-458642Y68000D01*
X-499142Y63500D02*
X-463142D01*
X-460351Y72000D02*
X-455142D01*
X-465851Y66500D02*
X-460351Y72000D01*
X-519607Y88964D02*
X-497142Y66500D01*
X-465851D01*
X-557142Y200000D02*
X-544642D01*
X-577375Y203000D02*
X-542642D01*
X-578375Y202000D02*
X-577375Y203000D01*
X-578642Y202000D02*
X-578375D01*
X-598593Y205819D02*
X-540461D01*
X-599642Y206500D02*
X-599274D01*
X-598593Y205819D01*
X-544642Y200000D02*
X-523142Y178500D01*
X-581642Y208500D02*
X-577642Y212500D01*
X-480182Y150539D02*
X-464603D01*
X-461642Y147500D02*
X-458142Y151000D01*
X-464603Y150539D02*
X-459142Y156000D01*
X-455142D01*
X-604879Y209736D02*
X-598115Y216500D01*
X-459142Y241000D02*
X-454642D01*
X-465142Y235000D02*
X-459142Y241000D01*
X-573142Y219500D02*
X-557642Y235000D01*
X-584642Y219500D02*
X-573142D01*
X-607642D02*
X-597642D01*
X-576142Y241000D01*
D24*
X-162537Y49587D02*
Y79525D01*
X-162603Y49521D02*
X-162537Y49587D01*
X-184012Y101000D02*
X-162537Y79525D01*
X-434642Y101000D02*
X-184012D01*
X-448642Y115000D02*
X-434642Y101000D01*
D77*
X-605267Y114500D02*
G03*
X-608246Y114500I-1490J-2743D01*
G01*
X-615267D02*
G03*
X-618246Y114500I-1490J-2743D01*
G01*
X-610267D02*
G03*
X-613246Y114500I-1490J-2743D01*
G01*
X-619500Y108246D02*
G03*
X-619500Y105267I2743J-1489D01*
G01*
Y113246D02*
G03*
X-619500Y110267I2743J-1489D01*
G01*
X-583295Y116909D02*
X-582494D01*
X-580464Y114878D02*
X-578635Y113050D01*
X-580464Y114878D02*
X-580464D01*
X-578635Y105464D02*
Y113050D01*
X-580598Y103500D02*
X-578635Y105464D01*
X-583500Y117114D02*
X-583295Y116909D01*
X-582494D02*
X-580464Y114878D01*
X-588500Y103500D02*
X-580598D01*
X-591756Y106757D02*
X-588500Y103500D01*
X-615267Y114500D02*
X-613246D01*
X-605267D02*
X-604500D01*
X-601756Y111757D01*
X-618428Y114500D02*
X-618246D01*
X-619500Y113428D02*
X-618428Y114500D01*
X-610267D02*
X-608246D01*
X-619500Y113246D02*
Y113428D01*
Y104500D02*
X-618603Y103603D01*
X-619500Y108246D02*
Y110267D01*
Y104500D02*
Y105267D01*
X-601123Y103603D02*
X-599521Y102000D01*
X-618603Y103603D02*
X-601123D01*
D78*
X-253500Y107600D02*
X-139542D01*
X-273364Y122367D02*
X-272656Y121660D01*
X-267560D01*
X-254370Y105500D02*
X-138672D01*
X-273364Y118853D02*
X-272656Y119560D01*
X-65599Y154740D02*
X-62179Y151320D01*
Y150160D02*
Y151320D01*
X-73239Y139100D02*
X-62179Y150160D01*
X-108042Y139100D02*
X-73239D01*
X-139542Y107600D02*
X-108042Y139100D01*
X-55757Y149582D02*
X-55599Y149740D01*
X-59787Y149582D02*
X-55757D01*
X-72369Y137000D02*
X-59787Y149582D01*
X-107173Y137000D02*
X-72369D01*
X-138672Y105500D02*
X-107173Y137000D01*
X-273624Y118853D02*
X-273440Y118669D01*
X-273624Y118853D02*
X-273364D01*
X-268430Y119560D02*
X-254370Y105500D01*
X-267560Y121660D02*
X-253500Y107600D01*
X-272656Y119560D02*
X-268430D01*
X-273624Y122367D02*
X-273364D01*
X-254370Y105500D02*
Y105500D01*
X-252770Y172163D02*
Y172163D01*
X-234933Y190000D01*
X-80112D01*
X-254870Y173033D02*
Y173033D01*
X-235803Y192100D01*
X-79242D01*
X-269373Y155560D02*
X-252770Y172163D01*
X-65599Y174232D02*
Y174740D01*
X-68338Y171493D02*
X-65599Y174232D01*
X-72077Y174073D02*
X-69498Y171493D01*
X-79242Y192100D02*
X-72077Y184935D01*
Y174073D02*
Y184935D01*
X-69498Y171493D02*
X-68338D01*
X-70367Y169393D02*
X-63672D01*
X-74177Y173203D02*
X-70367Y169393D01*
X-60066Y164208D02*
Y165788D01*
X-63672Y169393D02*
X-60066Y165788D01*
X-80112Y190000D02*
X-74177Y184065D01*
Y173203D02*
Y184065D01*
X-60066Y164208D02*
X-55599Y159740D01*
X-273124Y154853D02*
X-272864D01*
X-272156Y155560D02*
X-269373D01*
X-272864Y158367D02*
X-272156Y157660D01*
X-270243D02*
X-254870Y173033D01*
X-273124Y158367D02*
X-272864D01*
X-272156Y157660D02*
X-270243D01*
X-272864Y154853D02*
X-272156Y155560D01*
X-273941Y308669D02*
X-272781D01*
X-253112Y289000D02*
X-133642D01*
X-272781Y308669D02*
X-253112Y289000D01*
X-274125Y308853D02*
X-273941Y308669D01*
X-76342Y210368D02*
Y236200D01*
X-88020Y247877D02*
X-76342Y236200D01*
X-92520Y247877D02*
X-88020D01*
X-133642Y289000D02*
X-92520Y247877D01*
X-74242Y211238D02*
Y237070D01*
X-87150Y249977D02*
X-74242Y237070D01*
X-252242Y291100D02*
X-132773D01*
X-272877Y311734D02*
X-252242Y291100D01*
X-91650Y249977D02*
X-87150D01*
X-132773Y291100D02*
X-91650Y249977D01*
X-76342Y210368D02*
X-68214Y202240D01*
X-65599Y209740D02*
X-62179Y206320D01*
X-68214Y202240D02*
X-62129D01*
X-62999Y204340D02*
X-62179Y205160D01*
X-67345Y204340D02*
X-62999D01*
X-74242Y211238D02*
X-67345Y204340D01*
X-59787Y204582D02*
X-55757D01*
X-62179Y205160D02*
Y206320D01*
X-55757Y204582D02*
X-55599Y204740D01*
X-62129Y202240D02*
X-59787Y204582D01*
X-269474Y347660D02*
X-264042Y342229D01*
X-270344Y345560D02*
X-266142Y341359D01*
X-273625Y344853D02*
X-273441Y345037D01*
Y348183D02*
X-272315D01*
X-271792Y347660D02*
X-269474D01*
X-273625Y348367D02*
X-273441Y348183D01*
X-271792Y345560D02*
X-270344D01*
X-273441Y345037D02*
X-272315D01*
Y348183D02*
X-271792Y347660D01*
X-272315Y345037D02*
X-271792Y345560D01*
X-264042Y312900D02*
X-247742Y296600D01*
X-264042Y312900D02*
Y342229D01*
X-266142Y312030D02*
X-248612Y294500D01*
X-266142Y312030D02*
Y341359D01*
X-248612Y294500D02*
X-132612D01*
X-247742Y296600D02*
X-131742D01*
X-72142Y229703D02*
X-66832Y224393D01*
X-90027Y255885D02*
X-72152Y238010D01*
Y233606D02*
X-72142Y233596D01*
Y229703D02*
Y233596D01*
X-72152Y233606D02*
Y238010D01*
X-89157Y257985D02*
X-70252Y239079D01*
Y234393D02*
X-65599Y229740D01*
X-70252Y234393D02*
Y239079D01*
X-93997Y255885D02*
X-90027D01*
X-132612Y294500D02*
X-93997Y255885D01*
X-56982Y217342D02*
Y217703D01*
X-60066Y220788D02*
X-56982Y217703D01*
X-55599Y214740D02*
Y215959D01*
X-56982Y217342D02*
X-55599Y215959D01*
X-63672Y224393D02*
X-60066Y220788D01*
Y220788D02*
Y220788D01*
X-66832Y224393D02*
X-63672D01*
X-93127Y257985D02*
X-89157D01*
X-131742Y296600D02*
X-93127Y257985D01*
D83*
X-601756Y111757D02*
D03*
X-591756Y106757D02*
D03*
D84*
X-55599Y204740D02*
D03*
X-65599Y209740D02*
D03*
X-55599Y214740D02*
D03*
X-65599Y229740D02*
D03*
X-55599Y149740D02*
D03*
X-65599Y154740D02*
D03*
X-55599Y159740D02*
D03*
X-65599Y174740D02*
D03*
D89*
X-273624Y122367D02*
D03*
Y118853D02*
D03*
X-273124Y158367D02*
D03*
Y154853D02*
D03*
X-274125Y308853D02*
D03*
Y312367D02*
D03*
X-273625Y348367D02*
D03*
Y344853D02*
D03*
X-500142Y74500D02*
D03*
X-458642Y68000D02*
D03*
X-557142Y200000D02*
D03*
X-455142Y72000D02*
D03*
X-578642Y202000D02*
D03*
X-464142Y72000D02*
D03*
X-599642Y206500D02*
D03*
X-558642Y208500D02*
D03*
X-561642Y220000D02*
D03*
X-581642Y208500D02*
D03*
X-584642Y219500D02*
D03*
X-604879Y209736D02*
D03*
X-607642Y219500D02*
D03*
X-463642Y156000D02*
D03*
X-458142Y151000D02*
D03*
X-455142Y156000D02*
D03*
X-458642Y236500D02*
D03*
X-463642Y241000D02*
D03*
X-454642D02*
D03*
X-448642Y115000D02*
D03*
D91*
X-583500Y117114D02*
D03*
X-599521Y102000D02*
D03*
X-162537Y79525D02*
D03*
X-162601Y69206D02*
D03*
X-162602Y59363D02*
D03*
X-162603Y49521D02*
D03*
M02*
