G04*
G04 #@! TF.GenerationSoftware,Altium Limited,Altium Designer,20.0.13 (296)*
G04*
G04 Layer_Color=128*
%FSLAX25Y25*%
%MOIN*%
G70*
G01*
G75*
%ADD27R,0.02756X0.04724*%
%ADD28R,0.04724X0.02756*%
D27*
X-118299Y125000D02*
D03*
X-112000D02*
D03*
X-119000Y163000D02*
D03*
X-112701D02*
D03*
X-116299Y366000D02*
D03*
X-110000D02*
D03*
X-269299Y365000D02*
D03*
X-263000D02*
D03*
X-129000Y97000D02*
D03*
X-135299D02*
D03*
D28*
X-116000Y312000D02*
D03*
Y305701D02*
D03*
Y216000D02*
D03*
Y222299D02*
D03*
X-269000Y311000D02*
D03*
Y304701D02*
D03*
X-268000Y214701D02*
D03*
Y221000D02*
D03*
X-269500Y122500D02*
D03*
Y128799D02*
D03*
X-269000Y38000D02*
D03*
Y31701D02*
D03*
X-116000Y38000D02*
D03*
Y31701D02*
D03*
Y329000D02*
D03*
Y335299D02*
D03*
Y232701D02*
D03*
Y239000D02*
D03*
X-269000Y329701D02*
D03*
Y336000D02*
D03*
X-268000Y245000D02*
D03*
Y238701D02*
D03*
X-268499Y139701D02*
D03*
Y146000D02*
D03*
X-269000Y57000D02*
D03*
Y50701D02*
D03*
X-116000Y138701D02*
D03*
Y145000D02*
D03*
Y56000D02*
D03*
Y49701D02*
D03*
X-115000Y347000D02*
D03*
Y353299D02*
D03*
X-117000Y251000D02*
D03*
Y257299D02*
D03*
X-269000Y347701D02*
D03*
Y354000D02*
D03*
X-268000Y263000D02*
D03*
Y256701D02*
D03*
X-268499Y157701D02*
D03*
Y164000D02*
D03*
X-269000Y75299D02*
D03*
Y69000D02*
D03*
X-116000Y74000D02*
D03*
Y67701D02*
D03*
Y281000D02*
D03*
Y274701D02*
D03*
X-268000Y268000D02*
D03*
Y274299D02*
D03*
Y176701D02*
D03*
Y183000D02*
D03*
X-269000Y81000D02*
D03*
Y87299D02*
D03*
X-116000Y174701D02*
D03*
Y181000D02*
D03*
M02*
