G04*
G04 #@! TF.GenerationSoftware,Altium Limited,Altium Designer,20.1.11 (218)*
G04*
G04 Layer_Color=8388736*
%FSLAX44Y44*%
%MOMM*%
G71*
G04*
G04 #@! TF.SameCoordinates,C3C50974-59E2-47F8-AA54-FA71D98921EB*
G04*
G04*
G04 #@! TF.FilePolarity,Positive*
G04*
G01*
G75*
%ADD19C,0.2540*%
%ADD92C,0.1524*%
D19*
X30373Y182372D02*
Y191262D01*
X-2Y3175D02*
Y187452D01*
X-25401Y184912D02*
X-2D01*
X30373D02*
X55773D01*
X-15242Y189992D02*
X-2Y184912D01*
X-15242Y179832D02*
X-2Y184912D01*
X30373D02*
X45613Y179832D01*
X30373Y184912D02*
X45613Y189992D01*
X124860Y1000000D02*
X129941Y984760D01*
X119781D02*
X124860Y1000000D01*
X119781Y15240D02*
X124860Y0D01*
X129941Y15240D01*
X124860Y541897D02*
Y1000000D01*
Y0D02*
Y449976D01*
X3174Y1000000D02*
X127401D01*
X3174Y0D02*
X127401D01*
X-1730002Y1080000D02*
X-1714762Y1085080D01*
X-1730002Y1080000D02*
X-1714762Y1074920D01*
X-15242D02*
X-2Y1080000D01*
X-15242Y1085080D02*
X-2Y1080000D01*
X-1730002D02*
X-915026D01*
X-823105D02*
X-2D01*
X-1730002Y1003175D02*
Y1082540D01*
X-2Y1003175D02*
Y1082540D01*
D92*
X58313Y185927D02*
X60852Y188466D01*
X65930D01*
X68469Y185927D01*
Y183388D01*
X65930Y180849D01*
X63391D01*
X65930D01*
X68469Y178310D01*
Y175770D01*
X65930Y173231D01*
X60852D01*
X58313Y175770D01*
X76087Y170692D02*
X78626Y173231D01*
Y175770D01*
X76087D01*
Y173231D01*
X78626D01*
X76087Y170692D01*
X73548Y168153D01*
X88783Y185927D02*
X91322Y188466D01*
X96400D01*
X98939Y185927D01*
Y175770D01*
X96400Y173231D01*
X91322D01*
X88783Y175770D01*
Y185927D01*
X111635Y173231D02*
Y188466D01*
X104018Y180849D01*
X114174D01*
X136541Y454040D02*
Y459118D01*
Y456579D01*
X121306D01*
X123845Y454040D01*
Y466735D02*
X121306Y469275D01*
Y474353D01*
X123845Y476892D01*
X134002D01*
X136541Y474353D01*
Y469275D01*
X134002Y466735D01*
X123845D01*
Y481970D02*
X121306Y484510D01*
Y489588D01*
X123845Y492127D01*
X134002D01*
X136541Y489588D01*
Y484510D01*
X134002Y481970D01*
X123845D01*
X139080Y499745D02*
X136541Y502284D01*
X134002D01*
Y499745D01*
X136541D01*
Y502284D01*
X139080Y499745D01*
X141620Y497206D01*
X123845Y512441D02*
X121306Y514980D01*
Y520058D01*
X123845Y522597D01*
X134002D01*
X136541Y520058D01*
Y514980D01*
X134002Y512441D01*
X123845D01*
Y527676D02*
X121306Y530215D01*
Y535293D01*
X123845Y537832D01*
X134002D01*
X136541Y535293D01*
Y530215D01*
X134002Y527676D01*
X123845D01*
X-910962Y1068319D02*
X-905884D01*
X-908423D01*
Y1083554D01*
X-910962Y1081015D01*
X-898266Y1083554D02*
X-888109D01*
Y1081015D01*
X-898266Y1070859D01*
Y1068319D01*
X-883031Y1081015D02*
X-880492Y1083554D01*
X-875414D01*
X-872874Y1081015D01*
Y1078476D01*
X-875414Y1075937D01*
X-877953D01*
X-875414D01*
X-872874Y1073398D01*
Y1070859D01*
X-875414Y1068319D01*
X-880492D01*
X-883031Y1070859D01*
X-865257Y1065780D02*
X-862718Y1068319D01*
Y1070859D01*
X-865257D01*
Y1068319D01*
X-862718D01*
X-865257Y1065780D01*
X-867796Y1063241D01*
X-852561Y1081015D02*
X-850022Y1083554D01*
X-844943D01*
X-842404Y1081015D01*
Y1070859D01*
X-844943Y1068319D01*
X-850022D01*
X-852561Y1070859D01*
Y1081015D01*
X-837326D02*
X-834787Y1083554D01*
X-829708D01*
X-827169Y1081015D01*
Y1070859D01*
X-829708Y1068319D01*
X-834787D01*
X-837326Y1070859D01*
Y1081015D01*
M02*
