G04*
G04 #@! TF.GenerationSoftware,Altium Limited,Altium Designer,20.1.11 (218)*
G04*
G04 Layer_Physical_Order=6*
G04 Layer_Color=16711680*
%FSLAX44Y44*%
%MOMM*%
G71*
G04*
G04 #@! TF.SameCoordinates,C3C50974-59E2-47F8-AA54-FA71D98921EB*
G04*
G04*
G04 #@! TF.FilePolarity,Positive*
G04*
G01*
G75*
%ADD19C,0.2540*%
%ADD20C,0.5080*%
%ADD26C,0.1778*%
%ADD78C,0.3556*%
%ADD80C,0.9000*%
%ADD81C,2.5400*%
%ADD82C,1.1000*%
%ADD83C,2.4000*%
%ADD84C,3.2000*%
%ADD85C,1.5000*%
%ADD86C,1.5240*%
%ADD87C,1.3000*%
%ADD88C,0.4500*%
%ADD89C,0.6000*%
%ADD90C,0.7000*%
%ADD91C,0.5000*%
D19*
X-1154945Y116840D02*
X-1153521D01*
X-1154945D02*
Y129540D01*
X-1160025D02*
X-1154945D01*
X-1160025Y104140D02*
Y129540D01*
X-1165105Y104140D02*
X-1160025D01*
X-1165105D02*
Y129540D01*
X-1170185D02*
X-1165105D01*
X-1170185Y104140D02*
Y129540D01*
X-1175265Y104140D02*
X-1170185D01*
X-1175265D02*
Y129540D01*
X-1180345D02*
X-1175265D01*
X-1180345Y104140D02*
Y129540D01*
X-1185425Y104140D02*
X-1180345D01*
X-1185425D02*
Y129540D01*
X-1190505D02*
X-1185425D01*
X-1190505Y104140D02*
Y129540D01*
X-1195585Y104140D02*
X-1190505D01*
X-1195585D02*
Y129540D01*
X-1200665D02*
X-1195585D01*
X-1200665Y104140D02*
Y129540D01*
X-1205745Y104140D02*
X-1200665D01*
X-1205745D02*
Y129540D01*
X-1210825D02*
X-1205745D01*
X-1210825Y104140D02*
Y129540D01*
X-1215905Y104140D02*
X-1210825D01*
X-1215905D02*
Y129540D01*
X-1220985D02*
X-1215905D01*
X-1220985Y104140D02*
Y129540D01*
X-1226065Y104140D02*
X-1220985D01*
X-1226065D02*
Y129540D01*
X-1231145D02*
X-1226065D01*
X-1231145Y104140D02*
Y129540D01*
X-1236225Y104140D02*
X-1231145D01*
X-1236225D02*
Y129540D01*
X-1241305D02*
X-1236225D01*
X-1241305Y104140D02*
Y129540D01*
X-1246385Y104140D02*
X-1241305D01*
X-1246385D02*
Y129540D01*
X-1251465D02*
X-1246385D01*
X-1251465Y104140D02*
Y129540D01*
X-1256545Y104140D02*
X-1251465D01*
X-1256545D02*
Y129540D01*
X-1261625D02*
X-1256545D01*
X-1261625Y116840D02*
Y129540D01*
X-1262895Y116840D02*
X-1261625D01*
X-1441760D02*
X-1262895D01*
X-1586591Y207010D02*
X-1562462Y231140D01*
X-1402442D02*
X-1256392Y377190D01*
X-1562462Y231140D02*
X-1402442D01*
X-1256392Y377190D02*
Y681990D01*
X-1153521Y116840D02*
X-1145901D01*
X-1256392Y698500D02*
Y703580D01*
X-1269091Y698500D02*
X-1256392D01*
X-1269091Y693420D02*
Y698500D01*
Y693420D02*
X-1243691D01*
Y688340D02*
Y693420D01*
X-1269091Y688340D02*
X-1243691D01*
X-1269091Y683260D02*
Y688340D01*
Y683260D02*
X-1256392D01*
Y681990D02*
Y683260D01*
Y703580D02*
Y731983D01*
X-1518640Y193720D02*
X-1441760Y116840D01*
X-1256392Y731983D02*
X-1221295Y767080D01*
X-1134472D01*
X-412808Y913631D02*
X-412724Y913714D01*
X-412891Y607503D02*
X-412808Y607586D01*
X-1629772Y830490D02*
X-1604442Y855820D01*
X-1629772Y726440D02*
Y830490D01*
X-1443461Y723900D02*
X-1389742Y777620D01*
X-1488802Y723900D02*
X-1443461D01*
D20*
X-412844Y201994D02*
Y430594D01*
X-412808Y607586D02*
Y913631D01*
X-1430381Y807720D02*
Y810260D01*
X-1503530Y747396D02*
X-1490706D01*
X-1430381Y807720D01*
D26*
X-1562099Y292100D02*
X-1553862Y283862D01*
X-1569720Y292100D02*
X-1562099D01*
X-1574800Y287020D02*
X-1569720Y292100D01*
X-1574800Y259080D02*
X-1572260Y256540D01*
X-1574800Y259080D02*
Y287020D01*
X-1490361Y271162D02*
X-1482433Y263233D01*
X-1474377D01*
X-1469390Y268220D01*
Y286804D01*
X-1473799Y291213D02*
Y299244D01*
Y291213D02*
X-1469390Y286804D01*
X-649585Y403640D02*
X-619294Y433932D01*
X-701199Y265684D02*
X-649585Y317297D01*
Y403640D01*
X-702672Y269240D02*
X-653141Y318770D01*
Y405113D01*
X-620767Y437488D01*
X-1114882Y265684D02*
X-701199D01*
X-1116355Y269240D02*
X-702672D01*
X-1122574Y257991D02*
X-1114882Y265684D01*
X-1125089Y260506D02*
X-1116355Y269240D01*
X-620767Y437488D02*
X-616924D01*
X-614432Y439980D02*
X-613772D01*
X-619294Y433932D02*
X-616924D01*
Y437488D02*
X-614432Y439980D01*
Y431440D02*
X-613772D01*
X-616924Y433932D02*
X-614432Y431440D01*
X-1123042Y254000D02*
X-1122574Y254467D01*
Y257991D01*
X-1128613Y260506D02*
X-1125089D01*
X-1129080Y260039D02*
X-1128613Y260506D01*
X-613162Y391335D02*
X-612501D01*
X-615654Y393827D02*
X-613162Y391335D01*
X-618024Y393827D02*
X-615654D01*
X-639426Y372425D02*
X-618024Y393827D01*
X-639426Y314757D02*
Y372425D01*
X-698405Y255778D02*
X-639426Y314757D01*
X-613162Y399875D02*
X-612501D01*
X-615654Y397383D02*
X-613162Y399875D01*
X-619497Y397383D02*
X-615654D01*
X-642981Y373898D02*
X-619497Y397383D01*
X-642981Y316230D02*
Y373898D01*
X-699877Y259334D02*
X-642981Y316230D01*
X-1090701Y259334D02*
X-699877D01*
X-1100182Y241300D02*
X-1099714Y241767D01*
X-1106220Y247339D02*
X-1105753Y247806D01*
X-1089228Y255778D02*
X-698405D01*
X-1105753Y247806D02*
X-1102229D01*
X-1090701Y259334D01*
X-1099714Y241767D02*
Y245291D01*
X-1089228Y255778D01*
X-1088752Y231140D02*
X-1088285Y231607D01*
X-1084760D01*
X-1063637Y252730D01*
X-693782D01*
X-1082713Y225101D02*
X-1082246Y225568D01*
Y229093D01*
X-1062164Y249174D01*
X-692309D01*
X-693782Y252730D02*
X-633838Y312674D01*
X-630281Y311201D02*
Y339044D01*
X-692309Y249174D02*
X-630281Y311201D01*
X-619497Y354858D02*
X-615654D01*
X-613162Y348810D02*
X-612501D01*
X-615654Y354858D02*
X-613162Y357350D01*
X-633838Y340517D02*
X-619497Y354858D01*
X-633838Y312674D02*
Y340517D01*
X-613162Y357350D02*
X-612501D01*
X-615654Y351302D02*
X-613162Y348810D01*
X-618024Y351302D02*
X-615654D01*
X-630281Y339044D02*
X-618024Y351302D01*
X-1069702Y222250D02*
X-1069234Y222717D01*
X-1065710D01*
X-1044841Y243586D01*
X-1063663Y216211D02*
X-1063196Y216678D01*
Y220203D01*
X-1043368Y240030D01*
X-613162Y316055D02*
X-612501D01*
X-615654Y313563D02*
X-613162Y316055D01*
X-691887Y243586D02*
X-621910Y313563D01*
X-1044841Y243586D02*
X-691887D01*
X-613162Y307515D02*
X-612501D01*
X-690414Y240030D02*
X-620437Y310007D01*
X-621910Y313563D02*
X-615654D01*
Y310007D02*
X-613162Y307515D01*
X-620437Y310007D02*
X-615654D01*
X-1043368Y240030D02*
X-690414D01*
X-1053503Y823919D02*
X-1053036Y823452D01*
Y819927D02*
Y823452D01*
Y819927D02*
X-982154Y749046D01*
X-1059541Y817880D02*
X-1059074Y817413D01*
X-1055550D01*
X-983627Y745490D01*
X-667137Y739368D02*
X-618377Y690608D01*
X-982154Y749046D02*
X-676815D01*
X-668394Y740626D01*
Y740626D02*
Y740626D01*
Y740626D02*
X-667137Y739368D01*
X-983627Y745490D02*
X-678288D01*
X-619850Y687052D01*
X-615654D01*
X-613162Y693100D02*
X-612501D01*
X-618377Y690608D02*
X-615654D01*
X-613162Y684560D02*
X-612501D01*
X-615654Y690608D02*
X-613162Y693100D01*
X-615654Y687052D02*
X-613162Y684560D01*
X-1078369Y816833D02*
X-1076486Y814950D01*
X-649078Y677798D02*
Y705866D01*
X-681081Y737870D02*
X-649078Y705866D01*
Y677798D02*
X-618227Y646947D01*
X-998355Y737870D02*
X-681081D01*
X-614384Y646947D02*
X-611892Y644455D01*
X-618227Y646947D02*
X-614384D01*
X-611892Y644455D02*
X-611231D01*
X-611892Y652995D02*
X-611231D01*
X-645521Y679271D02*
Y707339D01*
X-614384Y650503D02*
X-611892Y652995D01*
X-645521Y679271D02*
X-616754Y650503D01*
X-614384D01*
X-679609Y741426D02*
X-645521Y707339D01*
X-996882Y741426D02*
X-679609D01*
X-1073823Y821379D02*
X-1073100Y820656D01*
Y817644D02*
Y820656D01*
Y817644D02*
X-996882Y741426D01*
X-1076486Y814950D02*
X-1075435D01*
X-998355Y737870D01*
X-656697Y641623D02*
Y702107D01*
X-663301Y611961D02*
Y698246D01*
X-690226Y725170D02*
X-663301Y698246D01*
X-1056665Y730250D02*
X-684840D01*
X-666858Y610488D02*
Y696773D01*
X-1071023Y725170D02*
X-690226D01*
X-684840Y730250D02*
X-656697Y702107D01*
X-1055192Y733806D02*
X-683367D01*
X-691698Y721614D02*
X-666858Y696773D01*
X-1072495Y721614D02*
X-691698D01*
X-683367Y733806D02*
X-653141Y703580D01*
Y643096D02*
Y703580D01*
X-1103568Y752686D02*
X-1072495Y721614D01*
X-1100012Y754159D02*
X-1071023Y725170D01*
X-615654Y604422D02*
X-613162Y601930D01*
X-612501D01*
X-619497Y604422D02*
X-615654D01*
X-656697Y641623D02*
X-619497Y604422D01*
X-613162Y610470D02*
X-612501D01*
X-615654Y607978D02*
X-613162Y610470D01*
X-618024Y607978D02*
X-615654D01*
X-653141Y643096D02*
X-618024Y607978D01*
X-1097642Y779780D02*
X-1097174Y779313D01*
Y775789D02*
Y779313D01*
Y775789D02*
X-1055192Y733806D01*
X-1103680Y773741D02*
X-1103213Y773274D01*
X-1099689D01*
X-1056665Y730250D01*
X-613162Y569175D02*
X-612501D01*
X-615654Y566683D02*
X-613162Y569175D01*
X-663301Y611961D02*
X-618024Y566683D01*
X-615654D01*
X-613162Y560635D02*
X-612501D01*
X-619497Y563127D02*
X-615654D01*
X-666858Y610488D02*
X-619497Y563127D01*
X-615654D02*
X-613162Y560635D01*
X-1110030Y755961D02*
X-1109563Y755494D01*
X-1106039D01*
X-1103524Y758009D02*
Y761533D01*
X-1103991Y762000D02*
X-1103524Y761533D01*
X-1106039Y755494D02*
X-1103568Y753023D01*
X-1100012Y754159D02*
Y754496D01*
X-1103524Y758009D02*
X-1100012Y754496D01*
X-1103568Y752686D02*
Y753023D01*
D78*
X-198981Y220980D02*
X-166621Y253340D01*
X-224304Y220980D02*
X-198981D01*
X-178440Y258235D02*
X-171517Y265158D01*
X-161726D02*
X-152569Y256000D01*
X-171517Y265158D02*
X-161726D01*
X-152569Y251987D02*
Y256000D01*
X-178440Y248642D02*
Y258235D01*
X-152569Y251987D02*
X-141222Y240640D01*
X-200767Y226314D02*
X-178440Y248642D01*
X-222095Y226314D02*
X-200767D01*
X-261798Y258473D02*
X-224304Y220980D01*
X-297125Y297425D02*
X-295519D01*
X-256464Y260683D02*
X-222095Y226314D01*
X-299420Y299720D02*
X-297125Y297425D01*
X-256464Y260683D02*
Y265912D01*
X-291747Y301196D02*
Y302802D01*
X-294043Y305097D02*
X-291747Y302802D01*
X-294043Y305097D02*
Y305759D01*
X-261798Y258473D02*
Y263703D01*
X-295519Y297425D02*
X-261798Y263703D01*
X-300082Y299720D02*
X-299420D01*
X-291747Y301196D02*
X-256464Y265912D01*
X-188321Y327660D02*
X-166621Y305960D01*
Y304140D02*
Y305960D01*
X-190861Y322580D02*
X-178440Y310158D01*
Y299245D02*
Y310158D01*
X-152569Y277387D02*
Y281401D01*
X-163268Y292100D02*
X-152569Y281401D01*
Y277387D02*
X-141222Y266040D01*
X-171517Y292322D02*
X-170763D01*
X-178440Y299245D02*
X-171517Y292322D01*
X-170541Y292100D02*
X-163268D01*
X-170763Y292322D02*
X-170541Y292100D01*
X-262846Y394603D02*
X-190861Y322618D01*
X-188360Y327660D02*
X-188321D01*
X-297029Y393274D02*
X-294169D01*
X-292841Y394603D02*
X-262846D01*
X-260637Y399937D02*
X-188360Y327660D01*
X-297497Y392807D02*
X-297029Y393274D01*
X-297497Y401733D02*
X-297029Y401265D01*
X-292841Y399937D02*
X-260637D01*
X-294169Y393274D02*
X-292841Y394603D01*
X-190861Y322580D02*
Y322618D01*
X-294169Y401265D02*
X-292841Y399937D01*
X-297029Y401265D02*
X-294169D01*
X-171557Y684530D02*
X-161998D01*
X-172542Y685514D02*
X-172541D01*
X-171557Y684530D01*
X-167341Y672440D02*
X-166621D01*
X-190861Y695960D02*
Y734974D01*
Y695960D02*
X-167341Y672440D01*
X-161998Y684530D02*
X-154745Y677276D01*
X-185527Y698500D02*
X-172542Y685514D01*
X-154745Y677276D02*
Y677276D01*
X-141222Y659740D02*
Y662837D01*
X-144734Y666349D02*
X-141222Y662837D01*
X-144734Y666349D02*
Y667266D01*
X-154745Y677276D02*
X-144734Y667266D01*
X-195189Y739302D02*
X-190861Y734974D01*
X-195189Y739302D02*
Y742198D01*
X-185527Y698500D02*
Y737183D01*
X-189855Y741511D02*
X-185527Y737183D01*
X-189855Y741511D02*
Y744407D01*
X-274169Y784954D02*
X-271309D01*
X-269981Y786283D01*
X-274637Y793413D02*
X-274169Y792945D01*
X-237065Y791617D02*
X-189855Y744407D01*
X-274637Y784487D02*
X-274169Y784954D01*
X-269981Y786283D02*
X-239274D01*
X-195189Y742198D01*
X-274169Y792945D02*
X-271309D01*
X-269981Y791617D01*
X-237065D01*
X-229836Y794625D02*
Y815942D01*
Y794625D02*
X-183265Y748054D01*
X-178440Y718345D02*
Y736920D01*
X-183265Y741746D02*
Y748054D01*
Y741746D02*
X-178440Y736920D01*
X-224502Y798181D02*
Y818151D01*
Y798181D02*
X-178440Y752118D01*
Y743745D02*
X-168690Y733996D01*
X-178440Y743745D02*
Y752118D01*
X-168690Y725309D02*
Y733996D01*
X-151491Y701040D02*
Y701040D01*
X-143411Y687330D02*
X-141222Y685140D01*
X-143411Y687330D02*
Y692960D01*
X-151491Y701040D02*
X-143411Y692960D01*
X-161873Y711422D02*
X-151491Y701040D01*
X-168690Y725309D02*
X-166621Y723240D01*
X-171517Y711422D02*
X-161873D01*
X-178440Y718345D02*
X-171517Y711422D01*
X-273967Y867616D02*
X-224502Y818151D01*
X-273967Y867616D02*
Y869222D01*
X-276263Y871517D02*
Y872179D01*
X-277739Y863845D02*
X-229836Y815942D01*
X-276263Y871517D02*
X-273967Y869222D01*
X-279345Y863845D02*
X-277739D01*
X-281640Y866140D02*
X-279345Y863845D01*
X-282302Y866140D02*
X-281640D01*
D80*
X-1477661Y283862D02*
D03*
Y271162D02*
D03*
X-1490361Y283862D02*
D03*
Y271162D02*
D03*
X-1503062Y283862D02*
D03*
Y271162D02*
D03*
X-1515762Y283862D02*
D03*
Y271162D02*
D03*
X-1528461Y283862D02*
D03*
Y271162D02*
D03*
X-1541161Y283862D02*
D03*
Y271162D02*
D03*
X-1553862Y283862D02*
D03*
Y271162D02*
D03*
X-1566561Y283862D02*
D03*
Y271162D02*
D03*
D81*
X-1547222Y431800D02*
D03*
X-1361801Y198120D02*
D03*
X-1288141Y337820D02*
D03*
X-1620882Y182880D02*
D03*
X-1384662Y149860D02*
D03*
X-1491342Y431800D02*
D03*
X-1438002Y119380D02*
D03*
X-1445621Y457200D02*
D03*
X-1565741Y945120D02*
D03*
X-1384742Y829120D02*
D03*
X-1321161Y723900D02*
D03*
X-1600562Y774700D02*
D03*
X-1280522Y955040D02*
D03*
D82*
X-1695000Y940000D02*
D03*
X-1695002Y60000D02*
D03*
D83*
X-32002Y789280D02*
D03*
X-136396Y776072D02*
D03*
X-191514Y789280D02*
D03*
X-232407Y200000D02*
D03*
X-169161Y206604D02*
D03*
X-32002Y200000D02*
D03*
D84*
X-77722Y761340D02*
D03*
Y227940D02*
D03*
D85*
X-141222Y240640D02*
D03*
X-166621Y253340D02*
D03*
X-141222Y266040D02*
D03*
X-166621Y278740D02*
D03*
X-141222Y291440D02*
D03*
X-166621Y304140D02*
D03*
X-141222Y316840D02*
D03*
X-166621Y329540D02*
D03*
Y469240D02*
D03*
X-141222Y456540D02*
D03*
X-166621Y443840D02*
D03*
X-141222Y431140D02*
D03*
X-166621Y418440D02*
D03*
X-141222Y405740D02*
D03*
X-166621Y393040D02*
D03*
X-141222Y380340D02*
D03*
X-166621Y608940D02*
D03*
X-141222Y596240D02*
D03*
X-166621Y583540D02*
D03*
X-141222Y570840D02*
D03*
X-166621Y558140D02*
D03*
X-141222Y545440D02*
D03*
X-166621Y532740D02*
D03*
X-141222Y520040D02*
D03*
X-166621Y748640D02*
D03*
X-141222Y735940D02*
D03*
X-166621Y723240D02*
D03*
X-141222Y710540D02*
D03*
X-166621Y697840D02*
D03*
X-141222Y685140D02*
D03*
X-166621Y672440D02*
D03*
X-141222Y659740D02*
D03*
X-207008D02*
D03*
X-232407Y672440D02*
D03*
X-207008Y685140D02*
D03*
X-232407Y697840D02*
D03*
X-207008Y710540D02*
D03*
X-232407Y723240D02*
D03*
X-207008Y735940D02*
D03*
X-232407Y748640D02*
D03*
X-207008Y520040D02*
D03*
X-232407Y532740D02*
D03*
X-207008Y545440D02*
D03*
X-232407Y558140D02*
D03*
X-207008Y570840D02*
D03*
X-232407Y583540D02*
D03*
X-207008Y596240D02*
D03*
X-232407Y608940D02*
D03*
X-207008Y380340D02*
D03*
X-232407Y393040D02*
D03*
X-207008Y405740D02*
D03*
X-232407Y418440D02*
D03*
X-207008Y431140D02*
D03*
X-232407Y443840D02*
D03*
X-207008Y456540D02*
D03*
X-232407Y469240D02*
D03*
Y329540D02*
D03*
X-207008Y316840D02*
D03*
X-232407Y304140D02*
D03*
X-207008Y291440D02*
D03*
X-232407Y278740D02*
D03*
X-207008Y266040D02*
D03*
X-232407Y253340D02*
D03*
X-207008Y240640D02*
D03*
D86*
X-1604442Y855820D02*
D03*
X-1579041D02*
D03*
X-1604442Y830420D02*
D03*
X-1579041D02*
D03*
D87*
X-1395741Y901620D02*
D03*
Y876620D02*
D03*
X-1453741Y922120D02*
D03*
X-1478741D02*
D03*
X-1122291Y843100D02*
D03*
Y637920D02*
D03*
Y422020D02*
D03*
Y208660D02*
D03*
D88*
X-1482090Y297470D02*
D03*
X-1572260Y256540D02*
D03*
X-1522782Y259080D02*
D03*
X-1473799Y299244D02*
D03*
X-1513609Y294871D02*
D03*
X-1547277Y257015D02*
D03*
X-1541001Y173000D02*
D03*
X-587252Y940750D02*
D03*
X-588251Y709250D02*
D03*
Y456500D02*
D03*
X-581251Y245500D02*
D03*
X-981002Y228000D02*
D03*
X-976252Y459000D02*
D03*
X-955751Y709500D02*
D03*
X-955501Y940500D02*
D03*
X-1426501Y424000D02*
D03*
X-1147001Y865000D02*
D03*
X-1155340Y851768D02*
D03*
X-1147001Y660000D02*
D03*
X-1155132Y646380D02*
D03*
X-1147001Y230000D02*
D03*
X-1155132Y217120D02*
D03*
Y430480D02*
D03*
X-1578972Y154940D02*
D03*
X-1578721Y181247D02*
D03*
X-1540273Y205565D02*
D03*
X-1528427Y220724D02*
D03*
X-918826Y433685D02*
D03*
X-906905Y431551D02*
D03*
X-925176Y403205D02*
D03*
X-906787Y405518D02*
D03*
X-923906Y377805D02*
D03*
X-906784Y380518D02*
D03*
X-923767Y348682D02*
D03*
X-906783Y355518D02*
D03*
X-801599Y431729D02*
D03*
X-786843Y431242D02*
D03*
X-801761Y405518D02*
D03*
X-784206Y403205D02*
D03*
X-801765Y380518D02*
D03*
X-784206Y375265D02*
D03*
X-801766Y355518D02*
D03*
X-784206Y349865D02*
D03*
X-892782Y403205D02*
D03*
Y377805D02*
D03*
Y353675D02*
D03*
X-893426Y330518D02*
D03*
X-836953Y400475D02*
D03*
X-837546Y375265D02*
D03*
X-837032Y350475D02*
D03*
X-530071Y432550D02*
D03*
X-518150Y430416D02*
D03*
X-536422Y402070D02*
D03*
X-518032Y404383D02*
D03*
X-535151Y376670D02*
D03*
X-518029Y379383D02*
D03*
X-535012Y347547D02*
D03*
X-518028Y354383D02*
D03*
X-412844Y430594D02*
D03*
X-398089Y430107D02*
D03*
X-413006Y404383D02*
D03*
X-395452Y402070D02*
D03*
X-413010Y379383D02*
D03*
X-395452Y374130D02*
D03*
X-413011Y354383D02*
D03*
X-395452Y348730D02*
D03*
X-504027Y402070D02*
D03*
Y376670D02*
D03*
Y352540D02*
D03*
X-504672Y329383D02*
D03*
X-448198Y399340D02*
D03*
X-448792Y374130D02*
D03*
X-448277Y349340D02*
D03*
X-921232Y203950D02*
D03*
X-909310Y201816D02*
D03*
X-927581Y173470D02*
D03*
X-909192Y175783D02*
D03*
X-926311Y148070D02*
D03*
X-909189Y150783D02*
D03*
X-926172Y118947D02*
D03*
X-909188Y125783D02*
D03*
X-804004Y201994D02*
D03*
X-789249Y201507D02*
D03*
X-804166Y175783D02*
D03*
X-786611Y173470D02*
D03*
X-804170Y150783D02*
D03*
X-786611Y145530D02*
D03*
X-804171Y125783D02*
D03*
X-786611Y120130D02*
D03*
X-895188Y173470D02*
D03*
Y148070D02*
D03*
Y123940D02*
D03*
X-895832Y100783D02*
D03*
X-839358Y170740D02*
D03*
X-839951Y145530D02*
D03*
X-839437Y120740D02*
D03*
X-919951Y685670D02*
D03*
X-908030Y683536D02*
D03*
X-926301Y655190D02*
D03*
X-907913Y657503D02*
D03*
X-925032Y629790D02*
D03*
X-907909Y632503D02*
D03*
X-924892Y600667D02*
D03*
X-907908Y607503D02*
D03*
X-802724Y683714D02*
D03*
X-787969Y683227D02*
D03*
X-802887Y657503D02*
D03*
X-785331Y655190D02*
D03*
X-802890Y632503D02*
D03*
X-785331Y627250D02*
D03*
X-802891Y607503D02*
D03*
X-785331Y601850D02*
D03*
X-893907Y655190D02*
D03*
Y629790D02*
D03*
Y605660D02*
D03*
X-894551Y582503D02*
D03*
X-838078Y652460D02*
D03*
X-838671Y627250D02*
D03*
X-838157Y602460D02*
D03*
X-919951Y915670D02*
D03*
X-908030Y913536D02*
D03*
X-926301Y885190D02*
D03*
X-907913Y887503D02*
D03*
X-925032Y859790D02*
D03*
X-907909Y862503D02*
D03*
X-924892Y830667D02*
D03*
X-907908Y837503D02*
D03*
X-802724Y913714D02*
D03*
X-787969Y913227D02*
D03*
X-802887Y887503D02*
D03*
X-785331Y885190D02*
D03*
X-802890Y862503D02*
D03*
X-785331Y857250D02*
D03*
X-802891Y837503D02*
D03*
X-785331Y831850D02*
D03*
X-893907Y885190D02*
D03*
Y859790D02*
D03*
Y835660D02*
D03*
X-894551Y812503D02*
D03*
X-838078Y882460D02*
D03*
X-838671Y857250D02*
D03*
X-838157Y832460D02*
D03*
X-530071Y203950D02*
D03*
X-518150Y201816D02*
D03*
X-536422Y173470D02*
D03*
X-518032Y175783D02*
D03*
X-535151Y148070D02*
D03*
X-518029Y150783D02*
D03*
X-535012Y118947D02*
D03*
X-518028Y125783D02*
D03*
X-412844Y201994D02*
D03*
X-398089Y201507D02*
D03*
X-413006Y175783D02*
D03*
X-395452Y173470D02*
D03*
X-413010Y150783D02*
D03*
X-395452Y145530D02*
D03*
X-413011Y125783D02*
D03*
X-395452Y120130D02*
D03*
X-504027Y173470D02*
D03*
Y148070D02*
D03*
Y123940D02*
D03*
X-504672Y100783D02*
D03*
X-448198Y170740D02*
D03*
X-448792Y145530D02*
D03*
X-448277Y120740D02*
D03*
X-529952Y685670D02*
D03*
X-518030Y683536D02*
D03*
X-536301Y655190D02*
D03*
X-517912Y657503D02*
D03*
X-535032Y629790D02*
D03*
X-517909Y632503D02*
D03*
X-534892Y600667D02*
D03*
X-517908Y607503D02*
D03*
X-412724Y683714D02*
D03*
X-397969Y683227D02*
D03*
X-412886Y657503D02*
D03*
X-395331Y655190D02*
D03*
X-412890Y632503D02*
D03*
X-395331Y627250D02*
D03*
X-412891Y607503D02*
D03*
X-395331Y601850D02*
D03*
X-503908Y655190D02*
D03*
Y629790D02*
D03*
Y605660D02*
D03*
X-504552Y582503D02*
D03*
X-448078Y652460D02*
D03*
X-448671Y627250D02*
D03*
X-448157Y602460D02*
D03*
X-395331Y831850D02*
D03*
Y857250D02*
D03*
Y885190D02*
D03*
X-397969Y913227D02*
D03*
X-448157Y832460D02*
D03*
X-448671Y857250D02*
D03*
X-448078Y882460D02*
D03*
X-534892Y830667D02*
D03*
X-535032Y859790D02*
D03*
X-536301Y885190D02*
D03*
X-529952Y915670D02*
D03*
X-518030Y913536D02*
D03*
X-517912Y887503D02*
D03*
X-517909Y862503D02*
D03*
X-517908Y837503D02*
D03*
X-504552Y812503D02*
D03*
X-503908Y885190D02*
D03*
Y859790D02*
D03*
Y835660D02*
D03*
X-412891Y837503D02*
D03*
X-412724Y913714D02*
D03*
X-412886Y887503D02*
D03*
X-412890Y862503D02*
D03*
X-1192891Y260910D02*
D03*
X-1196702Y291390D02*
D03*
X-1178922Y299010D02*
D03*
X-1139551Y140260D02*
D03*
X-1157331Y159310D02*
D03*
X-1168762Y272340D02*
D03*
X-1192891Y474270D02*
D03*
X-1196702Y504750D02*
D03*
X-1178922Y512370D02*
D03*
X-1139551Y353620D02*
D03*
X-1157331Y372670D02*
D03*
X-1168762Y485700D02*
D03*
X-1192891Y690170D02*
D03*
X-1196702Y720650D02*
D03*
X-1178922Y728270D02*
D03*
X-1139551Y569520D02*
D03*
X-1157331Y588570D02*
D03*
X-1168762Y701600D02*
D03*
X-1157331Y793750D02*
D03*
X-1139551Y774700D02*
D03*
X-1178922Y933450D02*
D03*
X-1168762Y906780D02*
D03*
X-1192891Y895350D02*
D03*
X-1196702Y925830D02*
D03*
D89*
X-693737Y600207D02*
D03*
X-1147001Y445000D02*
D03*
X-1270361Y189230D02*
D03*
X-1164951Y172720D02*
D03*
X-1415141Y508000D02*
D03*
X-1156061Y182880D02*
D03*
X-1469751Y513080D02*
D03*
X-1178922Y182880D02*
D03*
X-1523091Y524510D02*
D03*
X-1418952Y529590D02*
D03*
X-1426572Y558800D02*
D03*
X-1413871Y499110D02*
D03*
X-1477372Y529590D02*
D03*
X-1484991Y557530D02*
D03*
X-1472292Y499110D02*
D03*
X-1536391Y532730D02*
D03*
X-1543412Y557530D02*
D03*
X-1529442Y499110D02*
D03*
X-1177652Y396240D02*
D03*
X-1163681Y383540D02*
D03*
X-1156061Y396240D02*
D03*
X-1164951Y600710D02*
D03*
X-1177652Y612140D02*
D03*
X-1154791D02*
D03*
X-1173841Y817880D02*
D03*
X-1163681Y806450D02*
D03*
X-1154902Y817990D02*
D03*
X-1413871Y180340D02*
D03*
X-1457052Y193040D02*
D03*
X-1477372Y175260D02*
D03*
X-1145901Y116840D02*
D03*
X-1134472Y767080D02*
D03*
X-1518640Y193720D02*
D03*
X-1586591Y207010D02*
D03*
X-1420222Y576580D02*
D03*
X-1402442Y566420D02*
D03*
X-1478642Y576580D02*
D03*
X-1537061D02*
D03*
X-1461914Y567026D02*
D03*
X-1520334Y567026D02*
D03*
X-1518011Y486410D02*
D03*
X-1458322D02*
D03*
X-1399901D02*
D03*
X-1533251Y445770D02*
D03*
X-1416411D02*
D03*
X-1474832D02*
D03*
X-1459592Y384810D02*
D03*
X-1496422Y364490D02*
D03*
X-1496160Y390909D02*
D03*
X-1447941Y435610D02*
D03*
X-1139551Y292100D02*
D03*
X-1143362Y513080D02*
D03*
X-1145901Y728980D02*
D03*
X-65132Y121640D02*
D03*
X-613772Y439980D02*
D03*
Y431440D02*
D03*
X-612501Y391335D02*
D03*
Y399875D02*
D03*
X-1100182Y241300D02*
D03*
X-1106220Y247339D02*
D03*
X-1088752Y231140D02*
D03*
X-1082713Y225101D02*
D03*
X-1069702Y222250D02*
D03*
X-1063663Y216211D02*
D03*
X-1129080Y260039D02*
D03*
X-1123042Y254000D02*
D03*
X-612501Y348810D02*
D03*
Y357350D02*
D03*
Y307515D02*
D03*
Y316055D02*
D03*
X-1143809Y812117D02*
D03*
X-1143446Y607191D02*
D03*
Y391291D02*
D03*
Y177931D02*
D03*
X-1059541Y817880D02*
D03*
X-1053503Y823919D02*
D03*
X-612501Y693100D02*
D03*
Y684560D02*
D03*
X-611231Y644455D02*
D03*
Y652995D02*
D03*
X-1073823Y821379D02*
D03*
X-1079862Y815340D02*
D03*
X-612501Y601930D02*
D03*
Y610470D02*
D03*
X-1103680Y773741D02*
D03*
X-1097642Y779780D02*
D03*
X-612501Y569175D02*
D03*
Y560635D02*
D03*
X-1110030Y755961D02*
D03*
X-1103991Y762000D02*
D03*
X-693737Y302502D02*
D03*
Y311428D02*
D03*
Y402868D02*
D03*
Y393942D02*
D03*
Y448588D02*
D03*
Y439662D02*
D03*
Y348222D02*
D03*
Y357148D02*
D03*
X-696277Y127413D02*
D03*
Y118487D02*
D03*
Y209927D02*
D03*
Y218853D02*
D03*
Y164207D02*
D03*
Y173133D02*
D03*
Y72767D02*
D03*
Y81693D02*
D03*
X-300082Y299720D02*
D03*
X-294043Y305759D02*
D03*
X-297497Y401733D02*
D03*
Y392807D02*
D03*
X-693737Y563413D02*
D03*
Y554487D02*
D03*
Y609133D02*
D03*
Y654853D02*
D03*
Y645927D02*
D03*
X-695007Y700573D02*
D03*
Y691647D02*
D03*
X-696277Y784487D02*
D03*
Y793413D02*
D03*
X-695007Y875927D02*
D03*
Y884853D02*
D03*
X-696277Y830207D02*
D03*
Y839133D02*
D03*
X-695004Y930641D02*
D03*
Y921579D02*
D03*
X-274637Y793413D02*
D03*
Y784487D02*
D03*
X-276263Y872179D02*
D03*
X-282302Y866140D02*
D03*
X-973436Y292715D02*
D03*
X-974706Y332085D02*
D03*
Y375265D02*
D03*
Y417175D02*
D03*
X-584682Y291580D02*
D03*
X-585951Y330950D02*
D03*
Y374130D02*
D03*
Y416040D02*
D03*
X-975842Y62980D02*
D03*
X-977112Y102350D02*
D03*
Y145530D02*
D03*
Y187440D02*
D03*
X-974561Y544700D02*
D03*
X-975832Y584070D02*
D03*
Y627250D02*
D03*
Y669160D02*
D03*
X-974561Y774700D02*
D03*
X-975832Y814070D02*
D03*
Y857250D02*
D03*
Y899160D02*
D03*
X-584682Y62980D02*
D03*
X-585951Y102350D02*
D03*
Y145530D02*
D03*
Y187440D02*
D03*
X-584562Y544700D02*
D03*
X-585831Y584070D02*
D03*
Y627250D02*
D03*
Y669160D02*
D03*
X-584562Y774700D02*
D03*
X-585831Y814070D02*
D03*
Y857250D02*
D03*
Y899160D02*
D03*
X-1194162Y208840D02*
D03*
X-1206861Y175820D02*
D03*
Y206300D02*
D03*
X-1175491Y227890D02*
D03*
X-1194162Y422200D02*
D03*
X-1206861Y389180D02*
D03*
Y419660D02*
D03*
X-1175491Y441250D02*
D03*
X-1194162Y638100D02*
D03*
X-1206861Y605080D02*
D03*
Y635560D02*
D03*
X-1175491Y657150D02*
D03*
Y862330D02*
D03*
X-1194162Y843280D02*
D03*
X-1206861Y810260D02*
D03*
Y840740D02*
D03*
X-1558651Y711200D02*
D03*
X-1629772Y726440D02*
D03*
X-1290681Y876300D02*
D03*
X-1277981D02*
D03*
X-1270361Y886460D02*
D03*
Y901700D02*
D03*
X-1277981Y911860D02*
D03*
X-1290681D02*
D03*
Y769620D02*
D03*
X-1277981D02*
D03*
X-1270361Y779780D02*
D03*
Y795020D02*
D03*
X-1277981Y805180D02*
D03*
X-1290681D02*
D03*
X-1364341Y772160D02*
D03*
Y759460D02*
D03*
X-1349102D02*
D03*
X-1333862D02*
D03*
Y772160D02*
D03*
X-1313542Y835660D02*
D03*
X-1300842D02*
D03*
Y850900D02*
D03*
Y866140D02*
D03*
X-1313542D02*
D03*
X-1488802Y723900D02*
D03*
X-1389742Y777620D02*
D03*
X-1430381Y810260D02*
D03*
X-1503530Y747396D02*
D03*
D90*
X-1134292Y855100D02*
D03*
X-1122291D02*
D03*
X-1110292D02*
D03*
Y843100D02*
D03*
X-1134292D02*
D03*
Y831100D02*
D03*
X-1122392Y831000D02*
D03*
X-1110391D02*
D03*
Y625820D02*
D03*
X-1122392D02*
D03*
X-1134292Y625920D02*
D03*
Y637920D02*
D03*
X-1110292D02*
D03*
Y649920D02*
D03*
X-1122291D02*
D03*
X-1134292D02*
D03*
Y434020D02*
D03*
X-1122291D02*
D03*
X-1110292D02*
D03*
Y422020D02*
D03*
X-1134292D02*
D03*
Y410020D02*
D03*
X-1122392Y409920D02*
D03*
X-1110391D02*
D03*
Y196560D02*
D03*
X-1122392D02*
D03*
X-1134292Y196660D02*
D03*
Y208660D02*
D03*
X-1110292D02*
D03*
Y220660D02*
D03*
X-1122291D02*
D03*
X-1134292D02*
D03*
D91*
X-1480741Y792620D02*
D03*
Y781620D02*
D03*
X-1491741Y792620D02*
D03*
Y781620D02*
D03*
X-1502742Y792620D02*
D03*
Y781620D02*
D03*
M02*
