G04*
G04 #@! TF.GenerationSoftware,Altium Limited,Altium Designer,20.1.11 (218)*
G04*
G04 Layer_Color=16711935*
%FSLAX44Y44*%
%MOMM*%
G71*
G04*
G04 #@! TF.SameCoordinates,4A1F8FCE-740B-4DEC-BBDA-7CBAB7B043B4*
G04*
G04*
G04 #@! TF.FilePolarity,Negative*
G04*
G01*
G75*
%ADD68C,1.1032*%
%ADD69C,2.7432*%
%ADD70C,1.3032*%
%ADD71C,2.6032*%
%ADD72C,3.4032*%
%ADD73C,1.7032*%
%ADD74C,1.6764*%
%ADD75C,1.5032*%
D68*
X-1477661Y283862D02*
D03*
Y271162D02*
D03*
X-1490361Y283862D02*
D03*
Y271162D02*
D03*
X-1503062Y283862D02*
D03*
Y271162D02*
D03*
X-1515762Y283862D02*
D03*
Y271162D02*
D03*
X-1528461Y283862D02*
D03*
Y271162D02*
D03*
X-1541161Y283862D02*
D03*
Y271162D02*
D03*
X-1553862Y283862D02*
D03*
Y271162D02*
D03*
X-1566561Y283862D02*
D03*
Y271162D02*
D03*
D69*
X-1547222Y431800D02*
D03*
X-1361801Y198120D02*
D03*
X-1288141Y337820D02*
D03*
X-1620882Y182880D02*
D03*
X-1384662Y149860D02*
D03*
X-1491342Y431800D02*
D03*
X-1438002Y119380D02*
D03*
X-1445621Y457200D02*
D03*
X-1565741Y945120D02*
D03*
X-1384742Y829120D02*
D03*
X-1321161Y723900D02*
D03*
X-1600562Y774700D02*
D03*
X-1280522Y955040D02*
D03*
D70*
X-1695000Y940000D02*
D03*
X-1695002Y60000D02*
D03*
D71*
X-32002Y789280D02*
D03*
X-136396Y776072D02*
D03*
X-191514Y789280D02*
D03*
X-232407Y200000D02*
D03*
X-169161Y206604D02*
D03*
X-32002Y200000D02*
D03*
D72*
X-77722Y761340D02*
D03*
Y227940D02*
D03*
D73*
X-141222Y240640D02*
D03*
X-166621Y253340D02*
D03*
X-141222Y266040D02*
D03*
X-166621Y278740D02*
D03*
X-141222Y291440D02*
D03*
X-166621Y304140D02*
D03*
X-141222Y316840D02*
D03*
X-166621Y329540D02*
D03*
Y469240D02*
D03*
X-141222Y456540D02*
D03*
X-166621Y443840D02*
D03*
X-141222Y431140D02*
D03*
X-166621Y418440D02*
D03*
X-141222Y405740D02*
D03*
X-166621Y393040D02*
D03*
X-141222Y380340D02*
D03*
X-166621Y608940D02*
D03*
X-141222Y596240D02*
D03*
X-166621Y583540D02*
D03*
X-141222Y570840D02*
D03*
X-166621Y558140D02*
D03*
X-141222Y545440D02*
D03*
X-166621Y532740D02*
D03*
X-141222Y520040D02*
D03*
X-166621Y748640D02*
D03*
X-141222Y735940D02*
D03*
X-166621Y723240D02*
D03*
X-141222Y710540D02*
D03*
X-166621Y697840D02*
D03*
X-141222Y685140D02*
D03*
X-166621Y672440D02*
D03*
X-141222Y659740D02*
D03*
X-207008D02*
D03*
X-232407Y672440D02*
D03*
X-207008Y685140D02*
D03*
X-232407Y697840D02*
D03*
X-207008Y710540D02*
D03*
X-232407Y723240D02*
D03*
X-207008Y735940D02*
D03*
X-232407Y748640D02*
D03*
X-207008Y520040D02*
D03*
X-232407Y532740D02*
D03*
X-207008Y545440D02*
D03*
X-232407Y558140D02*
D03*
X-207008Y570840D02*
D03*
X-232407Y583540D02*
D03*
X-207008Y596240D02*
D03*
X-232407Y608940D02*
D03*
X-207008Y380340D02*
D03*
X-232407Y393040D02*
D03*
X-207008Y405740D02*
D03*
X-232407Y418440D02*
D03*
X-207008Y431140D02*
D03*
X-232407Y443840D02*
D03*
X-207008Y456540D02*
D03*
X-232407Y469240D02*
D03*
Y329540D02*
D03*
X-207008Y316840D02*
D03*
X-232407Y304140D02*
D03*
X-207008Y291440D02*
D03*
X-232407Y278740D02*
D03*
X-207008Y266040D02*
D03*
X-232407Y253340D02*
D03*
X-207008Y240640D02*
D03*
D74*
X-1604442Y855820D02*
D03*
X-1579041D02*
D03*
X-1604442Y830420D02*
D03*
X-1579041D02*
D03*
D75*
X-1395741Y901620D02*
D03*
Y876620D02*
D03*
X-1453741Y922120D02*
D03*
X-1478741D02*
D03*
M02*
