G04*
G04 #@! TF.GenerationSoftware,Altium Limited,Altium Designer,20.1.11 (218)*
G04*
G04 Layer_Physical_Order=3*
G04 Layer_Color=16440176*
%FSLAX44Y44*%
%MOMM*%
G71*
G04*
G04 #@! TF.SameCoordinates,4A1F8FCE-740B-4DEC-BBDA-7CBAB7B043B4*
G04*
G04*
G04 #@! TF.FilePolarity,Positive*
G04*
G01*
G75*
%ADD19C,0.2540*%
%ADD20C,0.5080*%
%ADD27C,0.1778*%
%ADD77C,0.3556*%
%ADD79C,0.9000*%
%ADD84C,1.5000*%
%ADD87C,0.4500*%
%ADD88C,0.6000*%
D19*
X-1373232Y675640D02*
X-1369476D01*
X-1375421Y673450D02*
X-1373232Y675640D01*
X-1375421Y673450D02*
X-1366441Y664470D01*
X-1370033Y660878D02*
X-1366441Y664470D01*
X-1387994Y678838D02*
X-1370033Y660878D01*
X-1391586Y675246D02*
X-1387994Y678838D01*
X-1391586Y675246D02*
X-1373625Y657286D01*
X-1377217Y653693D02*
X-1373625Y657286D01*
X-1395178Y671654D02*
X-1377217Y653693D01*
X-1398770Y668062D02*
X-1395178Y671654D01*
X-1398770Y668062D02*
X-1380809Y650101D01*
X-1384402Y646509D02*
X-1380809Y650101D01*
X-1402362Y664470D02*
X-1384402Y646509D01*
X-1405954Y660878D02*
X-1402362Y664470D01*
X-1405954Y660878D02*
X-1387994Y642917D01*
X-1391586Y639325D02*
X-1387994Y642917D01*
X-1409546Y657286D02*
X-1391586Y639325D01*
X-1413138Y653694D02*
X-1409546Y657286D01*
X-1413138Y653694D02*
X-1395178Y635733D01*
X-1398770Y632141D02*
X-1395178Y635733D01*
X-1416730Y650101D02*
X-1398770Y632141D01*
X-1420323Y646509D02*
X-1416730Y650101D01*
X-1420323Y646509D02*
X-1402362Y628549D01*
X-1405954Y624957D02*
X-1402362Y628549D01*
X-1423915Y642917D02*
X-1405954Y624957D01*
X-1427507Y639325D02*
X-1423915Y642917D01*
X-1427507Y639325D02*
X-1409546Y621365D01*
X-1413138Y617772D02*
X-1409546Y621365D01*
X-1430469Y635103D02*
X-1413138Y617772D01*
X-1434061Y631511D02*
X-1430469Y635103D01*
X-1434061Y631511D02*
X-1416730Y614180D01*
X-1420323Y610588D02*
X-1416730Y614180D01*
X-1437328Y627593D02*
X-1420323Y610588D01*
X-1440920Y624001D02*
X-1437328Y627593D01*
X-1440920Y624001D02*
X-1423915Y606996D01*
X-1427507Y603404D02*
X-1423915Y606996D01*
X-1444498Y620395D02*
X-1427507Y603404D01*
X-1448090Y616803D02*
X-1444498Y620395D01*
X-1448090Y616803D02*
X-1431099Y599812D01*
X-1434691Y596220D02*
X-1431099Y599812D01*
X-1451682Y613211D02*
X-1434691Y596220D01*
X-1455274Y609619D02*
X-1451682Y613211D01*
X-1455274Y609619D02*
X-1447263Y601608D01*
X-1448161Y600710D02*
X-1447263Y601608D01*
X-1369476Y675640D02*
X-1305921D01*
X-1278772Y691360D02*
X-1163681Y806450D01*
X-1281261Y688871D02*
X-1278772Y691360D01*
X-1284282Y691892D02*
X-1281261Y688871D01*
X-1287874Y688299D02*
X-1284282Y691892D01*
X-1287874Y688299D02*
X-1275873Y676298D01*
X-1279465Y672706D02*
X-1275873Y676298D01*
X-1291466Y684707D02*
X-1279465Y672706D01*
X-1295058Y681115D02*
X-1291466Y684707D01*
X-1295058Y681115D02*
X-1283057Y669114D01*
X-1286649Y665522D02*
X-1283057Y669114D01*
X-1298650Y677523D02*
X-1286649Y665522D01*
X-1302242Y673931D02*
X-1298650Y677523D01*
X-1302242Y673931D02*
X-1290241Y661930D01*
X-1293833Y658338D02*
X-1290241Y661930D01*
X-1307325Y671830D02*
X-1293833Y658338D01*
X-1310918Y668238D02*
X-1307325Y671830D01*
X-1310918Y668238D02*
X-1297425Y654746D01*
X-1301017Y651153D02*
X-1297425Y654746D01*
X-1318978Y669114D02*
X-1301017Y651153D01*
X-1322570Y665522D02*
X-1318978Y669114D01*
X-1322570Y665522D02*
X-1304610Y647561D01*
X-1308202Y643969D02*
X-1304610Y647561D01*
X-1326162Y661930D02*
X-1308202Y643969D01*
X-1329754Y658338D02*
X-1326162Y661930D01*
X-1329754Y658338D02*
X-1311794Y640377D01*
X-1315386Y636785D02*
X-1311794Y640377D01*
X-1333346Y654746D02*
X-1315386Y636785D01*
X-1336938Y651154D02*
X-1333346Y654746D01*
X-1336938Y651154D02*
X-1318978Y633193D01*
X-1322570Y629601D02*
X-1318978Y633193D01*
X-1340531Y647561D02*
X-1322570Y629601D01*
X-1344123Y643969D02*
X-1340531Y647561D01*
X-1344123Y643969D02*
X-1326162Y626009D01*
X-1329754Y622417D02*
X-1326162Y626009D01*
X-1347715Y640377D02*
X-1329754Y622417D01*
X-1351307Y636785D02*
X-1347715Y640377D01*
X-1351307Y636785D02*
X-1333346Y618825D01*
X-1336938Y615233D02*
X-1333346Y618825D01*
X-1354899Y633193D02*
X-1336938Y615233D01*
X-1358491Y629601D02*
X-1354899Y633193D01*
X-1358491Y629601D02*
X-1340531Y611640D01*
X-1344123Y608048D02*
X-1340531Y611640D01*
X-1362083Y626009D02*
X-1344123Y608048D01*
X-1365675Y622417D02*
X-1362083Y626009D01*
X-1365675Y622417D02*
X-1347715Y604456D01*
X-1351307Y600864D02*
X-1347715Y604456D01*
X-1369267Y618825D02*
X-1351307Y600864D01*
X-1372859Y615233D02*
X-1369267Y618825D01*
X-1372859Y615233D02*
X-1354899Y597272D01*
X-1358491Y593680D02*
X-1354899Y597272D01*
X-1376452Y611640D02*
X-1358491Y593680D01*
X-1380044Y608048D02*
X-1376452Y611640D01*
X-1380044Y608048D02*
X-1371063Y599068D01*
X-1371962Y598170D02*
X-1371063Y599068D01*
X-1436147Y652094D02*
X-1398631Y689610D01*
X-1438486Y649756D02*
X-1436147Y652094D01*
X-1438486Y649756D02*
X-1430461Y641731D01*
X-1434053Y638139D02*
X-1430461Y641731D01*
X-1451058Y655144D02*
X-1434053Y638139D01*
X-1454650Y651552D02*
X-1451058Y655144D01*
X-1454650Y651552D02*
X-1437015Y633917D01*
X-1440607Y630325D02*
X-1437015Y633917D01*
X-1458242Y647960D02*
X-1440607Y630325D01*
X-1461834Y644368D02*
X-1458242Y647960D01*
X-1461834Y644368D02*
X-1443874Y626407D01*
X-1447466Y622815D02*
X-1443874Y626407D01*
X-1465426Y640776D02*
X-1447466Y622815D01*
X-1469018Y637184D02*
X-1465426Y640776D01*
X-1469018Y637184D02*
X-1451058Y619223D01*
X-1454650Y615631D02*
X-1451058Y619223D01*
X-1472610Y633591D02*
X-1454650Y615631D01*
X-1476203Y629999D02*
X-1472610Y633591D01*
X-1476203Y629999D02*
X-1458242Y612039D01*
X-1461834Y608447D02*
X-1458242Y612039D01*
X-1479795Y626407D02*
X-1461834Y608447D01*
X-1483387Y622815D02*
X-1479795Y626407D01*
X-1483387Y622815D02*
X-1465426Y604855D01*
X-1469018Y601263D02*
X-1465426Y604855D01*
X-1486979Y619223D02*
X-1469018Y601263D01*
X-1490571Y615631D02*
X-1486979Y619223D01*
X-1490571Y615631D02*
X-1472610Y597670D01*
X-1476203Y594078D02*
X-1472610Y597670D01*
X-1494163Y612039D02*
X-1476203Y594078D01*
X-1497755Y608447D02*
X-1494163Y612039D01*
X-1497755Y608447D02*
X-1479795Y590486D01*
X-1483387Y586894D02*
X-1479795Y590486D01*
X-1501347Y604855D02*
X-1483387Y586894D01*
X-1504940Y601263D02*
X-1501347Y604855D01*
X-1504940Y601263D02*
X-1486979Y583302D01*
X-1490571Y579710D02*
X-1486979Y583302D01*
X-1508532Y597671D02*
X-1490571Y579710D01*
X-1512124Y594078D02*
X-1508532Y597671D01*
X-1512124Y594078D02*
X-1503143Y585098D01*
X-1504041Y584200D02*
X-1503143Y585098D01*
X-1163571Y817990D02*
X-1154902D01*
X-1305921Y675640D02*
X-1163571Y817990D01*
X-1472292Y499110D02*
X-1448161Y523240D01*
Y600710D01*
X-1371962Y540279D02*
Y598170D01*
X-1413871Y499110D02*
X-1413131D01*
X-1371962Y540279D01*
X-1302112Y689610D02*
X-1173841Y817880D01*
X-1398631Y689610D02*
X-1302112D01*
X-1504041Y510540D02*
Y584200D01*
X-1515471Y499110D02*
X-1504041Y510540D01*
X-1529442Y499110D02*
X-1515471D01*
D20*
X-804004Y125950D02*
Y201994D01*
X-804171Y125783D02*
X-804004Y125950D01*
X-801599Y355685D02*
Y431729D01*
X-801766Y204232D02*
Y355518D01*
X-804004Y201994D02*
X-801766Y204232D01*
Y355518D02*
X-801599Y355685D01*
X-1143362Y513080D02*
X-882950D01*
X-801599Y431729D01*
X-802891Y837503D02*
Y913547D01*
X-802724Y913714D01*
X-802891Y774079D02*
Y837503D01*
X-847990Y728980D02*
X-802891Y774079D01*
X-802724Y607670D02*
Y683714D01*
X-802891Y607503D02*
X-802724Y607670D01*
X-1145901Y728980D02*
X-847990D01*
X-802724Y683714D01*
D27*
X-1474720Y262890D02*
X-1469390Y268220D01*
X-1515762Y271162D02*
X-1507489Y262890D01*
X-1474720D01*
X-1474377Y291791D02*
X-1469390Y286804D01*
Y268220D02*
Y286804D01*
X-1512872Y294871D02*
X-1509792Y291791D01*
X-1474377D01*
X-1513609Y294871D02*
X-1512872D01*
X-1574800Y286837D02*
X-1569846Y291791D01*
X-1574800Y266700D02*
Y286837D01*
X-1549091Y291791D02*
X-1541161Y283862D01*
X-1569846Y291791D02*
X-1549091D01*
X-1569720Y261620D02*
X-1551940D01*
X-1574800Y266700D02*
X-1569720Y261620D01*
X-1547335Y257015D02*
X-1547277D01*
X-1551940Y261620D02*
X-1547335Y257015D01*
D77*
X-693066Y211535D02*
X-650936Y253666D01*
X-346135D01*
X-316299Y283502D01*
X-348345Y259000D02*
X-321633Y285712D01*
X-653145Y259000D02*
X-348345D01*
X-692824Y219321D02*
X-653145Y259000D01*
X-695051Y692353D02*
X-693878Y691179D01*
X-692737Y698965D02*
X-690216D01*
X-655682Y579120D02*
Y664430D01*
X-690216Y698965D02*
X-655682Y664430D01*
X-691467Y607525D02*
X-689276D01*
X-679304Y565592D02*
Y597552D01*
X-689276Y607525D02*
X-679304Y597552D01*
X-693737Y600207D02*
X-693269Y599739D01*
X-684129Y563593D02*
Y594070D01*
X-689799Y599739D02*
X-684129Y594070D01*
X-693269Y599739D02*
X-689799D01*
X-679304Y565592D02*
X-625522Y511810D01*
X-684129Y563593D02*
X-627012Y506476D01*
X-687018Y559656D02*
X-629011Y501650D01*
X-687120Y559656D02*
X-687018D01*
X-690409Y562945D02*
X-687120Y559656D01*
X-689227Y554322D02*
X-631221Y496316D01*
X-693572Y554322D02*
X-689227D01*
X-627012Y506476D02*
X-295010D01*
X-629011Y501650D02*
X-291192D01*
X-631221Y496316D02*
X-288982D01*
X-625522Y511810D02*
X-297220D01*
X-676255Y370509D02*
Y434009D01*
X-637609Y472656D01*
X-278928D01*
X-635400Y467322D02*
X-276719D01*
X-670921Y368300D02*
Y431800D01*
X-635400Y467322D01*
X-689340Y357425D02*
X-676255Y370509D01*
X-690532Y348689D02*
X-670921Y368300D01*
X-693460Y357425D02*
X-689340D01*
X-693737Y357148D02*
X-693460Y357425D01*
X-693269Y348689D02*
X-690532D01*
X-693269Y440129D02*
X-690609D01*
X-650932Y479806D02*
X-285096D01*
X-690609Y440129D02*
X-650932Y479806D01*
X-693422Y448903D02*
X-689378D01*
X-653141Y485140D01*
X-693737Y448588D02*
X-693422Y448903D01*
X-653141Y485140D02*
X-287305D01*
X-693737Y439662D02*
X-693269Y440129D01*
X-211182Y502920D02*
X-177372Y469111D01*
X-269525Y502920D02*
X-211182D01*
X-166751Y469111D02*
X-166621Y469240D01*
X-177372Y469111D02*
X-166751D01*
X-287305Y485140D02*
X-269525Y502920D01*
X-160419Y458730D02*
X-143411D01*
X-213391Y497586D02*
X-173227Y457422D01*
X-161726D02*
X-160419Y458730D01*
X-173227Y457422D02*
X-161726D01*
X-267316Y497586D02*
X-213391D01*
X-285096Y479806D02*
X-267316Y497586D01*
X-143411Y458730D02*
X-141222Y456540D01*
X-173578Y426688D02*
X-166621Y419732D01*
X-173726Y426688D02*
X-173578D01*
X-166621Y418440D02*
Y419732D01*
X-219638Y485884D02*
X-189805Y456051D01*
Y442767D02*
X-173726Y426688D01*
X-189805Y442767D02*
Y456051D01*
X-171368Y432022D02*
X-170352Y431006D01*
X-171517Y432022D02*
X-171368D01*
X-141355Y431006D02*
X-141222Y431140D01*
X-170352Y431006D02*
X-141355D01*
X-217429Y491218D02*
X-184471Y458260D01*
Y444976D02*
X-171517Y432022D01*
X-184471Y444976D02*
Y458260D01*
X-693737Y348222D02*
X-693269Y348689D01*
X-278928Y472656D02*
X-260366Y491218D01*
X-276719Y467322D02*
X-258157Y485884D01*
X-260366Y491218D02*
X-217429D01*
X-258157Y485884D02*
X-219638D01*
X-690158Y645459D02*
X-673716Y629016D01*
X-693269Y645459D02*
X-690158D01*
X-690400Y653245D02*
X-668382Y631226D01*
X-691467Y653245D02*
X-690400D01*
X-668382Y574040D02*
Y631226D01*
X-693076Y654853D02*
X-691467Y653245D01*
X-693737Y654853D02*
X-693076D01*
X-673716Y571831D02*
Y629016D01*
X-693737Y645927D02*
X-693269Y645459D01*
X-615981Y531876D02*
X-332162D01*
X-661015Y576911D02*
X-615981Y531876D01*
X-661015Y576911D02*
Y660766D01*
X-613772Y537210D02*
X-334371D01*
X-655682Y579120D02*
X-613772Y537210D01*
X-691428Y691179D02*
X-661015Y660766D01*
X-693878Y700105D02*
X-692737Y698965D01*
X-693878Y691179D02*
X-691428D01*
X-694970Y700105D02*
X-693878D01*
X-673716Y571831D02*
X-619791Y517906D01*
X-307211D01*
X-668382Y574040D02*
X-617581Y523240D01*
X-309421D01*
X-693076Y609133D02*
X-691467Y607525D01*
X-693737Y609133D02*
X-693076D01*
X-693737Y554487D02*
X-693572Y554322D01*
X-693269Y562945D02*
X-690409D01*
X-693737Y563413D02*
X-693269Y562945D01*
X-668382Y787477D02*
X-635285Y754380D01*
X-343185D01*
X-668382Y787477D02*
Y897890D01*
X-663047Y789686D02*
Y900099D01*
X-633075Y759714D02*
X-340975D01*
X-663047Y789686D02*
X-633075Y759714D01*
X-694296Y931348D02*
X-663047Y900099D01*
X-692070Y921579D02*
X-668382Y897890D01*
X-678541Y779703D02*
Y830145D01*
Y779703D02*
X-641788Y742950D01*
X-349357D01*
X-683876Y777494D02*
Y827935D01*
Y777494D02*
X-643997Y737616D01*
X-351567D01*
X-687943Y832003D02*
X-683876Y827935D01*
X-685733Y837337D02*
X-678541Y830145D01*
X-691621Y832003D02*
X-687943D01*
X-691621Y837337D02*
X-685733D01*
X-207889Y520922D02*
X-207008Y520040D01*
X-237303Y520922D02*
X-207889D01*
X-257384Y527914D02*
X-244295D01*
X-288982Y496316D02*
X-257384Y527914D01*
X-244295D02*
X-237303Y520922D01*
X-321633Y415582D02*
X-262236Y474980D01*
X-243381D01*
X-237303Y481058D02*
X-227512D01*
X-243381Y474980D02*
X-237303Y481058D01*
X-227512D02*
X-219129Y472675D01*
Y468661D02*
Y472675D01*
X-316299Y413373D02*
X-259772Y469900D01*
X-233067D02*
X-232407Y469240D01*
X-259772Y469900D02*
X-233067D01*
X-219129Y468661D02*
X-207008Y456540D01*
X-260102Y532740D02*
X-232407D01*
X-291192Y501650D02*
X-260102Y532740D01*
X-668128Y79771D02*
Y162736D01*
X-620290Y209855D02*
Y210574D01*
X-617757Y213106D02*
X-305492D01*
X-620290Y210574D02*
X-617757Y213106D01*
X-664876Y165268D02*
X-620290Y209855D01*
X-668128Y162736D02*
X-665595Y165268D01*
X-664876D01*
X-619248Y218440D02*
X-307701D01*
X-673462Y81980D02*
Y164227D01*
X-619248Y218440D01*
X-673335Y74563D02*
X-668128Y79771D01*
X-691621Y74563D02*
X-673335D01*
X-691621Y79897D02*
X-675545D01*
X-673462Y81980D01*
X-623456Y228600D02*
X-317861D01*
X-621247Y223266D02*
X-315652D01*
X-692949Y126945D02*
X-691621Y125617D01*
X-695809Y126945D02*
X-692949D01*
X-696277Y127413D02*
X-695809Y126945D01*
X-219958Y418189D02*
X-207008Y431140D01*
X-219958Y414176D02*
Y418189D01*
X-229276Y404858D02*
X-219958Y414176D01*
X-237303Y404858D02*
X-229276D01*
X-266807Y375353D02*
X-237303Y404858D01*
X-266807Y272111D02*
Y375353D01*
X-315652Y223266D02*
X-266807Y272111D01*
X-692949Y118954D02*
X-691621Y120283D01*
X-695809Y118954D02*
X-692949D01*
X-696277Y118487D02*
X-695809Y118954D01*
X-680827Y163686D02*
X-621247Y223266D01*
X-686161Y165895D02*
X-623456Y228600D01*
X-680827Y128867D02*
Y163686D01*
X-686161Y131076D02*
Y165895D01*
X-689412Y120283D02*
X-680827Y128867D01*
X-691621Y120283D02*
X-689412D01*
X-691621Y125617D02*
X-686161Y131076D01*
X-695616Y209927D02*
X-694007Y211535D01*
X-696277Y218853D02*
X-695809Y219321D01*
X-694007Y211535D02*
X-693066D01*
X-696277Y209927D02*
X-695616D01*
X-695809Y219321D02*
X-692824D01*
X-693066Y165815D02*
X-625456Y233426D01*
X-627665Y238760D02*
X-330561D01*
X-625456Y233426D02*
X-328352D01*
X-696277Y164207D02*
X-695616D01*
X-692824Y173601D02*
X-627665Y238760D01*
X-695809Y173601D02*
X-692824D01*
X-695616Y164207D02*
X-694007Y165815D01*
X-693066D01*
X-696277Y173133D02*
X-695809Y173601D01*
X-316299Y283502D02*
Y413373D01*
X-321633Y285712D02*
Y415582D01*
X-244244Y449538D02*
X-238123Y455658D01*
X-244244Y441587D02*
Y449538D01*
X-203654Y444500D02*
X-195189Y436035D01*
X-216262Y444500D02*
X-203654D01*
X-195189Y417558D02*
Y436035D01*
X-207008Y405740D02*
X-195189Y417558D01*
X-238123Y455658D02*
X-227419D01*
X-216262Y444500D01*
X-279762Y282017D02*
Y398526D01*
X-328352Y233426D02*
X-279762Y282017D01*
X-330561Y238760D02*
X-285096Y284226D01*
Y400735D01*
X-234447Y443840D02*
X-232407D01*
X-279762Y398526D02*
X-234447Y443840D01*
X-285096Y400735D02*
X-244244Y441587D01*
X-317861Y228600D02*
X-272141Y274320D01*
X-239364Y410192D02*
X-232407Y417148D01*
X-272141Y377563D02*
X-239512Y410192D01*
X-272141Y274320D02*
Y377563D01*
X-239512Y410192D02*
X-239364D01*
X-232407Y417148D02*
Y418440D01*
X-695809Y73234D02*
X-692949D01*
X-691621Y74563D01*
X-695809Y81225D02*
X-692949D01*
X-696277Y81693D02*
X-695809Y81225D01*
X-692949D02*
X-691621Y79897D01*
X-696277Y72767D02*
X-695809Y73234D01*
X-305492Y213106D02*
X-254107Y264491D01*
X-307701Y218440D02*
X-259442Y266700D01*
X-218386Y376515D02*
X-216303Y378598D01*
X-218386Y360275D02*
Y376515D01*
X-223720Y362484D02*
Y384353D01*
X-232407Y393040D02*
X-223720Y384353D01*
X-216303Y378598D02*
X-208750D01*
X-207008Y380340D01*
X-259442Y326763D02*
X-223720Y362484D01*
X-254107Y264491D02*
Y324553D01*
X-218386Y360275D01*
X-259442Y266700D02*
Y326763D01*
X-256928Y544558D02*
X-229276D01*
X-295010Y506476D02*
X-256928Y544558D01*
X-229276D02*
X-219958Y553876D01*
X-239364Y549892D02*
X-232407Y556848D01*
X-259138Y549892D02*
X-239364D01*
X-297220Y511810D02*
X-259138Y549892D01*
X-219958Y553876D02*
Y557889D01*
X-207008Y570840D01*
X-232407Y556848D02*
Y558140D01*
X-242809Y582308D02*
X-233640D01*
X-307211Y517906D02*
X-242809Y582308D01*
X-233640D02*
X-232407Y583540D01*
X-309421Y523240D02*
X-237303Y595358D01*
X-227512D02*
X-216226Y584072D01*
X-237303Y595358D02*
X-227512D01*
X-203526Y584072D02*
X-195189Y575735D01*
Y557258D02*
Y575735D01*
X-216226Y584072D02*
X-203526D01*
X-207008Y545440D02*
X-195189Y557258D01*
X-234549Y608940D02*
X-232407D01*
X-240213Y614603D02*
X-234549Y608940D01*
X-249435Y614603D02*
X-240213D01*
X-332162Y531876D02*
X-249435Y614603D01*
X-238944Y619937D02*
X-238123Y620758D01*
X-251644Y619937D02*
X-238944D01*
X-334371Y537210D02*
X-251644Y619937D01*
X-218355Y607587D02*
X-207008Y596240D01*
X-218355Y607587D02*
Y611600D01*
X-227512Y620758D02*
X-218355Y611600D01*
X-238123Y620758D02*
X-227512D01*
X-696277Y830207D02*
X-695809Y830674D01*
Y838665D02*
X-692949D01*
X-691621Y837337D01*
X-692949Y830674D02*
X-691621Y832003D01*
X-695809Y830674D02*
X-692949D01*
X-696277Y839133D02*
X-695809Y838665D01*
X-351567Y737616D02*
X-250221Y636270D01*
X-349357Y742950D02*
X-248011Y641604D01*
X-250221Y636270D02*
X-230324D01*
X-228115Y641604D02*
X-184021Y597510D01*
X-248011Y641604D02*
X-228115D01*
X-230324Y636270D02*
X-189355Y595300D01*
X-173726Y566388D02*
X-173578D01*
X-170352Y570706D02*
X-141355D01*
X-184021Y584226D02*
Y597510D01*
X-189355Y582016D02*
X-173726Y566388D01*
X-141355Y570706D02*
X-141222Y570840D01*
X-171368Y571722D02*
X-170352Y570706D01*
X-166621Y558140D02*
Y559432D01*
X-189355Y582016D02*
Y595300D01*
X-171517Y571722D02*
X-171368D01*
X-173578Y566388D02*
X-166621Y559432D01*
X-184021Y584226D02*
X-171517Y571722D01*
X-141882Y596900D02*
X-141222Y596240D01*
X-175545Y596900D02*
X-141882D01*
X-695004Y921579D02*
X-692070D01*
X-168811Y606750D02*
X-166621Y608940D01*
X-173947Y606750D02*
X-168811D01*
X-174427Y606271D02*
X-173947Y606750D01*
X-177372Y606271D02*
X-174427D01*
X-343185Y754380D02*
X-236505Y647700D01*
X-340975Y759714D02*
X-234296Y653034D01*
X-226345Y647700D02*
X-175545Y596900D01*
X-236505Y647700D02*
X-226345D01*
X-224135Y653034D02*
X-177372Y606271D01*
X-234296Y653034D02*
X-224135D01*
D79*
X-1515762Y271162D02*
D03*
X-1541161Y283862D02*
D03*
D84*
X-166621Y469240D02*
D03*
X-141222Y456540D02*
D03*
Y431140D02*
D03*
X-166621Y418440D02*
D03*
Y608940D02*
D03*
X-141222Y596240D02*
D03*
Y570840D02*
D03*
X-166621Y558140D02*
D03*
X-207008Y520040D02*
D03*
X-232407Y532740D02*
D03*
X-207008Y545440D02*
D03*
X-232407Y558140D02*
D03*
X-207008Y570840D02*
D03*
X-232407Y583540D02*
D03*
X-207008Y596240D02*
D03*
X-232407Y608940D02*
D03*
X-207008Y380340D02*
D03*
X-232407Y393040D02*
D03*
X-207008Y405740D02*
D03*
X-232407Y418440D02*
D03*
X-207008Y431140D02*
D03*
X-232407Y443840D02*
D03*
X-207008Y456540D02*
D03*
X-232407Y469240D02*
D03*
D87*
X-1513609Y294871D02*
D03*
X-1547277Y257015D02*
D03*
X-801599Y431729D02*
D03*
X-801761Y405518D02*
D03*
X-801765Y380518D02*
D03*
X-801766Y355518D02*
D03*
X-804004Y201994D02*
D03*
X-804166Y175783D02*
D03*
X-804170Y150783D02*
D03*
X-804171Y125783D02*
D03*
X-802724Y683714D02*
D03*
X-802887Y657503D02*
D03*
X-802890Y632503D02*
D03*
X-802891Y607503D02*
D03*
X-802724Y913714D02*
D03*
X-802887Y887503D02*
D03*
X-802890Y862503D02*
D03*
X-802891Y837503D02*
D03*
D88*
X-693737Y600207D02*
D03*
X-1413871Y499110D02*
D03*
X-1472292D02*
D03*
X-1529442D02*
D03*
X-1173841Y817880D02*
D03*
X-1163681Y806450D02*
D03*
X-1154902Y817990D02*
D03*
X-1143362Y513080D02*
D03*
X-1145901Y728980D02*
D03*
X-693737Y448588D02*
D03*
Y439662D02*
D03*
Y348222D02*
D03*
Y357148D02*
D03*
X-696277Y127413D02*
D03*
Y118487D02*
D03*
Y209927D02*
D03*
Y218853D02*
D03*
Y164207D02*
D03*
Y173133D02*
D03*
Y72767D02*
D03*
Y81693D02*
D03*
X-693737Y563413D02*
D03*
Y554487D02*
D03*
Y609133D02*
D03*
Y654853D02*
D03*
Y645927D02*
D03*
X-695007Y700573D02*
D03*
Y691647D02*
D03*
X-696277Y830207D02*
D03*
Y839133D02*
D03*
X-695004Y930641D02*
D03*
Y921579D02*
D03*
M02*
