G04*
G04 #@! TF.GenerationSoftware,Altium Limited,Altium Designer,20.1.11 (218)*
G04*
G04 Layer_Physical_Order=2*
G04 Layer_Color=36540*
%FSLAX44Y44*%
%MOMM*%
G71*
G04*
G04 #@! TF.SameCoordinates,4A1F8FCE-740B-4DEC-BBDA-7CBAB7B043B4*
G04*
G04*
G04 #@! TF.FilePolarity,Positive*
G04*
G01*
G75*
%ADD80C,2.5400*%
%ADD86C,1.3000*%
%ADD87C,0.4500*%
%ADD88C,0.6000*%
%ADD89C,0.7000*%
G36*
X-1126852Y821690D02*
X-1126852Y760730D01*
X-1182731Y760730D01*
X-1223372Y720090D01*
Y626110D01*
X-1215751Y618490D01*
X-1129391Y618490D01*
X-1126852Y615950D01*
X-1126851Y549910D01*
X-1145901Y530860D01*
X-1191621Y530860D01*
X-1218291Y504190D01*
Y405130D01*
X-1215751Y402590D01*
X-1129391D01*
X-1126851Y400050D01*
Y337820D01*
X-1147171Y317500D01*
X-1194162Y317500D01*
X-1218291Y293370D01*
X-1218291Y193040D01*
X-1214482Y189230D01*
X-1129391Y189230D01*
X-1126852Y186690D01*
X-1126851Y5179D01*
X-1664315D01*
X-1664315Y731520D01*
X-1632134D01*
X-1631755Y730250D01*
X-1632850Y729519D01*
X-1633794Y728106D01*
X-1634125Y726440D01*
X-1633794Y724774D01*
X-1632850Y723362D01*
X-1631438Y722418D01*
X-1629772Y722086D01*
X-1628105Y722418D01*
X-1626693Y723362D01*
X-1625749Y724774D01*
X-1625418Y726440D01*
X-1625749Y728106D01*
X-1626693Y729519D01*
X-1627788Y730250D01*
X-1627409Y731520D01*
X-1429111Y731520D01*
X-1374501Y786130D01*
X-1345291D01*
X-1336402Y795020D01*
Y824230D01*
X-1129391D01*
X-1126852Y821690D01*
D02*
G37*
G36*
X-12002Y5179D02*
X-1123041D01*
Y187960D01*
X-1128121Y193040D01*
X-1140822D01*
Y203200D01*
X-1150982D01*
X-1161142Y193040D01*
X-1213212Y193040D01*
X-1214482Y194310D01*
Y292100D01*
X-1192891Y313690D01*
X-1144632D01*
X-1123042Y335280D01*
Y401320D01*
X-1128122Y406400D01*
X-1140822D01*
Y416560D01*
X-1150982D01*
X-1161142Y406400D01*
X-1213212D01*
X-1214482Y407670D01*
Y501650D01*
X-1189081Y527050D01*
X-1144632D01*
X-1123041Y548640D01*
X-1123042Y617220D01*
X-1128121Y622300D01*
X-1140822D01*
Y632460D01*
X-1150982D01*
X-1161142Y622300D01*
X-1214482Y622300D01*
X-1219561Y627380D01*
X-1219561Y718820D01*
X-1181136Y757245D01*
X-1123042D01*
Y822960D01*
X-1126852Y826770D01*
X-1140822Y826770D01*
Y838200D01*
X-1150982D01*
X-1161142Y828040D01*
X-1336402D01*
X-1336402Y994821D01*
X-12002D01*
X-12002Y5179D01*
D02*
G37*
%LPC*%
G36*
X-1154902Y822344D02*
X-1156568Y822013D01*
X-1157980Y821069D01*
X-1158924Y819657D01*
X-1159256Y817990D01*
X-1158924Y816324D01*
X-1157980Y814912D01*
X-1156568Y813968D01*
X-1154902Y813637D01*
X-1153236Y813968D01*
X-1151824Y814912D01*
X-1150880Y816324D01*
X-1150548Y817990D01*
X-1150880Y819657D01*
X-1151824Y821069D01*
X-1153236Y822013D01*
X-1154902Y822344D01*
D02*
G37*
G36*
X-1173841Y822234D02*
X-1175508Y821902D01*
X-1176920Y820958D01*
X-1177864Y819546D01*
X-1178195Y817880D01*
X-1177864Y816214D01*
X-1176920Y814801D01*
X-1175508Y813858D01*
X-1173841Y813526D01*
X-1172175Y813858D01*
X-1170763Y814801D01*
X-1169819Y816214D01*
X-1169488Y817880D01*
X-1169819Y819546D01*
X-1170763Y820958D01*
X-1172175Y821902D01*
X-1173841Y822234D01*
D02*
G37*
G36*
X-1163681Y810804D02*
X-1165348Y810472D01*
X-1166760Y809529D01*
X-1167704Y808116D01*
X-1168035Y806450D01*
X-1167704Y804784D01*
X-1166760Y803372D01*
X-1165348Y802428D01*
X-1163681Y802096D01*
X-1162015Y802428D01*
X-1160603Y803372D01*
X-1159659Y804784D01*
X-1159328Y806450D01*
X-1159659Y808116D01*
X-1160603Y809529D01*
X-1162015Y810472D01*
X-1163681Y810804D01*
D02*
G37*
G36*
X-1139551Y778309D02*
X-1140933Y778035D01*
X-1142104Y777252D01*
X-1142886Y776081D01*
X-1143161Y774700D01*
X-1142886Y773319D01*
X-1142104Y772148D01*
X-1140933Y771365D01*
X-1139551Y771091D01*
X-1138170Y771365D01*
X-1136999Y772148D01*
X-1136217Y773319D01*
X-1135942Y774700D01*
X-1136217Y776081D01*
X-1136999Y777252D01*
X-1138170Y778035D01*
X-1139551Y778309D01*
D02*
G37*
G36*
X-1333862Y776514D02*
X-1335528Y776182D01*
X-1336940Y775238D01*
X-1337884Y773826D01*
X-1338215Y772160D01*
X-1337884Y770494D01*
X-1336940Y769081D01*
X-1335528Y768138D01*
X-1333862Y767806D01*
X-1332195Y768138D01*
X-1330783Y769081D01*
X-1329839Y770494D01*
X-1329508Y772160D01*
X-1329839Y773826D01*
X-1330783Y775238D01*
X-1332195Y776182D01*
X-1333862Y776514D01*
D02*
G37*
G36*
X-1364341D02*
X-1366008Y776182D01*
X-1367420Y775238D01*
X-1368364Y773826D01*
X-1368695Y772160D01*
X-1368364Y770494D01*
X-1367420Y769081D01*
X-1366008Y768138D01*
X-1364341Y767806D01*
X-1362675Y768138D01*
X-1361263Y769081D01*
X-1360319Y770494D01*
X-1359988Y772160D01*
X-1360319Y773826D01*
X-1361263Y775238D01*
X-1362675Y776182D01*
X-1364341Y776514D01*
D02*
G37*
G36*
X-1134472Y771434D02*
X-1136138Y771102D01*
X-1137550Y770158D01*
X-1138494Y768746D01*
X-1138825Y767080D01*
X-1138494Y765414D01*
X-1137550Y764001D01*
X-1136138Y763058D01*
X-1134472Y762726D01*
X-1132805Y763058D01*
X-1131393Y764001D01*
X-1130449Y765414D01*
X-1130118Y767080D01*
X-1130449Y768746D01*
X-1131393Y770158D01*
X-1132805Y771102D01*
X-1134472Y771434D01*
D02*
G37*
G36*
X-1333862Y763814D02*
X-1335528Y763482D01*
X-1336940Y762539D01*
X-1337884Y761126D01*
X-1338215Y759460D01*
X-1337884Y757794D01*
X-1336940Y756382D01*
X-1335528Y755438D01*
X-1333862Y755106D01*
X-1332195Y755438D01*
X-1330783Y756382D01*
X-1329839Y757794D01*
X-1329508Y759460D01*
X-1329839Y761126D01*
X-1330783Y762539D01*
X-1332195Y763482D01*
X-1333862Y763814D01*
D02*
G37*
G36*
X-1349102D02*
X-1350768Y763482D01*
X-1352180Y762539D01*
X-1353124Y761126D01*
X-1353455Y759460D01*
X-1353124Y757794D01*
X-1352180Y756382D01*
X-1350768Y755438D01*
X-1349102Y755106D01*
X-1347435Y755438D01*
X-1346023Y756382D01*
X-1345079Y757794D01*
X-1344748Y759460D01*
X-1345079Y761126D01*
X-1346023Y762539D01*
X-1347435Y763482D01*
X-1349102Y763814D01*
D02*
G37*
G36*
X-1364341D02*
X-1366008Y763482D01*
X-1367420Y762539D01*
X-1368364Y761126D01*
X-1368695Y759460D01*
X-1368364Y757794D01*
X-1367420Y756382D01*
X-1366008Y755438D01*
X-1364341Y755106D01*
X-1362675Y755438D01*
X-1361263Y756382D01*
X-1360319Y757794D01*
X-1359988Y759460D01*
X-1360319Y761126D01*
X-1361263Y762539D01*
X-1362675Y763482D01*
X-1364341Y763814D01*
D02*
G37*
G36*
X-1488802Y728254D02*
X-1490468Y727922D01*
X-1491880Y726979D01*
X-1492824Y725566D01*
X-1493155Y723900D01*
X-1492824Y722234D01*
X-1491880Y720822D01*
X-1490468Y719878D01*
X-1488802Y719546D01*
X-1487135Y719878D01*
X-1485723Y720822D01*
X-1484779Y722234D01*
X-1484448Y723900D01*
X-1484779Y725566D01*
X-1485723Y726979D01*
X-1487135Y727922D01*
X-1488802Y728254D01*
D02*
G37*
G36*
X-1558651Y715554D02*
X-1560318Y715222D01*
X-1561730Y714278D01*
X-1562674Y712866D01*
X-1563005Y711200D01*
X-1562674Y709534D01*
X-1561730Y708121D01*
X-1560318Y707178D01*
X-1558651Y706846D01*
X-1556985Y707178D01*
X-1555573Y708121D01*
X-1554629Y709534D01*
X-1554298Y711200D01*
X-1554629Y712866D01*
X-1555573Y714278D01*
X-1556985Y715222D01*
X-1558651Y715554D01*
D02*
G37*
G36*
X-1154791Y616494D02*
X-1156458Y616162D01*
X-1157870Y615219D01*
X-1158814Y613806D01*
X-1159145Y612140D01*
X-1158814Y610474D01*
X-1157870Y609062D01*
X-1156458Y608118D01*
X-1154791Y607786D01*
X-1153125Y608118D01*
X-1151713Y609062D01*
X-1150769Y610474D01*
X-1150438Y612140D01*
X-1150769Y613806D01*
X-1151713Y615219D01*
X-1153125Y616162D01*
X-1154791Y616494D01*
D02*
G37*
G36*
X-1177652D02*
X-1179318Y616162D01*
X-1180730Y615219D01*
X-1181674Y613806D01*
X-1182005Y612140D01*
X-1181674Y610474D01*
X-1180730Y609062D01*
X-1179318Y608118D01*
X-1177652Y607786D01*
X-1175985Y608118D01*
X-1174573Y609062D01*
X-1173629Y610474D01*
X-1173298Y612140D01*
X-1173629Y613806D01*
X-1174573Y615219D01*
X-1175985Y616162D01*
X-1177652Y616494D01*
D02*
G37*
G36*
X-1164951Y605064D02*
X-1166618Y604732D01*
X-1168030Y603788D01*
X-1168974Y602376D01*
X-1169305Y600710D01*
X-1168974Y599044D01*
X-1168030Y597631D01*
X-1166618Y596688D01*
X-1164951Y596356D01*
X-1163285Y596688D01*
X-1161873Y597631D01*
X-1160929Y599044D01*
X-1160598Y600710D01*
X-1160929Y602376D01*
X-1161873Y603788D01*
X-1163285Y604732D01*
X-1164951Y605064D01*
D02*
G37*
G36*
X-1139551Y573129D02*
X-1140933Y572855D01*
X-1142104Y572072D01*
X-1142886Y570901D01*
X-1143161Y569520D01*
X-1142886Y568139D01*
X-1142104Y566968D01*
X-1140933Y566185D01*
X-1139551Y565911D01*
X-1138170Y566185D01*
X-1136999Y566968D01*
X-1136217Y568139D01*
X-1135942Y569520D01*
X-1136217Y570901D01*
X-1136999Y572072D01*
X-1138170Y572855D01*
X-1139551Y573129D01*
D02*
G37*
G36*
X-1520334Y571380D02*
X-1522000Y571049D01*
X-1523412Y570105D01*
X-1524356Y568692D01*
X-1524687Y567026D01*
X-1524356Y565360D01*
X-1523412Y563948D01*
X-1522000Y563004D01*
X-1520334Y562673D01*
X-1518668Y563004D01*
X-1517255Y563948D01*
X-1516311Y565360D01*
X-1515980Y567026D01*
X-1516311Y568692D01*
X-1517255Y570105D01*
X-1518668Y571049D01*
X-1520334Y571380D01*
D02*
G37*
G36*
X-1461914Y571380D02*
X-1463580Y571049D01*
X-1464992Y570105D01*
X-1465936Y568692D01*
X-1466267Y567026D01*
X-1465936Y565360D01*
X-1464992Y563948D01*
X-1463580Y563004D01*
X-1461914Y562673D01*
X-1460248Y563004D01*
X-1458835Y563948D01*
X-1457891Y565360D01*
X-1457560Y567026D01*
X-1457891Y568692D01*
X-1458835Y570105D01*
X-1460248Y571049D01*
X-1461914Y571380D01*
D02*
G37*
G36*
X-1402442Y570774D02*
X-1404108Y570442D01*
X-1405520Y569498D01*
X-1406464Y568086D01*
X-1406795Y566420D01*
X-1406464Y564754D01*
X-1405520Y563341D01*
X-1404108Y562398D01*
X-1402442Y562066D01*
X-1400775Y562398D01*
X-1399363Y563341D01*
X-1398419Y564754D01*
X-1398088Y566420D01*
X-1398419Y568086D01*
X-1399363Y569498D01*
X-1400775Y570442D01*
X-1402442Y570774D01*
D02*
G37*
G36*
X-1426572Y563154D02*
X-1428238Y562822D01*
X-1429650Y561879D01*
X-1430594Y560466D01*
X-1430925Y558800D01*
X-1430594Y557134D01*
X-1429650Y555722D01*
X-1428238Y554778D01*
X-1426572Y554446D01*
X-1424905Y554778D01*
X-1423493Y555722D01*
X-1422549Y557134D01*
X-1422218Y558800D01*
X-1422549Y560466D01*
X-1423493Y561879D01*
X-1424905Y562822D01*
X-1426572Y563154D01*
D02*
G37*
G36*
X-1484991Y561884D02*
X-1486658Y561552D01*
X-1488070Y560608D01*
X-1489014Y559196D01*
X-1489345Y557530D01*
X-1489014Y555864D01*
X-1488070Y554451D01*
X-1486658Y553508D01*
X-1484991Y553176D01*
X-1483325Y553508D01*
X-1481913Y554451D01*
X-1480969Y555864D01*
X-1480638Y557530D01*
X-1480969Y559196D01*
X-1481913Y560608D01*
X-1483325Y561552D01*
X-1484991Y561884D01*
D02*
G37*
G36*
X-1543412D02*
X-1545078Y561552D01*
X-1546490Y560608D01*
X-1547434Y559196D01*
X-1547765Y557530D01*
X-1547434Y555864D01*
X-1546490Y554451D01*
X-1545078Y553508D01*
X-1543412Y553176D01*
X-1541745Y553508D01*
X-1540333Y554451D01*
X-1539389Y555864D01*
X-1539058Y557530D01*
X-1539389Y559196D01*
X-1540333Y560608D01*
X-1541745Y561552D01*
X-1543412Y561884D01*
D02*
G37*
G36*
X-1536391Y537084D02*
X-1538058Y536752D01*
X-1539470Y535808D01*
X-1540414Y534396D01*
X-1540745Y532730D01*
X-1540414Y531064D01*
X-1539470Y529651D01*
X-1538058Y528708D01*
X-1536391Y528376D01*
X-1534725Y528708D01*
X-1533313Y529651D01*
X-1532369Y531064D01*
X-1532038Y532730D01*
X-1532369Y534396D01*
X-1533313Y535808D01*
X-1534725Y536752D01*
X-1536391Y537084D01*
D02*
G37*
G36*
X-1418952Y533944D02*
X-1420618Y533612D01*
X-1422030Y532668D01*
X-1422974Y531256D01*
X-1423305Y529590D01*
X-1422974Y527924D01*
X-1422030Y526511D01*
X-1420618Y525568D01*
X-1418952Y525236D01*
X-1417285Y525568D01*
X-1415873Y526511D01*
X-1414929Y527924D01*
X-1414598Y529590D01*
X-1414929Y531256D01*
X-1415873Y532668D01*
X-1417285Y533612D01*
X-1418952Y533944D01*
D02*
G37*
G36*
X-1477372D02*
X-1479038Y533612D01*
X-1480450Y532668D01*
X-1481394Y531256D01*
X-1481725Y529590D01*
X-1481394Y527924D01*
X-1480450Y526511D01*
X-1479038Y525568D01*
X-1477372Y525236D01*
X-1475705Y525568D01*
X-1474293Y526511D01*
X-1473349Y527924D01*
X-1473018Y529590D01*
X-1473349Y531256D01*
X-1474293Y532668D01*
X-1475705Y533612D01*
X-1477372Y533944D01*
D02*
G37*
G36*
X-1523091Y528864D02*
X-1524758Y528532D01*
X-1526170Y527589D01*
X-1527114Y526176D01*
X-1527445Y524510D01*
X-1527114Y522844D01*
X-1526170Y521432D01*
X-1524758Y520488D01*
X-1523091Y520156D01*
X-1521425Y520488D01*
X-1520013Y521432D01*
X-1519069Y522844D01*
X-1518738Y524510D01*
X-1519069Y526176D01*
X-1520013Y527589D01*
X-1521425Y528532D01*
X-1523091Y528864D01*
D02*
G37*
G36*
X-1469751Y517434D02*
X-1471418Y517102D01*
X-1472830Y516158D01*
X-1473774Y514746D01*
X-1474105Y513080D01*
X-1473774Y511414D01*
X-1472830Y510001D01*
X-1471418Y509058D01*
X-1469751Y508726D01*
X-1468085Y509058D01*
X-1466673Y510001D01*
X-1465729Y511414D01*
X-1465398Y513080D01*
X-1465729Y514746D01*
X-1466673Y516158D01*
X-1468085Y517102D01*
X-1469751Y517434D01*
D02*
G37*
G36*
X-1415141Y512354D02*
X-1416808Y512022D01*
X-1418220Y511078D01*
X-1419164Y509666D01*
X-1419495Y508000D01*
X-1419164Y506334D01*
X-1418220Y504921D01*
X-1416808Y503978D01*
X-1416615Y503940D01*
X-1416347Y502591D01*
X-1416950Y502188D01*
X-1417894Y500776D01*
X-1418225Y499110D01*
X-1417894Y497444D01*
X-1416950Y496031D01*
X-1415538Y495088D01*
X-1413871Y494756D01*
X-1412205Y495088D01*
X-1410793Y496031D01*
X-1409849Y497444D01*
X-1409518Y499110D01*
X-1409849Y500776D01*
X-1410793Y502188D01*
X-1412205Y503132D01*
X-1412398Y503171D01*
X-1412666Y504519D01*
X-1412063Y504921D01*
X-1411119Y506334D01*
X-1410788Y508000D01*
X-1411119Y509666D01*
X-1412063Y511078D01*
X-1413475Y512022D01*
X-1415141Y512354D01*
D02*
G37*
G36*
X-1472292Y503464D02*
X-1473958Y503132D01*
X-1475370Y502188D01*
X-1476314Y500776D01*
X-1476645Y499110D01*
X-1476314Y497444D01*
X-1475370Y496031D01*
X-1473958Y495088D01*
X-1472292Y494756D01*
X-1470625Y495088D01*
X-1469213Y496031D01*
X-1468269Y497444D01*
X-1467938Y499110D01*
X-1468269Y500776D01*
X-1469213Y502188D01*
X-1470625Y503132D01*
X-1472292Y503464D01*
D02*
G37*
G36*
X-1529442D02*
X-1531108Y503132D01*
X-1532520Y502188D01*
X-1533464Y500776D01*
X-1533795Y499110D01*
X-1533464Y497444D01*
X-1532520Y496031D01*
X-1531108Y495088D01*
X-1529442Y494756D01*
X-1527775Y495088D01*
X-1526363Y496031D01*
X-1525419Y497444D01*
X-1525088Y499110D01*
X-1525419Y500776D01*
X-1526363Y502188D01*
X-1527775Y503132D01*
X-1529442Y503464D01*
D02*
G37*
G36*
X-1445621Y471291D02*
X-1449268Y470810D01*
X-1452667Y469403D01*
X-1455585Y467164D01*
X-1457824Y464245D01*
X-1459232Y460847D01*
X-1459712Y457200D01*
X-1459232Y453553D01*
X-1457824Y450155D01*
X-1455585Y447237D01*
X-1452667Y444997D01*
X-1449268Y443590D01*
X-1445621Y443110D01*
X-1441975Y443590D01*
X-1438576Y444997D01*
X-1435658Y447237D01*
X-1433419Y450155D01*
X-1432011Y453553D01*
X-1431531Y457200D01*
X-1432011Y460847D01*
X-1433419Y464245D01*
X-1435658Y467164D01*
X-1438576Y469403D01*
X-1441975Y470810D01*
X-1445621Y471291D01*
D02*
G37*
G36*
X-1416411Y450124D02*
X-1418078Y449792D01*
X-1419490Y448848D01*
X-1420434Y447436D01*
X-1420765Y445770D01*
X-1420434Y444104D01*
X-1419490Y442691D01*
X-1418078Y441748D01*
X-1416411Y441416D01*
X-1414745Y441748D01*
X-1413333Y442691D01*
X-1412389Y444104D01*
X-1412058Y445770D01*
X-1412389Y447436D01*
X-1413333Y448848D01*
X-1414745Y449792D01*
X-1416411Y450124D01*
D02*
G37*
G36*
X-1474832D02*
X-1476498Y449792D01*
X-1477910Y448848D01*
X-1478854Y447436D01*
X-1479185Y445770D01*
X-1478854Y444104D01*
X-1477910Y442691D01*
X-1476498Y441748D01*
X-1474832Y441416D01*
X-1473165Y441748D01*
X-1471753Y442691D01*
X-1470809Y444104D01*
X-1470478Y445770D01*
X-1470809Y447436D01*
X-1471753Y448848D01*
X-1473165Y449792D01*
X-1474832Y450124D01*
D02*
G37*
G36*
X-1533251D02*
X-1534918Y449792D01*
X-1536330Y448848D01*
X-1537274Y447436D01*
X-1537605Y445770D01*
X-1537274Y444104D01*
X-1536330Y442691D01*
X-1534918Y441748D01*
X-1533251Y441416D01*
X-1531585Y441748D01*
X-1530173Y442691D01*
X-1529229Y444104D01*
X-1528898Y445770D01*
X-1529229Y447436D01*
X-1530173Y448848D01*
X-1531585Y449792D01*
X-1533251Y450124D01*
D02*
G37*
G36*
X-1447941Y439964D02*
X-1449608Y439632D01*
X-1451020Y438689D01*
X-1451964Y437276D01*
X-1452295Y435610D01*
X-1451964Y433944D01*
X-1451020Y432532D01*
X-1449608Y431588D01*
X-1447941Y431256D01*
X-1446275Y431588D01*
X-1444863Y432532D01*
X-1443919Y433944D01*
X-1443588Y435610D01*
X-1443919Y437276D01*
X-1444863Y438689D01*
X-1446275Y439632D01*
X-1447941Y439964D01*
D02*
G37*
G36*
X-1491342Y445891D02*
X-1494988Y445410D01*
X-1498387Y444003D01*
X-1501305Y441763D01*
X-1503544Y438845D01*
X-1504952Y435447D01*
X-1505432Y431800D01*
X-1504952Y428153D01*
X-1503544Y424755D01*
X-1501305Y421837D01*
X-1498387Y419597D01*
X-1494988Y418190D01*
X-1491342Y417710D01*
X-1487695Y418190D01*
X-1484296Y419597D01*
X-1481378Y421837D01*
X-1479139Y424755D01*
X-1477731Y428153D01*
X-1477251Y431800D01*
X-1477731Y435447D01*
X-1479139Y438845D01*
X-1481378Y441763D01*
X-1484296Y444003D01*
X-1487695Y445410D01*
X-1491342Y445891D01*
D02*
G37*
G36*
X-1547222D02*
X-1550868Y445410D01*
X-1554267Y444003D01*
X-1557185Y441763D01*
X-1559424Y438845D01*
X-1560832Y435447D01*
X-1561312Y431800D01*
X-1560832Y428153D01*
X-1559424Y424755D01*
X-1557185Y421837D01*
X-1554267Y419597D01*
X-1550868Y418190D01*
X-1547222Y417710D01*
X-1543575Y418190D01*
X-1540176Y419597D01*
X-1537258Y421837D01*
X-1535019Y424755D01*
X-1533611Y428153D01*
X-1533131Y431800D01*
X-1533611Y435447D01*
X-1535019Y438845D01*
X-1537258Y441763D01*
X-1540176Y444003D01*
X-1543575Y445410D01*
X-1547222Y445891D01*
D02*
G37*
G36*
X-1156061Y400594D02*
X-1157728Y400262D01*
X-1159140Y399319D01*
X-1160084Y397906D01*
X-1160415Y396240D01*
X-1160084Y394574D01*
X-1159140Y393162D01*
X-1157728Y392218D01*
X-1156061Y391886D01*
X-1154395Y392218D01*
X-1152983Y393162D01*
X-1152039Y394574D01*
X-1151708Y396240D01*
X-1152039Y397906D01*
X-1152983Y399319D01*
X-1154395Y400262D01*
X-1156061Y400594D01*
D02*
G37*
G36*
X-1177652D02*
X-1179318Y400262D01*
X-1180730Y399319D01*
X-1181674Y397906D01*
X-1182005Y396240D01*
X-1181674Y394574D01*
X-1180730Y393162D01*
X-1179318Y392218D01*
X-1177652Y391886D01*
X-1175985Y392218D01*
X-1174573Y393162D01*
X-1173629Y394574D01*
X-1173298Y396240D01*
X-1173629Y397906D01*
X-1174573Y399319D01*
X-1175985Y400262D01*
X-1177652Y400594D01*
D02*
G37*
G36*
X-1496160Y395263D02*
X-1497825Y394931D01*
X-1499238Y393988D01*
X-1500182Y392575D01*
X-1500513Y390909D01*
X-1500182Y389243D01*
X-1499238Y387831D01*
X-1497825Y386887D01*
X-1496160Y386555D01*
X-1494493Y386887D01*
X-1493081Y387831D01*
X-1492137Y389243D01*
X-1491806Y390909D01*
X-1492137Y392575D01*
X-1493081Y393988D01*
X-1494493Y394931D01*
X-1496160Y395263D01*
D02*
G37*
G36*
X-1163681Y387894D02*
X-1165348Y387562D01*
X-1166760Y386618D01*
X-1167704Y385206D01*
X-1168035Y383540D01*
X-1167704Y381874D01*
X-1166760Y380462D01*
X-1165348Y379518D01*
X-1163681Y379186D01*
X-1162015Y379518D01*
X-1160603Y380462D01*
X-1159659Y381874D01*
X-1159328Y383540D01*
X-1159659Y385206D01*
X-1160603Y386618D01*
X-1162015Y387562D01*
X-1163681Y387894D01*
D02*
G37*
G36*
X-1139551Y357229D02*
X-1140933Y356955D01*
X-1142104Y356172D01*
X-1142886Y355001D01*
X-1143161Y353620D01*
X-1142886Y352239D01*
X-1142104Y351068D01*
X-1140933Y350285D01*
X-1139551Y350011D01*
X-1138170Y350285D01*
X-1136999Y351068D01*
X-1136217Y352239D01*
X-1135942Y353620D01*
X-1136217Y355001D01*
X-1136999Y356172D01*
X-1138170Y356955D01*
X-1139551Y357229D01*
D02*
G37*
G36*
X-1288141Y351911D02*
X-1291788Y351430D01*
X-1295187Y350023D01*
X-1298105Y347784D01*
X-1300344Y344865D01*
X-1301752Y341467D01*
X-1302232Y337820D01*
X-1301752Y334173D01*
X-1300344Y330775D01*
X-1298105Y327856D01*
X-1295187Y325617D01*
X-1291788Y324210D01*
X-1288141Y323730D01*
X-1284495Y324210D01*
X-1281096Y325617D01*
X-1278178Y327856D01*
X-1275939Y330775D01*
X-1274531Y334173D01*
X-1274051Y337820D01*
X-1274531Y341467D01*
X-1275939Y344865D01*
X-1278178Y347784D01*
X-1281096Y350023D01*
X-1284495Y351430D01*
X-1288141Y351911D01*
D02*
G37*
G36*
X-1473799Y302854D02*
X-1475180Y302579D01*
X-1476351Y301796D01*
X-1477134Y300625D01*
X-1477408Y299244D01*
X-1477134Y297863D01*
X-1476351Y296692D01*
X-1475180Y295910D01*
X-1473799Y295635D01*
X-1472418Y295910D01*
X-1471247Y296692D01*
X-1470464Y297863D01*
X-1470190Y299244D01*
X-1470464Y300625D01*
X-1471247Y301796D01*
X-1472418Y302579D01*
X-1473799Y302854D01*
D02*
G37*
G36*
X-1482090Y301079D02*
X-1483471Y300805D01*
X-1484642Y300022D01*
X-1485425Y298851D01*
X-1485699Y297470D01*
X-1485425Y296089D01*
X-1484642Y294918D01*
X-1483471Y294135D01*
X-1482090Y293861D01*
X-1480709Y294135D01*
X-1479538Y294918D01*
X-1478755Y296089D01*
X-1478481Y297470D01*
X-1478755Y298851D01*
X-1479538Y300022D01*
X-1480709Y300805D01*
X-1482090Y301079D01*
D02*
G37*
G36*
X-1513609Y298480D02*
X-1514990Y298206D01*
X-1516161Y297423D01*
X-1516943Y296252D01*
X-1517218Y294871D01*
X-1516943Y293490D01*
X-1516161Y292319D01*
X-1514990Y291537D01*
X-1513609Y291262D01*
X-1512228Y291537D01*
X-1511057Y292319D01*
X-1510274Y293490D01*
X-1510000Y294871D01*
X-1510274Y296252D01*
X-1511057Y297423D01*
X-1512228Y298206D01*
X-1513609Y298480D01*
D02*
G37*
G36*
X-1477661Y289765D02*
X-1479921Y289316D01*
X-1481836Y288036D01*
X-1483116Y286121D01*
X-1483364Y284872D01*
X-1484659D01*
X-1484907Y286121D01*
X-1486187Y288036D01*
X-1488102Y289316D01*
X-1490361Y289765D01*
X-1492621Y289316D01*
X-1494536Y288036D01*
X-1495816Y286121D01*
X-1496064Y284872D01*
X-1497359D01*
X-1497607Y286121D01*
X-1498887Y288036D01*
X-1500802Y289316D01*
X-1503062Y289765D01*
X-1505321Y289316D01*
X-1507236Y288036D01*
X-1508516Y286121D01*
X-1508764Y284872D01*
X-1510059D01*
X-1510307Y286121D01*
X-1511587Y288036D01*
X-1513502Y289316D01*
X-1515762Y289765D01*
X-1518021Y289316D01*
X-1519936Y288036D01*
X-1521216Y286121D01*
X-1521464Y284872D01*
X-1522759D01*
X-1523007Y286121D01*
X-1524287Y288036D01*
X-1526202Y289316D01*
X-1528461Y289765D01*
X-1530721Y289316D01*
X-1532636Y288036D01*
X-1533916Y286121D01*
X-1534164Y284872D01*
X-1535459D01*
X-1535707Y286121D01*
X-1536987Y288036D01*
X-1538902Y289316D01*
X-1541161Y289765D01*
X-1543421Y289316D01*
X-1545336Y288036D01*
X-1546616Y286121D01*
X-1546864Y284872D01*
X-1548159D01*
X-1548407Y286121D01*
X-1549687Y288036D01*
X-1551602Y289316D01*
X-1553862Y289765D01*
X-1556121Y289316D01*
X-1558036Y288036D01*
X-1559316Y286121D01*
X-1559564Y284872D01*
X-1560859D01*
X-1561107Y286121D01*
X-1562387Y288036D01*
X-1564302Y289316D01*
X-1566561Y289765D01*
X-1568821Y289316D01*
X-1570736Y288036D01*
X-1572016Y286121D01*
X-1572465Y283862D01*
X-1572016Y281603D01*
X-1570736Y279688D01*
X-1568821Y278408D01*
X-1567571Y278160D01*
Y276865D01*
X-1568821Y276616D01*
X-1570736Y275336D01*
X-1572016Y273421D01*
X-1572465Y271162D01*
X-1572016Y268903D01*
X-1570736Y266988D01*
X-1568821Y265708D01*
X-1566561Y265259D01*
X-1564302Y265708D01*
X-1562387Y266988D01*
X-1561107Y268903D01*
X-1560859Y270152D01*
X-1559564D01*
X-1559316Y268903D01*
X-1558036Y266988D01*
X-1556121Y265708D01*
X-1553862Y265259D01*
X-1551602Y265708D01*
X-1549687Y266988D01*
X-1548407Y268903D01*
X-1548159Y270152D01*
X-1546864D01*
X-1546616Y268903D01*
X-1545336Y266988D01*
X-1543421Y265708D01*
X-1541161Y265259D01*
X-1538902Y265708D01*
X-1536987Y266988D01*
X-1535707Y268903D01*
X-1535459Y270152D01*
X-1534164D01*
X-1533916Y268903D01*
X-1532636Y266988D01*
X-1530721Y265708D01*
X-1528461Y265259D01*
X-1526202Y265708D01*
X-1524287Y266988D01*
X-1523007Y268903D01*
X-1522759Y270152D01*
X-1521464D01*
X-1521216Y268903D01*
X-1519936Y266988D01*
X-1518021Y265708D01*
X-1515762Y265259D01*
X-1513502Y265708D01*
X-1511587Y266988D01*
X-1510307Y268903D01*
X-1510059Y270152D01*
X-1508764D01*
X-1508516Y268903D01*
X-1507236Y266988D01*
X-1505321Y265708D01*
X-1503062Y265259D01*
X-1500802Y265708D01*
X-1498887Y266988D01*
X-1497607Y268903D01*
X-1497359Y270152D01*
X-1496064D01*
X-1495816Y268903D01*
X-1494536Y266988D01*
X-1492621Y265708D01*
X-1490361Y265259D01*
X-1488102Y265708D01*
X-1486187Y266988D01*
X-1484907Y268903D01*
X-1484659Y270152D01*
X-1483364D01*
X-1483116Y268903D01*
X-1481836Y266988D01*
X-1479921Y265708D01*
X-1477661Y265259D01*
X-1475402Y265708D01*
X-1473487Y266988D01*
X-1472207Y268903D01*
X-1471758Y271162D01*
X-1472207Y273421D01*
X-1473487Y275336D01*
X-1475402Y276616D01*
X-1476652Y276865D01*
Y278160D01*
X-1475402Y278408D01*
X-1473487Y279688D01*
X-1472207Y281603D01*
X-1471758Y283862D01*
X-1472207Y286121D01*
X-1473487Y288036D01*
X-1475402Y289316D01*
X-1477661Y289765D01*
D02*
G37*
G36*
X-1522782Y262689D02*
X-1524164Y262415D01*
X-1525335Y261632D01*
X-1526117Y260461D01*
X-1526392Y259080D01*
X-1526117Y257699D01*
X-1525335Y256528D01*
X-1524164Y255745D01*
X-1522782Y255471D01*
X-1521401Y255745D01*
X-1520230Y256528D01*
X-1519448Y257699D01*
X-1519173Y259080D01*
X-1519448Y260461D01*
X-1520230Y261632D01*
X-1521401Y262415D01*
X-1522782Y262689D01*
D02*
G37*
G36*
X-1547277Y260625D02*
X-1548658Y260350D01*
X-1549829Y259567D01*
X-1550612Y258396D01*
X-1550886Y257015D01*
X-1550612Y255634D01*
X-1549829Y254463D01*
X-1548658Y253681D01*
X-1547277Y253406D01*
X-1545896Y253681D01*
X-1544725Y254463D01*
X-1543942Y255634D01*
X-1543668Y257015D01*
X-1543942Y258396D01*
X-1544725Y259567D01*
X-1545896Y260350D01*
X-1547277Y260625D01*
D02*
G37*
G36*
X-1572260Y260149D02*
X-1573641Y259875D01*
X-1574812Y259092D01*
X-1575595Y257921D01*
X-1575869Y256540D01*
X-1575595Y255159D01*
X-1574812Y253988D01*
X-1573641Y253205D01*
X-1572260Y252931D01*
X-1570879Y253205D01*
X-1569708Y253988D01*
X-1568925Y255159D01*
X-1568651Y256540D01*
X-1568925Y257921D01*
X-1569708Y259092D01*
X-1570879Y259875D01*
X-1572260Y260149D01*
D02*
G37*
G36*
X-1528427Y224334D02*
X-1529809Y224059D01*
X-1530979Y223276D01*
X-1531762Y222105D01*
X-1532037Y220724D01*
X-1531762Y219343D01*
X-1530979Y218172D01*
X-1529809Y217390D01*
X-1528427Y217115D01*
X-1527046Y217390D01*
X-1525875Y218172D01*
X-1525093Y219343D01*
X-1524818Y220724D01*
X-1525093Y222105D01*
X-1525875Y223276D01*
X-1527046Y224059D01*
X-1528427Y224334D01*
D02*
G37*
G36*
X-1586591Y211364D02*
X-1588258Y211032D01*
X-1589670Y210089D01*
X-1590614Y208676D01*
X-1590945Y207010D01*
X-1590614Y205344D01*
X-1589670Y203932D01*
X-1588258Y202988D01*
X-1586591Y202656D01*
X-1584925Y202988D01*
X-1583513Y203932D01*
X-1582569Y205344D01*
X-1582238Y207010D01*
X-1582569Y208676D01*
X-1583513Y210089D01*
X-1584925Y211032D01*
X-1586591Y211364D01*
D02*
G37*
G36*
X-1518640Y198074D02*
X-1520306Y197742D01*
X-1521718Y196798D01*
X-1522662Y195386D01*
X-1522994Y193720D01*
X-1522662Y192054D01*
X-1521718Y190641D01*
X-1520306Y189698D01*
X-1518640Y189366D01*
X-1516974Y189698D01*
X-1515562Y190641D01*
X-1514618Y192054D01*
X-1514286Y193720D01*
X-1514618Y195386D01*
X-1515562Y196798D01*
X-1516974Y197742D01*
X-1518640Y198074D01*
D02*
G37*
G36*
X-1270361Y193584D02*
X-1272028Y193252D01*
X-1273440Y192309D01*
X-1274384Y190896D01*
X-1274715Y189230D01*
X-1274384Y187564D01*
X-1273440Y186152D01*
X-1272028Y185208D01*
X-1270361Y184876D01*
X-1268695Y185208D01*
X-1267283Y186152D01*
X-1266339Y187564D01*
X-1266008Y189230D01*
X-1266339Y190896D01*
X-1267283Y192309D01*
X-1268695Y193252D01*
X-1270361Y193584D01*
D02*
G37*
G36*
X-1361801Y212211D02*
X-1365448Y211730D01*
X-1368847Y210323D01*
X-1371765Y208083D01*
X-1374004Y205165D01*
X-1375412Y201767D01*
X-1375892Y198120D01*
X-1375412Y194473D01*
X-1374004Y191075D01*
X-1371765Y188157D01*
X-1368847Y185917D01*
X-1365448Y184510D01*
X-1361801Y184030D01*
X-1358155Y184510D01*
X-1354756Y185917D01*
X-1351838Y188157D01*
X-1349599Y191075D01*
X-1348191Y194473D01*
X-1347711Y198120D01*
X-1348191Y201767D01*
X-1349599Y205165D01*
X-1351838Y208083D01*
X-1354756Y210323D01*
X-1358155Y211730D01*
X-1361801Y212211D01*
D02*
G37*
G36*
X-1156061Y187234D02*
X-1157728Y186902D01*
X-1159140Y185958D01*
X-1160084Y184546D01*
X-1160415Y182880D01*
X-1160084Y181214D01*
X-1159140Y179802D01*
X-1157728Y178858D01*
X-1156061Y178526D01*
X-1154395Y178858D01*
X-1152983Y179802D01*
X-1152039Y181214D01*
X-1151708Y182880D01*
X-1152039Y184546D01*
X-1152983Y185958D01*
X-1154395Y186902D01*
X-1156061Y187234D01*
D02*
G37*
G36*
X-1178922D02*
X-1180588Y186902D01*
X-1182000Y185958D01*
X-1182944Y184546D01*
X-1183275Y182880D01*
X-1182944Y181214D01*
X-1182000Y179802D01*
X-1180588Y178858D01*
X-1178922Y178526D01*
X-1177255Y178858D01*
X-1175843Y179802D01*
X-1174899Y181214D01*
X-1174568Y182880D01*
X-1174899Y184546D01*
X-1175843Y185958D01*
X-1177255Y186902D01*
X-1178922Y187234D01*
D02*
G37*
G36*
X-1578721Y184857D02*
X-1580103Y184582D01*
X-1581273Y183799D01*
X-1582056Y182628D01*
X-1582331Y181247D01*
X-1582056Y179866D01*
X-1581273Y178695D01*
X-1580103Y177913D01*
X-1578721Y177638D01*
X-1577340Y177913D01*
X-1576169Y178695D01*
X-1575387Y179866D01*
X-1575112Y181247D01*
X-1575387Y182628D01*
X-1576169Y183799D01*
X-1577340Y184582D01*
X-1578721Y184857D01*
D02*
G37*
G36*
X-1477372Y179614D02*
X-1479038Y179282D01*
X-1480450Y178339D01*
X-1481394Y176926D01*
X-1481725Y175260D01*
X-1481394Y173594D01*
X-1480450Y172181D01*
X-1479038Y171238D01*
X-1477372Y170906D01*
X-1475705Y171238D01*
X-1474293Y172181D01*
X-1473349Y173594D01*
X-1473018Y175260D01*
X-1473349Y176926D01*
X-1474293Y178339D01*
X-1475705Y179282D01*
X-1477372Y179614D01*
D02*
G37*
G36*
X-1620882Y196971D02*
X-1624528Y196490D01*
X-1627927Y195083D01*
X-1630845Y192843D01*
X-1633084Y189925D01*
X-1634492Y186527D01*
X-1634972Y182880D01*
X-1634492Y179233D01*
X-1633084Y175835D01*
X-1630845Y172917D01*
X-1627927Y170677D01*
X-1624528Y169270D01*
X-1620882Y168790D01*
X-1617235Y169270D01*
X-1613836Y170677D01*
X-1610918Y172917D01*
X-1608679Y175835D01*
X-1607271Y179233D01*
X-1606791Y182880D01*
X-1607271Y186527D01*
X-1608679Y189925D01*
X-1610918Y192843D01*
X-1613836Y195083D01*
X-1617235Y196490D01*
X-1620882Y196971D01*
D02*
G37*
G36*
X-1164951Y177074D02*
X-1166618Y176742D01*
X-1168030Y175798D01*
X-1168974Y174386D01*
X-1169305Y172720D01*
X-1168974Y171054D01*
X-1168030Y169641D01*
X-1166618Y168698D01*
X-1164951Y168366D01*
X-1163285Y168698D01*
X-1161873Y169641D01*
X-1160929Y171054D01*
X-1160598Y172720D01*
X-1160929Y174386D01*
X-1161873Y175798D01*
X-1163285Y176742D01*
X-1164951Y177074D01*
D02*
G37*
G36*
X-1139551Y143869D02*
X-1140933Y143595D01*
X-1142104Y142812D01*
X-1142886Y141641D01*
X-1143161Y140260D01*
X-1142886Y138879D01*
X-1142104Y137708D01*
X-1140933Y136925D01*
X-1139551Y136651D01*
X-1138170Y136925D01*
X-1136999Y137708D01*
X-1136217Y138879D01*
X-1135942Y140260D01*
X-1136217Y141641D01*
X-1136999Y142812D01*
X-1138170Y143595D01*
X-1139551Y143869D01*
D02*
G37*
G36*
X-1384662Y163951D02*
X-1388308Y163470D01*
X-1391707Y162063D01*
X-1394625Y159824D01*
X-1396864Y156905D01*
X-1398272Y153507D01*
X-1398752Y149860D01*
X-1398272Y146213D01*
X-1396864Y142815D01*
X-1394625Y139896D01*
X-1391707Y137657D01*
X-1388308Y136250D01*
X-1384662Y135770D01*
X-1381015Y136250D01*
X-1377616Y137657D01*
X-1374698Y139896D01*
X-1372459Y142815D01*
X-1371051Y146213D01*
X-1370571Y149860D01*
X-1371051Y153507D01*
X-1372459Y156905D01*
X-1374698Y159824D01*
X-1377616Y162063D01*
X-1381015Y163470D01*
X-1384662Y163951D01*
D02*
G37*
G36*
X-1145901Y121194D02*
X-1147568Y120862D01*
X-1148980Y119918D01*
X-1149924Y118506D01*
X-1150255Y116840D01*
X-1149924Y115174D01*
X-1148980Y113762D01*
X-1147568Y112818D01*
X-1145901Y112486D01*
X-1144235Y112818D01*
X-1142823Y113762D01*
X-1141879Y115174D01*
X-1141548Y116840D01*
X-1141879Y118506D01*
X-1142823Y119918D01*
X-1144235Y120862D01*
X-1145901Y121194D01*
D02*
G37*
G36*
X-1438002Y133470D02*
X-1441648Y132990D01*
X-1445047Y131583D01*
X-1447965Y129344D01*
X-1450204Y126425D01*
X-1451612Y123027D01*
X-1452092Y119380D01*
X-1451612Y115733D01*
X-1450204Y112335D01*
X-1447965Y109417D01*
X-1445047Y107177D01*
X-1441648Y105770D01*
X-1438002Y105289D01*
X-1434355Y105770D01*
X-1430956Y107177D01*
X-1428038Y109417D01*
X-1425799Y112335D01*
X-1424391Y115733D01*
X-1423911Y119380D01*
X-1424391Y123027D01*
X-1425799Y126425D01*
X-1428038Y129344D01*
X-1430956Y131583D01*
X-1434355Y132990D01*
X-1438002Y133470D01*
D02*
G37*
G36*
X-1196702Y929439D02*
X-1198083Y929165D01*
X-1199254Y928382D01*
X-1200036Y927211D01*
X-1200311Y925830D01*
X-1200036Y924449D01*
X-1199254Y923278D01*
X-1198083Y922495D01*
X-1196702Y922221D01*
X-1195320Y922495D01*
X-1194149Y923278D01*
X-1193367Y924449D01*
X-1193092Y925830D01*
X-1193367Y927211D01*
X-1194149Y928382D01*
X-1195320Y929165D01*
X-1196702Y929439D01*
D02*
G37*
G36*
X-695004Y934995D02*
X-696670Y934663D01*
X-698082Y933720D01*
X-699026Y932307D01*
X-699357Y930641D01*
X-699026Y928975D01*
X-698082Y927563D01*
X-696964Y926815D01*
X-696875Y926449D01*
Y925770D01*
X-696964Y925404D01*
X-698082Y924657D01*
X-699026Y923245D01*
X-699357Y921579D01*
X-699026Y919912D01*
X-698082Y918500D01*
X-696670Y917556D01*
X-695004Y917225D01*
X-693338Y917556D01*
X-691925Y918500D01*
X-690981Y919912D01*
X-690650Y921579D01*
X-690981Y923245D01*
X-691925Y924657D01*
X-693044Y925404D01*
X-693132Y925770D01*
Y926449D01*
X-693044Y926815D01*
X-691925Y927563D01*
X-690981Y928975D01*
X-690650Y930641D01*
X-690981Y932307D01*
X-691925Y933720D01*
X-693338Y934663D01*
X-695004Y934995D01*
D02*
G37*
G36*
X-412724Y917323D02*
X-414105Y917049D01*
X-415276Y916266D01*
X-416059Y915095D01*
X-416334Y913714D01*
X-416059Y912333D01*
X-415276Y911162D01*
X-414105Y910379D01*
X-412724Y910105D01*
X-411343Y910379D01*
X-410172Y911162D01*
X-409390Y912333D01*
X-409115Y913714D01*
X-409390Y915095D01*
X-410172Y916266D01*
X-411343Y917049D01*
X-412724Y917323D01*
D02*
G37*
G36*
X-802724D02*
X-804106Y917049D01*
X-805276Y916266D01*
X-806059Y915095D01*
X-806334Y913714D01*
X-806059Y912333D01*
X-805276Y911162D01*
X-804106Y910379D01*
X-802724Y910105D01*
X-801343Y910379D01*
X-800172Y911162D01*
X-799390Y912333D01*
X-799115Y913714D01*
X-799390Y915095D01*
X-800172Y916266D01*
X-801343Y917049D01*
X-802724Y917323D01*
D02*
G37*
G36*
X-518030Y917145D02*
X-519411Y916871D01*
X-520582Y916088D01*
X-521365Y914917D01*
X-521639Y913536D01*
X-521365Y912155D01*
X-520582Y910984D01*
X-519411Y910202D01*
X-518030Y909927D01*
X-516649Y910202D01*
X-515478Y910984D01*
X-514695Y912155D01*
X-514421Y913536D01*
X-514695Y914917D01*
X-515478Y916088D01*
X-516649Y916871D01*
X-518030Y917145D01*
D02*
G37*
G36*
X-908030D02*
X-909411Y916871D01*
X-910582Y916088D01*
X-911365Y914917D01*
X-911639Y913536D01*
X-911365Y912155D01*
X-910582Y910984D01*
X-909411Y910202D01*
X-908030Y909927D01*
X-906649Y910202D01*
X-905478Y910984D01*
X-904695Y912155D01*
X-904421Y913536D01*
X-904695Y914917D01*
X-905478Y916088D01*
X-906649Y916871D01*
X-908030Y917145D01*
D02*
G37*
G36*
X-412886Y891112D02*
X-414268Y890838D01*
X-415439Y890055D01*
X-416221Y888884D01*
X-416496Y887503D01*
X-416221Y886122D01*
X-415439Y884951D01*
X-414268Y884168D01*
X-412886Y883894D01*
X-411505Y884168D01*
X-410334Y884951D01*
X-409552Y886122D01*
X-409277Y887503D01*
X-409552Y888884D01*
X-410334Y890055D01*
X-411505Y890838D01*
X-412886Y891112D01*
D02*
G37*
G36*
X-517912D02*
X-519294Y890838D01*
X-520465Y890055D01*
X-521247Y888884D01*
X-521522Y887503D01*
X-521247Y886122D01*
X-520465Y884951D01*
X-519294Y884168D01*
X-517912Y883894D01*
X-516531Y884168D01*
X-515360Y884951D01*
X-514578Y886122D01*
X-514303Y887503D01*
X-514578Y888884D01*
X-515360Y890055D01*
X-516531Y890838D01*
X-517912Y891112D01*
D02*
G37*
G36*
X-802887D02*
X-804268Y890838D01*
X-805439Y890055D01*
X-806221Y888884D01*
X-806496Y887503D01*
X-806221Y886122D01*
X-805439Y884951D01*
X-804268Y884168D01*
X-802887Y883894D01*
X-801505Y884168D01*
X-800334Y884951D01*
X-799552Y886122D01*
X-799277Y887503D01*
X-799552Y888884D01*
X-800334Y890055D01*
X-801505Y890838D01*
X-802887Y891112D01*
D02*
G37*
G36*
X-907913D02*
X-909294Y890838D01*
X-910465Y890055D01*
X-911247Y888884D01*
X-911522Y887503D01*
X-911247Y886122D01*
X-910465Y884951D01*
X-909294Y884168D01*
X-907913Y883894D01*
X-906531Y884168D01*
X-905360Y884951D01*
X-904578Y886122D01*
X-904303Y887503D01*
X-904578Y888884D01*
X-905360Y890055D01*
X-906531Y890838D01*
X-907913Y891112D01*
D02*
G37*
G36*
X-695007Y889207D02*
X-696673Y888875D01*
X-698085Y887932D01*
X-699029Y886519D01*
X-699361Y884853D01*
X-699029Y883187D01*
X-698085Y881775D01*
X-697069Y881096D01*
X-697036Y880999D01*
Y879781D01*
X-697069Y879684D01*
X-698085Y879005D01*
X-699029Y877593D01*
X-699361Y875927D01*
X-699029Y874261D01*
X-698085Y872848D01*
X-696673Y871905D01*
X-695007Y871573D01*
X-693341Y871905D01*
X-691928Y872848D01*
X-690985Y874261D01*
X-690653Y875927D01*
X-690985Y877593D01*
X-691928Y879005D01*
X-692945Y879684D01*
X-692978Y879781D01*
Y880999D01*
X-692945Y881096D01*
X-691928Y881775D01*
X-690985Y883187D01*
X-690653Y884853D01*
X-690985Y886519D01*
X-691928Y887932D01*
X-693341Y888875D01*
X-695007Y889207D01*
D02*
G37*
G36*
X-276263Y876532D02*
X-277929Y876201D01*
X-279341Y875257D01*
X-280285Y873845D01*
X-280616Y872179D01*
X-280466Y871423D01*
X-281546Y870343D01*
X-282302Y870494D01*
X-283968Y870162D01*
X-285380Y869219D01*
X-286324Y867806D01*
X-286655Y866140D01*
X-286324Y864474D01*
X-285380Y863062D01*
X-283968Y862118D01*
X-282302Y861786D01*
X-280635Y862118D01*
X-279223Y863062D01*
X-278279Y864474D01*
X-277948Y866140D01*
X-278098Y866895D01*
X-277018Y867975D01*
X-276263Y867825D01*
X-274597Y868156D01*
X-273184Y869100D01*
X-272241Y870513D01*
X-271909Y872179D01*
X-272241Y873845D01*
X-273184Y875257D01*
X-274597Y876201D01*
X-276263Y876532D01*
D02*
G37*
G36*
X-1300842Y870494D02*
X-1302508Y870162D01*
X-1303920Y869219D01*
X-1304864Y867806D01*
X-1305195Y866140D01*
X-1304864Y864474D01*
X-1303920Y863062D01*
X-1302508Y862118D01*
X-1300842Y861786D01*
X-1299175Y862118D01*
X-1297763Y863062D01*
X-1296819Y864474D01*
X-1296488Y866140D01*
X-1296819Y867806D01*
X-1297763Y869219D01*
X-1299175Y870162D01*
X-1300842Y870494D01*
D02*
G37*
G36*
X-1313542D02*
X-1315208Y870162D01*
X-1316620Y869219D01*
X-1317564Y867806D01*
X-1317895Y866140D01*
X-1317564Y864474D01*
X-1316620Y863062D01*
X-1315208Y862118D01*
X-1313542Y861786D01*
X-1311875Y862118D01*
X-1310463Y863062D01*
X-1309519Y864474D01*
X-1309188Y866140D01*
X-1309519Y867806D01*
X-1310463Y869219D01*
X-1311875Y870162D01*
X-1313542Y870494D01*
D02*
G37*
G36*
X-412890Y866112D02*
X-414271Y865838D01*
X-415442Y865055D01*
X-416224Y863884D01*
X-416499Y862503D01*
X-416224Y861122D01*
X-415442Y859951D01*
X-414271Y859168D01*
X-412890Y858894D01*
X-411509Y859168D01*
X-410338Y859951D01*
X-409555Y861122D01*
X-409281Y862503D01*
X-409555Y863884D01*
X-410338Y865055D01*
X-411509Y865838D01*
X-412890Y866112D01*
D02*
G37*
G36*
X-517909D02*
X-519290Y865838D01*
X-520461Y865055D01*
X-521244Y863884D01*
X-521518Y862503D01*
X-521244Y861122D01*
X-520461Y859951D01*
X-519290Y859168D01*
X-517909Y858894D01*
X-516528Y859168D01*
X-515357Y859951D01*
X-514575Y861122D01*
X-514300Y862503D01*
X-514575Y863884D01*
X-515357Y865055D01*
X-516528Y865838D01*
X-517909Y866112D01*
D02*
G37*
G36*
X-802890D02*
X-804271Y865838D01*
X-805442Y865055D01*
X-806224Y863884D01*
X-806499Y862503D01*
X-806224Y861122D01*
X-805442Y859951D01*
X-804271Y859168D01*
X-802890Y858894D01*
X-801509Y859168D01*
X-800338Y859951D01*
X-799555Y861122D01*
X-799280Y862503D01*
X-799555Y863884D01*
X-800338Y865055D01*
X-801509Y865838D01*
X-802890Y866112D01*
D02*
G37*
G36*
X-907909D02*
X-909290Y865838D01*
X-910461Y865055D01*
X-911244Y863884D01*
X-911518Y862503D01*
X-911244Y861122D01*
X-910461Y859951D01*
X-909290Y859168D01*
X-907909Y858894D01*
X-906528Y859168D01*
X-905357Y859951D01*
X-904575Y861122D01*
X-904300Y862503D01*
X-904575Y863884D01*
X-905357Y865055D01*
X-906528Y865838D01*
X-907909Y866112D01*
D02*
G37*
G36*
X-1300842Y855254D02*
X-1302508Y854922D01*
X-1303920Y853979D01*
X-1304864Y852566D01*
X-1305195Y850900D01*
X-1304864Y849234D01*
X-1303920Y847822D01*
X-1302508Y846878D01*
X-1300842Y846546D01*
X-1299175Y846878D01*
X-1297763Y847822D01*
X-1296819Y849234D01*
X-1296488Y850900D01*
X-1296819Y852566D01*
X-1297763Y853979D01*
X-1299175Y854922D01*
X-1300842Y855254D01*
D02*
G37*
G36*
X-1194162Y847634D02*
X-1195828Y847302D01*
X-1197240Y846358D01*
X-1198184Y844946D01*
X-1198515Y843280D01*
X-1198184Y841614D01*
X-1197240Y840201D01*
X-1195828Y839258D01*
X-1194162Y838926D01*
X-1192495Y839258D01*
X-1191083Y840201D01*
X-1190139Y841614D01*
X-1189808Y843280D01*
X-1190139Y844946D01*
X-1191083Y846358D01*
X-1192495Y847302D01*
X-1194162Y847634D01*
D02*
G37*
G36*
X-412891Y841112D02*
X-414272Y840838D01*
X-415443Y840055D01*
X-416226Y838884D01*
X-416501Y837503D01*
X-416226Y836122D01*
X-415443Y834951D01*
X-414272Y834168D01*
X-412891Y833894D01*
X-411510Y834168D01*
X-410339Y834951D01*
X-409557Y836122D01*
X-409282Y837503D01*
X-409557Y838884D01*
X-410339Y840055D01*
X-411510Y840838D01*
X-412891Y841112D01*
D02*
G37*
G36*
X-517908D02*
X-519289Y840838D01*
X-520460Y840055D01*
X-521242Y838884D01*
X-521517Y837503D01*
X-521242Y836122D01*
X-520460Y834951D01*
X-519289Y834168D01*
X-517908Y833894D01*
X-516526Y834168D01*
X-515355Y834951D01*
X-514573Y836122D01*
X-514298Y837503D01*
X-514573Y838884D01*
X-515355Y840055D01*
X-516526Y840838D01*
X-517908Y841112D01*
D02*
G37*
G36*
X-802891D02*
X-804273Y840838D01*
X-805443Y840055D01*
X-806226Y838884D01*
X-806501Y837503D01*
X-806226Y836122D01*
X-805443Y834951D01*
X-804273Y834168D01*
X-802891Y833894D01*
X-801510Y834168D01*
X-800339Y834951D01*
X-799557Y836122D01*
X-799282Y837503D01*
X-799557Y838884D01*
X-800339Y840055D01*
X-801510Y840838D01*
X-802891Y841112D01*
D02*
G37*
G36*
X-907908D02*
X-909289Y840838D01*
X-910460Y840055D01*
X-911242Y838884D01*
X-911517Y837503D01*
X-911242Y836122D01*
X-910460Y834951D01*
X-909289Y834168D01*
X-907908Y833894D01*
X-906526Y834168D01*
X-905356Y834951D01*
X-904573Y836122D01*
X-904298Y837503D01*
X-904573Y838884D01*
X-905356Y840055D01*
X-906526Y840838D01*
X-907908Y841112D01*
D02*
G37*
G36*
X-1300842Y840014D02*
X-1302508Y839682D01*
X-1303920Y838738D01*
X-1304864Y837326D01*
X-1305195Y835660D01*
X-1304864Y833994D01*
X-1303920Y832581D01*
X-1302508Y831638D01*
X-1300842Y831306D01*
X-1299175Y831638D01*
X-1297763Y832581D01*
X-1296819Y833994D01*
X-1296488Y835660D01*
X-1296819Y837326D01*
X-1297763Y838738D01*
X-1299175Y839682D01*
X-1300842Y840014D01*
D02*
G37*
G36*
X-1313542D02*
X-1315208Y839682D01*
X-1316620Y838738D01*
X-1317564Y837326D01*
X-1317895Y835660D01*
X-1317564Y833994D01*
X-1316620Y832581D01*
X-1315208Y831638D01*
X-1313542Y831306D01*
X-1311875Y831638D01*
X-1310463Y832581D01*
X-1309519Y833994D01*
X-1309188Y835660D01*
X-1309519Y837326D01*
X-1310463Y838738D01*
X-1311875Y839682D01*
X-1313542Y840014D01*
D02*
G37*
G36*
X-696277Y843487D02*
X-697943Y843155D01*
X-699355Y842212D01*
X-700299Y840799D01*
X-700630Y839133D01*
X-700299Y837467D01*
X-699355Y836055D01*
X-698339Y835376D01*
X-698306Y835279D01*
Y834061D01*
X-698339Y833964D01*
X-699355Y833285D01*
X-700299Y831873D01*
X-700630Y830207D01*
X-700299Y828541D01*
X-699355Y827128D01*
X-697943Y826185D01*
X-696277Y825853D01*
X-694611Y826185D01*
X-693198Y827128D01*
X-692255Y828541D01*
X-691923Y830207D01*
X-692255Y831873D01*
X-693198Y833285D01*
X-694215Y833964D01*
X-694248Y834061D01*
Y835279D01*
X-694215Y835376D01*
X-693198Y836055D01*
X-692255Y837467D01*
X-691923Y839133D01*
X-692255Y840799D01*
X-693198Y842212D01*
X-694611Y843155D01*
X-696277Y843487D01*
D02*
G37*
G36*
X-1053503Y828272D02*
X-1055169Y827941D01*
X-1056581Y826997D01*
X-1057525Y825585D01*
X-1057857Y823919D01*
X-1057706Y823164D01*
X-1058786Y822083D01*
X-1059541Y822234D01*
X-1061208Y821902D01*
X-1062620Y820958D01*
X-1063564Y819546D01*
X-1063895Y817880D01*
X-1063564Y816214D01*
X-1062620Y814801D01*
X-1061208Y813858D01*
X-1059541Y813526D01*
X-1057875Y813858D01*
X-1056463Y814801D01*
X-1055519Y816214D01*
X-1055188Y817880D01*
X-1055338Y818635D01*
X-1054258Y819715D01*
X-1053503Y819565D01*
X-1051837Y819896D01*
X-1050424Y820840D01*
X-1049481Y822253D01*
X-1049149Y823919D01*
X-1049481Y825585D01*
X-1050424Y826997D01*
X-1051837Y827941D01*
X-1053503Y828272D01*
D02*
G37*
G36*
X-1073823Y825732D02*
X-1075489Y825401D01*
X-1076901Y824457D01*
X-1077845Y823045D01*
X-1078176Y821379D01*
X-1078026Y820623D01*
X-1079106Y819543D01*
X-1079862Y819694D01*
X-1081528Y819362D01*
X-1082940Y818419D01*
X-1083884Y817006D01*
X-1084215Y815340D01*
X-1083884Y813674D01*
X-1082940Y812262D01*
X-1081528Y811318D01*
X-1079862Y810986D01*
X-1078195Y811318D01*
X-1076783Y812262D01*
X-1075839Y813674D01*
X-1075508Y815340D01*
X-1075658Y816095D01*
X-1074578Y817175D01*
X-1073823Y817025D01*
X-1072157Y817356D01*
X-1070744Y818300D01*
X-1069801Y819713D01*
X-1069469Y821379D01*
X-1069801Y823045D01*
X-1070744Y824457D01*
X-1072157Y825401D01*
X-1073823Y825732D01*
D02*
G37*
G36*
X-274637Y797767D02*
X-276303Y797435D01*
X-277715Y796491D01*
X-278659Y795079D01*
X-278990Y793413D01*
X-278659Y791747D01*
X-277715Y790334D01*
X-276699Y789656D01*
X-276666Y789559D01*
Y788341D01*
X-276699Y788244D01*
X-277715Y787565D01*
X-278659Y786153D01*
X-278990Y784487D01*
X-278659Y782821D01*
X-277715Y781408D01*
X-276303Y780465D01*
X-274637Y780133D01*
X-272971Y780465D01*
X-271558Y781408D01*
X-270615Y782821D01*
X-270283Y784487D01*
X-270615Y786153D01*
X-271558Y787565D01*
X-272575Y788244D01*
X-272608Y788341D01*
Y789559D01*
X-272575Y789656D01*
X-271558Y790334D01*
X-270615Y791747D01*
X-270283Y793413D01*
X-270615Y795079D01*
X-271558Y796491D01*
X-272971Y797435D01*
X-274637Y797767D01*
D02*
G37*
G36*
X-696277D02*
X-697943Y797435D01*
X-699355Y796491D01*
X-700299Y795079D01*
X-700630Y793413D01*
X-700299Y791747D01*
X-699355Y790334D01*
X-698339Y789656D01*
X-698306Y789559D01*
Y788341D01*
X-698339Y788244D01*
X-699355Y787565D01*
X-700299Y786153D01*
X-700630Y784487D01*
X-700299Y782821D01*
X-699355Y781408D01*
X-697943Y780465D01*
X-696277Y780133D01*
X-694611Y780465D01*
X-693198Y781408D01*
X-692255Y782821D01*
X-691923Y784487D01*
X-692255Y786153D01*
X-693198Y787565D01*
X-694215Y788244D01*
X-694248Y788341D01*
Y789559D01*
X-694215Y789656D01*
X-693198Y790334D01*
X-692255Y791747D01*
X-691923Y793413D01*
X-692255Y795079D01*
X-693198Y796491D01*
X-694611Y797435D01*
X-696277Y797767D01*
D02*
G37*
G36*
X-1097642Y784134D02*
X-1099308Y783802D01*
X-1100720Y782859D01*
X-1101664Y781446D01*
X-1101995Y779780D01*
X-1101845Y779025D01*
X-1102925Y777945D01*
X-1103680Y778095D01*
X-1105346Y777764D01*
X-1106759Y776820D01*
X-1107702Y775407D01*
X-1108034Y773741D01*
X-1107702Y772075D01*
X-1106759Y770663D01*
X-1105346Y769719D01*
X-1103680Y769388D01*
X-1102014Y769719D01*
X-1100602Y770663D01*
X-1099658Y772075D01*
X-1099326Y773741D01*
X-1099477Y774497D01*
X-1098397Y775577D01*
X-1097642Y775426D01*
X-1095975Y775758D01*
X-1094563Y776702D01*
X-1093619Y778114D01*
X-1093288Y779780D01*
X-1093619Y781446D01*
X-1094563Y782859D01*
X-1095975Y783802D01*
X-1097642Y784134D01*
D02*
G37*
G36*
X-32002Y802664D02*
X-35466Y802208D01*
X-38694Y800871D01*
X-41466Y798744D01*
X-43593Y795972D01*
X-44930Y792744D01*
X-45386Y789280D01*
X-44930Y785816D01*
X-43593Y782588D01*
X-41466Y779816D01*
X-38694Y777689D01*
X-35466Y776352D01*
X-32002Y775895D01*
X-28537Y776352D01*
X-25309Y777689D01*
X-22537Y779816D01*
X-20410Y782588D01*
X-19073Y785816D01*
X-18617Y789280D01*
X-19073Y792744D01*
X-20410Y795972D01*
X-22537Y798744D01*
X-25309Y800871D01*
X-28537Y802208D01*
X-32002Y802664D01*
D02*
G37*
G36*
X-191514D02*
X-194978Y802208D01*
X-198206Y800871D01*
X-200978Y798744D01*
X-203105Y795972D01*
X-204442Y792744D01*
X-204898Y789280D01*
X-204442Y785816D01*
X-203105Y782588D01*
X-200978Y779816D01*
X-198206Y777689D01*
X-194978Y776352D01*
X-191514Y775895D01*
X-188049Y776352D01*
X-184821Y777689D01*
X-182049Y779816D01*
X-179922Y782588D01*
X-178585Y785816D01*
X-178129Y789280D01*
X-178585Y792744D01*
X-179922Y795972D01*
X-182049Y798744D01*
X-184821Y800871D01*
X-188049Y802208D01*
X-191514Y802664D01*
D02*
G37*
G36*
X-136396Y789456D02*
X-139860Y789000D01*
X-143088Y787663D01*
X-145860Y785536D01*
X-147987Y782764D01*
X-149324Y779536D01*
X-149780Y776072D01*
X-149324Y772608D01*
X-147987Y769380D01*
X-145860Y766608D01*
X-143088Y764481D01*
X-139860Y763144D01*
X-136396Y762688D01*
X-132931Y763144D01*
X-129703Y764481D01*
X-126931Y766608D01*
X-124804Y769380D01*
X-123467Y772608D01*
X-123011Y776072D01*
X-123467Y779536D01*
X-124804Y782764D01*
X-126931Y785536D01*
X-129703Y787663D01*
X-132931Y789000D01*
X-136396Y789456D01*
D02*
G37*
G36*
X-1103991Y766354D02*
X-1105658Y766022D01*
X-1107070Y765079D01*
X-1108014Y763666D01*
X-1108345Y762000D01*
X-1108195Y761245D01*
X-1109275Y760165D01*
X-1110030Y760315D01*
X-1111696Y759984D01*
X-1113109Y759040D01*
X-1114052Y757627D01*
X-1114384Y755961D01*
X-1114052Y754295D01*
X-1113109Y752883D01*
X-1111696Y751939D01*
X-1110030Y751608D01*
X-1108364Y751939D01*
X-1106952Y752883D01*
X-1106008Y754295D01*
X-1105676Y755961D01*
X-1105827Y756717D01*
X-1104747Y757797D01*
X-1103991Y757646D01*
X-1102325Y757978D01*
X-1100913Y758922D01*
X-1099969Y760334D01*
X-1099638Y762000D01*
X-1099969Y763666D01*
X-1100913Y765079D01*
X-1102325Y766022D01*
X-1103991Y766354D01*
D02*
G37*
G36*
X-77722Y779970D02*
X-81356Y779612D01*
X-84851Y778552D01*
X-88072Y776830D01*
X-90895Y774513D01*
X-93211Y771690D01*
X-94933Y768469D01*
X-95993Y764975D01*
X-96351Y761340D01*
X-95993Y757706D01*
X-94933Y754211D01*
X-93211Y750990D01*
X-90895Y748167D01*
X-88072Y745850D01*
X-84851Y744128D01*
X-81356Y743068D01*
X-77722Y742710D01*
X-74087Y743068D01*
X-70592Y744128D01*
X-67371Y745850D01*
X-64548Y748167D01*
X-62231Y750990D01*
X-60510Y754211D01*
X-59450Y757706D01*
X-59092Y761340D01*
X-59450Y764975D01*
X-60510Y768469D01*
X-62231Y771690D01*
X-64548Y774513D01*
X-67371Y776830D01*
X-70592Y778552D01*
X-74087Y779612D01*
X-77722Y779970D01*
D02*
G37*
G36*
X-166621Y757486D02*
X-168911Y757184D01*
X-171044Y756301D01*
X-172876Y754895D01*
X-174282Y753063D01*
X-175166Y750929D01*
X-175467Y748640D01*
X-175166Y746351D01*
X-174282Y744217D01*
X-172876Y742385D01*
X-171044Y740979D01*
X-168911Y740096D01*
X-166621Y739794D01*
X-164332Y740096D01*
X-162199Y740979D01*
X-160367Y742385D01*
X-158961Y744217D01*
X-158077Y746351D01*
X-157776Y748640D01*
X-158077Y750929D01*
X-158961Y753063D01*
X-160367Y754895D01*
X-162199Y756301D01*
X-164332Y757184D01*
X-166621Y757486D01*
D02*
G37*
G36*
X-232407D02*
X-234697Y757184D01*
X-236830Y756301D01*
X-238662Y754895D01*
X-240068Y753063D01*
X-240952Y750929D01*
X-241253Y748640D01*
X-240952Y746351D01*
X-240068Y744217D01*
X-238662Y742385D01*
X-236830Y740979D01*
X-234697Y740096D01*
X-232407Y739794D01*
X-230118Y740096D01*
X-227985Y740979D01*
X-226153Y742385D01*
X-224747Y744217D01*
X-223863Y746351D01*
X-223562Y748640D01*
X-223863Y750929D01*
X-224747Y753063D01*
X-226153Y754895D01*
X-227985Y756301D01*
X-230118Y757184D01*
X-232407Y757486D01*
D02*
G37*
G36*
X-141222Y744786D02*
X-143511Y744484D01*
X-145644Y743601D01*
X-147476Y742195D01*
X-148882Y740363D01*
X-149766Y738229D01*
X-150067Y735940D01*
X-149766Y733651D01*
X-148882Y731517D01*
X-147476Y729685D01*
X-145644Y728279D01*
X-143511Y727396D01*
X-141222Y727094D01*
X-138932Y727396D01*
X-136799Y728279D01*
X-134967Y729685D01*
X-133561Y731517D01*
X-132677Y733651D01*
X-132376Y735940D01*
X-132677Y738229D01*
X-133561Y740363D01*
X-134967Y742195D01*
X-136799Y743601D01*
X-138932Y744484D01*
X-141222Y744786D01*
D02*
G37*
G36*
X-207008D02*
X-209297Y744484D01*
X-211430Y743601D01*
X-213262Y742195D01*
X-214668Y740363D01*
X-215552Y738229D01*
X-215853Y735940D01*
X-215552Y733651D01*
X-214668Y731517D01*
X-213262Y729685D01*
X-211430Y728279D01*
X-209297Y727396D01*
X-207008Y727094D01*
X-204718Y727396D01*
X-202585Y728279D01*
X-200753Y729685D01*
X-199347Y731517D01*
X-198463Y733651D01*
X-198162Y735940D01*
X-198463Y738229D01*
X-199347Y740363D01*
X-200753Y742195D01*
X-202585Y743601D01*
X-204718Y744484D01*
X-207008Y744786D01*
D02*
G37*
G36*
X-1145901Y733334D02*
X-1147568Y733002D01*
X-1148980Y732058D01*
X-1149924Y730646D01*
X-1150255Y728980D01*
X-1149924Y727314D01*
X-1148980Y725901D01*
X-1147568Y724958D01*
X-1145901Y724626D01*
X-1144235Y724958D01*
X-1142823Y725901D01*
X-1141879Y727314D01*
X-1141548Y728980D01*
X-1141879Y730646D01*
X-1142823Y732058D01*
X-1144235Y733002D01*
X-1145901Y733334D01*
D02*
G37*
G36*
X-1196702Y724259D02*
X-1198083Y723985D01*
X-1199254Y723202D01*
X-1200036Y722031D01*
X-1200311Y720650D01*
X-1200036Y719269D01*
X-1199254Y718098D01*
X-1198083Y717315D01*
X-1196702Y717041D01*
X-1195320Y717315D01*
X-1194149Y718098D01*
X-1193367Y719269D01*
X-1193092Y720650D01*
X-1193367Y722031D01*
X-1194149Y723202D01*
X-1195320Y723985D01*
X-1196702Y724259D01*
D02*
G37*
G36*
X-166621Y732086D02*
X-168911Y731784D01*
X-171044Y730901D01*
X-172876Y729495D01*
X-174282Y727663D01*
X-175166Y725529D01*
X-175467Y723240D01*
X-175166Y720951D01*
X-174282Y718817D01*
X-172876Y716985D01*
X-171044Y715579D01*
X-168911Y714696D01*
X-166621Y714394D01*
X-164332Y714696D01*
X-162199Y715579D01*
X-160367Y716985D01*
X-158961Y718817D01*
X-158077Y720951D01*
X-157776Y723240D01*
X-158077Y725529D01*
X-158961Y727663D01*
X-160367Y729495D01*
X-162199Y730901D01*
X-164332Y731784D01*
X-166621Y732086D01*
D02*
G37*
G36*
X-232407D02*
X-234697Y731784D01*
X-236830Y730901D01*
X-238662Y729495D01*
X-240068Y727663D01*
X-240952Y725529D01*
X-241253Y723240D01*
X-240952Y720951D01*
X-240068Y718817D01*
X-238662Y716985D01*
X-236830Y715579D01*
X-234697Y714696D01*
X-232407Y714394D01*
X-230118Y714696D01*
X-227985Y715579D01*
X-226153Y716985D01*
X-224747Y718817D01*
X-223863Y720951D01*
X-223562Y723240D01*
X-223863Y725529D01*
X-224747Y727663D01*
X-226153Y729495D01*
X-227985Y730901D01*
X-230118Y731784D01*
X-232407Y732086D01*
D02*
G37*
G36*
X-141222Y719386D02*
X-143511Y719084D01*
X-145644Y718201D01*
X-147476Y716795D01*
X-148882Y714963D01*
X-149766Y712829D01*
X-150067Y710540D01*
X-149766Y708251D01*
X-148882Y706117D01*
X-147476Y704285D01*
X-145644Y702879D01*
X-143511Y701996D01*
X-141222Y701694D01*
X-138932Y701996D01*
X-136799Y702879D01*
X-134967Y704285D01*
X-133561Y706117D01*
X-132677Y708251D01*
X-132376Y710540D01*
X-132677Y712829D01*
X-133561Y714963D01*
X-134967Y716795D01*
X-136799Y718201D01*
X-138932Y719084D01*
X-141222Y719386D01*
D02*
G37*
G36*
X-207008D02*
X-209297Y719084D01*
X-211430Y718201D01*
X-213262Y716795D01*
X-214668Y714963D01*
X-215552Y712829D01*
X-215853Y710540D01*
X-215552Y708251D01*
X-214668Y706117D01*
X-213262Y704285D01*
X-211430Y702879D01*
X-209297Y701996D01*
X-207008Y701694D01*
X-204718Y701996D01*
X-202585Y702879D01*
X-200753Y704285D01*
X-199347Y706117D01*
X-198463Y708251D01*
X-198162Y710540D01*
X-198463Y712829D01*
X-199347Y714963D01*
X-200753Y716795D01*
X-202585Y718201D01*
X-204718Y719084D01*
X-207008Y719386D01*
D02*
G37*
G36*
X-166621Y706686D02*
X-168911Y706384D01*
X-171044Y705501D01*
X-172876Y704095D01*
X-174282Y702263D01*
X-175166Y700129D01*
X-175467Y697840D01*
X-175166Y695551D01*
X-174282Y693417D01*
X-172876Y691585D01*
X-171044Y690179D01*
X-168911Y689296D01*
X-166621Y688994D01*
X-164332Y689296D01*
X-162199Y690179D01*
X-160367Y691585D01*
X-158961Y693417D01*
X-158077Y695551D01*
X-157776Y697840D01*
X-158077Y700129D01*
X-158961Y702263D01*
X-160367Y704095D01*
X-162199Y705501D01*
X-164332Y706384D01*
X-166621Y706686D01*
D02*
G37*
G36*
X-232407D02*
X-234697Y706384D01*
X-236830Y705501D01*
X-238662Y704095D01*
X-240068Y702263D01*
X-240952Y700129D01*
X-241253Y697840D01*
X-240952Y695551D01*
X-240068Y693417D01*
X-238662Y691585D01*
X-236830Y690179D01*
X-234697Y689296D01*
X-232407Y688994D01*
X-230118Y689296D01*
X-227985Y690179D01*
X-226153Y691585D01*
X-224747Y693417D01*
X-223863Y695551D01*
X-223562Y697840D01*
X-223863Y700129D01*
X-224747Y702263D01*
X-226153Y704095D01*
X-227985Y705501D01*
X-230118Y706384D01*
X-232407Y706686D01*
D02*
G37*
G36*
X-695007Y704927D02*
X-696673Y704595D01*
X-698085Y703652D01*
X-699029Y702239D01*
X-699361Y700573D01*
X-699029Y698907D01*
X-698085Y697495D01*
X-697069Y696815D01*
X-697036Y696719D01*
Y695501D01*
X-697069Y695404D01*
X-698085Y694725D01*
X-699029Y693313D01*
X-699361Y691647D01*
X-699029Y689981D01*
X-698085Y688568D01*
X-696673Y687625D01*
X-695007Y687293D01*
X-693341Y687625D01*
X-691928Y688568D01*
X-690985Y689981D01*
X-690653Y691647D01*
X-690985Y693313D01*
X-691928Y694725D01*
X-692945Y695404D01*
X-692978Y695501D01*
Y696719D01*
X-692945Y696815D01*
X-691928Y697495D01*
X-690985Y698907D01*
X-690653Y700573D01*
X-690985Y702239D01*
X-691928Y703652D01*
X-693341Y704595D01*
X-695007Y704927D01*
D02*
G37*
G36*
X-612501Y697454D02*
X-614168Y697122D01*
X-615580Y696179D01*
X-616524Y694766D01*
X-616855Y693100D01*
X-616524Y691434D01*
X-615580Y690022D01*
X-614940Y689594D01*
Y688066D01*
X-615580Y687638D01*
X-616524Y686226D01*
X-616855Y684560D01*
X-616524Y682894D01*
X-615580Y681481D01*
X-614168Y680538D01*
X-612501Y680206D01*
X-610835Y680538D01*
X-609423Y681481D01*
X-608479Y682894D01*
X-608148Y684560D01*
X-608479Y686226D01*
X-609423Y687638D01*
X-610063Y688066D01*
Y689594D01*
X-609423Y690022D01*
X-608479Y691434D01*
X-608148Y693100D01*
X-608479Y694766D01*
X-609423Y696179D01*
X-610835Y697122D01*
X-612501Y697454D01*
D02*
G37*
G36*
X-412724Y687323D02*
X-414105Y687049D01*
X-415276Y686266D01*
X-416059Y685095D01*
X-416334Y683714D01*
X-416059Y682333D01*
X-415276Y681162D01*
X-414105Y680379D01*
X-412724Y680105D01*
X-411343Y680379D01*
X-410172Y681162D01*
X-409390Y682333D01*
X-409115Y683714D01*
X-409390Y685095D01*
X-410172Y686266D01*
X-411343Y687049D01*
X-412724Y687323D01*
D02*
G37*
G36*
X-802724D02*
X-804106Y687049D01*
X-805276Y686266D01*
X-806059Y685095D01*
X-806334Y683714D01*
X-806059Y682333D01*
X-805276Y681162D01*
X-804106Y680379D01*
X-802724Y680105D01*
X-801343Y680379D01*
X-800172Y681162D01*
X-799390Y682333D01*
X-799115Y683714D01*
X-799390Y685095D01*
X-800172Y686266D01*
X-801343Y687049D01*
X-802724Y687323D01*
D02*
G37*
G36*
X-518030Y687145D02*
X-519411Y686871D01*
X-520582Y686088D01*
X-521365Y684917D01*
X-521639Y683536D01*
X-521365Y682155D01*
X-520582Y680984D01*
X-519411Y680202D01*
X-518030Y679927D01*
X-516649Y680202D01*
X-515478Y680984D01*
X-514695Y682155D01*
X-514421Y683536D01*
X-514695Y684917D01*
X-515478Y686088D01*
X-516649Y686871D01*
X-518030Y687145D01*
D02*
G37*
G36*
X-908030D02*
X-909411Y686871D01*
X-910582Y686088D01*
X-911365Y684917D01*
X-911639Y683536D01*
X-911365Y682155D01*
X-910582Y680984D01*
X-909411Y680202D01*
X-908030Y679927D01*
X-906649Y680202D01*
X-905478Y680984D01*
X-904695Y682155D01*
X-904421Y683536D01*
X-904695Y684917D01*
X-905478Y686088D01*
X-906649Y686871D01*
X-908030Y687145D01*
D02*
G37*
G36*
X-141222Y693986D02*
X-143511Y693684D01*
X-145644Y692801D01*
X-147476Y691395D01*
X-148882Y689563D01*
X-149766Y687429D01*
X-150067Y685140D01*
X-149766Y682851D01*
X-148882Y680717D01*
X-147476Y678885D01*
X-145644Y677479D01*
X-143511Y676596D01*
X-141222Y676294D01*
X-138932Y676596D01*
X-136799Y677479D01*
X-134967Y678885D01*
X-133561Y680717D01*
X-132677Y682851D01*
X-132376Y685140D01*
X-132677Y687429D01*
X-133561Y689563D01*
X-134967Y691395D01*
X-136799Y692801D01*
X-138932Y693684D01*
X-141222Y693986D01*
D02*
G37*
G36*
X-207008D02*
X-209297Y693684D01*
X-211430Y692801D01*
X-213262Y691395D01*
X-214668Y689563D01*
X-215552Y687429D01*
X-215853Y685140D01*
X-215552Y682851D01*
X-214668Y680717D01*
X-213262Y678885D01*
X-211430Y677479D01*
X-209297Y676596D01*
X-207008Y676294D01*
X-204718Y676596D01*
X-202585Y677479D01*
X-200753Y678885D01*
X-199347Y680717D01*
X-198463Y682851D01*
X-198162Y685140D01*
X-198463Y687429D01*
X-199347Y689563D01*
X-200753Y691395D01*
X-202585Y692801D01*
X-204718Y693684D01*
X-207008Y693986D01*
D02*
G37*
G36*
X-166621Y681286D02*
X-168911Y680984D01*
X-171044Y680101D01*
X-172876Y678695D01*
X-174282Y676863D01*
X-175166Y674729D01*
X-175467Y672440D01*
X-175166Y670151D01*
X-174282Y668017D01*
X-172876Y666185D01*
X-171044Y664779D01*
X-168911Y663896D01*
X-166621Y663594D01*
X-164332Y663896D01*
X-162199Y664779D01*
X-160367Y666185D01*
X-158961Y668017D01*
X-158077Y670151D01*
X-157776Y672440D01*
X-158077Y674729D01*
X-158961Y676863D01*
X-160367Y678695D01*
X-162199Y680101D01*
X-164332Y680984D01*
X-166621Y681286D01*
D02*
G37*
G36*
X-232407D02*
X-234697Y680984D01*
X-236830Y680101D01*
X-238662Y678695D01*
X-240068Y676863D01*
X-240952Y674729D01*
X-241253Y672440D01*
X-240952Y670151D01*
X-240068Y668017D01*
X-238662Y666185D01*
X-236830Y664779D01*
X-234697Y663896D01*
X-232407Y663594D01*
X-230118Y663896D01*
X-227985Y664779D01*
X-226153Y666185D01*
X-224747Y668017D01*
X-223863Y670151D01*
X-223562Y672440D01*
X-223863Y674729D01*
X-224747Y676863D01*
X-226153Y678695D01*
X-227985Y680101D01*
X-230118Y680984D01*
X-232407Y681286D01*
D02*
G37*
G36*
X-412886Y661112D02*
X-414268Y660838D01*
X-415439Y660055D01*
X-416221Y658884D01*
X-416496Y657503D01*
X-416221Y656122D01*
X-415439Y654951D01*
X-414268Y654168D01*
X-412886Y653894D01*
X-411505Y654168D01*
X-410334Y654951D01*
X-409552Y656122D01*
X-409277Y657503D01*
X-409552Y658884D01*
X-410334Y660055D01*
X-411505Y660838D01*
X-412886Y661112D01*
D02*
G37*
G36*
X-517912D02*
X-519294Y660838D01*
X-520465Y660055D01*
X-521247Y658884D01*
X-521522Y657503D01*
X-521247Y656122D01*
X-520465Y654951D01*
X-519294Y654168D01*
X-517912Y653894D01*
X-516531Y654168D01*
X-515360Y654951D01*
X-514578Y656122D01*
X-514303Y657503D01*
X-514578Y658884D01*
X-515360Y660055D01*
X-516531Y660838D01*
X-517912Y661112D01*
D02*
G37*
G36*
X-802887D02*
X-804268Y660838D01*
X-805439Y660055D01*
X-806221Y658884D01*
X-806496Y657503D01*
X-806221Y656122D01*
X-805439Y654951D01*
X-804268Y654168D01*
X-802887Y653894D01*
X-801505Y654168D01*
X-800334Y654951D01*
X-799552Y656122D01*
X-799277Y657503D01*
X-799552Y658884D01*
X-800334Y660055D01*
X-801505Y660838D01*
X-802887Y661112D01*
D02*
G37*
G36*
X-907913D02*
X-909294Y660838D01*
X-910465Y660055D01*
X-911247Y658884D01*
X-911522Y657503D01*
X-911247Y656122D01*
X-910465Y654951D01*
X-909294Y654168D01*
X-907913Y653894D01*
X-906531Y654168D01*
X-905360Y654951D01*
X-904578Y656122D01*
X-904303Y657503D01*
X-904578Y658884D01*
X-905360Y660055D01*
X-906531Y660838D01*
X-907913Y661112D01*
D02*
G37*
G36*
X-141222Y668586D02*
X-143511Y668284D01*
X-145644Y667401D01*
X-147476Y665995D01*
X-148882Y664163D01*
X-149766Y662029D01*
X-150067Y659740D01*
X-149766Y657451D01*
X-148882Y655317D01*
X-147476Y653485D01*
X-145644Y652079D01*
X-143511Y651196D01*
X-141222Y650894D01*
X-138932Y651196D01*
X-136799Y652079D01*
X-134967Y653485D01*
X-133561Y655317D01*
X-132677Y657451D01*
X-132376Y659740D01*
X-132677Y662029D01*
X-133561Y664163D01*
X-134967Y665995D01*
X-136799Y667401D01*
X-138932Y668284D01*
X-141222Y668586D01*
D02*
G37*
G36*
X-207008D02*
X-209297Y668284D01*
X-211430Y667401D01*
X-213262Y665995D01*
X-214668Y664163D01*
X-215552Y662029D01*
X-215853Y659740D01*
X-215552Y657451D01*
X-214668Y655317D01*
X-213262Y653485D01*
X-211430Y652079D01*
X-209297Y651196D01*
X-207008Y650894D01*
X-204718Y651196D01*
X-202585Y652079D01*
X-200753Y653485D01*
X-199347Y655317D01*
X-198463Y657451D01*
X-198162Y659740D01*
X-198463Y662029D01*
X-199347Y664163D01*
X-200753Y665995D01*
X-202585Y667401D01*
X-204718Y668284D01*
X-207008Y668586D01*
D02*
G37*
G36*
X-693737Y659207D02*
X-695403Y658875D01*
X-696815Y657932D01*
X-697759Y656519D01*
X-698091Y654853D01*
X-697759Y653187D01*
X-696815Y651775D01*
X-695799Y651096D01*
X-695766Y650999D01*
Y649781D01*
X-695799Y649684D01*
X-696815Y649005D01*
X-697759Y647593D01*
X-698091Y645927D01*
X-697759Y644261D01*
X-696815Y642848D01*
X-695403Y641905D01*
X-693737Y641573D01*
X-692071Y641905D01*
X-690658Y642848D01*
X-689715Y644261D01*
X-689383Y645927D01*
X-689715Y647593D01*
X-690658Y649005D01*
X-691675Y649684D01*
X-691708Y649781D01*
Y650999D01*
X-691675Y651096D01*
X-690658Y651775D01*
X-689715Y653187D01*
X-689383Y654853D01*
X-689715Y656519D01*
X-690658Y657932D01*
X-692071Y658875D01*
X-693737Y659207D01*
D02*
G37*
G36*
X-611231Y657348D02*
X-612898Y657017D01*
X-614310Y656073D01*
X-615254Y654661D01*
X-615585Y652995D01*
X-615254Y651329D01*
X-614310Y649916D01*
X-613670Y649489D01*
Y647961D01*
X-614310Y647533D01*
X-615254Y646121D01*
X-615585Y644455D01*
X-615254Y642789D01*
X-614310Y641376D01*
X-612898Y640433D01*
X-611231Y640101D01*
X-609565Y640433D01*
X-608153Y641376D01*
X-607209Y642789D01*
X-606878Y644455D01*
X-607209Y646121D01*
X-608153Y647533D01*
X-608793Y647961D01*
Y649489D01*
X-608153Y649916D01*
X-607209Y651329D01*
X-606878Y652995D01*
X-607209Y654661D01*
X-608153Y656073D01*
X-609565Y657017D01*
X-611231Y657348D01*
D02*
G37*
G36*
X-1194162Y642454D02*
X-1195828Y642122D01*
X-1197240Y641179D01*
X-1198184Y639766D01*
X-1198515Y638100D01*
X-1198184Y636434D01*
X-1197240Y635022D01*
X-1195828Y634078D01*
X-1194162Y633746D01*
X-1192495Y634078D01*
X-1191083Y635022D01*
X-1190139Y636434D01*
X-1189808Y638100D01*
X-1190139Y639766D01*
X-1191083Y641179D01*
X-1192495Y642122D01*
X-1194162Y642454D01*
D02*
G37*
G36*
X-412890Y636112D02*
X-414271Y635838D01*
X-415442Y635055D01*
X-416224Y633884D01*
X-416499Y632503D01*
X-416224Y631122D01*
X-415442Y629951D01*
X-414271Y629168D01*
X-412890Y628894D01*
X-411509Y629168D01*
X-410338Y629951D01*
X-409555Y631122D01*
X-409281Y632503D01*
X-409555Y633884D01*
X-410338Y635055D01*
X-411509Y635838D01*
X-412890Y636112D01*
D02*
G37*
G36*
X-517909D02*
X-519290Y635838D01*
X-520461Y635055D01*
X-521244Y633884D01*
X-521518Y632503D01*
X-521244Y631122D01*
X-520461Y629951D01*
X-519290Y629168D01*
X-517909Y628894D01*
X-516528Y629168D01*
X-515357Y629951D01*
X-514575Y631122D01*
X-514300Y632503D01*
X-514575Y633884D01*
X-515357Y635055D01*
X-516528Y635838D01*
X-517909Y636112D01*
D02*
G37*
G36*
X-802890D02*
X-804271Y635838D01*
X-805442Y635055D01*
X-806224Y633884D01*
X-806499Y632503D01*
X-806224Y631122D01*
X-805442Y629951D01*
X-804271Y629168D01*
X-802890Y628894D01*
X-801509Y629168D01*
X-800338Y629951D01*
X-799555Y631122D01*
X-799280Y632503D01*
X-799555Y633884D01*
X-800338Y635055D01*
X-801509Y635838D01*
X-802890Y636112D01*
D02*
G37*
G36*
X-907909D02*
X-909290Y635838D01*
X-910461Y635055D01*
X-911244Y633884D01*
X-911518Y632503D01*
X-911244Y631122D01*
X-910461Y629951D01*
X-909290Y629168D01*
X-907909Y628894D01*
X-906528Y629168D01*
X-905357Y629951D01*
X-904575Y631122D01*
X-904300Y632503D01*
X-904575Y633884D01*
X-905357Y635055D01*
X-906528Y635838D01*
X-907909Y636112D01*
D02*
G37*
G36*
X-412891Y611112D02*
X-414272Y610838D01*
X-415443Y610055D01*
X-416226Y608884D01*
X-416501Y607503D01*
X-416226Y606122D01*
X-415443Y604951D01*
X-414272Y604168D01*
X-412891Y603894D01*
X-411510Y604168D01*
X-410339Y604951D01*
X-409557Y606122D01*
X-409282Y607503D01*
X-409557Y608884D01*
X-410339Y610055D01*
X-411510Y610838D01*
X-412891Y611112D01*
D02*
G37*
G36*
X-517908D02*
X-519289Y610838D01*
X-520460Y610055D01*
X-521242Y608884D01*
X-521517Y607503D01*
X-521242Y606122D01*
X-520460Y604951D01*
X-519289Y604168D01*
X-517908Y603894D01*
X-516526Y604168D01*
X-515355Y604951D01*
X-514573Y606122D01*
X-514298Y607503D01*
X-514573Y608884D01*
X-515355Y610055D01*
X-516526Y610838D01*
X-517908Y611112D01*
D02*
G37*
G36*
X-802891D02*
X-804273Y610838D01*
X-805443Y610055D01*
X-806226Y608884D01*
X-806501Y607503D01*
X-806226Y606122D01*
X-805443Y604951D01*
X-804273Y604168D01*
X-802891Y603894D01*
X-801510Y604168D01*
X-800339Y604951D01*
X-799557Y606122D01*
X-799282Y607503D01*
X-799557Y608884D01*
X-800339Y610055D01*
X-801510Y610838D01*
X-802891Y611112D01*
D02*
G37*
G36*
X-907908D02*
X-909289Y610838D01*
X-910460Y610055D01*
X-911242Y608884D01*
X-911517Y607503D01*
X-911242Y606122D01*
X-910460Y604951D01*
X-909289Y604168D01*
X-907908Y603894D01*
X-906526Y604168D01*
X-905356Y604951D01*
X-904573Y606122D01*
X-904298Y607503D01*
X-904573Y608884D01*
X-905356Y610055D01*
X-906526Y610838D01*
X-907908Y611112D01*
D02*
G37*
G36*
X-166621Y617786D02*
X-168911Y617484D01*
X-171044Y616601D01*
X-172876Y615195D01*
X-174282Y613363D01*
X-175166Y611229D01*
X-175467Y608940D01*
X-175166Y606651D01*
X-174282Y604517D01*
X-172876Y602685D01*
X-171044Y601279D01*
X-168911Y600396D01*
X-166621Y600094D01*
X-164332Y600396D01*
X-162199Y601279D01*
X-160367Y602685D01*
X-158961Y604517D01*
X-158077Y606651D01*
X-157776Y608940D01*
X-158077Y611229D01*
X-158961Y613363D01*
X-160367Y615195D01*
X-162199Y616601D01*
X-164332Y617484D01*
X-166621Y617786D01*
D02*
G37*
G36*
X-232407D02*
X-234697Y617484D01*
X-236830Y616601D01*
X-238662Y615195D01*
X-240068Y613363D01*
X-240952Y611229D01*
X-241253Y608940D01*
X-240952Y606651D01*
X-240068Y604517D01*
X-238662Y602685D01*
X-236830Y601279D01*
X-234697Y600396D01*
X-232407Y600094D01*
X-230118Y600396D01*
X-227985Y601279D01*
X-226153Y602685D01*
X-224747Y604517D01*
X-223863Y606651D01*
X-223562Y608940D01*
X-223863Y611229D01*
X-224747Y613363D01*
X-226153Y615195D01*
X-227985Y616601D01*
X-230118Y617484D01*
X-232407Y617786D01*
D02*
G37*
G36*
X-612501Y614824D02*
X-614168Y614492D01*
X-615580Y613549D01*
X-616524Y612136D01*
X-616855Y610470D01*
X-616524Y608804D01*
X-615580Y607392D01*
X-614940Y606964D01*
Y605436D01*
X-615580Y605009D01*
X-616524Y603596D01*
X-616855Y601930D01*
X-616524Y600264D01*
X-615580Y598852D01*
X-614168Y597908D01*
X-612501Y597576D01*
X-610835Y597908D01*
X-609423Y598852D01*
X-608479Y600264D01*
X-608148Y601930D01*
X-608479Y603596D01*
X-609423Y605009D01*
X-610063Y605436D01*
Y606964D01*
X-609423Y607392D01*
X-608479Y608804D01*
X-608148Y610470D01*
X-608479Y612136D01*
X-609423Y613549D01*
X-610835Y614492D01*
X-612501Y614824D01*
D02*
G37*
G36*
X-693737Y613487D02*
X-695403Y613155D01*
X-696815Y612211D01*
X-697759Y610799D01*
X-698091Y609133D01*
X-697759Y607467D01*
X-696815Y606054D01*
X-695799Y605376D01*
X-695766Y605279D01*
Y604061D01*
X-695799Y603964D01*
X-696815Y603285D01*
X-697759Y601873D01*
X-698091Y600207D01*
X-697759Y598541D01*
X-696815Y597128D01*
X-695403Y596185D01*
X-693737Y595853D01*
X-692071Y596185D01*
X-690658Y597128D01*
X-689715Y598541D01*
X-689383Y600207D01*
X-689715Y601873D01*
X-690658Y603285D01*
X-691675Y603964D01*
X-691708Y604061D01*
Y605279D01*
X-691675Y605376D01*
X-690658Y606054D01*
X-689715Y607467D01*
X-689383Y609133D01*
X-689715Y610799D01*
X-690658Y612211D01*
X-692071Y613155D01*
X-693737Y613487D01*
D02*
G37*
G36*
X-141222Y605086D02*
X-143511Y604784D01*
X-145644Y603901D01*
X-147476Y602495D01*
X-148882Y600663D01*
X-149766Y598529D01*
X-150067Y596240D01*
X-149766Y593951D01*
X-148882Y591817D01*
X-147476Y589985D01*
X-145644Y588579D01*
X-143511Y587696D01*
X-141222Y587394D01*
X-138932Y587696D01*
X-136799Y588579D01*
X-134967Y589985D01*
X-133561Y591817D01*
X-132677Y593951D01*
X-132376Y596240D01*
X-132677Y598529D01*
X-133561Y600663D01*
X-134967Y602495D01*
X-136799Y603901D01*
X-138932Y604784D01*
X-141222Y605086D01*
D02*
G37*
G36*
X-207008D02*
X-209297Y604784D01*
X-211430Y603901D01*
X-213262Y602495D01*
X-214668Y600663D01*
X-215552Y598529D01*
X-215853Y596240D01*
X-215552Y593951D01*
X-214668Y591817D01*
X-213262Y589985D01*
X-211430Y588579D01*
X-209297Y587696D01*
X-207008Y587394D01*
X-204718Y587696D01*
X-202585Y588579D01*
X-200753Y589985D01*
X-199347Y591817D01*
X-198463Y593951D01*
X-198162Y596240D01*
X-198463Y598529D01*
X-199347Y600663D01*
X-200753Y602495D01*
X-202585Y603901D01*
X-204718Y604784D01*
X-207008Y605086D01*
D02*
G37*
G36*
X-166621Y592386D02*
X-168911Y592084D01*
X-171044Y591201D01*
X-172876Y589795D01*
X-174282Y587963D01*
X-175166Y585829D01*
X-175467Y583540D01*
X-175166Y581251D01*
X-174282Y579117D01*
X-172876Y577285D01*
X-171044Y575879D01*
X-168911Y574996D01*
X-166621Y574694D01*
X-164332Y574996D01*
X-162199Y575879D01*
X-160367Y577285D01*
X-158961Y579117D01*
X-158077Y581251D01*
X-157776Y583540D01*
X-158077Y585829D01*
X-158961Y587963D01*
X-160367Y589795D01*
X-162199Y591201D01*
X-164332Y592084D01*
X-166621Y592386D01*
D02*
G37*
G36*
X-232407D02*
X-234697Y592084D01*
X-236830Y591201D01*
X-238662Y589795D01*
X-240068Y587963D01*
X-240952Y585829D01*
X-241253Y583540D01*
X-240952Y581251D01*
X-240068Y579117D01*
X-238662Y577285D01*
X-236830Y575879D01*
X-234697Y574996D01*
X-232407Y574694D01*
X-230118Y574996D01*
X-227985Y575879D01*
X-226153Y577285D01*
X-224747Y579117D01*
X-223863Y581251D01*
X-223562Y583540D01*
X-223863Y585829D01*
X-224747Y587963D01*
X-226153Y589795D01*
X-227985Y591201D01*
X-230118Y592084D01*
X-232407Y592386D01*
D02*
G37*
G36*
X-141222Y579686D02*
X-143511Y579384D01*
X-145644Y578501D01*
X-147476Y577095D01*
X-148882Y575263D01*
X-149766Y573129D01*
X-150067Y570840D01*
X-149766Y568551D01*
X-148882Y566417D01*
X-147476Y564585D01*
X-145644Y563179D01*
X-143511Y562296D01*
X-141222Y561994D01*
X-138932Y562296D01*
X-136799Y563179D01*
X-134967Y564585D01*
X-133561Y566417D01*
X-132677Y568551D01*
X-132376Y570840D01*
X-132677Y573129D01*
X-133561Y575263D01*
X-134967Y577095D01*
X-136799Y578501D01*
X-138932Y579384D01*
X-141222Y579686D01*
D02*
G37*
G36*
X-207008D02*
X-209297Y579384D01*
X-211430Y578501D01*
X-213262Y577095D01*
X-214668Y575263D01*
X-215552Y573129D01*
X-215853Y570840D01*
X-215552Y568551D01*
X-214668Y566417D01*
X-213262Y564585D01*
X-211430Y563179D01*
X-209297Y562296D01*
X-207008Y561994D01*
X-204718Y562296D01*
X-202585Y563179D01*
X-200753Y564585D01*
X-199347Y566417D01*
X-198463Y568551D01*
X-198162Y570840D01*
X-198463Y573129D01*
X-199347Y575263D01*
X-200753Y577095D01*
X-202585Y578501D01*
X-204718Y579384D01*
X-207008Y579686D01*
D02*
G37*
G36*
X-612501Y573529D02*
X-614168Y573197D01*
X-615580Y572253D01*
X-616524Y570841D01*
X-616855Y569175D01*
X-616524Y567509D01*
X-615580Y566096D01*
X-614940Y565669D01*
Y564141D01*
X-615580Y563713D01*
X-616524Y562301D01*
X-616855Y560635D01*
X-616524Y558969D01*
X-615580Y557556D01*
X-614168Y556613D01*
X-612501Y556281D01*
X-610835Y556613D01*
X-609423Y557556D01*
X-608479Y558969D01*
X-608148Y560635D01*
X-608479Y562301D01*
X-609423Y563713D01*
X-610063Y564141D01*
Y565669D01*
X-609423Y566096D01*
X-608479Y567509D01*
X-608148Y569175D01*
X-608479Y570841D01*
X-609423Y572253D01*
X-610835Y573197D01*
X-612501Y573529D01*
D02*
G37*
G36*
X-693737Y567767D02*
X-695403Y567435D01*
X-696815Y566492D01*
X-697759Y565079D01*
X-698091Y563413D01*
X-697759Y561747D01*
X-696815Y560335D01*
X-695799Y559655D01*
X-695766Y559559D01*
Y558341D01*
X-695799Y558244D01*
X-696815Y557565D01*
X-697759Y556153D01*
X-698091Y554487D01*
X-697759Y552821D01*
X-696815Y551408D01*
X-695403Y550465D01*
X-693737Y550133D01*
X-692071Y550465D01*
X-690658Y551408D01*
X-689715Y552821D01*
X-689383Y554487D01*
X-689715Y556153D01*
X-690658Y557565D01*
X-691675Y558244D01*
X-691708Y558341D01*
Y559559D01*
X-691675Y559655D01*
X-690658Y560335D01*
X-689715Y561747D01*
X-689383Y563413D01*
X-689715Y565079D01*
X-690658Y566492D01*
X-692071Y567435D01*
X-693737Y567767D01*
D02*
G37*
G36*
X-166621Y566986D02*
X-168911Y566684D01*
X-171044Y565801D01*
X-172876Y564395D01*
X-174282Y562563D01*
X-175166Y560429D01*
X-175467Y558140D01*
X-175166Y555851D01*
X-174282Y553717D01*
X-172876Y551885D01*
X-171044Y550479D01*
X-168911Y549596D01*
X-166621Y549294D01*
X-164332Y549596D01*
X-162199Y550479D01*
X-160367Y551885D01*
X-158961Y553717D01*
X-158077Y555851D01*
X-157776Y558140D01*
X-158077Y560429D01*
X-158961Y562563D01*
X-160367Y564395D01*
X-162199Y565801D01*
X-164332Y566684D01*
X-166621Y566986D01*
D02*
G37*
G36*
X-232407D02*
X-234697Y566684D01*
X-236830Y565801D01*
X-238662Y564395D01*
X-240068Y562563D01*
X-240952Y560429D01*
X-241253Y558140D01*
X-240952Y555851D01*
X-240068Y553717D01*
X-238662Y551885D01*
X-236830Y550479D01*
X-234697Y549596D01*
X-232407Y549294D01*
X-230118Y549596D01*
X-227985Y550479D01*
X-226153Y551885D01*
X-224747Y553717D01*
X-223863Y555851D01*
X-223562Y558140D01*
X-223863Y560429D01*
X-224747Y562563D01*
X-226153Y564395D01*
X-227985Y565801D01*
X-230118Y566684D01*
X-232407Y566986D01*
D02*
G37*
G36*
X-141222Y554286D02*
X-143511Y553984D01*
X-145644Y553101D01*
X-147476Y551695D01*
X-148882Y549863D01*
X-149766Y547729D01*
X-150067Y545440D01*
X-149766Y543151D01*
X-148882Y541017D01*
X-147476Y539185D01*
X-145644Y537779D01*
X-143511Y536896D01*
X-141222Y536594D01*
X-138932Y536896D01*
X-136799Y537779D01*
X-134967Y539185D01*
X-133561Y541017D01*
X-132677Y543151D01*
X-132376Y545440D01*
X-132677Y547729D01*
X-133561Y549863D01*
X-134967Y551695D01*
X-136799Y553101D01*
X-138932Y553984D01*
X-141222Y554286D01*
D02*
G37*
G36*
X-207008D02*
X-209297Y553984D01*
X-211430Y553101D01*
X-213262Y551695D01*
X-214668Y549863D01*
X-215552Y547729D01*
X-215853Y545440D01*
X-215552Y543151D01*
X-214668Y541017D01*
X-213262Y539185D01*
X-211430Y537779D01*
X-209297Y536896D01*
X-207008Y536594D01*
X-204718Y536896D01*
X-202585Y537779D01*
X-200753Y539185D01*
X-199347Y541017D01*
X-198463Y543151D01*
X-198162Y545440D01*
X-198463Y547729D01*
X-199347Y549863D01*
X-200753Y551695D01*
X-202585Y553101D01*
X-204718Y553984D01*
X-207008Y554286D01*
D02*
G37*
G36*
X-166621Y541586D02*
X-168911Y541284D01*
X-171044Y540401D01*
X-172876Y538995D01*
X-174282Y537163D01*
X-175166Y535029D01*
X-175467Y532740D01*
X-175166Y530451D01*
X-174282Y528317D01*
X-172876Y526485D01*
X-171044Y525079D01*
X-168911Y524196D01*
X-166621Y523894D01*
X-164332Y524196D01*
X-162199Y525079D01*
X-160367Y526485D01*
X-158961Y528317D01*
X-158077Y530451D01*
X-157776Y532740D01*
X-158077Y535029D01*
X-158961Y537163D01*
X-160367Y538995D01*
X-162199Y540401D01*
X-164332Y541284D01*
X-166621Y541586D01*
D02*
G37*
G36*
X-232407D02*
X-234697Y541284D01*
X-236830Y540401D01*
X-238662Y538995D01*
X-240068Y537163D01*
X-240952Y535029D01*
X-241253Y532740D01*
X-240952Y530451D01*
X-240068Y528317D01*
X-238662Y526485D01*
X-236830Y525079D01*
X-234697Y524196D01*
X-232407Y523894D01*
X-230118Y524196D01*
X-227985Y525079D01*
X-226153Y526485D01*
X-224747Y528317D01*
X-223863Y530451D01*
X-223562Y532740D01*
X-223863Y535029D01*
X-224747Y537163D01*
X-226153Y538995D01*
X-227985Y540401D01*
X-230118Y541284D01*
X-232407Y541586D01*
D02*
G37*
G36*
X-141222Y528886D02*
X-143511Y528584D01*
X-145644Y527701D01*
X-147476Y526295D01*
X-148882Y524463D01*
X-149766Y522329D01*
X-150067Y520040D01*
X-149766Y517751D01*
X-148882Y515617D01*
X-147476Y513785D01*
X-145644Y512379D01*
X-143511Y511496D01*
X-141222Y511194D01*
X-138932Y511496D01*
X-136799Y512379D01*
X-134967Y513785D01*
X-133561Y515617D01*
X-132677Y517751D01*
X-132376Y520040D01*
X-132677Y522329D01*
X-133561Y524463D01*
X-134967Y526295D01*
X-136799Y527701D01*
X-138932Y528584D01*
X-141222Y528886D01*
D02*
G37*
G36*
X-207008D02*
X-209297Y528584D01*
X-211430Y527701D01*
X-213262Y526295D01*
X-214668Y524463D01*
X-215552Y522329D01*
X-215853Y520040D01*
X-215552Y517751D01*
X-214668Y515617D01*
X-213262Y513785D01*
X-211430Y512379D01*
X-209297Y511496D01*
X-207008Y511194D01*
X-204718Y511496D01*
X-202585Y512379D01*
X-200753Y513785D01*
X-199347Y515617D01*
X-198463Y517751D01*
X-198162Y520040D01*
X-198463Y522329D01*
X-199347Y524463D01*
X-200753Y526295D01*
X-202585Y527701D01*
X-204718Y528584D01*
X-207008Y528886D01*
D02*
G37*
G36*
X-1143362Y517434D02*
X-1145028Y517102D01*
X-1146440Y516158D01*
X-1147384Y514746D01*
X-1147715Y513080D01*
X-1147384Y511414D01*
X-1146440Y510001D01*
X-1145028Y509058D01*
X-1143362Y508726D01*
X-1141695Y509058D01*
X-1140283Y510001D01*
X-1139339Y511414D01*
X-1139008Y513080D01*
X-1139339Y514746D01*
X-1140283Y516158D01*
X-1141695Y517102D01*
X-1143362Y517434D01*
D02*
G37*
G36*
X-1196702Y508359D02*
X-1198083Y508085D01*
X-1199254Y507302D01*
X-1200036Y506131D01*
X-1200311Y504750D01*
X-1200036Y503369D01*
X-1199254Y502198D01*
X-1198083Y501415D01*
X-1196702Y501141D01*
X-1195320Y501415D01*
X-1194149Y502198D01*
X-1193367Y503369D01*
X-1193092Y504750D01*
X-1193367Y506131D01*
X-1194149Y507302D01*
X-1195320Y508085D01*
X-1196702Y508359D01*
D02*
G37*
G36*
X-166621Y478086D02*
X-168911Y477784D01*
X-171044Y476901D01*
X-172876Y475495D01*
X-174282Y473663D01*
X-175166Y471529D01*
X-175467Y469240D01*
X-175166Y466951D01*
X-174282Y464817D01*
X-172876Y462985D01*
X-171044Y461579D01*
X-168911Y460696D01*
X-166621Y460394D01*
X-164332Y460696D01*
X-162199Y461579D01*
X-160367Y462985D01*
X-158961Y464817D01*
X-158077Y466951D01*
X-157776Y469240D01*
X-158077Y471529D01*
X-158961Y473663D01*
X-160367Y475495D01*
X-162199Y476901D01*
X-164332Y477784D01*
X-166621Y478086D01*
D02*
G37*
G36*
X-232407D02*
X-234697Y477784D01*
X-236830Y476901D01*
X-238662Y475495D01*
X-240068Y473663D01*
X-240952Y471529D01*
X-241253Y469240D01*
X-240952Y466951D01*
X-240068Y464817D01*
X-238662Y462985D01*
X-236830Y461579D01*
X-234697Y460696D01*
X-232407Y460394D01*
X-230118Y460696D01*
X-227985Y461579D01*
X-226153Y462985D01*
X-224747Y464817D01*
X-223863Y466951D01*
X-223562Y469240D01*
X-223863Y471529D01*
X-224747Y473663D01*
X-226153Y475495D01*
X-227985Y476901D01*
X-230118Y477784D01*
X-232407Y478086D01*
D02*
G37*
G36*
X-141222Y465386D02*
X-143511Y465084D01*
X-145644Y464201D01*
X-147476Y462795D01*
X-148882Y460963D01*
X-149766Y458829D01*
X-150067Y456540D01*
X-149766Y454251D01*
X-148882Y452117D01*
X-147476Y450285D01*
X-145644Y448879D01*
X-143511Y447996D01*
X-141222Y447694D01*
X-138932Y447996D01*
X-136799Y448879D01*
X-134967Y450285D01*
X-133561Y452117D01*
X-132677Y454251D01*
X-132376Y456540D01*
X-132677Y458829D01*
X-133561Y460963D01*
X-134967Y462795D01*
X-136799Y464201D01*
X-138932Y465084D01*
X-141222Y465386D01*
D02*
G37*
G36*
X-207008D02*
X-209297Y465084D01*
X-211430Y464201D01*
X-213262Y462795D01*
X-214668Y460963D01*
X-215552Y458829D01*
X-215853Y456540D01*
X-215552Y454251D01*
X-214668Y452117D01*
X-213262Y450285D01*
X-211430Y448879D01*
X-209297Y447996D01*
X-207008Y447694D01*
X-204718Y447996D01*
X-202585Y448879D01*
X-200753Y450285D01*
X-199347Y452117D01*
X-198463Y454251D01*
X-198162Y456540D01*
X-198463Y458829D01*
X-199347Y460963D01*
X-200753Y462795D01*
X-202585Y464201D01*
X-204718Y465084D01*
X-207008Y465386D01*
D02*
G37*
G36*
X-693737Y452942D02*
X-695403Y452610D01*
X-696815Y451666D01*
X-697759Y450254D01*
X-698091Y448588D01*
X-697759Y446922D01*
X-696815Y445509D01*
X-695799Y444831D01*
X-695766Y444734D01*
Y443516D01*
X-695799Y443419D01*
X-696815Y442740D01*
X-697759Y441328D01*
X-698091Y439662D01*
X-697759Y437996D01*
X-696815Y436583D01*
X-695403Y435640D01*
X-693737Y435308D01*
X-692071Y435640D01*
X-690658Y436583D01*
X-689715Y437996D01*
X-689383Y439662D01*
X-689715Y441328D01*
X-690658Y442740D01*
X-691675Y443419D01*
X-691708Y443516D01*
Y444734D01*
X-691675Y444831D01*
X-690658Y445509D01*
X-689715Y446922D01*
X-689383Y448588D01*
X-689715Y450254D01*
X-690658Y451666D01*
X-692071Y452610D01*
X-693737Y452942D01*
D02*
G37*
G36*
X-166621Y452686D02*
X-168911Y452384D01*
X-171044Y451501D01*
X-172876Y450095D01*
X-174282Y448263D01*
X-175166Y446129D01*
X-175467Y443840D01*
X-175166Y441551D01*
X-174282Y439417D01*
X-172876Y437585D01*
X-171044Y436179D01*
X-168911Y435296D01*
X-166621Y434994D01*
X-164332Y435296D01*
X-162199Y436179D01*
X-160367Y437585D01*
X-158961Y439417D01*
X-158077Y441551D01*
X-157776Y443840D01*
X-158077Y446129D01*
X-158961Y448263D01*
X-160367Y450095D01*
X-162199Y451501D01*
X-164332Y452384D01*
X-166621Y452686D01*
D02*
G37*
G36*
X-232407D02*
X-234697Y452384D01*
X-236830Y451501D01*
X-238662Y450095D01*
X-240068Y448263D01*
X-240952Y446129D01*
X-241253Y443840D01*
X-240952Y441551D01*
X-240068Y439417D01*
X-238662Y437585D01*
X-236830Y436179D01*
X-234697Y435296D01*
X-232407Y434994D01*
X-230118Y435296D01*
X-227985Y436179D01*
X-226153Y437585D01*
X-224747Y439417D01*
X-223863Y441551D01*
X-223562Y443840D01*
X-223863Y446129D01*
X-224747Y448263D01*
X-226153Y450095D01*
X-227985Y451501D01*
X-230118Y452384D01*
X-232407Y452686D01*
D02*
G37*
G36*
X-801599Y435338D02*
X-802980Y435064D01*
X-804151Y434281D01*
X-804934Y433110D01*
X-805208Y431729D01*
X-804934Y430348D01*
X-804151Y429177D01*
X-802980Y428395D01*
X-801599Y428120D01*
X-800218Y428395D01*
X-799047Y429177D01*
X-798264Y430348D01*
X-797990Y431729D01*
X-798264Y433110D01*
X-799047Y434281D01*
X-800218Y435064D01*
X-801599Y435338D01*
D02*
G37*
G36*
X-906905Y435160D02*
X-908286Y434886D01*
X-909457Y434103D01*
X-910239Y432932D01*
X-910514Y431551D01*
X-910239Y430170D01*
X-909457Y428999D01*
X-908286Y428217D01*
X-906905Y427942D01*
X-905524Y428217D01*
X-904353Y428999D01*
X-903570Y430170D01*
X-903296Y431551D01*
X-903570Y432932D01*
X-904353Y434103D01*
X-905524Y434886D01*
X-906905Y435160D01*
D02*
G37*
G36*
X-613772Y444334D02*
X-615438Y444002D01*
X-616850Y443059D01*
X-617794Y441646D01*
X-618125Y439980D01*
X-617794Y438314D01*
X-616850Y436902D01*
X-616210Y436474D01*
Y434946D01*
X-616850Y434519D01*
X-617794Y433106D01*
X-618125Y431440D01*
X-617794Y429774D01*
X-616850Y428362D01*
X-615438Y427418D01*
X-613772Y427086D01*
X-612105Y427418D01*
X-610693Y428362D01*
X-609749Y429774D01*
X-609418Y431440D01*
X-609749Y433106D01*
X-610693Y434519D01*
X-611333Y434946D01*
Y436474D01*
X-610693Y436902D01*
X-609749Y438314D01*
X-609418Y439980D01*
X-609749Y441646D01*
X-610693Y443059D01*
X-612105Y444002D01*
X-613772Y444334D01*
D02*
G37*
G36*
X-412844Y434203D02*
X-414226Y433929D01*
X-415396Y433146D01*
X-416179Y431975D01*
X-416454Y430594D01*
X-416179Y429213D01*
X-415396Y428042D01*
X-414226Y427259D01*
X-412844Y426985D01*
X-411463Y427259D01*
X-410292Y428042D01*
X-409510Y429213D01*
X-409235Y430594D01*
X-409510Y431975D01*
X-410292Y433146D01*
X-411463Y433929D01*
X-412844Y434203D01*
D02*
G37*
G36*
X-518150Y434025D02*
X-519531Y433751D01*
X-520702Y432968D01*
X-521485Y431797D01*
X-521759Y430416D01*
X-521485Y429035D01*
X-520702Y427864D01*
X-519531Y427082D01*
X-518150Y426807D01*
X-516769Y427082D01*
X-515598Y427864D01*
X-514815Y429035D01*
X-514541Y430416D01*
X-514815Y431797D01*
X-515598Y432968D01*
X-516769Y433751D01*
X-518150Y434025D01*
D02*
G37*
G36*
X-141222Y439986D02*
X-143511Y439684D01*
X-145644Y438801D01*
X-147476Y437395D01*
X-148882Y435563D01*
X-149766Y433429D01*
X-150067Y431140D01*
X-149766Y428851D01*
X-148882Y426717D01*
X-147476Y424885D01*
X-145644Y423479D01*
X-143511Y422596D01*
X-141222Y422294D01*
X-138932Y422596D01*
X-136799Y423479D01*
X-134967Y424885D01*
X-133561Y426717D01*
X-132677Y428851D01*
X-132376Y431140D01*
X-132677Y433429D01*
X-133561Y435563D01*
X-134967Y437395D01*
X-136799Y438801D01*
X-138932Y439684D01*
X-141222Y439986D01*
D02*
G37*
G36*
X-207008D02*
X-209297Y439684D01*
X-211430Y438801D01*
X-213262Y437395D01*
X-214668Y435563D01*
X-215552Y433429D01*
X-215853Y431140D01*
X-215552Y428851D01*
X-214668Y426717D01*
X-213262Y424885D01*
X-211430Y423479D01*
X-209297Y422596D01*
X-207008Y422294D01*
X-204718Y422596D01*
X-202585Y423479D01*
X-200753Y424885D01*
X-199347Y426717D01*
X-198463Y428851D01*
X-198162Y431140D01*
X-198463Y433429D01*
X-199347Y435563D01*
X-200753Y437395D01*
X-202585Y438801D01*
X-204718Y439684D01*
X-207008Y439986D01*
D02*
G37*
G36*
X-1194162Y426554D02*
X-1195828Y426222D01*
X-1197240Y425279D01*
X-1198184Y423866D01*
X-1198515Y422200D01*
X-1198184Y420534D01*
X-1197240Y419122D01*
X-1195828Y418178D01*
X-1194162Y417846D01*
X-1192495Y418178D01*
X-1191083Y419122D01*
X-1190139Y420534D01*
X-1189808Y422200D01*
X-1190139Y423866D01*
X-1191083Y425279D01*
X-1192495Y426222D01*
X-1194162Y426554D01*
D02*
G37*
G36*
X-166621Y427286D02*
X-168911Y426984D01*
X-171044Y426101D01*
X-172876Y424695D01*
X-174282Y422863D01*
X-175166Y420729D01*
X-175467Y418440D01*
X-175166Y416151D01*
X-174282Y414017D01*
X-172876Y412185D01*
X-171044Y410779D01*
X-168911Y409896D01*
X-166621Y409594D01*
X-164332Y409896D01*
X-162199Y410779D01*
X-160367Y412185D01*
X-158961Y414017D01*
X-158077Y416151D01*
X-157776Y418440D01*
X-158077Y420729D01*
X-158961Y422863D01*
X-160367Y424695D01*
X-162199Y426101D01*
X-164332Y426984D01*
X-166621Y427286D01*
D02*
G37*
G36*
X-232407D02*
X-234697Y426984D01*
X-236830Y426101D01*
X-238662Y424695D01*
X-240068Y422863D01*
X-240952Y420729D01*
X-241253Y418440D01*
X-240952Y416151D01*
X-240068Y414017D01*
X-238662Y412185D01*
X-236830Y410779D01*
X-234697Y409896D01*
X-232407Y409594D01*
X-230118Y409896D01*
X-227985Y410779D01*
X-226153Y412185D01*
X-224747Y414017D01*
X-223863Y416151D01*
X-223562Y418440D01*
X-223863Y420729D01*
X-224747Y422863D01*
X-226153Y424695D01*
X-227985Y426101D01*
X-230118Y426984D01*
X-232407Y427286D01*
D02*
G37*
G36*
X-801761Y409127D02*
X-803142Y408853D01*
X-804313Y408070D01*
X-805096Y406899D01*
X-805371Y405518D01*
X-805096Y404137D01*
X-804313Y402966D01*
X-803142Y402183D01*
X-801761Y401909D01*
X-800380Y402183D01*
X-799209Y402966D01*
X-798427Y404137D01*
X-798152Y405518D01*
X-798427Y406899D01*
X-799209Y408070D01*
X-800380Y408853D01*
X-801761Y409127D01*
D02*
G37*
G36*
X-906787D02*
X-908168Y408853D01*
X-909340Y408070D01*
X-910122Y406899D01*
X-910397Y405518D01*
X-910122Y404137D01*
X-909340Y402966D01*
X-908168Y402183D01*
X-906787Y401909D01*
X-905406Y402183D01*
X-904235Y402966D01*
X-903453Y404137D01*
X-903178Y405518D01*
X-903453Y406899D01*
X-904235Y408070D01*
X-905406Y408853D01*
X-906787Y409127D01*
D02*
G37*
G36*
X-413006Y407992D02*
X-414388Y407718D01*
X-415559Y406935D01*
X-416341Y405764D01*
X-416616Y404383D01*
X-416341Y403002D01*
X-415559Y401831D01*
X-414388Y401048D01*
X-413006Y400774D01*
X-411625Y401048D01*
X-410454Y401831D01*
X-409672Y403002D01*
X-409397Y404383D01*
X-409672Y405764D01*
X-410454Y406935D01*
X-411625Y407718D01*
X-413006Y407992D01*
D02*
G37*
G36*
X-518032D02*
X-519414Y407718D01*
X-520585Y406935D01*
X-521367Y405764D01*
X-521642Y404383D01*
X-521367Y403002D01*
X-520585Y401831D01*
X-519414Y401048D01*
X-518032Y400774D01*
X-516651Y401048D01*
X-515480Y401831D01*
X-514698Y403002D01*
X-514423Y404383D01*
X-514698Y405764D01*
X-515480Y406935D01*
X-516651Y407718D01*
X-518032Y407992D01*
D02*
G37*
G36*
X-141222Y414586D02*
X-143511Y414284D01*
X-145644Y413401D01*
X-147476Y411995D01*
X-148882Y410163D01*
X-149766Y408029D01*
X-150067Y405740D01*
X-149766Y403451D01*
X-148882Y401317D01*
X-147476Y399485D01*
X-145644Y398079D01*
X-143511Y397196D01*
X-141222Y396894D01*
X-138932Y397196D01*
X-136799Y398079D01*
X-134967Y399485D01*
X-133561Y401317D01*
X-132677Y403451D01*
X-132376Y405740D01*
X-132677Y408029D01*
X-133561Y410163D01*
X-134967Y411995D01*
X-136799Y413401D01*
X-138932Y414284D01*
X-141222Y414586D01*
D02*
G37*
G36*
X-207008D02*
X-209297Y414284D01*
X-211430Y413401D01*
X-213262Y411995D01*
X-214668Y410163D01*
X-215552Y408029D01*
X-215853Y405740D01*
X-215552Y403451D01*
X-214668Y401317D01*
X-213262Y399485D01*
X-211430Y398079D01*
X-209297Y397196D01*
X-207008Y396894D01*
X-204718Y397196D01*
X-202585Y398079D01*
X-200753Y399485D01*
X-199347Y401317D01*
X-198463Y403451D01*
X-198162Y405740D01*
X-198463Y408029D01*
X-199347Y410163D01*
X-200753Y411995D01*
X-202585Y413401D01*
X-204718Y414284D01*
X-207008Y414586D01*
D02*
G37*
G36*
X-693737Y407222D02*
X-695403Y406890D01*
X-696815Y405947D01*
X-697759Y404534D01*
X-698091Y402868D01*
X-697759Y401202D01*
X-696815Y399790D01*
X-695799Y399110D01*
X-695766Y399014D01*
Y397796D01*
X-695799Y397699D01*
X-696815Y397020D01*
X-697759Y395608D01*
X-698091Y393942D01*
X-697759Y392276D01*
X-696815Y390863D01*
X-695403Y389920D01*
X-693737Y389588D01*
X-692071Y389920D01*
X-690658Y390863D01*
X-689715Y392276D01*
X-689383Y393942D01*
X-689715Y395608D01*
X-690658Y397020D01*
X-691675Y397699D01*
X-691708Y397796D01*
Y399014D01*
X-691675Y399110D01*
X-690658Y399790D01*
X-689715Y401202D01*
X-689383Y402868D01*
X-689715Y404534D01*
X-690658Y405947D01*
X-692071Y406890D01*
X-693737Y407222D01*
D02*
G37*
G36*
X-297497Y406087D02*
X-299163Y405755D01*
X-300575Y404812D01*
X-301519Y403399D01*
X-301850Y401733D01*
X-301519Y400067D01*
X-300575Y398655D01*
X-299559Y397976D01*
X-299526Y397879D01*
Y396661D01*
X-299559Y396564D01*
X-300575Y395885D01*
X-301519Y394473D01*
X-301850Y392807D01*
X-301519Y391141D01*
X-300575Y389728D01*
X-299163Y388785D01*
X-297497Y388453D01*
X-295831Y388785D01*
X-294418Y389728D01*
X-293475Y391141D01*
X-293143Y392807D01*
X-293475Y394473D01*
X-294418Y395885D01*
X-295435Y396564D01*
X-295468Y396661D01*
Y397879D01*
X-295435Y397976D01*
X-294418Y398655D01*
X-293475Y400067D01*
X-293143Y401733D01*
X-293475Y403399D01*
X-294418Y404812D01*
X-295831Y405755D01*
X-297497Y406087D01*
D02*
G37*
G36*
X-612501Y404229D02*
X-614168Y403897D01*
X-615580Y402953D01*
X-616524Y401541D01*
X-616855Y399875D01*
X-616524Y398209D01*
X-615580Y396796D01*
X-614940Y396369D01*
Y394841D01*
X-615580Y394413D01*
X-616524Y393001D01*
X-616855Y391335D01*
X-616524Y389669D01*
X-615580Y388256D01*
X-614168Y387313D01*
X-612501Y386981D01*
X-610835Y387313D01*
X-609423Y388256D01*
X-608479Y389669D01*
X-608148Y391335D01*
X-608479Y393001D01*
X-609423Y394413D01*
X-610063Y394841D01*
Y396369D01*
X-609423Y396796D01*
X-608479Y398209D01*
X-608148Y399875D01*
X-608479Y401541D01*
X-609423Y402953D01*
X-610835Y403897D01*
X-612501Y404229D01*
D02*
G37*
G36*
X-166621Y401886D02*
X-168911Y401584D01*
X-171044Y400701D01*
X-172876Y399295D01*
X-174282Y397463D01*
X-175166Y395329D01*
X-175467Y393040D01*
X-175166Y390751D01*
X-174282Y388617D01*
X-172876Y386785D01*
X-171044Y385379D01*
X-168911Y384496D01*
X-166621Y384194D01*
X-164332Y384496D01*
X-162199Y385379D01*
X-160367Y386785D01*
X-158961Y388617D01*
X-158077Y390751D01*
X-157776Y393040D01*
X-158077Y395329D01*
X-158961Y397463D01*
X-160367Y399295D01*
X-162199Y400701D01*
X-164332Y401584D01*
X-166621Y401886D01*
D02*
G37*
G36*
X-232407D02*
X-234697Y401584D01*
X-236830Y400701D01*
X-238662Y399295D01*
X-240068Y397463D01*
X-240952Y395329D01*
X-241253Y393040D01*
X-240952Y390751D01*
X-240068Y388617D01*
X-238662Y386785D01*
X-236830Y385379D01*
X-234697Y384496D01*
X-232407Y384194D01*
X-230118Y384496D01*
X-227985Y385379D01*
X-226153Y386785D01*
X-224747Y388617D01*
X-223863Y390751D01*
X-223562Y393040D01*
X-223863Y395329D01*
X-224747Y397463D01*
X-226153Y399295D01*
X-227985Y400701D01*
X-230118Y401584D01*
X-232407Y401886D01*
D02*
G37*
G36*
X-801765Y384127D02*
X-803146Y383853D01*
X-804317Y383070D01*
X-805099Y381899D01*
X-805374Y380518D01*
X-805099Y379137D01*
X-804317Y377966D01*
X-803146Y377183D01*
X-801765Y376909D01*
X-800383Y377183D01*
X-799212Y377966D01*
X-798430Y379137D01*
X-798155Y380518D01*
X-798430Y381899D01*
X-799212Y383070D01*
X-800383Y383853D01*
X-801765Y384127D01*
D02*
G37*
G36*
X-906784D02*
X-908165Y383853D01*
X-909336Y383070D01*
X-910118Y381899D01*
X-910393Y380518D01*
X-910118Y379137D01*
X-909336Y377966D01*
X-908165Y377183D01*
X-906784Y376909D01*
X-905403Y377183D01*
X-904232Y377966D01*
X-903449Y379137D01*
X-903175Y380518D01*
X-903449Y381899D01*
X-904232Y383070D01*
X-905403Y383853D01*
X-906784Y384127D01*
D02*
G37*
G36*
X-413010Y382992D02*
X-414391Y382718D01*
X-415562Y381935D01*
X-416344Y380764D01*
X-416619Y379383D01*
X-416344Y378002D01*
X-415562Y376831D01*
X-414391Y376048D01*
X-413010Y375774D01*
X-411629Y376048D01*
X-410458Y376831D01*
X-409675Y378002D01*
X-409400Y379383D01*
X-409675Y380764D01*
X-410458Y381935D01*
X-411629Y382718D01*
X-413010Y382992D01*
D02*
G37*
G36*
X-518029D02*
X-519410Y382718D01*
X-520581Y381935D01*
X-521364Y380764D01*
X-521638Y379383D01*
X-521364Y378002D01*
X-520581Y376831D01*
X-519410Y376048D01*
X-518029Y375774D01*
X-516648Y376048D01*
X-515477Y376831D01*
X-514694Y378002D01*
X-514420Y379383D01*
X-514694Y380764D01*
X-515477Y381935D01*
X-516648Y382718D01*
X-518029Y382992D01*
D02*
G37*
G36*
X-141222Y389186D02*
X-143511Y388884D01*
X-145644Y388001D01*
X-147476Y386595D01*
X-148882Y384763D01*
X-149766Y382629D01*
X-150067Y380340D01*
X-149766Y378051D01*
X-148882Y375917D01*
X-147476Y374085D01*
X-145644Y372679D01*
X-143511Y371796D01*
X-141222Y371494D01*
X-138932Y371796D01*
X-136799Y372679D01*
X-134967Y374085D01*
X-133561Y375917D01*
X-132677Y378051D01*
X-132376Y380340D01*
X-132677Y382629D01*
X-133561Y384763D01*
X-134967Y386595D01*
X-136799Y388001D01*
X-138932Y388884D01*
X-141222Y389186D01*
D02*
G37*
G36*
X-207008D02*
X-209297Y388884D01*
X-211430Y388001D01*
X-213262Y386595D01*
X-214668Y384763D01*
X-215552Y382629D01*
X-215853Y380340D01*
X-215552Y378051D01*
X-214668Y375917D01*
X-213262Y374085D01*
X-211430Y372679D01*
X-209297Y371796D01*
X-207008Y371494D01*
X-204718Y371796D01*
X-202585Y372679D01*
X-200753Y374085D01*
X-199347Y375917D01*
X-198463Y378051D01*
X-198162Y380340D01*
X-198463Y382629D01*
X-199347Y384763D01*
X-200753Y386595D01*
X-202585Y388001D01*
X-204718Y388884D01*
X-207008Y389186D01*
D02*
G37*
G36*
X-801766Y359127D02*
X-803147Y358853D01*
X-804318Y358070D01*
X-805101Y356899D01*
X-805375Y355518D01*
X-805101Y354137D01*
X-804318Y352966D01*
X-803147Y352183D01*
X-801766Y351909D01*
X-800385Y352183D01*
X-799214Y352966D01*
X-798431Y354137D01*
X-798157Y355518D01*
X-798431Y356899D01*
X-799214Y358070D01*
X-800385Y358853D01*
X-801766Y359127D01*
D02*
G37*
G36*
X-906783D02*
X-908164Y358853D01*
X-909335Y358070D01*
X-910117Y356899D01*
X-910392Y355518D01*
X-910117Y354137D01*
X-909335Y352966D01*
X-908164Y352183D01*
X-906783Y351909D01*
X-905401Y352183D01*
X-904230Y352966D01*
X-903448Y354137D01*
X-903173Y355518D01*
X-903448Y356899D01*
X-904230Y358070D01*
X-905401Y358853D01*
X-906783Y359127D01*
D02*
G37*
G36*
X-413011Y357992D02*
X-414392Y357718D01*
X-415563Y356935D01*
X-416346Y355764D01*
X-416620Y354383D01*
X-416346Y353002D01*
X-415563Y351831D01*
X-414392Y351048D01*
X-413011Y350774D01*
X-411630Y351048D01*
X-410459Y351831D01*
X-409677Y353002D01*
X-409402Y354383D01*
X-409677Y355764D01*
X-410459Y356935D01*
X-411630Y357718D01*
X-413011Y357992D01*
D02*
G37*
G36*
X-518028D02*
X-519409Y357718D01*
X-520580Y356935D01*
X-521362Y355764D01*
X-521637Y354383D01*
X-521362Y353002D01*
X-520580Y351831D01*
X-519409Y351048D01*
X-518028Y350774D01*
X-516646Y351048D01*
X-515476Y351831D01*
X-514693Y353002D01*
X-514418Y354383D01*
X-514693Y355764D01*
X-515476Y356935D01*
X-516646Y357718D01*
X-518028Y357992D01*
D02*
G37*
G36*
X-612501Y361704D02*
X-614168Y361372D01*
X-615580Y360429D01*
X-616524Y359016D01*
X-616855Y357350D01*
X-616524Y355684D01*
X-615580Y354272D01*
X-614940Y353844D01*
Y352316D01*
X-615580Y351889D01*
X-616524Y350476D01*
X-616855Y348810D01*
X-616524Y347144D01*
X-615580Y345732D01*
X-614168Y344788D01*
X-612501Y344456D01*
X-610835Y344788D01*
X-609423Y345732D01*
X-608479Y347144D01*
X-608148Y348810D01*
X-608479Y350476D01*
X-609423Y351889D01*
X-610063Y352316D01*
Y353844D01*
X-609423Y354272D01*
X-608479Y355684D01*
X-608148Y357350D01*
X-608479Y359016D01*
X-609423Y360429D01*
X-610835Y361372D01*
X-612501Y361704D01*
D02*
G37*
G36*
X-693737Y361502D02*
X-695403Y361170D01*
X-696815Y360227D01*
X-697759Y358814D01*
X-698091Y357148D01*
X-697759Y355482D01*
X-696815Y354070D01*
X-695799Y353391D01*
X-695766Y353294D01*
Y352076D01*
X-695799Y351979D01*
X-696815Y351300D01*
X-697759Y349888D01*
X-698091Y348222D01*
X-697759Y346556D01*
X-696815Y345143D01*
X-695403Y344200D01*
X-693737Y343868D01*
X-692071Y344200D01*
X-690658Y345143D01*
X-689715Y346556D01*
X-689383Y348222D01*
X-689715Y349888D01*
X-690658Y351300D01*
X-691675Y351979D01*
X-691708Y352076D01*
Y353294D01*
X-691675Y353391D01*
X-690658Y354070D01*
X-689715Y355482D01*
X-689383Y357148D01*
X-689715Y358814D01*
X-690658Y360227D01*
X-692071Y361170D01*
X-693737Y361502D01*
D02*
G37*
G36*
X-166621Y338386D02*
X-168911Y338084D01*
X-171044Y337201D01*
X-172876Y335795D01*
X-174282Y333963D01*
X-175166Y331829D01*
X-175467Y329540D01*
X-175166Y327251D01*
X-174282Y325117D01*
X-172876Y323285D01*
X-171044Y321879D01*
X-168911Y320996D01*
X-166621Y320694D01*
X-164332Y320996D01*
X-162199Y321879D01*
X-160367Y323285D01*
X-158961Y325117D01*
X-158077Y327251D01*
X-157776Y329540D01*
X-158077Y331829D01*
X-158961Y333963D01*
X-160367Y335795D01*
X-162199Y337201D01*
X-164332Y338084D01*
X-166621Y338386D01*
D02*
G37*
G36*
X-232407D02*
X-234697Y338084D01*
X-236830Y337201D01*
X-238662Y335795D01*
X-240068Y333963D01*
X-240952Y331829D01*
X-241253Y329540D01*
X-240952Y327251D01*
X-240068Y325117D01*
X-238662Y323285D01*
X-236830Y321879D01*
X-234697Y320996D01*
X-232407Y320694D01*
X-230118Y320996D01*
X-227985Y321879D01*
X-226153Y323285D01*
X-224747Y325117D01*
X-223863Y327251D01*
X-223562Y329540D01*
X-223863Y331829D01*
X-224747Y333963D01*
X-226153Y335795D01*
X-227985Y337201D01*
X-230118Y338084D01*
X-232407Y338386D01*
D02*
G37*
G36*
X-141222Y325686D02*
X-143511Y325384D01*
X-145644Y324501D01*
X-147476Y323095D01*
X-148882Y321263D01*
X-149766Y319129D01*
X-150067Y316840D01*
X-149766Y314551D01*
X-148882Y312417D01*
X-147476Y310585D01*
X-145644Y309179D01*
X-143511Y308296D01*
X-141222Y307994D01*
X-138932Y308296D01*
X-136799Y309179D01*
X-134967Y310585D01*
X-133561Y312417D01*
X-132677Y314551D01*
X-132376Y316840D01*
X-132677Y319129D01*
X-133561Y321263D01*
X-134967Y323095D01*
X-136799Y324501D01*
X-138932Y325384D01*
X-141222Y325686D01*
D02*
G37*
G36*
X-207008D02*
X-209297Y325384D01*
X-211430Y324501D01*
X-213262Y323095D01*
X-214668Y321263D01*
X-215552Y319129D01*
X-215853Y316840D01*
X-215552Y314551D01*
X-214668Y312417D01*
X-213262Y310585D01*
X-211430Y309179D01*
X-209297Y308296D01*
X-207008Y307994D01*
X-204718Y308296D01*
X-202585Y309179D01*
X-200753Y310585D01*
X-199347Y312417D01*
X-198463Y314551D01*
X-198162Y316840D01*
X-198463Y319129D01*
X-199347Y321263D01*
X-200753Y323095D01*
X-202585Y324501D01*
X-204718Y325384D01*
X-207008Y325686D01*
D02*
G37*
G36*
X-294043Y310112D02*
X-295709Y309781D01*
X-297121Y308837D01*
X-298065Y307425D01*
X-298396Y305759D01*
X-298246Y305004D01*
X-299326Y303923D01*
X-300082Y304074D01*
X-301748Y303742D01*
X-303160Y302799D01*
X-304104Y301386D01*
X-304435Y299720D01*
X-304104Y298054D01*
X-303160Y296642D01*
X-301748Y295698D01*
X-300082Y295366D01*
X-298415Y295698D01*
X-297003Y296642D01*
X-296059Y298054D01*
X-295728Y299720D01*
X-295878Y300475D01*
X-294798Y301555D01*
X-294043Y301405D01*
X-292377Y301736D01*
X-290964Y302680D01*
X-290021Y304093D01*
X-289689Y305759D01*
X-290021Y307425D01*
X-290964Y308837D01*
X-292377Y309781D01*
X-294043Y310112D01*
D02*
G37*
G36*
X-612501Y320409D02*
X-614168Y320077D01*
X-615580Y319133D01*
X-616524Y317721D01*
X-616855Y316055D01*
X-616524Y314389D01*
X-615580Y312976D01*
X-614940Y312549D01*
Y311021D01*
X-615580Y310593D01*
X-616524Y309181D01*
X-616855Y307515D01*
X-616524Y305849D01*
X-615580Y304436D01*
X-614168Y303493D01*
X-612501Y303161D01*
X-610835Y303493D01*
X-609423Y304436D01*
X-608479Y305849D01*
X-608148Y307515D01*
X-608479Y309181D01*
X-609423Y310593D01*
X-610063Y311021D01*
Y312549D01*
X-609423Y312976D01*
X-608479Y314389D01*
X-608148Y316055D01*
X-608479Y317721D01*
X-609423Y319133D01*
X-610835Y320077D01*
X-612501Y320409D01*
D02*
G37*
G36*
X-693737Y315782D02*
X-695403Y315450D01*
X-696815Y314506D01*
X-697759Y313094D01*
X-698091Y311428D01*
X-697759Y309762D01*
X-696815Y308349D01*
X-695799Y307670D01*
X-695766Y307574D01*
Y306356D01*
X-695799Y306259D01*
X-696815Y305580D01*
X-697759Y304168D01*
X-698091Y302502D01*
X-697759Y300836D01*
X-696815Y299423D01*
X-695403Y298480D01*
X-693737Y298148D01*
X-692071Y298480D01*
X-690658Y299423D01*
X-689715Y300836D01*
X-689383Y302502D01*
X-689715Y304168D01*
X-690658Y305580D01*
X-691675Y306259D01*
X-691708Y306356D01*
Y307574D01*
X-691675Y307670D01*
X-690658Y308349D01*
X-689715Y309762D01*
X-689383Y311428D01*
X-689715Y313094D01*
X-690658Y314506D01*
X-692071Y315450D01*
X-693737Y315782D01*
D02*
G37*
G36*
X-166621Y312986D02*
X-168911Y312684D01*
X-171044Y311801D01*
X-172876Y310395D01*
X-174282Y308563D01*
X-175166Y306429D01*
X-175467Y304140D01*
X-175166Y301851D01*
X-174282Y299717D01*
X-172876Y297885D01*
X-171044Y296479D01*
X-168911Y295596D01*
X-166621Y295294D01*
X-164332Y295596D01*
X-162199Y296479D01*
X-160367Y297885D01*
X-158961Y299717D01*
X-158077Y301851D01*
X-157776Y304140D01*
X-158077Y306429D01*
X-158961Y308563D01*
X-160367Y310395D01*
X-162199Y311801D01*
X-164332Y312684D01*
X-166621Y312986D01*
D02*
G37*
G36*
X-232407D02*
X-234697Y312684D01*
X-236830Y311801D01*
X-238662Y310395D01*
X-240068Y308563D01*
X-240952Y306429D01*
X-241253Y304140D01*
X-240952Y301851D01*
X-240068Y299717D01*
X-238662Y297885D01*
X-236830Y296479D01*
X-234697Y295596D01*
X-232407Y295294D01*
X-230118Y295596D01*
X-227985Y296479D01*
X-226153Y297885D01*
X-224747Y299717D01*
X-223863Y301851D01*
X-223562Y304140D01*
X-223863Y306429D01*
X-224747Y308563D01*
X-226153Y310395D01*
X-227985Y311801D01*
X-230118Y312684D01*
X-232407Y312986D01*
D02*
G37*
G36*
X-1196702Y294999D02*
X-1198083Y294725D01*
X-1199254Y293942D01*
X-1200036Y292771D01*
X-1200311Y291390D01*
X-1200036Y290009D01*
X-1199254Y288838D01*
X-1198083Y288055D01*
X-1196702Y287781D01*
X-1195320Y288055D01*
X-1194149Y288838D01*
X-1193367Y290009D01*
X-1193092Y291390D01*
X-1193367Y292771D01*
X-1194149Y293942D01*
X-1195320Y294725D01*
X-1196702Y294999D01*
D02*
G37*
G36*
X-1139551Y296454D02*
X-1141218Y296122D01*
X-1142630Y295179D01*
X-1143574Y293766D01*
X-1143905Y292100D01*
X-1143574Y290434D01*
X-1142630Y289021D01*
X-1141218Y288078D01*
X-1139551Y287746D01*
X-1137885Y288078D01*
X-1136473Y289021D01*
X-1135529Y290434D01*
X-1135198Y292100D01*
X-1135529Y293766D01*
X-1136473Y295179D01*
X-1137885Y296122D01*
X-1139551Y296454D01*
D02*
G37*
G36*
X-141222Y300286D02*
X-143511Y299984D01*
X-145644Y299101D01*
X-147476Y297695D01*
X-148882Y295863D01*
X-149766Y293729D01*
X-150067Y291440D01*
X-149766Y289151D01*
X-148882Y287017D01*
X-147476Y285185D01*
X-145644Y283779D01*
X-143511Y282896D01*
X-141222Y282594D01*
X-138932Y282896D01*
X-136799Y283779D01*
X-134967Y285185D01*
X-133561Y287017D01*
X-132677Y289151D01*
X-132376Y291440D01*
X-132677Y293729D01*
X-133561Y295863D01*
X-134967Y297695D01*
X-136799Y299101D01*
X-138932Y299984D01*
X-141222Y300286D01*
D02*
G37*
G36*
X-207008D02*
X-209297Y299984D01*
X-211430Y299101D01*
X-213262Y297695D01*
X-214668Y295863D01*
X-215552Y293729D01*
X-215853Y291440D01*
X-215552Y289151D01*
X-214668Y287017D01*
X-213262Y285185D01*
X-211430Y283779D01*
X-209297Y282896D01*
X-207008Y282594D01*
X-204718Y282896D01*
X-202585Y283779D01*
X-200753Y285185D01*
X-199347Y287017D01*
X-198463Y289151D01*
X-198162Y291440D01*
X-198463Y293729D01*
X-199347Y295863D01*
X-200753Y297695D01*
X-202585Y299101D01*
X-204718Y299984D01*
X-207008Y300286D01*
D02*
G37*
G36*
X-166621Y287586D02*
X-168911Y287284D01*
X-171044Y286401D01*
X-172876Y284995D01*
X-174282Y283163D01*
X-175166Y281029D01*
X-175467Y278740D01*
X-175166Y276451D01*
X-174282Y274317D01*
X-172876Y272485D01*
X-171044Y271079D01*
X-168911Y270196D01*
X-166621Y269894D01*
X-164332Y270196D01*
X-162199Y271079D01*
X-160367Y272485D01*
X-158961Y274317D01*
X-158077Y276451D01*
X-157776Y278740D01*
X-158077Y281029D01*
X-158961Y283163D01*
X-160367Y284995D01*
X-162199Y286401D01*
X-164332Y287284D01*
X-166621Y287586D01*
D02*
G37*
G36*
X-232407D02*
X-234697Y287284D01*
X-236830Y286401D01*
X-238662Y284995D01*
X-240068Y283163D01*
X-240952Y281029D01*
X-241253Y278740D01*
X-240952Y276451D01*
X-240068Y274317D01*
X-238662Y272485D01*
X-236830Y271079D01*
X-234697Y270196D01*
X-232407Y269894D01*
X-230118Y270196D01*
X-227985Y271079D01*
X-226153Y272485D01*
X-224747Y274317D01*
X-223863Y276451D01*
X-223562Y278740D01*
X-223863Y281029D01*
X-224747Y283163D01*
X-226153Y284995D01*
X-227985Y286401D01*
X-230118Y287284D01*
X-232407Y287586D01*
D02*
G37*
G36*
X-141222Y274886D02*
X-143511Y274584D01*
X-145644Y273701D01*
X-147476Y272295D01*
X-148882Y270463D01*
X-149766Y268329D01*
X-150067Y266040D01*
X-149766Y263751D01*
X-148882Y261617D01*
X-147476Y259785D01*
X-145644Y258379D01*
X-143511Y257496D01*
X-141222Y257194D01*
X-138932Y257496D01*
X-136799Y258379D01*
X-134967Y259785D01*
X-133561Y261617D01*
X-132677Y263751D01*
X-132376Y266040D01*
X-132677Y268329D01*
X-133561Y270463D01*
X-134967Y272295D01*
X-136799Y273701D01*
X-138932Y274584D01*
X-141222Y274886D01*
D02*
G37*
G36*
X-207008D02*
X-209297Y274584D01*
X-211430Y273701D01*
X-213262Y272295D01*
X-214668Y270463D01*
X-215552Y268329D01*
X-215853Y266040D01*
X-215552Y263751D01*
X-214668Y261617D01*
X-213262Y259785D01*
X-211430Y258379D01*
X-209297Y257496D01*
X-207008Y257194D01*
X-204718Y257496D01*
X-202585Y258379D01*
X-200753Y259785D01*
X-199347Y261617D01*
X-198463Y263751D01*
X-198162Y266040D01*
X-198463Y268329D01*
X-199347Y270463D01*
X-200753Y272295D01*
X-202585Y273701D01*
X-204718Y274584D01*
X-207008Y274886D01*
D02*
G37*
G36*
X-1129080Y264392D02*
X-1130746Y264061D01*
X-1132159Y263117D01*
X-1133102Y261705D01*
X-1133434Y260039D01*
X-1133102Y258373D01*
X-1132159Y256960D01*
X-1130746Y256016D01*
X-1129080Y255685D01*
X-1128325Y255835D01*
X-1127245Y254755D01*
X-1127395Y254000D01*
X-1127064Y252334D01*
X-1126120Y250921D01*
X-1124708Y249978D01*
X-1123042Y249646D01*
X-1121375Y249978D01*
X-1119963Y250921D01*
X-1119019Y252334D01*
X-1118688Y254000D01*
X-1119019Y255666D01*
X-1119963Y257078D01*
X-1121375Y258022D01*
X-1123042Y258354D01*
X-1123797Y258203D01*
X-1124877Y259284D01*
X-1124726Y260039D01*
X-1125058Y261705D01*
X-1126002Y263117D01*
X-1127414Y264061D01*
X-1129080Y264392D01*
D02*
G37*
G36*
X-166621Y262186D02*
X-168911Y261884D01*
X-171044Y261001D01*
X-172876Y259595D01*
X-174282Y257763D01*
X-175166Y255629D01*
X-175467Y253340D01*
X-175166Y251051D01*
X-174282Y248917D01*
X-172876Y247085D01*
X-171044Y245679D01*
X-168911Y244796D01*
X-166621Y244494D01*
X-164332Y244796D01*
X-162199Y245679D01*
X-160367Y247085D01*
X-158961Y248917D01*
X-158077Y251051D01*
X-157776Y253340D01*
X-158077Y255629D01*
X-158961Y257763D01*
X-160367Y259595D01*
X-162199Y261001D01*
X-164332Y261884D01*
X-166621Y262186D01*
D02*
G37*
G36*
X-232407D02*
X-234697Y261884D01*
X-236830Y261001D01*
X-238662Y259595D01*
X-240068Y257763D01*
X-240952Y255629D01*
X-241253Y253340D01*
X-240952Y251051D01*
X-240068Y248917D01*
X-238662Y247085D01*
X-236830Y245679D01*
X-234697Y244796D01*
X-232407Y244494D01*
X-230118Y244796D01*
X-227985Y245679D01*
X-226153Y247085D01*
X-224747Y248917D01*
X-223863Y251051D01*
X-223562Y253340D01*
X-223863Y255629D01*
X-224747Y257763D01*
X-226153Y259595D01*
X-227985Y261001D01*
X-230118Y261884D01*
X-232407Y262186D01*
D02*
G37*
G36*
X-1106220Y251692D02*
X-1107886Y251361D01*
X-1109299Y250417D01*
X-1110242Y249005D01*
X-1110574Y247339D01*
X-1110242Y245673D01*
X-1109299Y244260D01*
X-1107886Y243316D01*
X-1106220Y242985D01*
X-1105465Y243135D01*
X-1104385Y242055D01*
X-1104535Y241300D01*
X-1104204Y239634D01*
X-1103260Y238221D01*
X-1101848Y237278D01*
X-1100182Y236946D01*
X-1098515Y237278D01*
X-1097103Y238221D01*
X-1096159Y239634D01*
X-1095828Y241300D01*
X-1096159Y242966D01*
X-1097103Y244379D01*
X-1098515Y245322D01*
X-1100182Y245654D01*
X-1100937Y245503D01*
X-1102017Y246583D01*
X-1101867Y247339D01*
X-1102198Y249005D01*
X-1103142Y250417D01*
X-1104554Y251361D01*
X-1106220Y251692D01*
D02*
G37*
G36*
X-141222Y249486D02*
X-143511Y249184D01*
X-145644Y248301D01*
X-147476Y246895D01*
X-148882Y245063D01*
X-149766Y242929D01*
X-150067Y240640D01*
X-149766Y238351D01*
X-148882Y236217D01*
X-147476Y234385D01*
X-145644Y232979D01*
X-143511Y232096D01*
X-141222Y231794D01*
X-138932Y232096D01*
X-136799Y232979D01*
X-134967Y234385D01*
X-133561Y236217D01*
X-132677Y238351D01*
X-132376Y240640D01*
X-132677Y242929D01*
X-133561Y245063D01*
X-134967Y246895D01*
X-136799Y248301D01*
X-138932Y249184D01*
X-141222Y249486D01*
D02*
G37*
G36*
X-207008D02*
X-209297Y249184D01*
X-211430Y248301D01*
X-213262Y246895D01*
X-214668Y245063D01*
X-215552Y242929D01*
X-215853Y240640D01*
X-215552Y238351D01*
X-214668Y236217D01*
X-213262Y234385D01*
X-211430Y232979D01*
X-209297Y232096D01*
X-207008Y231794D01*
X-204718Y232096D01*
X-202585Y232979D01*
X-200753Y234385D01*
X-199347Y236217D01*
X-198463Y238351D01*
X-198162Y240640D01*
X-198463Y242929D01*
X-199347Y245063D01*
X-200753Y246895D01*
X-202585Y248301D01*
X-204718Y249184D01*
X-207008Y249486D01*
D02*
G37*
G36*
X-1088752Y235494D02*
X-1090418Y235162D01*
X-1091830Y234219D01*
X-1092774Y232806D01*
X-1093105Y231140D01*
X-1092774Y229474D01*
X-1091830Y228062D01*
X-1090418Y227118D01*
X-1088752Y226786D01*
X-1087996Y226937D01*
X-1086916Y225856D01*
X-1087066Y225101D01*
X-1086735Y223435D01*
X-1085791Y222023D01*
X-1084379Y221079D01*
X-1082713Y220748D01*
X-1081047Y221079D01*
X-1079634Y222023D01*
X-1078691Y223435D01*
X-1078359Y225101D01*
X-1078691Y226767D01*
X-1079634Y228180D01*
X-1081047Y229124D01*
X-1082713Y229455D01*
X-1083468Y229305D01*
X-1084548Y230385D01*
X-1084398Y231140D01*
X-1084729Y232806D01*
X-1085673Y234219D01*
X-1087085Y235162D01*
X-1088752Y235494D01*
D02*
G37*
G36*
X-1069702Y226604D02*
X-1071368Y226272D01*
X-1072780Y225329D01*
X-1073724Y223916D01*
X-1074055Y222250D01*
X-1073724Y220584D01*
X-1072780Y219172D01*
X-1071368Y218228D01*
X-1069702Y217896D01*
X-1068946Y218047D01*
X-1067866Y216966D01*
X-1068017Y216211D01*
X-1067685Y214545D01*
X-1066741Y213133D01*
X-1065329Y212189D01*
X-1063663Y211858D01*
X-1061997Y212189D01*
X-1060584Y213133D01*
X-1059641Y214545D01*
X-1059309Y216211D01*
X-1059641Y217877D01*
X-1060584Y219290D01*
X-1061997Y220234D01*
X-1063663Y220565D01*
X-1064418Y220415D01*
X-1065498Y221495D01*
X-1065348Y222250D01*
X-1065679Y223916D01*
X-1066623Y225329D01*
X-1068035Y226272D01*
X-1069702Y226604D01*
D02*
G37*
G36*
X-77722Y246570D02*
X-81356Y246212D01*
X-84851Y245152D01*
X-88072Y243430D01*
X-90895Y241113D01*
X-93211Y238290D01*
X-94933Y235069D01*
X-95993Y231574D01*
X-96351Y227940D01*
X-95993Y224305D01*
X-94933Y220811D01*
X-93211Y217590D01*
X-90895Y214767D01*
X-88072Y212450D01*
X-84851Y210728D01*
X-81356Y209668D01*
X-77722Y209310D01*
X-74087Y209668D01*
X-70592Y210728D01*
X-67371Y212450D01*
X-64548Y214767D01*
X-62231Y217590D01*
X-60510Y220811D01*
X-59450Y224305D01*
X-59092Y227940D01*
X-59450Y231574D01*
X-60510Y235069D01*
X-62231Y238290D01*
X-64548Y241113D01*
X-67371Y243430D01*
X-70592Y245152D01*
X-74087Y246212D01*
X-77722Y246570D01*
D02*
G37*
G36*
X-696277Y223207D02*
X-697943Y222875D01*
X-699355Y221931D01*
X-700299Y220519D01*
X-700630Y218853D01*
X-700299Y217187D01*
X-699355Y215774D01*
X-698339Y215096D01*
X-698306Y214999D01*
Y213781D01*
X-698339Y213684D01*
X-699355Y213005D01*
X-700299Y211593D01*
X-700630Y209927D01*
X-700299Y208261D01*
X-699355Y206848D01*
X-697943Y205905D01*
X-696277Y205573D01*
X-694611Y205905D01*
X-693198Y206848D01*
X-692255Y208261D01*
X-691923Y209927D01*
X-692255Y211593D01*
X-693198Y213005D01*
X-694215Y213684D01*
X-694248Y213781D01*
Y214999D01*
X-694215Y215096D01*
X-693198Y215774D01*
X-692255Y217187D01*
X-691923Y218853D01*
X-692255Y220519D01*
X-693198Y221931D01*
X-694611Y222875D01*
X-696277Y223207D01*
D02*
G37*
G36*
X-1194162Y213194D02*
X-1195828Y212862D01*
X-1197240Y211919D01*
X-1198184Y210506D01*
X-1198515Y208840D01*
X-1198184Y207174D01*
X-1197240Y205762D01*
X-1195828Y204818D01*
X-1194162Y204486D01*
X-1192495Y204818D01*
X-1191083Y205762D01*
X-1190139Y207174D01*
X-1189808Y208840D01*
X-1190139Y210506D01*
X-1191083Y211919D01*
X-1192495Y212862D01*
X-1194162Y213194D01*
D02*
G37*
G36*
X-412844Y205603D02*
X-414226Y205329D01*
X-415396Y204546D01*
X-416179Y203375D01*
X-416454Y201994D01*
X-416179Y200613D01*
X-415396Y199442D01*
X-414226Y198659D01*
X-412844Y198385D01*
X-411463Y198659D01*
X-410292Y199442D01*
X-409510Y200613D01*
X-409235Y201994D01*
X-409510Y203375D01*
X-410292Y204546D01*
X-411463Y205329D01*
X-412844Y205603D01*
D02*
G37*
G36*
X-804004D02*
X-805386Y205329D01*
X-806556Y204546D01*
X-807339Y203375D01*
X-807614Y201994D01*
X-807339Y200613D01*
X-806556Y199442D01*
X-805386Y198659D01*
X-804004Y198385D01*
X-802623Y198659D01*
X-801452Y199442D01*
X-800670Y200613D01*
X-800395Y201994D01*
X-800670Y203375D01*
X-801452Y204546D01*
X-802623Y205329D01*
X-804004Y205603D01*
D02*
G37*
G36*
X-518150Y205425D02*
X-519531Y205151D01*
X-520702Y204368D01*
X-521485Y203197D01*
X-521759Y201816D01*
X-521485Y200435D01*
X-520702Y199264D01*
X-519531Y198482D01*
X-518150Y198207D01*
X-516769Y198482D01*
X-515598Y199264D01*
X-514815Y200435D01*
X-514541Y201816D01*
X-514815Y203197D01*
X-515598Y204368D01*
X-516769Y205151D01*
X-518150Y205425D01*
D02*
G37*
G36*
X-909310D02*
X-910691Y205151D01*
X-911862Y204368D01*
X-912645Y203197D01*
X-912919Y201816D01*
X-912645Y200435D01*
X-911862Y199264D01*
X-910691Y198482D01*
X-909310Y198207D01*
X-907929Y198482D01*
X-906758Y199264D01*
X-905975Y200435D01*
X-905701Y201816D01*
X-905975Y203197D01*
X-906758Y204368D01*
X-907929Y205151D01*
X-909310Y205425D01*
D02*
G37*
G36*
X-169161Y219988D02*
X-172626Y219533D01*
X-175854Y218195D01*
X-178626Y216068D01*
X-180753Y213296D01*
X-182090Y210068D01*
X-182546Y206604D01*
X-182090Y203140D01*
X-180753Y199912D01*
X-178626Y197140D01*
X-175854Y195013D01*
X-172626Y193676D01*
X-169161Y193220D01*
X-165697Y193676D01*
X-162469Y195013D01*
X-159697Y197140D01*
X-157570Y199912D01*
X-156233Y203140D01*
X-155777Y206604D01*
X-156233Y210068D01*
X-157570Y213296D01*
X-159697Y216068D01*
X-162469Y218195D01*
X-165697Y219533D01*
X-169161Y219988D01*
D02*
G37*
G36*
X-32002Y213384D02*
X-35466Y212929D01*
X-38694Y211591D01*
X-41466Y209464D01*
X-43593Y206692D01*
X-44930Y203464D01*
X-45386Y200000D01*
X-44930Y196536D01*
X-43593Y193308D01*
X-41466Y190536D01*
X-38694Y188409D01*
X-35466Y187072D01*
X-32002Y186616D01*
X-28537Y187072D01*
X-25309Y188409D01*
X-22537Y190536D01*
X-20410Y193308D01*
X-19073Y196536D01*
X-18617Y200000D01*
X-19073Y203464D01*
X-20410Y206692D01*
X-22537Y209464D01*
X-25309Y211591D01*
X-28537Y212929D01*
X-32002Y213384D01*
D02*
G37*
G36*
X-232407D02*
X-235872Y212929D01*
X-239100Y211591D01*
X-241872Y209464D01*
X-243999Y206692D01*
X-245336Y203464D01*
X-245792Y200000D01*
X-245336Y196536D01*
X-243999Y193308D01*
X-241872Y190536D01*
X-239100Y188409D01*
X-235872Y187072D01*
X-232407Y186616D01*
X-228943Y187072D01*
X-225715Y188409D01*
X-222943Y190536D01*
X-220816Y193308D01*
X-219479Y196536D01*
X-219023Y200000D01*
X-219479Y203464D01*
X-220816Y206692D01*
X-222943Y209464D01*
X-225715Y211591D01*
X-228943Y212929D01*
X-232407Y213384D01*
D02*
G37*
G36*
X-413006Y179392D02*
X-414388Y179118D01*
X-415559Y178335D01*
X-416341Y177164D01*
X-416616Y175783D01*
X-416341Y174402D01*
X-415559Y173231D01*
X-414388Y172448D01*
X-413006Y172174D01*
X-411625Y172448D01*
X-410454Y173231D01*
X-409672Y174402D01*
X-409397Y175783D01*
X-409672Y177164D01*
X-410454Y178335D01*
X-411625Y179118D01*
X-413006Y179392D01*
D02*
G37*
G36*
X-518032D02*
X-519414Y179118D01*
X-520585Y178335D01*
X-521367Y177164D01*
X-521642Y175783D01*
X-521367Y174402D01*
X-520585Y173231D01*
X-519414Y172448D01*
X-518032Y172174D01*
X-516651Y172448D01*
X-515480Y173231D01*
X-514698Y174402D01*
X-514423Y175783D01*
X-514698Y177164D01*
X-515480Y178335D01*
X-516651Y179118D01*
X-518032Y179392D01*
D02*
G37*
G36*
X-804166D02*
X-805548Y179118D01*
X-806719Y178335D01*
X-807501Y177164D01*
X-807776Y175783D01*
X-807501Y174402D01*
X-806719Y173231D01*
X-805548Y172448D01*
X-804166Y172174D01*
X-802785Y172448D01*
X-801614Y173231D01*
X-800832Y174402D01*
X-800557Y175783D01*
X-800832Y177164D01*
X-801614Y178335D01*
X-802785Y179118D01*
X-804166Y179392D01*
D02*
G37*
G36*
X-909192D02*
X-910574Y179118D01*
X-911745Y178335D01*
X-912527Y177164D01*
X-912802Y175783D01*
X-912527Y174402D01*
X-911745Y173231D01*
X-910574Y172448D01*
X-909192Y172174D01*
X-907811Y172448D01*
X-906640Y173231D01*
X-905858Y174402D01*
X-905583Y175783D01*
X-905858Y177164D01*
X-906640Y178335D01*
X-907811Y179118D01*
X-909192Y179392D01*
D02*
G37*
G36*
X-696277Y177487D02*
X-697943Y177155D01*
X-699355Y176211D01*
X-700299Y174799D01*
X-700630Y173133D01*
X-700299Y171467D01*
X-699355Y170054D01*
X-698339Y169375D01*
X-698306Y169279D01*
Y168061D01*
X-698339Y167964D01*
X-699355Y167285D01*
X-700299Y165873D01*
X-700630Y164207D01*
X-700299Y162541D01*
X-699355Y161128D01*
X-697943Y160185D01*
X-696277Y159853D01*
X-694611Y160185D01*
X-693198Y161128D01*
X-692255Y162541D01*
X-691923Y164207D01*
X-692255Y165873D01*
X-693198Y167285D01*
X-694215Y167964D01*
X-694248Y168061D01*
Y169279D01*
X-694215Y169375D01*
X-693198Y170054D01*
X-692255Y171467D01*
X-691923Y173133D01*
X-692255Y174799D01*
X-693198Y176211D01*
X-694611Y177155D01*
X-696277Y177487D01*
D02*
G37*
G36*
X-413010Y154392D02*
X-414391Y154118D01*
X-415562Y153335D01*
X-416344Y152164D01*
X-416619Y150783D01*
X-416344Y149402D01*
X-415562Y148231D01*
X-414391Y147448D01*
X-413010Y147174D01*
X-411629Y147448D01*
X-410458Y148231D01*
X-409675Y149402D01*
X-409400Y150783D01*
X-409675Y152164D01*
X-410458Y153335D01*
X-411629Y154118D01*
X-413010Y154392D01*
D02*
G37*
G36*
X-518029D02*
X-519410Y154118D01*
X-520581Y153335D01*
X-521364Y152164D01*
X-521638Y150783D01*
X-521364Y149402D01*
X-520581Y148231D01*
X-519410Y147448D01*
X-518029Y147174D01*
X-516648Y147448D01*
X-515477Y148231D01*
X-514694Y149402D01*
X-514420Y150783D01*
X-514694Y152164D01*
X-515477Y153335D01*
X-516648Y154118D01*
X-518029Y154392D01*
D02*
G37*
G36*
X-804170D02*
X-805551Y154118D01*
X-806722Y153335D01*
X-807504Y152164D01*
X-807779Y150783D01*
X-807504Y149402D01*
X-806722Y148231D01*
X-805551Y147448D01*
X-804170Y147174D01*
X-802789Y147448D01*
X-801618Y148231D01*
X-800835Y149402D01*
X-800561Y150783D01*
X-800835Y152164D01*
X-801618Y153335D01*
X-802789Y154118D01*
X-804170Y154392D01*
D02*
G37*
G36*
X-909189D02*
X-910570Y154118D01*
X-911741Y153335D01*
X-912524Y152164D01*
X-912798Y150783D01*
X-912524Y149402D01*
X-911741Y148231D01*
X-910570Y147448D01*
X-909189Y147174D01*
X-907808Y147448D01*
X-906637Y148231D01*
X-905854Y149402D01*
X-905580Y150783D01*
X-905854Y152164D01*
X-906637Y153335D01*
X-907808Y154118D01*
X-909189Y154392D01*
D02*
G37*
G36*
X-413011Y129392D02*
X-414392Y129118D01*
X-415563Y128335D01*
X-416346Y127164D01*
X-416620Y125783D01*
X-416346Y124402D01*
X-415563Y123231D01*
X-414392Y122448D01*
X-413011Y122174D01*
X-411630Y122448D01*
X-410459Y123231D01*
X-409677Y124402D01*
X-409402Y125783D01*
X-409677Y127164D01*
X-410459Y128335D01*
X-411630Y129118D01*
X-413011Y129392D01*
D02*
G37*
G36*
X-518028D02*
X-519409Y129118D01*
X-520580Y128335D01*
X-521362Y127164D01*
X-521637Y125783D01*
X-521362Y124402D01*
X-520580Y123231D01*
X-519409Y122448D01*
X-518028Y122174D01*
X-516646Y122448D01*
X-515476Y123231D01*
X-514693Y124402D01*
X-514418Y125783D01*
X-514693Y127164D01*
X-515476Y128335D01*
X-516646Y129118D01*
X-518028Y129392D01*
D02*
G37*
G36*
X-804171D02*
X-805552Y129118D01*
X-806723Y128335D01*
X-807506Y127164D01*
X-807781Y125783D01*
X-807506Y124402D01*
X-806723Y123231D01*
X-805552Y122448D01*
X-804171Y122174D01*
X-802790Y122448D01*
X-801619Y123231D01*
X-800837Y124402D01*
X-800562Y125783D01*
X-800837Y127164D01*
X-801619Y128335D01*
X-802790Y129118D01*
X-804171Y129392D01*
D02*
G37*
G36*
X-909188D02*
X-910569Y129118D01*
X-911740Y128335D01*
X-912522Y127164D01*
X-912797Y125783D01*
X-912522Y124402D01*
X-911740Y123231D01*
X-910569Y122448D01*
X-909188Y122174D01*
X-907806Y122448D01*
X-906636Y123231D01*
X-905853Y124402D01*
X-905578Y125783D01*
X-905853Y127164D01*
X-906636Y128335D01*
X-907806Y129118D01*
X-909188Y129392D01*
D02*
G37*
G36*
X-696277Y131767D02*
X-697943Y131435D01*
X-699355Y130492D01*
X-700299Y129079D01*
X-700630Y127413D01*
X-700299Y125747D01*
X-699355Y124334D01*
X-698339Y123656D01*
X-698306Y123559D01*
Y122341D01*
X-698339Y122244D01*
X-699355Y121565D01*
X-700299Y120153D01*
X-700630Y118487D01*
X-700299Y116821D01*
X-699355Y115408D01*
X-697943Y114465D01*
X-696277Y114133D01*
X-694611Y114465D01*
X-693198Y115408D01*
X-692255Y116821D01*
X-691923Y118487D01*
X-692255Y120153D01*
X-693198Y121565D01*
X-694215Y122244D01*
X-694248Y122341D01*
Y123559D01*
X-694215Y123656D01*
X-693198Y124334D01*
X-692255Y125747D01*
X-691923Y127413D01*
X-692255Y129079D01*
X-693198Y130492D01*
X-694611Y131435D01*
X-696277Y131767D01*
D02*
G37*
G36*
Y86047D02*
X-697943Y85715D01*
X-699355Y84771D01*
X-700299Y83359D01*
X-700630Y81693D01*
X-700299Y80027D01*
X-699355Y78615D01*
X-698339Y77936D01*
X-698306Y77839D01*
Y76621D01*
X-698339Y76524D01*
X-699355Y75845D01*
X-700299Y74433D01*
X-700630Y72767D01*
X-700299Y71101D01*
X-699355Y69688D01*
X-697943Y68745D01*
X-696277Y68413D01*
X-694611Y68745D01*
X-693198Y69688D01*
X-692255Y71101D01*
X-691923Y72767D01*
X-692255Y74433D01*
X-693198Y75845D01*
X-694215Y76524D01*
X-694248Y76621D01*
Y77839D01*
X-694215Y77936D01*
X-693198Y78615D01*
X-692255Y80027D01*
X-691923Y81693D01*
X-692255Y83359D01*
X-693198Y84771D01*
X-694611Y85715D01*
X-696277Y86047D01*
D02*
G37*
%LPD*%
D80*
X-1321161Y723900D02*
D03*
X-1280522Y955040D02*
D03*
D86*
X-1122291Y843100D02*
D03*
Y637920D02*
D03*
Y422020D02*
D03*
Y208660D02*
D03*
D87*
X-1541001Y173000D02*
D03*
X-587252Y940750D02*
D03*
X-588251Y709250D02*
D03*
Y456500D02*
D03*
X-581251Y245500D02*
D03*
X-981002Y228000D02*
D03*
X-976252Y459000D02*
D03*
X-955751Y709500D02*
D03*
X-955501Y940500D02*
D03*
X-1426501Y424000D02*
D03*
X-1147001Y865000D02*
D03*
X-1155340Y851768D02*
D03*
X-1147001Y660000D02*
D03*
X-1155132Y646380D02*
D03*
X-1147001Y230000D02*
D03*
X-1155132Y217120D02*
D03*
Y430480D02*
D03*
X-1578972Y154940D02*
D03*
X-1540273Y205565D02*
D03*
X-918826Y433685D02*
D03*
X-925176Y403205D02*
D03*
X-923906Y377805D02*
D03*
X-923767Y348682D02*
D03*
X-786843Y431242D02*
D03*
X-784206Y403205D02*
D03*
Y375265D02*
D03*
Y349865D02*
D03*
X-892782Y403205D02*
D03*
Y377805D02*
D03*
Y353675D02*
D03*
X-893426Y330518D02*
D03*
X-836953Y400475D02*
D03*
X-837546Y375265D02*
D03*
X-837032Y350475D02*
D03*
X-530071Y432550D02*
D03*
X-536422Y402070D02*
D03*
X-535151Y376670D02*
D03*
X-535012Y347547D02*
D03*
X-398089Y430107D02*
D03*
X-395452Y402070D02*
D03*
Y374130D02*
D03*
Y348730D02*
D03*
X-504027Y402070D02*
D03*
Y376670D02*
D03*
Y352540D02*
D03*
X-504672Y329383D02*
D03*
X-448198Y399340D02*
D03*
X-448792Y374130D02*
D03*
X-448277Y349340D02*
D03*
X-921232Y203950D02*
D03*
X-927581Y173470D02*
D03*
X-926311Y148070D02*
D03*
X-926172Y118947D02*
D03*
X-789249Y201507D02*
D03*
X-786611Y173470D02*
D03*
Y145530D02*
D03*
Y120130D02*
D03*
X-895188Y173470D02*
D03*
Y148070D02*
D03*
Y123940D02*
D03*
X-895832Y100783D02*
D03*
X-839358Y170740D02*
D03*
X-839951Y145530D02*
D03*
X-839437Y120740D02*
D03*
X-919951Y685670D02*
D03*
X-926301Y655190D02*
D03*
X-925032Y629790D02*
D03*
X-924892Y600667D02*
D03*
X-787969Y683227D02*
D03*
X-785331Y655190D02*
D03*
Y627250D02*
D03*
Y601850D02*
D03*
X-893907Y655190D02*
D03*
Y629790D02*
D03*
Y605660D02*
D03*
X-894551Y582503D02*
D03*
X-838078Y652460D02*
D03*
X-838671Y627250D02*
D03*
X-838157Y602460D02*
D03*
X-919951Y915670D02*
D03*
X-926301Y885190D02*
D03*
X-925032Y859790D02*
D03*
X-924892Y830667D02*
D03*
X-787969Y913227D02*
D03*
X-785331Y885190D02*
D03*
Y857250D02*
D03*
Y831850D02*
D03*
X-893907Y885190D02*
D03*
Y859790D02*
D03*
Y835660D02*
D03*
X-894551Y812503D02*
D03*
X-838078Y882460D02*
D03*
X-838671Y857250D02*
D03*
X-838157Y832460D02*
D03*
X-530071Y203950D02*
D03*
X-536422Y173470D02*
D03*
X-535151Y148070D02*
D03*
X-535012Y118947D02*
D03*
X-398089Y201507D02*
D03*
X-395452Y173470D02*
D03*
Y145530D02*
D03*
Y120130D02*
D03*
X-504027Y173470D02*
D03*
Y148070D02*
D03*
Y123940D02*
D03*
X-504672Y100783D02*
D03*
X-448198Y170740D02*
D03*
X-448792Y145530D02*
D03*
X-448277Y120740D02*
D03*
X-529952Y685670D02*
D03*
X-536301Y655190D02*
D03*
X-535032Y629790D02*
D03*
X-534892Y600667D02*
D03*
X-397969Y683227D02*
D03*
X-395331Y655190D02*
D03*
Y627250D02*
D03*
Y601850D02*
D03*
X-503908Y655190D02*
D03*
Y629790D02*
D03*
Y605660D02*
D03*
X-504552Y582503D02*
D03*
X-448078Y652460D02*
D03*
X-448671Y627250D02*
D03*
X-448157Y602460D02*
D03*
X-395331Y831850D02*
D03*
Y857250D02*
D03*
Y885190D02*
D03*
X-397969Y913227D02*
D03*
X-448157Y832460D02*
D03*
X-448671Y857250D02*
D03*
X-448078Y882460D02*
D03*
X-534892Y830667D02*
D03*
X-535032Y859790D02*
D03*
X-536301Y885190D02*
D03*
X-529952Y915670D02*
D03*
X-504552Y812503D02*
D03*
X-503908Y885190D02*
D03*
Y859790D02*
D03*
Y835660D02*
D03*
X-1192891Y260910D02*
D03*
X-1178922Y299010D02*
D03*
X-1157331Y159310D02*
D03*
X-1168762Y272340D02*
D03*
X-1192891Y474270D02*
D03*
X-1178922Y512370D02*
D03*
X-1157331Y372670D02*
D03*
X-1168762Y485700D02*
D03*
X-1192891Y690170D02*
D03*
X-1178922Y728270D02*
D03*
X-1157331Y588570D02*
D03*
X-1168762Y701600D02*
D03*
X-1157331Y793750D02*
D03*
X-1178922Y933450D02*
D03*
X-1168762Y906780D02*
D03*
X-1192891Y895350D02*
D03*
D88*
X-1147001Y445000D02*
D03*
X-1413871Y180340D02*
D03*
X-1457052Y193040D02*
D03*
X-1420222Y576580D02*
D03*
X-1478642D02*
D03*
X-1537061D02*
D03*
X-1518011Y486410D02*
D03*
X-1458322D02*
D03*
X-1399901D02*
D03*
X-1459592Y384810D02*
D03*
X-1496422Y364490D02*
D03*
X-65132Y121640D02*
D03*
X-1143809Y812117D02*
D03*
X-1143446Y607191D02*
D03*
Y391291D02*
D03*
Y177931D02*
D03*
X-973436Y292715D02*
D03*
X-974706Y332085D02*
D03*
Y375265D02*
D03*
Y417175D02*
D03*
X-584682Y291580D02*
D03*
X-585951Y330950D02*
D03*
Y374130D02*
D03*
Y416040D02*
D03*
X-975842Y62980D02*
D03*
X-977112Y102350D02*
D03*
Y145530D02*
D03*
Y187440D02*
D03*
X-974561Y544700D02*
D03*
X-975832Y584070D02*
D03*
Y627250D02*
D03*
Y669160D02*
D03*
X-974561Y774700D02*
D03*
X-975832Y814070D02*
D03*
Y857250D02*
D03*
Y899160D02*
D03*
X-584682Y62980D02*
D03*
X-585951Y102350D02*
D03*
Y145530D02*
D03*
Y187440D02*
D03*
X-584562Y544700D02*
D03*
X-585831Y584070D02*
D03*
Y627250D02*
D03*
Y669160D02*
D03*
X-584562Y774700D02*
D03*
X-585831Y814070D02*
D03*
Y857250D02*
D03*
Y899160D02*
D03*
X-1206861Y175820D02*
D03*
Y206300D02*
D03*
X-1175491Y227890D02*
D03*
X-1206861Y389180D02*
D03*
Y419660D02*
D03*
X-1175491Y441250D02*
D03*
X-1206861Y605080D02*
D03*
Y635560D02*
D03*
X-1175491Y657150D02*
D03*
Y862330D02*
D03*
X-1206861Y810260D02*
D03*
Y840740D02*
D03*
X-1290681Y876300D02*
D03*
X-1277981D02*
D03*
X-1270361Y886460D02*
D03*
Y901700D02*
D03*
X-1277981Y911860D02*
D03*
X-1290681D02*
D03*
Y769620D02*
D03*
X-1277981D02*
D03*
X-1270361Y779780D02*
D03*
Y795020D02*
D03*
X-1277981Y805180D02*
D03*
X-1290681D02*
D03*
D89*
X-1134292Y855100D02*
D03*
X-1122291D02*
D03*
X-1110292D02*
D03*
Y843100D02*
D03*
X-1134292D02*
D03*
Y831100D02*
D03*
X-1122392Y831000D02*
D03*
X-1110391D02*
D03*
Y625820D02*
D03*
X-1122392D02*
D03*
X-1134292Y625920D02*
D03*
Y637920D02*
D03*
X-1110292D02*
D03*
Y649920D02*
D03*
X-1122291D02*
D03*
X-1134292D02*
D03*
Y434020D02*
D03*
X-1122291D02*
D03*
X-1110292D02*
D03*
Y422020D02*
D03*
X-1134292D02*
D03*
Y410020D02*
D03*
X-1122392Y409920D02*
D03*
X-1110391D02*
D03*
Y196560D02*
D03*
X-1122392D02*
D03*
X-1134292Y196660D02*
D03*
Y208660D02*
D03*
X-1110292D02*
D03*
Y220660D02*
D03*
X-1122291D02*
D03*
X-1134292D02*
D03*
M02*
