G04*
G04 #@! TF.GenerationSoftware,Altium Limited,Altium Designer,20.1.11 (218)*
G04*
G04 Layer_Color=16711935*
%FSLAX44Y44*%
%MOMM*%
G71*
G04*
G04 #@! TF.SameCoordinates,4A1F8FCE-740B-4DEC-BBDA-7CBAB7B043B4*
G04*
G04*
G04 #@! TF.FilePolarity,Positive*
G04*
G01*
G75*
%ADD15C,0.1000*%
%ADD94C,0.0500*%
D15*
X-1577652Y711460D02*
X-1564151D01*
X-1577652Y690460D02*
X-1564151D01*
Y711460D01*
X-1577652Y690460D02*
Y711460D01*
X-1629731D02*
X-1616232D01*
X-1629731Y690460D02*
X-1616232D01*
Y711460D01*
X-1629731Y690460D02*
Y711460D01*
D94*
X-1099667Y825500D02*
G03*
X-1099667Y825500I-1250J0D01*
G01*
Y620320D02*
G03*
X-1099667Y620320I-1250J0D01*
G01*
Y404420D02*
G03*
X-1099667Y404420I-1250J0D01*
G01*
Y191060D02*
G03*
X-1099667Y191060I-1250J0D01*
G01*
X-1147642Y817750D02*
X-1097141D01*
Y868250D01*
X-1147642D02*
X-1097141D01*
X-1147642Y817750D02*
Y868250D01*
X-1103642Y817550D02*
Y817750D01*
X-1106142Y817550D02*
X-1103642D01*
X-1106142D02*
Y817750D01*
X-1136142Y868250D02*
Y868450D01*
X-1133642D01*
Y868250D02*
Y868450D01*
X-1108642Y817550D02*
Y817750D01*
X-1111142Y817550D02*
X-1108642D01*
X-1111142D02*
Y817750D01*
X-1131142Y868250D02*
Y868450D01*
X-1128642D01*
Y868250D02*
Y868450D01*
X-1113642Y817550D02*
Y817750D01*
X-1116142Y817550D02*
X-1113642D01*
X-1116142D02*
Y817750D01*
X-1126142Y868250D02*
Y868450D01*
X-1123642D01*
Y868250D02*
Y868450D01*
X-1118642Y817550D02*
Y817750D01*
X-1121142Y817550D02*
X-1118642D01*
X-1121142D02*
Y817750D01*
Y868250D02*
Y868450D01*
X-1118642D01*
Y868250D02*
Y868450D01*
X-1123642Y817550D02*
Y817750D01*
X-1126142Y817550D02*
X-1123642D01*
X-1126142D02*
Y817750D01*
X-1116142Y868250D02*
Y868450D01*
X-1113642D01*
Y868250D02*
Y868450D01*
X-1128642Y817550D02*
Y817750D01*
X-1131142Y817550D02*
X-1128642D01*
X-1131142D02*
Y817750D01*
X-1111142Y868250D02*
Y868450D01*
X-1108642D01*
Y868250D02*
Y868450D01*
X-1133642Y817550D02*
Y817750D01*
X-1136142Y817550D02*
X-1133642D01*
X-1136142D02*
Y817750D01*
X-1106142Y868250D02*
Y868450D01*
X-1103642D01*
Y868250D02*
Y868450D01*
X-1138642Y817550D02*
Y817750D01*
X-1141142Y817550D02*
X-1138642D01*
X-1141142D02*
Y817750D01*
X-1147841Y829250D02*
X-1147642D01*
X-1147841D02*
Y831750D01*
X-1147642D01*
X-1097141Y861750D02*
X-1096942D01*
Y859250D02*
Y861750D01*
X-1097141Y859250D02*
X-1096942D01*
X-1147841Y834250D02*
X-1147642D01*
X-1147841D02*
Y836750D01*
X-1147642D01*
X-1141142Y868250D02*
Y868450D01*
X-1138642Y868250D02*
Y868450D01*
X-1141142D02*
X-1138642D01*
X-1147841Y839250D02*
X-1147642D01*
X-1147841D02*
Y841750D01*
X-1147642D01*
X-1147841Y824250D02*
X-1147642D01*
X-1147841Y826750D02*
X-1147642D01*
X-1147841Y824250D02*
Y826750D01*
Y844250D02*
X-1147642D01*
X-1147841D02*
Y846750D01*
X-1147642D01*
X-1097141Y856750D02*
X-1096942D01*
X-1097141Y854250D02*
X-1096942D01*
Y856750D01*
X-1147841Y849250D02*
X-1147642D01*
X-1147841D02*
Y851750D01*
X-1147642D01*
X-1097141D02*
X-1096942D01*
X-1097141Y849250D02*
X-1096942D01*
Y851750D01*
X-1147841Y854250D02*
X-1147642D01*
X-1147841D02*
Y856750D01*
X-1147642D01*
X-1097141Y846750D02*
X-1096942D01*
X-1097141Y844250D02*
X-1096942D01*
Y846750D01*
X-1147841Y859250D02*
X-1147642D01*
X-1147841D02*
Y861750D01*
X-1147642D01*
X-1097141Y841750D02*
X-1096942D01*
X-1097141Y839250D02*
X-1096942D01*
Y841750D01*
X-1097141Y836750D02*
X-1096942D01*
X-1097141Y834250D02*
X-1096942D01*
Y836750D01*
X-1097141Y831750D02*
X-1096942D01*
X-1097141Y829250D02*
X-1096942D01*
Y831750D01*
X-1097141Y826750D02*
X-1096942D01*
Y824250D02*
Y826750D01*
X-1097141Y824250D02*
X-1096942D01*
X-1097141Y619070D02*
X-1096942D01*
Y621570D01*
X-1097141D02*
X-1096942D01*
Y624070D02*
Y626570D01*
X-1097141Y624070D02*
X-1096942D01*
X-1097141Y626570D02*
X-1096942D01*
Y629070D02*
Y631570D01*
X-1097141Y629070D02*
X-1096942D01*
X-1097141Y631570D02*
X-1096942D01*
Y634070D02*
Y636570D01*
X-1097141Y634070D02*
X-1096942D01*
X-1097141Y636570D02*
X-1096942D01*
X-1147841Y656570D02*
X-1147642D01*
X-1147841Y654070D02*
Y656570D01*
Y654070D02*
X-1147642D01*
X-1096942Y639070D02*
Y641570D01*
X-1097141Y639070D02*
X-1096942D01*
X-1097141Y641570D02*
X-1096942D01*
X-1147841Y651570D02*
X-1147642D01*
X-1147841Y649070D02*
Y651570D01*
Y649070D02*
X-1147642D01*
X-1096942Y644070D02*
Y646570D01*
X-1097141Y644070D02*
X-1096942D01*
X-1097141Y646570D02*
X-1096942D01*
X-1147841D02*
X-1147642D01*
X-1147841Y644070D02*
Y646570D01*
Y644070D02*
X-1147642D01*
X-1096942Y649070D02*
Y651570D01*
X-1097141Y649070D02*
X-1096942D01*
X-1097141Y651570D02*
X-1096942D01*
X-1147841Y641570D02*
X-1147642D01*
X-1147841Y639070D02*
Y641570D01*
Y639070D02*
X-1147642D01*
X-1147841Y619070D02*
Y621570D01*
X-1147642D01*
X-1147841Y619070D02*
X-1147642D01*
X-1147841Y636570D02*
X-1147642D01*
X-1147841Y634070D02*
Y636570D01*
Y634070D02*
X-1147642D01*
X-1141142Y663270D02*
X-1138642D01*
Y663070D02*
Y663270D01*
X-1141142Y663070D02*
Y663270D01*
X-1147841Y631570D02*
X-1147642D01*
X-1147841Y629070D02*
Y631570D01*
Y629070D02*
X-1147642D01*
X-1097141Y654070D02*
X-1096942D01*
Y656570D01*
X-1097141D02*
X-1096942D01*
X-1147841Y626570D02*
X-1147642D01*
X-1147841Y624070D02*
Y626570D01*
Y624070D02*
X-1147642D01*
X-1141142Y612370D02*
Y612570D01*
Y612370D02*
X-1138642D01*
Y612570D01*
X-1103642Y663070D02*
Y663270D01*
X-1106142D02*
X-1103642D01*
X-1106142Y663070D02*
Y663270D01*
X-1136142Y612370D02*
Y612570D01*
Y612370D02*
X-1133642D01*
Y612570D01*
X-1108642Y663070D02*
Y663270D01*
X-1111142D02*
X-1108642D01*
X-1111142Y663070D02*
Y663270D01*
X-1131142Y612370D02*
Y612570D01*
Y612370D02*
X-1128642D01*
Y612570D01*
X-1113642Y663070D02*
Y663270D01*
X-1116142D02*
X-1113642D01*
X-1116142Y663070D02*
Y663270D01*
X-1126142Y612370D02*
Y612570D01*
Y612370D02*
X-1123642D01*
Y612570D01*
X-1118642Y663070D02*
Y663270D01*
X-1121142D02*
X-1118642D01*
X-1121142Y663070D02*
Y663270D01*
Y612370D02*
Y612570D01*
Y612370D02*
X-1118642D01*
Y612570D01*
X-1123642Y663070D02*
Y663270D01*
X-1126142D02*
X-1123642D01*
X-1126142Y663070D02*
Y663270D01*
X-1116142Y612370D02*
Y612570D01*
Y612370D02*
X-1113642D01*
Y612570D01*
X-1128642Y663070D02*
Y663270D01*
X-1131142D02*
X-1128642D01*
X-1131142Y663070D02*
Y663270D01*
X-1111142Y612370D02*
Y612570D01*
Y612370D02*
X-1108642D01*
Y612570D01*
X-1133642Y663070D02*
Y663270D01*
X-1136142D02*
X-1133642D01*
X-1136142Y663070D02*
Y663270D01*
X-1106142Y612370D02*
Y612570D01*
Y612370D02*
X-1103642D01*
Y612570D01*
X-1147642D02*
Y663070D01*
X-1097141D01*
Y612570D02*
Y663070D01*
X-1147642Y612570D02*
X-1097141D01*
X-1147642Y396670D02*
X-1097141D01*
Y447170D01*
X-1147642D02*
X-1097141D01*
X-1147642Y396670D02*
Y447170D01*
X-1103642Y396470D02*
Y396670D01*
X-1106142Y396470D02*
X-1103642D01*
X-1106142D02*
Y396670D01*
X-1136142Y447170D02*
Y447370D01*
X-1133642D01*
Y447170D02*
Y447370D01*
X-1108642Y396470D02*
Y396670D01*
X-1111142Y396470D02*
X-1108642D01*
X-1111142D02*
Y396670D01*
X-1131142Y447170D02*
Y447370D01*
X-1128642D01*
Y447170D02*
Y447370D01*
X-1113642Y396470D02*
Y396670D01*
X-1116142Y396470D02*
X-1113642D01*
X-1116142D02*
Y396670D01*
X-1126142Y447170D02*
Y447370D01*
X-1123642D01*
Y447170D02*
Y447370D01*
X-1118642Y396470D02*
Y396670D01*
X-1121142Y396470D02*
X-1118642D01*
X-1121142D02*
Y396670D01*
Y447170D02*
Y447370D01*
X-1118642D01*
Y447170D02*
Y447370D01*
X-1123642Y396470D02*
Y396670D01*
X-1126142Y396470D02*
X-1123642D01*
X-1126142D02*
Y396670D01*
X-1116142Y447170D02*
Y447370D01*
X-1113642D01*
Y447170D02*
Y447370D01*
X-1128642Y396470D02*
Y396670D01*
X-1131142Y396470D02*
X-1128642D01*
X-1131142D02*
Y396670D01*
X-1111142Y447170D02*
Y447370D01*
X-1108642D01*
Y447170D02*
Y447370D01*
X-1133642Y396470D02*
Y396670D01*
X-1136142Y396470D02*
X-1133642D01*
X-1136142D02*
Y396670D01*
X-1106142Y447170D02*
Y447370D01*
X-1103642D01*
Y447170D02*
Y447370D01*
X-1138642Y396470D02*
Y396670D01*
X-1141142Y396470D02*
X-1138642D01*
X-1141142D02*
Y396670D01*
X-1147841Y408170D02*
X-1147642D01*
X-1147841D02*
Y410670D01*
X-1147642D01*
X-1097141Y440670D02*
X-1096942D01*
Y438170D02*
Y440670D01*
X-1097141Y438170D02*
X-1096942D01*
X-1147841Y413170D02*
X-1147642D01*
X-1147841D02*
Y415670D01*
X-1147642D01*
X-1141142Y447170D02*
Y447370D01*
X-1138642Y447170D02*
Y447370D01*
X-1141142D02*
X-1138642D01*
X-1147841Y418170D02*
X-1147642D01*
X-1147841D02*
Y420670D01*
X-1147642D01*
X-1147841Y403170D02*
X-1147642D01*
X-1147841Y405670D02*
X-1147642D01*
X-1147841Y403170D02*
Y405670D01*
Y423170D02*
X-1147642D01*
X-1147841D02*
Y425670D01*
X-1147642D01*
X-1097141Y435670D02*
X-1096942D01*
X-1097141Y433170D02*
X-1096942D01*
Y435670D01*
X-1147841Y428170D02*
X-1147642D01*
X-1147841D02*
Y430670D01*
X-1147642D01*
X-1097141D02*
X-1096942D01*
X-1097141Y428170D02*
X-1096942D01*
Y430670D01*
X-1147841Y433170D02*
X-1147642D01*
X-1147841D02*
Y435670D01*
X-1147642D01*
X-1097141Y425670D02*
X-1096942D01*
X-1097141Y423170D02*
X-1096942D01*
Y425670D01*
X-1147841Y438170D02*
X-1147642D01*
X-1147841D02*
Y440670D01*
X-1147642D01*
X-1097141Y420670D02*
X-1096942D01*
X-1097141Y418170D02*
X-1096942D01*
Y420670D01*
X-1097141Y415670D02*
X-1096942D01*
X-1097141Y413170D02*
X-1096942D01*
Y415670D01*
X-1097141Y410670D02*
X-1096942D01*
X-1097141Y408170D02*
X-1096942D01*
Y410670D01*
X-1097141Y405670D02*
X-1096942D01*
Y403170D02*
Y405670D01*
X-1097141Y403170D02*
X-1096942D01*
X-1097141Y189810D02*
X-1096942D01*
Y192310D01*
X-1097141D02*
X-1096942D01*
Y194810D02*
Y197310D01*
X-1097141Y194810D02*
X-1096942D01*
X-1097141Y197310D02*
X-1096942D01*
Y199810D02*
Y202310D01*
X-1097141Y199810D02*
X-1096942D01*
X-1097141Y202310D02*
X-1096942D01*
Y204810D02*
Y207310D01*
X-1097141Y204810D02*
X-1096942D01*
X-1097141Y207310D02*
X-1096942D01*
X-1147841Y227310D02*
X-1147642D01*
X-1147841Y224810D02*
Y227310D01*
Y224810D02*
X-1147642D01*
X-1096942Y209810D02*
Y212310D01*
X-1097141Y209810D02*
X-1096942D01*
X-1097141Y212310D02*
X-1096942D01*
X-1147841Y222310D02*
X-1147642D01*
X-1147841Y219810D02*
Y222310D01*
Y219810D02*
X-1147642D01*
X-1096942Y214810D02*
Y217310D01*
X-1097141Y214810D02*
X-1096942D01*
X-1097141Y217310D02*
X-1096942D01*
X-1147841D02*
X-1147642D01*
X-1147841Y214810D02*
Y217310D01*
Y214810D02*
X-1147642D01*
X-1096942Y219810D02*
Y222310D01*
X-1097141Y219810D02*
X-1096942D01*
X-1097141Y222310D02*
X-1096942D01*
X-1147841Y212310D02*
X-1147642D01*
X-1147841Y209810D02*
Y212310D01*
Y209810D02*
X-1147642D01*
X-1147841Y189810D02*
Y192310D01*
X-1147642D01*
X-1147841Y189810D02*
X-1147642D01*
X-1147841Y207310D02*
X-1147642D01*
X-1147841Y204810D02*
Y207310D01*
Y204810D02*
X-1147642D01*
X-1141142Y234010D02*
X-1138642D01*
Y233810D02*
Y234010D01*
X-1141142Y233810D02*
Y234010D01*
X-1147841Y202310D02*
X-1147642D01*
X-1147841Y199810D02*
Y202310D01*
Y199810D02*
X-1147642D01*
X-1097141Y224810D02*
X-1096942D01*
Y227310D01*
X-1097141D02*
X-1096942D01*
X-1147841Y197310D02*
X-1147642D01*
X-1147841Y194810D02*
Y197310D01*
Y194810D02*
X-1147642D01*
X-1141142Y183110D02*
Y183310D01*
Y183110D02*
X-1138642D01*
Y183310D01*
X-1103642Y233810D02*
Y234010D01*
X-1106142D02*
X-1103642D01*
X-1106142Y233810D02*
Y234010D01*
X-1136142Y183110D02*
Y183310D01*
Y183110D02*
X-1133642D01*
Y183310D01*
X-1108642Y233810D02*
Y234010D01*
X-1111142D02*
X-1108642D01*
X-1111142Y233810D02*
Y234010D01*
X-1131142Y183110D02*
Y183310D01*
Y183110D02*
X-1128642D01*
Y183310D01*
X-1113642Y233810D02*
Y234010D01*
X-1116142D02*
X-1113642D01*
X-1116142Y233810D02*
Y234010D01*
X-1126142Y183110D02*
Y183310D01*
Y183110D02*
X-1123642D01*
Y183310D01*
X-1118642Y233810D02*
Y234010D01*
X-1121142D02*
X-1118642D01*
X-1121142Y233810D02*
Y234010D01*
Y183110D02*
Y183310D01*
Y183110D02*
X-1118642D01*
Y183310D01*
X-1123642Y233810D02*
Y234010D01*
X-1126142D02*
X-1123642D01*
X-1126142Y233810D02*
Y234010D01*
X-1116142Y183110D02*
Y183310D01*
Y183110D02*
X-1113642D01*
Y183310D01*
X-1128642Y233810D02*
Y234010D01*
X-1131142D02*
X-1128642D01*
X-1131142Y233810D02*
Y234010D01*
X-1111142Y183110D02*
Y183310D01*
Y183110D02*
X-1108642D01*
Y183310D01*
X-1133642Y233810D02*
Y234010D01*
X-1136142D02*
X-1133642D01*
X-1136142Y233810D02*
Y234010D01*
X-1106142Y183110D02*
Y183310D01*
Y183110D02*
X-1103642D01*
Y183310D01*
X-1147642D02*
Y233810D01*
X-1097141D01*
Y183310D02*
Y233810D01*
X-1147642Y183310D02*
X-1097141D01*
M02*
