G04*
G04 #@! TF.GenerationSoftware,Altium Limited,Altium Designer,20.1.11 (218)*
G04*
G04 Layer_Color=255*
%FSLAX44Y44*%
%MOMM*%
G71*
G04*
G04 #@! TF.SameCoordinates,4A1F8FCE-740B-4DEC-BBDA-7CBAB7B043B4*
G04*
G04*
G04 #@! TF.FilePolarity,Positive*
G04*
G01*
G75*
%ADD28R,1.4000X0.4500*%
%ADD29R,0.7000X1.2000*%
%ADD30R,0.8000X1.2000*%
%ADD31R,0.7000X0.5000*%
%ADD32R,0.7000X0.6400*%
%ADD33R,1.2000X0.8000*%
%ADD34O,1.6000X0.3000*%
%ADD35R,2.1000X1.2000*%
%ADD36O,0.2500X0.7500*%
%ADD37O,0.7500X0.2500*%
%ADD38R,0.6000X1.5500*%
%ADD39R,3.1000X2.6000*%
%ADD40R,0.4500X1.5000*%
%ADD41R,1.2000X1.1000*%
%ADD42R,4.0000X1.5000*%
%ADD43R,0.6000X1.1000*%
%ADD44R,1.2000X2.1000*%
%ADD45R,1.2000X0.7000*%
%ADD46R,3.0000X1.0000*%
%ADD47R,2.5400X2.5400*%
%ADD76R,3.4000X3.2000*%
%ADD79C,0.9000*%
%ADD80C,2.5400*%
%ADD81C,1.1000*%
%ADD82C,2.4000*%
%ADD83C,3.2000*%
%ADD84C,1.5000*%
%ADD85C,1.5240*%
%ADD86C,1.3000*%
D28*
X-1588441Y200440D02*
D03*
Y193940D02*
D03*
Y187440D02*
D03*
Y180940D02*
D03*
Y174440D02*
D03*
Y167940D02*
D03*
Y161440D02*
D03*
Y154940D02*
D03*
X-1529442Y200440D02*
D03*
Y193940D02*
D03*
Y187440D02*
D03*
Y180940D02*
D03*
Y174440D02*
D03*
Y167940D02*
D03*
Y161440D02*
D03*
Y154940D02*
D03*
X-1507162Y409990D02*
D03*
Y403490D02*
D03*
Y396990D02*
D03*
Y390490D02*
D03*
Y383990D02*
D03*
Y377490D02*
D03*
Y370990D02*
D03*
Y364490D02*
D03*
X-1448161Y409990D02*
D03*
Y403490D02*
D03*
Y396990D02*
D03*
Y390490D02*
D03*
Y383990D02*
D03*
Y377490D02*
D03*
Y370990D02*
D03*
Y364490D02*
D03*
D29*
X-936562Y922540D02*
D03*
X-952561D02*
D03*
X-936562Y906030D02*
D03*
X-952561D02*
D03*
X-756002Y903490D02*
D03*
X-772001D02*
D03*
X-756002Y920000D02*
D03*
X-772001D02*
D03*
X-366002Y796810D02*
D03*
X-382001D02*
D03*
X-366002Y813320D02*
D03*
X-382001D02*
D03*
X-366002Y832370D02*
D03*
X-382001D02*
D03*
X-366002Y848880D02*
D03*
X-382001D02*
D03*
X-366002Y867930D02*
D03*
X-382001D02*
D03*
X-366002Y884440D02*
D03*
X-382001D02*
D03*
X-366002Y920000D02*
D03*
X-382001D02*
D03*
X-366002Y903490D02*
D03*
X-382001D02*
D03*
X-546562Y906030D02*
D03*
X-562561D02*
D03*
X-546562Y922540D02*
D03*
X-562561D02*
D03*
X-546669Y791730D02*
D03*
X-562668D02*
D03*
X-546562Y808240D02*
D03*
X-562561D02*
D03*
X-546562Y829830D02*
D03*
X-562561D02*
D03*
X-546562Y846340D02*
D03*
X-562561D02*
D03*
X-546562Y867930D02*
D03*
X-562561D02*
D03*
X-546562Y884440D02*
D03*
X-562561D02*
D03*
X-366002Y690000D02*
D03*
X-382001D02*
D03*
X-546562Y692540D02*
D03*
X-562561D02*
D03*
X-366002Y673490D02*
D03*
X-382001D02*
D03*
X-546562Y676030D02*
D03*
X-562561D02*
D03*
X-366002Y654440D02*
D03*
X-382001D02*
D03*
X-546562D02*
D03*
X-562561D02*
D03*
X-366002Y637930D02*
D03*
X-382001D02*
D03*
X-546562D02*
D03*
X-562561D02*
D03*
X-366002Y618880D02*
D03*
X-382001D02*
D03*
X-546562Y616340D02*
D03*
X-562561D02*
D03*
X-366002Y602370D02*
D03*
X-382001D02*
D03*
X-546562Y599830D02*
D03*
X-562561D02*
D03*
X-366002Y583320D02*
D03*
X-382001D02*
D03*
X-546562Y578240D02*
D03*
X-562561D02*
D03*
X-366002Y566810D02*
D03*
X-382001D02*
D03*
X-546669Y561730D02*
D03*
X-562668D02*
D03*
X-1299061Y189230D02*
D03*
X-1283061D02*
D03*
X-936669Y791730D02*
D03*
X-952669D02*
D03*
X-936669Y561730D02*
D03*
X-952669D02*
D03*
X-935543Y309745D02*
D03*
X-951543D02*
D03*
X-937949Y80010D02*
D03*
X-953949D02*
D03*
X-546788Y308610D02*
D03*
X-562789D02*
D03*
X-546788Y80010D02*
D03*
X-562789D02*
D03*
X-756002Y796810D02*
D03*
X-772001D02*
D03*
X-756002Y566810D02*
D03*
X-772001D02*
D03*
X-754876Y314825D02*
D03*
X-770876D02*
D03*
X-757281Y85090D02*
D03*
X-773281D02*
D03*
X-366121Y313690D02*
D03*
X-382122D02*
D03*
X-366121Y85090D02*
D03*
X-382122D02*
D03*
X-936562Y808240D02*
D03*
X-952561D02*
D03*
X-936562Y578240D02*
D03*
X-952561D02*
D03*
X-935436Y326255D02*
D03*
X-951436D02*
D03*
X-937841Y96520D02*
D03*
X-953841D02*
D03*
X-546682Y325120D02*
D03*
X-562682D02*
D03*
X-546682Y96520D02*
D03*
X-562682D02*
D03*
X-756002Y813320D02*
D03*
X-772001D02*
D03*
X-756002Y583320D02*
D03*
X-772001D02*
D03*
X-754876Y331335D02*
D03*
X-770876D02*
D03*
X-757281Y101600D02*
D03*
X-773281D02*
D03*
X-366121Y330200D02*
D03*
X-382122D02*
D03*
X-366121Y101600D02*
D03*
X-382122D02*
D03*
X-936562Y829830D02*
D03*
X-952561D02*
D03*
X-936562Y599830D02*
D03*
X-952561D02*
D03*
X-935436Y347845D02*
D03*
X-951436D02*
D03*
X-937841Y118110D02*
D03*
X-953841D02*
D03*
X-546682Y346710D02*
D03*
X-562682D02*
D03*
X-546682Y118110D02*
D03*
X-562682D02*
D03*
X-756002Y832370D02*
D03*
X-772001D02*
D03*
X-756002Y602370D02*
D03*
X-772001D02*
D03*
X-754876Y350385D02*
D03*
X-770876D02*
D03*
X-757281Y120650D02*
D03*
X-773281D02*
D03*
X-366121Y349250D02*
D03*
X-382122D02*
D03*
X-366121Y120650D02*
D03*
X-382122D02*
D03*
X-936562Y846340D02*
D03*
X-952561D02*
D03*
X-936562Y616340D02*
D03*
X-952561D02*
D03*
X-935436Y364355D02*
D03*
X-951436D02*
D03*
X-937841Y134620D02*
D03*
X-953841D02*
D03*
X-546682Y363220D02*
D03*
X-562682D02*
D03*
X-546682Y134620D02*
D03*
X-562682D02*
D03*
X-756002Y848880D02*
D03*
X-772001D02*
D03*
X-756002Y618880D02*
D03*
X-772001D02*
D03*
X-754876Y366895D02*
D03*
X-770876D02*
D03*
X-757281Y137160D02*
D03*
X-773281D02*
D03*
X-366121Y365760D02*
D03*
X-382122D02*
D03*
X-366121Y137160D02*
D03*
X-382122D02*
D03*
X-936562Y867930D02*
D03*
X-952561D02*
D03*
X-936562Y637930D02*
D03*
X-952561D02*
D03*
X-935436Y385945D02*
D03*
X-951436D02*
D03*
X-937841Y156210D02*
D03*
X-953841D02*
D03*
X-546682Y384810D02*
D03*
X-562682D02*
D03*
X-546682Y156210D02*
D03*
X-562682D02*
D03*
X-756002Y867930D02*
D03*
X-772001D02*
D03*
X-756002Y637930D02*
D03*
X-772001D02*
D03*
X-754876Y385945D02*
D03*
X-770876D02*
D03*
X-757281Y156210D02*
D03*
X-773281D02*
D03*
X-366121Y384810D02*
D03*
X-382122D02*
D03*
X-366121Y156210D02*
D03*
X-382122D02*
D03*
X-936562Y884440D02*
D03*
X-952561D02*
D03*
X-936562Y654440D02*
D03*
X-952561D02*
D03*
X-935436Y402455D02*
D03*
X-951436D02*
D03*
X-937841Y172720D02*
D03*
X-953841D02*
D03*
X-546682Y401320D02*
D03*
X-562682D02*
D03*
X-546682Y172720D02*
D03*
X-562682D02*
D03*
X-756002Y884440D02*
D03*
X-772001D02*
D03*
X-756002Y654440D02*
D03*
X-772001D02*
D03*
X-754876Y402455D02*
D03*
X-770876D02*
D03*
X-757281Y172720D02*
D03*
X-773281D02*
D03*
X-366121Y401320D02*
D03*
X-382122D02*
D03*
X-366121Y172720D02*
D03*
X-382122D02*
D03*
X-936562Y676030D02*
D03*
X-952561D02*
D03*
X-935436Y424045D02*
D03*
X-951436D02*
D03*
X-937841Y194310D02*
D03*
X-953841D02*
D03*
X-546682Y422910D02*
D03*
X-562682D02*
D03*
X-546682Y194310D02*
D03*
X-562682D02*
D03*
X-756002Y673490D02*
D03*
X-772001D02*
D03*
X-754876Y421505D02*
D03*
X-770876D02*
D03*
X-757281Y191770D02*
D03*
X-773281D02*
D03*
X-366121Y420370D02*
D03*
X-382122D02*
D03*
X-366121Y191770D02*
D03*
X-382122D02*
D03*
X-936562Y692540D02*
D03*
X-952561D02*
D03*
X-935436Y440555D02*
D03*
X-951436D02*
D03*
X-937841Y210820D02*
D03*
X-953841D02*
D03*
X-546682Y439420D02*
D03*
X-562682D02*
D03*
X-546682Y210820D02*
D03*
X-562682D02*
D03*
X-756002Y690000D02*
D03*
X-772001D02*
D03*
X-754876Y438015D02*
D03*
X-770876D02*
D03*
X-757281Y208280D02*
D03*
X-773281D02*
D03*
X-366121Y436880D02*
D03*
X-382122D02*
D03*
X-366121Y208280D02*
D03*
X-382122D02*
D03*
X-1496422Y740120D02*
D03*
X-1512422D02*
D03*
D30*
X-916697Y906460D02*
D03*
X-902698D02*
D03*
X-916697Y881285D02*
D03*
X-902698D02*
D03*
X-916697Y856380D02*
D03*
X-902698D02*
D03*
X-916697Y831460D02*
D03*
X-902698D02*
D03*
X-808101Y906460D02*
D03*
X-794101D02*
D03*
X-808101Y881285D02*
D03*
X-794101D02*
D03*
X-808101Y856380D02*
D03*
X-794101D02*
D03*
X-808101Y831460D02*
D03*
X-794101D02*
D03*
X-418101D02*
D03*
X-404101D02*
D03*
X-418101Y856380D02*
D03*
X-404101D02*
D03*
X-418101Y881285D02*
D03*
X-404101D02*
D03*
X-418101Y906460D02*
D03*
X-404101D02*
D03*
X-526698D02*
D03*
X-512698D02*
D03*
X-526698Y881285D02*
D03*
X-512698D02*
D03*
X-526698Y856380D02*
D03*
X-512698D02*
D03*
X-526698Y831460D02*
D03*
X-512698D02*
D03*
X-418101Y601460D02*
D03*
X-404101D02*
D03*
X-418101Y626381D02*
D03*
X-404101D02*
D03*
X-418101Y651285D02*
D03*
X-404101D02*
D03*
X-418101Y676460D02*
D03*
X-404101D02*
D03*
X-526698Y601460D02*
D03*
X-512698D02*
D03*
X-526698Y626381D02*
D03*
X-512698D02*
D03*
X-526698Y651285D02*
D03*
X-512698D02*
D03*
X-526698Y676460D02*
D03*
X-512698D02*
D03*
X-916697D02*
D03*
X-902698D02*
D03*
X-915572Y424475D02*
D03*
X-901572D02*
D03*
X-917978Y194740D02*
D03*
X-903978D02*
D03*
X-526818Y423340D02*
D03*
X-512817D02*
D03*
X-526818Y194740D02*
D03*
X-512817D02*
D03*
X-916697Y651285D02*
D03*
X-902698D02*
D03*
X-915572Y399300D02*
D03*
X-901572D02*
D03*
X-917978Y169565D02*
D03*
X-903978D02*
D03*
X-526818Y398165D02*
D03*
X-512817D02*
D03*
X-526818Y169565D02*
D03*
X-512817D02*
D03*
X-916697Y626381D02*
D03*
X-902698D02*
D03*
X-915572Y374395D02*
D03*
X-901572D02*
D03*
X-917978Y144661D02*
D03*
X-903978D02*
D03*
X-526818Y373260D02*
D03*
X-512817D02*
D03*
X-526818Y144661D02*
D03*
X-512817D02*
D03*
X-916697Y601460D02*
D03*
X-902698D02*
D03*
X-915572Y349475D02*
D03*
X-901572D02*
D03*
X-917978Y119740D02*
D03*
X-903978D02*
D03*
X-526818Y348340D02*
D03*
X-512817D02*
D03*
X-526818Y119740D02*
D03*
X-512817D02*
D03*
X-808101Y676460D02*
D03*
X-794101D02*
D03*
X-806976Y424475D02*
D03*
X-792976D02*
D03*
X-809381Y194740D02*
D03*
X-795381D02*
D03*
X-418221Y423340D02*
D03*
X-404221D02*
D03*
X-418221Y194740D02*
D03*
X-404221D02*
D03*
X-808101Y651285D02*
D03*
X-794101D02*
D03*
X-806976Y399300D02*
D03*
X-792976D02*
D03*
X-809381Y169565D02*
D03*
X-795381D02*
D03*
X-418221Y398165D02*
D03*
X-404221D02*
D03*
X-418221Y169565D02*
D03*
X-404221D02*
D03*
X-808101Y626381D02*
D03*
X-794101D02*
D03*
X-806976Y374395D02*
D03*
X-792976D02*
D03*
X-809381Y144661D02*
D03*
X-795381D02*
D03*
X-418221Y373260D02*
D03*
X-404221D02*
D03*
X-418221Y144661D02*
D03*
X-404221D02*
D03*
X-808101Y601460D02*
D03*
X-794101D02*
D03*
X-806976Y349475D02*
D03*
X-792976D02*
D03*
X-809381Y119740D02*
D03*
X-795381D02*
D03*
X-418221Y348340D02*
D03*
X-404221D02*
D03*
X-418221Y119740D02*
D03*
X-404221D02*
D03*
X-1170771Y933790D02*
D03*
X-1156771D02*
D03*
X-1170771Y728610D02*
D03*
X-1156771D02*
D03*
X-1170771Y512710D02*
D03*
X-1156771D02*
D03*
X-1170771Y299350D02*
D03*
X-1156771D02*
D03*
X-1170771Y872830D02*
D03*
X-1156771D02*
D03*
X-1170771Y667650D02*
D03*
X-1156771D02*
D03*
X-1170771Y451750D02*
D03*
X-1156771D02*
D03*
X-1170771Y238390D02*
D03*
X-1156771D02*
D03*
X-1150831Y784680D02*
D03*
X-1136831D02*
D03*
X-1150831Y579500D02*
D03*
X-1136831D02*
D03*
X-1150831Y363600D02*
D03*
X-1136831D02*
D03*
X-1150831Y150240D02*
D03*
X-1136831D02*
D03*
X-1150452Y801710D02*
D03*
X-1136451D02*
D03*
X-1150452Y596530D02*
D03*
X-1136451D02*
D03*
X-1150452Y380630D02*
D03*
X-1136451D02*
D03*
X-1150452Y167270D02*
D03*
X-1136451D02*
D03*
X-1435722Y425340D02*
D03*
X-1449722D02*
D03*
X-1537381Y213250D02*
D03*
X-1523382D02*
D03*
X-1483741Y740120D02*
D03*
X-1469742D02*
D03*
X-1454741Y817120D02*
D03*
X-1440741D02*
D03*
X-1471741Y835120D02*
D03*
X-1485741D02*
D03*
X-1512741Y835120D02*
D03*
X-1498741D02*
D03*
X-1511691Y722630D02*
D03*
X-1497691D02*
D03*
D31*
X-862823Y932460D02*
D03*
Y924460D02*
D03*
X-848823Y932460D02*
D03*
Y924460D02*
D03*
X-472823Y790460D02*
D03*
Y782460D02*
D03*
X-458824Y790460D02*
D03*
Y782460D02*
D03*
X-472823Y932460D02*
D03*
Y924460D02*
D03*
X-458824Y932460D02*
D03*
Y924460D02*
D03*
X-472823Y702460D02*
D03*
Y694460D02*
D03*
X-458824Y702460D02*
D03*
Y694460D02*
D03*
X-472823Y560460D02*
D03*
Y552460D02*
D03*
X-458824Y560460D02*
D03*
Y552460D02*
D03*
X-862823Y790460D02*
D03*
Y782460D02*
D03*
X-848823Y790460D02*
D03*
Y782460D02*
D03*
X-862823Y560460D02*
D03*
Y552460D02*
D03*
X-848823Y560460D02*
D03*
Y552460D02*
D03*
X-861698Y308475D02*
D03*
Y300475D02*
D03*
X-847698Y308475D02*
D03*
Y300475D02*
D03*
X-864103Y78740D02*
D03*
Y70740D02*
D03*
X-850104Y78740D02*
D03*
Y70740D02*
D03*
X-472943Y307340D02*
D03*
Y299340D02*
D03*
X-458943Y307340D02*
D03*
Y299340D02*
D03*
X-472943Y78740D02*
D03*
Y70740D02*
D03*
X-458943Y78740D02*
D03*
Y70740D02*
D03*
X-862823Y702460D02*
D03*
Y694460D02*
D03*
X-848823Y702460D02*
D03*
Y694460D02*
D03*
X-861698Y450475D02*
D03*
Y442475D02*
D03*
X-847698Y450475D02*
D03*
Y442475D02*
D03*
X-864103Y220740D02*
D03*
Y212740D02*
D03*
X-850104Y220740D02*
D03*
Y212740D02*
D03*
X-472943Y449340D02*
D03*
Y441340D02*
D03*
X-458943Y449340D02*
D03*
Y441340D02*
D03*
X-472943Y220740D02*
D03*
Y212740D02*
D03*
X-458943Y220740D02*
D03*
Y212740D02*
D03*
D32*
X-862823Y941710D02*
D03*
Y915210D02*
D03*
X-848823Y941710D02*
D03*
Y915210D02*
D03*
X-472823Y799710D02*
D03*
Y773210D02*
D03*
X-458824Y799710D02*
D03*
Y773210D02*
D03*
X-472823Y941710D02*
D03*
Y915210D02*
D03*
X-458824Y941710D02*
D03*
Y915210D02*
D03*
X-472823Y711710D02*
D03*
Y685210D02*
D03*
X-458824Y711710D02*
D03*
Y685210D02*
D03*
X-472823Y569710D02*
D03*
Y543210D02*
D03*
X-458824Y569710D02*
D03*
Y543210D02*
D03*
X-862823Y799710D02*
D03*
Y773210D02*
D03*
X-848823Y799710D02*
D03*
Y773210D02*
D03*
X-862823Y569710D02*
D03*
Y543210D02*
D03*
X-848823Y569710D02*
D03*
Y543210D02*
D03*
X-861698Y317725D02*
D03*
Y291225D02*
D03*
X-847698Y317725D02*
D03*
Y291225D02*
D03*
X-864103Y87990D02*
D03*
Y61490D02*
D03*
X-850104Y87990D02*
D03*
Y61490D02*
D03*
X-472943Y316590D02*
D03*
Y290090D02*
D03*
X-458943Y316590D02*
D03*
Y290090D02*
D03*
X-472943Y87990D02*
D03*
Y61490D02*
D03*
X-458943Y87990D02*
D03*
Y61490D02*
D03*
X-862823Y711710D02*
D03*
Y685210D02*
D03*
X-848823Y711710D02*
D03*
Y685210D02*
D03*
X-861698Y459725D02*
D03*
Y433225D02*
D03*
X-847698Y459725D02*
D03*
Y433225D02*
D03*
X-864103Y229990D02*
D03*
Y203490D02*
D03*
X-850104Y229990D02*
D03*
Y203490D02*
D03*
X-472943Y458590D02*
D03*
Y432090D02*
D03*
X-458943Y458590D02*
D03*
Y432090D02*
D03*
X-472943Y229990D02*
D03*
Y203490D02*
D03*
X-458943Y229990D02*
D03*
Y203490D02*
D03*
D33*
X-576532Y939720D02*
D03*
Y925720D02*
D03*
X-594312Y925830D02*
D03*
Y911830D02*
D03*
Y898980D02*
D03*
Y884980D02*
D03*
X-576532Y913110D02*
D03*
Y899110D02*
D03*
X-576531Y885080D02*
D03*
Y871080D02*
D03*
X-594312Y872470D02*
D03*
Y858470D02*
D03*
Y843200D02*
D03*
Y829200D02*
D03*
X-576532Y855800D02*
D03*
Y841800D02*
D03*
X-594311Y815160D02*
D03*
Y801160D02*
D03*
X-576532Y829290D02*
D03*
Y815290D02*
D03*
X-594311Y788650D02*
D03*
Y774650D02*
D03*
X-576532Y802560D02*
D03*
Y788560D02*
D03*
Y709720D02*
D03*
Y695720D02*
D03*
X-594312Y695830D02*
D03*
Y681830D02*
D03*
X-576532Y683110D02*
D03*
Y669110D02*
D03*
X-594312Y668980D02*
D03*
Y654980D02*
D03*
X-576531Y655080D02*
D03*
Y641080D02*
D03*
X-594312Y642470D02*
D03*
Y628470D02*
D03*
X-576532Y625800D02*
D03*
Y611800D02*
D03*
X-594312Y613200D02*
D03*
Y599200D02*
D03*
X-576532Y599290D02*
D03*
Y585290D02*
D03*
X-594311Y585160D02*
D03*
Y571160D02*
D03*
X-576532Y572560D02*
D03*
Y558560D02*
D03*
X-594311Y558650D02*
D03*
Y544650D02*
D03*
X-984312Y788650D02*
D03*
Y774650D02*
D03*
Y558650D02*
D03*
Y544650D02*
D03*
X-983186Y306665D02*
D03*
Y292665D02*
D03*
X-985592Y76930D02*
D03*
Y62930D02*
D03*
X-594431Y305530D02*
D03*
Y291530D02*
D03*
Y76930D02*
D03*
Y62930D02*
D03*
X-966532Y802560D02*
D03*
Y788560D02*
D03*
Y572560D02*
D03*
Y558560D02*
D03*
X-965406Y320575D02*
D03*
Y306575D02*
D03*
X-967812Y90840D02*
D03*
Y76840D02*
D03*
X-576652Y319440D02*
D03*
Y305440D02*
D03*
Y90840D02*
D03*
Y76840D02*
D03*
X-984312Y815160D02*
D03*
Y801160D02*
D03*
Y585160D02*
D03*
Y571160D02*
D03*
X-983186Y333175D02*
D03*
Y319175D02*
D03*
X-985592Y103440D02*
D03*
Y89440D02*
D03*
X-594431Y332040D02*
D03*
Y318040D02*
D03*
Y103440D02*
D03*
Y89440D02*
D03*
X-966532Y829290D02*
D03*
Y815290D02*
D03*
Y599290D02*
D03*
Y585290D02*
D03*
X-965406Y347305D02*
D03*
Y333305D02*
D03*
X-967812Y117570D02*
D03*
Y103570D02*
D03*
X-576652Y346170D02*
D03*
Y332170D02*
D03*
Y117570D02*
D03*
Y103570D02*
D03*
X-984312Y843200D02*
D03*
Y829200D02*
D03*
Y613200D02*
D03*
Y599200D02*
D03*
X-983186Y361215D02*
D03*
Y347215D02*
D03*
X-985592Y131480D02*
D03*
Y117480D02*
D03*
X-594432Y360080D02*
D03*
Y346080D02*
D03*
Y131480D02*
D03*
Y117480D02*
D03*
X-966532Y855800D02*
D03*
Y841800D02*
D03*
Y625800D02*
D03*
Y611800D02*
D03*
X-965406Y373815D02*
D03*
Y359815D02*
D03*
X-967812Y144080D02*
D03*
Y130080D02*
D03*
X-576652Y372680D02*
D03*
Y358680D02*
D03*
Y144080D02*
D03*
Y130080D02*
D03*
X-984312Y872470D02*
D03*
Y858470D02*
D03*
Y642470D02*
D03*
Y628470D02*
D03*
X-983186Y390485D02*
D03*
Y376485D02*
D03*
X-985592Y160750D02*
D03*
Y146750D02*
D03*
X-594432Y389350D02*
D03*
Y375350D02*
D03*
Y160750D02*
D03*
Y146750D02*
D03*
X-966532Y885080D02*
D03*
Y871080D02*
D03*
Y655080D02*
D03*
Y641080D02*
D03*
X-965406Y403095D02*
D03*
Y389095D02*
D03*
X-967812Y173360D02*
D03*
Y159360D02*
D03*
X-576651Y401960D02*
D03*
Y387960D02*
D03*
Y173360D02*
D03*
Y159360D02*
D03*
X-984312Y898980D02*
D03*
Y884980D02*
D03*
Y668980D02*
D03*
Y654980D02*
D03*
X-983186Y416995D02*
D03*
Y402995D02*
D03*
X-985592Y187260D02*
D03*
Y173260D02*
D03*
X-594432Y415860D02*
D03*
Y401860D02*
D03*
Y187260D02*
D03*
Y173260D02*
D03*
X-966532Y913110D02*
D03*
Y899110D02*
D03*
Y683110D02*
D03*
Y669110D02*
D03*
X-965406Y431125D02*
D03*
Y417125D02*
D03*
X-967812Y201390D02*
D03*
Y187390D02*
D03*
X-576652Y429990D02*
D03*
Y415990D02*
D03*
Y201390D02*
D03*
Y187390D02*
D03*
X-984312Y925830D02*
D03*
Y911830D02*
D03*
Y695830D02*
D03*
Y681830D02*
D03*
X-983186Y443845D02*
D03*
Y429845D02*
D03*
X-985592Y214110D02*
D03*
Y200110D02*
D03*
X-594432Y442710D02*
D03*
Y428710D02*
D03*
Y214110D02*
D03*
Y200110D02*
D03*
X-966532Y939720D02*
D03*
Y925720D02*
D03*
Y709720D02*
D03*
Y695720D02*
D03*
X-965406Y457735D02*
D03*
Y443735D02*
D03*
X-967812Y228000D02*
D03*
Y214000D02*
D03*
X-576652Y456600D02*
D03*
Y442600D02*
D03*
Y228000D02*
D03*
Y214000D02*
D03*
X-1183472Y856350D02*
D03*
Y842350D02*
D03*
Y651170D02*
D03*
Y637170D02*
D03*
Y435270D02*
D03*
Y421270D02*
D03*
Y221910D02*
D03*
Y207910D02*
D03*
X-1165692Y856350D02*
D03*
Y842350D02*
D03*
Y651170D02*
D03*
Y637170D02*
D03*
Y435270D02*
D03*
Y421270D02*
D03*
Y221910D02*
D03*
Y207910D02*
D03*
X-1193632Y903310D02*
D03*
Y917310D02*
D03*
Y698130D02*
D03*
Y712130D02*
D03*
Y482230D02*
D03*
Y496230D02*
D03*
Y268870D02*
D03*
Y282870D02*
D03*
X-1206391Y818520D02*
D03*
Y832520D02*
D03*
Y613340D02*
D03*
Y627340D02*
D03*
Y397440D02*
D03*
Y411440D02*
D03*
Y184080D02*
D03*
Y198080D02*
D03*
X-1467502Y192930D02*
D03*
Y178930D02*
D03*
X-1528062Y576290D02*
D03*
Y562290D02*
D03*
X-1469642Y576290D02*
D03*
Y562290D02*
D03*
X-1411221Y576290D02*
D03*
Y562290D02*
D03*
X-1389742Y784860D02*
D03*
Y798860D02*
D03*
D34*
X-493761Y672460D02*
D03*
Y667460D02*
D03*
Y662460D02*
D03*
Y657460D02*
D03*
Y652460D02*
D03*
Y647460D02*
D03*
Y642460D02*
D03*
Y637460D02*
D03*
Y632460D02*
D03*
Y627460D02*
D03*
Y622460D02*
D03*
Y617460D02*
D03*
Y612460D02*
D03*
Y607460D02*
D03*
Y602460D02*
D03*
Y597460D02*
D03*
Y592460D02*
D03*
Y587460D02*
D03*
Y582460D02*
D03*
X-437761Y672460D02*
D03*
Y667460D02*
D03*
Y662460D02*
D03*
Y657460D02*
D03*
Y652460D02*
D03*
Y647460D02*
D03*
Y642460D02*
D03*
Y637460D02*
D03*
Y632460D02*
D03*
Y627460D02*
D03*
Y622460D02*
D03*
Y617460D02*
D03*
Y612460D02*
D03*
Y607460D02*
D03*
Y602460D02*
D03*
Y597460D02*
D03*
Y592460D02*
D03*
Y587460D02*
D03*
Y582460D02*
D03*
Y812460D02*
D03*
Y817460D02*
D03*
Y822460D02*
D03*
Y827460D02*
D03*
Y832460D02*
D03*
Y837460D02*
D03*
Y842460D02*
D03*
Y847460D02*
D03*
Y852460D02*
D03*
Y857460D02*
D03*
Y862460D02*
D03*
Y867460D02*
D03*
Y872460D02*
D03*
Y877460D02*
D03*
Y882460D02*
D03*
Y887460D02*
D03*
Y892460D02*
D03*
Y897460D02*
D03*
Y902460D02*
D03*
X-493761Y812460D02*
D03*
Y817460D02*
D03*
Y822460D02*
D03*
Y827460D02*
D03*
Y832460D02*
D03*
Y837460D02*
D03*
Y842460D02*
D03*
Y847460D02*
D03*
Y852460D02*
D03*
Y857460D02*
D03*
Y862460D02*
D03*
Y867460D02*
D03*
Y872460D02*
D03*
Y877460D02*
D03*
Y882460D02*
D03*
Y887460D02*
D03*
Y892460D02*
D03*
Y897460D02*
D03*
Y902460D02*
D03*
X-827762Y812460D02*
D03*
Y817460D02*
D03*
Y822460D02*
D03*
Y827460D02*
D03*
Y832460D02*
D03*
Y837460D02*
D03*
Y842460D02*
D03*
Y847460D02*
D03*
Y852460D02*
D03*
Y857460D02*
D03*
Y862460D02*
D03*
Y867460D02*
D03*
Y872460D02*
D03*
Y877460D02*
D03*
Y882460D02*
D03*
Y887460D02*
D03*
Y892460D02*
D03*
Y897460D02*
D03*
Y902460D02*
D03*
X-883762Y812460D02*
D03*
Y817460D02*
D03*
Y822460D02*
D03*
Y827460D02*
D03*
Y832460D02*
D03*
Y837460D02*
D03*
Y842460D02*
D03*
Y847460D02*
D03*
Y852460D02*
D03*
Y857460D02*
D03*
Y862460D02*
D03*
Y867460D02*
D03*
Y872460D02*
D03*
Y877460D02*
D03*
Y882460D02*
D03*
Y887460D02*
D03*
Y892460D02*
D03*
Y897460D02*
D03*
Y902460D02*
D03*
Y672460D02*
D03*
Y667460D02*
D03*
Y662460D02*
D03*
Y657460D02*
D03*
Y652460D02*
D03*
Y647460D02*
D03*
Y642460D02*
D03*
Y637460D02*
D03*
Y632460D02*
D03*
Y627460D02*
D03*
Y622460D02*
D03*
Y617460D02*
D03*
Y612460D02*
D03*
Y607460D02*
D03*
Y602460D02*
D03*
Y597460D02*
D03*
Y592460D02*
D03*
Y587460D02*
D03*
Y582460D02*
D03*
X-827762Y672460D02*
D03*
Y667460D02*
D03*
Y662460D02*
D03*
Y657460D02*
D03*
Y652460D02*
D03*
Y647460D02*
D03*
Y642460D02*
D03*
Y637460D02*
D03*
Y632460D02*
D03*
Y627460D02*
D03*
Y622460D02*
D03*
Y617460D02*
D03*
Y612460D02*
D03*
Y607460D02*
D03*
Y602460D02*
D03*
Y597460D02*
D03*
Y592460D02*
D03*
Y587460D02*
D03*
Y582460D02*
D03*
X-826636Y330475D02*
D03*
Y335475D02*
D03*
Y340475D02*
D03*
Y345475D02*
D03*
Y350475D02*
D03*
Y355475D02*
D03*
Y360475D02*
D03*
Y365475D02*
D03*
Y370475D02*
D03*
Y375475D02*
D03*
Y380475D02*
D03*
Y385475D02*
D03*
Y390475D02*
D03*
Y395475D02*
D03*
Y400475D02*
D03*
Y405475D02*
D03*
Y410475D02*
D03*
Y415475D02*
D03*
Y420475D02*
D03*
X-882636Y330475D02*
D03*
Y335475D02*
D03*
Y340475D02*
D03*
Y345475D02*
D03*
Y350475D02*
D03*
Y355475D02*
D03*
Y360475D02*
D03*
Y365475D02*
D03*
Y370475D02*
D03*
Y375475D02*
D03*
Y380475D02*
D03*
Y385475D02*
D03*
Y390475D02*
D03*
Y395475D02*
D03*
Y400475D02*
D03*
Y405475D02*
D03*
Y410475D02*
D03*
Y415475D02*
D03*
Y420475D02*
D03*
X-885042Y190740D02*
D03*
Y185740D02*
D03*
Y180740D02*
D03*
Y175740D02*
D03*
Y170740D02*
D03*
Y165740D02*
D03*
Y160740D02*
D03*
Y155740D02*
D03*
Y150740D02*
D03*
Y145740D02*
D03*
Y140740D02*
D03*
Y135740D02*
D03*
Y130740D02*
D03*
Y125740D02*
D03*
Y120740D02*
D03*
Y115740D02*
D03*
Y110740D02*
D03*
Y105740D02*
D03*
Y100740D02*
D03*
X-829042Y190740D02*
D03*
Y185740D02*
D03*
Y180740D02*
D03*
Y175740D02*
D03*
Y170740D02*
D03*
Y165740D02*
D03*
Y160740D02*
D03*
Y155740D02*
D03*
Y150740D02*
D03*
Y145740D02*
D03*
Y140740D02*
D03*
Y135740D02*
D03*
Y130740D02*
D03*
Y125740D02*
D03*
Y120740D02*
D03*
Y115740D02*
D03*
Y110740D02*
D03*
Y105740D02*
D03*
Y100740D02*
D03*
X-437882Y329340D02*
D03*
Y334340D02*
D03*
Y339340D02*
D03*
Y344340D02*
D03*
Y349340D02*
D03*
Y354340D02*
D03*
Y359340D02*
D03*
Y364340D02*
D03*
Y369340D02*
D03*
Y374340D02*
D03*
Y379340D02*
D03*
Y384340D02*
D03*
Y389340D02*
D03*
Y394340D02*
D03*
Y399340D02*
D03*
Y404340D02*
D03*
Y409340D02*
D03*
Y414340D02*
D03*
Y419340D02*
D03*
X-493881Y329340D02*
D03*
Y334340D02*
D03*
Y339340D02*
D03*
Y344340D02*
D03*
Y349340D02*
D03*
Y354340D02*
D03*
Y359340D02*
D03*
Y364340D02*
D03*
Y369340D02*
D03*
Y374340D02*
D03*
Y379340D02*
D03*
Y384340D02*
D03*
Y389340D02*
D03*
Y394340D02*
D03*
Y399340D02*
D03*
Y404340D02*
D03*
Y409340D02*
D03*
Y414340D02*
D03*
Y419340D02*
D03*
Y190740D02*
D03*
Y185740D02*
D03*
Y180740D02*
D03*
Y175740D02*
D03*
Y170740D02*
D03*
Y165740D02*
D03*
Y160740D02*
D03*
Y155740D02*
D03*
Y150740D02*
D03*
Y145740D02*
D03*
Y140740D02*
D03*
Y135740D02*
D03*
Y130740D02*
D03*
Y125740D02*
D03*
Y120740D02*
D03*
Y115740D02*
D03*
Y110740D02*
D03*
Y105740D02*
D03*
Y100740D02*
D03*
X-437882Y190740D02*
D03*
Y185740D02*
D03*
Y180740D02*
D03*
Y175740D02*
D03*
Y170740D02*
D03*
Y165740D02*
D03*
Y160740D02*
D03*
Y155740D02*
D03*
Y150740D02*
D03*
Y145740D02*
D03*
Y140740D02*
D03*
Y135740D02*
D03*
Y130740D02*
D03*
Y125740D02*
D03*
Y120740D02*
D03*
Y115740D02*
D03*
Y110740D02*
D03*
Y105740D02*
D03*
Y100740D02*
D03*
D35*
X-344411Y681110D02*
D03*
Y711110D02*
D03*
X-344412Y635390D02*
D03*
Y665390D02*
D03*
Y589670D02*
D03*
Y619670D02*
D03*
X-344411Y543950D02*
D03*
Y573950D02*
D03*
X-317742Y681110D02*
D03*
Y711110D02*
D03*
Y635390D02*
D03*
Y665390D02*
D03*
Y589670D02*
D03*
Y619670D02*
D03*
Y543950D02*
D03*
Y573950D02*
D03*
X-1349102Y772160D02*
D03*
Y802160D02*
D03*
X-1529742Y881120D02*
D03*
Y911120D02*
D03*
X-317742Y773950D02*
D03*
Y803950D02*
D03*
X-707741Y773950D02*
D03*
Y803950D02*
D03*
Y543950D02*
D03*
Y573950D02*
D03*
X-706616Y291965D02*
D03*
Y321965D02*
D03*
X-709022Y62230D02*
D03*
Y92230D02*
D03*
X-317861Y290830D02*
D03*
Y320830D02*
D03*
Y62230D02*
D03*
Y92230D02*
D03*
X-317742Y819670D02*
D03*
Y849670D02*
D03*
X-707741Y819670D02*
D03*
Y849670D02*
D03*
Y589670D02*
D03*
Y619670D02*
D03*
X-706616Y337685D02*
D03*
Y367685D02*
D03*
X-709022Y107950D02*
D03*
Y137950D02*
D03*
X-317861Y336550D02*
D03*
Y366550D02*
D03*
Y107950D02*
D03*
Y137950D02*
D03*
X-317742Y865390D02*
D03*
Y895390D02*
D03*
X-707741Y865390D02*
D03*
Y895390D02*
D03*
Y635390D02*
D03*
Y665390D02*
D03*
X-706616Y383405D02*
D03*
Y413405D02*
D03*
X-709022Y153670D02*
D03*
Y183670D02*
D03*
X-317861Y382270D02*
D03*
Y412270D02*
D03*
Y153670D02*
D03*
Y183670D02*
D03*
X-317742Y911110D02*
D03*
Y941110D02*
D03*
X-707741Y911110D02*
D03*
Y941110D02*
D03*
Y681110D02*
D03*
Y711110D02*
D03*
X-706616Y429125D02*
D03*
Y459125D02*
D03*
X-709022Y199390D02*
D03*
Y229390D02*
D03*
X-317861Y427990D02*
D03*
Y457990D02*
D03*
Y199390D02*
D03*
Y229390D02*
D03*
X-81024Y151640D02*
D03*
Y121640D02*
D03*
X-344411Y773950D02*
D03*
Y803950D02*
D03*
X-734411Y773950D02*
D03*
Y803950D02*
D03*
Y543950D02*
D03*
Y573950D02*
D03*
X-733286Y291965D02*
D03*
Y321965D02*
D03*
X-735691Y62230D02*
D03*
Y92230D02*
D03*
X-344531Y290830D02*
D03*
Y320830D02*
D03*
Y62230D02*
D03*
Y92230D02*
D03*
X-344412Y819670D02*
D03*
Y849670D02*
D03*
X-734411Y819670D02*
D03*
Y849670D02*
D03*
Y589670D02*
D03*
Y619670D02*
D03*
X-733286Y337685D02*
D03*
Y367685D02*
D03*
X-735692Y107950D02*
D03*
Y137950D02*
D03*
X-344532Y336550D02*
D03*
Y366550D02*
D03*
Y107950D02*
D03*
Y137950D02*
D03*
X-344412Y865390D02*
D03*
Y895390D02*
D03*
X-734411Y865390D02*
D03*
Y895390D02*
D03*
Y635390D02*
D03*
Y665390D02*
D03*
X-733286Y383405D02*
D03*
Y413405D02*
D03*
X-735692Y153670D02*
D03*
Y183670D02*
D03*
X-344532Y382270D02*
D03*
Y412270D02*
D03*
Y153670D02*
D03*
Y183670D02*
D03*
X-344411Y911110D02*
D03*
Y941110D02*
D03*
X-734411Y911110D02*
D03*
Y941110D02*
D03*
Y681110D02*
D03*
Y711110D02*
D03*
X-733286Y429125D02*
D03*
Y459125D02*
D03*
X-735691Y199390D02*
D03*
Y229390D02*
D03*
X-344531Y427990D02*
D03*
Y457990D02*
D03*
Y199390D02*
D03*
Y229390D02*
D03*
D36*
X-1104892Y818250D02*
D03*
X-1109892D02*
D03*
X-1114892D02*
D03*
X-1119892D02*
D03*
X-1124892D02*
D03*
X-1129892D02*
D03*
X-1134892D02*
D03*
X-1139892D02*
D03*
Y867750D02*
D03*
X-1134892D02*
D03*
X-1129892D02*
D03*
X-1124892D02*
D03*
X-1119892D02*
D03*
X-1114892D02*
D03*
X-1109892D02*
D03*
X-1104892D02*
D03*
Y662570D02*
D03*
X-1109892D02*
D03*
X-1114892D02*
D03*
X-1119892D02*
D03*
X-1124892D02*
D03*
X-1129892D02*
D03*
X-1134892D02*
D03*
X-1139892D02*
D03*
Y613070D02*
D03*
X-1134892D02*
D03*
X-1129892D02*
D03*
X-1124892D02*
D03*
X-1119892D02*
D03*
X-1114892D02*
D03*
X-1109892D02*
D03*
X-1104892D02*
D03*
Y397170D02*
D03*
X-1109892D02*
D03*
X-1114892D02*
D03*
X-1119892D02*
D03*
X-1124892D02*
D03*
X-1129892D02*
D03*
X-1134892D02*
D03*
X-1139892D02*
D03*
Y446670D02*
D03*
X-1134892D02*
D03*
X-1129892D02*
D03*
X-1124892D02*
D03*
X-1119892D02*
D03*
X-1114892D02*
D03*
X-1109892D02*
D03*
X-1104892D02*
D03*
Y233310D02*
D03*
X-1109892D02*
D03*
X-1114892D02*
D03*
X-1119892D02*
D03*
X-1124892D02*
D03*
X-1129892D02*
D03*
X-1134892D02*
D03*
X-1139892D02*
D03*
Y183810D02*
D03*
X-1134892D02*
D03*
X-1129892D02*
D03*
X-1124892D02*
D03*
X-1119892D02*
D03*
X-1114892D02*
D03*
X-1109892D02*
D03*
X-1104892D02*
D03*
D37*
X-1147141Y825500D02*
D03*
Y830500D02*
D03*
Y835500D02*
D03*
Y840500D02*
D03*
Y845500D02*
D03*
Y850500D02*
D03*
Y855500D02*
D03*
Y860500D02*
D03*
X-1097642D02*
D03*
Y825500D02*
D03*
Y855500D02*
D03*
Y850500D02*
D03*
Y845500D02*
D03*
Y840500D02*
D03*
Y835500D02*
D03*
Y830500D02*
D03*
Y625320D02*
D03*
Y630320D02*
D03*
Y635320D02*
D03*
Y640320D02*
D03*
Y645320D02*
D03*
Y650320D02*
D03*
Y620320D02*
D03*
Y655320D02*
D03*
X-1147141D02*
D03*
Y650320D02*
D03*
Y645320D02*
D03*
Y640320D02*
D03*
Y635320D02*
D03*
Y630320D02*
D03*
Y625320D02*
D03*
Y620320D02*
D03*
Y404420D02*
D03*
Y409420D02*
D03*
Y414420D02*
D03*
Y419420D02*
D03*
Y424420D02*
D03*
Y429420D02*
D03*
Y434420D02*
D03*
Y439420D02*
D03*
X-1097642D02*
D03*
Y404420D02*
D03*
Y434420D02*
D03*
Y429420D02*
D03*
Y424420D02*
D03*
Y419420D02*
D03*
Y414420D02*
D03*
Y409420D02*
D03*
Y196060D02*
D03*
Y201060D02*
D03*
Y206060D02*
D03*
Y211060D02*
D03*
Y216060D02*
D03*
Y221060D02*
D03*
Y191060D02*
D03*
Y226060D02*
D03*
X-1147141D02*
D03*
Y221060D02*
D03*
Y216060D02*
D03*
Y211060D02*
D03*
Y206060D02*
D03*
Y201060D02*
D03*
Y196060D02*
D03*
Y191060D02*
D03*
D38*
X-1412892Y222470D02*
D03*
X-1425591D02*
D03*
X-1438291D02*
D03*
X-1450992D02*
D03*
X-1412892Y168470D02*
D03*
X-1425591D02*
D03*
X-1438291D02*
D03*
X-1450992D02*
D03*
X-1472691Y814120D02*
D03*
X-1485392D02*
D03*
X-1498091D02*
D03*
X-1510791D02*
D03*
X-1472691Y760120D02*
D03*
X-1485392D02*
D03*
X-1498091D02*
D03*
X-1510791D02*
D03*
D39*
X-1491741Y787120D02*
D03*
D40*
X-1542892Y486330D02*
D03*
X-1536391D02*
D03*
X-1529892D02*
D03*
X-1523392D02*
D03*
X-1542892Y544330D02*
D03*
X-1536391D02*
D03*
X-1529892D02*
D03*
X-1523392D02*
D03*
X-1484471Y486330D02*
D03*
X-1477971D02*
D03*
X-1471472D02*
D03*
X-1464971D02*
D03*
X-1484471Y544330D02*
D03*
X-1477971D02*
D03*
X-1471472D02*
D03*
X-1464971D02*
D03*
X-1426051Y486330D02*
D03*
X-1419552D02*
D03*
X-1413051D02*
D03*
X-1406552D02*
D03*
X-1426051Y544330D02*
D03*
X-1419552D02*
D03*
X-1413051D02*
D03*
X-1406552D02*
D03*
D41*
X-1570901Y711460D02*
D03*
Y690460D02*
D03*
X-1622982Y711460D02*
D03*
Y690460D02*
D03*
D42*
X-1425741Y796120D02*
D03*
Y760120D02*
D03*
D43*
X-1158732Y916310D02*
D03*
X-1168232D02*
D03*
X-1177731D02*
D03*
Y890310D02*
D03*
X-1158732D02*
D03*
Y711130D02*
D03*
X-1168232D02*
D03*
X-1177731D02*
D03*
Y685130D02*
D03*
X-1158732D02*
D03*
Y495230D02*
D03*
X-1168232D02*
D03*
X-1177731D02*
D03*
Y469230D02*
D03*
X-1158732D02*
D03*
Y281870D02*
D03*
X-1168232D02*
D03*
X-1177731D02*
D03*
Y255870D02*
D03*
X-1158732D02*
D03*
D44*
X-1343541Y850900D02*
D03*
X-1313542D02*
D03*
X-1425741Y840120D02*
D03*
X-1455741D02*
D03*
X-1486741Y871120D02*
D03*
X-1456741D02*
D03*
D45*
X-1525921Y394100D02*
D03*
Y410100D02*
D03*
Y380380D02*
D03*
Y364380D02*
D03*
X-1429402Y379620D02*
D03*
Y363620D02*
D03*
X-1533141Y453610D02*
D03*
Y469610D02*
D03*
X-1474722Y453610D02*
D03*
Y469610D02*
D03*
X-1416302Y453610D02*
D03*
Y469610D02*
D03*
X-1503741Y867120D02*
D03*
Y851120D02*
D03*
X-1389742Y754380D02*
D03*
Y770380D02*
D03*
X-1527742Y815120D02*
D03*
Y831120D02*
D03*
X-1526741Y740120D02*
D03*
Y756120D02*
D03*
X-1570901Y657960D02*
D03*
Y673960D02*
D03*
X-1429402Y394100D02*
D03*
Y410100D02*
D03*
X-1622982Y657960D02*
D03*
Y673960D02*
D03*
D46*
X-45464Y122910D02*
D03*
Y152910D02*
D03*
D47*
X-1288141Y787400D02*
D03*
X-1313542D02*
D03*
Y894080D02*
D03*
X-1288141D02*
D03*
D76*
X-1122392Y843000D02*
D03*
Y637820D02*
D03*
Y421920D02*
D03*
Y208560D02*
D03*
D79*
X-1477661Y283862D02*
D03*
Y271162D02*
D03*
X-1490361Y283862D02*
D03*
Y271162D02*
D03*
X-1503062Y283862D02*
D03*
Y271162D02*
D03*
X-1515762Y283862D02*
D03*
Y271162D02*
D03*
X-1528461Y283862D02*
D03*
Y271162D02*
D03*
X-1541161Y283862D02*
D03*
Y271162D02*
D03*
X-1553862Y283862D02*
D03*
Y271162D02*
D03*
X-1566561Y283862D02*
D03*
Y271162D02*
D03*
D80*
X-1547222Y431800D02*
D03*
X-1361801Y198120D02*
D03*
X-1288141Y337820D02*
D03*
X-1620882Y182880D02*
D03*
X-1384662Y149860D02*
D03*
X-1491342Y431800D02*
D03*
X-1438002Y119380D02*
D03*
X-1445621Y457200D02*
D03*
X-1565741Y945120D02*
D03*
X-1384742Y829120D02*
D03*
X-1321161Y723900D02*
D03*
X-1600562Y774700D02*
D03*
X-1280522Y955040D02*
D03*
D81*
X-1695000Y940000D02*
D03*
X-1695002Y60000D02*
D03*
D82*
X-32002Y789280D02*
D03*
X-136396Y776072D02*
D03*
X-191514Y789280D02*
D03*
X-232407Y200000D02*
D03*
X-169161Y206604D02*
D03*
X-32002Y200000D02*
D03*
D83*
X-77722Y761340D02*
D03*
Y227940D02*
D03*
D84*
X-141222Y240640D02*
D03*
X-166621Y253340D02*
D03*
X-141222Y266040D02*
D03*
X-166621Y278740D02*
D03*
X-141222Y291440D02*
D03*
X-166621Y304140D02*
D03*
X-141222Y316840D02*
D03*
X-166621Y329540D02*
D03*
Y469240D02*
D03*
X-141222Y456540D02*
D03*
X-166621Y443840D02*
D03*
X-141222Y431140D02*
D03*
X-166621Y418440D02*
D03*
X-141222Y405740D02*
D03*
X-166621Y393040D02*
D03*
X-141222Y380340D02*
D03*
X-166621Y608940D02*
D03*
X-141222Y596240D02*
D03*
X-166621Y583540D02*
D03*
X-141222Y570840D02*
D03*
X-166621Y558140D02*
D03*
X-141222Y545440D02*
D03*
X-166621Y532740D02*
D03*
X-141222Y520040D02*
D03*
X-166621Y748640D02*
D03*
X-141222Y735940D02*
D03*
X-166621Y723240D02*
D03*
X-141222Y710540D02*
D03*
X-166621Y697840D02*
D03*
X-141222Y685140D02*
D03*
X-166621Y672440D02*
D03*
X-141222Y659740D02*
D03*
X-207008D02*
D03*
X-232407Y672440D02*
D03*
X-207008Y685140D02*
D03*
X-232407Y697840D02*
D03*
X-207008Y710540D02*
D03*
X-232407Y723240D02*
D03*
X-207008Y735940D02*
D03*
X-232407Y748640D02*
D03*
X-207008Y520040D02*
D03*
X-232407Y532740D02*
D03*
X-207008Y545440D02*
D03*
X-232407Y558140D02*
D03*
X-207008Y570840D02*
D03*
X-232407Y583540D02*
D03*
X-207008Y596240D02*
D03*
X-232407Y608940D02*
D03*
X-207008Y380340D02*
D03*
X-232407Y393040D02*
D03*
X-207008Y405740D02*
D03*
X-232407Y418440D02*
D03*
X-207008Y431140D02*
D03*
X-232407Y443840D02*
D03*
X-207008Y456540D02*
D03*
X-232407Y469240D02*
D03*
Y329540D02*
D03*
X-207008Y316840D02*
D03*
X-232407Y304140D02*
D03*
X-207008Y291440D02*
D03*
X-232407Y278740D02*
D03*
X-207008Y266040D02*
D03*
X-232407Y253340D02*
D03*
X-207008Y240640D02*
D03*
D85*
X-1604442Y855820D02*
D03*
X-1579041D02*
D03*
X-1604442Y830420D02*
D03*
X-1579041D02*
D03*
D86*
X-1395741Y901620D02*
D03*
Y876620D02*
D03*
X-1453741Y922120D02*
D03*
X-1478741D02*
D03*
M02*
