G04*
G04 #@! TF.GenerationSoftware,Altium Limited,Altium Designer,20.1.11 (218)*
G04*
G04 Layer_Color=32768*
%FSLAX44Y44*%
%MOMM*%
G71*
G04*
G04 #@! TF.SameCoordinates,C3C50974-59E2-47F8-AA54-FA71D98921EB*
G04*
G04*
G04 #@! TF.FilePolarity,Positive*
G04*
G01*
G75*
%ADD13C,0.1270*%
D13*
X-847695Y912204D02*
Y944970D01*
X-863951Y912204D02*
X-847695D01*
X-863951D02*
Y944970D01*
X-847695D01*
X-457696Y770204D02*
Y802970D01*
X-473951Y770204D02*
X-457696D01*
X-473951D02*
Y802970D01*
X-457696D01*
Y912204D02*
Y944970D01*
X-473951Y912204D02*
X-457696D01*
X-473951D02*
Y944970D01*
X-457696D01*
Y682204D02*
Y714970D01*
X-473951Y682204D02*
X-457696D01*
X-473951D02*
Y714970D01*
X-457696D01*
Y540204D02*
Y572970D01*
X-473951Y540204D02*
X-457696D01*
X-473951D02*
Y572970D01*
X-457696D01*
X-847695Y770204D02*
Y802970D01*
X-863951Y770204D02*
X-847695D01*
X-863951D02*
Y802970D01*
X-847695D01*
Y540204D02*
Y572970D01*
X-863951Y540204D02*
X-847695D01*
X-863951D02*
Y572970D01*
X-847695D01*
X-846570Y288219D02*
Y320985D01*
X-862826Y288219D02*
X-846570D01*
X-862826D02*
Y320985D01*
X-846570D01*
X-848976Y58484D02*
Y91250D01*
X-865231Y58484D02*
X-848976D01*
X-865231D02*
Y91250D01*
X-848976D01*
X-457816Y287084D02*
Y319850D01*
X-474072Y287084D02*
X-457816D01*
X-474072D02*
Y319850D01*
X-457816D01*
Y58484D02*
Y91250D01*
X-474072Y58484D02*
X-457816D01*
X-474072D02*
Y91250D01*
X-457816D01*
X-847695Y682204D02*
Y714970D01*
X-863951Y682204D02*
X-847695D01*
X-863951D02*
Y714970D01*
X-847695D01*
X-846570Y430219D02*
Y462985D01*
X-862826Y430219D02*
X-846570D01*
X-862826D02*
Y462985D01*
X-846570D01*
X-848976Y200484D02*
Y233250D01*
X-865231Y200484D02*
X-848976D01*
X-865231D02*
Y233250D01*
X-848976D01*
X-457816Y429084D02*
Y461850D01*
X-474072Y429084D02*
X-457816D01*
X-474072D02*
Y461850D01*
X-457816D01*
Y200484D02*
Y233250D01*
X-474072Y200484D02*
X-457816D01*
X-474072D02*
Y233250D01*
X-457816D01*
M02*
