G04*
G04 #@! TF.GenerationSoftware,Altium Limited,Altium Designer,20.1.11 (218)*
G04*
G04 Layer_Color=32768*
%FSLAX44Y44*%
%MOMM*%
G71*
G04*
G04 #@! TF.SameCoordinates,C3C50974-59E2-47F8-AA54-FA71D98921EB*
G04*
G04*
G04 #@! TF.FilePolarity,Positive*
G04*
G01*
G75*
%ADD15C,0.1000*%
%ADD93C,0.0508*%
%ADD95C,0.0500*%
D15*
X-1563941Y177690D02*
X-1553941D01*
X-1558941Y172690D02*
Y182690D01*
X-855824Y923460D02*
Y933460D01*
X-860824Y928460D02*
X-850824D01*
X-465824Y781460D02*
Y791460D01*
X-470824Y786460D02*
X-460824D01*
X-465824Y923460D02*
Y933460D01*
X-470824Y928460D02*
X-460824D01*
X-465761Y622460D02*
Y632460D01*
X-470761Y627460D02*
X-460761D01*
X-465824Y693460D02*
Y703460D01*
X-470824Y698460D02*
X-460824D01*
X-465824Y551460D02*
Y561460D01*
X-470824Y556460D02*
X-460824D01*
X-470761Y857460D02*
X-460761D01*
X-465761Y852460D02*
Y862460D01*
X-860761Y857460D02*
X-850761D01*
X-855761Y852460D02*
Y862460D01*
Y622460D02*
Y632460D01*
X-860761Y627460D02*
X-850761D01*
X-859636Y375475D02*
X-849636D01*
X-854636Y370475D02*
Y380475D01*
X-857041Y140740D02*
Y150740D01*
X-862041Y145740D02*
X-852041D01*
X-470882Y374340D02*
X-460882D01*
X-465882Y369340D02*
Y379340D01*
Y140740D02*
Y150740D01*
X-470882Y145740D02*
X-460882D01*
X-1436942Y195470D02*
X-1426942D01*
X-1431942Y190470D02*
Y200470D01*
X-1491741Y782120D02*
Y792120D01*
X-1496741Y787120D02*
X-1486741D01*
X-1482661Y387240D02*
X-1472661D01*
X-1477661Y382240D02*
Y392240D01*
X-1533141Y510330D02*
Y520330D01*
X-1538141Y515330D02*
X-1528141D01*
X-1474722Y510330D02*
Y520330D01*
X-1479722Y515330D02*
X-1469722D01*
X-1416302Y510330D02*
Y520330D01*
X-1421302Y515330D02*
X-1411302D01*
X-855824Y781460D02*
Y791460D01*
X-860824Y786460D02*
X-850824D01*
X-855824Y551460D02*
Y561460D01*
X-860824Y556460D02*
X-850824D01*
X-854698Y299475D02*
Y309475D01*
X-859698Y304475D02*
X-849698D01*
X-857104Y69740D02*
Y79740D01*
X-862104Y74740D02*
X-852104D01*
X-465943Y298340D02*
Y308340D01*
X-470943Y303340D02*
X-460943D01*
X-465943Y69740D02*
Y79740D01*
X-470943Y74740D02*
X-460943D01*
X-855824Y693460D02*
Y703460D01*
X-860824Y698460D02*
X-850824D01*
X-854698Y441475D02*
Y451475D01*
X-859698Y446475D02*
X-849698D01*
X-857104Y211740D02*
Y221740D01*
X-862104Y216740D02*
X-852104D01*
X-465943Y440340D02*
Y450340D01*
X-470943Y445340D02*
X-460943D01*
X-465943Y211740D02*
Y221740D01*
X-470943Y216740D02*
X-460943D01*
X-1579792Y720010D02*
X-1562012D01*
X-1579792Y680640D02*
X-1562012D01*
Y720010D01*
X-1579792Y680640D02*
Y720010D01*
X-1570901Y695960D02*
Y705960D01*
X-1575901Y700960D02*
X-1565901D01*
X-1631871Y720010D02*
X-1614091D01*
X-1631871Y680640D02*
X-1614091D01*
Y720010D01*
X-1631871Y680640D02*
Y720010D01*
X-1622982Y695960D02*
Y705960D01*
X-1627982Y700960D02*
X-1617982D01*
D93*
X-1645302Y243984D02*
Y311040D01*
Y243984D02*
X-1398922D01*
Y311040D01*
X-1645302D02*
X-1398922D01*
D95*
X-1597941Y149690D02*
Y205690D01*
X-1519942Y149690D02*
Y205690D01*
X-1597941D02*
X-1519942D01*
X-1597941Y149690D02*
X-1519942D01*
X-871924Y947710D02*
X-839724D01*
X-871924Y909210D02*
X-839724D01*
X-871924D02*
Y947710D01*
X-839724Y909210D02*
Y947710D01*
X-481923Y805710D02*
X-449724D01*
X-481923Y767210D02*
X-449724D01*
X-481923D02*
Y805710D01*
X-449724Y767210D02*
Y805710D01*
X-481923Y947710D02*
X-449724D01*
X-481923Y909210D02*
X-449724D01*
X-481923D02*
Y947710D01*
X-449724Y909210D02*
Y947710D01*
X-504762Y678960D02*
X-426762D01*
X-504762Y575960D02*
X-426762D01*
X-504762D02*
Y678960D01*
X-426762Y575960D02*
Y678960D01*
X-481923Y717710D02*
X-449724D01*
X-481923Y679210D02*
X-449724D01*
X-481923D02*
Y717710D01*
X-449724Y679210D02*
Y717710D01*
X-481923Y575710D02*
X-449724D01*
X-481923Y537210D02*
X-449724D01*
X-481923D02*
Y575710D01*
X-449724Y537210D02*
Y575710D01*
X-206502Y40000D02*
Y90000D01*
X-231502Y65000D02*
X-181502D01*
X-171502Y30000D02*
Y100000D01*
X-241502Y30000D02*
X-171502D01*
X-241502D02*
Y100000D01*
X-171502D01*
X-426762Y805960D02*
Y908960D01*
X-504762Y805960D02*
Y908960D01*
Y805960D02*
X-426762D01*
X-504762Y908960D02*
X-426762D01*
X-816761Y805960D02*
Y908960D01*
X-894762Y805960D02*
Y908960D01*
Y805960D02*
X-816761D01*
X-894762Y908960D02*
X-816761D01*
X-894762Y678960D02*
X-816761D01*
X-894762Y575960D02*
X-816761D01*
X-894762D02*
Y678960D01*
X-816761Y575960D02*
Y678960D01*
X-815636Y323975D02*
Y426975D01*
X-893636Y323975D02*
Y426975D01*
Y323975D02*
X-815636D01*
X-893636Y426975D02*
X-815636D01*
X-896041Y197240D02*
X-818042D01*
X-896041Y94240D02*
X-818042D01*
X-896041D02*
Y197240D01*
X-818042Y94240D02*
Y197240D01*
X-426881Y322840D02*
Y425840D01*
X-504882Y322840D02*
Y425840D01*
Y322840D02*
X-426881D01*
X-504882Y425840D02*
X-426881D01*
X-504882Y197240D02*
X-426881D01*
X-504882Y94240D02*
X-426881D01*
X-504882D02*
Y197240D01*
X-426881Y94240D02*
Y197240D01*
X-1404442Y158470D02*
Y232470D01*
X-1459442Y158470D02*
Y232470D01*
X-1404442D01*
X-1459442Y158470D02*
X-1404442D01*
X-1519241Y824120D02*
X-1464241D01*
X-1519241Y750120D02*
X-1464241D01*
Y824120D01*
X-1519241Y750120D02*
Y824120D01*
X-1516662Y359240D02*
Y415240D01*
X-1438661Y359240D02*
Y415240D01*
X-1516662D02*
X-1438661D01*
X-1516662Y359240D02*
X-1438661D01*
X-1551142Y476330D02*
X-1515141D01*
X-1551142Y554330D02*
X-1515141D01*
X-1551142Y476330D02*
Y554330D01*
X-1515141Y476330D02*
Y554330D01*
X-1492722Y476330D02*
X-1456721D01*
X-1492722Y554330D02*
X-1456721D01*
X-1492722Y476330D02*
Y554330D01*
X-1456721Y476330D02*
Y554330D01*
X-1434301Y476330D02*
X-1398302D01*
X-1434301Y554330D02*
X-1398302D01*
X-1434301Y476330D02*
Y554330D01*
X-1398302Y476330D02*
Y554330D01*
X-871924Y805710D02*
X-839724D01*
X-871924Y767210D02*
X-839724D01*
X-871924D02*
Y805710D01*
X-839724Y767210D02*
Y805710D01*
X-871924Y575710D02*
X-839724D01*
X-871924Y537210D02*
X-839724D01*
X-871924D02*
Y575710D01*
X-839724Y537210D02*
Y575710D01*
X-870798Y323725D02*
X-838598D01*
X-870798Y285225D02*
X-838598D01*
X-870798D02*
Y323725D01*
X-838598Y285225D02*
Y323725D01*
X-873204Y93990D02*
X-841003D01*
X-873204Y55490D02*
X-841003D01*
X-873204D02*
Y93990D01*
X-841003Y55490D02*
Y93990D01*
X-482043Y322590D02*
X-449843D01*
X-482043Y284090D02*
X-449843D01*
X-482043D02*
Y322590D01*
X-449843Y284090D02*
Y322590D01*
X-482043Y93990D02*
X-449843D01*
X-482043Y55490D02*
X-449843D01*
X-482043D02*
Y93990D01*
X-449843Y55490D02*
Y93990D01*
X-871924Y717710D02*
X-839724D01*
X-871924Y679210D02*
X-839724D01*
X-871924D02*
Y717710D01*
X-839724Y679210D02*
Y717710D01*
X-870798Y465725D02*
X-838598D01*
X-870798Y427225D02*
X-838598D01*
X-870798D02*
Y465725D01*
X-838598Y427225D02*
Y465725D01*
X-873204Y235990D02*
X-841003D01*
X-873204Y197490D02*
X-841003D01*
X-873204D02*
Y235990D01*
X-841003Y197490D02*
Y235990D01*
X-482043Y464590D02*
X-449843D01*
X-482043Y426090D02*
X-449843D01*
X-482043D02*
Y464590D01*
X-449843Y426090D02*
Y464590D01*
X-482043Y235990D02*
X-449843D01*
X-482043Y197490D02*
X-449843D01*
X-482043D02*
Y235990D01*
X-449843Y197490D02*
Y235990D01*
X-1359742Y853120D02*
Y925120D01*
X-1431741Y853120D02*
X-1359742D01*
X-1431741D02*
Y925120D01*
X-1359742D01*
X-1395741Y884120D02*
Y894120D01*
X-1400741Y889120D02*
X-1390741D01*
X-1502242Y886120D02*
X-1430242D01*
X-1502242D02*
Y958120D01*
X-1430242D01*
Y886120D02*
Y958120D01*
X-1471241Y922120D02*
X-1461241D01*
X-1466241Y917120D02*
Y927120D01*
X-1449872Y802250D02*
X-1401611D01*
Y753990D02*
Y802250D01*
X-1449872Y753990D02*
Y802250D01*
Y753990D02*
X-1401611D01*
M02*
