G04 Layer_Physical_Order=5*
G04 Layer_Color=16440176*
%FSLAX44Y44*%
%MOMM*%
G71*
G01*
G75*
%ADD30C,1.3000*%
%ADD31C,0.7000*%
%ADD32C,0.5000*%
%ADD33C,1.0000*%
G36*
X1496304Y-997035D02*
X3885D01*
Y-3885D01*
X1496304D01*
Y-997035D01*
D02*
G37*
%LPC*%
G36*
X1137850Y-28653D02*
X1135493Y-29121D01*
X1133495Y-30457D01*
X1132160Y-32454D01*
X1131692Y-34811D01*
X1132160Y-37168D01*
X1133495Y-39166D01*
X1135493Y-40501D01*
X1137850Y-40969D01*
X1140207Y-40501D01*
X1142205Y-39166D01*
X1143540Y-37168D01*
X1144008Y-34811D01*
X1143540Y-32454D01*
X1142205Y-30457D01*
X1140207Y-29121D01*
X1137850Y-28653D01*
D02*
G37*
G36*
X990501D02*
X988144Y-29121D01*
X986146Y-30457D01*
X984811Y-32454D01*
X984343Y-34811D01*
X984811Y-37168D01*
X986146Y-39166D01*
X988144Y-40501D01*
X990501Y-40969D01*
X992858Y-40501D01*
X994856Y-39166D01*
X996190Y-37168D01*
X996659Y-34811D01*
X996190Y-32454D01*
X994856Y-30457D01*
X992858Y-29121D01*
X990501Y-28653D01*
D02*
G37*
G36*
X696850D02*
X694493Y-29121D01*
X692495Y-30457D01*
X691161Y-32454D01*
X690692Y-34811D01*
X691161Y-37168D01*
X692495Y-39166D01*
X694493Y-40501D01*
X696850Y-40969D01*
X699207Y-40501D01*
X701205Y-39166D01*
X702540Y-37168D01*
X703008Y-34811D01*
X702540Y-32454D01*
X701205Y-30457D01*
X699207Y-29121D01*
X696850Y-28653D01*
D02*
G37*
G36*
X549501D02*
X547144Y-29121D01*
X545146Y-30457D01*
X543811Y-32454D01*
X543343Y-34811D01*
X543811Y-37168D01*
X545146Y-39166D01*
X547144Y-40501D01*
X549501Y-40969D01*
X551858Y-40501D01*
X553856Y-39166D01*
X555191Y-37168D01*
X555659Y-34811D01*
X555191Y-32454D01*
X553856Y-30457D01*
X551858Y-29121D01*
X549501Y-28653D01*
D02*
G37*
G36*
X1204800Y-31452D02*
X1202443Y-31920D01*
X1200445Y-33256D01*
X1199110Y-35253D01*
X1198642Y-37610D01*
X1199110Y-39967D01*
X1200336Y-41801D01*
X1200461Y-42332D01*
Y-42888D01*
X1200336Y-43419D01*
X1199110Y-45253D01*
X1198642Y-47610D01*
X1199110Y-49967D01*
X1200445Y-51965D01*
X1202443Y-53299D01*
X1204800Y-53768D01*
X1207157Y-53299D01*
X1209155Y-51965D01*
X1210490Y-49967D01*
X1210958Y-47610D01*
X1210490Y-45253D01*
X1209264Y-43419D01*
X1209139Y-42888D01*
Y-42332D01*
X1209264Y-41801D01*
X1210490Y-39967D01*
X1210958Y-37610D01*
X1210490Y-35253D01*
X1209155Y-33256D01*
X1207157Y-31920D01*
X1204800Y-31452D01*
D02*
G37*
G36*
X763800D02*
X761443Y-31920D01*
X759445Y-33256D01*
X758110Y-35253D01*
X757642Y-37610D01*
X758110Y-39967D01*
X759336Y-41801D01*
X759461Y-42332D01*
Y-42888D01*
X759336Y-43419D01*
X758110Y-45253D01*
X757642Y-47610D01*
X758110Y-49967D01*
X759445Y-51965D01*
X761443Y-53299D01*
X763800Y-53768D01*
X766157Y-53299D01*
X768155Y-51965D01*
X769490Y-49967D01*
X769958Y-47610D01*
X769490Y-45253D01*
X768264Y-43419D01*
X768139Y-42888D01*
Y-42332D01*
X768264Y-41801D01*
X769490Y-39967D01*
X769958Y-37610D01*
X769490Y-35253D01*
X768155Y-33256D01*
X766157Y-31920D01*
X763800Y-31452D01*
D02*
G37*
G36*
X1137850Y-45651D02*
X1135493Y-46120D01*
X1133495Y-47455D01*
X1132160Y-49453D01*
X1131692Y-51809D01*
X1132160Y-54166D01*
X1133495Y-56164D01*
X1135493Y-57499D01*
X1137850Y-57968D01*
X1140207Y-57499D01*
X1142205Y-56164D01*
X1143540Y-54166D01*
X1144008Y-51809D01*
X1143540Y-49453D01*
X1142205Y-47455D01*
X1140207Y-46120D01*
X1137850Y-45651D01*
D02*
G37*
G36*
X990299D02*
X987942Y-46120D01*
X985945Y-47455D01*
X984610Y-49453D01*
X984141Y-51809D01*
X984610Y-54166D01*
X985945Y-56164D01*
X987942Y-57499D01*
X990299Y-57968D01*
X992656Y-57499D01*
X994654Y-56164D01*
X995989Y-54166D01*
X996458Y-51809D01*
X995989Y-49453D01*
X994654Y-47455D01*
X992656Y-46120D01*
X990299Y-45651D01*
D02*
G37*
G36*
X696850D02*
X694493Y-46120D01*
X692495Y-47455D01*
X691161Y-49453D01*
X690692Y-51809D01*
X691161Y-54166D01*
X692495Y-56164D01*
X694493Y-57499D01*
X696850Y-57968D01*
X699207Y-57499D01*
X701205Y-56164D01*
X702540Y-54166D01*
X703008Y-51809D01*
X702540Y-49453D01*
X701205Y-47455D01*
X699207Y-46120D01*
X696850Y-45651D01*
D02*
G37*
G36*
X549299D02*
X546942Y-46120D01*
X544944Y-47455D01*
X543610Y-49453D01*
X543141Y-51809D01*
X543610Y-54166D01*
X544944Y-56164D01*
X546942Y-57499D01*
X549299Y-57968D01*
X551656Y-57499D01*
X553654Y-56164D01*
X554989Y-54166D01*
X555457Y-51809D01*
X554989Y-49453D01*
X553654Y-47455D01*
X551656Y-46120D01*
X549299Y-45651D01*
D02*
G37*
G36*
X1075400Y-50552D02*
X1073043Y-51020D01*
X1071045Y-52355D01*
X1069710Y-54353D01*
X1069242Y-56710D01*
X1069710Y-59067D01*
X1071045Y-61065D01*
X1073043Y-62400D01*
X1075400Y-62868D01*
X1077757Y-62400D01*
X1079755Y-61065D01*
X1081089Y-59067D01*
X1081558Y-56710D01*
X1081089Y-54353D01*
X1079755Y-52355D01*
X1077757Y-51020D01*
X1075400Y-50552D01*
D02*
G37*
G36*
X634400D02*
X632043Y-51020D01*
X630045Y-52355D01*
X628710Y-54353D01*
X628242Y-56710D01*
X628710Y-59067D01*
X630045Y-61065D01*
X632043Y-62400D01*
X634400Y-62868D01*
X636757Y-62400D01*
X638755Y-61065D01*
X640089Y-59067D01*
X640558Y-56710D01*
X640089Y-54353D01*
X638755Y-52355D01*
X636757Y-51020D01*
X634400Y-50552D01*
D02*
G37*
G36*
X1020400Y-51405D02*
X1018432Y-51664D01*
X1016598Y-52424D01*
X1015022Y-53632D01*
X1013814Y-55208D01*
X1013054Y-57042D01*
X1012795Y-59010D01*
X1013054Y-60978D01*
X1013814Y-62812D01*
X1015022Y-64388D01*
X1016598Y-65596D01*
X1018432Y-66356D01*
X1020400Y-66615D01*
X1022368Y-66356D01*
X1024202Y-65596D01*
X1025778Y-64388D01*
X1026986Y-62812D01*
X1027746Y-60978D01*
X1028005Y-59010D01*
X1027746Y-57042D01*
X1026986Y-55208D01*
X1025778Y-53632D01*
X1024202Y-52424D01*
X1022368Y-51664D01*
X1020400Y-51405D01*
D02*
G37*
G36*
X579400D02*
X577432Y-51664D01*
X575597Y-52424D01*
X574022Y-53632D01*
X572814Y-55208D01*
X572054Y-57042D01*
X571795Y-59010D01*
X572054Y-60978D01*
X572814Y-62812D01*
X574022Y-64388D01*
X575597Y-65596D01*
X577432Y-66356D01*
X579400Y-66615D01*
X581368Y-66356D01*
X583203Y-65596D01*
X584778Y-64388D01*
X585986Y-62812D01*
X586746Y-60978D01*
X587005Y-59010D01*
X586746Y-57042D01*
X585986Y-55208D01*
X584778Y-53632D01*
X583203Y-52424D01*
X581368Y-51664D01*
X579400Y-51405D01*
D02*
G37*
G36*
X990300Y-76852D02*
X987943Y-77320D01*
X985945Y-78655D01*
X984610Y-80653D01*
X984142Y-83010D01*
X984610Y-85367D01*
X985945Y-87365D01*
X987943Y-88700D01*
X990300Y-89168D01*
X992657Y-88700D01*
X994655Y-87365D01*
X995990Y-85367D01*
X996458Y-83010D01*
X995990Y-80653D01*
X994655Y-78655D01*
X992657Y-77320D01*
X990300Y-76852D01*
D02*
G37*
G36*
X549300D02*
X546943Y-77320D01*
X544945Y-78655D01*
X543610Y-80653D01*
X543142Y-83010D01*
X543610Y-85367D01*
X544945Y-87365D01*
X546943Y-88700D01*
X549300Y-89168D01*
X551657Y-88700D01*
X553655Y-87365D01*
X554990Y-85367D01*
X555458Y-83010D01*
X554990Y-80653D01*
X553655Y-78655D01*
X551657Y-77320D01*
X549300Y-76852D01*
D02*
G37*
G36*
X1005900Y-79252D02*
X1003543Y-79720D01*
X1001545Y-81055D01*
X1000210Y-83053D01*
X999742Y-85410D01*
X1000210Y-87767D01*
X1001545Y-89765D01*
X1003543Y-91100D01*
X1005900Y-91568D01*
X1008257Y-91100D01*
X1010255Y-89765D01*
X1011590Y-87767D01*
X1012058Y-85410D01*
X1011590Y-83053D01*
X1010255Y-81055D01*
X1008257Y-79720D01*
X1005900Y-79252D01*
D02*
G37*
G36*
X564900D02*
X562543Y-79720D01*
X560545Y-81055D01*
X559210Y-83053D01*
X558742Y-85410D01*
X559210Y-87767D01*
X560545Y-89765D01*
X562543Y-91100D01*
X564900Y-91568D01*
X567257Y-91100D01*
X569254Y-89765D01*
X570589Y-87767D01*
X571058Y-85410D01*
X570589Y-83053D01*
X569254Y-81055D01*
X567257Y-79720D01*
X564900Y-79252D01*
D02*
G37*
G36*
X1137850Y-80452D02*
X1135493Y-80920D01*
X1133495Y-82255D01*
X1132160Y-84253D01*
X1131692Y-86610D01*
X1132160Y-88967D01*
X1133495Y-90965D01*
X1135493Y-92300D01*
X1137850Y-92768D01*
X1140207Y-92300D01*
X1142205Y-90965D01*
X1143540Y-88967D01*
X1144008Y-86610D01*
X1143540Y-84253D01*
X1142205Y-82255D01*
X1140207Y-80920D01*
X1137850Y-80452D01*
D02*
G37*
G36*
X696850D02*
X694493Y-80920D01*
X692495Y-82255D01*
X691161Y-84253D01*
X690692Y-86610D01*
X691161Y-88967D01*
X692495Y-90965D01*
X694493Y-92300D01*
X696850Y-92768D01*
X699207Y-92300D01*
X701205Y-90965D01*
X702540Y-88967D01*
X703008Y-86610D01*
X702540Y-84253D01*
X701205Y-82255D01*
X699207Y-80920D01*
X696850Y-80452D01*
D02*
G37*
G36*
X1089400Y-83352D02*
X1087043Y-83820D01*
X1085045Y-85155D01*
X1083710Y-87153D01*
X1083242Y-89510D01*
X1083710Y-91867D01*
X1085045Y-93865D01*
X1087043Y-95200D01*
X1089400Y-95668D01*
X1091757Y-95200D01*
X1093755Y-93865D01*
X1095089Y-91867D01*
X1095558Y-89510D01*
X1095089Y-87153D01*
X1093755Y-85155D01*
X1091757Y-83820D01*
X1089400Y-83352D01*
D02*
G37*
G36*
X648400D02*
X646043Y-83820D01*
X644045Y-85155D01*
X642710Y-87153D01*
X642242Y-89510D01*
X642710Y-91867D01*
X644045Y-93865D01*
X646043Y-95200D01*
X648400Y-95668D01*
X650757Y-95200D01*
X652755Y-93865D01*
X654090Y-91867D01*
X654558Y-89510D01*
X654090Y-87153D01*
X652755Y-85155D01*
X650757Y-83820D01*
X648400Y-83352D01*
D02*
G37*
G36*
X1204975Y-83277D02*
X1202618Y-83745D01*
X1200620Y-85080D01*
X1199286Y-87078D01*
X1198817Y-89435D01*
X1199286Y-91792D01*
X1200511Y-93626D01*
X1200636Y-94157D01*
Y-94713D01*
X1200511Y-95244D01*
X1199286Y-97078D01*
X1198817Y-99435D01*
X1199286Y-101792D01*
X1200620Y-103790D01*
X1202618Y-105125D01*
X1204975Y-105593D01*
X1207332Y-105125D01*
X1209330Y-103790D01*
X1210665Y-101792D01*
X1211133Y-99435D01*
X1210665Y-97078D01*
X1209439Y-95244D01*
X1209314Y-94713D01*
Y-94157D01*
X1209439Y-93626D01*
X1210665Y-91792D01*
X1211133Y-89435D01*
X1210665Y-87078D01*
X1209330Y-85080D01*
X1207332Y-83745D01*
X1204975Y-83277D01*
D02*
G37*
G36*
X763975D02*
X761618Y-83745D01*
X759620Y-85080D01*
X758286Y-87078D01*
X757817Y-89435D01*
X758286Y-91792D01*
X759511Y-93626D01*
X759636Y-94157D01*
Y-94713D01*
X759511Y-95244D01*
X758286Y-97078D01*
X757817Y-99435D01*
X758286Y-101792D01*
X759620Y-103790D01*
X761618Y-105125D01*
X763975Y-105593D01*
X766332Y-105125D01*
X768330Y-103790D01*
X769665Y-101792D01*
X770133Y-99435D01*
X769665Y-97078D01*
X768439Y-95244D01*
X768314Y-94713D01*
Y-94157D01*
X768439Y-93626D01*
X769665Y-91792D01*
X770133Y-89435D01*
X769665Y-87078D01*
X768330Y-85080D01*
X766332Y-83745D01*
X763975Y-83277D01*
D02*
G37*
G36*
X990800Y-95452D02*
X988443Y-95920D01*
X986445Y-97255D01*
X985110Y-99253D01*
X984642Y-101610D01*
X985110Y-103967D01*
X986445Y-105965D01*
X988443Y-107299D01*
X990800Y-107768D01*
X993157Y-107299D01*
X995155Y-105965D01*
X996489Y-103967D01*
X996958Y-101610D01*
X996489Y-99253D01*
X995155Y-97255D01*
X993157Y-95920D01*
X990800Y-95452D01*
D02*
G37*
G36*
X549800D02*
X547443Y-95920D01*
X545445Y-97255D01*
X544110Y-99253D01*
X543642Y-101610D01*
X544110Y-103967D01*
X545445Y-105965D01*
X547443Y-107299D01*
X549800Y-107768D01*
X552157Y-107299D01*
X554155Y-105965D01*
X555490Y-103967D01*
X555958Y-101610D01*
X555490Y-99253D01*
X554155Y-97255D01*
X552157Y-95920D01*
X549800Y-95452D01*
D02*
G37*
G36*
X1137850Y-97152D02*
X1135493Y-97620D01*
X1133495Y-98955D01*
X1132160Y-100953D01*
X1131692Y-103310D01*
X1132160Y-105667D01*
X1133495Y-107665D01*
X1135493Y-109000D01*
X1137850Y-109468D01*
X1140207Y-109000D01*
X1142205Y-107665D01*
X1143540Y-105667D01*
X1144008Y-103310D01*
X1143540Y-100953D01*
X1142205Y-98955D01*
X1140207Y-97620D01*
X1137850Y-97152D01*
D02*
G37*
G36*
X696850D02*
X694493Y-97620D01*
X692495Y-98955D01*
X691161Y-100953D01*
X690692Y-103310D01*
X691161Y-105667D01*
X692495Y-107665D01*
X694493Y-109000D01*
X696850Y-109468D01*
X699207Y-109000D01*
X701205Y-107665D01*
X702540Y-105667D01*
X703008Y-103310D01*
X702540Y-100953D01*
X701205Y-98955D01*
X699207Y-97620D01*
X696850Y-97152D01*
D02*
G37*
G36*
X1005300Y-104852D02*
X1002943Y-105321D01*
X1000945Y-106655D01*
X999610Y-108653D01*
X999142Y-111010D01*
X999610Y-113367D01*
X1000945Y-115365D01*
X1002943Y-116700D01*
X1005300Y-117168D01*
X1007657Y-116700D01*
X1009654Y-115365D01*
X1010990Y-113367D01*
X1011458Y-111010D01*
X1010990Y-108653D01*
X1009654Y-106655D01*
X1007657Y-105321D01*
X1005300Y-104852D01*
D02*
G37*
G36*
X564300D02*
X561943Y-105321D01*
X559945Y-106655D01*
X558610Y-108653D01*
X558142Y-111010D01*
X558610Y-113367D01*
X559945Y-115365D01*
X561943Y-116700D01*
X564300Y-117168D01*
X566657Y-116700D01*
X568655Y-115365D01*
X569990Y-113367D01*
X570458Y-111010D01*
X569990Y-108653D01*
X568655Y-106655D01*
X566657Y-105321D01*
X564300Y-104852D01*
D02*
G37*
G36*
X1090300Y-108052D02*
X1087943Y-108520D01*
X1085945Y-109855D01*
X1084610Y-111853D01*
X1084142Y-114210D01*
X1084610Y-116567D01*
X1085945Y-118565D01*
X1087943Y-119900D01*
X1090300Y-120368D01*
X1092657Y-119900D01*
X1094655Y-118565D01*
X1095990Y-116567D01*
X1096458Y-114210D01*
X1095990Y-111853D01*
X1094655Y-109855D01*
X1092657Y-108520D01*
X1090300Y-108052D01*
D02*
G37*
G36*
X649300D02*
X646943Y-108520D01*
X644945Y-109855D01*
X643610Y-111853D01*
X643142Y-114210D01*
X643610Y-116567D01*
X644945Y-118565D01*
X646943Y-119900D01*
X649300Y-120368D01*
X651657Y-119900D01*
X653655Y-118565D01*
X654989Y-116567D01*
X655458Y-114210D01*
X654989Y-111853D01*
X653655Y-109855D01*
X651657Y-108520D01*
X649300Y-108052D01*
D02*
G37*
G36*
X987800Y-128452D02*
X985443Y-128920D01*
X983445Y-130255D01*
X982110Y-132253D01*
X981642Y-134610D01*
X982110Y-136967D01*
X983445Y-138965D01*
X985443Y-140300D01*
X987800Y-140768D01*
X990157Y-140300D01*
X992154Y-138965D01*
X993490Y-136967D01*
X993958Y-134610D01*
X993490Y-132253D01*
X992154Y-130255D01*
X990157Y-128920D01*
X987800Y-128452D01*
D02*
G37*
G36*
X546800D02*
X544443Y-128920D01*
X542445Y-130255D01*
X541110Y-132253D01*
X540642Y-134610D01*
X541110Y-136967D01*
X542445Y-138965D01*
X544443Y-140300D01*
X546800Y-140768D01*
X549157Y-140300D01*
X551155Y-138965D01*
X552490Y-136967D01*
X552958Y-134610D01*
X552490Y-132253D01*
X551155Y-130255D01*
X549157Y-128920D01*
X546800Y-128452D01*
D02*
G37*
G36*
X1005500Y-131252D02*
X1003143Y-131721D01*
X1001145Y-133055D01*
X999810Y-135053D01*
X999342Y-137410D01*
X999810Y-139767D01*
X1001145Y-141765D01*
X1003143Y-143100D01*
X1005500Y-143568D01*
X1007857Y-143100D01*
X1009855Y-141765D01*
X1011189Y-139767D01*
X1011658Y-137410D01*
X1011189Y-135053D01*
X1009855Y-133055D01*
X1007857Y-131721D01*
X1005500Y-131252D01*
D02*
G37*
G36*
X564500D02*
X562143Y-131721D01*
X560145Y-133055D01*
X558810Y-135053D01*
X558342Y-137410D01*
X558810Y-139767D01*
X560145Y-141765D01*
X562143Y-143100D01*
X564500Y-143568D01*
X566857Y-143100D01*
X568854Y-141765D01*
X570190Y-139767D01*
X570658Y-137410D01*
X570190Y-135053D01*
X568854Y-133055D01*
X566857Y-131721D01*
X564500Y-131252D01*
D02*
G37*
G36*
X1137850Y-131452D02*
X1135493Y-131920D01*
X1133495Y-133255D01*
X1132160Y-135253D01*
X1131692Y-137610D01*
X1132160Y-139967D01*
X1133495Y-141965D01*
X1135493Y-143300D01*
X1137850Y-143768D01*
X1140207Y-143300D01*
X1142205Y-141965D01*
X1143540Y-139967D01*
X1144008Y-137610D01*
X1143540Y-135253D01*
X1142205Y-133255D01*
X1140207Y-131920D01*
X1137850Y-131452D01*
D02*
G37*
G36*
X696850D02*
X694493Y-131920D01*
X692495Y-133255D01*
X691161Y-135253D01*
X690692Y-137610D01*
X691161Y-139967D01*
X692495Y-141965D01*
X694493Y-143300D01*
X696850Y-143768D01*
X699207Y-143300D01*
X701205Y-141965D01*
X702540Y-139967D01*
X703008Y-137610D01*
X702540Y-135253D01*
X701205Y-133255D01*
X699207Y-131920D01*
X696850Y-131452D01*
D02*
G37*
G36*
X1092500Y-132652D02*
X1090143Y-133120D01*
X1088145Y-134455D01*
X1086811Y-136453D01*
X1086342Y-138810D01*
X1086811Y-141167D01*
X1088145Y-143165D01*
X1090143Y-144500D01*
X1092500Y-144968D01*
X1094857Y-144500D01*
X1096855Y-143165D01*
X1098189Y-141167D01*
X1098658Y-138810D01*
X1098189Y-136453D01*
X1096855Y-134455D01*
X1094857Y-133120D01*
X1092500Y-132652D01*
D02*
G37*
G36*
X651500D02*
X649143Y-133120D01*
X647145Y-134455D01*
X645810Y-136453D01*
X645342Y-138810D01*
X645810Y-141167D01*
X647145Y-143165D01*
X649143Y-144500D01*
X651500Y-144968D01*
X653857Y-144500D01*
X655855Y-143165D01*
X657189Y-141167D01*
X657658Y-138810D01*
X657189Y-136453D01*
X655855Y-134455D01*
X653857Y-133120D01*
X651500Y-132652D01*
D02*
G37*
G36*
X1204975Y-134277D02*
X1202618Y-134746D01*
X1200620Y-136080D01*
X1199286Y-138078D01*
X1198817Y-140435D01*
X1199286Y-142792D01*
X1200511Y-144626D01*
X1200636Y-145157D01*
Y-145713D01*
X1200511Y-146244D01*
X1199286Y-148078D01*
X1198817Y-150435D01*
X1199286Y-152792D01*
X1200620Y-154789D01*
X1202618Y-156124D01*
X1204975Y-156593D01*
X1207332Y-156124D01*
X1209330Y-154789D01*
X1210665Y-152792D01*
X1211133Y-150435D01*
X1210665Y-148078D01*
X1209439Y-146244D01*
X1209314Y-145713D01*
Y-145157D01*
X1209439Y-144626D01*
X1210665Y-142792D01*
X1211133Y-140435D01*
X1210665Y-138078D01*
X1209330Y-136080D01*
X1207332Y-134746D01*
X1204975Y-134277D01*
D02*
G37*
G36*
X763975D02*
X761618Y-134746D01*
X759620Y-136080D01*
X758286Y-138078D01*
X757817Y-140435D01*
X758286Y-142792D01*
X759511Y-144626D01*
X759636Y-145157D01*
Y-145713D01*
X759511Y-146244D01*
X758286Y-148078D01*
X757817Y-150435D01*
X758286Y-152792D01*
X759620Y-154789D01*
X761618Y-156124D01*
X763975Y-156593D01*
X766332Y-156124D01*
X768330Y-154789D01*
X769665Y-152792D01*
X770133Y-150435D01*
X769665Y-148078D01*
X768439Y-146244D01*
X768314Y-145713D01*
Y-145157D01*
X768439Y-144626D01*
X769665Y-142792D01*
X770133Y-140435D01*
X769665Y-138078D01*
X768330Y-136080D01*
X766332Y-134746D01*
X763975Y-134277D01*
D02*
G37*
G36*
X988900Y-147952D02*
X986543Y-148420D01*
X984545Y-149755D01*
X983210Y-151753D01*
X982742Y-154110D01*
X983210Y-156467D01*
X984545Y-158465D01*
X986543Y-159800D01*
X988900Y-160268D01*
X991257Y-159800D01*
X993254Y-158465D01*
X994589Y-156467D01*
X995058Y-154110D01*
X994589Y-151753D01*
X993254Y-149755D01*
X991257Y-148420D01*
X988900Y-147952D01*
D02*
G37*
G36*
X547900D02*
X545543Y-148420D01*
X543545Y-149755D01*
X542210Y-151753D01*
X541742Y-154110D01*
X542210Y-156467D01*
X543545Y-158465D01*
X545543Y-159800D01*
X547900Y-160268D01*
X550257Y-159800D01*
X552254Y-158465D01*
X553590Y-156467D01*
X554058Y-154110D01*
X553590Y-151753D01*
X552254Y-149755D01*
X550257Y-148420D01*
X547900Y-147952D01*
D02*
G37*
G36*
X1137850Y-148452D02*
X1135493Y-148920D01*
X1133495Y-150255D01*
X1132160Y-152253D01*
X1131692Y-154610D01*
X1132160Y-156967D01*
X1133495Y-158965D01*
X1135493Y-160299D01*
X1137850Y-160768D01*
X1140207Y-160299D01*
X1142205Y-158965D01*
X1143540Y-156967D01*
X1144008Y-154610D01*
X1143540Y-152253D01*
X1142205Y-150255D01*
X1140207Y-148920D01*
X1137850Y-148452D01*
D02*
G37*
G36*
X696850D02*
X694493Y-148920D01*
X692495Y-150255D01*
X691161Y-152253D01*
X690692Y-154610D01*
X691161Y-156967D01*
X692495Y-158965D01*
X694493Y-160299D01*
X696850Y-160768D01*
X699207Y-160299D01*
X701205Y-158965D01*
X702540Y-156967D01*
X703008Y-154610D01*
X702540Y-152253D01*
X701205Y-150255D01*
X699207Y-148920D01*
X696850Y-148452D01*
D02*
G37*
G36*
X1137850Y-182452D02*
X1135493Y-182920D01*
X1133495Y-184255D01*
X1132160Y-186253D01*
X1131692Y-188610D01*
X1132160Y-190967D01*
X1133495Y-192965D01*
X1135493Y-194300D01*
X1137850Y-194768D01*
X1140207Y-194300D01*
X1142205Y-192965D01*
X1143540Y-190967D01*
X1144008Y-188610D01*
X1143540Y-186253D01*
X1142205Y-184255D01*
X1140207Y-182920D01*
X1137850Y-182452D01*
D02*
G37*
G36*
X987500D02*
X985143Y-182920D01*
X983145Y-184255D01*
X981810Y-186253D01*
X981342Y-188610D01*
X981810Y-190967D01*
X983145Y-192965D01*
X985143Y-194300D01*
X987500Y-194768D01*
X989857Y-194300D01*
X991855Y-192965D01*
X993189Y-190967D01*
X993658Y-188610D01*
X993189Y-186253D01*
X991855Y-184255D01*
X989857Y-182920D01*
X987500Y-182452D01*
D02*
G37*
G36*
X696850D02*
X694493Y-182920D01*
X692495Y-184255D01*
X691161Y-186253D01*
X690692Y-188610D01*
X691161Y-190967D01*
X692495Y-192965D01*
X694493Y-194300D01*
X696850Y-194768D01*
X699207Y-194300D01*
X701205Y-192965D01*
X702540Y-190967D01*
X703008Y-188610D01*
X702540Y-186253D01*
X701205Y-184255D01*
X699207Y-182920D01*
X696850Y-182452D01*
D02*
G37*
G36*
X546500D02*
X544143Y-182920D01*
X542145Y-184255D01*
X540810Y-186253D01*
X540342Y-188610D01*
X540810Y-190967D01*
X542145Y-192965D01*
X544143Y-194300D01*
X546500Y-194768D01*
X548857Y-194300D01*
X550854Y-192965D01*
X552189Y-190967D01*
X552658Y-188610D01*
X552189Y-186253D01*
X550854Y-184255D01*
X548857Y-182920D01*
X546500Y-182452D01*
D02*
G37*
G36*
X1204975Y-185877D02*
X1202618Y-186346D01*
X1200621Y-187680D01*
X1199286Y-189678D01*
X1198817Y-192035D01*
X1199286Y-194392D01*
X1200511Y-196226D01*
X1200636Y-196757D01*
Y-197313D01*
X1200511Y-197844D01*
X1199286Y-199678D01*
X1198817Y-202035D01*
X1199286Y-204392D01*
X1200621Y-206390D01*
X1202618Y-207725D01*
X1204975Y-208193D01*
X1207332Y-207725D01*
X1209330Y-206390D01*
X1210665Y-204392D01*
X1211133Y-202035D01*
X1210665Y-199678D01*
X1209439Y-197844D01*
X1209314Y-197313D01*
Y-196757D01*
X1209439Y-196226D01*
X1210665Y-194392D01*
X1211133Y-192035D01*
X1210665Y-189678D01*
X1209330Y-187680D01*
X1207332Y-186346D01*
X1204975Y-185877D01*
D02*
G37*
G36*
X763975D02*
X761618Y-186346D01*
X759621Y-187680D01*
X758286Y-189678D01*
X757817Y-192035D01*
X758286Y-194392D01*
X759511Y-196226D01*
X759636Y-196757D01*
Y-197313D01*
X759511Y-197844D01*
X758286Y-199678D01*
X757817Y-202035D01*
X758286Y-204392D01*
X759621Y-206390D01*
X761618Y-207725D01*
X763975Y-208193D01*
X766332Y-207725D01*
X768330Y-206390D01*
X769665Y-204392D01*
X770134Y-202035D01*
X769665Y-199678D01*
X768439Y-197844D01*
X768314Y-197313D01*
Y-196757D01*
X768439Y-196226D01*
X769665Y-194392D01*
X770134Y-192035D01*
X769665Y-189678D01*
X768330Y-187680D01*
X766332Y-186346D01*
X763975Y-185877D01*
D02*
G37*
G36*
X1137850Y-199452D02*
X1135493Y-199921D01*
X1133495Y-201255D01*
X1132160Y-203253D01*
X1131692Y-205610D01*
X1132160Y-207967D01*
X1133495Y-209965D01*
X1135493Y-211300D01*
X1137850Y-211768D01*
X1140207Y-211300D01*
X1142205Y-209965D01*
X1143540Y-207967D01*
X1144008Y-205610D01*
X1143540Y-203253D01*
X1142205Y-201255D01*
X1140207Y-199921D01*
X1137850Y-199452D01*
D02*
G37*
G36*
X989000D02*
X986643Y-199921D01*
X984645Y-201255D01*
X983310Y-203253D01*
X982842Y-205610D01*
X983310Y-207967D01*
X984645Y-209965D01*
X986643Y-211300D01*
X989000Y-211768D01*
X991357Y-211300D01*
X993355Y-209965D01*
X994690Y-207967D01*
X995158Y-205610D01*
X994690Y-203253D01*
X993355Y-201255D01*
X991357Y-199921D01*
X989000Y-199452D01*
D02*
G37*
G36*
X696850D02*
X694493Y-199921D01*
X692495Y-201255D01*
X691161Y-203253D01*
X690692Y-205610D01*
X691161Y-207967D01*
X692495Y-209965D01*
X694493Y-211300D01*
X696850Y-211768D01*
X699207Y-211300D01*
X701205Y-209965D01*
X702540Y-207967D01*
X703008Y-205610D01*
X702540Y-203253D01*
X701205Y-201255D01*
X699207Y-199921D01*
X696850Y-199452D01*
D02*
G37*
G36*
X548000D02*
X545643Y-199921D01*
X543645Y-201255D01*
X542310Y-203253D01*
X541842Y-205610D01*
X542310Y-207967D01*
X543645Y-209965D01*
X545643Y-211300D01*
X548000Y-211768D01*
X550357Y-211300D01*
X552355Y-209965D01*
X553689Y-207967D01*
X554158Y-205610D01*
X553689Y-203253D01*
X552355Y-201255D01*
X550357Y-199921D01*
X548000Y-199452D01*
D02*
G37*
G36*
X1469409Y-192294D02*
X1466027Y-192739D01*
X1462876Y-194045D01*
X1460170Y-196121D01*
X1458093Y-198827D01*
X1456788Y-201978D01*
X1456343Y-205360D01*
X1456788Y-208742D01*
X1458093Y-211893D01*
X1460170Y-214599D01*
X1462876Y-216675D01*
X1466027Y-217981D01*
X1469409Y-218426D01*
X1472790Y-217981D01*
X1475941Y-216675D01*
X1478647Y-214599D01*
X1480724Y-211893D01*
X1482029Y-208742D01*
X1482474Y-205360D01*
X1482029Y-201978D01*
X1480724Y-198827D01*
X1478647Y-196121D01*
X1475941Y-194045D01*
X1472790Y-192739D01*
X1469409Y-192294D01*
D02*
G37*
G36*
X1309897D02*
X1306515Y-192739D01*
X1303364Y-194045D01*
X1300658Y-196121D01*
X1298581Y-198827D01*
X1297276Y-201978D01*
X1296831Y-205360D01*
X1297276Y-208742D01*
X1298581Y-211893D01*
X1300658Y-214599D01*
X1303364Y-216675D01*
X1306515Y-217981D01*
X1309897Y-218426D01*
X1313278Y-217981D01*
X1316429Y-216675D01*
X1319135Y-214599D01*
X1321212Y-211893D01*
X1322517Y-208742D01*
X1322962Y-205360D01*
X1322517Y-201978D01*
X1321212Y-198827D01*
X1319135Y-196121D01*
X1316429Y-194045D01*
X1313278Y-192739D01*
X1309897Y-192294D01*
D02*
G37*
G36*
X1044820Y-212352D02*
X1042463Y-212820D01*
X1040465Y-214155D01*
X1039130Y-216153D01*
X1038662Y-218510D01*
X1039130Y-220867D01*
X1040465Y-222865D01*
X1042463Y-224200D01*
X1044820Y-224668D01*
X1047177Y-224200D01*
X1049175Y-222865D01*
X1050510Y-220867D01*
X1050978Y-218510D01*
X1050510Y-216153D01*
X1049175Y-214155D01*
X1047177Y-212820D01*
X1044820Y-212352D01*
D02*
G37*
G36*
X603820D02*
X601463Y-212820D01*
X599465Y-214155D01*
X598130Y-216153D01*
X597662Y-218510D01*
X598130Y-220867D01*
X599465Y-222865D01*
X601463Y-224200D01*
X603820Y-224668D01*
X606177Y-224200D01*
X608175Y-222865D01*
X609510Y-220867D01*
X609978Y-218510D01*
X609510Y-216153D01*
X608175Y-214155D01*
X606177Y-212820D01*
X603820Y-212352D01*
D02*
G37*
G36*
X1365014Y-205502D02*
X1361633Y-205947D01*
X1358482Y-207253D01*
X1355776Y-209329D01*
X1353699Y-212035D01*
X1352394Y-215186D01*
X1351949Y-218568D01*
X1352394Y-221950D01*
X1353699Y-225101D01*
X1355776Y-227807D01*
X1358482Y-229883D01*
X1361633Y-231189D01*
X1365014Y-231634D01*
X1368396Y-231189D01*
X1371547Y-229883D01*
X1374253Y-227807D01*
X1376330Y-225101D01*
X1377635Y-221950D01*
X1378080Y-218568D01*
X1377635Y-215186D01*
X1376330Y-212035D01*
X1374253Y-209329D01*
X1371547Y-207253D01*
X1368396Y-205947D01*
X1365014Y-205502D01*
D02*
G37*
G36*
X1137850Y-236653D02*
X1135493Y-237122D01*
X1133495Y-238456D01*
X1132160Y-240454D01*
X1131692Y-242811D01*
X1132160Y-245168D01*
X1133495Y-247166D01*
X1135493Y-248501D01*
X1137850Y-248969D01*
X1140207Y-248501D01*
X1142205Y-247166D01*
X1143540Y-245168D01*
X1144008Y-242811D01*
X1143540Y-240454D01*
X1142205Y-238456D01*
X1140207Y-237122D01*
X1137850Y-236653D01*
D02*
G37*
G36*
X990501D02*
X988144Y-237122D01*
X986146Y-238456D01*
X984811Y-240454D01*
X984343Y-242811D01*
X984811Y-245168D01*
X986146Y-247166D01*
X988144Y-248501D01*
X990501Y-248969D01*
X992858Y-248501D01*
X994856Y-247166D01*
X996190Y-245168D01*
X996659Y-242811D01*
X996190Y-240454D01*
X994856Y-238456D01*
X992858Y-237122D01*
X990501Y-236653D01*
D02*
G37*
G36*
X696850D02*
X694493Y-237122D01*
X692495Y-238456D01*
X691161Y-240454D01*
X690692Y-242811D01*
X691161Y-245168D01*
X692495Y-247166D01*
X694493Y-248501D01*
X696850Y-248969D01*
X699207Y-248501D01*
X701205Y-247166D01*
X702540Y-245168D01*
X703008Y-242811D01*
X702540Y-240454D01*
X701205Y-238456D01*
X699207Y-237122D01*
X696850Y-236653D01*
D02*
G37*
G36*
X549501D02*
X547144Y-237122D01*
X545146Y-238456D01*
X543811Y-240454D01*
X543343Y-242811D01*
X543811Y-245168D01*
X545146Y-247166D01*
X547144Y-248501D01*
X549501Y-248969D01*
X551858Y-248501D01*
X553856Y-247166D01*
X555191Y-245168D01*
X555659Y-242811D01*
X555191Y-240454D01*
X553856Y-238456D01*
X551858Y-237122D01*
X549501Y-236653D01*
D02*
G37*
G36*
X1423689Y-210967D02*
X1419332Y-211397D01*
X1415142Y-212667D01*
X1411281Y-214731D01*
X1407897Y-217509D01*
X1405120Y-220893D01*
X1403056Y-224754D01*
X1401785Y-228943D01*
X1401356Y-233300D01*
X1401785Y-237657D01*
X1403056Y-241846D01*
X1405120Y-245707D01*
X1407897Y-249091D01*
X1411281Y-251869D01*
X1415142Y-253933D01*
X1419332Y-255203D01*
X1423689Y-255632D01*
X1428045Y-255203D01*
X1432235Y-253933D01*
X1436096Y-251869D01*
X1439480Y-249091D01*
X1442257Y-245707D01*
X1444321Y-241846D01*
X1445592Y-237657D01*
X1446021Y-233300D01*
X1445592Y-228943D01*
X1444321Y-224754D01*
X1442257Y-220893D01*
X1439480Y-217509D01*
X1436096Y-214731D01*
X1432235Y-212667D01*
X1428045Y-211397D01*
X1423689Y-210967D01*
D02*
G37*
G36*
X1334789Y-235752D02*
X1332136Y-236101D01*
X1329665Y-237125D01*
X1327542Y-238754D01*
X1325914Y-240876D01*
X1324890Y-243348D01*
X1324541Y-246000D01*
X1324890Y-248652D01*
X1325914Y-251124D01*
X1327542Y-253246D01*
X1329665Y-254875D01*
X1332136Y-255898D01*
X1334789Y-256248D01*
X1337441Y-255898D01*
X1339912Y-254875D01*
X1342035Y-253246D01*
X1343663Y-251124D01*
X1344687Y-248652D01*
X1345036Y-246000D01*
X1344687Y-243348D01*
X1343663Y-240876D01*
X1342035Y-238754D01*
X1339912Y-237125D01*
X1337441Y-236101D01*
X1334789Y-235752D01*
D02*
G37*
G36*
X1269003D02*
X1266350Y-236101D01*
X1263879Y-237125D01*
X1261756Y-238754D01*
X1260128Y-240876D01*
X1259104Y-243348D01*
X1258755Y-246000D01*
X1259104Y-248652D01*
X1260128Y-251124D01*
X1261756Y-253246D01*
X1263879Y-254875D01*
X1266350Y-255898D01*
X1269003Y-256248D01*
X1271655Y-255898D01*
X1274126Y-254875D01*
X1276249Y-253246D01*
X1277877Y-251124D01*
X1278901Y-248652D01*
X1279250Y-246000D01*
X1278901Y-243348D01*
X1277877Y-240876D01*
X1276249Y-238754D01*
X1274126Y-237125D01*
X1271655Y-236101D01*
X1269003Y-235752D01*
D02*
G37*
G36*
X1204800Y-239452D02*
X1202443Y-239921D01*
X1200445Y-241255D01*
X1199110Y-243253D01*
X1198642Y-245610D01*
X1199110Y-247967D01*
X1200336Y-249801D01*
X1200461Y-250332D01*
Y-250888D01*
X1200336Y-251419D01*
X1199110Y-253253D01*
X1198642Y-255610D01*
X1199110Y-257967D01*
X1200445Y-259965D01*
X1202443Y-261300D01*
X1204800Y-261768D01*
X1207157Y-261300D01*
X1209155Y-259965D01*
X1210490Y-257967D01*
X1210958Y-255610D01*
X1210490Y-253253D01*
X1209264Y-251419D01*
X1209139Y-250888D01*
Y-250332D01*
X1209264Y-249801D01*
X1210490Y-247967D01*
X1210958Y-245610D01*
X1210490Y-243253D01*
X1209155Y-241255D01*
X1207157Y-239921D01*
X1204800Y-239452D01*
D02*
G37*
G36*
X763800D02*
X761443Y-239921D01*
X759445Y-241255D01*
X758110Y-243253D01*
X757642Y-245610D01*
X758110Y-247967D01*
X759336Y-249801D01*
X759461Y-250332D01*
Y-250888D01*
X759336Y-251419D01*
X758110Y-253253D01*
X757642Y-255610D01*
X758110Y-257967D01*
X759445Y-259965D01*
X761443Y-261300D01*
X763800Y-261768D01*
X766157Y-261300D01*
X768155Y-259965D01*
X769490Y-257967D01*
X769958Y-255610D01*
X769490Y-253253D01*
X768264Y-251419D01*
X768139Y-250888D01*
Y-250332D01*
X768264Y-249801D01*
X769490Y-247967D01*
X769958Y-245610D01*
X769490Y-243253D01*
X768155Y-241255D01*
X766157Y-239921D01*
X763800Y-239452D01*
D02*
G37*
G36*
X1137850Y-253651D02*
X1135493Y-254120D01*
X1133495Y-255455D01*
X1132160Y-257453D01*
X1131692Y-259809D01*
X1132160Y-262166D01*
X1133495Y-264164D01*
X1135493Y-265499D01*
X1137850Y-265968D01*
X1140207Y-265499D01*
X1142205Y-264164D01*
X1143540Y-262166D01*
X1144008Y-259809D01*
X1143540Y-257453D01*
X1142205Y-255455D01*
X1140207Y-254120D01*
X1137850Y-253651D01*
D02*
G37*
G36*
X990299D02*
X987942Y-254120D01*
X985945Y-255455D01*
X984610Y-257453D01*
X984141Y-259809D01*
X984610Y-262166D01*
X985945Y-264164D01*
X987942Y-265499D01*
X990299Y-265968D01*
X992656Y-265499D01*
X994654Y-264164D01*
X995989Y-262166D01*
X996458Y-259809D01*
X995989Y-257453D01*
X994654Y-255455D01*
X992656Y-254120D01*
X990299Y-253651D01*
D02*
G37*
G36*
X696850D02*
X694493Y-254120D01*
X692495Y-255455D01*
X691161Y-257453D01*
X690692Y-259809D01*
X691161Y-262166D01*
X692495Y-264164D01*
X694493Y-265499D01*
X696850Y-265968D01*
X699207Y-265499D01*
X701205Y-264164D01*
X702540Y-262166D01*
X703008Y-259809D01*
X702540Y-257453D01*
X701205Y-255455D01*
X699207Y-254120D01*
X696850Y-253651D01*
D02*
G37*
G36*
X549299D02*
X546942Y-254120D01*
X544944Y-255455D01*
X543610Y-257453D01*
X543141Y-259809D01*
X543610Y-262166D01*
X544944Y-264164D01*
X546942Y-265499D01*
X549299Y-265968D01*
X551656Y-265499D01*
X553654Y-264164D01*
X554989Y-262166D01*
X555457Y-259809D01*
X554989Y-257453D01*
X553654Y-255455D01*
X551656Y-254120D01*
X549299Y-253651D01*
D02*
G37*
G36*
X1360188Y-248452D02*
X1357536Y-248801D01*
X1355065Y-249825D01*
X1352942Y-251454D01*
X1351314Y-253576D01*
X1350290Y-256048D01*
X1349941Y-258700D01*
X1350290Y-261352D01*
X1351314Y-263824D01*
X1352942Y-265946D01*
X1355065Y-267575D01*
X1357536Y-268598D01*
X1360188Y-268948D01*
X1362841Y-268598D01*
X1365312Y-267575D01*
X1367435Y-265946D01*
X1369063Y-263824D01*
X1370087Y-261352D01*
X1370436Y-258700D01*
X1370087Y-256048D01*
X1369063Y-253576D01*
X1367435Y-251454D01*
X1365312Y-249825D01*
X1362841Y-248801D01*
X1360188Y-248452D01*
D02*
G37*
G36*
X1294402D02*
X1291750Y-248801D01*
X1289279Y-249825D01*
X1287156Y-251454D01*
X1285528Y-253576D01*
X1284504Y-256048D01*
X1284155Y-258700D01*
X1284504Y-261352D01*
X1285528Y-263824D01*
X1287156Y-265946D01*
X1289279Y-267575D01*
X1291750Y-268598D01*
X1294402Y-268948D01*
X1297055Y-268598D01*
X1299526Y-267575D01*
X1301649Y-265946D01*
X1303277Y-263824D01*
X1304301Y-261352D01*
X1304650Y-258700D01*
X1304301Y-256048D01*
X1303277Y-253576D01*
X1301649Y-251454D01*
X1299526Y-249825D01*
X1297055Y-248801D01*
X1294402Y-248452D01*
D02*
G37*
G36*
X1075400Y-258552D02*
X1073043Y-259021D01*
X1071045Y-260355D01*
X1069710Y-262353D01*
X1069242Y-264710D01*
X1069710Y-267067D01*
X1071045Y-269065D01*
X1073043Y-270400D01*
X1075400Y-270868D01*
X1077757Y-270400D01*
X1079755Y-269065D01*
X1081089Y-267067D01*
X1081558Y-264710D01*
X1081089Y-262353D01*
X1079755Y-260355D01*
X1077757Y-259021D01*
X1075400Y-258552D01*
D02*
G37*
G36*
X634400D02*
X632043Y-259021D01*
X630045Y-260355D01*
X628710Y-262353D01*
X628242Y-264710D01*
X628710Y-267067D01*
X630045Y-269065D01*
X632043Y-270400D01*
X634400Y-270868D01*
X636757Y-270400D01*
X638755Y-269065D01*
X640089Y-267067D01*
X640558Y-264710D01*
X640089Y-262353D01*
X638755Y-260355D01*
X636757Y-259021D01*
X634400Y-258552D01*
D02*
G37*
G36*
X1020400Y-259405D02*
X1018432Y-259664D01*
X1016598Y-260424D01*
X1015022Y-261632D01*
X1013814Y-263207D01*
X1013054Y-265042D01*
X1012795Y-267010D01*
X1013054Y-268978D01*
X1013814Y-270813D01*
X1015022Y-272388D01*
X1016598Y-273596D01*
X1018432Y-274356D01*
X1020400Y-274615D01*
X1022368Y-274356D01*
X1024202Y-273596D01*
X1025778Y-272388D01*
X1026986Y-270813D01*
X1027746Y-268978D01*
X1028005Y-267010D01*
X1027746Y-265042D01*
X1026986Y-263207D01*
X1025778Y-261632D01*
X1024202Y-260424D01*
X1022368Y-259664D01*
X1020400Y-259405D01*
D02*
G37*
G36*
X579400D02*
X577432Y-259664D01*
X575597Y-260424D01*
X574022Y-261632D01*
X572814Y-263207D01*
X572054Y-265042D01*
X571795Y-267010D01*
X572054Y-268978D01*
X572814Y-270813D01*
X574022Y-272388D01*
X575597Y-273596D01*
X577432Y-274356D01*
X579400Y-274615D01*
X581368Y-274356D01*
X583203Y-273596D01*
X584778Y-272388D01*
X585986Y-270813D01*
X586746Y-268978D01*
X587005Y-267010D01*
X586746Y-265042D01*
X585986Y-263207D01*
X584778Y-261632D01*
X583203Y-260424D01*
X581368Y-259664D01*
X579400Y-259405D01*
D02*
G37*
G36*
X1334789Y-261152D02*
X1332136Y-261502D01*
X1329665Y-262525D01*
X1327542Y-264154D01*
X1325914Y-266276D01*
X1324890Y-268748D01*
X1324541Y-271400D01*
X1324890Y-274052D01*
X1325914Y-276524D01*
X1327542Y-278646D01*
X1329665Y-280275D01*
X1332136Y-281299D01*
X1334789Y-281648D01*
X1337441Y-281299D01*
X1339912Y-280275D01*
X1342035Y-278646D01*
X1343663Y-276524D01*
X1344687Y-274052D01*
X1345036Y-271400D01*
X1344687Y-268748D01*
X1343663Y-266276D01*
X1342035Y-264154D01*
X1339912Y-262525D01*
X1337441Y-261502D01*
X1334789Y-261152D01*
D02*
G37*
G36*
X1269003D02*
X1266350Y-261502D01*
X1263879Y-262525D01*
X1261756Y-264154D01*
X1260128Y-266276D01*
X1259104Y-268748D01*
X1258755Y-271400D01*
X1259104Y-274052D01*
X1260128Y-276524D01*
X1261756Y-278646D01*
X1263879Y-280275D01*
X1266350Y-281299D01*
X1269003Y-281648D01*
X1271655Y-281299D01*
X1274126Y-280275D01*
X1276249Y-278646D01*
X1277877Y-276524D01*
X1278901Y-274052D01*
X1279250Y-271400D01*
X1278901Y-268748D01*
X1277877Y-266276D01*
X1276249Y-264154D01*
X1274126Y-262525D01*
X1271655Y-261502D01*
X1269003Y-261152D01*
D02*
G37*
G36*
X1360188Y-273852D02*
X1357536Y-274202D01*
X1355065Y-275225D01*
X1352942Y-276854D01*
X1351314Y-278976D01*
X1350290Y-281448D01*
X1349941Y-284100D01*
X1350290Y-286752D01*
X1351314Y-289224D01*
X1352942Y-291346D01*
X1355065Y-292975D01*
X1357536Y-293999D01*
X1360188Y-294348D01*
X1362841Y-293999D01*
X1365312Y-292975D01*
X1367435Y-291346D01*
X1369063Y-289224D01*
X1370087Y-286752D01*
X1370436Y-284100D01*
X1370087Y-281448D01*
X1369063Y-278976D01*
X1367435Y-276854D01*
X1365312Y-275225D01*
X1362841Y-274202D01*
X1360188Y-273852D01*
D02*
G37*
G36*
X1294402D02*
X1291750Y-274202D01*
X1289279Y-275225D01*
X1287156Y-276854D01*
X1285528Y-278976D01*
X1284504Y-281448D01*
X1284155Y-284100D01*
X1284504Y-286752D01*
X1285528Y-289224D01*
X1287156Y-291346D01*
X1289279Y-292975D01*
X1291750Y-293999D01*
X1294402Y-294348D01*
X1297055Y-293999D01*
X1299526Y-292975D01*
X1301649Y-291346D01*
X1303277Y-289224D01*
X1304301Y-286752D01*
X1304650Y-284100D01*
X1304301Y-281448D01*
X1303277Y-278976D01*
X1301649Y-276854D01*
X1299526Y-275225D01*
X1297055Y-274202D01*
X1294402Y-273852D01*
D02*
G37*
G36*
X990300Y-284852D02*
X987943Y-285320D01*
X985945Y-286655D01*
X984610Y-288653D01*
X984142Y-291010D01*
X984610Y-293367D01*
X985945Y-295365D01*
X987943Y-296700D01*
X990300Y-297168D01*
X992657Y-296700D01*
X994655Y-295365D01*
X995990Y-293367D01*
X996458Y-291010D01*
X995990Y-288653D01*
X994655Y-286655D01*
X992657Y-285320D01*
X990300Y-284852D01*
D02*
G37*
G36*
X549300D02*
X546943Y-285320D01*
X544945Y-286655D01*
X543610Y-288653D01*
X543142Y-291010D01*
X543610Y-293367D01*
X544945Y-295365D01*
X546943Y-296700D01*
X549300Y-297168D01*
X551657Y-296700D01*
X553655Y-295365D01*
X554990Y-293367D01*
X555458Y-291010D01*
X554990Y-288653D01*
X553655Y-286655D01*
X551657Y-285320D01*
X549300Y-284852D01*
D02*
G37*
G36*
X1005900Y-287252D02*
X1003543Y-287721D01*
X1001545Y-289055D01*
X1000210Y-291053D01*
X999742Y-293410D01*
X1000210Y-295767D01*
X1001545Y-297765D01*
X1003543Y-299100D01*
X1005900Y-299568D01*
X1008257Y-299100D01*
X1010255Y-297765D01*
X1011590Y-295767D01*
X1012058Y-293410D01*
X1011590Y-291053D01*
X1010255Y-289055D01*
X1008257Y-287721D01*
X1005900Y-287252D01*
D02*
G37*
G36*
X564900D02*
X562543Y-287721D01*
X560545Y-289055D01*
X559210Y-291053D01*
X558742Y-293410D01*
X559210Y-295767D01*
X560545Y-297765D01*
X562543Y-299100D01*
X564900Y-299568D01*
X567257Y-299100D01*
X569254Y-297765D01*
X570589Y-295767D01*
X571058Y-293410D01*
X570589Y-291053D01*
X569254Y-289055D01*
X567257Y-287721D01*
X564900Y-287252D01*
D02*
G37*
G36*
X1137850Y-288452D02*
X1135493Y-288920D01*
X1133495Y-290255D01*
X1132160Y-292253D01*
X1131692Y-294610D01*
X1132160Y-296967D01*
X1133495Y-298965D01*
X1135493Y-300300D01*
X1137850Y-300768D01*
X1140207Y-300300D01*
X1142205Y-298965D01*
X1143540Y-296967D01*
X1144008Y-294610D01*
X1143540Y-292253D01*
X1142205Y-290255D01*
X1140207Y-288920D01*
X1137850Y-288452D01*
D02*
G37*
G36*
X696850D02*
X694493Y-288920D01*
X692495Y-290255D01*
X691161Y-292253D01*
X690692Y-294610D01*
X691161Y-296967D01*
X692495Y-298965D01*
X694493Y-300300D01*
X696850Y-300768D01*
X699207Y-300300D01*
X701205Y-298965D01*
X702540Y-296967D01*
X703008Y-294610D01*
X702540Y-292253D01*
X701205Y-290255D01*
X699207Y-288920D01*
X696850Y-288452D01*
D02*
G37*
G36*
X1089400Y-291352D02*
X1087043Y-291821D01*
X1085045Y-293155D01*
X1083710Y-295153D01*
X1083242Y-297510D01*
X1083710Y-299867D01*
X1085045Y-301865D01*
X1087043Y-303200D01*
X1089400Y-303668D01*
X1091757Y-303200D01*
X1093755Y-301865D01*
X1095089Y-299867D01*
X1095558Y-297510D01*
X1095089Y-295153D01*
X1093755Y-293155D01*
X1091757Y-291821D01*
X1089400Y-291352D01*
D02*
G37*
G36*
X648400D02*
X646043Y-291821D01*
X644045Y-293155D01*
X642710Y-295153D01*
X642242Y-297510D01*
X642710Y-299867D01*
X644045Y-301865D01*
X646043Y-303200D01*
X648400Y-303668D01*
X650757Y-303200D01*
X652755Y-301865D01*
X654090Y-299867D01*
X654558Y-297510D01*
X654090Y-295153D01*
X652755Y-293155D01*
X650757Y-291821D01*
X648400Y-291352D01*
D02*
G37*
G36*
X1334789Y-286552D02*
X1332136Y-286901D01*
X1329665Y-287925D01*
X1327542Y-289554D01*
X1325914Y-291676D01*
X1324890Y-294148D01*
X1324541Y-296800D01*
X1324890Y-299452D01*
X1325914Y-301924D01*
X1327542Y-304046D01*
X1329665Y-305675D01*
X1332136Y-306698D01*
X1334789Y-307048D01*
X1337441Y-306698D01*
X1339912Y-305675D01*
X1342035Y-304046D01*
X1343663Y-301924D01*
X1344687Y-299452D01*
X1345036Y-296800D01*
X1344687Y-294148D01*
X1343663Y-291676D01*
X1342035Y-289554D01*
X1339912Y-287925D01*
X1337441Y-286901D01*
X1334789Y-286552D01*
D02*
G37*
G36*
X1269003D02*
X1266350Y-286901D01*
X1263879Y-287925D01*
X1261756Y-289554D01*
X1260128Y-291676D01*
X1259104Y-294148D01*
X1258755Y-296800D01*
X1259104Y-299452D01*
X1260128Y-301924D01*
X1261756Y-304046D01*
X1263879Y-305675D01*
X1266350Y-306698D01*
X1269003Y-307048D01*
X1271655Y-306698D01*
X1274126Y-305675D01*
X1276249Y-304046D01*
X1277877Y-301924D01*
X1278901Y-299452D01*
X1279250Y-296800D01*
X1278901Y-294148D01*
X1277877Y-291676D01*
X1276249Y-289554D01*
X1274126Y-287925D01*
X1271655Y-286901D01*
X1269003Y-286552D01*
D02*
G37*
G36*
X1204975Y-291277D02*
X1202618Y-291745D01*
X1200620Y-293080D01*
X1199286Y-295078D01*
X1198817Y-297435D01*
X1199286Y-299792D01*
X1200511Y-301626D01*
X1200636Y-302157D01*
Y-302713D01*
X1200511Y-303244D01*
X1199286Y-305078D01*
X1198817Y-307435D01*
X1199286Y-309792D01*
X1200620Y-311789D01*
X1202618Y-313125D01*
X1204975Y-313593D01*
X1207332Y-313125D01*
X1209330Y-311789D01*
X1210665Y-309792D01*
X1211133Y-307435D01*
X1210665Y-305078D01*
X1209439Y-303244D01*
X1209314Y-302713D01*
Y-302157D01*
X1209439Y-301626D01*
X1210665Y-299792D01*
X1211133Y-297435D01*
X1210665Y-295078D01*
X1209330Y-293080D01*
X1207332Y-291745D01*
X1204975Y-291277D01*
D02*
G37*
G36*
X763975D02*
X761618Y-291745D01*
X759620Y-293080D01*
X758286Y-295078D01*
X757817Y-297435D01*
X758286Y-299792D01*
X759511Y-301626D01*
X759636Y-302157D01*
Y-302713D01*
X759511Y-303244D01*
X758286Y-305078D01*
X757817Y-307435D01*
X758286Y-309792D01*
X759620Y-311789D01*
X761618Y-313125D01*
X763975Y-313593D01*
X766332Y-313125D01*
X768330Y-311789D01*
X769665Y-309792D01*
X770133Y-307435D01*
X769665Y-305078D01*
X768439Y-303244D01*
X768314Y-302713D01*
Y-302157D01*
X768439Y-301626D01*
X769665Y-299792D01*
X770133Y-297435D01*
X769665Y-295078D01*
X768330Y-293080D01*
X766332Y-291745D01*
X763975Y-291277D01*
D02*
G37*
G36*
X990800Y-303452D02*
X988443Y-303920D01*
X986445Y-305255D01*
X985110Y-307253D01*
X984642Y-309610D01*
X985110Y-311967D01*
X986445Y-313965D01*
X988443Y-315299D01*
X990800Y-315768D01*
X993157Y-315299D01*
X995155Y-313965D01*
X996489Y-311967D01*
X996958Y-309610D01*
X996489Y-307253D01*
X995155Y-305255D01*
X993157Y-303920D01*
X990800Y-303452D01*
D02*
G37*
G36*
X549800D02*
X547443Y-303920D01*
X545445Y-305255D01*
X544110Y-307253D01*
X543642Y-309610D01*
X544110Y-311967D01*
X545445Y-313965D01*
X547443Y-315299D01*
X549800Y-315768D01*
X552157Y-315299D01*
X554155Y-313965D01*
X555490Y-311967D01*
X555958Y-309610D01*
X555490Y-307253D01*
X554155Y-305255D01*
X552157Y-303920D01*
X549800Y-303452D01*
D02*
G37*
G36*
X1137850Y-305152D02*
X1135493Y-305620D01*
X1133495Y-306955D01*
X1132160Y-308953D01*
X1131692Y-311310D01*
X1132160Y-313667D01*
X1133495Y-315665D01*
X1135493Y-317000D01*
X1137850Y-317468D01*
X1140207Y-317000D01*
X1142205Y-315665D01*
X1143540Y-313667D01*
X1144008Y-311310D01*
X1143540Y-308953D01*
X1142205Y-306955D01*
X1140207Y-305620D01*
X1137850Y-305152D01*
D02*
G37*
G36*
X696850D02*
X694493Y-305620D01*
X692495Y-306955D01*
X691161Y-308953D01*
X690692Y-311310D01*
X691161Y-313667D01*
X692495Y-315665D01*
X694493Y-317000D01*
X696850Y-317468D01*
X699207Y-317000D01*
X701205Y-315665D01*
X702540Y-313667D01*
X703008Y-311310D01*
X702540Y-308953D01*
X701205Y-306955D01*
X699207Y-305620D01*
X696850Y-305152D01*
D02*
G37*
G36*
X1360188Y-299252D02*
X1357536Y-299601D01*
X1355065Y-300625D01*
X1352942Y-302254D01*
X1351314Y-304376D01*
X1350290Y-306848D01*
X1349941Y-309500D01*
X1350290Y-312152D01*
X1351314Y-314624D01*
X1352942Y-316746D01*
X1355065Y-318375D01*
X1357536Y-319398D01*
X1360188Y-319748D01*
X1362841Y-319398D01*
X1365312Y-318375D01*
X1367435Y-316746D01*
X1369063Y-314624D01*
X1370087Y-312152D01*
X1370436Y-309500D01*
X1370087Y-306848D01*
X1369063Y-304376D01*
X1367435Y-302254D01*
X1365312Y-300625D01*
X1362841Y-299601D01*
X1360188Y-299252D01*
D02*
G37*
G36*
X1294402D02*
X1291750Y-299601D01*
X1289279Y-300625D01*
X1287156Y-302254D01*
X1285528Y-304376D01*
X1284504Y-306848D01*
X1284155Y-309500D01*
X1284504Y-312152D01*
X1285528Y-314624D01*
X1287156Y-316746D01*
X1289279Y-318375D01*
X1291750Y-319398D01*
X1294402Y-319748D01*
X1297055Y-319398D01*
X1299526Y-318375D01*
X1301649Y-316746D01*
X1303277Y-314624D01*
X1304301Y-312152D01*
X1304650Y-309500D01*
X1304301Y-306848D01*
X1303277Y-304376D01*
X1301649Y-302254D01*
X1299526Y-300625D01*
X1297055Y-299601D01*
X1294402Y-299252D01*
D02*
G37*
G36*
X1005300Y-312852D02*
X1002943Y-313321D01*
X1000945Y-314655D01*
X999610Y-316653D01*
X999142Y-319010D01*
X999610Y-321367D01*
X1000945Y-323365D01*
X1002943Y-324700D01*
X1005300Y-325168D01*
X1007657Y-324700D01*
X1009654Y-323365D01*
X1010990Y-321367D01*
X1011458Y-319010D01*
X1010990Y-316653D01*
X1009654Y-314655D01*
X1007657Y-313321D01*
X1005300Y-312852D01*
D02*
G37*
G36*
X564300D02*
X561943Y-313321D01*
X559945Y-314655D01*
X558610Y-316653D01*
X558142Y-319010D01*
X558610Y-321367D01*
X559945Y-323365D01*
X561943Y-324700D01*
X564300Y-325168D01*
X566657Y-324700D01*
X568655Y-323365D01*
X569990Y-321367D01*
X570458Y-319010D01*
X569990Y-316653D01*
X568655Y-314655D01*
X566657Y-313321D01*
X564300Y-312852D01*
D02*
G37*
G36*
X1090300Y-316052D02*
X1087943Y-316521D01*
X1085945Y-317855D01*
X1084610Y-319853D01*
X1084142Y-322210D01*
X1084610Y-324567D01*
X1085945Y-326565D01*
X1087943Y-327900D01*
X1090300Y-328368D01*
X1092657Y-327900D01*
X1094655Y-326565D01*
X1095990Y-324567D01*
X1096458Y-322210D01*
X1095990Y-319853D01*
X1094655Y-317855D01*
X1092657Y-316521D01*
X1090300Y-316052D01*
D02*
G37*
G36*
X649300D02*
X646943Y-316521D01*
X644945Y-317855D01*
X643610Y-319853D01*
X643142Y-322210D01*
X643610Y-324567D01*
X644945Y-326565D01*
X646943Y-327900D01*
X649300Y-328368D01*
X651657Y-327900D01*
X653655Y-326565D01*
X654989Y-324567D01*
X655458Y-322210D01*
X654989Y-319853D01*
X653655Y-317855D01*
X651657Y-316521D01*
X649300Y-316052D01*
D02*
G37*
G36*
X1334789Y-311952D02*
X1332136Y-312302D01*
X1329665Y-313325D01*
X1327542Y-314954D01*
X1325914Y-317076D01*
X1324890Y-319548D01*
X1324541Y-322200D01*
X1324890Y-324852D01*
X1325914Y-327324D01*
X1327542Y-329446D01*
X1329665Y-331075D01*
X1332136Y-332099D01*
X1334789Y-332448D01*
X1337441Y-332099D01*
X1339912Y-331075D01*
X1342035Y-329446D01*
X1343663Y-327324D01*
X1344687Y-324852D01*
X1345036Y-322200D01*
X1344687Y-319548D01*
X1343663Y-317076D01*
X1342035Y-314954D01*
X1339912Y-313325D01*
X1337441Y-312302D01*
X1334789Y-311952D01*
D02*
G37*
G36*
X1269003D02*
X1266350Y-312302D01*
X1263879Y-313325D01*
X1261756Y-314954D01*
X1260128Y-317076D01*
X1259104Y-319548D01*
X1258755Y-322200D01*
X1259104Y-324852D01*
X1260128Y-327324D01*
X1261756Y-329446D01*
X1263879Y-331075D01*
X1266350Y-332099D01*
X1269003Y-332448D01*
X1271655Y-332099D01*
X1274126Y-331075D01*
X1276249Y-329446D01*
X1277877Y-327324D01*
X1278901Y-324852D01*
X1279250Y-322200D01*
X1278901Y-319548D01*
X1277877Y-317076D01*
X1276249Y-314954D01*
X1274126Y-313325D01*
X1271655Y-312302D01*
X1269003Y-311952D01*
D02*
G37*
G36*
X1360188Y-324652D02*
X1357536Y-325001D01*
X1355065Y-326025D01*
X1352942Y-327654D01*
X1351314Y-329776D01*
X1350290Y-332248D01*
X1349941Y-334900D01*
X1350290Y-337552D01*
X1351314Y-340024D01*
X1352942Y-342146D01*
X1355065Y-343775D01*
X1357536Y-344799D01*
X1360188Y-345148D01*
X1362841Y-344799D01*
X1365312Y-343775D01*
X1367435Y-342146D01*
X1369063Y-340024D01*
X1370087Y-337552D01*
X1370436Y-334900D01*
X1370087Y-332248D01*
X1369063Y-329776D01*
X1367435Y-327654D01*
X1365312Y-326025D01*
X1362841Y-325001D01*
X1360188Y-324652D01*
D02*
G37*
G36*
X1294402D02*
X1291750Y-325001D01*
X1289279Y-326025D01*
X1287156Y-327654D01*
X1285528Y-329776D01*
X1284504Y-332248D01*
X1284155Y-334900D01*
X1284504Y-337552D01*
X1285528Y-340024D01*
X1287156Y-342146D01*
X1289279Y-343775D01*
X1291750Y-344799D01*
X1294402Y-345148D01*
X1297055Y-344799D01*
X1299526Y-343775D01*
X1301649Y-342146D01*
X1303277Y-340024D01*
X1304301Y-337552D01*
X1304650Y-334900D01*
X1304301Y-332248D01*
X1303277Y-329776D01*
X1301649Y-327654D01*
X1299526Y-326025D01*
X1297055Y-325001D01*
X1294402Y-324652D01*
D02*
G37*
G36*
X987800Y-336452D02*
X985443Y-336921D01*
X983445Y-338255D01*
X982110Y-340253D01*
X981642Y-342610D01*
X982110Y-344967D01*
X983445Y-346965D01*
X985443Y-348300D01*
X987800Y-348768D01*
X990157Y-348300D01*
X992154Y-346965D01*
X993490Y-344967D01*
X993958Y-342610D01*
X993490Y-340253D01*
X992154Y-338255D01*
X990157Y-336921D01*
X987800Y-336452D01*
D02*
G37*
G36*
X546800D02*
X544443Y-336921D01*
X542445Y-338255D01*
X541110Y-340253D01*
X540642Y-342610D01*
X541110Y-344967D01*
X542445Y-346965D01*
X544443Y-348300D01*
X546800Y-348768D01*
X549157Y-348300D01*
X551155Y-346965D01*
X552490Y-344967D01*
X552958Y-342610D01*
X552490Y-340253D01*
X551155Y-338255D01*
X549157Y-336921D01*
X546800Y-336452D01*
D02*
G37*
G36*
X1005500Y-339252D02*
X1003143Y-339720D01*
X1001145Y-341055D01*
X999810Y-343053D01*
X999342Y-345410D01*
X999810Y-347767D01*
X1001145Y-349765D01*
X1003143Y-351100D01*
X1005500Y-351568D01*
X1007857Y-351100D01*
X1009855Y-349765D01*
X1011189Y-347767D01*
X1011658Y-345410D01*
X1011189Y-343053D01*
X1009855Y-341055D01*
X1007857Y-339720D01*
X1005500Y-339252D01*
D02*
G37*
G36*
X564500D02*
X562143Y-339720D01*
X560145Y-341055D01*
X558810Y-343053D01*
X558342Y-345410D01*
X558810Y-347767D01*
X560145Y-349765D01*
X562143Y-351100D01*
X564500Y-351568D01*
X566857Y-351100D01*
X568854Y-349765D01*
X570190Y-347767D01*
X570658Y-345410D01*
X570190Y-343053D01*
X568854Y-341055D01*
X566857Y-339720D01*
X564500Y-339252D01*
D02*
G37*
G36*
X1137850Y-339452D02*
X1135493Y-339921D01*
X1133495Y-341255D01*
X1132160Y-343253D01*
X1131692Y-345610D01*
X1132160Y-347967D01*
X1133495Y-349965D01*
X1135493Y-351300D01*
X1137850Y-351768D01*
X1140207Y-351300D01*
X1142205Y-349965D01*
X1143540Y-347967D01*
X1144008Y-345610D01*
X1143540Y-343253D01*
X1142205Y-341255D01*
X1140207Y-339921D01*
X1137850Y-339452D01*
D02*
G37*
G36*
X696850D02*
X694493Y-339921D01*
X692495Y-341255D01*
X691161Y-343253D01*
X690692Y-345610D01*
X691161Y-347967D01*
X692495Y-349965D01*
X694493Y-351300D01*
X696850Y-351768D01*
X699207Y-351300D01*
X701205Y-349965D01*
X702540Y-347967D01*
X703008Y-345610D01*
X702540Y-343253D01*
X701205Y-341255D01*
X699207Y-339921D01*
X696850Y-339452D01*
D02*
G37*
G36*
X1092500Y-340652D02*
X1090143Y-341120D01*
X1088145Y-342455D01*
X1086811Y-344453D01*
X1086342Y-346810D01*
X1086811Y-349167D01*
X1088145Y-351165D01*
X1090143Y-352500D01*
X1092500Y-352968D01*
X1094857Y-352500D01*
X1096855Y-351165D01*
X1098189Y-349167D01*
X1098658Y-346810D01*
X1098189Y-344453D01*
X1096855Y-342455D01*
X1094857Y-341120D01*
X1092500Y-340652D01*
D02*
G37*
G36*
X651500D02*
X649143Y-341120D01*
X647145Y-342455D01*
X645810Y-344453D01*
X645342Y-346810D01*
X645810Y-349167D01*
X647145Y-351165D01*
X649143Y-352500D01*
X651500Y-352968D01*
X653857Y-352500D01*
X655855Y-351165D01*
X657189Y-349167D01*
X657658Y-346810D01*
X657189Y-344453D01*
X655855Y-342455D01*
X653857Y-341120D01*
X651500Y-340652D01*
D02*
G37*
G36*
X1204975Y-342277D02*
X1202618Y-342746D01*
X1200620Y-344080D01*
X1199286Y-346078D01*
X1198817Y-348435D01*
X1199286Y-350792D01*
X1200511Y-352626D01*
X1200636Y-353157D01*
Y-353713D01*
X1200511Y-354244D01*
X1199286Y-356078D01*
X1198817Y-358435D01*
X1199286Y-360792D01*
X1200620Y-362789D01*
X1202618Y-364124D01*
X1204975Y-364593D01*
X1207332Y-364124D01*
X1209330Y-362789D01*
X1210665Y-360792D01*
X1211133Y-358435D01*
X1210665Y-356078D01*
X1209439Y-354244D01*
X1209314Y-353713D01*
Y-353157D01*
X1209439Y-352626D01*
X1210665Y-350792D01*
X1211133Y-348435D01*
X1210665Y-346078D01*
X1209330Y-344080D01*
X1207332Y-342746D01*
X1204975Y-342277D01*
D02*
G37*
G36*
X763975D02*
X761618Y-342746D01*
X759620Y-344080D01*
X758286Y-346078D01*
X757817Y-348435D01*
X758286Y-350792D01*
X759511Y-352626D01*
X759636Y-353157D01*
Y-353713D01*
X759511Y-354244D01*
X758286Y-356078D01*
X757817Y-358435D01*
X758286Y-360792D01*
X759620Y-362789D01*
X761618Y-364124D01*
X763975Y-364593D01*
X766332Y-364124D01*
X768330Y-362789D01*
X769665Y-360792D01*
X770133Y-358435D01*
X769665Y-356078D01*
X768439Y-354244D01*
X768314Y-353713D01*
Y-353157D01*
X768439Y-352626D01*
X769665Y-350792D01*
X770133Y-348435D01*
X769665Y-346078D01*
X768330Y-344080D01*
X766332Y-342746D01*
X763975Y-342277D01*
D02*
G37*
G36*
X988900Y-355952D02*
X986543Y-356421D01*
X984545Y-357755D01*
X983210Y-359753D01*
X982742Y-362110D01*
X983210Y-364467D01*
X984545Y-366465D01*
X986543Y-367800D01*
X988900Y-368268D01*
X991257Y-367800D01*
X993254Y-366465D01*
X994589Y-364467D01*
X995058Y-362110D01*
X994589Y-359753D01*
X993254Y-357755D01*
X991257Y-356421D01*
X988900Y-355952D01*
D02*
G37*
G36*
X547900D02*
X545543Y-356421D01*
X543545Y-357755D01*
X542210Y-359753D01*
X541742Y-362110D01*
X542210Y-364467D01*
X543545Y-366465D01*
X545543Y-367800D01*
X547900Y-368268D01*
X550257Y-367800D01*
X552254Y-366465D01*
X553590Y-364467D01*
X554058Y-362110D01*
X553590Y-359753D01*
X552254Y-357755D01*
X550257Y-356421D01*
X547900Y-355952D01*
D02*
G37*
G36*
X1137850Y-356452D02*
X1135493Y-356920D01*
X1133495Y-358255D01*
X1132160Y-360253D01*
X1131692Y-362610D01*
X1132160Y-364967D01*
X1133495Y-366965D01*
X1135493Y-368299D01*
X1137850Y-368768D01*
X1140207Y-368299D01*
X1142205Y-366965D01*
X1143540Y-364967D01*
X1144008Y-362610D01*
X1143540Y-360253D01*
X1142205Y-358255D01*
X1140207Y-356920D01*
X1137850Y-356452D01*
D02*
G37*
G36*
X696850D02*
X694493Y-356920D01*
X692495Y-358255D01*
X691161Y-360253D01*
X690692Y-362610D01*
X691161Y-364967D01*
X692495Y-366965D01*
X694493Y-368299D01*
X696850Y-368768D01*
X699207Y-368299D01*
X701205Y-366965D01*
X702540Y-364967D01*
X703008Y-362610D01*
X702540Y-360253D01*
X701205Y-358255D01*
X699207Y-356920D01*
X696850Y-356452D01*
D02*
G37*
G36*
X1334789Y-375452D02*
X1332136Y-375802D01*
X1329665Y-376825D01*
X1327542Y-378454D01*
X1325914Y-380576D01*
X1324890Y-383048D01*
X1324541Y-385700D01*
X1324890Y-388352D01*
X1325914Y-390824D01*
X1327542Y-392946D01*
X1329665Y-394575D01*
X1332136Y-395598D01*
X1334789Y-395948D01*
X1337441Y-395598D01*
X1339912Y-394575D01*
X1342035Y-392946D01*
X1343663Y-390824D01*
X1344687Y-388352D01*
X1345036Y-385700D01*
X1344687Y-383048D01*
X1343663Y-380576D01*
X1342035Y-378454D01*
X1339912Y-376825D01*
X1337441Y-375802D01*
X1334789Y-375452D01*
D02*
G37*
G36*
X1269003D02*
X1266350Y-375802D01*
X1263879Y-376825D01*
X1261756Y-378454D01*
X1260128Y-380576D01*
X1259104Y-383048D01*
X1258755Y-385700D01*
X1259104Y-388352D01*
X1260128Y-390824D01*
X1261756Y-392946D01*
X1263879Y-394575D01*
X1266350Y-395598D01*
X1269003Y-395948D01*
X1271655Y-395598D01*
X1274126Y-394575D01*
X1276249Y-392946D01*
X1277877Y-390824D01*
X1278901Y-388352D01*
X1279250Y-385700D01*
X1278901Y-383048D01*
X1277877Y-380576D01*
X1276249Y-378454D01*
X1274126Y-376825D01*
X1271655Y-375802D01*
X1269003Y-375452D01*
D02*
G37*
G36*
X1137850Y-390452D02*
X1135493Y-390920D01*
X1133495Y-392255D01*
X1132160Y-394253D01*
X1131692Y-396610D01*
X1132160Y-398967D01*
X1133495Y-400965D01*
X1135493Y-402300D01*
X1137850Y-402768D01*
X1140207Y-402300D01*
X1142205Y-400965D01*
X1143540Y-398967D01*
X1144008Y-396610D01*
X1143540Y-394253D01*
X1142205Y-392255D01*
X1140207Y-390920D01*
X1137850Y-390452D01*
D02*
G37*
G36*
X987500D02*
X985143Y-390920D01*
X983145Y-392255D01*
X981810Y-394253D01*
X981342Y-396610D01*
X981810Y-398967D01*
X983145Y-400965D01*
X985143Y-402300D01*
X987500Y-402768D01*
X989857Y-402300D01*
X991855Y-400965D01*
X993189Y-398967D01*
X993658Y-396610D01*
X993189Y-394253D01*
X991855Y-392255D01*
X989857Y-390920D01*
X987500Y-390452D01*
D02*
G37*
G36*
X696850D02*
X694493Y-390920D01*
X692495Y-392255D01*
X691161Y-394253D01*
X690692Y-396610D01*
X691161Y-398967D01*
X692495Y-400965D01*
X694493Y-402300D01*
X696850Y-402768D01*
X699207Y-402300D01*
X701205Y-400965D01*
X702540Y-398967D01*
X703008Y-396610D01*
X702540Y-394253D01*
X701205Y-392255D01*
X699207Y-390920D01*
X696850Y-390452D01*
D02*
G37*
G36*
X546500D02*
X544143Y-390920D01*
X542145Y-392255D01*
X540810Y-394253D01*
X540342Y-396610D01*
X540810Y-398967D01*
X542145Y-400965D01*
X544143Y-402300D01*
X546500Y-402768D01*
X548857Y-402300D01*
X550854Y-400965D01*
X552189Y-398967D01*
X552658Y-396610D01*
X552189Y-394253D01*
X550854Y-392255D01*
X548857Y-390920D01*
X546500Y-390452D01*
D02*
G37*
G36*
X1360188Y-388152D02*
X1357536Y-388502D01*
X1355065Y-389525D01*
X1352942Y-391154D01*
X1351314Y-393276D01*
X1350290Y-395748D01*
X1349941Y-398400D01*
X1350290Y-401052D01*
X1351314Y-403524D01*
X1352942Y-405646D01*
X1355065Y-407275D01*
X1357536Y-408298D01*
X1360188Y-408648D01*
X1362841Y-408298D01*
X1365312Y-407275D01*
X1367435Y-405646D01*
X1369063Y-403524D01*
X1370087Y-401052D01*
X1370436Y-398400D01*
X1370087Y-395748D01*
X1369063Y-393276D01*
X1367435Y-391154D01*
X1365312Y-389525D01*
X1362841Y-388502D01*
X1360188Y-388152D01*
D02*
G37*
G36*
X1294402D02*
X1291750Y-388502D01*
X1289279Y-389525D01*
X1287156Y-391154D01*
X1285528Y-393276D01*
X1284504Y-395748D01*
X1284155Y-398400D01*
X1284504Y-401052D01*
X1285528Y-403524D01*
X1287156Y-405646D01*
X1289279Y-407275D01*
X1291750Y-408298D01*
X1294402Y-408648D01*
X1297055Y-408298D01*
X1299526Y-407275D01*
X1301649Y-405646D01*
X1303277Y-403524D01*
X1304301Y-401052D01*
X1304650Y-398400D01*
X1304301Y-395748D01*
X1303277Y-393276D01*
X1301649Y-391154D01*
X1299526Y-389525D01*
X1297055Y-388502D01*
X1294402Y-388152D01*
D02*
G37*
G36*
X1204975Y-393877D02*
X1202618Y-394346D01*
X1200621Y-395681D01*
X1199286Y-397678D01*
X1198817Y-400035D01*
X1199286Y-402392D01*
X1200511Y-404226D01*
X1200636Y-404757D01*
Y-405313D01*
X1200511Y-405844D01*
X1199286Y-407678D01*
X1198817Y-410035D01*
X1199286Y-412392D01*
X1200621Y-414390D01*
X1202618Y-415725D01*
X1204975Y-416193D01*
X1207332Y-415725D01*
X1209330Y-414390D01*
X1210665Y-412392D01*
X1211133Y-410035D01*
X1210665Y-407678D01*
X1209439Y-405844D01*
X1209314Y-405313D01*
Y-404757D01*
X1209439Y-404226D01*
X1210665Y-402392D01*
X1211133Y-400035D01*
X1210665Y-397678D01*
X1209330Y-395681D01*
X1207332Y-394346D01*
X1204975Y-393877D01*
D02*
G37*
G36*
X763975D02*
X761618Y-394346D01*
X759621Y-395681D01*
X758286Y-397678D01*
X757817Y-400035D01*
X758286Y-402392D01*
X759511Y-404226D01*
X759636Y-404757D01*
Y-405313D01*
X759511Y-405844D01*
X758286Y-407678D01*
X757817Y-410035D01*
X758286Y-412392D01*
X759621Y-414390D01*
X761618Y-415725D01*
X763975Y-416193D01*
X766332Y-415725D01*
X768330Y-414390D01*
X769665Y-412392D01*
X770134Y-410035D01*
X769665Y-407678D01*
X768439Y-405844D01*
X768314Y-405313D01*
Y-404757D01*
X768439Y-404226D01*
X769665Y-402392D01*
X770134Y-400035D01*
X769665Y-397678D01*
X768330Y-395681D01*
X766332Y-394346D01*
X763975Y-393877D01*
D02*
G37*
G36*
X1137850Y-407452D02*
X1135493Y-407920D01*
X1133495Y-409255D01*
X1132160Y-411253D01*
X1131692Y-413610D01*
X1132160Y-415967D01*
X1133495Y-417965D01*
X1135493Y-419300D01*
X1137850Y-419768D01*
X1140207Y-419300D01*
X1142205Y-417965D01*
X1143540Y-415967D01*
X1144008Y-413610D01*
X1143540Y-411253D01*
X1142205Y-409255D01*
X1140207Y-407920D01*
X1137850Y-407452D01*
D02*
G37*
G36*
X989000D02*
X986643Y-407920D01*
X984645Y-409255D01*
X983310Y-411253D01*
X982842Y-413610D01*
X983310Y-415967D01*
X984645Y-417965D01*
X986643Y-419300D01*
X989000Y-419768D01*
X991357Y-419300D01*
X993355Y-417965D01*
X994690Y-415967D01*
X995158Y-413610D01*
X994690Y-411253D01*
X993355Y-409255D01*
X991357Y-407920D01*
X989000Y-407452D01*
D02*
G37*
G36*
X696850D02*
X694493Y-407920D01*
X692495Y-409255D01*
X691161Y-411253D01*
X690692Y-413610D01*
X691161Y-415967D01*
X692495Y-417965D01*
X694493Y-419300D01*
X696850Y-419768D01*
X699207Y-419300D01*
X701205Y-417965D01*
X702540Y-415967D01*
X703008Y-413610D01*
X702540Y-411253D01*
X701205Y-409255D01*
X699207Y-407920D01*
X696850Y-407452D01*
D02*
G37*
G36*
X548000D02*
X545643Y-407920D01*
X543645Y-409255D01*
X542310Y-411253D01*
X541842Y-413610D01*
X542310Y-415967D01*
X543645Y-417965D01*
X545643Y-419300D01*
X548000Y-419768D01*
X550357Y-419300D01*
X552355Y-417965D01*
X553689Y-415967D01*
X554158Y-413610D01*
X553689Y-411253D01*
X552355Y-409255D01*
X550357Y-407920D01*
X548000Y-407452D01*
D02*
G37*
G36*
X1334789Y-400852D02*
X1332136Y-401202D01*
X1329665Y-402225D01*
X1327542Y-403854D01*
X1325914Y-405976D01*
X1324890Y-408448D01*
X1324541Y-411100D01*
X1324890Y-413752D01*
X1325914Y-416224D01*
X1327542Y-418346D01*
X1329665Y-419975D01*
X1332136Y-420998D01*
X1334789Y-421348D01*
X1337441Y-420998D01*
X1339912Y-419975D01*
X1342035Y-418346D01*
X1343663Y-416224D01*
X1344687Y-413752D01*
X1345036Y-411100D01*
X1344687Y-408448D01*
X1343663Y-405976D01*
X1342035Y-403854D01*
X1339912Y-402225D01*
X1337441Y-401202D01*
X1334789Y-400852D01*
D02*
G37*
G36*
X1269003D02*
X1266350Y-401202D01*
X1263879Y-402225D01*
X1261756Y-403854D01*
X1260128Y-405976D01*
X1259104Y-408448D01*
X1258755Y-411100D01*
X1259104Y-413752D01*
X1260128Y-416224D01*
X1261756Y-418346D01*
X1263879Y-419975D01*
X1266350Y-420998D01*
X1269003Y-421348D01*
X1271655Y-420998D01*
X1274126Y-419975D01*
X1276249Y-418346D01*
X1277877Y-416224D01*
X1278901Y-413752D01*
X1279250Y-411100D01*
X1278901Y-408448D01*
X1277877Y-405976D01*
X1276249Y-403854D01*
X1274126Y-402225D01*
X1271655Y-401202D01*
X1269003Y-400852D01*
D02*
G37*
G36*
X1044820Y-420352D02*
X1042463Y-420821D01*
X1040465Y-422155D01*
X1039130Y-424153D01*
X1038662Y-426510D01*
X1039130Y-428867D01*
X1040465Y-430865D01*
X1042463Y-432200D01*
X1044820Y-432668D01*
X1047177Y-432200D01*
X1049175Y-430865D01*
X1050510Y-428867D01*
X1050978Y-426510D01*
X1050510Y-424153D01*
X1049175Y-422155D01*
X1047177Y-420821D01*
X1044820Y-420352D01*
D02*
G37*
G36*
X603820D02*
X601463Y-420821D01*
X599465Y-422155D01*
X598130Y-424153D01*
X597662Y-426510D01*
X598130Y-428867D01*
X599465Y-430865D01*
X601463Y-432200D01*
X603820Y-432668D01*
X606177Y-432200D01*
X608175Y-430865D01*
X609510Y-428867D01*
X609978Y-426510D01*
X609510Y-424153D01*
X608175Y-422155D01*
X606177Y-420821D01*
X603820Y-420352D01*
D02*
G37*
G36*
X1360188Y-413552D02*
X1357536Y-413901D01*
X1355065Y-414925D01*
X1352942Y-416554D01*
X1351314Y-418676D01*
X1350290Y-421148D01*
X1349941Y-423800D01*
X1350290Y-426452D01*
X1351314Y-428924D01*
X1352942Y-431046D01*
X1355065Y-432675D01*
X1357536Y-433699D01*
X1360188Y-434048D01*
X1362841Y-433699D01*
X1365312Y-432675D01*
X1367435Y-431046D01*
X1369063Y-428924D01*
X1370087Y-426452D01*
X1370436Y-423800D01*
X1370087Y-421148D01*
X1369063Y-418676D01*
X1367435Y-416554D01*
X1365312Y-414925D01*
X1362841Y-413901D01*
X1360188Y-413552D01*
D02*
G37*
G36*
X1294402D02*
X1291750Y-413901D01*
X1289279Y-414925D01*
X1287156Y-416554D01*
X1285528Y-418676D01*
X1284504Y-421148D01*
X1284155Y-423800D01*
X1284504Y-426452D01*
X1285528Y-428924D01*
X1287156Y-431046D01*
X1289279Y-432675D01*
X1291750Y-433699D01*
X1294402Y-434048D01*
X1297055Y-433699D01*
X1299526Y-432675D01*
X1301649Y-431046D01*
X1303277Y-428924D01*
X1304301Y-426452D01*
X1304650Y-423800D01*
X1304301Y-421148D01*
X1303277Y-418676D01*
X1301649Y-416554D01*
X1299526Y-414925D01*
X1297055Y-413901D01*
X1294402Y-413552D01*
D02*
G37*
G36*
X835000Y-443962D02*
X832643Y-444430D01*
X830646Y-445765D01*
X830135Y-446529D01*
X828865D01*
X828355Y-445765D01*
X826357Y-444430D01*
X824000Y-443962D01*
X821643Y-444430D01*
X819645Y-445765D01*
X818311Y-447763D01*
X817842Y-450120D01*
X818311Y-452477D01*
X819645Y-454475D01*
X821643Y-455810D01*
X824000Y-456278D01*
X826357Y-455810D01*
X828355Y-454475D01*
X828865Y-453711D01*
X830135D01*
X830646Y-454475D01*
X832643Y-455810D01*
X833949Y-456069D01*
X834534Y-457480D01*
X834010Y-458263D01*
X833542Y-460620D01*
X834010Y-462977D01*
X835346Y-464975D01*
X837343Y-466310D01*
X839700Y-466778D01*
X842057Y-466310D01*
X844055Y-464975D01*
X844565Y-464211D01*
X845835D01*
X846346Y-464975D01*
X848343Y-466310D01*
X850700Y-466778D01*
X853057Y-466310D01*
X855055Y-464975D01*
X856390Y-462977D01*
X856858Y-460620D01*
X856390Y-458263D01*
X855055Y-456265D01*
X853057Y-454930D01*
X850700Y-454462D01*
X848343Y-454930D01*
X846346Y-456265D01*
X845835Y-457029D01*
X844565D01*
X844055Y-456265D01*
X842057Y-454930D01*
X840751Y-454671D01*
X840167Y-453260D01*
X840690Y-452477D01*
X841158Y-450120D01*
X840690Y-447763D01*
X839355Y-445765D01*
X837357Y-444430D01*
X835000Y-443962D01*
D02*
G37*
G36*
X1334789Y-426252D02*
X1332136Y-426601D01*
X1329665Y-427625D01*
X1327542Y-429254D01*
X1325914Y-431376D01*
X1324890Y-433848D01*
X1324541Y-436500D01*
X1324890Y-439152D01*
X1325914Y-441624D01*
X1327542Y-443746D01*
X1329665Y-445375D01*
X1332136Y-446399D01*
X1334789Y-446748D01*
X1337441Y-446399D01*
X1339912Y-445375D01*
X1342035Y-443746D01*
X1343663Y-441624D01*
X1344687Y-439152D01*
X1345036Y-436500D01*
X1344687Y-433848D01*
X1343663Y-431376D01*
X1342035Y-429254D01*
X1339912Y-427625D01*
X1337441Y-426601D01*
X1334789Y-426252D01*
D02*
G37*
G36*
X1269003D02*
X1266350Y-426601D01*
X1263879Y-427625D01*
X1261756Y-429254D01*
X1260128Y-431376D01*
X1259104Y-433848D01*
X1258755Y-436500D01*
X1259104Y-439152D01*
X1260128Y-441624D01*
X1261756Y-443746D01*
X1263879Y-445375D01*
X1266350Y-446399D01*
X1269003Y-446748D01*
X1271655Y-446399D01*
X1274126Y-445375D01*
X1276249Y-443746D01*
X1277877Y-441624D01*
X1278901Y-439152D01*
X1279250Y-436500D01*
X1278901Y-433848D01*
X1277877Y-431376D01*
X1276249Y-429254D01*
X1274126Y-427625D01*
X1271655Y-426601D01*
X1269003Y-426252D01*
D02*
G37*
G36*
X1360188Y-438952D02*
X1357536Y-439301D01*
X1355065Y-440325D01*
X1352942Y-441954D01*
X1351314Y-444076D01*
X1350290Y-446548D01*
X1349941Y-449200D01*
X1350290Y-451852D01*
X1351314Y-454324D01*
X1352942Y-456446D01*
X1355065Y-458075D01*
X1357536Y-459099D01*
X1360188Y-459448D01*
X1362841Y-459099D01*
X1365312Y-458075D01*
X1367435Y-456446D01*
X1369063Y-454324D01*
X1370087Y-451852D01*
X1370436Y-449200D01*
X1370087Y-446548D01*
X1369063Y-444076D01*
X1367435Y-441954D01*
X1365312Y-440325D01*
X1362841Y-439301D01*
X1360188Y-438952D01*
D02*
G37*
G36*
X1294402D02*
X1291750Y-439301D01*
X1289279Y-440325D01*
X1287156Y-441954D01*
X1285528Y-444076D01*
X1284504Y-446548D01*
X1284155Y-449200D01*
X1284504Y-451852D01*
X1285528Y-454324D01*
X1287156Y-456446D01*
X1289279Y-458075D01*
X1291750Y-459099D01*
X1294402Y-459448D01*
X1297055Y-459099D01*
X1299526Y-458075D01*
X1301649Y-456446D01*
X1303277Y-454324D01*
X1304301Y-451852D01*
X1304650Y-449200D01*
X1304301Y-446548D01*
X1303277Y-444076D01*
X1301649Y-441954D01*
X1299526Y-440325D01*
X1297055Y-439301D01*
X1294402Y-438952D01*
D02*
G37*
G36*
X870400Y-467362D02*
X868043Y-467830D01*
X866046Y-469165D01*
X865535Y-469929D01*
X864265D01*
X863755Y-469165D01*
X861757Y-467830D01*
X859400Y-467362D01*
X857043Y-467830D01*
X855045Y-469165D01*
X853711Y-471163D01*
X853242Y-473520D01*
X853711Y-475877D01*
X855045Y-477875D01*
X857043Y-479210D01*
X859400Y-479678D01*
X861757Y-479210D01*
X863755Y-477875D01*
X864265Y-477111D01*
X865535D01*
X866046Y-477875D01*
X868043Y-479210D01*
X870400Y-479678D01*
X870427Y-479673D01*
X871388Y-480777D01*
X871042Y-482520D01*
X871510Y-484877D01*
X872845Y-486875D01*
X874843Y-488209D01*
X877200Y-488678D01*
X879557Y-488209D01*
X881554Y-486875D01*
X882065Y-486111D01*
X883335D01*
X883845Y-486875D01*
X885843Y-488209D01*
X888200Y-488678D01*
X890557Y-488209D01*
X892554Y-486875D01*
X893889Y-484877D01*
X894358Y-482520D01*
X893889Y-480163D01*
X892554Y-478165D01*
X890557Y-476830D01*
X888200Y-476362D01*
X885843Y-476830D01*
X883845Y-478165D01*
X883335Y-478929D01*
X882065D01*
X881554Y-478165D01*
X879557Y-476830D01*
X877200Y-476362D01*
X877173Y-476367D01*
X876212Y-475263D01*
X876558Y-473520D01*
X876090Y-471163D01*
X874755Y-469165D01*
X872757Y-467830D01*
X870400Y-467362D01*
D02*
G37*
G36*
X1334789Y-451652D02*
X1332136Y-452001D01*
X1329665Y-453025D01*
X1327542Y-454654D01*
X1325914Y-456776D01*
X1324890Y-459248D01*
X1324541Y-461900D01*
X1324890Y-464552D01*
X1325914Y-467024D01*
X1327542Y-469146D01*
X1329665Y-470775D01*
X1332136Y-471799D01*
X1334789Y-472148D01*
X1337441Y-471799D01*
X1339912Y-470775D01*
X1342035Y-469146D01*
X1343663Y-467024D01*
X1344687Y-464552D01*
X1345036Y-461900D01*
X1344687Y-459248D01*
X1343663Y-456776D01*
X1342035Y-454654D01*
X1339912Y-453025D01*
X1337441Y-452001D01*
X1334789Y-451652D01*
D02*
G37*
G36*
X1269003D02*
X1266350Y-452001D01*
X1263879Y-453025D01*
X1261756Y-454654D01*
X1260128Y-456776D01*
X1259104Y-459248D01*
X1258755Y-461900D01*
X1259104Y-464552D01*
X1260128Y-467024D01*
X1261756Y-469146D01*
X1263879Y-470775D01*
X1266350Y-471799D01*
X1269003Y-472148D01*
X1271655Y-471799D01*
X1274126Y-470775D01*
X1276249Y-469146D01*
X1277877Y-467024D01*
X1278901Y-464552D01*
X1279250Y-461900D01*
X1278901Y-459248D01*
X1277877Y-456776D01*
X1276249Y-454654D01*
X1274126Y-453025D01*
X1271655Y-452001D01*
X1269003Y-451652D01*
D02*
G37*
G36*
X1360188Y-464352D02*
X1357536Y-464701D01*
X1355065Y-465725D01*
X1352942Y-467354D01*
X1351314Y-469476D01*
X1350290Y-471948D01*
X1349941Y-474600D01*
X1350290Y-477252D01*
X1351314Y-479724D01*
X1352942Y-481846D01*
X1355065Y-483475D01*
X1357536Y-484498D01*
X1360188Y-484848D01*
X1362841Y-484498D01*
X1365312Y-483475D01*
X1367435Y-481846D01*
X1369063Y-479724D01*
X1370087Y-477252D01*
X1370436Y-474600D01*
X1370087Y-471948D01*
X1369063Y-469476D01*
X1367435Y-467354D01*
X1365312Y-465725D01*
X1362841Y-464701D01*
X1360188Y-464352D01*
D02*
G37*
G36*
X1294402D02*
X1291750Y-464701D01*
X1289279Y-465725D01*
X1287156Y-467354D01*
X1285528Y-469476D01*
X1284504Y-471948D01*
X1284155Y-474600D01*
X1284504Y-477252D01*
X1285528Y-479724D01*
X1287156Y-481846D01*
X1289279Y-483475D01*
X1291750Y-484498D01*
X1294402Y-484848D01*
X1297055Y-484498D01*
X1299526Y-483475D01*
X1301649Y-481846D01*
X1303277Y-479724D01*
X1304301Y-477252D01*
X1304650Y-474600D01*
X1304301Y-471948D01*
X1303277Y-469476D01*
X1301649Y-467354D01*
X1299526Y-465725D01*
X1297055Y-464701D01*
X1294402Y-464352D01*
D02*
G37*
G36*
X161300Y-492569D02*
X158548Y-492931D01*
X155984Y-493993D01*
X153783Y-495683D01*
X152093Y-497885D01*
X151031Y-500448D01*
X150669Y-503200D01*
X151031Y-505951D01*
X152093Y-508516D01*
X153783Y-510717D01*
X155984Y-512407D01*
X158548Y-513469D01*
X161300Y-513831D01*
X164051Y-513469D01*
X166616Y-512407D01*
X168817Y-510717D01*
X170507Y-508516D01*
X171569Y-505951D01*
X171931Y-503200D01*
X171569Y-500448D01*
X170507Y-497885D01*
X168817Y-495683D01*
X166616Y-493993D01*
X164051Y-492931D01*
X161300Y-492569D01*
D02*
G37*
G36*
X135900D02*
X133148Y-492931D01*
X130584Y-493993D01*
X128383Y-495683D01*
X126693Y-497885D01*
X125631Y-500448D01*
X125269Y-503200D01*
X125631Y-505951D01*
X126693Y-508516D01*
X128383Y-510717D01*
X130584Y-512407D01*
X133148Y-513469D01*
X135900Y-513831D01*
X138652Y-513469D01*
X141215Y-512407D01*
X143417Y-510717D01*
X145107Y-508516D01*
X146169Y-505951D01*
X146531Y-503200D01*
X146169Y-500448D01*
X145107Y-497885D01*
X143417Y-495683D01*
X141215Y-493993D01*
X138652Y-492931D01*
X135900Y-492569D01*
D02*
G37*
G36*
X110500D02*
X107748Y-492931D01*
X105184Y-493993D01*
X102983Y-495683D01*
X101293Y-497885D01*
X100231Y-500448D01*
X99869Y-503200D01*
X100231Y-505951D01*
X101293Y-508516D01*
X102983Y-510717D01*
X105184Y-512407D01*
X107748Y-513469D01*
X110500Y-513831D01*
X113251Y-513469D01*
X115815Y-512407D01*
X118017Y-510717D01*
X119707Y-508516D01*
X120769Y-505951D01*
X121131Y-503200D01*
X120769Y-500448D01*
X119707Y-497885D01*
X118017Y-495683D01*
X115815Y-493993D01*
X113251Y-492931D01*
X110500Y-492569D01*
D02*
G37*
G36*
X888200Y-511442D02*
X885843Y-511911D01*
X883845Y-513245D01*
X883335Y-514009D01*
X882065D01*
X881555Y-513245D01*
X879557Y-511911D01*
X877200Y-511442D01*
X874843Y-511911D01*
X872845Y-513245D01*
X871510Y-515243D01*
X871042Y-517600D01*
X871388Y-519343D01*
X870427Y-520447D01*
X870400Y-520442D01*
X868043Y-520910D01*
X866045Y-522245D01*
X865535Y-523009D01*
X864265D01*
X863755Y-522245D01*
X861757Y-520910D01*
X859400Y-520442D01*
X857043Y-520910D01*
X855045Y-522245D01*
X853710Y-524243D01*
X853242Y-526600D01*
X853710Y-528957D01*
X855045Y-530955D01*
X857043Y-532290D01*
X859400Y-532758D01*
X861757Y-532290D01*
X863755Y-530955D01*
X864265Y-530191D01*
X865535D01*
X866045Y-530955D01*
X868043Y-532290D01*
X870400Y-532758D01*
X872757Y-532290D01*
X874755Y-530955D01*
X876090Y-528957D01*
X876558Y-526600D01*
X876212Y-524857D01*
X877173Y-523753D01*
X877200Y-523758D01*
X879557Y-523290D01*
X881555Y-521955D01*
X882065Y-521191D01*
X883335D01*
X883845Y-521955D01*
X885843Y-523290D01*
X888200Y-523758D01*
X890557Y-523290D01*
X892555Y-521955D01*
X893890Y-519957D01*
X894358Y-517600D01*
X893890Y-515243D01*
X892555Y-513245D01*
X890557Y-511911D01*
X888200Y-511442D01*
D02*
G37*
G36*
X1334789Y-515152D02*
X1332136Y-515502D01*
X1329665Y-516525D01*
X1327542Y-518154D01*
X1325914Y-520276D01*
X1324890Y-522748D01*
X1324541Y-525400D01*
X1324890Y-528052D01*
X1325914Y-530524D01*
X1327542Y-532646D01*
X1329665Y-534275D01*
X1332136Y-535299D01*
X1334789Y-535648D01*
X1337441Y-535299D01*
X1339912Y-534275D01*
X1342035Y-532646D01*
X1343663Y-530524D01*
X1344687Y-528052D01*
X1345036Y-525400D01*
X1344687Y-522748D01*
X1343663Y-520276D01*
X1342035Y-518154D01*
X1339912Y-516525D01*
X1337441Y-515502D01*
X1334789Y-515152D01*
D02*
G37*
G36*
X1269003D02*
X1266350Y-515502D01*
X1263879Y-516525D01*
X1261756Y-518154D01*
X1260128Y-520276D01*
X1259104Y-522748D01*
X1258755Y-525400D01*
X1259104Y-528052D01*
X1260128Y-530524D01*
X1261756Y-532646D01*
X1263879Y-534275D01*
X1266350Y-535299D01*
X1269003Y-535648D01*
X1271655Y-535299D01*
X1274126Y-534275D01*
X1276249Y-532646D01*
X1277877Y-530524D01*
X1278901Y-528052D01*
X1279250Y-525400D01*
X1278901Y-522748D01*
X1277877Y-520276D01*
X1276249Y-518154D01*
X1274126Y-516525D01*
X1271655Y-515502D01*
X1269003Y-515152D01*
D02*
G37*
G36*
X850700Y-533342D02*
X848343Y-533810D01*
X846345Y-535145D01*
X845835Y-535909D01*
X844565D01*
X844055Y-535145D01*
X842057Y-533810D01*
X839700Y-533342D01*
X837343Y-533810D01*
X835345Y-535145D01*
X834010Y-537143D01*
X833542Y-539500D01*
X834010Y-541857D01*
X834533Y-542640D01*
X833949Y-544051D01*
X832643Y-544310D01*
X830645Y-545645D01*
X830135Y-546409D01*
X828865D01*
X828355Y-545645D01*
X826357Y-544310D01*
X824000Y-543842D01*
X821643Y-544310D01*
X819645Y-545645D01*
X818310Y-547643D01*
X817842Y-550000D01*
X818310Y-552357D01*
X819645Y-554355D01*
X821643Y-555690D01*
X824000Y-556158D01*
X826357Y-555690D01*
X828355Y-554355D01*
X828865Y-553591D01*
X830135D01*
X830645Y-554355D01*
X832643Y-555690D01*
X835000Y-556158D01*
X837357Y-555690D01*
X839355Y-554355D01*
X840690Y-552357D01*
X841158Y-550000D01*
X840690Y-547643D01*
X840166Y-546860D01*
X840751Y-545449D01*
X842057Y-545190D01*
X844055Y-543855D01*
X844565Y-543091D01*
X845835D01*
X846345Y-543855D01*
X848343Y-545190D01*
X850700Y-545658D01*
X853057Y-545190D01*
X855055Y-543855D01*
X856389Y-541857D01*
X856858Y-539500D01*
X856389Y-537143D01*
X855055Y-535145D01*
X853057Y-533810D01*
X850700Y-533342D01*
D02*
G37*
G36*
X1360188Y-527852D02*
X1357536Y-528201D01*
X1355065Y-529225D01*
X1352942Y-530854D01*
X1351314Y-532976D01*
X1350290Y-535448D01*
X1349941Y-538100D01*
X1350290Y-540752D01*
X1351314Y-543224D01*
X1352942Y-545346D01*
X1355065Y-546975D01*
X1357536Y-547999D01*
X1360188Y-548348D01*
X1362841Y-547999D01*
X1365312Y-546975D01*
X1367435Y-545346D01*
X1369063Y-543224D01*
X1370087Y-540752D01*
X1370436Y-538100D01*
X1370087Y-535448D01*
X1369063Y-532976D01*
X1367435Y-530854D01*
X1365312Y-529225D01*
X1362841Y-528201D01*
X1360188Y-527852D01*
D02*
G37*
G36*
X1294402D02*
X1291750Y-528201D01*
X1289279Y-529225D01*
X1287156Y-530854D01*
X1285528Y-532976D01*
X1284504Y-535448D01*
X1284155Y-538100D01*
X1284504Y-540752D01*
X1285528Y-543224D01*
X1287156Y-545346D01*
X1289279Y-546975D01*
X1291750Y-547999D01*
X1294402Y-548348D01*
X1297055Y-547999D01*
X1299526Y-546975D01*
X1301649Y-545346D01*
X1303277Y-543224D01*
X1304301Y-540752D01*
X1304650Y-538100D01*
X1304301Y-535448D01*
X1303277Y-532976D01*
X1301649Y-530854D01*
X1299526Y-529225D01*
X1297055Y-528201D01*
X1294402Y-527852D01*
D02*
G37*
G36*
X1334789Y-540552D02*
X1332136Y-540901D01*
X1329665Y-541925D01*
X1327542Y-543554D01*
X1325914Y-545676D01*
X1324890Y-548148D01*
X1324541Y-550800D01*
X1324890Y-553452D01*
X1325914Y-555924D01*
X1327542Y-558046D01*
X1329665Y-559675D01*
X1332136Y-560699D01*
X1334789Y-561048D01*
X1337441Y-560699D01*
X1339912Y-559675D01*
X1342035Y-558046D01*
X1343663Y-555924D01*
X1344687Y-553452D01*
X1345036Y-550800D01*
X1344687Y-548148D01*
X1343663Y-545676D01*
X1342035Y-543554D01*
X1339912Y-541925D01*
X1337441Y-540901D01*
X1334789Y-540552D01*
D02*
G37*
G36*
X1269003D02*
X1266350Y-540901D01*
X1263879Y-541925D01*
X1261756Y-543554D01*
X1260128Y-545676D01*
X1259104Y-548148D01*
X1258755Y-550800D01*
X1259104Y-553452D01*
X1260128Y-555924D01*
X1261756Y-558046D01*
X1263879Y-559675D01*
X1266350Y-560699D01*
X1269003Y-561048D01*
X1271655Y-560699D01*
X1274126Y-559675D01*
X1276249Y-558046D01*
X1277877Y-555924D01*
X1278901Y-553452D01*
X1279250Y-550800D01*
X1278901Y-548148D01*
X1277877Y-545676D01*
X1276249Y-543554D01*
X1274126Y-541925D01*
X1271655Y-540901D01*
X1269003Y-540552D01*
D02*
G37*
G36*
X1360188Y-553252D02*
X1357536Y-553601D01*
X1355065Y-554625D01*
X1352942Y-556254D01*
X1351314Y-558376D01*
X1350290Y-560848D01*
X1349941Y-563500D01*
X1350290Y-566152D01*
X1351314Y-568624D01*
X1352942Y-570746D01*
X1355065Y-572375D01*
X1357536Y-573399D01*
X1360188Y-573748D01*
X1362841Y-573399D01*
X1365312Y-572375D01*
X1367435Y-570746D01*
X1369063Y-568624D01*
X1370087Y-566152D01*
X1370436Y-563500D01*
X1370087Y-560848D01*
X1369063Y-558376D01*
X1367435Y-556254D01*
X1365312Y-554625D01*
X1362841Y-553601D01*
X1360188Y-553252D01*
D02*
G37*
G36*
X1294402D02*
X1291750Y-553601D01*
X1289279Y-554625D01*
X1287156Y-556254D01*
X1285528Y-558376D01*
X1284504Y-560848D01*
X1284155Y-563500D01*
X1284504Y-566152D01*
X1285528Y-568624D01*
X1287156Y-570746D01*
X1289279Y-572375D01*
X1291750Y-573399D01*
X1294402Y-573748D01*
X1297055Y-573399D01*
X1299526Y-572375D01*
X1301649Y-570746D01*
X1303277Y-568624D01*
X1304301Y-566152D01*
X1304650Y-563500D01*
X1304301Y-560848D01*
X1303277Y-558376D01*
X1301649Y-556254D01*
X1299526Y-554625D01*
X1297055Y-553601D01*
X1294402Y-553252D01*
D02*
G37*
G36*
X1334789Y-565952D02*
X1332136Y-566301D01*
X1329665Y-567325D01*
X1327542Y-568954D01*
X1325914Y-571076D01*
X1324890Y-573548D01*
X1324541Y-576200D01*
X1324890Y-578852D01*
X1325914Y-581324D01*
X1327542Y-583446D01*
X1329665Y-585075D01*
X1332136Y-586099D01*
X1334789Y-586448D01*
X1337441Y-586099D01*
X1339912Y-585075D01*
X1342035Y-583446D01*
X1343663Y-581324D01*
X1344687Y-578852D01*
X1345036Y-576200D01*
X1344687Y-573548D01*
X1343663Y-571076D01*
X1342035Y-568954D01*
X1339912Y-567325D01*
X1337441Y-566301D01*
X1334789Y-565952D01*
D02*
G37*
G36*
X1269003D02*
X1266350Y-566301D01*
X1263879Y-567325D01*
X1261756Y-568954D01*
X1260128Y-571076D01*
X1259104Y-573548D01*
X1258755Y-576200D01*
X1259104Y-578852D01*
X1260128Y-581324D01*
X1261756Y-583446D01*
X1263879Y-585075D01*
X1266350Y-586099D01*
X1269003Y-586448D01*
X1271655Y-586099D01*
X1274126Y-585075D01*
X1276249Y-583446D01*
X1277877Y-581324D01*
X1278901Y-578852D01*
X1279250Y-576200D01*
X1278901Y-573548D01*
X1277877Y-571076D01*
X1276249Y-568954D01*
X1274126Y-567325D01*
X1271655Y-566301D01*
X1269003Y-565952D01*
D02*
G37*
G36*
X1137850Y-580653D02*
X1135493Y-581121D01*
X1133495Y-582456D01*
X1132160Y-584454D01*
X1131692Y-586811D01*
X1132160Y-589168D01*
X1133495Y-591166D01*
X1135493Y-592501D01*
X1137850Y-592969D01*
X1140207Y-592501D01*
X1142205Y-591166D01*
X1143540Y-589168D01*
X1144008Y-586811D01*
X1143540Y-584454D01*
X1142205Y-582456D01*
X1140207Y-581121D01*
X1137850Y-580653D01*
D02*
G37*
G36*
X990501D02*
X988144Y-581121D01*
X986146Y-582456D01*
X984811Y-584454D01*
X984343Y-586811D01*
X984811Y-589168D01*
X986146Y-591166D01*
X988144Y-592501D01*
X990501Y-592969D01*
X992858Y-592501D01*
X994856Y-591166D01*
X996190Y-589168D01*
X996659Y-586811D01*
X996190Y-584454D01*
X994856Y-582456D01*
X992858Y-581121D01*
X990501Y-580653D01*
D02*
G37*
G36*
X696850D02*
X694493Y-581121D01*
X692495Y-582456D01*
X691161Y-584454D01*
X690692Y-586811D01*
X691161Y-589168D01*
X692495Y-591166D01*
X694493Y-592501D01*
X696850Y-592969D01*
X699207Y-592501D01*
X701205Y-591166D01*
X702540Y-589168D01*
X703008Y-586811D01*
X702540Y-584454D01*
X701205Y-582456D01*
X699207Y-581121D01*
X696850Y-580653D01*
D02*
G37*
G36*
X549501D02*
X547144Y-581121D01*
X545146Y-582456D01*
X543811Y-584454D01*
X543343Y-586811D01*
X543811Y-589168D01*
X545146Y-591166D01*
X547144Y-592501D01*
X549501Y-592969D01*
X551858Y-592501D01*
X553856Y-591166D01*
X555191Y-589168D01*
X555659Y-586811D01*
X555191Y-584454D01*
X553856Y-582456D01*
X551858Y-581121D01*
X549501Y-580653D01*
D02*
G37*
G36*
X1360188Y-578652D02*
X1357536Y-579002D01*
X1355065Y-580025D01*
X1352942Y-581654D01*
X1351314Y-583776D01*
X1350290Y-586248D01*
X1349941Y-588900D01*
X1350290Y-591552D01*
X1351314Y-594024D01*
X1352942Y-596146D01*
X1355065Y-597775D01*
X1357536Y-598798D01*
X1360188Y-599148D01*
X1362841Y-598798D01*
X1365312Y-597775D01*
X1367435Y-596146D01*
X1369063Y-594024D01*
X1370087Y-591552D01*
X1370436Y-588900D01*
X1370087Y-586248D01*
X1369063Y-583776D01*
X1367435Y-581654D01*
X1365312Y-580025D01*
X1362841Y-579002D01*
X1360188Y-578652D01*
D02*
G37*
G36*
X1294402D02*
X1291750Y-579002D01*
X1289279Y-580025D01*
X1287156Y-581654D01*
X1285528Y-583776D01*
X1284504Y-586248D01*
X1284155Y-588900D01*
X1284504Y-591552D01*
X1285528Y-594024D01*
X1287156Y-596146D01*
X1289279Y-597775D01*
X1291750Y-598798D01*
X1294402Y-599148D01*
X1297055Y-598798D01*
X1299526Y-597775D01*
X1301649Y-596146D01*
X1303277Y-594024D01*
X1304301Y-591552D01*
X1304650Y-588900D01*
X1304301Y-586248D01*
X1303277Y-583776D01*
X1301649Y-581654D01*
X1299526Y-580025D01*
X1297055Y-579002D01*
X1294402Y-578652D01*
D02*
G37*
G36*
X1204800Y-583452D02*
X1202443Y-583921D01*
X1200445Y-585255D01*
X1199110Y-587253D01*
X1198642Y-589610D01*
X1199110Y-591967D01*
X1200336Y-593801D01*
X1200461Y-594332D01*
Y-594888D01*
X1200336Y-595419D01*
X1199110Y-597253D01*
X1198642Y-599610D01*
X1199110Y-601967D01*
X1200445Y-603965D01*
X1202443Y-605299D01*
X1204800Y-605768D01*
X1207157Y-605299D01*
X1209155Y-603965D01*
X1210490Y-601967D01*
X1210958Y-599610D01*
X1210490Y-597253D01*
X1209264Y-595419D01*
X1209139Y-594888D01*
Y-594332D01*
X1209264Y-593801D01*
X1210490Y-591967D01*
X1210958Y-589610D01*
X1210490Y-587253D01*
X1209155Y-585255D01*
X1207157Y-583921D01*
X1204800Y-583452D01*
D02*
G37*
G36*
X763800D02*
X761443Y-583921D01*
X759445Y-585255D01*
X758110Y-587253D01*
X757642Y-589610D01*
X758110Y-591967D01*
X759336Y-593801D01*
X759461Y-594332D01*
Y-594888D01*
X759336Y-595419D01*
X758110Y-597253D01*
X757642Y-599610D01*
X758110Y-601967D01*
X759445Y-603965D01*
X761443Y-605299D01*
X763800Y-605768D01*
X766157Y-605299D01*
X768155Y-603965D01*
X769490Y-601967D01*
X769958Y-599610D01*
X769490Y-597253D01*
X768264Y-595419D01*
X768139Y-594888D01*
Y-594332D01*
X768264Y-593801D01*
X769490Y-591967D01*
X769958Y-589610D01*
X769490Y-587253D01*
X768155Y-585255D01*
X766157Y-583921D01*
X763800Y-583452D01*
D02*
G37*
G36*
X1137850Y-597651D02*
X1135493Y-598120D01*
X1133495Y-599455D01*
X1132160Y-601452D01*
X1131692Y-603809D01*
X1132160Y-606166D01*
X1133495Y-608164D01*
X1135493Y-609499D01*
X1137850Y-609967D01*
X1140207Y-609499D01*
X1142205Y-608164D01*
X1143540Y-606166D01*
X1144008Y-603809D01*
X1143540Y-601452D01*
X1142205Y-599455D01*
X1140207Y-598120D01*
X1137850Y-597651D01*
D02*
G37*
G36*
X990299D02*
X987942Y-598120D01*
X985945Y-599455D01*
X984610Y-601452D01*
X984141Y-603809D01*
X984610Y-606166D01*
X985945Y-608164D01*
X987942Y-609499D01*
X990299Y-609967D01*
X992656Y-609499D01*
X994654Y-608164D01*
X995989Y-606166D01*
X996458Y-603809D01*
X995989Y-601452D01*
X994654Y-599455D01*
X992656Y-598120D01*
X990299Y-597651D01*
D02*
G37*
G36*
X696850D02*
X694493Y-598120D01*
X692495Y-599455D01*
X691161Y-601452D01*
X690692Y-603809D01*
X691161Y-606166D01*
X692495Y-608164D01*
X694493Y-609499D01*
X696850Y-609967D01*
X699207Y-609499D01*
X701205Y-608164D01*
X702540Y-606166D01*
X703008Y-603809D01*
X702540Y-601452D01*
X701205Y-599455D01*
X699207Y-598120D01*
X696850Y-597651D01*
D02*
G37*
G36*
X549299D02*
X546942Y-598120D01*
X544944Y-599455D01*
X543610Y-601452D01*
X543141Y-603809D01*
X543610Y-606166D01*
X544944Y-608164D01*
X546942Y-609499D01*
X549299Y-609967D01*
X551656Y-609499D01*
X553654Y-608164D01*
X554989Y-606166D01*
X555457Y-603809D01*
X554989Y-601452D01*
X553654Y-599455D01*
X551656Y-598120D01*
X549299Y-597651D01*
D02*
G37*
G36*
X1334789Y-591352D02*
X1332136Y-591702D01*
X1329665Y-592725D01*
X1327542Y-594354D01*
X1325914Y-596476D01*
X1324890Y-598948D01*
X1324541Y-601600D01*
X1324890Y-604252D01*
X1325914Y-606724D01*
X1327542Y-608846D01*
X1329665Y-610475D01*
X1332136Y-611498D01*
X1334789Y-611848D01*
X1337441Y-611498D01*
X1339912Y-610475D01*
X1342035Y-608846D01*
X1343663Y-606724D01*
X1344687Y-604252D01*
X1345036Y-601600D01*
X1344687Y-598948D01*
X1343663Y-596476D01*
X1342035Y-594354D01*
X1339912Y-592725D01*
X1337441Y-591702D01*
X1334789Y-591352D01*
D02*
G37*
G36*
X1269003D02*
X1266350Y-591702D01*
X1263879Y-592725D01*
X1261756Y-594354D01*
X1260128Y-596476D01*
X1259104Y-598948D01*
X1258755Y-601600D01*
X1259104Y-604252D01*
X1260128Y-606724D01*
X1261756Y-608846D01*
X1263879Y-610475D01*
X1266350Y-611498D01*
X1269003Y-611848D01*
X1271655Y-611498D01*
X1274126Y-610475D01*
X1276249Y-608846D01*
X1277877Y-606724D01*
X1278901Y-604252D01*
X1279250Y-601600D01*
X1278901Y-598948D01*
X1277877Y-596476D01*
X1276249Y-594354D01*
X1274126Y-592725D01*
X1271655Y-591702D01*
X1269003Y-591352D01*
D02*
G37*
G36*
X1075400Y-602552D02*
X1073043Y-603020D01*
X1071045Y-604355D01*
X1069710Y-606353D01*
X1069242Y-608710D01*
X1069710Y-611067D01*
X1071045Y-613065D01*
X1073043Y-614399D01*
X1075400Y-614868D01*
X1077757Y-614399D01*
X1079755Y-613065D01*
X1081089Y-611067D01*
X1081558Y-608710D01*
X1081089Y-606353D01*
X1079755Y-604355D01*
X1077757Y-603020D01*
X1075400Y-602552D01*
D02*
G37*
G36*
X634400D02*
X632043Y-603020D01*
X630045Y-604355D01*
X628710Y-606353D01*
X628242Y-608710D01*
X628710Y-611067D01*
X630045Y-613065D01*
X632043Y-614399D01*
X634400Y-614868D01*
X636757Y-614399D01*
X638755Y-613065D01*
X640089Y-611067D01*
X640558Y-608710D01*
X640089Y-606353D01*
X638755Y-604355D01*
X636757Y-603020D01*
X634400Y-602552D01*
D02*
G37*
G36*
X1020400Y-603405D02*
X1018432Y-603664D01*
X1016598Y-604424D01*
X1015022Y-605632D01*
X1013814Y-607207D01*
X1013054Y-609042D01*
X1012795Y-611010D01*
X1013054Y-612978D01*
X1013814Y-614813D01*
X1015022Y-616388D01*
X1016598Y-617596D01*
X1018432Y-618356D01*
X1020400Y-618615D01*
X1022368Y-618356D01*
X1024202Y-617596D01*
X1025778Y-616388D01*
X1026986Y-614813D01*
X1027746Y-612978D01*
X1028005Y-611010D01*
X1027746Y-609042D01*
X1026986Y-607207D01*
X1025778Y-605632D01*
X1024202Y-604424D01*
X1022368Y-603664D01*
X1020400Y-603405D01*
D02*
G37*
G36*
X579400D02*
X577432Y-603664D01*
X575597Y-604424D01*
X574022Y-605632D01*
X572814Y-607207D01*
X572054Y-609042D01*
X571795Y-611010D01*
X572054Y-612978D01*
X572814Y-614813D01*
X574022Y-616388D01*
X575597Y-617596D01*
X577432Y-618356D01*
X579400Y-618615D01*
X581368Y-618356D01*
X583203Y-617596D01*
X584778Y-616388D01*
X585986Y-614813D01*
X586746Y-612978D01*
X587005Y-611010D01*
X586746Y-609042D01*
X585986Y-607207D01*
X584778Y-605632D01*
X583203Y-604424D01*
X581368Y-603664D01*
X579400Y-603405D01*
D02*
G37*
G36*
X1360188Y-604052D02*
X1357536Y-604402D01*
X1355065Y-605425D01*
X1352942Y-607054D01*
X1351314Y-609176D01*
X1350290Y-611648D01*
X1349941Y-614300D01*
X1350290Y-616952D01*
X1351314Y-619424D01*
X1352942Y-621546D01*
X1355065Y-623175D01*
X1357536Y-624198D01*
X1360188Y-624548D01*
X1362841Y-624198D01*
X1365312Y-623175D01*
X1367435Y-621546D01*
X1369063Y-619424D01*
X1370087Y-616952D01*
X1370436Y-614300D01*
X1370087Y-611648D01*
X1369063Y-609176D01*
X1367435Y-607054D01*
X1365312Y-605425D01*
X1362841Y-604402D01*
X1360188Y-604052D01*
D02*
G37*
G36*
X1294402D02*
X1291750Y-604402D01*
X1289279Y-605425D01*
X1287156Y-607054D01*
X1285528Y-609176D01*
X1284504Y-611648D01*
X1284155Y-614300D01*
X1284504Y-616952D01*
X1285528Y-619424D01*
X1287156Y-621546D01*
X1289279Y-623175D01*
X1291750Y-624198D01*
X1294402Y-624548D01*
X1297055Y-624198D01*
X1299526Y-623175D01*
X1301649Y-621546D01*
X1303277Y-619424D01*
X1304301Y-616952D01*
X1304650Y-614300D01*
X1304301Y-611648D01*
X1303277Y-609176D01*
X1301649Y-607054D01*
X1299526Y-605425D01*
X1297055Y-604402D01*
X1294402Y-604052D01*
D02*
G37*
G36*
X990300Y-628852D02*
X987943Y-629320D01*
X985945Y-630655D01*
X984610Y-632653D01*
X984142Y-635010D01*
X984610Y-637367D01*
X985945Y-639365D01*
X987943Y-640699D01*
X990300Y-641168D01*
X992657Y-640699D01*
X994655Y-639365D01*
X995990Y-637367D01*
X996458Y-635010D01*
X995990Y-632653D01*
X994655Y-630655D01*
X992657Y-629320D01*
X990300Y-628852D01*
D02*
G37*
G36*
X549300D02*
X546943Y-629320D01*
X544945Y-630655D01*
X543610Y-632653D01*
X543142Y-635010D01*
X543610Y-637367D01*
X544945Y-639365D01*
X546943Y-640699D01*
X549300Y-641168D01*
X551657Y-640699D01*
X553655Y-639365D01*
X554990Y-637367D01*
X555458Y-635010D01*
X554990Y-632653D01*
X553655Y-630655D01*
X551657Y-629320D01*
X549300Y-628852D01*
D02*
G37*
G36*
X1005900Y-631252D02*
X1003543Y-631720D01*
X1001545Y-633055D01*
X1000210Y-635053D01*
X999742Y-637410D01*
X1000210Y-639767D01*
X1001545Y-641765D01*
X1003543Y-643100D01*
X1005900Y-643568D01*
X1008257Y-643100D01*
X1010255Y-641765D01*
X1011590Y-639767D01*
X1012058Y-637410D01*
X1011590Y-635053D01*
X1010255Y-633055D01*
X1008257Y-631720D01*
X1005900Y-631252D01*
D02*
G37*
G36*
X564900D02*
X562543Y-631720D01*
X560545Y-633055D01*
X559210Y-635053D01*
X558742Y-637410D01*
X559210Y-639767D01*
X560545Y-641765D01*
X562543Y-643100D01*
X564900Y-643568D01*
X567257Y-643100D01*
X569254Y-641765D01*
X570589Y-639767D01*
X571058Y-637410D01*
X570589Y-635053D01*
X569254Y-633055D01*
X567257Y-631720D01*
X564900Y-631252D01*
D02*
G37*
G36*
X1137850Y-632452D02*
X1135493Y-632920D01*
X1133495Y-634255D01*
X1132160Y-636253D01*
X1131692Y-638610D01*
X1132160Y-640967D01*
X1133495Y-642965D01*
X1135493Y-644299D01*
X1137850Y-644768D01*
X1140207Y-644299D01*
X1142205Y-642965D01*
X1143540Y-640967D01*
X1144008Y-638610D01*
X1143540Y-636253D01*
X1142205Y-634255D01*
X1140207Y-632920D01*
X1137850Y-632452D01*
D02*
G37*
G36*
X696850D02*
X694493Y-632920D01*
X692495Y-634255D01*
X691161Y-636253D01*
X690692Y-638610D01*
X691161Y-640967D01*
X692495Y-642965D01*
X694493Y-644299D01*
X696850Y-644768D01*
X699207Y-644299D01*
X701205Y-642965D01*
X702540Y-640967D01*
X703008Y-638610D01*
X702540Y-636253D01*
X701205Y-634255D01*
X699207Y-632920D01*
X696850Y-632452D01*
D02*
G37*
G36*
X1089400Y-635352D02*
X1087043Y-635820D01*
X1085045Y-637155D01*
X1083710Y-639153D01*
X1083242Y-641510D01*
X1083710Y-643867D01*
X1085045Y-645865D01*
X1087043Y-647199D01*
X1089400Y-647668D01*
X1091757Y-647199D01*
X1093755Y-645865D01*
X1095089Y-643867D01*
X1095558Y-641510D01*
X1095089Y-639153D01*
X1093755Y-637155D01*
X1091757Y-635820D01*
X1089400Y-635352D01*
D02*
G37*
G36*
X648400D02*
X646043Y-635820D01*
X644045Y-637155D01*
X642710Y-639153D01*
X642242Y-641510D01*
X642710Y-643867D01*
X644045Y-645865D01*
X646043Y-647199D01*
X648400Y-647668D01*
X650757Y-647199D01*
X652755Y-645865D01*
X654090Y-643867D01*
X654558Y-641510D01*
X654090Y-639153D01*
X652755Y-637155D01*
X650757Y-635820D01*
X648400Y-635352D01*
D02*
G37*
G36*
X1204975Y-635277D02*
X1202618Y-635745D01*
X1200620Y-637080D01*
X1199286Y-639078D01*
X1198817Y-641435D01*
X1199286Y-643792D01*
X1200511Y-645626D01*
X1200636Y-646157D01*
Y-646713D01*
X1200511Y-647244D01*
X1199286Y-649078D01*
X1198817Y-651435D01*
X1199286Y-653792D01*
X1200620Y-655789D01*
X1202618Y-657124D01*
X1204975Y-657593D01*
X1207332Y-657124D01*
X1209330Y-655789D01*
X1210665Y-653792D01*
X1211133Y-651435D01*
X1210665Y-649078D01*
X1209439Y-647244D01*
X1209314Y-646713D01*
Y-646157D01*
X1209439Y-645626D01*
X1210665Y-643792D01*
X1211133Y-641435D01*
X1210665Y-639078D01*
X1209330Y-637080D01*
X1207332Y-635745D01*
X1204975Y-635277D01*
D02*
G37*
G36*
X763975D02*
X761618Y-635745D01*
X759620Y-637080D01*
X758286Y-639078D01*
X757817Y-641435D01*
X758286Y-643792D01*
X759511Y-645626D01*
X759636Y-646157D01*
Y-646713D01*
X759511Y-647244D01*
X758286Y-649078D01*
X757817Y-651435D01*
X758286Y-653792D01*
X759620Y-655789D01*
X761618Y-657124D01*
X763975Y-657593D01*
X766332Y-657124D01*
X768330Y-655789D01*
X769665Y-653792D01*
X770133Y-651435D01*
X769665Y-649078D01*
X768439Y-647244D01*
X768314Y-646713D01*
Y-646157D01*
X768439Y-645626D01*
X769665Y-643792D01*
X770133Y-641435D01*
X769665Y-639078D01*
X768330Y-637080D01*
X766332Y-635745D01*
X763975Y-635277D01*
D02*
G37*
G36*
X990800Y-647452D02*
X988443Y-647920D01*
X986445Y-649255D01*
X985110Y-651253D01*
X984642Y-653610D01*
X985110Y-655967D01*
X986445Y-657964D01*
X988443Y-659299D01*
X990800Y-659768D01*
X993157Y-659299D01*
X995155Y-657964D01*
X996489Y-655967D01*
X996958Y-653610D01*
X996489Y-651253D01*
X995155Y-649255D01*
X993157Y-647920D01*
X990800Y-647452D01*
D02*
G37*
G36*
X549800D02*
X547443Y-647920D01*
X545445Y-649255D01*
X544110Y-651253D01*
X543642Y-653610D01*
X544110Y-655967D01*
X545445Y-657964D01*
X547443Y-659299D01*
X549800Y-659768D01*
X552157Y-659299D01*
X554155Y-657964D01*
X555490Y-655967D01*
X555958Y-653610D01*
X555490Y-651253D01*
X554155Y-649255D01*
X552157Y-647920D01*
X549800Y-647452D01*
D02*
G37*
G36*
X1137850Y-649152D02*
X1135493Y-649620D01*
X1133495Y-650955D01*
X1132160Y-652953D01*
X1131692Y-655310D01*
X1132160Y-657667D01*
X1133495Y-659665D01*
X1135493Y-661000D01*
X1137850Y-661468D01*
X1140207Y-661000D01*
X1142205Y-659665D01*
X1143540Y-657667D01*
X1144008Y-655310D01*
X1143540Y-652953D01*
X1142205Y-650955D01*
X1140207Y-649620D01*
X1137850Y-649152D01*
D02*
G37*
G36*
X696850D02*
X694493Y-649620D01*
X692495Y-650955D01*
X691161Y-652953D01*
X690692Y-655310D01*
X691161Y-657667D01*
X692495Y-659665D01*
X694493Y-661000D01*
X696850Y-661468D01*
X699207Y-661000D01*
X701205Y-659665D01*
X702540Y-657667D01*
X703008Y-655310D01*
X702540Y-652953D01*
X701205Y-650955D01*
X699207Y-649620D01*
X696850Y-649152D01*
D02*
G37*
G36*
X1005300Y-656852D02*
X1002943Y-657320D01*
X1000945Y-658655D01*
X999610Y-660653D01*
X999142Y-663010D01*
X999610Y-665367D01*
X1000945Y-667365D01*
X1002943Y-668700D01*
X1005300Y-669168D01*
X1007657Y-668700D01*
X1009654Y-667365D01*
X1010990Y-665367D01*
X1011458Y-663010D01*
X1010990Y-660653D01*
X1009654Y-658655D01*
X1007657Y-657320D01*
X1005300Y-656852D01*
D02*
G37*
G36*
X564300D02*
X561943Y-657320D01*
X559945Y-658655D01*
X558610Y-660653D01*
X558142Y-663010D01*
X558610Y-665367D01*
X559945Y-667365D01*
X561943Y-668700D01*
X564300Y-669168D01*
X566657Y-668700D01*
X568655Y-667365D01*
X569990Y-665367D01*
X570458Y-663010D01*
X569990Y-660653D01*
X568655Y-658655D01*
X566657Y-657320D01*
X564300Y-656852D01*
D02*
G37*
G36*
X1090300Y-660052D02*
X1087943Y-660520D01*
X1085945Y-661855D01*
X1084610Y-663853D01*
X1084142Y-666210D01*
X1084610Y-668567D01*
X1085945Y-670565D01*
X1087943Y-671899D01*
X1090300Y-672368D01*
X1092657Y-671899D01*
X1094655Y-670565D01*
X1095990Y-668567D01*
X1096458Y-666210D01*
X1095990Y-663853D01*
X1094655Y-661855D01*
X1092657Y-660520D01*
X1090300Y-660052D01*
D02*
G37*
G36*
X649300D02*
X646943Y-660520D01*
X644945Y-661855D01*
X643610Y-663853D01*
X643142Y-666210D01*
X643610Y-668567D01*
X644945Y-670565D01*
X646943Y-671899D01*
X649300Y-672368D01*
X651657Y-671899D01*
X653655Y-670565D01*
X654989Y-668567D01*
X655458Y-666210D01*
X654989Y-663853D01*
X653655Y-661855D01*
X651657Y-660520D01*
X649300Y-660052D01*
D02*
G37*
G36*
X1334789Y-654852D02*
X1332136Y-655201D01*
X1329665Y-656225D01*
X1327542Y-657854D01*
X1325914Y-659976D01*
X1324890Y-662448D01*
X1324541Y-665100D01*
X1324890Y-667752D01*
X1325914Y-670224D01*
X1327542Y-672346D01*
X1329665Y-673975D01*
X1332136Y-674998D01*
X1334789Y-675348D01*
X1337441Y-674998D01*
X1339912Y-673975D01*
X1342035Y-672346D01*
X1343663Y-670224D01*
X1344687Y-667752D01*
X1345036Y-665100D01*
X1344687Y-662448D01*
X1343663Y-659976D01*
X1342035Y-657854D01*
X1339912Y-656225D01*
X1337441Y-655201D01*
X1334789Y-654852D01*
D02*
G37*
G36*
X1269003D02*
X1266350Y-655201D01*
X1263879Y-656225D01*
X1261756Y-657854D01*
X1260128Y-659976D01*
X1259104Y-662448D01*
X1258755Y-665100D01*
X1259104Y-667752D01*
X1260128Y-670224D01*
X1261756Y-672346D01*
X1263879Y-673975D01*
X1266350Y-674998D01*
X1269003Y-675348D01*
X1271655Y-674998D01*
X1274126Y-673975D01*
X1276249Y-672346D01*
X1277877Y-670224D01*
X1278901Y-667752D01*
X1279250Y-665100D01*
X1278901Y-662448D01*
X1277877Y-659976D01*
X1276249Y-657854D01*
X1274126Y-656225D01*
X1271655Y-655201D01*
X1269003Y-654852D01*
D02*
G37*
G36*
X1360188Y-667552D02*
X1357536Y-667902D01*
X1355065Y-668925D01*
X1352942Y-670554D01*
X1351314Y-672676D01*
X1350290Y-675148D01*
X1349941Y-677800D01*
X1350290Y-680452D01*
X1351314Y-682924D01*
X1352942Y-685046D01*
X1355065Y-686675D01*
X1357536Y-687699D01*
X1360188Y-688048D01*
X1362841Y-687699D01*
X1365312Y-686675D01*
X1367435Y-685046D01*
X1369063Y-682924D01*
X1370087Y-680452D01*
X1370436Y-677800D01*
X1370087Y-675148D01*
X1369063Y-672676D01*
X1367435Y-670554D01*
X1365312Y-668925D01*
X1362841Y-667902D01*
X1360188Y-667552D01*
D02*
G37*
G36*
X1294402D02*
X1291750Y-667902D01*
X1289279Y-668925D01*
X1287156Y-670554D01*
X1285528Y-672676D01*
X1284504Y-675148D01*
X1284155Y-677800D01*
X1284504Y-680452D01*
X1285528Y-682924D01*
X1287156Y-685046D01*
X1289279Y-686675D01*
X1291750Y-687699D01*
X1294402Y-688048D01*
X1297055Y-687699D01*
X1299526Y-686675D01*
X1301649Y-685046D01*
X1303277Y-682924D01*
X1304301Y-680452D01*
X1304650Y-677800D01*
X1304301Y-675148D01*
X1303277Y-672676D01*
X1301649Y-670554D01*
X1299526Y-668925D01*
X1297055Y-667902D01*
X1294402Y-667552D01*
D02*
G37*
G36*
X987800Y-680452D02*
X985443Y-680920D01*
X983445Y-682255D01*
X982110Y-684253D01*
X981642Y-686610D01*
X982110Y-688967D01*
X983445Y-690965D01*
X985443Y-692299D01*
X987800Y-692768D01*
X990157Y-692299D01*
X992154Y-690965D01*
X993490Y-688967D01*
X993958Y-686610D01*
X993490Y-684253D01*
X992154Y-682255D01*
X990157Y-680920D01*
X987800Y-680452D01*
D02*
G37*
G36*
X546800D02*
X544443Y-680920D01*
X542445Y-682255D01*
X541110Y-684253D01*
X540642Y-686610D01*
X541110Y-688967D01*
X542445Y-690965D01*
X544443Y-692299D01*
X546800Y-692768D01*
X549157Y-692299D01*
X551155Y-690965D01*
X552490Y-688967D01*
X552958Y-686610D01*
X552490Y-684253D01*
X551155Y-682255D01*
X549157Y-680920D01*
X546800Y-680452D01*
D02*
G37*
G36*
X1005500Y-683252D02*
X1003143Y-683720D01*
X1001145Y-685055D01*
X999810Y-687053D01*
X999342Y-689410D01*
X999810Y-691767D01*
X1001145Y-693765D01*
X1003143Y-695099D01*
X1005500Y-695568D01*
X1007857Y-695099D01*
X1009855Y-693765D01*
X1011189Y-691767D01*
X1011658Y-689410D01*
X1011189Y-687053D01*
X1009855Y-685055D01*
X1007857Y-683720D01*
X1005500Y-683252D01*
D02*
G37*
G36*
X564500D02*
X562143Y-683720D01*
X560145Y-685055D01*
X558810Y-687053D01*
X558342Y-689410D01*
X558810Y-691767D01*
X560145Y-693765D01*
X562143Y-695099D01*
X564500Y-695568D01*
X566857Y-695099D01*
X568854Y-693765D01*
X570190Y-691767D01*
X570658Y-689410D01*
X570190Y-687053D01*
X568854Y-685055D01*
X566857Y-683720D01*
X564500Y-683252D01*
D02*
G37*
G36*
X1137850Y-683452D02*
X1135493Y-683920D01*
X1133495Y-685255D01*
X1132160Y-687253D01*
X1131692Y-689610D01*
X1132160Y-691967D01*
X1133495Y-693965D01*
X1135493Y-695300D01*
X1137850Y-695768D01*
X1140207Y-695300D01*
X1142205Y-693965D01*
X1143540Y-691967D01*
X1144008Y-689610D01*
X1143540Y-687253D01*
X1142205Y-685255D01*
X1140207Y-683920D01*
X1137850Y-683452D01*
D02*
G37*
G36*
X696850D02*
X694493Y-683920D01*
X692495Y-685255D01*
X691161Y-687253D01*
X690692Y-689610D01*
X691161Y-691967D01*
X692495Y-693965D01*
X694493Y-695300D01*
X696850Y-695768D01*
X699207Y-695300D01*
X701205Y-693965D01*
X702540Y-691967D01*
X703008Y-689610D01*
X702540Y-687253D01*
X701205Y-685255D01*
X699207Y-683920D01*
X696850Y-683452D01*
D02*
G37*
G36*
X1092500Y-684652D02*
X1090143Y-685120D01*
X1088145Y-686455D01*
X1086811Y-688453D01*
X1086342Y-690810D01*
X1086811Y-693167D01*
X1088145Y-695165D01*
X1090143Y-696499D01*
X1092500Y-696968D01*
X1094857Y-696499D01*
X1096855Y-695165D01*
X1098189Y-693167D01*
X1098658Y-690810D01*
X1098189Y-688453D01*
X1096855Y-686455D01*
X1094857Y-685120D01*
X1092500Y-684652D01*
D02*
G37*
G36*
X651500D02*
X649143Y-685120D01*
X647145Y-686455D01*
X645810Y-688453D01*
X645342Y-690810D01*
X645810Y-693167D01*
X647145Y-695165D01*
X649143Y-696499D01*
X651500Y-696968D01*
X653857Y-696499D01*
X655855Y-695165D01*
X657189Y-693167D01*
X657658Y-690810D01*
X657189Y-688453D01*
X655855Y-686455D01*
X653857Y-685120D01*
X651500Y-684652D01*
D02*
G37*
G36*
X1334789Y-680252D02*
X1332136Y-680602D01*
X1329665Y-681625D01*
X1327542Y-683254D01*
X1325914Y-685376D01*
X1324890Y-687848D01*
X1324541Y-690500D01*
X1324890Y-693152D01*
X1325914Y-695624D01*
X1327542Y-697746D01*
X1329665Y-699375D01*
X1332136Y-700398D01*
X1334789Y-700748D01*
X1337441Y-700398D01*
X1339912Y-699375D01*
X1342035Y-697746D01*
X1343663Y-695624D01*
X1344687Y-693152D01*
X1345036Y-690500D01*
X1344687Y-687848D01*
X1343663Y-685376D01*
X1342035Y-683254D01*
X1339912Y-681625D01*
X1337441Y-680602D01*
X1334789Y-680252D01*
D02*
G37*
G36*
X1269003D02*
X1266350Y-680602D01*
X1263879Y-681625D01*
X1261756Y-683254D01*
X1260128Y-685376D01*
X1259104Y-687848D01*
X1258755Y-690500D01*
X1259104Y-693152D01*
X1260128Y-695624D01*
X1261756Y-697746D01*
X1263879Y-699375D01*
X1266350Y-700398D01*
X1269003Y-700748D01*
X1271655Y-700398D01*
X1274126Y-699375D01*
X1276249Y-697746D01*
X1277877Y-695624D01*
X1278901Y-693152D01*
X1279250Y-690500D01*
X1278901Y-687848D01*
X1277877Y-685376D01*
X1276249Y-683254D01*
X1274126Y-681625D01*
X1271655Y-680602D01*
X1269003Y-680252D01*
D02*
G37*
G36*
X1204975Y-686277D02*
X1202618Y-686745D01*
X1200620Y-688080D01*
X1199286Y-690078D01*
X1198817Y-692435D01*
X1199286Y-694792D01*
X1200511Y-696626D01*
X1200636Y-697157D01*
Y-697713D01*
X1200511Y-698244D01*
X1199286Y-700078D01*
X1198817Y-702435D01*
X1199286Y-704792D01*
X1200620Y-706789D01*
X1202618Y-708124D01*
X1204975Y-708593D01*
X1207332Y-708124D01*
X1209330Y-706789D01*
X1210665Y-704792D01*
X1211133Y-702435D01*
X1210665Y-700078D01*
X1209439Y-698244D01*
X1209314Y-697713D01*
Y-697157D01*
X1209439Y-696626D01*
X1210665Y-694792D01*
X1211133Y-692435D01*
X1210665Y-690078D01*
X1209330Y-688080D01*
X1207332Y-686745D01*
X1204975Y-686277D01*
D02*
G37*
G36*
X763975D02*
X761618Y-686745D01*
X759620Y-688080D01*
X758286Y-690078D01*
X757817Y-692435D01*
X758286Y-694792D01*
X759511Y-696626D01*
X759636Y-697157D01*
Y-697713D01*
X759511Y-698244D01*
X758286Y-700078D01*
X757817Y-702435D01*
X758286Y-704792D01*
X759620Y-706789D01*
X761618Y-708124D01*
X763975Y-708593D01*
X766332Y-708124D01*
X768330Y-706789D01*
X769665Y-704792D01*
X770133Y-702435D01*
X769665Y-700078D01*
X768439Y-698244D01*
X768314Y-697713D01*
Y-697157D01*
X768439Y-696626D01*
X769665Y-694792D01*
X770133Y-692435D01*
X769665Y-690078D01*
X768330Y-688080D01*
X766332Y-686745D01*
X763975Y-686277D01*
D02*
G37*
G36*
X988900Y-699952D02*
X986543Y-700420D01*
X984545Y-701755D01*
X983210Y-703753D01*
X982742Y-706110D01*
X983210Y-708467D01*
X984545Y-710465D01*
X986543Y-711799D01*
X988900Y-712268D01*
X991257Y-711799D01*
X993254Y-710465D01*
X994589Y-708467D01*
X995058Y-706110D01*
X994589Y-703753D01*
X993254Y-701755D01*
X991257Y-700420D01*
X988900Y-699952D01*
D02*
G37*
G36*
X547900D02*
X545543Y-700420D01*
X543545Y-701755D01*
X542210Y-703753D01*
X541742Y-706110D01*
X542210Y-708467D01*
X543545Y-710465D01*
X545543Y-711799D01*
X547900Y-712268D01*
X550257Y-711799D01*
X552254Y-710465D01*
X553590Y-708467D01*
X554058Y-706110D01*
X553590Y-703753D01*
X552254Y-701755D01*
X550257Y-700420D01*
X547900Y-699952D01*
D02*
G37*
G36*
X1137850Y-700452D02*
X1135493Y-700920D01*
X1133495Y-702255D01*
X1132160Y-704253D01*
X1131692Y-706610D01*
X1132160Y-708967D01*
X1133495Y-710965D01*
X1135493Y-712299D01*
X1137850Y-712768D01*
X1140207Y-712299D01*
X1142205Y-710965D01*
X1143540Y-708967D01*
X1144008Y-706610D01*
X1143540Y-704253D01*
X1142205Y-702255D01*
X1140207Y-700920D01*
X1137850Y-700452D01*
D02*
G37*
G36*
X696850D02*
X694493Y-700920D01*
X692495Y-702255D01*
X691161Y-704253D01*
X690692Y-706610D01*
X691161Y-708967D01*
X692495Y-710965D01*
X694493Y-712299D01*
X696850Y-712768D01*
X699207Y-712299D01*
X701205Y-710965D01*
X702540Y-708967D01*
X703008Y-706610D01*
X702540Y-704253D01*
X701205Y-702255D01*
X699207Y-700920D01*
X696850Y-700452D01*
D02*
G37*
G36*
X1360188Y-692952D02*
X1357536Y-693301D01*
X1355065Y-694325D01*
X1352942Y-695954D01*
X1351314Y-698076D01*
X1350290Y-700548D01*
X1349941Y-703200D01*
X1350290Y-705852D01*
X1351314Y-708324D01*
X1352942Y-710446D01*
X1355065Y-712075D01*
X1357536Y-713099D01*
X1360188Y-713448D01*
X1362841Y-713099D01*
X1365312Y-712075D01*
X1367435Y-710446D01*
X1369063Y-708324D01*
X1370087Y-705852D01*
X1370436Y-703200D01*
X1370087Y-700548D01*
X1369063Y-698076D01*
X1367435Y-695954D01*
X1365312Y-694325D01*
X1362841Y-693301D01*
X1360188Y-692952D01*
D02*
G37*
G36*
X1294402D02*
X1291750Y-693301D01*
X1289279Y-694325D01*
X1287156Y-695954D01*
X1285528Y-698076D01*
X1284504Y-700548D01*
X1284155Y-703200D01*
X1284504Y-705852D01*
X1285528Y-708324D01*
X1287156Y-710446D01*
X1289279Y-712075D01*
X1291750Y-713099D01*
X1294402Y-713448D01*
X1297055Y-713099D01*
X1299526Y-712075D01*
X1301649Y-710446D01*
X1303277Y-708324D01*
X1304301Y-705852D01*
X1304650Y-703200D01*
X1304301Y-700548D01*
X1303277Y-698076D01*
X1301649Y-695954D01*
X1299526Y-694325D01*
X1297055Y-693301D01*
X1294402Y-692952D01*
D02*
G37*
G36*
X1334789Y-705652D02*
X1332136Y-706002D01*
X1329665Y-707025D01*
X1327542Y-708654D01*
X1325914Y-710776D01*
X1324890Y-713248D01*
X1324541Y-715900D01*
X1324890Y-718552D01*
X1325914Y-721024D01*
X1327542Y-723146D01*
X1329665Y-724775D01*
X1332136Y-725798D01*
X1334789Y-726148D01*
X1337441Y-725798D01*
X1339912Y-724775D01*
X1342035Y-723146D01*
X1343663Y-721024D01*
X1344687Y-718552D01*
X1345036Y-715900D01*
X1344687Y-713248D01*
X1343663Y-710776D01*
X1342035Y-708654D01*
X1339912Y-707025D01*
X1337441Y-706002D01*
X1334789Y-705652D01*
D02*
G37*
G36*
X1269003D02*
X1266350Y-706002D01*
X1263879Y-707025D01*
X1261756Y-708654D01*
X1260128Y-710776D01*
X1259104Y-713248D01*
X1258755Y-715900D01*
X1259104Y-718552D01*
X1260128Y-721024D01*
X1261756Y-723146D01*
X1263879Y-724775D01*
X1266350Y-725798D01*
X1269003Y-726148D01*
X1271655Y-725798D01*
X1274126Y-724775D01*
X1276249Y-723146D01*
X1277877Y-721024D01*
X1278901Y-718552D01*
X1279250Y-715900D01*
X1278901Y-713248D01*
X1277877Y-710776D01*
X1276249Y-708654D01*
X1274126Y-707025D01*
X1271655Y-706002D01*
X1269003Y-705652D01*
D02*
G37*
G36*
X1360188Y-718352D02*
X1357536Y-718701D01*
X1355065Y-719725D01*
X1352942Y-721354D01*
X1351314Y-723476D01*
X1350290Y-725948D01*
X1349941Y-728600D01*
X1350290Y-731252D01*
X1351314Y-733724D01*
X1352942Y-735846D01*
X1355065Y-737475D01*
X1357536Y-738499D01*
X1360188Y-738848D01*
X1362841Y-738499D01*
X1365312Y-737475D01*
X1367435Y-735846D01*
X1369063Y-733724D01*
X1370087Y-731252D01*
X1370436Y-728600D01*
X1370087Y-725948D01*
X1369063Y-723476D01*
X1367435Y-721354D01*
X1365312Y-719725D01*
X1362841Y-718701D01*
X1360188Y-718352D01*
D02*
G37*
G36*
X1294402D02*
X1291750Y-718701D01*
X1289279Y-719725D01*
X1287156Y-721354D01*
X1285528Y-723476D01*
X1284504Y-725948D01*
X1284155Y-728600D01*
X1284504Y-731252D01*
X1285528Y-733724D01*
X1287156Y-735846D01*
X1289279Y-737475D01*
X1291750Y-738499D01*
X1294402Y-738848D01*
X1297055Y-738499D01*
X1299526Y-737475D01*
X1301649Y-735846D01*
X1303277Y-733724D01*
X1304301Y-731252D01*
X1304650Y-728600D01*
X1304301Y-725948D01*
X1303277Y-723476D01*
X1301649Y-721354D01*
X1299526Y-719725D01*
X1297055Y-718701D01*
X1294402Y-718352D01*
D02*
G37*
G36*
X1137850Y-734452D02*
X1135493Y-734920D01*
X1133495Y-736255D01*
X1132160Y-738253D01*
X1131692Y-740610D01*
X1132160Y-742967D01*
X1133495Y-744965D01*
X1135493Y-746300D01*
X1137850Y-746768D01*
X1140207Y-746300D01*
X1142205Y-744965D01*
X1143540Y-742967D01*
X1144008Y-740610D01*
X1143540Y-738253D01*
X1142205Y-736255D01*
X1140207Y-734920D01*
X1137850Y-734452D01*
D02*
G37*
G36*
X987500D02*
X985143Y-734920D01*
X983145Y-736255D01*
X981810Y-738253D01*
X981342Y-740610D01*
X981810Y-742967D01*
X983145Y-744965D01*
X985143Y-746300D01*
X987500Y-746768D01*
X989857Y-746300D01*
X991855Y-744965D01*
X993189Y-742967D01*
X993658Y-740610D01*
X993189Y-738253D01*
X991855Y-736255D01*
X989857Y-734920D01*
X987500Y-734452D01*
D02*
G37*
G36*
X696850D02*
X694493Y-734920D01*
X692495Y-736255D01*
X691161Y-738253D01*
X690692Y-740610D01*
X691161Y-742967D01*
X692495Y-744965D01*
X694493Y-746300D01*
X696850Y-746768D01*
X699207Y-746300D01*
X701205Y-744965D01*
X702540Y-742967D01*
X703008Y-740610D01*
X702540Y-738253D01*
X701205Y-736255D01*
X699207Y-734920D01*
X696850Y-734452D01*
D02*
G37*
G36*
X546500D02*
X544143Y-734920D01*
X542145Y-736255D01*
X540810Y-738253D01*
X540342Y-740610D01*
X540810Y-742967D01*
X542145Y-744965D01*
X544143Y-746300D01*
X546500Y-746768D01*
X548857Y-746300D01*
X550854Y-744965D01*
X552189Y-742967D01*
X552658Y-740610D01*
X552189Y-738253D01*
X550854Y-736255D01*
X548857Y-734920D01*
X546500Y-734452D01*
D02*
G37*
G36*
X1334789Y-731052D02*
X1332136Y-731402D01*
X1329665Y-732425D01*
X1327542Y-734054D01*
X1325914Y-736176D01*
X1324890Y-738648D01*
X1324541Y-741300D01*
X1324890Y-743952D01*
X1325914Y-746424D01*
X1327542Y-748546D01*
X1329665Y-750175D01*
X1332136Y-751199D01*
X1334789Y-751548D01*
X1337441Y-751199D01*
X1339912Y-750175D01*
X1342035Y-748546D01*
X1343663Y-746424D01*
X1344687Y-743952D01*
X1345036Y-741300D01*
X1344687Y-738648D01*
X1343663Y-736176D01*
X1342035Y-734054D01*
X1339912Y-732425D01*
X1337441Y-731402D01*
X1334789Y-731052D01*
D02*
G37*
G36*
X1269003D02*
X1266350Y-731402D01*
X1263879Y-732425D01*
X1261756Y-734054D01*
X1260128Y-736176D01*
X1259104Y-738648D01*
X1258755Y-741300D01*
X1259104Y-743952D01*
X1260128Y-746424D01*
X1261756Y-748546D01*
X1263879Y-750175D01*
X1266350Y-751199D01*
X1269003Y-751548D01*
X1271655Y-751199D01*
X1274126Y-750175D01*
X1276249Y-748546D01*
X1277877Y-746424D01*
X1278901Y-743952D01*
X1279250Y-741300D01*
X1278901Y-738648D01*
X1277877Y-736176D01*
X1276249Y-734054D01*
X1274126Y-732425D01*
X1271655Y-731402D01*
X1269003Y-731052D01*
D02*
G37*
G36*
X1204975Y-737877D02*
X1202618Y-738345D01*
X1200621Y-739680D01*
X1199286Y-741678D01*
X1198817Y-744035D01*
X1199286Y-746392D01*
X1200511Y-748226D01*
X1200636Y-748757D01*
Y-749313D01*
X1200511Y-749844D01*
X1199286Y-751678D01*
X1198817Y-754035D01*
X1199286Y-756392D01*
X1200621Y-758390D01*
X1202618Y-759725D01*
X1204975Y-760193D01*
X1207332Y-759725D01*
X1209330Y-758390D01*
X1210665Y-756392D01*
X1211133Y-754035D01*
X1210665Y-751678D01*
X1209439Y-749844D01*
X1209314Y-749313D01*
Y-748757D01*
X1209439Y-748226D01*
X1210665Y-746392D01*
X1211133Y-744035D01*
X1210665Y-741678D01*
X1209330Y-739680D01*
X1207332Y-738345D01*
X1204975Y-737877D01*
D02*
G37*
G36*
X763975D02*
X761618Y-738345D01*
X759621Y-739680D01*
X758286Y-741678D01*
X757817Y-744035D01*
X758286Y-746392D01*
X759511Y-748226D01*
X759636Y-748757D01*
Y-749313D01*
X759511Y-749844D01*
X758286Y-751678D01*
X757817Y-754035D01*
X758286Y-756392D01*
X759621Y-758390D01*
X761618Y-759725D01*
X763975Y-760193D01*
X766332Y-759725D01*
X768330Y-758390D01*
X769665Y-756392D01*
X770134Y-754035D01*
X769665Y-751678D01*
X768439Y-749844D01*
X768314Y-749313D01*
Y-748757D01*
X768439Y-748226D01*
X769665Y-746392D01*
X770134Y-744035D01*
X769665Y-741678D01*
X768330Y-739680D01*
X766332Y-738345D01*
X763975Y-737877D01*
D02*
G37*
G36*
X1137850Y-751452D02*
X1135493Y-751920D01*
X1133495Y-753255D01*
X1132160Y-755253D01*
X1131692Y-757610D01*
X1132160Y-759967D01*
X1133495Y-761965D01*
X1135493Y-763299D01*
X1137850Y-763768D01*
X1140207Y-763299D01*
X1142205Y-761965D01*
X1143540Y-759967D01*
X1144008Y-757610D01*
X1143540Y-755253D01*
X1142205Y-753255D01*
X1140207Y-751920D01*
X1137850Y-751452D01*
D02*
G37*
G36*
X989000D02*
X986643Y-751920D01*
X984645Y-753255D01*
X983310Y-755253D01*
X982842Y-757610D01*
X983310Y-759967D01*
X984645Y-761965D01*
X986643Y-763299D01*
X989000Y-763768D01*
X991357Y-763299D01*
X993355Y-761965D01*
X994690Y-759967D01*
X995158Y-757610D01*
X994690Y-755253D01*
X993355Y-753255D01*
X991357Y-751920D01*
X989000Y-751452D01*
D02*
G37*
G36*
X696850D02*
X694493Y-751920D01*
X692495Y-753255D01*
X691161Y-755253D01*
X690692Y-757610D01*
X691161Y-759967D01*
X692495Y-761965D01*
X694493Y-763299D01*
X696850Y-763768D01*
X699207Y-763299D01*
X701205Y-761965D01*
X702540Y-759967D01*
X703008Y-757610D01*
X702540Y-755253D01*
X701205Y-753255D01*
X699207Y-751920D01*
X696850Y-751452D01*
D02*
G37*
G36*
X548000D02*
X545643Y-751920D01*
X543645Y-753255D01*
X542310Y-755253D01*
X541842Y-757610D01*
X542310Y-759967D01*
X543645Y-761965D01*
X545643Y-763299D01*
X548000Y-763768D01*
X550357Y-763299D01*
X552355Y-761965D01*
X553689Y-759967D01*
X554158Y-757610D01*
X553689Y-755253D01*
X552355Y-753255D01*
X550357Y-751920D01*
X548000Y-751452D01*
D02*
G37*
G36*
X1360188Y-743752D02*
X1357536Y-744101D01*
X1355065Y-745125D01*
X1352942Y-746754D01*
X1351314Y-748876D01*
X1350290Y-751348D01*
X1349941Y-754000D01*
X1350290Y-756652D01*
X1351314Y-759124D01*
X1352942Y-761246D01*
X1355065Y-762875D01*
X1357536Y-763898D01*
X1360188Y-764248D01*
X1362841Y-763898D01*
X1365312Y-762875D01*
X1367435Y-761246D01*
X1369063Y-759124D01*
X1370087Y-756652D01*
X1370436Y-754000D01*
X1370087Y-751348D01*
X1369063Y-748876D01*
X1367435Y-746754D01*
X1365312Y-745125D01*
X1362841Y-744101D01*
X1360188Y-743752D01*
D02*
G37*
G36*
X1294402D02*
X1291750Y-744101D01*
X1289279Y-745125D01*
X1287156Y-746754D01*
X1285528Y-748876D01*
X1284504Y-751348D01*
X1284155Y-754000D01*
X1284504Y-756652D01*
X1285528Y-759124D01*
X1287156Y-761246D01*
X1289279Y-762875D01*
X1291750Y-763898D01*
X1294402Y-764248D01*
X1297055Y-763898D01*
X1299526Y-762875D01*
X1301649Y-761246D01*
X1303277Y-759124D01*
X1304301Y-756652D01*
X1304650Y-754000D01*
X1304301Y-751348D01*
X1303277Y-748876D01*
X1301649Y-746754D01*
X1299526Y-745125D01*
X1297055Y-744101D01*
X1294402Y-743752D01*
D02*
G37*
G36*
X1044820Y-764352D02*
X1042463Y-764820D01*
X1040465Y-766155D01*
X1039130Y-768153D01*
X1038662Y-770510D01*
X1039130Y-772867D01*
X1040465Y-774865D01*
X1042463Y-776199D01*
X1044820Y-776668D01*
X1047177Y-776199D01*
X1049175Y-774865D01*
X1050510Y-772867D01*
X1050978Y-770510D01*
X1050510Y-768153D01*
X1049175Y-766155D01*
X1047177Y-764820D01*
X1044820Y-764352D01*
D02*
G37*
G36*
X603820D02*
X601463Y-764820D01*
X599465Y-766155D01*
X598130Y-768153D01*
X597662Y-770510D01*
X598130Y-772867D01*
X599465Y-774865D01*
X601463Y-776199D01*
X603820Y-776668D01*
X606177Y-776199D01*
X608175Y-774865D01*
X609510Y-772867D01*
X609978Y-770510D01*
X609510Y-768153D01*
X608175Y-766155D01*
X606177Y-764820D01*
X603820Y-764352D01*
D02*
G37*
G36*
X1423689Y-744367D02*
X1419332Y-744797D01*
X1415142Y-746067D01*
X1411281Y-748131D01*
X1407897Y-750909D01*
X1405120Y-754293D01*
X1403056Y-758154D01*
X1401785Y-762343D01*
X1401356Y-766700D01*
X1401785Y-771057D01*
X1403056Y-775246D01*
X1405120Y-779107D01*
X1407897Y-782492D01*
X1411281Y-785269D01*
X1415142Y-787333D01*
X1419332Y-788603D01*
X1423689Y-789033D01*
X1428045Y-788603D01*
X1432235Y-787333D01*
X1436096Y-785269D01*
X1439480Y-782492D01*
X1442257Y-779107D01*
X1444321Y-775246D01*
X1445592Y-771057D01*
X1446021Y-766700D01*
X1445592Y-762343D01*
X1444321Y-758154D01*
X1442257Y-754293D01*
X1439480Y-750909D01*
X1436096Y-748131D01*
X1432235Y-746067D01*
X1428045Y-744797D01*
X1423689Y-744367D01*
D02*
G37*
G36*
X1137850Y-788653D02*
X1135493Y-789121D01*
X1133495Y-790456D01*
X1132160Y-792454D01*
X1131692Y-794811D01*
X1132160Y-797168D01*
X1133495Y-799166D01*
X1135493Y-800501D01*
X1137850Y-800969D01*
X1140207Y-800501D01*
X1142205Y-799166D01*
X1143540Y-797168D01*
X1144008Y-794811D01*
X1143540Y-792454D01*
X1142205Y-790456D01*
X1140207Y-789121D01*
X1137850Y-788653D01*
D02*
G37*
G36*
X990501D02*
X988144Y-789121D01*
X986146Y-790456D01*
X984811Y-792454D01*
X984343Y-794811D01*
X984811Y-797168D01*
X986146Y-799166D01*
X988144Y-800501D01*
X990501Y-800969D01*
X992858Y-800501D01*
X994856Y-799166D01*
X996190Y-797168D01*
X996659Y-794811D01*
X996190Y-792454D01*
X994856Y-790456D01*
X992858Y-789121D01*
X990501Y-788653D01*
D02*
G37*
G36*
X696850D02*
X694493Y-789121D01*
X692495Y-790456D01*
X691161Y-792454D01*
X690692Y-794811D01*
X691161Y-797168D01*
X692495Y-799166D01*
X694493Y-800501D01*
X696850Y-800969D01*
X699207Y-800501D01*
X701205Y-799166D01*
X702540Y-797168D01*
X703008Y-794811D01*
X702540Y-792454D01*
X701205Y-790456D01*
X699207Y-789121D01*
X696850Y-788653D01*
D02*
G37*
G36*
X549501D02*
X547144Y-789121D01*
X545146Y-790456D01*
X543811Y-792454D01*
X543343Y-794811D01*
X543811Y-797168D01*
X545146Y-799166D01*
X547144Y-800501D01*
X549501Y-800969D01*
X551858Y-800501D01*
X553856Y-799166D01*
X555191Y-797168D01*
X555659Y-794811D01*
X555191Y-792454D01*
X553856Y-790456D01*
X551858Y-789121D01*
X549501Y-788653D01*
D02*
G37*
G36*
X1332249Y-774970D02*
X1328867Y-775415D01*
X1325716Y-776721D01*
X1323010Y-778797D01*
X1320933Y-781503D01*
X1319628Y-784654D01*
X1319183Y-788036D01*
X1319628Y-791418D01*
X1320933Y-794569D01*
X1323010Y-797275D01*
X1325716Y-799351D01*
X1328867Y-800657D01*
X1332249Y-801102D01*
X1335630Y-800657D01*
X1338781Y-799351D01*
X1341487Y-797275D01*
X1343564Y-794569D01*
X1344869Y-791418D01*
X1345314Y-788036D01*
X1344869Y-784654D01*
X1343564Y-781503D01*
X1341487Y-778797D01*
X1338781Y-776721D01*
X1335630Y-775415D01*
X1332249Y-774970D01*
D02*
G37*
G36*
X1469409Y-781574D02*
X1466027Y-782019D01*
X1462876Y-783325D01*
X1460170Y-785401D01*
X1458093Y-788107D01*
X1456788Y-791258D01*
X1456343Y-794640D01*
X1456788Y-798022D01*
X1458093Y-801173D01*
X1460170Y-803879D01*
X1462876Y-805955D01*
X1466027Y-807261D01*
X1469409Y-807706D01*
X1472790Y-807261D01*
X1475941Y-805955D01*
X1478647Y-803879D01*
X1480724Y-801173D01*
X1482029Y-798022D01*
X1482474Y-794640D01*
X1482029Y-791258D01*
X1480724Y-788107D01*
X1478647Y-785401D01*
X1475941Y-783325D01*
X1472790Y-782019D01*
X1469409Y-781574D01*
D02*
G37*
G36*
X1269003D02*
X1265621Y-782019D01*
X1262470Y-783325D01*
X1259764Y-785401D01*
X1257687Y-788107D01*
X1256382Y-791258D01*
X1255937Y-794640D01*
X1256382Y-798022D01*
X1257687Y-801173D01*
X1259764Y-803879D01*
X1262470Y-805955D01*
X1265621Y-807261D01*
X1269003Y-807706D01*
X1272384Y-807261D01*
X1275535Y-805955D01*
X1278241Y-803879D01*
X1280318Y-801173D01*
X1281623Y-798022D01*
X1282068Y-794640D01*
X1281623Y-791258D01*
X1280318Y-788107D01*
X1278241Y-785401D01*
X1275535Y-783325D01*
X1272384Y-782019D01*
X1269003Y-781574D01*
D02*
G37*
G36*
X1204800Y-791452D02*
X1202443Y-791920D01*
X1200445Y-793255D01*
X1199110Y-795253D01*
X1198642Y-797610D01*
X1199110Y-799967D01*
X1200336Y-801801D01*
X1200461Y-802332D01*
Y-802888D01*
X1200336Y-803419D01*
X1199110Y-805253D01*
X1198642Y-807610D01*
X1199110Y-809967D01*
X1200445Y-811965D01*
X1202443Y-813299D01*
X1204800Y-813768D01*
X1207157Y-813299D01*
X1209155Y-811965D01*
X1210490Y-809967D01*
X1210958Y-807610D01*
X1210490Y-805253D01*
X1209264Y-803419D01*
X1209139Y-802888D01*
Y-802332D01*
X1209264Y-801801D01*
X1210490Y-799967D01*
X1210958Y-797610D01*
X1210490Y-795253D01*
X1209155Y-793255D01*
X1207157Y-791920D01*
X1204800Y-791452D01*
D02*
G37*
G36*
X763800D02*
X761443Y-791920D01*
X759445Y-793255D01*
X758110Y-795253D01*
X757642Y-797610D01*
X758110Y-799967D01*
X759336Y-801801D01*
X759461Y-802332D01*
Y-802888D01*
X759336Y-803419D01*
X758110Y-805253D01*
X757642Y-807610D01*
X758110Y-809967D01*
X759445Y-811965D01*
X761443Y-813299D01*
X763800Y-813768D01*
X766157Y-813299D01*
X768155Y-811965D01*
X769490Y-809967D01*
X769958Y-807610D01*
X769490Y-805253D01*
X768264Y-803419D01*
X768139Y-802888D01*
Y-802332D01*
X768264Y-801801D01*
X769490Y-799967D01*
X769958Y-797610D01*
X769490Y-795253D01*
X768155Y-793255D01*
X766157Y-791920D01*
X763800Y-791452D01*
D02*
G37*
G36*
X1137850Y-805651D02*
X1135493Y-806120D01*
X1133495Y-807455D01*
X1132160Y-809453D01*
X1131692Y-811809D01*
X1132160Y-814166D01*
X1133495Y-816164D01*
X1135493Y-817499D01*
X1137850Y-817968D01*
X1140207Y-817499D01*
X1142205Y-816164D01*
X1143540Y-814166D01*
X1144008Y-811809D01*
X1143540Y-809453D01*
X1142205Y-807455D01*
X1140207Y-806120D01*
X1137850Y-805651D01*
D02*
G37*
G36*
X990299D02*
X987942Y-806120D01*
X985945Y-807455D01*
X984610Y-809453D01*
X984141Y-811809D01*
X984610Y-814166D01*
X985945Y-816164D01*
X987942Y-817499D01*
X990299Y-817968D01*
X992656Y-817499D01*
X994654Y-816164D01*
X995989Y-814166D01*
X996458Y-811809D01*
X995989Y-809453D01*
X994654Y-807455D01*
X992656Y-806120D01*
X990299Y-805651D01*
D02*
G37*
G36*
X696850D02*
X694493Y-806120D01*
X692495Y-807455D01*
X691161Y-809453D01*
X690692Y-811809D01*
X691161Y-814166D01*
X692495Y-816164D01*
X694493Y-817499D01*
X696850Y-817968D01*
X699207Y-817499D01*
X701205Y-816164D01*
X702540Y-814166D01*
X703008Y-811809D01*
X702540Y-809453D01*
X701205Y-807455D01*
X699207Y-806120D01*
X696850Y-805651D01*
D02*
G37*
G36*
X549299D02*
X546942Y-806120D01*
X544944Y-807455D01*
X543610Y-809453D01*
X543141Y-811809D01*
X543610Y-814166D01*
X544944Y-816164D01*
X546942Y-817499D01*
X549299Y-817968D01*
X551656Y-817499D01*
X553654Y-816164D01*
X554989Y-814166D01*
X555457Y-811809D01*
X554989Y-809453D01*
X553654Y-807455D01*
X551656Y-806120D01*
X549299Y-805651D01*
D02*
G37*
G36*
X262150Y-181800D02*
X260325Y-182040D01*
X258625Y-182744D01*
X257165Y-183865D01*
X256044Y-185325D01*
X255340Y-187025D01*
X255100Y-188850D01*
X255340Y-190675D01*
X256044Y-192375D01*
X257165Y-193835D01*
X257923Y-194417D01*
Y-195982D01*
X257165Y-196565D01*
X256044Y-198025D01*
X255340Y-199725D01*
X255100Y-201550D01*
X255340Y-203375D01*
X256044Y-205075D01*
X257165Y-206535D01*
X257923Y-207118D01*
Y-208682D01*
X257165Y-209265D01*
X256044Y-210725D01*
X255340Y-212425D01*
X255100Y-214250D01*
X255340Y-216075D01*
X256044Y-217775D01*
X257165Y-219235D01*
X257923Y-219818D01*
Y-221383D01*
X257165Y-221965D01*
X256044Y-223425D01*
X255340Y-225125D01*
X255100Y-226950D01*
X255340Y-228775D01*
X256044Y-230475D01*
X257165Y-231935D01*
X257923Y-232518D01*
Y-234083D01*
X257165Y-234665D01*
X256044Y-236125D01*
X255340Y-237825D01*
X255100Y-239650D01*
X255340Y-241475D01*
X256044Y-243175D01*
X257165Y-244635D01*
X257923Y-245217D01*
Y-246782D01*
X257165Y-247365D01*
X256044Y-248825D01*
X255340Y-250525D01*
X255100Y-252350D01*
X255340Y-254175D01*
X256044Y-255875D01*
X257165Y-257335D01*
X257923Y-257917D01*
Y-259482D01*
X257165Y-260065D01*
X256044Y-261525D01*
X255340Y-263225D01*
X255100Y-265050D01*
X255340Y-266875D01*
X256044Y-268575D01*
X257165Y-270035D01*
X257923Y-270618D01*
Y-272183D01*
X257165Y-272765D01*
X256044Y-274225D01*
X255340Y-275925D01*
X255100Y-277750D01*
X255340Y-279575D01*
X256044Y-281275D01*
X257165Y-282735D01*
X257923Y-283318D01*
Y-284883D01*
X257165Y-285465D01*
X256044Y-286925D01*
X255340Y-288625D01*
X255100Y-290450D01*
X255340Y-292275D01*
X256044Y-293975D01*
X257165Y-295435D01*
X257923Y-296017D01*
Y-297582D01*
X257165Y-298165D01*
X256044Y-299625D01*
X255340Y-301325D01*
X255100Y-303150D01*
X255340Y-304975D01*
X256044Y-306675D01*
X257165Y-308135D01*
X257923Y-308717D01*
Y-310282D01*
X257165Y-310865D01*
X256044Y-312325D01*
X255340Y-314025D01*
X255100Y-315850D01*
X255340Y-317675D01*
X256044Y-319375D01*
X257165Y-320835D01*
X257923Y-321418D01*
Y-322982D01*
X257165Y-323565D01*
X256044Y-325025D01*
X255340Y-326725D01*
X255100Y-328550D01*
X255340Y-330375D01*
X256044Y-332075D01*
X257165Y-333535D01*
X257923Y-334118D01*
Y-335682D01*
X257165Y-336265D01*
X256044Y-337725D01*
X255340Y-339425D01*
X255100Y-341250D01*
X255340Y-343075D01*
X256044Y-344775D01*
X257165Y-346235D01*
X257923Y-346818D01*
Y-348382D01*
X257165Y-348965D01*
X256044Y-350425D01*
X255340Y-352125D01*
X255100Y-353950D01*
X255340Y-355775D01*
X256044Y-357475D01*
X257165Y-358935D01*
X257923Y-359518D01*
Y-361082D01*
X257165Y-361665D01*
X256044Y-363125D01*
X255340Y-364825D01*
X255100Y-366650D01*
X255340Y-368475D01*
X256044Y-370175D01*
X257165Y-371635D01*
X257923Y-372217D01*
Y-373783D01*
X257165Y-374365D01*
X256044Y-375825D01*
X255340Y-377525D01*
X255100Y-379350D01*
X255340Y-381175D01*
X256044Y-382875D01*
X257165Y-384335D01*
X257923Y-384917D01*
Y-386483D01*
X257165Y-387065D01*
X256044Y-388525D01*
X255340Y-390225D01*
X255100Y-392050D01*
X255340Y-393875D01*
X256044Y-395575D01*
X257165Y-397035D01*
X257923Y-397617D01*
Y-399183D01*
X257165Y-399765D01*
X256044Y-401225D01*
X255340Y-402925D01*
X255100Y-404750D01*
X255340Y-406575D01*
X256044Y-408275D01*
X257165Y-409735D01*
X257923Y-410317D01*
Y-411883D01*
X257165Y-412465D01*
X256044Y-413925D01*
X255340Y-415625D01*
X255100Y-417450D01*
X255340Y-419275D01*
X256044Y-420975D01*
X257165Y-422435D01*
X257923Y-423018D01*
Y-424582D01*
X257165Y-425165D01*
X256044Y-426625D01*
X255340Y-428325D01*
X255100Y-430150D01*
X255340Y-431975D01*
X256044Y-433675D01*
X257165Y-435135D01*
X257923Y-435718D01*
Y-437282D01*
X257165Y-437865D01*
X256044Y-439325D01*
X255340Y-441025D01*
X255100Y-442850D01*
X255340Y-444675D01*
X256044Y-446375D01*
X257165Y-447835D01*
X257923Y-448418D01*
Y-449982D01*
X257165Y-450565D01*
X256044Y-452025D01*
X255340Y-453725D01*
X255100Y-455550D01*
X255340Y-457375D01*
X256044Y-459075D01*
X257165Y-460535D01*
X257923Y-461118D01*
Y-462682D01*
X257165Y-463265D01*
X256044Y-464725D01*
X255340Y-466425D01*
X255100Y-468250D01*
X255340Y-470075D01*
X256044Y-471775D01*
X257165Y-473235D01*
X257923Y-473817D01*
Y-475382D01*
X257165Y-475965D01*
X256044Y-477425D01*
X255340Y-479125D01*
X255100Y-480950D01*
X255340Y-482775D01*
X256044Y-484475D01*
X257165Y-485935D01*
X257923Y-486517D01*
Y-488083D01*
X257165Y-488665D01*
X256044Y-490125D01*
X255340Y-491825D01*
X255100Y-493650D01*
X255340Y-495475D01*
X256044Y-497175D01*
X257165Y-498635D01*
X257923Y-499217D01*
Y-500783D01*
X257165Y-501365D01*
X256044Y-502825D01*
X255340Y-504525D01*
X255100Y-506350D01*
X255340Y-508175D01*
X256044Y-509875D01*
X257165Y-511335D01*
X257923Y-511917D01*
Y-513483D01*
X257165Y-514065D01*
X256044Y-515525D01*
X255340Y-517225D01*
X255100Y-519050D01*
X255340Y-520875D01*
X256044Y-522575D01*
X257165Y-524035D01*
X257923Y-524618D01*
Y-526183D01*
X257165Y-526765D01*
X256044Y-528225D01*
X255340Y-529925D01*
X255100Y-531750D01*
X255340Y-533575D01*
X256044Y-535275D01*
X257165Y-536735D01*
X257923Y-537318D01*
Y-538882D01*
X257165Y-539465D01*
X256044Y-540925D01*
X255340Y-542625D01*
X255100Y-544450D01*
X255340Y-546275D01*
X256044Y-547975D01*
X257165Y-549435D01*
X257923Y-550018D01*
Y-551582D01*
X257165Y-552165D01*
X256044Y-553625D01*
X255340Y-555325D01*
X255100Y-557150D01*
X255340Y-558975D01*
X256044Y-560675D01*
X257165Y-562135D01*
X257923Y-562718D01*
Y-564282D01*
X257165Y-564865D01*
X256044Y-566325D01*
X255340Y-568025D01*
X255100Y-569850D01*
X255340Y-571675D01*
X256044Y-573375D01*
X257165Y-574835D01*
X257923Y-575418D01*
Y-576982D01*
X257165Y-577565D01*
X256044Y-579025D01*
X255340Y-580725D01*
X255100Y-582550D01*
X255340Y-584375D01*
X256044Y-586075D01*
X257165Y-587535D01*
X257923Y-588117D01*
Y-589683D01*
X257165Y-590265D01*
X256044Y-591725D01*
X255340Y-593425D01*
X255100Y-595250D01*
X255340Y-597075D01*
X256044Y-598775D01*
X257165Y-600235D01*
X257923Y-600817D01*
Y-602383D01*
X257165Y-602965D01*
X256044Y-604425D01*
X255340Y-606125D01*
X255100Y-607950D01*
X255340Y-609775D01*
X256044Y-611475D01*
X257165Y-612935D01*
X257923Y-613517D01*
Y-615083D01*
X257165Y-615665D01*
X256044Y-617125D01*
X255340Y-618825D01*
X255100Y-620650D01*
X255340Y-622475D01*
X256044Y-624175D01*
X257165Y-625635D01*
X257923Y-626217D01*
Y-627783D01*
X257165Y-628365D01*
X256044Y-629825D01*
X255340Y-631525D01*
X255100Y-633350D01*
X255340Y-635175D01*
X256044Y-636875D01*
X257165Y-638335D01*
X257923Y-638918D01*
Y-640482D01*
X257165Y-641065D01*
X256044Y-642525D01*
X255340Y-644225D01*
X255100Y-646050D01*
X255340Y-647875D01*
X256044Y-649575D01*
X257165Y-651035D01*
X257923Y-651618D01*
Y-653183D01*
X257165Y-653765D01*
X256044Y-655225D01*
X255340Y-656925D01*
X255100Y-658750D01*
X255340Y-660575D01*
X256044Y-662275D01*
X257165Y-663735D01*
X257923Y-664317D01*
Y-665882D01*
X257165Y-666465D01*
X256044Y-667925D01*
X255340Y-669625D01*
X255100Y-671450D01*
X255340Y-673275D01*
X256044Y-674975D01*
X257165Y-676435D01*
X257923Y-677018D01*
Y-678583D01*
X257165Y-679165D01*
X256044Y-680625D01*
X255340Y-682325D01*
X255100Y-684150D01*
X255340Y-685975D01*
X256044Y-687675D01*
X257165Y-689135D01*
X257923Y-689717D01*
Y-691283D01*
X257165Y-691865D01*
X256044Y-693325D01*
X255340Y-695025D01*
X255100Y-696850D01*
X255340Y-698675D01*
X256044Y-700375D01*
X257165Y-701835D01*
X257923Y-702418D01*
Y-703982D01*
X257165Y-704565D01*
X256044Y-706025D01*
X255340Y-707725D01*
X255100Y-709550D01*
X255340Y-711375D01*
X256044Y-713075D01*
X257165Y-714535D01*
X257923Y-715117D01*
Y-716683D01*
X257165Y-717265D01*
X256044Y-718725D01*
X255340Y-720425D01*
X255100Y-722250D01*
X255340Y-724075D01*
X256044Y-725775D01*
X257165Y-727235D01*
X257923Y-727818D01*
Y-729382D01*
X257165Y-729965D01*
X256044Y-731425D01*
X255340Y-733125D01*
X255100Y-734950D01*
X255340Y-736775D01*
X256044Y-738475D01*
X257165Y-739935D01*
X257923Y-740518D01*
Y-742083D01*
X257165Y-742665D01*
X256044Y-744125D01*
X255340Y-745825D01*
X255100Y-747650D01*
X255340Y-749475D01*
X256044Y-751175D01*
X257165Y-752635D01*
X257923Y-753217D01*
Y-754782D01*
X257165Y-755365D01*
X256044Y-756825D01*
X255340Y-758525D01*
X255100Y-760350D01*
X255340Y-762175D01*
X256044Y-763875D01*
X257165Y-765335D01*
X257923Y-765918D01*
Y-767483D01*
X257165Y-768065D01*
X256044Y-769525D01*
X255340Y-771225D01*
X255100Y-773050D01*
X255340Y-774875D01*
X256044Y-776575D01*
X257165Y-778035D01*
X257923Y-778617D01*
Y-780182D01*
X257165Y-780765D01*
X256044Y-782225D01*
X255340Y-783925D01*
X255100Y-785750D01*
X255340Y-787575D01*
X256044Y-789275D01*
X257165Y-790735D01*
X257923Y-791318D01*
Y-792883D01*
X257165Y-793465D01*
X256044Y-794925D01*
X255340Y-796625D01*
X255100Y-798450D01*
X255340Y-800275D01*
X256044Y-801975D01*
X256746Y-802890D01*
X256120Y-804160D01*
X255160D01*
Y-818140D01*
X269140D01*
Y-804160D01*
X268180D01*
X267554Y-802890D01*
X268256Y-801975D01*
X268960Y-800275D01*
X269200Y-798450D01*
X268960Y-796625D01*
X268256Y-794925D01*
X267135Y-793465D01*
X266377Y-792883D01*
Y-791318D01*
X267135Y-790735D01*
X268256Y-789275D01*
X268960Y-787575D01*
X269200Y-785750D01*
X268960Y-783925D01*
X268256Y-782225D01*
X267135Y-780765D01*
X266377Y-780182D01*
Y-778617D01*
X267135Y-778035D01*
X268256Y-776575D01*
X268960Y-774875D01*
X269200Y-773050D01*
X268960Y-771225D01*
X268256Y-769525D01*
X267135Y-768065D01*
X266377Y-767483D01*
Y-765918D01*
X267135Y-765335D01*
X268256Y-763875D01*
X268960Y-762175D01*
X269200Y-760350D01*
X268960Y-758525D01*
X268256Y-756825D01*
X267135Y-755365D01*
X266377Y-754782D01*
Y-753217D01*
X267135Y-752635D01*
X268256Y-751175D01*
X268960Y-749475D01*
X269200Y-747650D01*
X268960Y-745825D01*
X268256Y-744125D01*
X267135Y-742665D01*
X266377Y-742083D01*
Y-740518D01*
X267135Y-739935D01*
X268256Y-738475D01*
X268960Y-736775D01*
X269200Y-734950D01*
X268960Y-733125D01*
X268256Y-731425D01*
X267135Y-729965D01*
X266377Y-729382D01*
Y-727818D01*
X267135Y-727235D01*
X268256Y-725775D01*
X268960Y-724075D01*
X269200Y-722250D01*
X268960Y-720425D01*
X268256Y-718725D01*
X267135Y-717265D01*
X266377Y-716683D01*
Y-715117D01*
X267135Y-714535D01*
X268256Y-713075D01*
X268960Y-711375D01*
X269200Y-709550D01*
X268960Y-707725D01*
X268256Y-706025D01*
X267135Y-704565D01*
X266377Y-703982D01*
Y-702418D01*
X267135Y-701835D01*
X268256Y-700375D01*
X268960Y-698675D01*
X269200Y-696850D01*
X268960Y-695025D01*
X268256Y-693325D01*
X267135Y-691865D01*
X266377Y-691283D01*
Y-689717D01*
X267135Y-689135D01*
X268256Y-687675D01*
X268960Y-685975D01*
X269200Y-684150D01*
X268960Y-682325D01*
X268256Y-680625D01*
X267135Y-679165D01*
X266377Y-678583D01*
Y-677018D01*
X267135Y-676435D01*
X268256Y-674975D01*
X268960Y-673275D01*
X269200Y-671450D01*
X268960Y-669625D01*
X268256Y-667925D01*
X267135Y-666465D01*
X266377Y-665882D01*
Y-664317D01*
X267135Y-663735D01*
X268256Y-662275D01*
X268960Y-660575D01*
X269200Y-658750D01*
X268960Y-656925D01*
X268256Y-655225D01*
X267135Y-653765D01*
X266377Y-653183D01*
Y-651618D01*
X267135Y-651035D01*
X268256Y-649575D01*
X268960Y-647875D01*
X269200Y-646050D01*
X268960Y-644225D01*
X268256Y-642525D01*
X267135Y-641065D01*
X266377Y-640482D01*
Y-638918D01*
X267135Y-638335D01*
X268256Y-636875D01*
X268960Y-635175D01*
X269200Y-633350D01*
X268960Y-631525D01*
X268256Y-629825D01*
X267135Y-628365D01*
X266377Y-627783D01*
Y-626217D01*
X267135Y-625635D01*
X268256Y-624175D01*
X268960Y-622475D01*
X269200Y-620650D01*
X268960Y-618825D01*
X268256Y-617125D01*
X267135Y-615665D01*
X266377Y-615083D01*
Y-613517D01*
X267135Y-612935D01*
X268256Y-611475D01*
X268960Y-609775D01*
X269200Y-607950D01*
X268960Y-606125D01*
X268256Y-604425D01*
X267135Y-602965D01*
X266377Y-602383D01*
Y-600817D01*
X267135Y-600235D01*
X268256Y-598775D01*
X268960Y-597075D01*
X269200Y-595250D01*
X268960Y-593425D01*
X268256Y-591725D01*
X267135Y-590265D01*
X266377Y-589683D01*
Y-588117D01*
X267135Y-587535D01*
X268256Y-586075D01*
X268960Y-584375D01*
X269200Y-582550D01*
X268960Y-580725D01*
X268256Y-579025D01*
X267135Y-577565D01*
X266377Y-576982D01*
Y-575418D01*
X267135Y-574835D01*
X268256Y-573375D01*
X268960Y-571675D01*
X269200Y-569850D01*
X268960Y-568025D01*
X268256Y-566325D01*
X267135Y-564865D01*
X266377Y-564282D01*
Y-562718D01*
X267135Y-562135D01*
X268256Y-560675D01*
X268960Y-558975D01*
X269200Y-557150D01*
X268960Y-555325D01*
X268256Y-553625D01*
X267135Y-552165D01*
X266377Y-551582D01*
Y-550018D01*
X267135Y-549435D01*
X268256Y-547975D01*
X268960Y-546275D01*
X269200Y-544450D01*
X268960Y-542625D01*
X268256Y-540925D01*
X267135Y-539465D01*
X266377Y-538882D01*
Y-537318D01*
X267135Y-536735D01*
X268256Y-535275D01*
X268960Y-533575D01*
X269200Y-531750D01*
X268960Y-529925D01*
X268256Y-528225D01*
X267135Y-526765D01*
X266377Y-526183D01*
Y-524618D01*
X267135Y-524035D01*
X268256Y-522575D01*
X268960Y-520875D01*
X269200Y-519050D01*
X268960Y-517225D01*
X268256Y-515525D01*
X267135Y-514065D01*
X266377Y-513483D01*
Y-511917D01*
X267135Y-511335D01*
X268256Y-509875D01*
X268960Y-508175D01*
X269200Y-506350D01*
X268960Y-504525D01*
X268256Y-502825D01*
X267135Y-501365D01*
X266377Y-500783D01*
Y-499217D01*
X267135Y-498635D01*
X268256Y-497175D01*
X268960Y-495475D01*
X269200Y-493650D01*
X268960Y-491825D01*
X268256Y-490125D01*
X267135Y-488665D01*
X266377Y-488083D01*
Y-486517D01*
X267135Y-485935D01*
X268256Y-484475D01*
X268960Y-482775D01*
X269200Y-480950D01*
X268960Y-479125D01*
X268256Y-477425D01*
X267135Y-475965D01*
X266377Y-475382D01*
Y-473817D01*
X267135Y-473235D01*
X268256Y-471775D01*
X268960Y-470075D01*
X269200Y-468250D01*
X268960Y-466425D01*
X268256Y-464725D01*
X267135Y-463265D01*
X266377Y-462682D01*
Y-461118D01*
X267135Y-460535D01*
X268256Y-459075D01*
X268960Y-457375D01*
X269200Y-455550D01*
X268960Y-453725D01*
X268256Y-452025D01*
X267135Y-450565D01*
X266377Y-449982D01*
Y-448418D01*
X267135Y-447835D01*
X268256Y-446375D01*
X268960Y-444675D01*
X269200Y-442850D01*
X268960Y-441025D01*
X268256Y-439325D01*
X267135Y-437865D01*
X266377Y-437282D01*
Y-435718D01*
X267135Y-435135D01*
X268256Y-433675D01*
X268960Y-431975D01*
X269200Y-430150D01*
X268960Y-428325D01*
X268256Y-426625D01*
X267135Y-425165D01*
X266377Y-424582D01*
Y-423018D01*
X267135Y-422435D01*
X268256Y-420975D01*
X268960Y-419275D01*
X269200Y-417450D01*
X268960Y-415625D01*
X268256Y-413925D01*
X267135Y-412465D01*
X266377Y-411883D01*
Y-410317D01*
X267135Y-409735D01*
X268256Y-408275D01*
X268960Y-406575D01*
X269200Y-404750D01*
X268960Y-402925D01*
X268256Y-401225D01*
X267135Y-399765D01*
X266377Y-399183D01*
Y-397617D01*
X267135Y-397035D01*
X268256Y-395575D01*
X268960Y-393875D01*
X269200Y-392050D01*
X268960Y-390225D01*
X268256Y-388525D01*
X267135Y-387065D01*
X266377Y-386483D01*
Y-384917D01*
X267135Y-384335D01*
X268256Y-382875D01*
X268960Y-381175D01*
X269200Y-379350D01*
X268960Y-377525D01*
X268256Y-375825D01*
X267135Y-374365D01*
X266377Y-373783D01*
Y-372217D01*
X267135Y-371635D01*
X268256Y-370175D01*
X268960Y-368475D01*
X269200Y-366650D01*
X268960Y-364825D01*
X268256Y-363125D01*
X267135Y-361665D01*
X266377Y-361082D01*
Y-359518D01*
X267135Y-358935D01*
X268256Y-357475D01*
X268960Y-355775D01*
X269200Y-353950D01*
X268960Y-352125D01*
X268256Y-350425D01*
X267135Y-348965D01*
X266377Y-348382D01*
Y-346818D01*
X267135Y-346235D01*
X268256Y-344775D01*
X268960Y-343075D01*
X269200Y-341250D01*
X268960Y-339425D01*
X268256Y-337725D01*
X267135Y-336265D01*
X266377Y-335682D01*
Y-334118D01*
X267135Y-333535D01*
X268256Y-332075D01*
X268960Y-330375D01*
X269200Y-328550D01*
X268960Y-326725D01*
X268256Y-325025D01*
X267135Y-323565D01*
X266377Y-322982D01*
Y-321418D01*
X267135Y-320835D01*
X268256Y-319375D01*
X268960Y-317675D01*
X269200Y-315850D01*
X268960Y-314025D01*
X268256Y-312325D01*
X267135Y-310865D01*
X266377Y-310282D01*
Y-308717D01*
X267135Y-308135D01*
X268256Y-306675D01*
X268960Y-304975D01*
X269200Y-303150D01*
X268960Y-301325D01*
X268256Y-299625D01*
X267135Y-298165D01*
X266377Y-297582D01*
Y-296017D01*
X267135Y-295435D01*
X268256Y-293975D01*
X268960Y-292275D01*
X269200Y-290450D01*
X268960Y-288625D01*
X268256Y-286925D01*
X267135Y-285465D01*
X266377Y-284883D01*
Y-283318D01*
X267135Y-282735D01*
X268256Y-281275D01*
X268960Y-279575D01*
X269200Y-277750D01*
X268960Y-275925D01*
X268256Y-274225D01*
X267135Y-272765D01*
X266377Y-272183D01*
Y-270618D01*
X267135Y-270035D01*
X268256Y-268575D01*
X268960Y-266875D01*
X269200Y-265050D01*
X268960Y-263225D01*
X268256Y-261525D01*
X267135Y-260065D01*
X266377Y-259482D01*
Y-257917D01*
X267135Y-257335D01*
X268256Y-255875D01*
X268960Y-254175D01*
X269200Y-252350D01*
X268960Y-250525D01*
X268256Y-248825D01*
X267135Y-247365D01*
X266377Y-246782D01*
Y-245217D01*
X267135Y-244635D01*
X268256Y-243175D01*
X268960Y-241475D01*
X269200Y-239650D01*
X268960Y-237825D01*
X268256Y-236125D01*
X267135Y-234665D01*
X266377Y-234083D01*
Y-232518D01*
X267135Y-231935D01*
X268256Y-230475D01*
X268960Y-228775D01*
X269200Y-226950D01*
X268960Y-225125D01*
X268256Y-223425D01*
X267135Y-221965D01*
X266377Y-221383D01*
Y-219818D01*
X267135Y-219235D01*
X268256Y-217775D01*
X268960Y-216075D01*
X269200Y-214250D01*
X268960Y-212425D01*
X268256Y-210725D01*
X267135Y-209265D01*
X266377Y-208682D01*
Y-207118D01*
X267135Y-206535D01*
X268256Y-205075D01*
X268960Y-203375D01*
X269200Y-201550D01*
X268960Y-199725D01*
X268256Y-198025D01*
X267135Y-196565D01*
X266377Y-195982D01*
Y-194417D01*
X267135Y-193835D01*
X268256Y-192375D01*
X268960Y-190675D01*
X269200Y-188850D01*
X268960Y-187025D01*
X268256Y-185325D01*
X267135Y-183865D01*
X265675Y-182744D01*
X263975Y-182040D01*
X262150Y-181800D01*
D02*
G37*
G36*
X287550D02*
X285725Y-182040D01*
X284025Y-182744D01*
X282565Y-183865D01*
X281444Y-185325D01*
X280740Y-187025D01*
X280500Y-188850D01*
X280740Y-190675D01*
X281444Y-192375D01*
X282565Y-193835D01*
X283323Y-194417D01*
Y-195982D01*
X282565Y-196565D01*
X281444Y-198025D01*
X280740Y-199725D01*
X280500Y-201550D01*
X280740Y-203375D01*
X281444Y-205075D01*
X282565Y-206535D01*
X283323Y-207118D01*
Y-208682D01*
X282565Y-209265D01*
X281444Y-210725D01*
X280740Y-212425D01*
X280500Y-214250D01*
X280740Y-216075D01*
X281444Y-217775D01*
X282565Y-219235D01*
X283323Y-219818D01*
Y-221383D01*
X282565Y-221965D01*
X281444Y-223425D01*
X280740Y-225125D01*
X280500Y-226950D01*
X280740Y-228775D01*
X281444Y-230475D01*
X282565Y-231935D01*
X283323Y-232518D01*
Y-234083D01*
X282565Y-234665D01*
X281444Y-236125D01*
X280740Y-237825D01*
X280500Y-239650D01*
X280740Y-241475D01*
X281444Y-243175D01*
X282565Y-244635D01*
X283323Y-245217D01*
Y-246782D01*
X282565Y-247365D01*
X281444Y-248825D01*
X280740Y-250525D01*
X280500Y-252350D01*
X280740Y-254175D01*
X281444Y-255875D01*
X282565Y-257335D01*
X283323Y-257917D01*
Y-259482D01*
X282565Y-260065D01*
X281444Y-261525D01*
X280740Y-263225D01*
X280500Y-265050D01*
X280740Y-266875D01*
X281444Y-268575D01*
X282565Y-270035D01*
X283323Y-270618D01*
Y-272183D01*
X282565Y-272765D01*
X281444Y-274225D01*
X280740Y-275925D01*
X280500Y-277750D01*
X280740Y-279575D01*
X281444Y-281275D01*
X282565Y-282735D01*
X283323Y-283318D01*
Y-284883D01*
X282565Y-285465D01*
X281444Y-286925D01*
X280740Y-288625D01*
X280500Y-290450D01*
X280740Y-292275D01*
X281444Y-293975D01*
X282565Y-295435D01*
X283323Y-296017D01*
Y-297582D01*
X282565Y-298165D01*
X281444Y-299625D01*
X280740Y-301325D01*
X280500Y-303150D01*
X280740Y-304975D01*
X281444Y-306675D01*
X282565Y-308135D01*
X283323Y-308717D01*
Y-310282D01*
X282565Y-310865D01*
X281444Y-312325D01*
X280740Y-314025D01*
X280500Y-315850D01*
X280740Y-317675D01*
X281444Y-319375D01*
X282565Y-320835D01*
X283323Y-321418D01*
Y-322982D01*
X282565Y-323565D01*
X281444Y-325025D01*
X280740Y-326725D01*
X280500Y-328550D01*
X280740Y-330375D01*
X281444Y-332075D01*
X282565Y-333535D01*
X283323Y-334118D01*
Y-335682D01*
X282565Y-336265D01*
X281444Y-337725D01*
X280740Y-339425D01*
X280500Y-341250D01*
X280740Y-343075D01*
X281444Y-344775D01*
X282565Y-346235D01*
X283323Y-346818D01*
Y-348382D01*
X282565Y-348965D01*
X281444Y-350425D01*
X280740Y-352125D01*
X280500Y-353950D01*
X280740Y-355775D01*
X281444Y-357475D01*
X282565Y-358935D01*
X283323Y-359518D01*
Y-361082D01*
X282565Y-361665D01*
X281444Y-363125D01*
X280740Y-364825D01*
X280500Y-366650D01*
X280740Y-368475D01*
X281444Y-370175D01*
X282565Y-371635D01*
X283323Y-372217D01*
Y-373783D01*
X282565Y-374365D01*
X281444Y-375825D01*
X280740Y-377525D01*
X280500Y-379350D01*
X280740Y-381175D01*
X281444Y-382875D01*
X282565Y-384335D01*
X283323Y-384917D01*
Y-386483D01*
X282565Y-387065D01*
X281444Y-388525D01*
X280740Y-390225D01*
X280500Y-392050D01*
X280740Y-393875D01*
X281444Y-395575D01*
X282565Y-397035D01*
X283323Y-397617D01*
Y-399183D01*
X282565Y-399765D01*
X281444Y-401225D01*
X280740Y-402925D01*
X280500Y-404750D01*
X280740Y-406575D01*
X281444Y-408275D01*
X282565Y-409735D01*
X283323Y-410317D01*
Y-411883D01*
X282565Y-412465D01*
X281444Y-413925D01*
X280740Y-415625D01*
X280500Y-417450D01*
X280740Y-419275D01*
X281444Y-420975D01*
X282565Y-422435D01*
X283323Y-423018D01*
Y-424582D01*
X282565Y-425165D01*
X281444Y-426625D01*
X280740Y-428325D01*
X280500Y-430150D01*
X280740Y-431975D01*
X281444Y-433675D01*
X282565Y-435135D01*
X283323Y-435718D01*
Y-437282D01*
X282565Y-437865D01*
X281444Y-439325D01*
X280740Y-441025D01*
X280500Y-442850D01*
X280740Y-444675D01*
X281444Y-446375D01*
X282565Y-447835D01*
X283323Y-448418D01*
Y-449982D01*
X282565Y-450565D01*
X281444Y-452025D01*
X280740Y-453725D01*
X280500Y-455550D01*
X280740Y-457375D01*
X281444Y-459075D01*
X282565Y-460535D01*
X283323Y-461118D01*
Y-462682D01*
X282565Y-463265D01*
X281444Y-464725D01*
X280740Y-466425D01*
X280500Y-468250D01*
X280740Y-470075D01*
X281444Y-471775D01*
X282565Y-473235D01*
X283323Y-473817D01*
Y-475382D01*
X282565Y-475965D01*
X281444Y-477425D01*
X280740Y-479125D01*
X280500Y-480950D01*
X280740Y-482775D01*
X281444Y-484475D01*
X282565Y-485935D01*
X283323Y-486517D01*
Y-488083D01*
X282565Y-488665D01*
X281444Y-490125D01*
X280740Y-491825D01*
X280500Y-493650D01*
X280740Y-495475D01*
X281444Y-497175D01*
X282565Y-498635D01*
X283323Y-499217D01*
Y-500783D01*
X282565Y-501365D01*
X281444Y-502825D01*
X280740Y-504525D01*
X280500Y-506350D01*
X280740Y-508175D01*
X281444Y-509875D01*
X282565Y-511335D01*
X283323Y-511917D01*
Y-513483D01*
X282565Y-514065D01*
X281444Y-515525D01*
X280740Y-517225D01*
X280500Y-519050D01*
X280740Y-520875D01*
X281444Y-522575D01*
X282565Y-524035D01*
X283323Y-524618D01*
Y-526183D01*
X282565Y-526765D01*
X281444Y-528225D01*
X280740Y-529925D01*
X280500Y-531750D01*
X280740Y-533575D01*
X281444Y-535275D01*
X282565Y-536735D01*
X283323Y-537318D01*
Y-538882D01*
X282565Y-539465D01*
X281444Y-540925D01*
X280740Y-542625D01*
X280500Y-544450D01*
X280740Y-546275D01*
X281444Y-547975D01*
X282565Y-549435D01*
X283323Y-550018D01*
Y-551582D01*
X282565Y-552165D01*
X281444Y-553625D01*
X280740Y-555325D01*
X280500Y-557150D01*
X280740Y-558975D01*
X281444Y-560675D01*
X282565Y-562135D01*
X283323Y-562718D01*
Y-564282D01*
X282565Y-564865D01*
X281444Y-566325D01*
X280740Y-568025D01*
X280500Y-569850D01*
X280740Y-571675D01*
X281444Y-573375D01*
X282565Y-574835D01*
X283323Y-575418D01*
Y-576982D01*
X282565Y-577565D01*
X281444Y-579025D01*
X280740Y-580725D01*
X280500Y-582550D01*
X280740Y-584375D01*
X281444Y-586075D01*
X282565Y-587535D01*
X283323Y-588117D01*
Y-589683D01*
X282565Y-590265D01*
X281444Y-591725D01*
X280740Y-593425D01*
X280500Y-595250D01*
X280740Y-597075D01*
X281444Y-598775D01*
X282565Y-600235D01*
X283323Y-600817D01*
Y-602383D01*
X282565Y-602965D01*
X281444Y-604425D01*
X280740Y-606125D01*
X280500Y-607950D01*
X280740Y-609775D01*
X281444Y-611475D01*
X282565Y-612935D01*
X283323Y-613517D01*
Y-615083D01*
X282565Y-615665D01*
X281444Y-617125D01*
X280740Y-618825D01*
X280500Y-620650D01*
X280740Y-622475D01*
X281444Y-624175D01*
X282565Y-625635D01*
X283323Y-626217D01*
Y-627783D01*
X282565Y-628365D01*
X281444Y-629825D01*
X280740Y-631525D01*
X280500Y-633350D01*
X280740Y-635175D01*
X281444Y-636875D01*
X282565Y-638335D01*
X283323Y-638918D01*
Y-640482D01*
X282565Y-641065D01*
X281444Y-642525D01*
X280740Y-644225D01*
X280500Y-646050D01*
X280740Y-647875D01*
X281444Y-649575D01*
X282565Y-651035D01*
X283323Y-651618D01*
Y-653183D01*
X282565Y-653765D01*
X281444Y-655225D01*
X280740Y-656925D01*
X280500Y-658750D01*
X280740Y-660575D01*
X281444Y-662275D01*
X282565Y-663735D01*
X283323Y-664317D01*
Y-665882D01*
X282565Y-666465D01*
X281444Y-667925D01*
X280740Y-669625D01*
X280500Y-671450D01*
X280740Y-673275D01*
X281444Y-674975D01*
X282565Y-676435D01*
X283323Y-677018D01*
Y-678583D01*
X282565Y-679165D01*
X281444Y-680625D01*
X280740Y-682325D01*
X280500Y-684150D01*
X280740Y-685975D01*
X281444Y-687675D01*
X282565Y-689135D01*
X283323Y-689717D01*
Y-691283D01*
X282565Y-691865D01*
X281444Y-693325D01*
X280740Y-695025D01*
X280500Y-696850D01*
X280740Y-698675D01*
X281444Y-700375D01*
X282565Y-701835D01*
X283323Y-702418D01*
Y-703982D01*
X282565Y-704565D01*
X281444Y-706025D01*
X280740Y-707725D01*
X280500Y-709550D01*
X280740Y-711375D01*
X281444Y-713075D01*
X282565Y-714535D01*
X283323Y-715117D01*
Y-716683D01*
X282565Y-717265D01*
X281444Y-718725D01*
X280740Y-720425D01*
X280500Y-722250D01*
X280740Y-724075D01*
X281444Y-725775D01*
X282565Y-727235D01*
X283323Y-727818D01*
Y-729382D01*
X282565Y-729965D01*
X281444Y-731425D01*
X280740Y-733125D01*
X280500Y-734950D01*
X280740Y-736775D01*
X281444Y-738475D01*
X282565Y-739935D01*
X283323Y-740518D01*
Y-742083D01*
X282565Y-742665D01*
X281444Y-744125D01*
X280740Y-745825D01*
X280500Y-747650D01*
X280740Y-749475D01*
X281444Y-751175D01*
X282565Y-752635D01*
X283323Y-753217D01*
Y-754782D01*
X282565Y-755365D01*
X281444Y-756825D01*
X280740Y-758525D01*
X280500Y-760350D01*
X280740Y-762175D01*
X281444Y-763875D01*
X282565Y-765335D01*
X283323Y-765918D01*
Y-767483D01*
X282565Y-768065D01*
X281444Y-769525D01*
X280740Y-771225D01*
X280500Y-773050D01*
X280740Y-774875D01*
X281444Y-776575D01*
X282565Y-778035D01*
X283323Y-778617D01*
Y-780182D01*
X282565Y-780765D01*
X281444Y-782225D01*
X280740Y-783925D01*
X280500Y-785750D01*
X280740Y-787575D01*
X281444Y-789275D01*
X282565Y-790735D01*
X283323Y-791318D01*
Y-792883D01*
X282565Y-793465D01*
X281444Y-794925D01*
X280740Y-796625D01*
X280500Y-798450D01*
X280740Y-800275D01*
X281444Y-801975D01*
X282565Y-803435D01*
X283323Y-804017D01*
Y-805583D01*
X282565Y-806165D01*
X281444Y-807625D01*
X280740Y-809325D01*
X280500Y-811150D01*
X280740Y-812975D01*
X281444Y-814675D01*
X282565Y-816135D01*
X284025Y-817256D01*
X285725Y-817960D01*
X287550Y-818200D01*
X289375Y-817960D01*
X291075Y-817256D01*
X292535Y-816135D01*
X293656Y-814675D01*
X294360Y-812975D01*
X294600Y-811150D01*
X294360Y-809325D01*
X293656Y-807625D01*
X292535Y-806165D01*
X291777Y-805583D01*
Y-804017D01*
X292535Y-803435D01*
X293656Y-801975D01*
X294360Y-800275D01*
X294600Y-798450D01*
X294360Y-796625D01*
X293656Y-794925D01*
X292535Y-793465D01*
X291777Y-792883D01*
Y-791318D01*
X292535Y-790735D01*
X293656Y-789275D01*
X294360Y-787575D01*
X294600Y-785750D01*
X294360Y-783925D01*
X293656Y-782225D01*
X292535Y-780765D01*
X291777Y-780182D01*
Y-778617D01*
X292535Y-778035D01*
X293656Y-776575D01*
X294360Y-774875D01*
X294600Y-773050D01*
X294360Y-771225D01*
X293656Y-769525D01*
X292535Y-768065D01*
X291777Y-767483D01*
Y-765918D01*
X292535Y-765335D01*
X293656Y-763875D01*
X294360Y-762175D01*
X294600Y-760350D01*
X294360Y-758525D01*
X293656Y-756825D01*
X292535Y-755365D01*
X291777Y-754782D01*
Y-753217D01*
X292535Y-752635D01*
X293656Y-751175D01*
X294360Y-749475D01*
X294600Y-747650D01*
X294360Y-745825D01*
X293656Y-744125D01*
X292535Y-742665D01*
X291777Y-742083D01*
Y-740518D01*
X292535Y-739935D01*
X293656Y-738475D01*
X294360Y-736775D01*
X294600Y-734950D01*
X294360Y-733125D01*
X293656Y-731425D01*
X292535Y-729965D01*
X291777Y-729382D01*
Y-727818D01*
X292535Y-727235D01*
X293656Y-725775D01*
X294360Y-724075D01*
X294600Y-722250D01*
X294360Y-720425D01*
X293656Y-718725D01*
X292535Y-717265D01*
X291777Y-716683D01*
Y-715117D01*
X292535Y-714535D01*
X293656Y-713075D01*
X294360Y-711375D01*
X294600Y-709550D01*
X294360Y-707725D01*
X293656Y-706025D01*
X292535Y-704565D01*
X291777Y-703982D01*
Y-702418D01*
X292535Y-701835D01*
X293656Y-700375D01*
X294360Y-698675D01*
X294600Y-696850D01*
X294360Y-695025D01*
X293656Y-693325D01*
X292535Y-691865D01*
X291777Y-691283D01*
Y-689717D01*
X292535Y-689135D01*
X293656Y-687675D01*
X294360Y-685975D01*
X294600Y-684150D01*
X294360Y-682325D01*
X293656Y-680625D01*
X292535Y-679165D01*
X291777Y-678583D01*
Y-677018D01*
X292535Y-676435D01*
X293656Y-674975D01*
X294360Y-673275D01*
X294600Y-671450D01*
X294360Y-669625D01*
X293656Y-667925D01*
X292535Y-666465D01*
X291777Y-665882D01*
Y-664317D01*
X292535Y-663735D01*
X293656Y-662275D01*
X294360Y-660575D01*
X294600Y-658750D01*
X294360Y-656925D01*
X293656Y-655225D01*
X292535Y-653765D01*
X291777Y-653183D01*
Y-651618D01*
X292535Y-651035D01*
X293656Y-649575D01*
X294360Y-647875D01*
X294600Y-646050D01*
X294360Y-644225D01*
X293656Y-642525D01*
X292535Y-641065D01*
X291777Y-640482D01*
Y-638918D01*
X292535Y-638335D01*
X293656Y-636875D01*
X294360Y-635175D01*
X294600Y-633350D01*
X294360Y-631525D01*
X293656Y-629825D01*
X292535Y-628365D01*
X291777Y-627783D01*
Y-626217D01*
X292535Y-625635D01*
X293656Y-624175D01*
X294360Y-622475D01*
X294600Y-620650D01*
X294360Y-618825D01*
X293656Y-617125D01*
X292535Y-615665D01*
X291777Y-615083D01*
Y-613517D01*
X292535Y-612935D01*
X293656Y-611475D01*
X294360Y-609775D01*
X294600Y-607950D01*
X294360Y-606125D01*
X293656Y-604425D01*
X292535Y-602965D01*
X291777Y-602383D01*
Y-600817D01*
X292535Y-600235D01*
X293656Y-598775D01*
X294360Y-597075D01*
X294600Y-595250D01*
X294360Y-593425D01*
X293656Y-591725D01*
X292535Y-590265D01*
X291777Y-589683D01*
Y-588117D01*
X292535Y-587535D01*
X293656Y-586075D01*
X294360Y-584375D01*
X294600Y-582550D01*
X294360Y-580725D01*
X293656Y-579025D01*
X292535Y-577565D01*
X291777Y-576982D01*
Y-575418D01*
X292535Y-574835D01*
X293656Y-573375D01*
X294360Y-571675D01*
X294600Y-569850D01*
X294360Y-568025D01*
X293656Y-566325D01*
X292535Y-564865D01*
X291777Y-564282D01*
Y-562718D01*
X292535Y-562135D01*
X293656Y-560675D01*
X294360Y-558975D01*
X294600Y-557150D01*
X294360Y-555325D01*
X293656Y-553625D01*
X292535Y-552165D01*
X291777Y-551582D01*
Y-550018D01*
X292535Y-549435D01*
X293656Y-547975D01*
X294360Y-546275D01*
X294600Y-544450D01*
X294360Y-542625D01*
X293656Y-540925D01*
X292535Y-539465D01*
X291777Y-538882D01*
Y-537318D01*
X292535Y-536735D01*
X293656Y-535275D01*
X294360Y-533575D01*
X294600Y-531750D01*
X294360Y-529925D01*
X293656Y-528225D01*
X292535Y-526765D01*
X291777Y-526183D01*
Y-524618D01*
X292535Y-524035D01*
X293656Y-522575D01*
X294360Y-520875D01*
X294600Y-519050D01*
X294360Y-517225D01*
X293656Y-515525D01*
X292535Y-514065D01*
X291777Y-513483D01*
Y-511917D01*
X292535Y-511335D01*
X293656Y-509875D01*
X294360Y-508175D01*
X294600Y-506350D01*
X294360Y-504525D01*
X293656Y-502825D01*
X292535Y-501365D01*
X291777Y-500783D01*
Y-499217D01*
X292535Y-498635D01*
X293656Y-497175D01*
X294360Y-495475D01*
X294600Y-493650D01*
X294360Y-491825D01*
X293656Y-490125D01*
X292535Y-488665D01*
X291777Y-488083D01*
Y-486517D01*
X292535Y-485935D01*
X293656Y-484475D01*
X294360Y-482775D01*
X294600Y-480950D01*
X294360Y-479125D01*
X293656Y-477425D01*
X292535Y-475965D01*
X291777Y-475382D01*
Y-473817D01*
X292535Y-473235D01*
X293656Y-471775D01*
X294360Y-470075D01*
X294600Y-468250D01*
X294360Y-466425D01*
X293656Y-464725D01*
X292535Y-463265D01*
X291777Y-462682D01*
Y-461118D01*
X292535Y-460535D01*
X293656Y-459075D01*
X294360Y-457375D01*
X294600Y-455550D01*
X294360Y-453725D01*
X293656Y-452025D01*
X292535Y-450565D01*
X291777Y-449982D01*
Y-448418D01*
X292535Y-447835D01*
X293656Y-446375D01*
X294360Y-444675D01*
X294600Y-442850D01*
X294360Y-441025D01*
X293656Y-439325D01*
X292535Y-437865D01*
X291777Y-437282D01*
Y-435718D01*
X292535Y-435135D01*
X293656Y-433675D01*
X294360Y-431975D01*
X294600Y-430150D01*
X294360Y-428325D01*
X293656Y-426625D01*
X292535Y-425165D01*
X291777Y-424582D01*
Y-423018D01*
X292535Y-422435D01*
X293656Y-420975D01*
X294360Y-419275D01*
X294600Y-417450D01*
X294360Y-415625D01*
X293656Y-413925D01*
X292535Y-412465D01*
X291777Y-411883D01*
Y-410317D01*
X292535Y-409735D01*
X293656Y-408275D01*
X294360Y-406575D01*
X294600Y-404750D01*
X294360Y-402925D01*
X293656Y-401225D01*
X292535Y-399765D01*
X291777Y-399183D01*
Y-397617D01*
X292535Y-397035D01*
X293656Y-395575D01*
X294360Y-393875D01*
X294600Y-392050D01*
X294360Y-390225D01*
X293656Y-388525D01*
X292535Y-387065D01*
X291777Y-386483D01*
Y-384917D01*
X292535Y-384335D01*
X293656Y-382875D01*
X294360Y-381175D01*
X294600Y-379350D01*
X294360Y-377525D01*
X293656Y-375825D01*
X292535Y-374365D01*
X291777Y-373783D01*
Y-372217D01*
X292535Y-371635D01*
X293656Y-370175D01*
X294360Y-368475D01*
X294600Y-366650D01*
X294360Y-364825D01*
X293656Y-363125D01*
X292535Y-361665D01*
X291777Y-361082D01*
Y-359518D01*
X292535Y-358935D01*
X293656Y-357475D01*
X294360Y-355775D01*
X294600Y-353950D01*
X294360Y-352125D01*
X293656Y-350425D01*
X292535Y-348965D01*
X291777Y-348382D01*
Y-346818D01*
X292535Y-346235D01*
X293656Y-344775D01*
X294360Y-343075D01*
X294600Y-341250D01*
X294360Y-339425D01*
X293656Y-337725D01*
X292535Y-336265D01*
X291777Y-335682D01*
Y-334118D01*
X292535Y-333535D01*
X293656Y-332075D01*
X294360Y-330375D01*
X294600Y-328550D01*
X294360Y-326725D01*
X293656Y-325025D01*
X292535Y-323565D01*
X291777Y-322982D01*
Y-321418D01*
X292535Y-320835D01*
X293656Y-319375D01*
X294360Y-317675D01*
X294600Y-315850D01*
X294360Y-314025D01*
X293656Y-312325D01*
X292535Y-310865D01*
X291777Y-310282D01*
Y-308717D01*
X292535Y-308135D01*
X293656Y-306675D01*
X294360Y-304975D01*
X294600Y-303150D01*
X294360Y-301325D01*
X293656Y-299625D01*
X292535Y-298165D01*
X291777Y-297582D01*
Y-296017D01*
X292535Y-295435D01*
X293656Y-293975D01*
X294360Y-292275D01*
X294600Y-290450D01*
X294360Y-288625D01*
X293656Y-286925D01*
X292535Y-285465D01*
X291777Y-284883D01*
Y-283318D01*
X292535Y-282735D01*
X293656Y-281275D01*
X294360Y-279575D01*
X294600Y-277750D01*
X294360Y-275925D01*
X293656Y-274225D01*
X292535Y-272765D01*
X291777Y-272183D01*
Y-270618D01*
X292535Y-270035D01*
X293656Y-268575D01*
X294360Y-266875D01*
X294600Y-265050D01*
X294360Y-263225D01*
X293656Y-261525D01*
X292535Y-260065D01*
X291777Y-259482D01*
Y-257917D01*
X292535Y-257335D01*
X293656Y-255875D01*
X294360Y-254175D01*
X294600Y-252350D01*
X294360Y-250525D01*
X293656Y-248825D01*
X292535Y-247365D01*
X291777Y-246782D01*
Y-245217D01*
X292535Y-244635D01*
X293656Y-243175D01*
X294360Y-241475D01*
X294600Y-239650D01*
X294360Y-237825D01*
X293656Y-236125D01*
X292535Y-234665D01*
X291777Y-234083D01*
Y-232518D01*
X292535Y-231935D01*
X293656Y-230475D01*
X294360Y-228775D01*
X294600Y-226950D01*
X294360Y-225125D01*
X293656Y-223425D01*
X292535Y-221965D01*
X291777Y-221383D01*
Y-219818D01*
X292535Y-219235D01*
X293656Y-217775D01*
X294360Y-216075D01*
X294600Y-214250D01*
X294360Y-212425D01*
X293656Y-210725D01*
X292535Y-209265D01*
X291777Y-208682D01*
Y-207118D01*
X292535Y-206535D01*
X293656Y-205075D01*
X294360Y-203375D01*
X294600Y-201550D01*
X294360Y-199725D01*
X293656Y-198025D01*
X292535Y-196565D01*
X291777Y-195982D01*
Y-194417D01*
X292535Y-193835D01*
X293656Y-192375D01*
X294360Y-190675D01*
X294600Y-188850D01*
X294360Y-187025D01*
X293656Y-185325D01*
X292535Y-183865D01*
X291075Y-182744D01*
X289375Y-182040D01*
X287550Y-181800D01*
D02*
G37*
G36*
X1075400Y-810552D02*
X1073043Y-811021D01*
X1071045Y-812355D01*
X1069710Y-814353D01*
X1069242Y-816710D01*
X1069710Y-819067D01*
X1071045Y-821065D01*
X1073043Y-822400D01*
X1075400Y-822868D01*
X1077757Y-822400D01*
X1079755Y-821065D01*
X1081089Y-819067D01*
X1081558Y-816710D01*
X1081089Y-814353D01*
X1079755Y-812355D01*
X1077757Y-811021D01*
X1075400Y-810552D01*
D02*
G37*
G36*
X634400D02*
X632043Y-811021D01*
X630045Y-812355D01*
X628710Y-814353D01*
X628242Y-816710D01*
X628710Y-819067D01*
X630045Y-821065D01*
X632043Y-822400D01*
X634400Y-822868D01*
X636757Y-822400D01*
X638755Y-821065D01*
X640089Y-819067D01*
X640558Y-816710D01*
X640089Y-814353D01*
X638755Y-812355D01*
X636757Y-811021D01*
X634400Y-810552D01*
D02*
G37*
G36*
X1020400Y-811405D02*
X1018432Y-811664D01*
X1016598Y-812424D01*
X1015022Y-813632D01*
X1013814Y-815208D01*
X1013054Y-817042D01*
X1012795Y-819010D01*
X1013054Y-820978D01*
X1013814Y-822812D01*
X1015022Y-824388D01*
X1016598Y-825596D01*
X1018432Y-826356D01*
X1020400Y-826615D01*
X1022368Y-826356D01*
X1024202Y-825596D01*
X1025778Y-824388D01*
X1026986Y-822812D01*
X1027746Y-820978D01*
X1028005Y-819010D01*
X1027746Y-817042D01*
X1026986Y-815208D01*
X1025778Y-813632D01*
X1024202Y-812424D01*
X1022368Y-811664D01*
X1020400Y-811405D01*
D02*
G37*
G36*
X579400D02*
X577432Y-811664D01*
X575597Y-812424D01*
X574022Y-813632D01*
X572814Y-815208D01*
X572054Y-817042D01*
X571795Y-819010D01*
X572054Y-820978D01*
X572814Y-822812D01*
X574022Y-824388D01*
X575597Y-825596D01*
X577432Y-826356D01*
X579400Y-826615D01*
X581368Y-826356D01*
X583203Y-825596D01*
X584778Y-824388D01*
X585986Y-822812D01*
X586746Y-820978D01*
X587005Y-819010D01*
X586746Y-817042D01*
X585986Y-815208D01*
X584778Y-813632D01*
X583203Y-812424D01*
X581368Y-811664D01*
X579400Y-811405D01*
D02*
G37*
G36*
X990300Y-836852D02*
X987943Y-837320D01*
X985945Y-838655D01*
X984610Y-840653D01*
X984142Y-843010D01*
X984610Y-845367D01*
X985945Y-847365D01*
X987943Y-848699D01*
X990300Y-849168D01*
X992657Y-848699D01*
X994655Y-847365D01*
X995990Y-845367D01*
X996458Y-843010D01*
X995990Y-840653D01*
X994655Y-838655D01*
X992657Y-837320D01*
X990300Y-836852D01*
D02*
G37*
G36*
X549300D02*
X546943Y-837320D01*
X544945Y-838655D01*
X543610Y-840653D01*
X543142Y-843010D01*
X543610Y-845367D01*
X544945Y-847365D01*
X546943Y-848699D01*
X549300Y-849168D01*
X551657Y-848699D01*
X553655Y-847365D01*
X554990Y-845367D01*
X555458Y-843010D01*
X554990Y-840653D01*
X553655Y-838655D01*
X551657Y-837320D01*
X549300Y-836852D01*
D02*
G37*
G36*
X1005900Y-839252D02*
X1003543Y-839720D01*
X1001545Y-841055D01*
X1000210Y-843053D01*
X999742Y-845410D01*
X1000210Y-847767D01*
X1001545Y-849765D01*
X1003543Y-851099D01*
X1005900Y-851568D01*
X1008257Y-851099D01*
X1010255Y-849765D01*
X1011590Y-847767D01*
X1012058Y-845410D01*
X1011590Y-843053D01*
X1010255Y-841055D01*
X1008257Y-839720D01*
X1005900Y-839252D01*
D02*
G37*
G36*
X564900D02*
X562543Y-839720D01*
X560545Y-841055D01*
X559210Y-843053D01*
X558742Y-845410D01*
X559210Y-847767D01*
X560545Y-849765D01*
X562543Y-851099D01*
X564900Y-851568D01*
X567257Y-851099D01*
X569254Y-849765D01*
X570589Y-847767D01*
X571058Y-845410D01*
X570589Y-843053D01*
X569254Y-841055D01*
X567257Y-839720D01*
X564900Y-839252D01*
D02*
G37*
G36*
X1137850Y-840452D02*
X1135493Y-840920D01*
X1133495Y-842255D01*
X1132160Y-844253D01*
X1131692Y-846610D01*
X1132160Y-848967D01*
X1133495Y-850965D01*
X1135493Y-852299D01*
X1137850Y-852768D01*
X1140207Y-852299D01*
X1142205Y-850965D01*
X1143540Y-848967D01*
X1144008Y-846610D01*
X1143540Y-844253D01*
X1142205Y-842255D01*
X1140207Y-840920D01*
X1137850Y-840452D01*
D02*
G37*
G36*
X696850D02*
X694493Y-840920D01*
X692495Y-842255D01*
X691161Y-844253D01*
X690692Y-846610D01*
X691161Y-848967D01*
X692495Y-850965D01*
X694493Y-852299D01*
X696850Y-852768D01*
X699207Y-852299D01*
X701205Y-850965D01*
X702540Y-848967D01*
X703008Y-846610D01*
X702540Y-844253D01*
X701205Y-842255D01*
X699207Y-840920D01*
X696850Y-840452D01*
D02*
G37*
G36*
X1089400Y-843352D02*
X1087043Y-843820D01*
X1085045Y-845155D01*
X1083710Y-847153D01*
X1083242Y-849510D01*
X1083710Y-851867D01*
X1085045Y-853865D01*
X1087043Y-855200D01*
X1089400Y-855668D01*
X1091757Y-855200D01*
X1093755Y-853865D01*
X1095089Y-851867D01*
X1095558Y-849510D01*
X1095089Y-847153D01*
X1093755Y-845155D01*
X1091757Y-843820D01*
X1089400Y-843352D01*
D02*
G37*
G36*
X648400D02*
X646043Y-843820D01*
X644045Y-845155D01*
X642710Y-847153D01*
X642242Y-849510D01*
X642710Y-851867D01*
X644045Y-853865D01*
X646043Y-855200D01*
X648400Y-855668D01*
X650757Y-855200D01*
X652755Y-853865D01*
X654090Y-851867D01*
X654558Y-849510D01*
X654090Y-847153D01*
X652755Y-845155D01*
X650757Y-843820D01*
X648400Y-843352D01*
D02*
G37*
G36*
X1204975Y-843277D02*
X1202618Y-843745D01*
X1200620Y-845080D01*
X1199286Y-847078D01*
X1198817Y-849435D01*
X1199286Y-851792D01*
X1200511Y-853626D01*
X1200636Y-854157D01*
Y-854713D01*
X1200511Y-855244D01*
X1199286Y-857078D01*
X1198817Y-859435D01*
X1199286Y-861792D01*
X1200620Y-863790D01*
X1202618Y-865125D01*
X1204975Y-865593D01*
X1207332Y-865125D01*
X1209330Y-863790D01*
X1210665Y-861792D01*
X1211133Y-859435D01*
X1210665Y-857078D01*
X1209439Y-855244D01*
X1209314Y-854713D01*
Y-854157D01*
X1209439Y-853626D01*
X1210665Y-851792D01*
X1211133Y-849435D01*
X1210665Y-847078D01*
X1209330Y-845080D01*
X1207332Y-843745D01*
X1204975Y-843277D01*
D02*
G37*
G36*
X763975D02*
X761618Y-843745D01*
X759620Y-845080D01*
X758286Y-847078D01*
X757817Y-849435D01*
X758286Y-851792D01*
X759511Y-853626D01*
X759636Y-854157D01*
Y-854713D01*
X759511Y-855244D01*
X758286Y-857078D01*
X757817Y-859435D01*
X758286Y-861792D01*
X759620Y-863790D01*
X761618Y-865125D01*
X763975Y-865593D01*
X766332Y-865125D01*
X768330Y-863790D01*
X769665Y-861792D01*
X770133Y-859435D01*
X769665Y-857078D01*
X768439Y-855244D01*
X768314Y-854713D01*
Y-854157D01*
X768439Y-853626D01*
X769665Y-851792D01*
X770133Y-849435D01*
X769665Y-847078D01*
X768330Y-845080D01*
X766332Y-843745D01*
X763975Y-843277D01*
D02*
G37*
G36*
X990800Y-855452D02*
X988443Y-855920D01*
X986445Y-857255D01*
X985110Y-859253D01*
X984642Y-861610D01*
X985110Y-863967D01*
X986445Y-865965D01*
X988443Y-867299D01*
X990800Y-867768D01*
X993157Y-867299D01*
X995155Y-865965D01*
X996489Y-863967D01*
X996958Y-861610D01*
X996489Y-859253D01*
X995155Y-857255D01*
X993157Y-855920D01*
X990800Y-855452D01*
D02*
G37*
G36*
X549800D02*
X547443Y-855920D01*
X545445Y-857255D01*
X544110Y-859253D01*
X543642Y-861610D01*
X544110Y-863967D01*
X545445Y-865965D01*
X547443Y-867299D01*
X549800Y-867768D01*
X552157Y-867299D01*
X554155Y-865965D01*
X555490Y-863967D01*
X555958Y-861610D01*
X555490Y-859253D01*
X554155Y-857255D01*
X552157Y-855920D01*
X549800Y-855452D01*
D02*
G37*
G36*
X1137850Y-857152D02*
X1135493Y-857620D01*
X1133495Y-858955D01*
X1132160Y-860953D01*
X1131692Y-863310D01*
X1132160Y-865667D01*
X1133495Y-867665D01*
X1135493Y-869000D01*
X1137850Y-869468D01*
X1140207Y-869000D01*
X1142205Y-867665D01*
X1143540Y-865667D01*
X1144008Y-863310D01*
X1143540Y-860953D01*
X1142205Y-858955D01*
X1140207Y-857620D01*
X1137850Y-857152D01*
D02*
G37*
G36*
X696850D02*
X694493Y-857620D01*
X692495Y-858955D01*
X691161Y-860953D01*
X690692Y-863310D01*
X691161Y-865667D01*
X692495Y-867665D01*
X694493Y-869000D01*
X696850Y-869468D01*
X699207Y-869000D01*
X701205Y-867665D01*
X702540Y-865667D01*
X703008Y-863310D01*
X702540Y-860953D01*
X701205Y-858955D01*
X699207Y-857620D01*
X696850Y-857152D01*
D02*
G37*
G36*
X56200Y-852182D02*
X53840Y-852493D01*
X51641Y-853404D01*
X49753Y-854853D01*
X48304Y-856741D01*
X47393Y-858940D01*
X47082Y-861300D01*
X47393Y-863660D01*
X48304Y-865859D01*
X49753Y-867747D01*
X51641Y-869196D01*
X53840Y-870107D01*
X56200Y-870418D01*
X58560Y-870107D01*
X60759Y-869196D01*
X62647Y-867747D01*
X64096Y-865859D01*
X65007Y-863660D01*
X65318Y-861300D01*
X65007Y-858940D01*
X64096Y-856741D01*
X62647Y-854853D01*
X60759Y-853404D01*
X58560Y-852493D01*
X56200Y-852182D01*
D02*
G37*
G36*
X1005300Y-864852D02*
X1002943Y-865321D01*
X1000945Y-866655D01*
X999610Y-868653D01*
X999142Y-871010D01*
X999610Y-873367D01*
X1000945Y-875365D01*
X1002943Y-876700D01*
X1005300Y-877168D01*
X1007657Y-876700D01*
X1009654Y-875365D01*
X1010990Y-873367D01*
X1011458Y-871010D01*
X1010990Y-868653D01*
X1009654Y-866655D01*
X1007657Y-865321D01*
X1005300Y-864852D01*
D02*
G37*
G36*
X564300D02*
X561943Y-865321D01*
X559945Y-866655D01*
X558610Y-868653D01*
X558142Y-871010D01*
X558610Y-873367D01*
X559945Y-875365D01*
X561943Y-876700D01*
X564300Y-877168D01*
X566657Y-876700D01*
X568655Y-875365D01*
X569990Y-873367D01*
X570458Y-871010D01*
X569990Y-868653D01*
X568655Y-866655D01*
X566657Y-865321D01*
X564300Y-864852D01*
D02*
G37*
G36*
X1090300Y-868052D02*
X1087943Y-868521D01*
X1085945Y-869855D01*
X1084610Y-871853D01*
X1084142Y-874210D01*
X1084610Y-876567D01*
X1085945Y-878565D01*
X1087943Y-879900D01*
X1090300Y-880368D01*
X1092657Y-879900D01*
X1094655Y-878565D01*
X1095990Y-876567D01*
X1096458Y-874210D01*
X1095990Y-871853D01*
X1094655Y-869855D01*
X1092657Y-868521D01*
X1090300Y-868052D01*
D02*
G37*
G36*
X649300D02*
X646943Y-868521D01*
X644945Y-869855D01*
X643610Y-871853D01*
X643142Y-874210D01*
X643610Y-876567D01*
X644945Y-878565D01*
X646943Y-879900D01*
X649300Y-880368D01*
X651657Y-879900D01*
X653655Y-878565D01*
X654989Y-876567D01*
X655458Y-874210D01*
X654989Y-871853D01*
X653655Y-869855D01*
X651657Y-868521D01*
X649300Y-868052D01*
D02*
G37*
G36*
X987800Y-888452D02*
X985443Y-888920D01*
X983445Y-890255D01*
X982110Y-892253D01*
X981642Y-894610D01*
X982110Y-896967D01*
X983445Y-898965D01*
X985443Y-900300D01*
X987800Y-900768D01*
X990157Y-900300D01*
X992154Y-898965D01*
X993490Y-896967D01*
X993958Y-894610D01*
X993490Y-892253D01*
X992154Y-890255D01*
X990157Y-888920D01*
X987800Y-888452D01*
D02*
G37*
G36*
X546800D02*
X544443Y-888920D01*
X542445Y-890255D01*
X541110Y-892253D01*
X540642Y-894610D01*
X541110Y-896967D01*
X542445Y-898965D01*
X544443Y-900300D01*
X546800Y-900768D01*
X549157Y-900300D01*
X551155Y-898965D01*
X552490Y-896967D01*
X552958Y-894610D01*
X552490Y-892253D01*
X551155Y-890255D01*
X549157Y-888920D01*
X546800Y-888452D01*
D02*
G37*
G36*
X1005500Y-891252D02*
X1003143Y-891721D01*
X1001145Y-893055D01*
X999810Y-895053D01*
X999342Y-897410D01*
X999810Y-899767D01*
X1001145Y-901765D01*
X1003143Y-903100D01*
X1005500Y-903568D01*
X1007857Y-903100D01*
X1009855Y-901765D01*
X1011189Y-899767D01*
X1011658Y-897410D01*
X1011189Y-895053D01*
X1009855Y-893055D01*
X1007857Y-891721D01*
X1005500Y-891252D01*
D02*
G37*
G36*
X564500D02*
X562143Y-891721D01*
X560145Y-893055D01*
X558810Y-895053D01*
X558342Y-897410D01*
X558810Y-899767D01*
X560145Y-901765D01*
X562143Y-903100D01*
X564500Y-903568D01*
X566857Y-903100D01*
X568854Y-901765D01*
X570190Y-899767D01*
X570658Y-897410D01*
X570190Y-895053D01*
X568854Y-893055D01*
X566857Y-891721D01*
X564500Y-891252D01*
D02*
G37*
G36*
X1137850Y-891452D02*
X1135493Y-891920D01*
X1133495Y-893255D01*
X1132160Y-895253D01*
X1131692Y-897610D01*
X1132160Y-899967D01*
X1133495Y-901965D01*
X1135493Y-903299D01*
X1137850Y-903768D01*
X1140207Y-903299D01*
X1142205Y-901965D01*
X1143540Y-899967D01*
X1144008Y-897610D01*
X1143540Y-895253D01*
X1142205Y-893255D01*
X1140207Y-891920D01*
X1137850Y-891452D01*
D02*
G37*
G36*
X696850D02*
X694493Y-891920D01*
X692495Y-893255D01*
X691161Y-895253D01*
X690692Y-897610D01*
X691161Y-899967D01*
X692495Y-901965D01*
X694493Y-903299D01*
X696850Y-903768D01*
X699207Y-903299D01*
X701205Y-901965D01*
X702540Y-899967D01*
X703008Y-897610D01*
X702540Y-895253D01*
X701205Y-893255D01*
X699207Y-891920D01*
X696850Y-891452D01*
D02*
G37*
G36*
X1092500Y-892652D02*
X1090143Y-893120D01*
X1088145Y-894455D01*
X1086811Y-896453D01*
X1086342Y-898810D01*
X1086811Y-901167D01*
X1088145Y-903165D01*
X1090143Y-904500D01*
X1092500Y-904968D01*
X1094857Y-904500D01*
X1096855Y-903165D01*
X1098189Y-901167D01*
X1098658Y-898810D01*
X1098189Y-896453D01*
X1096855Y-894455D01*
X1094857Y-893120D01*
X1092500Y-892652D01*
D02*
G37*
G36*
X651500D02*
X649143Y-893120D01*
X647145Y-894455D01*
X645810Y-896453D01*
X645342Y-898810D01*
X645810Y-901167D01*
X647145Y-903165D01*
X649143Y-904500D01*
X651500Y-904968D01*
X653857Y-904500D01*
X655855Y-903165D01*
X657189Y-901167D01*
X657658Y-898810D01*
X657189Y-896453D01*
X655855Y-894455D01*
X653857Y-893120D01*
X651500Y-892652D01*
D02*
G37*
G36*
X1204975Y-894277D02*
X1202618Y-894745D01*
X1200620Y-896080D01*
X1199286Y-898078D01*
X1198817Y-900435D01*
X1199286Y-902792D01*
X1200511Y-904626D01*
X1200636Y-905157D01*
Y-905713D01*
X1200511Y-906244D01*
X1199286Y-908078D01*
X1198817Y-910435D01*
X1199286Y-912792D01*
X1200620Y-914790D01*
X1202618Y-916124D01*
X1204975Y-916593D01*
X1207332Y-916124D01*
X1209330Y-914790D01*
X1210665Y-912792D01*
X1211133Y-910435D01*
X1210665Y-908078D01*
X1209439Y-906244D01*
X1209314Y-905713D01*
Y-905157D01*
X1209439Y-904626D01*
X1210665Y-902792D01*
X1211133Y-900435D01*
X1210665Y-898078D01*
X1209330Y-896080D01*
X1207332Y-894745D01*
X1204975Y-894277D01*
D02*
G37*
G36*
X763975D02*
X761618Y-894745D01*
X759620Y-896080D01*
X758286Y-898078D01*
X757817Y-900435D01*
X758286Y-902792D01*
X759511Y-904626D01*
X759636Y-905157D01*
Y-905713D01*
X759511Y-906244D01*
X758286Y-908078D01*
X757817Y-910435D01*
X758286Y-912792D01*
X759620Y-914790D01*
X761618Y-916124D01*
X763975Y-916593D01*
X766332Y-916124D01*
X768330Y-914790D01*
X769665Y-912792D01*
X770133Y-910435D01*
X769665Y-908078D01*
X768439Y-906244D01*
X768314Y-905713D01*
Y-905157D01*
X768439Y-904626D01*
X769665Y-902792D01*
X770133Y-900435D01*
X769665Y-898078D01*
X768330Y-896080D01*
X766332Y-894745D01*
X763975Y-894277D01*
D02*
G37*
G36*
X988900Y-907952D02*
X986543Y-908420D01*
X984545Y-909755D01*
X983210Y-911753D01*
X982742Y-914110D01*
X983210Y-916467D01*
X984545Y-918465D01*
X986543Y-919799D01*
X988900Y-920268D01*
X991257Y-919799D01*
X993254Y-918465D01*
X994589Y-916467D01*
X995058Y-914110D01*
X994589Y-911753D01*
X993254Y-909755D01*
X991257Y-908420D01*
X988900Y-907952D01*
D02*
G37*
G36*
X547900D02*
X545543Y-908420D01*
X543545Y-909755D01*
X542210Y-911753D01*
X541742Y-914110D01*
X542210Y-916467D01*
X543545Y-918465D01*
X545543Y-919799D01*
X547900Y-920268D01*
X550257Y-919799D01*
X552254Y-918465D01*
X553590Y-916467D01*
X554058Y-914110D01*
X553590Y-911753D01*
X552254Y-909755D01*
X550257Y-908420D01*
X547900Y-907952D01*
D02*
G37*
G36*
X1137850Y-908452D02*
X1135493Y-908920D01*
X1133495Y-910255D01*
X1132160Y-912253D01*
X1131692Y-914610D01*
X1132160Y-916967D01*
X1133495Y-918965D01*
X1135493Y-920300D01*
X1137850Y-920768D01*
X1140207Y-920300D01*
X1142205Y-918965D01*
X1143540Y-916967D01*
X1144008Y-914610D01*
X1143540Y-912253D01*
X1142205Y-910255D01*
X1140207Y-908920D01*
X1137850Y-908452D01*
D02*
G37*
G36*
X696850D02*
X694493Y-908920D01*
X692495Y-910255D01*
X691161Y-912253D01*
X690692Y-914610D01*
X691161Y-916967D01*
X692495Y-918965D01*
X694493Y-920300D01*
X696850Y-920768D01*
X699207Y-920300D01*
X701205Y-918965D01*
X702540Y-916967D01*
X703008Y-914610D01*
X702540Y-912253D01*
X701205Y-910255D01*
X699207Y-908920D01*
X696850Y-908452D01*
D02*
G37*
G36*
X1137850Y-942452D02*
X1135493Y-942920D01*
X1133495Y-944255D01*
X1132160Y-946253D01*
X1131692Y-948610D01*
X1132160Y-950967D01*
X1133495Y-952965D01*
X1135493Y-954299D01*
X1137850Y-954768D01*
X1140207Y-954299D01*
X1142205Y-952965D01*
X1143540Y-950967D01*
X1144008Y-948610D01*
X1143540Y-946253D01*
X1142205Y-944255D01*
X1140207Y-942920D01*
X1137850Y-942452D01*
D02*
G37*
G36*
X987500D02*
X985143Y-942920D01*
X983145Y-944255D01*
X981810Y-946253D01*
X981342Y-948610D01*
X981810Y-950967D01*
X983145Y-952965D01*
X985143Y-954299D01*
X987500Y-954768D01*
X989857Y-954299D01*
X991855Y-952965D01*
X993189Y-950967D01*
X993658Y-948610D01*
X993189Y-946253D01*
X991855Y-944255D01*
X989857Y-942920D01*
X987500Y-942452D01*
D02*
G37*
G36*
X696850D02*
X694493Y-942920D01*
X692495Y-944255D01*
X691161Y-946253D01*
X690692Y-948610D01*
X691161Y-950967D01*
X692495Y-952965D01*
X694493Y-954299D01*
X696850Y-954768D01*
X699207Y-954299D01*
X701205Y-952965D01*
X702540Y-950967D01*
X703008Y-948610D01*
X702540Y-946253D01*
X701205Y-944255D01*
X699207Y-942920D01*
X696850Y-942452D01*
D02*
G37*
G36*
X546500D02*
X544143Y-942920D01*
X542145Y-944255D01*
X540810Y-946253D01*
X540342Y-948610D01*
X540810Y-950967D01*
X542145Y-952965D01*
X544143Y-954299D01*
X546500Y-954768D01*
X548857Y-954299D01*
X550854Y-952965D01*
X552189Y-950967D01*
X552658Y-948610D01*
X552189Y-946253D01*
X550854Y-944255D01*
X548857Y-942920D01*
X546500Y-942452D01*
D02*
G37*
G36*
X1204975Y-945877D02*
X1202618Y-946346D01*
X1200621Y-947681D01*
X1199286Y-949678D01*
X1198817Y-952035D01*
X1199286Y-954392D01*
X1200511Y-956226D01*
X1200636Y-956757D01*
Y-957313D01*
X1200511Y-957844D01*
X1199286Y-959678D01*
X1198817Y-962035D01*
X1199286Y-964392D01*
X1200621Y-966390D01*
X1202618Y-967725D01*
X1204975Y-968193D01*
X1207332Y-967725D01*
X1209330Y-966390D01*
X1210665Y-964392D01*
X1211133Y-962035D01*
X1210665Y-959678D01*
X1209439Y-957844D01*
X1209314Y-957313D01*
Y-956757D01*
X1209439Y-956226D01*
X1210665Y-954392D01*
X1211133Y-952035D01*
X1210665Y-949678D01*
X1209330Y-947681D01*
X1207332Y-946346D01*
X1204975Y-945877D01*
D02*
G37*
G36*
X763975D02*
X761618Y-946346D01*
X759621Y-947681D01*
X758286Y-949678D01*
X757817Y-952035D01*
X758286Y-954392D01*
X759511Y-956226D01*
X759636Y-956757D01*
Y-957313D01*
X759511Y-957844D01*
X758286Y-959678D01*
X757817Y-962035D01*
X758286Y-964392D01*
X759621Y-966390D01*
X761618Y-967725D01*
X763975Y-968193D01*
X766332Y-967725D01*
X768330Y-966390D01*
X769665Y-964392D01*
X770134Y-962035D01*
X769665Y-959678D01*
X768439Y-957844D01*
X768314Y-957313D01*
Y-956757D01*
X768439Y-956226D01*
X769665Y-954392D01*
X770134Y-952035D01*
X769665Y-949678D01*
X768330Y-947681D01*
X766332Y-946346D01*
X763975Y-945877D01*
D02*
G37*
G36*
X1137850Y-959452D02*
X1135493Y-959921D01*
X1133495Y-961255D01*
X1132160Y-963253D01*
X1131692Y-965610D01*
X1132160Y-967967D01*
X1133495Y-969965D01*
X1135493Y-971300D01*
X1137850Y-971768D01*
X1140207Y-971300D01*
X1142205Y-969965D01*
X1143540Y-967967D01*
X1144008Y-965610D01*
X1143540Y-963253D01*
X1142205Y-961255D01*
X1140207Y-959921D01*
X1137850Y-959452D01*
D02*
G37*
G36*
X989000D02*
X986643Y-959921D01*
X984645Y-961255D01*
X983310Y-963253D01*
X982842Y-965610D01*
X983310Y-967967D01*
X984645Y-969965D01*
X986643Y-971300D01*
X989000Y-971768D01*
X991357Y-971300D01*
X993355Y-969965D01*
X994690Y-967967D01*
X995158Y-965610D01*
X994690Y-963253D01*
X993355Y-961255D01*
X991357Y-959921D01*
X989000Y-959452D01*
D02*
G37*
G36*
X696850D02*
X694493Y-959921D01*
X692495Y-961255D01*
X691161Y-963253D01*
X690692Y-965610D01*
X691161Y-967967D01*
X692495Y-969965D01*
X694493Y-971300D01*
X696850Y-971768D01*
X699207Y-971300D01*
X701205Y-969965D01*
X702540Y-967967D01*
X703008Y-965610D01*
X702540Y-963253D01*
X701205Y-961255D01*
X699207Y-959921D01*
X696850Y-959452D01*
D02*
G37*
G36*
X548000D02*
X545643Y-959921D01*
X543645Y-961255D01*
X542310Y-963253D01*
X541842Y-965610D01*
X542310Y-967967D01*
X543645Y-969965D01*
X545643Y-971300D01*
X548000Y-971768D01*
X550357Y-971300D01*
X552355Y-969965D01*
X553689Y-967967D01*
X554158Y-965610D01*
X553689Y-963253D01*
X552355Y-961255D01*
X550357Y-959921D01*
X548000Y-959452D01*
D02*
G37*
G36*
X1044820Y-972352D02*
X1042463Y-972821D01*
X1040465Y-974155D01*
X1039130Y-976153D01*
X1038662Y-978510D01*
X1039130Y-980867D01*
X1040465Y-982865D01*
X1042463Y-984200D01*
X1044820Y-984668D01*
X1047177Y-984200D01*
X1049175Y-982865D01*
X1050510Y-980867D01*
X1050978Y-978510D01*
X1050510Y-976153D01*
X1049175Y-974155D01*
X1047177Y-972821D01*
X1044820Y-972352D01*
D02*
G37*
G36*
X603820D02*
X601463Y-972821D01*
X599465Y-974155D01*
X598130Y-976153D01*
X597662Y-978510D01*
X598130Y-980867D01*
X599465Y-982865D01*
X601463Y-984200D01*
X603820Y-984668D01*
X606177Y-984200D01*
X608175Y-982865D01*
X609510Y-980867D01*
X609978Y-978510D01*
X609510Y-976153D01*
X608175Y-974155D01*
X606177Y-972821D01*
X603820Y-972352D01*
D02*
G37*
%LPD*%
D30*
X56400Y-639100D02*
D03*
Y-609650D02*
D03*
Y-580200D02*
D03*
X77200Y-946900D02*
D03*
D31*
X954800Y-877210D02*
D03*
X1020400Y-782910D02*
D03*
X952000Y-905910D02*
D03*
X1152900Y-881010D02*
D03*
X952000Y-854810D02*
D03*
Y-802910D02*
D03*
Y-956910D02*
D03*
X1020400Y-927210D02*
D03*
X1060100Y-842510D02*
D03*
Y-867210D02*
D03*
Y-893710D02*
D03*
X1176700Y-828760D02*
D03*
X1013750Y-955710D02*
D03*
X1176700Y-620760D02*
D03*
X1013750Y-747710D02*
D03*
X952000Y-697910D02*
D03*
X954800Y-669210D02*
D03*
X952000Y-646810D02*
D03*
X1020400Y-574910D02*
D03*
X952000Y-748910D02*
D03*
X1152900Y-673010D02*
D03*
X1060100Y-685710D02*
D03*
Y-659210D02*
D03*
Y-634510D02*
D03*
X1020400Y-719210D02*
D03*
X735700Y-68760D02*
D03*
X572750Y-195710D02*
D03*
X511000Y-145910D02*
D03*
X513800Y-117210D02*
D03*
X511000Y-94810D02*
D03*
X579400Y-22910D02*
D03*
X511000Y-196910D02*
D03*
X711900Y-121010D02*
D03*
X511000Y-42910D02*
D03*
X619100Y-133710D02*
D03*
Y-107210D02*
D03*
Y-82510D02*
D03*
X579400Y-167210D02*
D03*
X735700Y-276760D02*
D03*
X572750Y-403710D02*
D03*
X511000Y-353910D02*
D03*
X513800Y-325210D02*
D03*
X511000Y-302810D02*
D03*
X579400Y-230910D02*
D03*
X511000Y-404910D02*
D03*
X711900Y-329010D02*
D03*
X511000Y-250910D02*
D03*
X619100Y-341710D02*
D03*
Y-315210D02*
D03*
Y-290510D02*
D03*
X579400Y-375210D02*
D03*
X735700Y-620760D02*
D03*
X572750Y-747710D02*
D03*
X511000Y-697910D02*
D03*
X513800Y-669210D02*
D03*
X511000Y-646810D02*
D03*
X579400Y-574910D02*
D03*
X511000Y-748910D02*
D03*
X711900Y-673010D02*
D03*
X511000Y-594910D02*
D03*
X619100Y-685710D02*
D03*
Y-659210D02*
D03*
Y-634510D02*
D03*
X579400Y-719210D02*
D03*
X735700Y-828760D02*
D03*
X572750Y-955710D02*
D03*
X511000Y-905910D02*
D03*
X513800Y-877210D02*
D03*
X511000Y-854810D02*
D03*
X579400Y-782910D02*
D03*
X511000Y-956910D02*
D03*
X711900Y-881010D02*
D03*
X511000Y-802910D02*
D03*
X619100Y-893710D02*
D03*
Y-867210D02*
D03*
Y-842510D02*
D03*
X579400Y-927210D02*
D03*
X1176700Y-68760D02*
D03*
X1013750Y-195710D02*
D03*
X952000Y-145910D02*
D03*
X954800Y-117210D02*
D03*
X952000Y-94810D02*
D03*
X1020400Y-22910D02*
D03*
X952000Y-196910D02*
D03*
X1152900Y-121010D02*
D03*
X952000Y-42910D02*
D03*
X1060100Y-133710D02*
D03*
Y-107210D02*
D03*
Y-82510D02*
D03*
X1020400Y-167210D02*
D03*
X1176700Y-276760D02*
D03*
X1013750Y-403710D02*
D03*
X952000Y-353910D02*
D03*
X954800Y-325210D02*
D03*
X952000Y-302810D02*
D03*
X1020400Y-230910D02*
D03*
X952000Y-404910D02*
D03*
X1152900Y-329010D02*
D03*
X952000Y-250910D02*
D03*
X1060100Y-341710D02*
D03*
Y-315210D02*
D03*
Y-290510D02*
D03*
X1020400Y-375210D02*
D03*
X952000Y-594910D02*
D03*
D32*
X1138200Y-855060D02*
D03*
X1138000Y-905660D02*
D03*
Y-697660D02*
D03*
X1138200Y-647060D02*
D03*
X697000Y-145660D02*
D03*
X697200Y-95060D02*
D03*
X697000Y-353660D02*
D03*
X697200Y-303060D02*
D03*
X697000Y-697660D02*
D03*
X697200Y-647060D02*
D03*
X697000Y-905660D02*
D03*
X697200Y-855060D02*
D03*
X1138000Y-145660D02*
D03*
X1138200Y-95060D02*
D03*
X1138000Y-353660D02*
D03*
X1138200Y-303060D02*
D03*
D33*
X1036900Y-844510D02*
D03*
Y-869410D02*
D03*
Y-894510D02*
D03*
Y-686510D02*
D03*
Y-661410D02*
D03*
Y-636510D02*
D03*
X595900Y-134510D02*
D03*
Y-109410D02*
D03*
Y-84510D02*
D03*
Y-342510D02*
D03*
Y-317410D02*
D03*
Y-292510D02*
D03*
Y-686510D02*
D03*
Y-661410D02*
D03*
Y-636510D02*
D03*
Y-894510D02*
D03*
Y-869410D02*
D03*
Y-844510D02*
D03*
X1036900Y-134510D02*
D03*
Y-109410D02*
D03*
Y-84510D02*
D03*
Y-342510D02*
D03*
Y-317410D02*
D03*
Y-292510D02*
D03*
M02*
