G04 Layer_Color=32768*
%FSLAX44Y44*%
%MOMM*%
G71*
G01*
G75*
%ADD60C,0.1000*%
D60*
X71700Y-871800D02*
X81700D01*
X76700Y-876800D02*
Y-866800D01*
X67810Y-892120D02*
Y-852750D01*
X85590Y-892120D02*
Y-852750D01*
X67810Y-892120D02*
X85590D01*
X67810Y-852750D02*
X85590D01*
X1046320Y-406010D02*
X1056320D01*
X1051320Y-411010D02*
Y-401010D01*
X1037820Y-422260D02*
Y-389760D01*
X1064820Y-422260D02*
Y-389760D01*
X1037820Y-422260D02*
X1064820D01*
X1037820Y-389760D02*
X1064820D01*
X1046320Y-198010D02*
X1056320D01*
X1051320Y-203010D02*
Y-193010D01*
X1037820Y-214260D02*
Y-181760D01*
X1064820Y-214260D02*
Y-181760D01*
X1037820Y-214260D02*
X1064820D01*
X1037820Y-181760D02*
X1064820D01*
X605320Y-958010D02*
X615320D01*
X610320Y-963010D02*
Y-953010D01*
X596820Y-974260D02*
Y-941760D01*
X623820Y-974260D02*
Y-941760D01*
X596820Y-974260D02*
X623820D01*
X596820Y-941760D02*
X623820D01*
X605320Y-750010D02*
X615320D01*
X610320Y-755010D02*
Y-745010D01*
X596820Y-766260D02*
Y-733760D01*
X623820Y-766260D02*
Y-733760D01*
X596820Y-766260D02*
X623820D01*
X596820Y-733760D02*
X623820D01*
X605320Y-406010D02*
X615320D01*
X610320Y-411010D02*
Y-401010D01*
X596820Y-422260D02*
Y-389760D01*
X623820Y-422260D02*
Y-389760D01*
X596820Y-422260D02*
X623820D01*
X596820Y-389760D02*
X623820D01*
X605320Y-198010D02*
X615320D01*
X610320Y-203010D02*
Y-193010D01*
X596820Y-214260D02*
Y-181760D01*
X623820Y-214260D02*
Y-181760D01*
X596820Y-214260D02*
X623820D01*
X596820Y-181760D02*
X623820D01*
X1046320Y-750010D02*
X1056320D01*
X1051320Y-755010D02*
Y-745010D01*
X1037820Y-766260D02*
Y-733760D01*
X1064820Y-766260D02*
Y-733760D01*
X1037820Y-766260D02*
X1064820D01*
X1037820Y-733760D02*
X1064820D01*
X1046320Y-958010D02*
X1056320D01*
X1051320Y-963010D02*
Y-953010D01*
X1037820Y-974260D02*
Y-941760D01*
X1064820Y-974260D02*
Y-941760D01*
X1037820Y-974260D02*
X1064820D01*
X1037820Y-941760D02*
X1064820D01*
X1083900Y-369610D02*
Y-269610D01*
X1011900Y-369610D02*
Y-269610D01*
Y-369610D02*
X1083900D01*
X1011900Y-269610D02*
X1083900D01*
X1042900Y-319610D02*
X1052900D01*
X1047900Y-324610D02*
Y-314610D01*
X1083900Y-161610D02*
Y-61610D01*
X1011900Y-161610D02*
Y-61610D01*
Y-161610D02*
X1083900D01*
X1011900Y-61610D02*
X1083900D01*
X1042900Y-111610D02*
X1052900D01*
X1047900Y-116610D02*
Y-106610D01*
X642900Y-921610D02*
Y-821610D01*
X570900Y-921610D02*
Y-821610D01*
Y-921610D02*
X642900D01*
X570900Y-821610D02*
X642900D01*
X601900Y-871610D02*
X611900D01*
X606900Y-876610D02*
Y-866610D01*
X642900Y-713610D02*
Y-613610D01*
X570900Y-713610D02*
Y-613610D01*
Y-713610D02*
X642900D01*
X570900Y-613610D02*
X642900D01*
X601900Y-663610D02*
X611900D01*
X606900Y-668610D02*
Y-658610D01*
X642900Y-369610D02*
Y-269610D01*
X570900Y-369610D02*
Y-269610D01*
Y-369610D02*
X642900D01*
X570900Y-269610D02*
X642900D01*
X601900Y-319610D02*
X611900D01*
X606900Y-324610D02*
Y-314610D01*
X642900Y-161610D02*
Y-61610D01*
X570900Y-161610D02*
Y-61610D01*
Y-161610D02*
X642900D01*
X570900Y-61610D02*
X642900D01*
X601900Y-111610D02*
X611900D01*
X606900Y-116610D02*
Y-106610D01*
X1083900Y-713610D02*
Y-613610D01*
X1011900Y-713610D02*
Y-613610D01*
Y-713610D02*
X1083900D01*
X1011900Y-613610D02*
X1083900D01*
X1042900Y-663610D02*
X1052900D01*
X1047900Y-668610D02*
Y-658610D01*
X1083900Y-921610D02*
Y-821610D01*
X1011900Y-921610D02*
Y-821610D01*
Y-921610D02*
X1083900D01*
X1011900Y-821610D02*
X1083900D01*
X1042900Y-871610D02*
X1052900D01*
X1047900Y-876610D02*
Y-866610D01*
M02*
