G04 Layer_Color=16711935*
%FSLAX44Y44*%
%MOMM*%
G71*
G01*
G75*
%ADD36C,0.2540*%
%ADD60C,0.1000*%
G36*
X761763Y48593D02*
X762398Y48544D01*
X763081Y48398D01*
X763813Y48251D01*
X764546Y48007D01*
X765229Y47714D01*
X765327Y47666D01*
X765522Y47568D01*
X765864Y47324D01*
X766254Y47031D01*
X766694Y46640D01*
X767133Y46201D01*
X767621Y45664D01*
X768012Y45078D01*
X768061Y44981D01*
X768158Y44785D01*
X768354Y44395D01*
X768598Y43906D01*
X768793Y43321D01*
X769037Y42588D01*
X769232Y41758D01*
X769428Y40880D01*
Y40831D01*
Y40782D01*
X769476Y40636D01*
Y40440D01*
X769574Y39952D01*
X769672Y39269D01*
X769721Y38439D01*
X769818Y37511D01*
X769867Y36437D01*
Y35314D01*
Y35266D01*
Y35168D01*
Y35022D01*
Y34777D01*
Y34533D01*
X769818Y34192D01*
Y33459D01*
X769721Y32580D01*
X769623Y31653D01*
X769525Y30677D01*
X769330Y29700D01*
Y29651D01*
Y29603D01*
X769281Y29456D01*
X769232Y29310D01*
X769135Y28821D01*
X768940Y28236D01*
X768744Y27552D01*
X768451Y26869D01*
X768110Y26136D01*
X767719Y25453D01*
X767670Y25355D01*
X767524Y25160D01*
X767280Y24867D01*
X766938Y24477D01*
X766498Y24037D01*
X766010Y23598D01*
X765424Y23159D01*
X764790Y22768D01*
X764692Y22719D01*
X764448Y22622D01*
X764058Y22475D01*
X763569Y22329D01*
X762935Y22133D01*
X762154Y21987D01*
X761275Y21889D01*
X760347Y21840D01*
X759908D01*
X759420Y21889D01*
X758785Y21938D01*
X758102Y22036D01*
X757321Y22231D01*
X756588Y22426D01*
X755905Y22719D01*
X755807Y22768D01*
X755612Y22914D01*
X755319Y23110D01*
X754929Y23403D01*
X754489Y23793D01*
X754050Y24232D01*
X753562Y24769D01*
X753171Y25355D01*
X753122Y25453D01*
X753025Y25648D01*
X752829Y26039D01*
X752634Y26527D01*
X752390Y27113D01*
X752146Y27845D01*
X751951Y28626D01*
X751755Y29505D01*
Y29554D01*
Y29603D01*
X751706Y29749D01*
Y29944D01*
X751658Y30481D01*
X751560Y31165D01*
X751511Y31995D01*
X751413Y32922D01*
X751365Y33996D01*
Y35119D01*
Y35168D01*
Y35266D01*
Y35412D01*
Y35656D01*
Y35900D01*
X751413Y36242D01*
Y36974D01*
X751462Y37853D01*
X751560Y38781D01*
X751706Y39708D01*
X751853Y40684D01*
Y40733D01*
X751902Y40782D01*
Y40929D01*
X751951Y41124D01*
X752048Y41563D01*
X752243Y42198D01*
X752439Y42832D01*
X752732Y43565D01*
X753073Y44297D01*
X753464Y44981D01*
X753513Y45078D01*
X753659Y45273D01*
X753952Y45566D01*
X754294Y45957D01*
X754684Y46396D01*
X755221Y46836D01*
X755807Y47275D01*
X756442Y47666D01*
X756540Y47714D01*
X756784Y47812D01*
X757174Y47958D01*
X757662Y48154D01*
X758297Y48349D01*
X759078Y48495D01*
X759908Y48593D01*
X760836Y48642D01*
X761275D01*
X761763Y48593D01*
D02*
G37*
G36*
X669398Y48300D02*
X669496D01*
X669691Y48251D01*
X669935Y48203D01*
X670130Y48154D01*
X670179D01*
X670277Y48105D01*
X670374Y48056D01*
X670472Y47958D01*
X670521Y47910D01*
X670570Y47714D01*
Y26332D01*
X674866D01*
X675012Y26283D01*
X675110Y26185D01*
X675159D01*
X675207Y26088D01*
X675256Y25990D01*
X675354Y25844D01*
Y25795D01*
X675403Y25697D01*
X675452Y25453D01*
X675500Y25209D01*
Y25160D01*
X675549Y24965D01*
X675598Y24623D01*
Y24232D01*
Y24135D01*
Y23940D01*
X675549Y23598D01*
X675500Y23305D01*
Y23256D01*
X675452Y23061D01*
X675403Y22866D01*
X675354Y22670D01*
Y22622D01*
X675305Y22573D01*
X675110Y22377D01*
X675012Y22329D01*
X674768Y22280D01*
X660367D01*
X660171Y22377D01*
X660074Y22475D01*
X659927Y22670D01*
Y22719D01*
X659878Y22866D01*
X659829Y23061D01*
X659781Y23305D01*
Y23354D01*
Y23549D01*
X659732Y23842D01*
Y24232D01*
Y24281D01*
Y24330D01*
Y24574D01*
Y24916D01*
X659781Y25209D01*
Y25258D01*
X659829Y25453D01*
X659878Y25648D01*
X659927Y25844D01*
Y25892D01*
X659976Y25990D01*
X660074Y26088D01*
X660171Y26185D01*
X660220Y26234D01*
X660269Y26283D01*
X660367Y26332D01*
X665346D01*
Y43174D01*
X661148Y40880D01*
X661099Y40831D01*
X660903Y40733D01*
X660659Y40636D01*
X660415Y40587D01*
X660074D01*
X659927Y40684D01*
Y40733D01*
X659829Y40831D01*
X659781Y41026D01*
X659732Y41270D01*
Y41368D01*
Y41612D01*
X659683Y41954D01*
Y42491D01*
Y42588D01*
Y42784D01*
Y43028D01*
Y43272D01*
Y43321D01*
Y43467D01*
X659781Y43760D01*
Y43809D01*
X659829Y43906D01*
X659976Y44151D01*
X660025Y44199D01*
X660074Y44248D01*
X660367Y44443D01*
X665932Y48056D01*
X665981Y48105D01*
X666176Y48203D01*
X666225D01*
X666273Y48251D01*
X666615D01*
X666762Y48300D01*
X667250D01*
X667494Y48349D01*
X669007D01*
X669398Y48300D01*
D02*
G37*
G36*
X741015Y48593D02*
X741650Y48544D01*
X742333Y48398D01*
X743065Y48251D01*
X743798Y48007D01*
X744481Y47714D01*
X744579Y47666D01*
X744774Y47568D01*
X745116Y47324D01*
X745507Y47031D01*
X745946Y46640D01*
X746385Y46201D01*
X746873Y45664D01*
X747264Y45078D01*
X747313Y44981D01*
X747410Y44785D01*
X747606Y44395D01*
X747850Y43906D01*
X748045Y43321D01*
X748289Y42588D01*
X748484Y41758D01*
X748680Y40880D01*
Y40831D01*
Y40782D01*
X748728Y40636D01*
Y40440D01*
X748826Y39952D01*
X748924Y39269D01*
X748973Y38439D01*
X749070Y37511D01*
X749119Y36437D01*
Y35314D01*
Y35266D01*
Y35168D01*
Y35022D01*
Y34777D01*
Y34533D01*
X749070Y34192D01*
Y33459D01*
X748973Y32580D01*
X748875Y31653D01*
X748777Y30677D01*
X748582Y29700D01*
Y29651D01*
Y29603D01*
X748533Y29456D01*
X748484Y29310D01*
X748387Y28821D01*
X748192Y28236D01*
X747996Y27552D01*
X747703Y26869D01*
X747362Y26136D01*
X746971Y25453D01*
X746922Y25355D01*
X746776Y25160D01*
X746532Y24867D01*
X746190Y24477D01*
X745751Y24037D01*
X745262Y23598D01*
X744677Y23159D01*
X744042Y22768D01*
X743944Y22719D01*
X743700Y22622D01*
X743310Y22475D01*
X742821Y22329D01*
X742187Y22133D01*
X741406Y21987D01*
X740527Y21889D01*
X739599Y21840D01*
X739160D01*
X738672Y21889D01*
X738037Y21938D01*
X737354Y22036D01*
X736573Y22231D01*
X735840Y22426D01*
X735157Y22719D01*
X735059Y22768D01*
X734864Y22914D01*
X734571Y23110D01*
X734181Y23403D01*
X733741Y23793D01*
X733302Y24232D01*
X732814Y24769D01*
X732423Y25355D01*
X732374Y25453D01*
X732277Y25648D01*
X732081Y26039D01*
X731886Y26527D01*
X731642Y27113D01*
X731398Y27845D01*
X731203Y28626D01*
X731007Y29505D01*
Y29554D01*
Y29603D01*
X730958Y29749D01*
Y29944D01*
X730910Y30481D01*
X730812Y31165D01*
X730763Y31995D01*
X730666Y32922D01*
X730617Y33996D01*
Y35119D01*
Y35168D01*
Y35266D01*
Y35412D01*
Y35656D01*
Y35900D01*
X730666Y36242D01*
Y36974D01*
X730714Y37853D01*
X730812Y38781D01*
X730958Y39708D01*
X731105Y40684D01*
Y40733D01*
X731154Y40782D01*
Y40929D01*
X731203Y41124D01*
X731300Y41563D01*
X731496Y42198D01*
X731691Y42832D01*
X731984Y43565D01*
X732325Y44297D01*
X732716Y44981D01*
X732765Y45078D01*
X732911Y45273D01*
X733204Y45566D01*
X733546Y45957D01*
X733936Y46396D01*
X734473Y46836D01*
X735059Y47275D01*
X735694Y47666D01*
X735791Y47714D01*
X736036Y47812D01*
X736426Y47958D01*
X736914Y48154D01*
X737549Y48349D01*
X738330Y48495D01*
X739160Y48593D01*
X740088Y48642D01*
X740527D01*
X741015Y48593D01*
D02*
G37*
G36*
X725491Y27992D02*
X725881Y27943D01*
X725979D01*
X726174Y27894D01*
X726418Y27796D01*
X726662Y27650D01*
X726711Y27601D01*
X726858Y27503D01*
X727004Y27308D01*
X727151Y27015D01*
X727199Y26918D01*
X727248Y26722D01*
X727297Y26381D01*
X727346Y25892D01*
Y25844D01*
Y25746D01*
Y25599D01*
Y25404D01*
X727297Y24965D01*
X727248Y24428D01*
Y24379D01*
Y24330D01*
X727199Y24037D01*
X727102Y23647D01*
X726955Y23207D01*
X726907Y23110D01*
X726858Y22866D01*
X726711Y22524D01*
X726516Y22133D01*
X726467Y22036D01*
X726321Y21792D01*
X726125Y21450D01*
X725833Y21010D01*
X723147Y17203D01*
Y17154D01*
X723050Y17105D01*
X722806Y16861D01*
X722757D01*
X722708Y16763D01*
X722415Y16666D01*
X722366D01*
X722269Y16617D01*
X722073Y16568D01*
X721829Y16519D01*
X721780D01*
X721634Y16470D01*
X721341Y16422D01*
X720658D01*
X720365Y16470D01*
X720023Y16519D01*
X719974D01*
X719828Y16568D01*
X719681Y16617D01*
X719535Y16666D01*
X719437Y16714D01*
X719340Y16910D01*
Y16959D01*
Y17007D01*
X719388Y17154D01*
X719486Y17300D01*
X721927Y22768D01*
Y25892D01*
Y25941D01*
Y25990D01*
Y26283D01*
X721976Y26674D01*
X722073Y27015D01*
X722122Y27113D01*
X722171Y27259D01*
X722366Y27455D01*
X722562Y27650D01*
X722610Y27699D01*
X722806Y27796D01*
X723050Y27894D01*
X723391Y27943D01*
X723489D01*
X723733Y27992D01*
X724173Y28040D01*
X725100D01*
X725491Y27992D01*
D02*
G37*
G36*
X709722Y48593D02*
X710357Y48544D01*
X711040Y48398D01*
X711773Y48251D01*
X712505Y48007D01*
X713188Y47714D01*
X713286Y47666D01*
X713481Y47568D01*
X713823Y47324D01*
X714214Y47031D01*
X714653Y46640D01*
X715092Y46201D01*
X715581Y45664D01*
X715971Y45078D01*
X716020Y44981D01*
X716117Y44785D01*
X716313Y44395D01*
X716557Y43906D01*
X716752Y43321D01*
X716996Y42588D01*
X717192Y41758D01*
X717387Y40880D01*
Y40831D01*
Y40782D01*
X717436Y40636D01*
Y40440D01*
X717533Y39952D01*
X717631Y39269D01*
X717680Y38439D01*
X717777Y37511D01*
X717826Y36437D01*
Y35314D01*
Y35266D01*
Y35168D01*
Y35022D01*
Y34777D01*
Y34533D01*
X717777Y34192D01*
Y33459D01*
X717680Y32580D01*
X717582Y31653D01*
X717485Y30677D01*
X717289Y29700D01*
Y29651D01*
Y29603D01*
X717240Y29456D01*
X717192Y29310D01*
X717094Y28821D01*
X716899Y28236D01*
X716703Y27552D01*
X716411Y26869D01*
X716069Y26136D01*
X715678Y25453D01*
X715629Y25355D01*
X715483Y25160D01*
X715239Y24867D01*
X714897Y24477D01*
X714458Y24037D01*
X713969Y23598D01*
X713384Y23159D01*
X712749Y22768D01*
X712651Y22719D01*
X712407Y22622D01*
X712017Y22475D01*
X711529Y22329D01*
X710894Y22133D01*
X710113Y21987D01*
X709234Y21889D01*
X708307Y21840D01*
X707867D01*
X707379Y21889D01*
X706744Y21938D01*
X706061Y22036D01*
X705280Y22231D01*
X704548Y22426D01*
X703864Y22719D01*
X703766Y22768D01*
X703571Y22914D01*
X703278Y23110D01*
X702888Y23403D01*
X702448Y23793D01*
X702009Y24232D01*
X701521Y24769D01*
X701130Y25355D01*
X701081Y25453D01*
X700984Y25648D01*
X700788Y26039D01*
X700593Y26527D01*
X700349Y27113D01*
X700105Y27845D01*
X699910Y28626D01*
X699714Y29505D01*
Y29554D01*
Y29603D01*
X699666Y29749D01*
Y29944D01*
X699617Y30481D01*
X699519Y31165D01*
X699470Y31995D01*
X699373Y32922D01*
X699324Y33996D01*
Y35119D01*
Y35168D01*
Y35266D01*
Y35412D01*
Y35656D01*
Y35900D01*
X699373Y36242D01*
Y36974D01*
X699421Y37853D01*
X699519Y38781D01*
X699666Y39708D01*
X699812Y40684D01*
Y40733D01*
X699861Y40782D01*
Y40929D01*
X699910Y41124D01*
X700007Y41563D01*
X700203Y42198D01*
X700398Y42832D01*
X700691Y43565D01*
X701032Y44297D01*
X701423Y44981D01*
X701472Y45078D01*
X701618Y45273D01*
X701911Y45566D01*
X702253Y45957D01*
X702644Y46396D01*
X703181Y46836D01*
X703766Y47275D01*
X704401Y47666D01*
X704499Y47714D01*
X704743Y47812D01*
X705133Y47958D01*
X705621Y48154D01*
X706256Y48349D01*
X707037Y48495D01*
X707867Y48593D01*
X708795Y48642D01*
X709234D01*
X709722Y48593D01*
D02*
G37*
G36*
X694100Y48105D02*
X694198Y48007D01*
X694247D01*
X694296Y47910D01*
X694393Y47812D01*
X694491Y47617D01*
Y47568D01*
X694540Y47421D01*
X694588Y47226D01*
X694637Y46933D01*
Y46836D01*
X694686Y46640D01*
X694735Y46299D01*
Y45908D01*
Y45859D01*
Y45713D01*
Y45518D01*
X694686Y45273D01*
X694637Y44688D01*
X694588Y44443D01*
X694491Y44199D01*
X694442Y44102D01*
X694344Y43955D01*
X694149Y43760D01*
X694051Y43711D01*
X693905Y43662D01*
X684727D01*
Y38097D01*
X684825D01*
X685166Y38146D01*
X685606Y38195D01*
X686338D01*
X686533Y38244D01*
X687900D01*
X688291Y38195D01*
X688828D01*
X689365Y38097D01*
X689999Y37999D01*
X690634Y37902D01*
X691269Y37706D01*
X691318D01*
X691562Y37609D01*
X691855Y37511D01*
X692196Y37365D01*
X692636Y37169D01*
X693124Y36925D01*
X694003Y36291D01*
X694051Y36242D01*
X694198Y36144D01*
X694393Y35900D01*
X694637Y35656D01*
X694930Y35314D01*
X695223Y34924D01*
X695467Y34436D01*
X695711Y33948D01*
X695760Y33899D01*
X695809Y33703D01*
X695907Y33410D01*
X696004Y33020D01*
X696102Y32532D01*
X696199Y31995D01*
X696297Y31360D01*
Y30677D01*
Y30579D01*
Y30335D01*
X696248Y29944D01*
X696199Y29407D01*
X696102Y28821D01*
X696004Y28187D01*
X695809Y27552D01*
X695565Y26918D01*
X695516Y26869D01*
X695418Y26625D01*
X695272Y26332D01*
X695028Y25941D01*
X694735Y25502D01*
X694393Y25062D01*
X693954Y24574D01*
X693466Y24135D01*
X693417Y24086D01*
X693222Y23940D01*
X692929Y23744D01*
X692587Y23500D01*
X692099Y23207D01*
X691562Y22963D01*
X690976Y22670D01*
X690292Y22426D01*
X690195D01*
X689951Y22329D01*
X689609Y22231D01*
X689072Y22133D01*
X688486Y22036D01*
X687754Y21938D01*
X686973Y21889D01*
X686143Y21840D01*
X685703D01*
X685411Y21889D01*
X685069D01*
X684678Y21938D01*
X683848Y22036D01*
X683800D01*
X683653Y22085D01*
X683458D01*
X683214Y22133D01*
X682579Y22231D01*
X681896Y22377D01*
X681847D01*
X681749Y22426D01*
X681603Y22475D01*
X681407Y22524D01*
X680968Y22670D01*
X680529Y22817D01*
X680431Y22866D01*
X680236Y22963D01*
X679992Y23110D01*
X679796Y23207D01*
Y23256D01*
X679699Y23305D01*
X679552Y23500D01*
Y23549D01*
X679503Y23647D01*
X679406Y23940D01*
Y23988D01*
Y24135D01*
X679357Y24330D01*
Y24574D01*
Y24623D01*
Y24818D01*
Y25111D01*
Y25453D01*
Y25502D01*
Y25551D01*
Y25795D01*
Y26136D01*
Y26429D01*
Y26478D01*
X679406Y26674D01*
X679455Y26820D01*
X679503Y27015D01*
Y27064D01*
X679552Y27162D01*
X679650Y27259D01*
X679699Y27357D01*
X679747Y27406D01*
X679796Y27455D01*
X679894Y27503D01*
X680040D01*
X680138Y27455D01*
X680333Y27406D01*
X680577Y27259D01*
X680675Y27211D01*
X680870Y27113D01*
X681212Y26918D01*
X681652Y26722D01*
X681700D01*
X681798Y26674D01*
X681944Y26625D01*
X682140Y26576D01*
X682628Y26429D01*
X683311Y26234D01*
X683360D01*
X683507Y26185D01*
X683702D01*
X683946Y26136D01*
X684288Y26088D01*
X684678D01*
X685606Y26039D01*
X686045D01*
X686289Y26088D01*
X686973Y26136D01*
X687705Y26234D01*
X687754D01*
X687851Y26283D01*
X688047Y26332D01*
X688291Y26429D01*
X688779Y26674D01*
X689316Y27015D01*
X689365Y27064D01*
X689414Y27113D01*
X689707Y27406D01*
X690048Y27796D01*
X690341Y28333D01*
Y28382D01*
X690390Y28480D01*
X690488Y28675D01*
X690536Y28870D01*
X690634Y29163D01*
X690683Y29505D01*
X690732Y30237D01*
Y30286D01*
Y30384D01*
Y30579D01*
X690683Y30823D01*
X690585Y31360D01*
X690390Y31946D01*
Y31995D01*
X690341Y32092D01*
X690146Y32385D01*
X689853Y32825D01*
X689463Y33215D01*
X689414Y33264D01*
X689365Y33313D01*
X689218Y33410D01*
X689023Y33508D01*
X688486Y33752D01*
X687803Y33996D01*
X687754D01*
X687607Y34045D01*
X687412Y34094D01*
X687119Y34143D01*
X686729Y34192D01*
X686338Y34240D01*
X685850Y34289D01*
X684629D01*
X683946Y34240D01*
X683214Y34143D01*
X683067D01*
X682872Y34094D01*
X682628D01*
X682091Y34045D01*
X681359D01*
X681115Y34094D01*
X680870Y34143D01*
X680626Y34289D01*
X680577Y34338D01*
X680529Y34533D01*
X680431Y34875D01*
X680382Y35363D01*
Y46640D01*
Y46689D01*
Y46787D01*
X680431Y47080D01*
X680529Y47421D01*
X680675Y47763D01*
X680724Y47812D01*
X680919Y47958D01*
X681212Y48105D01*
X681652Y48154D01*
X694003D01*
X694100Y48105D01*
D02*
G37*
G36*
X796132Y41905D02*
X796571Y41856D01*
X797010Y41807D01*
X797547Y41710D01*
X798036Y41514D01*
X798524Y41319D01*
X798572Y41270D01*
X798719Y41221D01*
X798963Y41075D01*
X799207Y40880D01*
X799842Y40392D01*
X800476Y39708D01*
X800525Y39659D01*
X800574Y39513D01*
X800721Y39318D01*
X800867Y39025D01*
X801062Y38683D01*
X801257Y38244D01*
X801404Y37804D01*
X801550Y37267D01*
Y37218D01*
X801599Y37023D01*
X801648Y36779D01*
X801746Y36388D01*
X801795Y35949D01*
X801843Y35461D01*
X801892Y34387D01*
Y22963D01*
Y22914D01*
Y22866D01*
X801843Y22719D01*
X801746Y22622D01*
X801648Y22524D01*
X801550Y22475D01*
X801355Y22377D01*
X801306D01*
X801160Y22329D01*
X800916Y22280D01*
X800574Y22231D01*
X800232D01*
X799842Y22182D01*
X798524D01*
X798133Y22231D01*
X798036D01*
X797840Y22280D01*
X797596Y22329D01*
X797352Y22377D01*
X797303D01*
X797206Y22426D01*
X797059Y22524D01*
X796962Y22622D01*
Y22670D01*
X796913Y22719D01*
X796864Y22963D01*
Y33508D01*
Y33557D01*
Y33654D01*
Y33850D01*
Y34045D01*
X796766Y34582D01*
X796669Y35168D01*
Y35217D01*
X796620Y35314D01*
X796571Y35607D01*
X796376Y35998D01*
X796132Y36437D01*
Y36486D01*
X796083Y36535D01*
X795888Y36730D01*
X795594Y37023D01*
X795253Y37267D01*
X795155Y37316D01*
X794911Y37414D01*
X794520Y37511D01*
X794032Y37560D01*
X793886D01*
X793691Y37511D01*
X793447Y37462D01*
X793154Y37365D01*
X792861Y37267D01*
X792519Y37072D01*
X792177Y36828D01*
X792128Y36779D01*
X792031Y36681D01*
X791835Y36535D01*
X791591Y36340D01*
X791299Y36047D01*
X791006Y35656D01*
X790615Y35266D01*
X790225Y34777D01*
Y22963D01*
Y22914D01*
Y22866D01*
X790176Y22719D01*
X790078Y22622D01*
X789980Y22524D01*
X789883Y22475D01*
X789688Y22377D01*
X789639D01*
X789492Y22329D01*
X789248Y22280D01*
X788906Y22231D01*
X788565D01*
X788174Y22182D01*
X786856D01*
X786465Y22231D01*
X786368D01*
X786172Y22280D01*
X785928Y22329D01*
X785684Y22377D01*
X785636D01*
X785538Y22426D01*
X785391Y22524D01*
X785294Y22622D01*
Y22670D01*
X785245Y22719D01*
X785196Y22963D01*
Y33508D01*
Y33557D01*
Y33654D01*
Y33850D01*
Y34045D01*
X785098Y34582D01*
X785001Y35168D01*
Y35217D01*
X784952Y35314D01*
X784903Y35607D01*
X784757Y35998D01*
X784513Y36437D01*
Y36486D01*
X784464Y36535D01*
X784269Y36730D01*
X783976Y37023D01*
X783585Y37267D01*
X783487Y37316D01*
X783243Y37414D01*
X782853Y37511D01*
X782365Y37560D01*
X782218D01*
X782023Y37511D01*
X781779Y37462D01*
X781486Y37365D01*
X781193Y37267D01*
X780851Y37072D01*
X780509Y36828D01*
X780461Y36779D01*
X780363Y36681D01*
X780168Y36535D01*
X779924Y36340D01*
X779631Y36047D01*
X779289Y35656D01*
X778947Y35266D01*
X778557Y34777D01*
Y22963D01*
Y22914D01*
Y22866D01*
X778508Y22719D01*
X778410Y22622D01*
X778313Y22524D01*
X778215Y22475D01*
X778020Y22377D01*
X777971D01*
X777824Y22329D01*
X777580Y22280D01*
X777239Y22231D01*
X776897D01*
X776506Y22182D01*
X775188D01*
X774798Y22231D01*
X774700D01*
X774505Y22280D01*
X774261Y22329D01*
X774017Y22377D01*
X773968D01*
X773870Y22426D01*
X773724Y22524D01*
X773626Y22622D01*
Y22670D01*
X773577Y22719D01*
X773529Y22963D01*
Y40782D01*
Y40831D01*
Y40880D01*
X773626Y41124D01*
Y41173D01*
X773724Y41221D01*
X773821Y41270D01*
X773968Y41368D01*
X774017D01*
X774163Y41417D01*
X774358Y41466D01*
X774603Y41514D01*
X774700D01*
X774895Y41563D01*
X775237Y41612D01*
X776067D01*
X776360Y41563D01*
X776702Y41514D01*
X776799D01*
X776946Y41466D01*
X777141Y41417D01*
X777336Y41368D01*
X777385D01*
X777483Y41319D01*
X777580Y41221D01*
X777678Y41124D01*
X777727Y41026D01*
X777776Y40782D01*
Y38732D01*
X777824Y38781D01*
X778020Y38976D01*
X778313Y39269D01*
X778703Y39659D01*
X779191Y40001D01*
X779680Y40440D01*
X780217Y40782D01*
X780754Y41124D01*
X780803Y41173D01*
X780998Y41270D01*
X781291Y41368D01*
X781681Y41563D01*
X782169Y41710D01*
X782658Y41807D01*
X783243Y41905D01*
X783829Y41954D01*
X784220D01*
X784464Y41905D01*
X785098Y41856D01*
X785782Y41710D01*
X785831D01*
X785928Y41661D01*
X786075Y41612D01*
X786319Y41514D01*
X786807Y41319D01*
X787344Y41026D01*
X787393D01*
X787491Y40929D01*
X787784Y40733D01*
X788174Y40392D01*
X788565Y40001D01*
Y39952D01*
X788662Y39903D01*
X788858Y39610D01*
X789102Y39220D01*
X789395Y38683D01*
X789443Y38732D01*
X789541Y38829D01*
X789688Y38976D01*
X789883Y39171D01*
X790371Y39659D01*
X790957Y40147D01*
X791006Y40196D01*
X791103Y40245D01*
X791250Y40392D01*
X791445Y40538D01*
X791933Y40831D01*
X792470Y41173D01*
X792519D01*
X792617Y41221D01*
X792763Y41319D01*
X792958Y41417D01*
X793447Y41563D01*
X793984Y41758D01*
X794032D01*
X794130Y41807D01*
X794276D01*
X794472Y41856D01*
X794911Y41905D01*
X795497Y41954D01*
X795790D01*
X796132Y41905D01*
D02*
G37*
G36*
X829475D02*
X829914Y41856D01*
X830353Y41807D01*
X830891Y41710D01*
X831379Y41514D01*
X831867Y41319D01*
X831916Y41270D01*
X832062Y41221D01*
X832306Y41075D01*
X832550Y40880D01*
X833185Y40392D01*
X833820Y39708D01*
X833868Y39659D01*
X833917Y39513D01*
X834064Y39318D01*
X834210Y39025D01*
X834406Y38683D01*
X834601Y38244D01*
X834747Y37804D01*
X834894Y37267D01*
Y37218D01*
X834942Y37023D01*
X834991Y36779D01*
X835089Y36388D01*
X835138Y35949D01*
X835187Y35461D01*
X835235Y34387D01*
Y22963D01*
Y22914D01*
Y22866D01*
X835187Y22719D01*
X835089Y22622D01*
X834991Y22524D01*
X834894Y22475D01*
X834698Y22377D01*
X834650D01*
X834503Y22329D01*
X834259Y22280D01*
X833917Y22231D01*
X833576D01*
X833185Y22182D01*
X831867D01*
X831476Y22231D01*
X831379D01*
X831183Y22280D01*
X830939Y22329D01*
X830695Y22377D01*
X830646D01*
X830549Y22426D01*
X830402Y22524D01*
X830305Y22622D01*
Y22670D01*
X830256Y22719D01*
X830207Y22963D01*
Y33508D01*
Y33557D01*
Y33654D01*
Y33850D01*
Y34045D01*
X830109Y34582D01*
X830012Y35168D01*
Y35217D01*
X829963Y35314D01*
X829914Y35607D01*
X829719Y35998D01*
X829475Y36437D01*
Y36486D01*
X829426Y36535D01*
X829231Y36730D01*
X828938Y37023D01*
X828596Y37267D01*
X828498Y37316D01*
X828254Y37414D01*
X827864Y37511D01*
X827376Y37560D01*
X827229D01*
X827034Y37511D01*
X826790Y37462D01*
X826497Y37365D01*
X826204Y37267D01*
X825862Y37072D01*
X825520Y36828D01*
X825472Y36779D01*
X825374Y36681D01*
X825179Y36535D01*
X824935Y36340D01*
X824642Y36047D01*
X824349Y35656D01*
X823958Y35266D01*
X823568Y34777D01*
Y22963D01*
Y22914D01*
Y22866D01*
X823519Y22719D01*
X823421Y22622D01*
X823324Y22524D01*
X823226Y22475D01*
X823031Y22377D01*
X822982D01*
X822835Y22329D01*
X822591Y22280D01*
X822250Y22231D01*
X821908D01*
X821517Y22182D01*
X820199D01*
X819809Y22231D01*
X819711D01*
X819516Y22280D01*
X819272Y22329D01*
X819028Y22377D01*
X818979D01*
X818881Y22426D01*
X818735Y22524D01*
X818637Y22622D01*
Y22670D01*
X818588Y22719D01*
X818539Y22963D01*
Y33508D01*
Y33557D01*
Y33654D01*
Y33850D01*
Y34045D01*
X818442Y34582D01*
X818344Y35168D01*
Y35217D01*
X818295Y35314D01*
X818247Y35607D01*
X818100Y35998D01*
X817856Y36437D01*
Y36486D01*
X817807Y36535D01*
X817612Y36730D01*
X817319Y37023D01*
X816928Y37267D01*
X816831Y37316D01*
X816587Y37414D01*
X816196Y37511D01*
X815708Y37560D01*
X815561D01*
X815366Y37511D01*
X815122Y37462D01*
X814829Y37365D01*
X814536Y37267D01*
X814194Y37072D01*
X813853Y36828D01*
X813804Y36779D01*
X813706Y36681D01*
X813511Y36535D01*
X813267Y36340D01*
X812974Y36047D01*
X812632Y35656D01*
X812291Y35266D01*
X811900Y34777D01*
Y22963D01*
Y22914D01*
Y22866D01*
X811851Y22719D01*
X811754Y22622D01*
X811656Y22524D01*
X811558Y22475D01*
X811363Y22377D01*
X811314D01*
X811168Y22329D01*
X810924Y22280D01*
X810582Y22231D01*
X810240D01*
X809850Y22182D01*
X808531D01*
X808141Y22231D01*
X808043D01*
X807848Y22280D01*
X807604Y22329D01*
X807360Y22377D01*
X807311D01*
X807213Y22426D01*
X807067Y22524D01*
X806969Y22622D01*
Y22670D01*
X806920Y22719D01*
X806872Y22963D01*
Y40782D01*
Y40831D01*
Y40880D01*
X806969Y41124D01*
Y41173D01*
X807067Y41221D01*
X807165Y41270D01*
X807311Y41368D01*
X807360D01*
X807506Y41417D01*
X807702Y41466D01*
X807946Y41514D01*
X808043D01*
X808239Y41563D01*
X808580Y41612D01*
X809410D01*
X809703Y41563D01*
X810045Y41514D01*
X810143D01*
X810289Y41466D01*
X810484Y41417D01*
X810680Y41368D01*
X810728D01*
X810826Y41319D01*
X810924Y41221D01*
X811021Y41124D01*
X811070Y41026D01*
X811119Y40782D01*
Y38732D01*
X811168Y38781D01*
X811363Y38976D01*
X811656Y39269D01*
X812047Y39659D01*
X812535Y40001D01*
X813023Y40440D01*
X813560Y40782D01*
X814097Y41124D01*
X814146Y41173D01*
X814341Y41270D01*
X814634Y41368D01*
X815024Y41563D01*
X815513Y41710D01*
X816001Y41807D01*
X816587Y41905D01*
X817172Y41954D01*
X817563D01*
X817807Y41905D01*
X818442Y41856D01*
X819125Y41710D01*
X819174D01*
X819272Y41661D01*
X819418Y41612D01*
X819662Y41514D01*
X820150Y41319D01*
X820687Y41026D01*
X820736D01*
X820834Y40929D01*
X821127Y40733D01*
X821517Y40392D01*
X821908Y40001D01*
Y39952D01*
X822005Y39903D01*
X822201Y39610D01*
X822445Y39220D01*
X822738Y38683D01*
X822787Y38732D01*
X822884Y38829D01*
X823031Y38976D01*
X823226Y39171D01*
X823714Y39659D01*
X824300Y40147D01*
X824349Y40196D01*
X824446Y40245D01*
X824593Y40392D01*
X824788Y40538D01*
X825276Y40831D01*
X825813Y41173D01*
X825862D01*
X825960Y41221D01*
X826106Y41319D01*
X826302Y41417D01*
X826790Y41563D01*
X827327Y41758D01*
X827376D01*
X827473Y41807D01*
X827620D01*
X827815Y41856D01*
X828254Y41905D01*
X828840Y41954D01*
X829133D01*
X829475Y41905D01*
D02*
G37*
%LPC*%
G36*
X760640Y44492D02*
X760445D01*
X760250Y44443D01*
X759957D01*
X759322Y44248D01*
X758980Y44102D01*
X758688Y43906D01*
X758639Y43858D01*
X758541Y43809D01*
X758395Y43662D01*
X758248Y43467D01*
X758053Y43223D01*
X757858Y42930D01*
X757662Y42540D01*
X757467Y42149D01*
Y42100D01*
X757418Y41954D01*
X757321Y41710D01*
X757223Y41368D01*
X757125Y40977D01*
X757028Y40489D01*
X756930Y39952D01*
X756832Y39318D01*
Y39220D01*
Y39025D01*
X756784Y38683D01*
Y38195D01*
X756735Y37658D01*
Y36974D01*
X756686Y36242D01*
Y35412D01*
Y35363D01*
Y35314D01*
Y35168D01*
Y34973D01*
Y34436D01*
X756735Y33801D01*
Y33069D01*
X756784Y32288D01*
X756832Y31555D01*
X756881Y30823D01*
Y30725D01*
X756930Y30530D01*
X756979Y30188D01*
X757028Y29798D01*
X757125Y29310D01*
X757272Y28870D01*
X757418Y28382D01*
X757565Y27943D01*
Y27894D01*
X757662Y27747D01*
X757760Y27601D01*
X757906Y27357D01*
X758297Y26869D01*
X758541Y26625D01*
X758785Y26429D01*
X758834D01*
X758932Y26381D01*
X759078Y26332D01*
X759273Y26234D01*
X759859Y26088D01*
X760543Y26039D01*
X760836D01*
X761031Y26088D01*
X761470Y26136D01*
X761910Y26283D01*
X761958D01*
X762007Y26332D01*
X762251Y26478D01*
X762593Y26674D01*
X762935Y27015D01*
X763032Y27113D01*
X763228Y27357D01*
X763472Y27747D01*
X763716Y28236D01*
Y28284D01*
X763765Y28382D01*
X763813Y28529D01*
X763911Y28773D01*
X764058Y29310D01*
X764204Y29993D01*
Y30042D01*
X764253Y30188D01*
Y30384D01*
X764302Y30677D01*
X764351Y31018D01*
X764399Y31409D01*
X764448Y32288D01*
Y32336D01*
Y32532D01*
X764497Y32776D01*
Y33117D01*
Y33508D01*
X764546Y33996D01*
Y35070D01*
Y35168D01*
Y35363D01*
Y35754D01*
Y36193D01*
X764497Y36681D01*
Y37218D01*
X764399Y38292D01*
Y38341D01*
Y38536D01*
X764351Y38781D01*
Y39122D01*
X764253Y39903D01*
X764106Y40733D01*
Y40782D01*
X764058Y40929D01*
X764009Y41124D01*
X763960Y41368D01*
X763813Y41954D01*
X763569Y42540D01*
Y42588D01*
X763521Y42686D01*
X763374Y42979D01*
X763130Y43321D01*
X762837Y43662D01*
X762739Y43760D01*
X762544Y43906D01*
X762203Y44102D01*
X761812Y44297D01*
X761714Y44346D01*
X761470Y44395D01*
X761080Y44443D01*
X760640Y44492D01*
D02*
G37*
G36*
X739892D02*
X739697D01*
X739502Y44443D01*
X739209D01*
X738574Y44248D01*
X738232Y44102D01*
X737940Y43906D01*
X737891Y43858D01*
X737793Y43809D01*
X737647Y43662D01*
X737500Y43467D01*
X737305Y43223D01*
X737110Y42930D01*
X736914Y42540D01*
X736719Y42149D01*
Y42100D01*
X736670Y41954D01*
X736573Y41710D01*
X736475Y41368D01*
X736377Y40977D01*
X736280Y40489D01*
X736182Y39952D01*
X736084Y39318D01*
Y39220D01*
Y39025D01*
X736036Y38683D01*
Y38195D01*
X735987Y37658D01*
Y36974D01*
X735938Y36242D01*
Y35412D01*
Y35363D01*
Y35314D01*
Y35168D01*
Y34973D01*
Y34436D01*
X735987Y33801D01*
Y33069D01*
X736036Y32288D01*
X736084Y31555D01*
X736133Y30823D01*
Y30725D01*
X736182Y30530D01*
X736231Y30188D01*
X736280Y29798D01*
X736377Y29310D01*
X736524Y28870D01*
X736670Y28382D01*
X736817Y27943D01*
Y27894D01*
X736914Y27747D01*
X737012Y27601D01*
X737158Y27357D01*
X737549Y26869D01*
X737793Y26625D01*
X738037Y26429D01*
X738086D01*
X738184Y26381D01*
X738330Y26332D01*
X738525Y26234D01*
X739111Y26088D01*
X739795Y26039D01*
X740088D01*
X740283Y26088D01*
X740722Y26136D01*
X741162Y26283D01*
X741210D01*
X741259Y26332D01*
X741503Y26478D01*
X741845Y26674D01*
X742187Y27015D01*
X742284Y27113D01*
X742480Y27357D01*
X742724Y27747D01*
X742968Y28236D01*
Y28284D01*
X743017Y28382D01*
X743065Y28529D01*
X743163Y28773D01*
X743310Y29310D01*
X743456Y29993D01*
Y30042D01*
X743505Y30188D01*
Y30384D01*
X743554Y30677D01*
X743603Y31018D01*
X743651Y31409D01*
X743700Y32288D01*
Y32336D01*
Y32532D01*
X743749Y32776D01*
Y33117D01*
Y33508D01*
X743798Y33996D01*
Y35070D01*
Y35168D01*
Y35363D01*
Y35754D01*
Y36193D01*
X743749Y36681D01*
Y37218D01*
X743651Y38292D01*
Y38341D01*
Y38536D01*
X743603Y38781D01*
Y39122D01*
X743505Y39903D01*
X743358Y40733D01*
Y40782D01*
X743310Y40929D01*
X743261Y41124D01*
X743212Y41368D01*
X743065Y41954D01*
X742821Y42540D01*
Y42588D01*
X742773Y42686D01*
X742626Y42979D01*
X742382Y43321D01*
X742089Y43662D01*
X741992Y43760D01*
X741796Y43906D01*
X741454Y44102D01*
X741064Y44297D01*
X740966Y44346D01*
X740722Y44395D01*
X740332Y44443D01*
X739892Y44492D01*
D02*
G37*
G36*
X708599D02*
X708404D01*
X708209Y44443D01*
X707916D01*
X707281Y44248D01*
X706940Y44102D01*
X706647Y43906D01*
X706598Y43858D01*
X706500Y43809D01*
X706354Y43662D01*
X706207Y43467D01*
X706012Y43223D01*
X705817Y42930D01*
X705621Y42540D01*
X705426Y42149D01*
Y42100D01*
X705377Y41954D01*
X705280Y41710D01*
X705182Y41368D01*
X705085Y40977D01*
X704987Y40489D01*
X704889Y39952D01*
X704792Y39318D01*
Y39220D01*
Y39025D01*
X704743Y38683D01*
Y38195D01*
X704694Y37658D01*
Y36974D01*
X704645Y36242D01*
Y35412D01*
Y35363D01*
Y35314D01*
Y35168D01*
Y34973D01*
Y34436D01*
X704694Y33801D01*
Y33069D01*
X704743Y32288D01*
X704792Y31555D01*
X704840Y30823D01*
Y30725D01*
X704889Y30530D01*
X704938Y30188D01*
X704987Y29798D01*
X705085Y29310D01*
X705231Y28870D01*
X705377Y28382D01*
X705524Y27943D01*
Y27894D01*
X705621Y27747D01*
X705719Y27601D01*
X705866Y27357D01*
X706256Y26869D01*
X706500Y26625D01*
X706744Y26429D01*
X706793D01*
X706891Y26381D01*
X707037Y26332D01*
X707233Y26234D01*
X707818Y26088D01*
X708502Y26039D01*
X708795D01*
X708990Y26088D01*
X709429Y26136D01*
X709869Y26283D01*
X709918D01*
X709966Y26332D01*
X710210Y26478D01*
X710552Y26674D01*
X710894Y27015D01*
X710992Y27113D01*
X711187Y27357D01*
X711431Y27747D01*
X711675Y28236D01*
Y28284D01*
X711724Y28382D01*
X711773Y28529D01*
X711870Y28773D01*
X712017Y29310D01*
X712163Y29993D01*
Y30042D01*
X712212Y30188D01*
Y30384D01*
X712261Y30677D01*
X712310Y31018D01*
X712358Y31409D01*
X712407Y32288D01*
Y32336D01*
Y32532D01*
X712456Y32776D01*
Y33117D01*
Y33508D01*
X712505Y33996D01*
Y35070D01*
Y35168D01*
Y35363D01*
Y35754D01*
Y36193D01*
X712456Y36681D01*
Y37218D01*
X712358Y38292D01*
Y38341D01*
Y38536D01*
X712310Y38781D01*
Y39122D01*
X712212Y39903D01*
X712066Y40733D01*
Y40782D01*
X712017Y40929D01*
X711968Y41124D01*
X711919Y41368D01*
X711773Y41954D01*
X711529Y42540D01*
Y42588D01*
X711480Y42686D01*
X711333Y42979D01*
X711089Y43321D01*
X710796Y43662D01*
X710699Y43760D01*
X710503Y43906D01*
X710162Y44102D01*
X709771Y44297D01*
X709673Y44346D01*
X709429Y44395D01*
X709039Y44443D01*
X708599Y44492D01*
D02*
G37*
%LPD*%
D36*
X1499998Y2540D02*
Y40930D01*
X0Y2540D02*
Y40930D01*
X837775Y38390D02*
X1499998D01*
X0D02*
X657143D01*
X1484758Y43470D02*
X1499998Y38390D01*
X1484758Y33310D02*
X1499998Y38390D01*
X0D02*
X15240Y33310D01*
X0Y38390D02*
X15240Y43470D01*
D60*
X1066400Y-359610D02*
G03*
X1066400Y-359610I-5000J0D01*
G01*
Y-151610D02*
G03*
X1066400Y-151610I-5000J0D01*
G01*
X625400Y-911610D02*
G03*
X625400Y-911610I-5000J0D01*
G01*
Y-703610D02*
G03*
X625400Y-703610I-5000J0D01*
G01*
Y-359610D02*
G03*
X625400Y-359610I-5000J0D01*
G01*
Y-151610D02*
G03*
X625400Y-151610I-5000J0D01*
G01*
X1066400Y-703610D02*
G03*
X1066400Y-703610I-5000J0D01*
G01*
Y-911610D02*
G03*
X1066400Y-911610I-5000J0D01*
G01*
X69950Y-882300D02*
Y-861300D01*
X83450Y-882300D02*
Y-861300D01*
X69950Y-882300D02*
X83450D01*
X69950Y-861300D02*
X83450D01*
X1040320Y-413010D02*
Y-399010D01*
X1062320Y-413010D02*
Y-399010D01*
X1040320Y-413010D02*
X1062320D01*
X1040320Y-399010D02*
X1062320D01*
X1040320Y-205010D02*
Y-191010D01*
X1062320Y-205010D02*
Y-191010D01*
X1040320Y-205010D02*
X1062320D01*
X1040320Y-191010D02*
X1062320D01*
X599320Y-965010D02*
Y-951010D01*
X621320Y-965010D02*
Y-951010D01*
X599320Y-965010D02*
X621320D01*
X599320Y-951010D02*
X621320D01*
X599320Y-757010D02*
Y-743010D01*
X621320Y-757010D02*
Y-743010D01*
X599320Y-757010D02*
X621320D01*
X599320Y-743010D02*
X621320D01*
X599320Y-413010D02*
Y-399010D01*
X621320Y-413010D02*
Y-399010D01*
X599320Y-413010D02*
X621320D01*
X599320Y-399010D02*
X621320D01*
X599320Y-205010D02*
Y-191010D01*
X621320Y-205010D02*
Y-191010D01*
X599320Y-205010D02*
X621320D01*
X599320Y-191010D02*
X621320D01*
X1040320Y-757010D02*
Y-743010D01*
X1062320Y-757010D02*
Y-743010D01*
X1040320Y-757010D02*
X1062320D01*
X1040320Y-743010D02*
X1062320D01*
X1040320Y-965010D02*
Y-951010D01*
X1062320Y-965010D02*
Y-951010D01*
X1040320Y-965010D02*
X1062320D01*
X1040320Y-951010D02*
X1062320D01*
X1070400Y-368610D02*
Y-270610D01*
X1025400Y-368610D02*
Y-270610D01*
Y-368610D02*
X1070400D01*
X1025400Y-270610D02*
X1070400D01*
Y-160610D02*
Y-62610D01*
X1025400Y-160610D02*
Y-62610D01*
Y-160610D02*
X1070400D01*
X1025400Y-62610D02*
X1070400D01*
X629400Y-920610D02*
Y-822610D01*
X584400Y-920610D02*
Y-822610D01*
Y-920610D02*
X629400D01*
X584400Y-822610D02*
X629400D01*
Y-712610D02*
Y-614610D01*
X584400Y-712610D02*
Y-614610D01*
Y-712610D02*
X629400D01*
X584400Y-614610D02*
X629400D01*
Y-368610D02*
Y-270610D01*
X584400Y-368610D02*
Y-270610D01*
Y-368610D02*
X629400D01*
X584400Y-270610D02*
X629400D01*
Y-160610D02*
Y-62610D01*
X584400Y-160610D02*
Y-62610D01*
Y-160610D02*
X629400D01*
X584400Y-62610D02*
X629400D01*
X1070400Y-712610D02*
Y-614610D01*
X1025400Y-712610D02*
Y-614610D01*
Y-712610D02*
X1070400D01*
X1025400Y-614610D02*
X1070400D01*
Y-920610D02*
Y-822610D01*
X1025400Y-920610D02*
Y-822610D01*
Y-920610D02*
X1070400D01*
X1025400Y-822610D02*
X1070400D01*
M02*
