G04 Layer_Color=255*
%FSLAX44Y44*%
%MOMM*%
G71*
G01*
G75*
%ADD10R,1.2000X1.1000*%
%ADD11R,1.2000X2.1000*%
%ADD12R,2.1000X1.2000*%
%ADD13R,1.2000X0.8000*%
%ADD14R,0.4000X0.7000*%
%ADD15R,1.2000X0.7000*%
%ADD16R,0.8000X1.2000*%
%ADD17R,0.7000X1.2000*%
%ADD18O,1.5000X0.2500*%
%ADD24C,1.5240*%
%ADD25C,1.6000*%
%ADD26C,2.0828*%
%ADD27C,3.9370*%
%ADD28R,0.8900X0.8900*%
%ADD29C,0.8900*%
D10*
X76700Y-882300D02*
D03*
Y-861300D02*
D03*
D11*
X151800Y-635600D02*
D03*
X121800D02*
D03*
D12*
X115900Y-610400D02*
D03*
Y-580400D02*
D03*
X158100Y-610400D02*
D03*
Y-580400D02*
D03*
X1195150Y-712610D02*
D03*
Y-609610D02*
D03*
Y-579610D02*
D03*
X58700Y-503000D02*
D03*
Y-533000D02*
D03*
X209700Y-503000D02*
D03*
Y-533000D02*
D03*
X1195150Y-420210D02*
D03*
Y-390210D02*
D03*
X1195150Y-368610D02*
D03*
Y-338610D02*
D03*
Y-317610D02*
D03*
Y-287610D02*
D03*
Y-265610D02*
D03*
Y-235610D02*
D03*
X1195150Y-212210D02*
D03*
Y-182210D02*
D03*
X1195150Y-160610D02*
D03*
Y-130610D02*
D03*
Y-109610D02*
D03*
Y-79610D02*
D03*
Y-57610D02*
D03*
Y-27610D02*
D03*
X754150Y-972210D02*
D03*
Y-942210D02*
D03*
X754150Y-920610D02*
D03*
Y-890610D02*
D03*
Y-869610D02*
D03*
Y-839610D02*
D03*
Y-817610D02*
D03*
Y-787610D02*
D03*
X754150Y-764210D02*
D03*
Y-734210D02*
D03*
X754150Y-712610D02*
D03*
Y-682610D02*
D03*
Y-661610D02*
D03*
Y-631610D02*
D03*
Y-609610D02*
D03*
Y-579610D02*
D03*
X754150Y-420210D02*
D03*
Y-390210D02*
D03*
X754150Y-368610D02*
D03*
Y-338610D02*
D03*
Y-317610D02*
D03*
Y-287610D02*
D03*
Y-265610D02*
D03*
Y-235610D02*
D03*
X754150Y-212210D02*
D03*
Y-182210D02*
D03*
X754150Y-160610D02*
D03*
Y-130610D02*
D03*
Y-109610D02*
D03*
Y-79610D02*
D03*
Y-57610D02*
D03*
Y-27610D02*
D03*
X1195150Y-764210D02*
D03*
Y-734210D02*
D03*
X1195150Y-682610D02*
D03*
Y-661610D02*
D03*
Y-631610D02*
D03*
X1195150Y-972210D02*
D03*
Y-942210D02*
D03*
X1195150Y-920610D02*
D03*
Y-890610D02*
D03*
Y-869610D02*
D03*
Y-839610D02*
D03*
Y-817610D02*
D03*
Y-787610D02*
D03*
D13*
X470600Y-102010D02*
D03*
X1027320Y-414010D02*
D03*
Y-400010D02*
D03*
Y-206010D02*
D03*
Y-192010D02*
D03*
X586320Y-966010D02*
D03*
Y-952010D02*
D03*
Y-758010D02*
D03*
Y-744010D02*
D03*
Y-414010D02*
D03*
Y-400010D02*
D03*
Y-206010D02*
D03*
Y-192010D02*
D03*
X1027320Y-758010D02*
D03*
Y-744010D02*
D03*
Y-966010D02*
D03*
Y-952010D02*
D03*
X1020400Y-242110D02*
D03*
Y-256110D02*
D03*
Y-34110D02*
D03*
Y-48110D02*
D03*
X911600Y-139710D02*
D03*
Y-153710D02*
D03*
Y-88010D02*
D03*
Y-102010D02*
D03*
X911600Y-36110D02*
D03*
Y-50110D02*
D03*
X911600Y-190010D02*
D03*
Y-204010D02*
D03*
X579400Y-794110D02*
D03*
Y-808110D02*
D03*
X470600Y-899710D02*
D03*
Y-913710D02*
D03*
Y-848010D02*
D03*
Y-862010D02*
D03*
X470600Y-796110D02*
D03*
Y-810110D02*
D03*
X470600Y-950010D02*
D03*
Y-964010D02*
D03*
X579400Y-586110D02*
D03*
Y-600110D02*
D03*
X470600Y-691710D02*
D03*
Y-705710D02*
D03*
Y-640010D02*
D03*
X579400Y-242110D02*
D03*
Y-256110D02*
D03*
X470600Y-347710D02*
D03*
Y-361710D02*
D03*
Y-296010D02*
D03*
Y-310010D02*
D03*
X470600Y-244110D02*
D03*
Y-258110D02*
D03*
X470600Y-398010D02*
D03*
Y-412010D02*
D03*
X579400Y-34110D02*
D03*
Y-48110D02*
D03*
X470600Y-139710D02*
D03*
Y-153710D02*
D03*
Y-88010D02*
D03*
X470600Y-36110D02*
D03*
Y-50110D02*
D03*
X1020400Y-586110D02*
D03*
Y-600110D02*
D03*
X911600Y-691710D02*
D03*
Y-705710D02*
D03*
Y-640010D02*
D03*
Y-654010D02*
D03*
X911600Y-588110D02*
D03*
Y-602110D02*
D03*
X911600Y-742010D02*
D03*
Y-756010D02*
D03*
X1020400Y-794110D02*
D03*
Y-808110D02*
D03*
X911600Y-899710D02*
D03*
Y-913710D02*
D03*
Y-848010D02*
D03*
Y-862010D02*
D03*
X911600Y-796110D02*
D03*
Y-810110D02*
D03*
X911600Y-950010D02*
D03*
Y-964010D02*
D03*
X911600Y-244110D02*
D03*
Y-258110D02*
D03*
X911600Y-296010D02*
D03*
Y-310010D02*
D03*
Y-347710D02*
D03*
Y-361710D02*
D03*
Y-398010D02*
D03*
Y-412010D02*
D03*
X470600Y-190010D02*
D03*
Y-204010D02*
D03*
X470600Y-588110D02*
D03*
Y-602110D02*
D03*
X470600Y-654010D02*
D03*
Y-742010D02*
D03*
Y-756010D02*
D03*
D14*
X1057820Y-416260D02*
D03*
X1044820D02*
D03*
Y-395760D02*
D03*
X1051320D02*
D03*
X1057820D02*
D03*
Y-208260D02*
D03*
X1044820D02*
D03*
Y-187760D02*
D03*
X1051320D02*
D03*
X1057820D02*
D03*
X616820Y-968260D02*
D03*
X603820D02*
D03*
Y-947760D02*
D03*
X610320D02*
D03*
X616820D02*
D03*
Y-760260D02*
D03*
X603820D02*
D03*
Y-739760D02*
D03*
X610320D02*
D03*
X616820D02*
D03*
Y-416260D02*
D03*
X603820D02*
D03*
Y-395760D02*
D03*
X610320D02*
D03*
X616820D02*
D03*
Y-208260D02*
D03*
X603820D02*
D03*
Y-187760D02*
D03*
X610320D02*
D03*
X616820D02*
D03*
X1057820Y-760260D02*
D03*
X1044820D02*
D03*
Y-739760D02*
D03*
X1051320D02*
D03*
X1057820D02*
D03*
Y-968260D02*
D03*
X1044820D02*
D03*
Y-947760D02*
D03*
X1051320D02*
D03*
X1057820D02*
D03*
D15*
X77200Y-933600D02*
D03*
Y-917600D02*
D03*
D16*
X941410Y-396610D02*
D03*
X927410D02*
D03*
X927410Y-362610D02*
D03*
X941410D02*
D03*
X941410Y-345610D02*
D03*
X927410D02*
D03*
X927410Y-311310D02*
D03*
X941410D02*
D03*
X941410Y-294610D02*
D03*
X927410D02*
D03*
X927410Y-259809D02*
D03*
X941410D02*
D03*
X941410Y-242811D02*
D03*
X927410D02*
D03*
X927410Y-413610D02*
D03*
X941410D02*
D03*
X941410Y-188610D02*
D03*
X927410D02*
D03*
X927410Y-154610D02*
D03*
X941410D02*
D03*
X941410Y-137610D02*
D03*
X927410D02*
D03*
X927410Y-103310D02*
D03*
X941410D02*
D03*
X941410Y-86610D02*
D03*
X927410D02*
D03*
X927410Y-51809D02*
D03*
X941410D02*
D03*
X941410Y-34811D02*
D03*
X927410D02*
D03*
X927410Y-205610D02*
D03*
X941410D02*
D03*
X500410Y-948610D02*
D03*
X486410D02*
D03*
X486410Y-914610D02*
D03*
X500410D02*
D03*
X500410Y-897610D02*
D03*
X486410D02*
D03*
X486410Y-863310D02*
D03*
X500410D02*
D03*
X500410Y-846610D02*
D03*
X486410D02*
D03*
X486410Y-811809D02*
D03*
X500410D02*
D03*
X500410Y-794811D02*
D03*
X486410D02*
D03*
X486410Y-965610D02*
D03*
X500410D02*
D03*
X500410Y-740610D02*
D03*
X486410D02*
D03*
X486410Y-706610D02*
D03*
X500410D02*
D03*
X500410Y-689610D02*
D03*
X486410D02*
D03*
X486410Y-655310D02*
D03*
X500410D02*
D03*
X500410Y-638610D02*
D03*
X486410D02*
D03*
X486410Y-603809D02*
D03*
X500410D02*
D03*
X500410Y-586811D02*
D03*
X486410D02*
D03*
X486410Y-757610D02*
D03*
X500410D02*
D03*
X500410Y-396610D02*
D03*
X486410D02*
D03*
X486410Y-362610D02*
D03*
X500410D02*
D03*
X500410Y-345610D02*
D03*
X486410D02*
D03*
X486410Y-311310D02*
D03*
X500410D02*
D03*
X500410Y-294610D02*
D03*
X486410D02*
D03*
X486410Y-259809D02*
D03*
X500410D02*
D03*
X500410Y-242811D02*
D03*
X486410D02*
D03*
X486410Y-413610D02*
D03*
X500410D02*
D03*
X500410Y-188610D02*
D03*
X486410D02*
D03*
X486410Y-154610D02*
D03*
X500410D02*
D03*
X500410Y-137610D02*
D03*
X486410D02*
D03*
X486410Y-103310D02*
D03*
X500410D02*
D03*
X500410Y-86610D02*
D03*
X486410D02*
D03*
X486410Y-51809D02*
D03*
X500410D02*
D03*
X500410Y-34811D02*
D03*
X486410D02*
D03*
X486410Y-205610D02*
D03*
X500410D02*
D03*
X941410Y-740610D02*
D03*
X927410D02*
D03*
X927410Y-706610D02*
D03*
X941410D02*
D03*
X941410Y-689610D02*
D03*
X927410D02*
D03*
X927410Y-655310D02*
D03*
X941410D02*
D03*
X941410Y-638610D02*
D03*
X927410D02*
D03*
X927410Y-603809D02*
D03*
X941410D02*
D03*
X941410Y-586811D02*
D03*
X927410D02*
D03*
X927410Y-757610D02*
D03*
X941410D02*
D03*
X941410Y-948610D02*
D03*
X927410D02*
D03*
X927410Y-914610D02*
D03*
X941410D02*
D03*
X941410Y-897610D02*
D03*
X927410D02*
D03*
X927410Y-863310D02*
D03*
X941410D02*
D03*
X941410Y-846610D02*
D03*
X927410D02*
D03*
X927410Y-811809D02*
D03*
X941410D02*
D03*
X941410Y-794811D02*
D03*
X927410D02*
D03*
X927410Y-965610D02*
D03*
X941410D02*
D03*
D17*
X1110900Y-413610D02*
D03*
X1126900D02*
D03*
X977900D02*
D03*
X961900D02*
D03*
X1165900D02*
D03*
X1149900D02*
D03*
X1165900Y-396610D02*
D03*
X1149900D02*
D03*
X977900D02*
D03*
X961900D02*
D03*
X1126900D02*
D03*
X1110900D02*
D03*
X1110900Y-362610D02*
D03*
X1126900D02*
D03*
X977900D02*
D03*
X961900D02*
D03*
X1165850D02*
D03*
X1149850D02*
D03*
X1165900Y-345610D02*
D03*
X1149900D02*
D03*
X977900D02*
D03*
X961900D02*
D03*
X1126900D02*
D03*
X1110900D02*
D03*
X1110900Y-311310D02*
D03*
X1126900D02*
D03*
X977900D02*
D03*
X961900D02*
D03*
X1165900D02*
D03*
X1149900D02*
D03*
X1165900Y-294610D02*
D03*
X1149900D02*
D03*
X977900D02*
D03*
X961900D02*
D03*
X1126900D02*
D03*
X1110900D02*
D03*
X1110900Y-259809D02*
D03*
X1126900D02*
D03*
X977900D02*
D03*
X961900D02*
D03*
X1165900D02*
D03*
X1149900D02*
D03*
X1165850Y-242811D02*
D03*
X1149850D02*
D03*
X977900D02*
D03*
X961900D02*
D03*
X1126850D02*
D03*
X1110850D02*
D03*
X1110900Y-205610D02*
D03*
X1126900D02*
D03*
X977900D02*
D03*
X961900D02*
D03*
X1165900D02*
D03*
X1149900D02*
D03*
X1165900Y-188610D02*
D03*
X1149900D02*
D03*
X977900D02*
D03*
X961900D02*
D03*
X1126900D02*
D03*
X1110900D02*
D03*
X1110900Y-154610D02*
D03*
X1126900D02*
D03*
X977900D02*
D03*
X961900D02*
D03*
X1165850D02*
D03*
X1149850D02*
D03*
X1165900Y-137610D02*
D03*
X1149900D02*
D03*
X977900D02*
D03*
X961900D02*
D03*
X1126900D02*
D03*
X1110900D02*
D03*
X1110900Y-103310D02*
D03*
X1126900D02*
D03*
X977900D02*
D03*
X961900D02*
D03*
X1165900D02*
D03*
X1149900D02*
D03*
X1165900Y-86610D02*
D03*
X1149900D02*
D03*
X977900D02*
D03*
X961900D02*
D03*
X1126900D02*
D03*
X1110900D02*
D03*
X1110900Y-51809D02*
D03*
X1126900D02*
D03*
X977900D02*
D03*
X961900D02*
D03*
X1165900D02*
D03*
X1149900D02*
D03*
X1165850Y-34811D02*
D03*
X1149850D02*
D03*
X977900D02*
D03*
X961900D02*
D03*
X1126850D02*
D03*
X1110850D02*
D03*
X669900Y-965610D02*
D03*
X685900D02*
D03*
X536900D02*
D03*
X520900D02*
D03*
X724900D02*
D03*
X708900D02*
D03*
X724900Y-948610D02*
D03*
X708900D02*
D03*
X536900D02*
D03*
X520900D02*
D03*
X685900D02*
D03*
X669900D02*
D03*
X669900Y-914610D02*
D03*
X685900D02*
D03*
X536900D02*
D03*
X520900D02*
D03*
X724850D02*
D03*
X708850D02*
D03*
X724900Y-897610D02*
D03*
X708900D02*
D03*
X536900D02*
D03*
X520900D02*
D03*
X685900D02*
D03*
X669900D02*
D03*
X669900Y-863310D02*
D03*
X685900D02*
D03*
X536900D02*
D03*
X520900D02*
D03*
X724900D02*
D03*
X708900D02*
D03*
X724900Y-846610D02*
D03*
X708900D02*
D03*
X536900D02*
D03*
X520900D02*
D03*
X685900D02*
D03*
X669900D02*
D03*
X669900Y-811809D02*
D03*
X685900D02*
D03*
X536900D02*
D03*
X520900D02*
D03*
X724900D02*
D03*
X708900D02*
D03*
X724850Y-794811D02*
D03*
X708850D02*
D03*
X536900D02*
D03*
X520900D02*
D03*
X685850D02*
D03*
X669850D02*
D03*
X669900Y-757610D02*
D03*
X685900D02*
D03*
X536900D02*
D03*
X520900D02*
D03*
X724900D02*
D03*
X708900D02*
D03*
X724900Y-740610D02*
D03*
X708900D02*
D03*
X536900D02*
D03*
X520900D02*
D03*
X685900D02*
D03*
X669900D02*
D03*
X669900Y-706610D02*
D03*
X685900D02*
D03*
X536900D02*
D03*
X520900D02*
D03*
X724850D02*
D03*
X708850D02*
D03*
X724900Y-689610D02*
D03*
X708900D02*
D03*
X536900D02*
D03*
X520900D02*
D03*
X685900D02*
D03*
X669900D02*
D03*
X669900Y-655310D02*
D03*
X685900D02*
D03*
X536900D02*
D03*
X520900D02*
D03*
X724900D02*
D03*
X708900D02*
D03*
X724900Y-638610D02*
D03*
X708900D02*
D03*
X536900D02*
D03*
X520900D02*
D03*
X685900D02*
D03*
X669900D02*
D03*
X669900Y-603809D02*
D03*
X685900D02*
D03*
X536900D02*
D03*
X520900D02*
D03*
X724900D02*
D03*
X708900D02*
D03*
X724850Y-586811D02*
D03*
X708850D02*
D03*
X536900D02*
D03*
X520900D02*
D03*
X685850D02*
D03*
X669850D02*
D03*
X669900Y-413610D02*
D03*
X685900D02*
D03*
X536900D02*
D03*
X520900D02*
D03*
X724900D02*
D03*
X708900D02*
D03*
X724900Y-396610D02*
D03*
X708900D02*
D03*
X536900D02*
D03*
X520900D02*
D03*
X685900D02*
D03*
X669900D02*
D03*
X669900Y-362610D02*
D03*
X685900D02*
D03*
X536900D02*
D03*
X520900D02*
D03*
X724850D02*
D03*
X708850D02*
D03*
X724900Y-345610D02*
D03*
X708900D02*
D03*
X536900D02*
D03*
X520900D02*
D03*
X685900D02*
D03*
X669900D02*
D03*
X669900Y-311310D02*
D03*
X685900D02*
D03*
X536900D02*
D03*
X520900D02*
D03*
X724900D02*
D03*
X708900D02*
D03*
X724900Y-294610D02*
D03*
X708900D02*
D03*
X536900D02*
D03*
X520900D02*
D03*
X685900D02*
D03*
X669900D02*
D03*
X669900Y-259809D02*
D03*
X685900D02*
D03*
X536900D02*
D03*
X520900D02*
D03*
X724900D02*
D03*
X708900D02*
D03*
X724850Y-242811D02*
D03*
X708850D02*
D03*
X536900D02*
D03*
X520900D02*
D03*
X685850D02*
D03*
X669850D02*
D03*
X669900Y-205610D02*
D03*
X685900D02*
D03*
X536900D02*
D03*
X520900D02*
D03*
X724900D02*
D03*
X708900D02*
D03*
X724900Y-188610D02*
D03*
X708900D02*
D03*
X536900D02*
D03*
X520900D02*
D03*
X685900D02*
D03*
X669900D02*
D03*
X669900Y-154610D02*
D03*
X685900D02*
D03*
X536900D02*
D03*
X520900D02*
D03*
X724850D02*
D03*
X708850D02*
D03*
X724900Y-137610D02*
D03*
X708900D02*
D03*
X536900D02*
D03*
X520900D02*
D03*
X685900D02*
D03*
X669900D02*
D03*
X669900Y-103310D02*
D03*
X685900D02*
D03*
X536900D02*
D03*
X520900D02*
D03*
X724900D02*
D03*
X708900D02*
D03*
X724900Y-86610D02*
D03*
X708900D02*
D03*
X536900D02*
D03*
X520900D02*
D03*
X685900D02*
D03*
X669900D02*
D03*
X669900Y-51809D02*
D03*
X685900D02*
D03*
X536900D02*
D03*
X520900D02*
D03*
X724900D02*
D03*
X708900D02*
D03*
X724850Y-34811D02*
D03*
X708850D02*
D03*
X536900D02*
D03*
X520900D02*
D03*
X685850D02*
D03*
X669850D02*
D03*
X1110900Y-757610D02*
D03*
X1126900D02*
D03*
X977900D02*
D03*
X961900D02*
D03*
X1165900D02*
D03*
X1149900D02*
D03*
X1165900Y-740610D02*
D03*
X1149900D02*
D03*
X977900D02*
D03*
X961900D02*
D03*
X1126900D02*
D03*
X1110900D02*
D03*
X1110900Y-706610D02*
D03*
X1126900D02*
D03*
X977900D02*
D03*
X961900D02*
D03*
X1165850D02*
D03*
X1149850D02*
D03*
X1165900Y-689610D02*
D03*
X1149900D02*
D03*
X977900D02*
D03*
X961900D02*
D03*
X1126900D02*
D03*
X1110900D02*
D03*
X1110900Y-655310D02*
D03*
X1126900D02*
D03*
X977900D02*
D03*
X961900D02*
D03*
X1165900D02*
D03*
X1149900D02*
D03*
X1165900Y-638610D02*
D03*
X1149900D02*
D03*
X977900D02*
D03*
X961900D02*
D03*
X1126900D02*
D03*
X1110900D02*
D03*
X1110900Y-603809D02*
D03*
X1126900D02*
D03*
X977900D02*
D03*
X961900D02*
D03*
X1165900D02*
D03*
X1149900D02*
D03*
X1165850Y-586811D02*
D03*
X1149850D02*
D03*
X977900D02*
D03*
X961900D02*
D03*
X1126850D02*
D03*
X1110850D02*
D03*
X1110900Y-965610D02*
D03*
X1126900D02*
D03*
X977900D02*
D03*
X961900D02*
D03*
X1165900D02*
D03*
X1149900D02*
D03*
X1165900Y-948610D02*
D03*
X1149900D02*
D03*
X977900D02*
D03*
X961900D02*
D03*
X1126900D02*
D03*
X1110900D02*
D03*
X1110900Y-914610D02*
D03*
X1126900D02*
D03*
X977900D02*
D03*
X961900D02*
D03*
X1165850D02*
D03*
X1149850D02*
D03*
X1165900Y-897610D02*
D03*
X1149900D02*
D03*
X977900D02*
D03*
X961900D02*
D03*
X1126900D02*
D03*
X1110900D02*
D03*
X1110900Y-863310D02*
D03*
X1126900D02*
D03*
X977900D02*
D03*
X961900D02*
D03*
X1165900D02*
D03*
X1149900D02*
D03*
X1165900Y-846610D02*
D03*
X1149900D02*
D03*
X977900D02*
D03*
X961900D02*
D03*
X1126900D02*
D03*
X1110900D02*
D03*
X1110900Y-811809D02*
D03*
X1126900D02*
D03*
X977900D02*
D03*
X961900D02*
D03*
X1165900D02*
D03*
X1149900D02*
D03*
X1165850Y-794811D02*
D03*
X1149850D02*
D03*
X977900D02*
D03*
X961900D02*
D03*
X1126850D02*
D03*
X1110850D02*
D03*
D18*
X1075400Y-364610D02*
D03*
Y-359610D02*
D03*
Y-354610D02*
D03*
Y-349610D02*
D03*
Y-344610D02*
D03*
Y-339610D02*
D03*
Y-334610D02*
D03*
Y-329610D02*
D03*
Y-324610D02*
D03*
Y-319610D02*
D03*
Y-314610D02*
D03*
Y-309610D02*
D03*
Y-304610D02*
D03*
Y-299610D02*
D03*
Y-294610D02*
D03*
Y-289610D02*
D03*
Y-284610D02*
D03*
Y-279610D02*
D03*
Y-274610D02*
D03*
X1020400Y-364610D02*
D03*
Y-359610D02*
D03*
Y-354610D02*
D03*
Y-349610D02*
D03*
Y-344610D02*
D03*
Y-339610D02*
D03*
Y-334610D02*
D03*
Y-329610D02*
D03*
Y-324610D02*
D03*
Y-319610D02*
D03*
Y-314610D02*
D03*
Y-309610D02*
D03*
Y-304610D02*
D03*
Y-299610D02*
D03*
Y-294610D02*
D03*
Y-289610D02*
D03*
Y-284610D02*
D03*
Y-279610D02*
D03*
Y-274610D02*
D03*
X1075400Y-156610D02*
D03*
Y-151610D02*
D03*
Y-146610D02*
D03*
Y-141610D02*
D03*
Y-136610D02*
D03*
Y-131610D02*
D03*
Y-126610D02*
D03*
Y-121610D02*
D03*
Y-116610D02*
D03*
Y-111610D02*
D03*
Y-106610D02*
D03*
Y-101610D02*
D03*
Y-96610D02*
D03*
Y-91610D02*
D03*
Y-86610D02*
D03*
Y-81610D02*
D03*
Y-76610D02*
D03*
Y-71610D02*
D03*
Y-66610D02*
D03*
X1020400Y-156610D02*
D03*
Y-151610D02*
D03*
Y-146610D02*
D03*
Y-141610D02*
D03*
Y-136610D02*
D03*
Y-131610D02*
D03*
Y-126610D02*
D03*
Y-121610D02*
D03*
Y-116610D02*
D03*
Y-111610D02*
D03*
Y-106610D02*
D03*
Y-101610D02*
D03*
Y-96610D02*
D03*
Y-91610D02*
D03*
Y-86610D02*
D03*
Y-81610D02*
D03*
Y-76610D02*
D03*
Y-71610D02*
D03*
Y-66610D02*
D03*
X634400Y-916610D02*
D03*
Y-911610D02*
D03*
Y-906610D02*
D03*
Y-901610D02*
D03*
Y-896610D02*
D03*
Y-891610D02*
D03*
Y-886610D02*
D03*
Y-881610D02*
D03*
Y-876610D02*
D03*
Y-871610D02*
D03*
Y-866610D02*
D03*
Y-861610D02*
D03*
Y-856610D02*
D03*
Y-851610D02*
D03*
Y-846610D02*
D03*
Y-841610D02*
D03*
Y-836610D02*
D03*
Y-831610D02*
D03*
Y-826610D02*
D03*
X579400Y-916610D02*
D03*
Y-911610D02*
D03*
Y-906610D02*
D03*
Y-901610D02*
D03*
Y-896610D02*
D03*
Y-891610D02*
D03*
Y-886610D02*
D03*
Y-881610D02*
D03*
Y-876610D02*
D03*
Y-871610D02*
D03*
Y-866610D02*
D03*
Y-861610D02*
D03*
Y-856610D02*
D03*
Y-851610D02*
D03*
Y-846610D02*
D03*
Y-841610D02*
D03*
Y-836610D02*
D03*
Y-831610D02*
D03*
Y-826610D02*
D03*
X634400Y-708610D02*
D03*
Y-703610D02*
D03*
Y-698610D02*
D03*
Y-693610D02*
D03*
Y-688610D02*
D03*
Y-683610D02*
D03*
Y-678610D02*
D03*
Y-673610D02*
D03*
Y-668610D02*
D03*
Y-663610D02*
D03*
Y-658610D02*
D03*
Y-653610D02*
D03*
Y-648610D02*
D03*
Y-643610D02*
D03*
Y-638610D02*
D03*
Y-633610D02*
D03*
Y-628610D02*
D03*
Y-623610D02*
D03*
Y-618610D02*
D03*
X579400Y-708610D02*
D03*
Y-703610D02*
D03*
Y-698610D02*
D03*
Y-693610D02*
D03*
Y-688610D02*
D03*
Y-683610D02*
D03*
Y-678610D02*
D03*
Y-673610D02*
D03*
Y-668610D02*
D03*
Y-663610D02*
D03*
Y-658610D02*
D03*
Y-653610D02*
D03*
Y-648610D02*
D03*
Y-643610D02*
D03*
Y-638610D02*
D03*
Y-633610D02*
D03*
Y-628610D02*
D03*
Y-623610D02*
D03*
Y-618610D02*
D03*
X634400Y-364610D02*
D03*
Y-359610D02*
D03*
Y-354610D02*
D03*
Y-349610D02*
D03*
Y-344610D02*
D03*
Y-339610D02*
D03*
Y-334610D02*
D03*
Y-329610D02*
D03*
Y-324610D02*
D03*
Y-319610D02*
D03*
Y-314610D02*
D03*
Y-309610D02*
D03*
Y-304610D02*
D03*
Y-299610D02*
D03*
Y-294610D02*
D03*
Y-289610D02*
D03*
Y-284610D02*
D03*
Y-279610D02*
D03*
Y-274610D02*
D03*
X579400Y-364610D02*
D03*
Y-359610D02*
D03*
Y-354610D02*
D03*
Y-349610D02*
D03*
Y-344610D02*
D03*
Y-339610D02*
D03*
Y-334610D02*
D03*
Y-329610D02*
D03*
Y-324610D02*
D03*
Y-319610D02*
D03*
Y-314610D02*
D03*
Y-309610D02*
D03*
Y-304610D02*
D03*
Y-299610D02*
D03*
Y-294610D02*
D03*
Y-289610D02*
D03*
Y-284610D02*
D03*
Y-279610D02*
D03*
Y-274610D02*
D03*
X634400Y-156610D02*
D03*
Y-151610D02*
D03*
Y-146610D02*
D03*
Y-141610D02*
D03*
Y-136610D02*
D03*
Y-131610D02*
D03*
Y-126610D02*
D03*
Y-121610D02*
D03*
Y-116610D02*
D03*
Y-111610D02*
D03*
Y-106610D02*
D03*
Y-101610D02*
D03*
Y-96610D02*
D03*
Y-91610D02*
D03*
Y-86610D02*
D03*
Y-81610D02*
D03*
Y-76610D02*
D03*
Y-71610D02*
D03*
Y-66610D02*
D03*
X579400Y-156610D02*
D03*
Y-151610D02*
D03*
Y-146610D02*
D03*
Y-141610D02*
D03*
Y-136610D02*
D03*
Y-131610D02*
D03*
Y-126610D02*
D03*
Y-121610D02*
D03*
Y-116610D02*
D03*
Y-111610D02*
D03*
Y-106610D02*
D03*
Y-101610D02*
D03*
Y-96610D02*
D03*
Y-91610D02*
D03*
Y-86610D02*
D03*
Y-81610D02*
D03*
Y-76610D02*
D03*
Y-71610D02*
D03*
Y-66610D02*
D03*
X1075400Y-708610D02*
D03*
Y-703610D02*
D03*
Y-698610D02*
D03*
Y-693610D02*
D03*
Y-688610D02*
D03*
Y-683610D02*
D03*
Y-678610D02*
D03*
Y-673610D02*
D03*
Y-668610D02*
D03*
Y-663610D02*
D03*
Y-658610D02*
D03*
Y-653610D02*
D03*
Y-648610D02*
D03*
Y-643610D02*
D03*
Y-638610D02*
D03*
Y-633610D02*
D03*
Y-628610D02*
D03*
Y-623610D02*
D03*
Y-618610D02*
D03*
X1020400Y-708610D02*
D03*
Y-703610D02*
D03*
Y-698610D02*
D03*
Y-693610D02*
D03*
Y-688610D02*
D03*
Y-683610D02*
D03*
Y-678610D02*
D03*
Y-673610D02*
D03*
Y-668610D02*
D03*
Y-663610D02*
D03*
Y-658610D02*
D03*
Y-653610D02*
D03*
Y-648610D02*
D03*
Y-643610D02*
D03*
Y-638610D02*
D03*
Y-633610D02*
D03*
Y-628610D02*
D03*
Y-623610D02*
D03*
Y-618610D02*
D03*
X1075400Y-916610D02*
D03*
Y-911610D02*
D03*
Y-906610D02*
D03*
Y-901610D02*
D03*
Y-896610D02*
D03*
Y-891610D02*
D03*
Y-886610D02*
D03*
Y-881610D02*
D03*
Y-876610D02*
D03*
Y-871610D02*
D03*
Y-866610D02*
D03*
Y-861610D02*
D03*
Y-856610D02*
D03*
Y-851610D02*
D03*
Y-846610D02*
D03*
Y-841610D02*
D03*
Y-836610D02*
D03*
Y-831610D02*
D03*
Y-826610D02*
D03*
X1020400Y-916610D02*
D03*
Y-911610D02*
D03*
Y-906610D02*
D03*
Y-901610D02*
D03*
Y-896610D02*
D03*
Y-891610D02*
D03*
Y-886610D02*
D03*
Y-881610D02*
D03*
Y-876610D02*
D03*
Y-871610D02*
D03*
Y-866610D02*
D03*
Y-861610D02*
D03*
Y-856610D02*
D03*
Y-851610D02*
D03*
Y-846610D02*
D03*
Y-841610D02*
D03*
Y-836610D02*
D03*
Y-831610D02*
D03*
Y-826610D02*
D03*
D24*
X1269003Y-715900D02*
D03*
X1360188Y-754000D02*
D03*
X1334789Y-741300D02*
D03*
X1360188Y-728600D02*
D03*
X1334789Y-715900D02*
D03*
X1360188Y-703200D02*
D03*
X1334789Y-690500D02*
D03*
X1360188Y-677800D02*
D03*
X1334789Y-665100D02*
D03*
Y-525400D02*
D03*
X1360188Y-538100D02*
D03*
X1334789Y-550800D02*
D03*
X1360188Y-563500D02*
D03*
X1334789Y-576200D02*
D03*
X1360188Y-588900D02*
D03*
X1334789Y-601600D02*
D03*
X1360188Y-614300D02*
D03*
X1334789Y-385700D02*
D03*
X1360188Y-398400D02*
D03*
X1334789Y-411100D02*
D03*
X1360188Y-423800D02*
D03*
X1334789Y-436500D02*
D03*
X1360188Y-449200D02*
D03*
X1334789Y-461900D02*
D03*
X1360188Y-474600D02*
D03*
X1334789Y-246000D02*
D03*
X1360188Y-258700D02*
D03*
X1334789Y-271400D02*
D03*
X1360188Y-284100D02*
D03*
X1334789Y-296800D02*
D03*
X1360188Y-309500D02*
D03*
X1334789Y-322200D02*
D03*
X1360188Y-334900D02*
D03*
X1294402D02*
D03*
X1269003Y-322200D02*
D03*
X1294402Y-309500D02*
D03*
X1269003Y-296800D02*
D03*
X1294402Y-284100D02*
D03*
X1269003Y-271400D02*
D03*
X1294402Y-258700D02*
D03*
X1269003Y-246000D02*
D03*
X1294402Y-474600D02*
D03*
X1269003Y-461900D02*
D03*
X1294402Y-449200D02*
D03*
X1269003Y-436500D02*
D03*
X1294402Y-423800D02*
D03*
X1269003Y-411100D02*
D03*
X1294402Y-398400D02*
D03*
X1269003Y-385700D02*
D03*
X1294402Y-614300D02*
D03*
X1269003Y-601600D02*
D03*
X1294402Y-588900D02*
D03*
X1269003Y-576200D02*
D03*
X1294402Y-563500D02*
D03*
X1269003Y-550800D02*
D03*
X1294402Y-538100D02*
D03*
X1269003Y-525400D02*
D03*
Y-665100D02*
D03*
X1294402Y-677800D02*
D03*
X1269003Y-690500D02*
D03*
X1294402Y-703200D02*
D03*
Y-728600D02*
D03*
X1269003Y-741300D02*
D03*
X1294402Y-754000D02*
D03*
D25*
X110500Y-503200D02*
D03*
X135900D02*
D03*
X161300D02*
D03*
D26*
X1469409Y-205360D02*
D03*
X1365014Y-218568D02*
D03*
X1309897Y-205360D02*
D03*
X1269003Y-794640D02*
D03*
X1332249Y-788036D02*
D03*
X1469409Y-794640D02*
D03*
D27*
X1423689Y-233300D02*
D03*
Y-766700D02*
D03*
D28*
X262150Y-811150D02*
D03*
D29*
Y-798450D02*
D03*
Y-785750D02*
D03*
Y-773050D02*
D03*
Y-760350D02*
D03*
Y-747650D02*
D03*
Y-734950D02*
D03*
Y-722250D02*
D03*
Y-709550D02*
D03*
Y-696850D02*
D03*
Y-684150D02*
D03*
Y-671450D02*
D03*
Y-658750D02*
D03*
Y-646050D02*
D03*
Y-633350D02*
D03*
Y-620650D02*
D03*
Y-607950D02*
D03*
Y-595250D02*
D03*
Y-582550D02*
D03*
Y-569850D02*
D03*
Y-557150D02*
D03*
Y-544450D02*
D03*
Y-531750D02*
D03*
Y-519050D02*
D03*
Y-506350D02*
D03*
Y-493650D02*
D03*
Y-480950D02*
D03*
Y-468250D02*
D03*
Y-455550D02*
D03*
Y-442850D02*
D03*
Y-430150D02*
D03*
Y-417450D02*
D03*
Y-404750D02*
D03*
Y-392050D02*
D03*
Y-379350D02*
D03*
Y-366650D02*
D03*
Y-353950D02*
D03*
Y-341250D02*
D03*
Y-328550D02*
D03*
Y-315850D02*
D03*
Y-303150D02*
D03*
Y-290450D02*
D03*
Y-277750D02*
D03*
Y-265050D02*
D03*
Y-252350D02*
D03*
Y-239650D02*
D03*
Y-226950D02*
D03*
Y-214250D02*
D03*
Y-201550D02*
D03*
Y-188850D02*
D03*
X287550Y-811150D02*
D03*
Y-798450D02*
D03*
Y-785750D02*
D03*
Y-773050D02*
D03*
Y-760350D02*
D03*
Y-747650D02*
D03*
Y-734950D02*
D03*
Y-722250D02*
D03*
Y-709550D02*
D03*
Y-696850D02*
D03*
Y-684150D02*
D03*
Y-671450D02*
D03*
Y-658750D02*
D03*
Y-646050D02*
D03*
Y-633350D02*
D03*
Y-620650D02*
D03*
Y-607950D02*
D03*
Y-595250D02*
D03*
Y-582550D02*
D03*
Y-569850D02*
D03*
Y-557150D02*
D03*
Y-544450D02*
D03*
Y-531750D02*
D03*
Y-519050D02*
D03*
Y-506350D02*
D03*
Y-493650D02*
D03*
Y-480950D02*
D03*
Y-468250D02*
D03*
Y-455550D02*
D03*
Y-442850D02*
D03*
Y-430150D02*
D03*
Y-417450D02*
D03*
Y-404750D02*
D03*
Y-392050D02*
D03*
Y-379350D02*
D03*
Y-366650D02*
D03*
Y-353950D02*
D03*
Y-341250D02*
D03*
Y-328550D02*
D03*
Y-315850D02*
D03*
Y-303150D02*
D03*
Y-290450D02*
D03*
Y-277750D02*
D03*
Y-265050D02*
D03*
Y-252350D02*
D03*
Y-239650D02*
D03*
Y-226950D02*
D03*
Y-214250D02*
D03*
Y-201550D02*
D03*
Y-188850D02*
D03*
M02*
