G04 Layer_Color=255*
%FSLAX44Y44*%
%MOMM*%
G71*
G01*
G75*
%ADD12R,2.1000X1.2000*%
%ADD16R,0.8000X1.2000*%
%ADD24C,1.5240*%
%ADD25C,1.6000*%
%ADD26C,2.0828*%
%ADD27C,3.9370*%
%ADD28R,0.8900X0.8900*%
%ADD29C,0.8900*%
D12*
X1195150Y-787610D02*
D03*
Y-817610D02*
D03*
Y-839610D02*
D03*
Y-869610D02*
D03*
Y-890610D02*
D03*
Y-920610D02*
D03*
X1195150Y-942210D02*
D03*
Y-972210D02*
D03*
X754150Y-787610D02*
D03*
Y-817610D02*
D03*
Y-839610D02*
D03*
Y-869610D02*
D03*
Y-890610D02*
D03*
Y-920610D02*
D03*
X754150Y-942210D02*
D03*
Y-972210D02*
D03*
X1195150Y-579610D02*
D03*
Y-609610D02*
D03*
Y-631610D02*
D03*
Y-661610D02*
D03*
Y-682610D02*
D03*
Y-712610D02*
D03*
X1195150Y-734210D02*
D03*
Y-764210D02*
D03*
X754150Y-27610D02*
D03*
Y-57610D02*
D03*
Y-79610D02*
D03*
Y-109610D02*
D03*
Y-130610D02*
D03*
Y-160610D02*
D03*
X754150Y-182210D02*
D03*
Y-212210D02*
D03*
X754150Y-235610D02*
D03*
Y-265610D02*
D03*
Y-287610D02*
D03*
Y-317610D02*
D03*
Y-338610D02*
D03*
Y-368610D02*
D03*
X754150Y-390210D02*
D03*
Y-420210D02*
D03*
X754150Y-579610D02*
D03*
Y-609610D02*
D03*
Y-631610D02*
D03*
Y-661610D02*
D03*
Y-682610D02*
D03*
Y-712610D02*
D03*
X754150Y-734210D02*
D03*
Y-764210D02*
D03*
X1195150Y-27610D02*
D03*
Y-57610D02*
D03*
Y-79610D02*
D03*
Y-109610D02*
D03*
Y-130610D02*
D03*
Y-160610D02*
D03*
X1195150Y-182210D02*
D03*
Y-212210D02*
D03*
X1195150Y-235610D02*
D03*
Y-265610D02*
D03*
Y-287610D02*
D03*
Y-317610D02*
D03*
Y-338610D02*
D03*
Y-368610D02*
D03*
X1195150Y-390210D02*
D03*
Y-420210D02*
D03*
D16*
X1106450Y-264710D02*
D03*
X1120450D02*
D03*
X1106450Y-349610D02*
D03*
X1120450D02*
D03*
X1106550Y-299510D02*
D03*
X1120550D02*
D03*
X965000Y-354010D02*
D03*
X979000D02*
D03*
X965000Y-329310D02*
D03*
X979000D02*
D03*
X965000Y-302810D02*
D03*
X979000D02*
D03*
X1106550Y-324510D02*
D03*
X1120550D02*
D03*
X1106450Y-56710D02*
D03*
X1120450D02*
D03*
X1106450Y-141610D02*
D03*
X1120450D02*
D03*
X1106550Y-91510D02*
D03*
X1120550D02*
D03*
X965000Y-146010D02*
D03*
X979000D02*
D03*
X965000Y-121310D02*
D03*
X979000D02*
D03*
X965000Y-94810D02*
D03*
X979000D02*
D03*
X1106550Y-116510D02*
D03*
X1120550D02*
D03*
X665450Y-816710D02*
D03*
X679450D02*
D03*
X665450Y-901610D02*
D03*
X679450D02*
D03*
X665550Y-851510D02*
D03*
X679550D02*
D03*
X524000Y-906010D02*
D03*
X538000D02*
D03*
X524000Y-881310D02*
D03*
X538000D02*
D03*
X524000Y-854810D02*
D03*
X538000D02*
D03*
X665550Y-876510D02*
D03*
X679550D02*
D03*
X665450Y-608710D02*
D03*
X679450D02*
D03*
X665450Y-693610D02*
D03*
X679450D02*
D03*
X665550Y-643510D02*
D03*
X679550D02*
D03*
X524000Y-698010D02*
D03*
X538000D02*
D03*
X524000Y-673310D02*
D03*
X538000D02*
D03*
X524000Y-646810D02*
D03*
X538000D02*
D03*
X665550Y-668510D02*
D03*
X679550D02*
D03*
X665450Y-264710D02*
D03*
X679450D02*
D03*
X665450Y-349610D02*
D03*
X679450D02*
D03*
X665550Y-299510D02*
D03*
X679550D02*
D03*
X524000Y-354010D02*
D03*
X538000D02*
D03*
X524000Y-329310D02*
D03*
X538000D02*
D03*
X524000Y-302810D02*
D03*
X538000D02*
D03*
X665550Y-324510D02*
D03*
X679550D02*
D03*
X665450Y-56710D02*
D03*
X679450D02*
D03*
X665450Y-141610D02*
D03*
X679450D02*
D03*
X665550Y-91510D02*
D03*
X679550D02*
D03*
X524000Y-146010D02*
D03*
X538000D02*
D03*
X524000Y-121310D02*
D03*
X538000D02*
D03*
X524000Y-94810D02*
D03*
X538000D02*
D03*
X665550Y-116510D02*
D03*
X679550D02*
D03*
X1106450Y-608710D02*
D03*
X1120450D02*
D03*
X1106450Y-693610D02*
D03*
X1120450D02*
D03*
X1106550Y-643510D02*
D03*
X1120550D02*
D03*
X965000Y-698010D02*
D03*
X979000D02*
D03*
X965000Y-673310D02*
D03*
X979000D02*
D03*
X965000Y-646810D02*
D03*
X979000D02*
D03*
X1106550Y-668510D02*
D03*
X1120550D02*
D03*
X1106450Y-816710D02*
D03*
X1120450D02*
D03*
X1106450Y-901610D02*
D03*
X1120450D02*
D03*
X1106550Y-851510D02*
D03*
X1120550D02*
D03*
X965000Y-906010D02*
D03*
X979000D02*
D03*
X965000Y-881310D02*
D03*
X979000D02*
D03*
X965000Y-854810D02*
D03*
X979000D02*
D03*
X1106550Y-876510D02*
D03*
X1120550D02*
D03*
D24*
X1269003Y-715900D02*
D03*
X1360188Y-754000D02*
D03*
X1334789Y-741300D02*
D03*
X1360188Y-728600D02*
D03*
X1334789Y-715900D02*
D03*
X1360188Y-703200D02*
D03*
X1334789Y-690500D02*
D03*
X1360188Y-677800D02*
D03*
X1334789Y-665100D02*
D03*
Y-525400D02*
D03*
X1360188Y-538100D02*
D03*
X1334789Y-550800D02*
D03*
X1360188Y-563500D02*
D03*
X1334789Y-576200D02*
D03*
X1360188Y-588900D02*
D03*
X1334789Y-601600D02*
D03*
X1360188Y-614300D02*
D03*
X1334789Y-385700D02*
D03*
X1360188Y-398400D02*
D03*
X1334789Y-411100D02*
D03*
X1360188Y-423800D02*
D03*
X1334789Y-436500D02*
D03*
X1360188Y-449200D02*
D03*
X1334789Y-461900D02*
D03*
X1360188Y-474600D02*
D03*
X1334789Y-246000D02*
D03*
X1360188Y-258700D02*
D03*
X1334789Y-271400D02*
D03*
X1360188Y-284100D02*
D03*
X1334789Y-296800D02*
D03*
X1360188Y-309500D02*
D03*
X1334789Y-322200D02*
D03*
X1360188Y-334900D02*
D03*
X1294402D02*
D03*
X1269003Y-322200D02*
D03*
X1294402Y-309500D02*
D03*
X1269003Y-296800D02*
D03*
X1294402Y-284100D02*
D03*
X1269003Y-271400D02*
D03*
X1294402Y-258700D02*
D03*
X1269003Y-246000D02*
D03*
X1294402Y-474600D02*
D03*
X1269003Y-461900D02*
D03*
X1294402Y-449200D02*
D03*
X1269003Y-436500D02*
D03*
X1294402Y-423800D02*
D03*
X1269003Y-411100D02*
D03*
X1294402Y-398400D02*
D03*
X1269003Y-385700D02*
D03*
X1294402Y-614300D02*
D03*
X1269003Y-601600D02*
D03*
X1294402Y-588900D02*
D03*
X1269003Y-576200D02*
D03*
X1294402Y-563500D02*
D03*
X1269003Y-550800D02*
D03*
X1294402Y-538100D02*
D03*
X1269003Y-525400D02*
D03*
Y-665100D02*
D03*
X1294402Y-677800D02*
D03*
X1269003Y-690500D02*
D03*
X1294402Y-703200D02*
D03*
Y-728600D02*
D03*
X1269003Y-741300D02*
D03*
X1294402Y-754000D02*
D03*
D25*
X110500Y-503200D02*
D03*
X135900D02*
D03*
X161300D02*
D03*
D26*
X1469409Y-205360D02*
D03*
X1365014Y-218568D02*
D03*
X1309897Y-205360D02*
D03*
X1269003Y-794640D02*
D03*
X1332249Y-788036D02*
D03*
X1469409Y-794640D02*
D03*
D27*
X1423689Y-233300D02*
D03*
Y-766700D02*
D03*
D28*
X262150Y-811150D02*
D03*
D29*
Y-798450D02*
D03*
Y-785750D02*
D03*
Y-773050D02*
D03*
Y-760350D02*
D03*
Y-747650D02*
D03*
Y-734950D02*
D03*
Y-722250D02*
D03*
Y-709550D02*
D03*
Y-696850D02*
D03*
Y-684150D02*
D03*
Y-671450D02*
D03*
Y-658750D02*
D03*
Y-646050D02*
D03*
Y-633350D02*
D03*
Y-620650D02*
D03*
Y-607950D02*
D03*
Y-595250D02*
D03*
Y-582550D02*
D03*
Y-569850D02*
D03*
Y-557150D02*
D03*
Y-544450D02*
D03*
Y-531750D02*
D03*
Y-519050D02*
D03*
Y-506350D02*
D03*
Y-493650D02*
D03*
Y-480950D02*
D03*
Y-468250D02*
D03*
Y-455550D02*
D03*
Y-442850D02*
D03*
Y-430150D02*
D03*
Y-417450D02*
D03*
Y-404750D02*
D03*
Y-392050D02*
D03*
Y-379350D02*
D03*
Y-366650D02*
D03*
Y-353950D02*
D03*
Y-341250D02*
D03*
Y-328550D02*
D03*
Y-315850D02*
D03*
Y-303150D02*
D03*
Y-290450D02*
D03*
Y-277750D02*
D03*
Y-265050D02*
D03*
Y-252350D02*
D03*
Y-239650D02*
D03*
Y-226950D02*
D03*
Y-214250D02*
D03*
Y-201550D02*
D03*
Y-188850D02*
D03*
X287550Y-811150D02*
D03*
Y-798450D02*
D03*
Y-785750D02*
D03*
Y-773050D02*
D03*
Y-760350D02*
D03*
Y-747650D02*
D03*
Y-734950D02*
D03*
Y-722250D02*
D03*
Y-709550D02*
D03*
Y-696850D02*
D03*
Y-684150D02*
D03*
Y-671450D02*
D03*
Y-658750D02*
D03*
Y-646050D02*
D03*
Y-633350D02*
D03*
Y-620650D02*
D03*
Y-607950D02*
D03*
Y-595250D02*
D03*
Y-582550D02*
D03*
Y-569850D02*
D03*
Y-557150D02*
D03*
Y-544450D02*
D03*
Y-531750D02*
D03*
Y-519050D02*
D03*
Y-506350D02*
D03*
Y-493650D02*
D03*
Y-480950D02*
D03*
Y-468250D02*
D03*
Y-455550D02*
D03*
Y-442850D02*
D03*
Y-430150D02*
D03*
Y-417450D02*
D03*
Y-404750D02*
D03*
Y-392050D02*
D03*
Y-379350D02*
D03*
Y-366650D02*
D03*
Y-353950D02*
D03*
Y-341250D02*
D03*
Y-328550D02*
D03*
Y-315850D02*
D03*
Y-303150D02*
D03*
Y-290450D02*
D03*
Y-277750D02*
D03*
Y-265050D02*
D03*
Y-252350D02*
D03*
Y-239650D02*
D03*
Y-226950D02*
D03*
Y-214250D02*
D03*
Y-201550D02*
D03*
Y-188850D02*
D03*
M02*
