G04 Layer_Color=8388736*
%FSLAX44Y44*%
%MOMM*%
G71*
G01*
G75*
%ADD41R,1.4032X1.3032*%
%ADD42R,1.4032X2.3032*%
%ADD43R,2.3032X1.4032*%
%ADD44R,1.4032X1.0032*%
%ADD45R,0.6032X0.9032*%
%ADD46R,1.4032X0.9032*%
%ADD47R,1.0032X1.4032*%
%ADD48R,0.9032X1.4032*%
%ADD49O,1.7032X0.4532*%
%ADD50C,1.7272*%
%ADD51C,1.8032*%
%ADD52C,2.2860*%
%ADD53C,4.1402*%
%ADD54R,1.0932X1.0932*%
%ADD55C,1.0932*%
%ADD56C,1.5032*%
%ADD57C,0.9032*%
%ADD58C,0.7032*%
%ADD59C,1.2032*%
D41*
X76700Y-882300D02*
D03*
Y-861300D02*
D03*
D42*
X151800Y-635600D02*
D03*
X121800D02*
D03*
D43*
X115900Y-610400D02*
D03*
Y-580400D02*
D03*
X158100Y-610400D02*
D03*
Y-580400D02*
D03*
X1195150Y-712610D02*
D03*
Y-609610D02*
D03*
Y-579610D02*
D03*
X58700Y-503000D02*
D03*
Y-533000D02*
D03*
X209700Y-503000D02*
D03*
Y-533000D02*
D03*
X1195150Y-420210D02*
D03*
Y-390210D02*
D03*
X1195150Y-368610D02*
D03*
Y-338610D02*
D03*
Y-317610D02*
D03*
Y-287610D02*
D03*
Y-265610D02*
D03*
Y-235610D02*
D03*
X1195150Y-212210D02*
D03*
Y-182210D02*
D03*
X1195150Y-160610D02*
D03*
Y-130610D02*
D03*
Y-109610D02*
D03*
Y-79610D02*
D03*
Y-57610D02*
D03*
Y-27610D02*
D03*
X754150Y-972210D02*
D03*
Y-942210D02*
D03*
X754150Y-920610D02*
D03*
Y-890610D02*
D03*
Y-869610D02*
D03*
Y-839610D02*
D03*
Y-817610D02*
D03*
Y-787610D02*
D03*
X754150Y-764210D02*
D03*
Y-734210D02*
D03*
X754150Y-712610D02*
D03*
Y-682610D02*
D03*
Y-661610D02*
D03*
Y-631610D02*
D03*
Y-609610D02*
D03*
Y-579610D02*
D03*
X754150Y-420210D02*
D03*
Y-390210D02*
D03*
X754150Y-368610D02*
D03*
Y-338610D02*
D03*
Y-317610D02*
D03*
Y-287610D02*
D03*
Y-265610D02*
D03*
Y-235610D02*
D03*
X754150Y-212210D02*
D03*
Y-182210D02*
D03*
X754150Y-160610D02*
D03*
Y-130610D02*
D03*
Y-109610D02*
D03*
Y-79610D02*
D03*
Y-57610D02*
D03*
Y-27610D02*
D03*
X1195150Y-764210D02*
D03*
Y-734210D02*
D03*
X1195150Y-682610D02*
D03*
Y-661610D02*
D03*
Y-631610D02*
D03*
X1195150Y-972210D02*
D03*
Y-942210D02*
D03*
X1195150Y-920610D02*
D03*
Y-890610D02*
D03*
Y-869610D02*
D03*
Y-839610D02*
D03*
Y-817610D02*
D03*
Y-787610D02*
D03*
D44*
X470600Y-102010D02*
D03*
X1027320Y-414010D02*
D03*
Y-400010D02*
D03*
Y-206010D02*
D03*
Y-192010D02*
D03*
X586320Y-966010D02*
D03*
Y-952010D02*
D03*
Y-758010D02*
D03*
Y-744010D02*
D03*
Y-414010D02*
D03*
Y-400010D02*
D03*
Y-206010D02*
D03*
Y-192010D02*
D03*
X1027320Y-758010D02*
D03*
Y-744010D02*
D03*
Y-966010D02*
D03*
Y-952010D02*
D03*
X1020400Y-242110D02*
D03*
Y-256110D02*
D03*
Y-34110D02*
D03*
Y-48110D02*
D03*
X911600Y-139710D02*
D03*
Y-153710D02*
D03*
Y-88010D02*
D03*
Y-102010D02*
D03*
X911600Y-36110D02*
D03*
Y-50110D02*
D03*
X911600Y-190010D02*
D03*
Y-204010D02*
D03*
X579400Y-794110D02*
D03*
Y-808110D02*
D03*
X470600Y-899710D02*
D03*
Y-913710D02*
D03*
Y-848010D02*
D03*
Y-862010D02*
D03*
X470600Y-796110D02*
D03*
Y-810110D02*
D03*
X470600Y-950010D02*
D03*
Y-964010D02*
D03*
X579400Y-586110D02*
D03*
Y-600110D02*
D03*
X470600Y-691710D02*
D03*
Y-705710D02*
D03*
Y-640010D02*
D03*
X579400Y-242110D02*
D03*
Y-256110D02*
D03*
X470600Y-347710D02*
D03*
Y-361710D02*
D03*
Y-296010D02*
D03*
Y-310010D02*
D03*
X470600Y-244110D02*
D03*
Y-258110D02*
D03*
X470600Y-398010D02*
D03*
Y-412010D02*
D03*
X579400Y-34110D02*
D03*
Y-48110D02*
D03*
X470600Y-139710D02*
D03*
Y-153710D02*
D03*
Y-88010D02*
D03*
X470600Y-36110D02*
D03*
Y-50110D02*
D03*
X1020400Y-586110D02*
D03*
Y-600110D02*
D03*
X911600Y-691710D02*
D03*
Y-705710D02*
D03*
Y-640010D02*
D03*
Y-654010D02*
D03*
X911600Y-588110D02*
D03*
Y-602110D02*
D03*
X911600Y-742010D02*
D03*
Y-756010D02*
D03*
X1020400Y-794110D02*
D03*
Y-808110D02*
D03*
X911600Y-899710D02*
D03*
Y-913710D02*
D03*
Y-848010D02*
D03*
Y-862010D02*
D03*
X911600Y-796110D02*
D03*
Y-810110D02*
D03*
X911600Y-950010D02*
D03*
Y-964010D02*
D03*
X911600Y-244110D02*
D03*
Y-258110D02*
D03*
X911600Y-296010D02*
D03*
Y-310010D02*
D03*
Y-347710D02*
D03*
Y-361710D02*
D03*
Y-398010D02*
D03*
Y-412010D02*
D03*
X470600Y-190010D02*
D03*
Y-204010D02*
D03*
X470600Y-588110D02*
D03*
Y-602110D02*
D03*
X470600Y-654010D02*
D03*
Y-742010D02*
D03*
Y-756010D02*
D03*
D45*
X1057820Y-416260D02*
D03*
X1044820D02*
D03*
Y-395760D02*
D03*
X1051320D02*
D03*
X1057820D02*
D03*
Y-208260D02*
D03*
X1044820D02*
D03*
Y-187760D02*
D03*
X1051320D02*
D03*
X1057820D02*
D03*
X616820Y-968260D02*
D03*
X603820D02*
D03*
Y-947760D02*
D03*
X610320D02*
D03*
X616820D02*
D03*
Y-760260D02*
D03*
X603820D02*
D03*
Y-739760D02*
D03*
X610320D02*
D03*
X616820D02*
D03*
Y-416260D02*
D03*
X603820D02*
D03*
Y-395760D02*
D03*
X610320D02*
D03*
X616820D02*
D03*
Y-208260D02*
D03*
X603820D02*
D03*
Y-187760D02*
D03*
X610320D02*
D03*
X616820D02*
D03*
X1057820Y-760260D02*
D03*
X1044820D02*
D03*
Y-739760D02*
D03*
X1051320D02*
D03*
X1057820D02*
D03*
Y-968260D02*
D03*
X1044820D02*
D03*
Y-947760D02*
D03*
X1051320D02*
D03*
X1057820D02*
D03*
D46*
X77200Y-933600D02*
D03*
Y-917600D02*
D03*
D47*
X941410Y-396610D02*
D03*
X927410D02*
D03*
X927410Y-362610D02*
D03*
X941410D02*
D03*
X941410Y-345610D02*
D03*
X927410D02*
D03*
X927410Y-311310D02*
D03*
X941410D02*
D03*
X941410Y-294610D02*
D03*
X927410D02*
D03*
X927410Y-259809D02*
D03*
X941410D02*
D03*
X941410Y-242811D02*
D03*
X927410D02*
D03*
X927410Y-413610D02*
D03*
X941410D02*
D03*
X941410Y-188610D02*
D03*
X927410D02*
D03*
X927410Y-154610D02*
D03*
X941410D02*
D03*
X941410Y-137610D02*
D03*
X927410D02*
D03*
X927410Y-103310D02*
D03*
X941410D02*
D03*
X941410Y-86610D02*
D03*
X927410D02*
D03*
X927410Y-51809D02*
D03*
X941410D02*
D03*
X941410Y-34811D02*
D03*
X927410D02*
D03*
X927410Y-205610D02*
D03*
X941410D02*
D03*
X500410Y-948610D02*
D03*
X486410D02*
D03*
X486410Y-914610D02*
D03*
X500410D02*
D03*
X500410Y-897610D02*
D03*
X486410D02*
D03*
X486410Y-863310D02*
D03*
X500410D02*
D03*
X500410Y-846610D02*
D03*
X486410D02*
D03*
X486410Y-811809D02*
D03*
X500410D02*
D03*
X500410Y-794811D02*
D03*
X486410D02*
D03*
X486410Y-965610D02*
D03*
X500410D02*
D03*
X500410Y-740610D02*
D03*
X486410D02*
D03*
X486410Y-706610D02*
D03*
X500410D02*
D03*
X500410Y-689610D02*
D03*
X486410D02*
D03*
X486410Y-655310D02*
D03*
X500410D02*
D03*
X500410Y-638610D02*
D03*
X486410D02*
D03*
X486410Y-603809D02*
D03*
X500410D02*
D03*
X500410Y-586811D02*
D03*
X486410D02*
D03*
X486410Y-757610D02*
D03*
X500410D02*
D03*
X500410Y-396610D02*
D03*
X486410D02*
D03*
X486410Y-362610D02*
D03*
X500410D02*
D03*
X500410Y-345610D02*
D03*
X486410D02*
D03*
X486410Y-311310D02*
D03*
X500410D02*
D03*
X500410Y-294610D02*
D03*
X486410D02*
D03*
X486410Y-259809D02*
D03*
X500410D02*
D03*
X500410Y-242811D02*
D03*
X486410D02*
D03*
X486410Y-413610D02*
D03*
X500410D02*
D03*
X500410Y-188610D02*
D03*
X486410D02*
D03*
X486410Y-154610D02*
D03*
X500410D02*
D03*
X500410Y-137610D02*
D03*
X486410D02*
D03*
X486410Y-103310D02*
D03*
X500410D02*
D03*
X500410Y-86610D02*
D03*
X486410D02*
D03*
X486410Y-51809D02*
D03*
X500410D02*
D03*
X500410Y-34811D02*
D03*
X486410D02*
D03*
X486410Y-205610D02*
D03*
X500410D02*
D03*
X941410Y-740610D02*
D03*
X927410D02*
D03*
X927410Y-706610D02*
D03*
X941410D02*
D03*
X941410Y-689610D02*
D03*
X927410D02*
D03*
X927410Y-655310D02*
D03*
X941410D02*
D03*
X941410Y-638610D02*
D03*
X927410D02*
D03*
X927410Y-603809D02*
D03*
X941410D02*
D03*
X941410Y-586811D02*
D03*
X927410D02*
D03*
X927410Y-757610D02*
D03*
X941410D02*
D03*
X941410Y-948610D02*
D03*
X927410D02*
D03*
X927410Y-914610D02*
D03*
X941410D02*
D03*
X941410Y-897610D02*
D03*
X927410D02*
D03*
X927410Y-863310D02*
D03*
X941410D02*
D03*
X941410Y-846610D02*
D03*
X927410D02*
D03*
X927410Y-811809D02*
D03*
X941410D02*
D03*
X941410Y-794811D02*
D03*
X927410D02*
D03*
X927410Y-965610D02*
D03*
X941410D02*
D03*
D48*
X1110900Y-413610D02*
D03*
X1126900D02*
D03*
X977900D02*
D03*
X961900D02*
D03*
X1165900D02*
D03*
X1149900D02*
D03*
X1165900Y-396610D02*
D03*
X1149900D02*
D03*
X977900D02*
D03*
X961900D02*
D03*
X1126900D02*
D03*
X1110900D02*
D03*
X1110900Y-362610D02*
D03*
X1126900D02*
D03*
X977900D02*
D03*
X961900D02*
D03*
X1165850D02*
D03*
X1149850D02*
D03*
X1165900Y-345610D02*
D03*
X1149900D02*
D03*
X977900D02*
D03*
X961900D02*
D03*
X1126900D02*
D03*
X1110900D02*
D03*
X1110900Y-311310D02*
D03*
X1126900D02*
D03*
X977900D02*
D03*
X961900D02*
D03*
X1165900D02*
D03*
X1149900D02*
D03*
X1165900Y-294610D02*
D03*
X1149900D02*
D03*
X977900D02*
D03*
X961900D02*
D03*
X1126900D02*
D03*
X1110900D02*
D03*
X1110900Y-259809D02*
D03*
X1126900D02*
D03*
X977900D02*
D03*
X961900D02*
D03*
X1165900D02*
D03*
X1149900D02*
D03*
X1165850Y-242811D02*
D03*
X1149850D02*
D03*
X977900D02*
D03*
X961900D02*
D03*
X1126850D02*
D03*
X1110850D02*
D03*
X1110900Y-205610D02*
D03*
X1126900D02*
D03*
X977900D02*
D03*
X961900D02*
D03*
X1165900D02*
D03*
X1149900D02*
D03*
X1165900Y-188610D02*
D03*
X1149900D02*
D03*
X977900D02*
D03*
X961900D02*
D03*
X1126900D02*
D03*
X1110900D02*
D03*
X1110900Y-154610D02*
D03*
X1126900D02*
D03*
X977900D02*
D03*
X961900D02*
D03*
X1165850D02*
D03*
X1149850D02*
D03*
X1165900Y-137610D02*
D03*
X1149900D02*
D03*
X977900D02*
D03*
X961900D02*
D03*
X1126900D02*
D03*
X1110900D02*
D03*
X1110900Y-103310D02*
D03*
X1126900D02*
D03*
X977900D02*
D03*
X961900D02*
D03*
X1165900D02*
D03*
X1149900D02*
D03*
X1165900Y-86610D02*
D03*
X1149900D02*
D03*
X977900D02*
D03*
X961900D02*
D03*
X1126900D02*
D03*
X1110900D02*
D03*
X1110900Y-51809D02*
D03*
X1126900D02*
D03*
X977900D02*
D03*
X961900D02*
D03*
X1165900D02*
D03*
X1149900D02*
D03*
X1165850Y-34811D02*
D03*
X1149850D02*
D03*
X977900D02*
D03*
X961900D02*
D03*
X1126850D02*
D03*
X1110850D02*
D03*
X669900Y-965610D02*
D03*
X685900D02*
D03*
X536900D02*
D03*
X520900D02*
D03*
X724900D02*
D03*
X708900D02*
D03*
X724900Y-948610D02*
D03*
X708900D02*
D03*
X536900D02*
D03*
X520900D02*
D03*
X685900D02*
D03*
X669900D02*
D03*
X669900Y-914610D02*
D03*
X685900D02*
D03*
X536900D02*
D03*
X520900D02*
D03*
X724850D02*
D03*
X708850D02*
D03*
X724900Y-897610D02*
D03*
X708900D02*
D03*
X536900D02*
D03*
X520900D02*
D03*
X685900D02*
D03*
X669900D02*
D03*
X669900Y-863310D02*
D03*
X685900D02*
D03*
X536900D02*
D03*
X520900D02*
D03*
X724900D02*
D03*
X708900D02*
D03*
X724900Y-846610D02*
D03*
X708900D02*
D03*
X536900D02*
D03*
X520900D02*
D03*
X685900D02*
D03*
X669900D02*
D03*
X669900Y-811809D02*
D03*
X685900D02*
D03*
X536900D02*
D03*
X520900D02*
D03*
X724900D02*
D03*
X708900D02*
D03*
X724850Y-794811D02*
D03*
X708850D02*
D03*
X536900D02*
D03*
X520900D02*
D03*
X685850D02*
D03*
X669850D02*
D03*
X669900Y-757610D02*
D03*
X685900D02*
D03*
X536900D02*
D03*
X520900D02*
D03*
X724900D02*
D03*
X708900D02*
D03*
X724900Y-740610D02*
D03*
X708900D02*
D03*
X536900D02*
D03*
X520900D02*
D03*
X685900D02*
D03*
X669900D02*
D03*
X669900Y-706610D02*
D03*
X685900D02*
D03*
X536900D02*
D03*
X520900D02*
D03*
X724850D02*
D03*
X708850D02*
D03*
X724900Y-689610D02*
D03*
X708900D02*
D03*
X536900D02*
D03*
X520900D02*
D03*
X685900D02*
D03*
X669900D02*
D03*
X669900Y-655310D02*
D03*
X685900D02*
D03*
X536900D02*
D03*
X520900D02*
D03*
X724900D02*
D03*
X708900D02*
D03*
X724900Y-638610D02*
D03*
X708900D02*
D03*
X536900D02*
D03*
X520900D02*
D03*
X685900D02*
D03*
X669900D02*
D03*
X669900Y-603809D02*
D03*
X685900D02*
D03*
X536900D02*
D03*
X520900D02*
D03*
X724900D02*
D03*
X708900D02*
D03*
X724850Y-586811D02*
D03*
X708850D02*
D03*
X536900D02*
D03*
X520900D02*
D03*
X685850D02*
D03*
X669850D02*
D03*
X669900Y-413610D02*
D03*
X685900D02*
D03*
X536900D02*
D03*
X520900D02*
D03*
X724900D02*
D03*
X708900D02*
D03*
X724900Y-396610D02*
D03*
X708900D02*
D03*
X536900D02*
D03*
X520900D02*
D03*
X685900D02*
D03*
X669900D02*
D03*
X669900Y-362610D02*
D03*
X685900D02*
D03*
X536900D02*
D03*
X520900D02*
D03*
X724850D02*
D03*
X708850D02*
D03*
X724900Y-345610D02*
D03*
X708900D02*
D03*
X536900D02*
D03*
X520900D02*
D03*
X685900D02*
D03*
X669900D02*
D03*
X669900Y-311310D02*
D03*
X685900D02*
D03*
X536900D02*
D03*
X520900D02*
D03*
X724900D02*
D03*
X708900D02*
D03*
X724900Y-294610D02*
D03*
X708900D02*
D03*
X536900D02*
D03*
X520900D02*
D03*
X685900D02*
D03*
X669900D02*
D03*
X669900Y-259809D02*
D03*
X685900D02*
D03*
X536900D02*
D03*
X520900D02*
D03*
X724900D02*
D03*
X708900D02*
D03*
X724850Y-242811D02*
D03*
X708850D02*
D03*
X536900D02*
D03*
X520900D02*
D03*
X685850D02*
D03*
X669850D02*
D03*
X669900Y-205610D02*
D03*
X685900D02*
D03*
X536900D02*
D03*
X520900D02*
D03*
X724900D02*
D03*
X708900D02*
D03*
X724900Y-188610D02*
D03*
X708900D02*
D03*
X536900D02*
D03*
X520900D02*
D03*
X685900D02*
D03*
X669900D02*
D03*
X669900Y-154610D02*
D03*
X685900D02*
D03*
X536900D02*
D03*
X520900D02*
D03*
X724850D02*
D03*
X708850D02*
D03*
X724900Y-137610D02*
D03*
X708900D02*
D03*
X536900D02*
D03*
X520900D02*
D03*
X685900D02*
D03*
X669900D02*
D03*
X669900Y-103310D02*
D03*
X685900D02*
D03*
X536900D02*
D03*
X520900D02*
D03*
X724900D02*
D03*
X708900D02*
D03*
X724900Y-86610D02*
D03*
X708900D02*
D03*
X536900D02*
D03*
X520900D02*
D03*
X685900D02*
D03*
X669900D02*
D03*
X669900Y-51809D02*
D03*
X685900D02*
D03*
X536900D02*
D03*
X520900D02*
D03*
X724900D02*
D03*
X708900D02*
D03*
X724850Y-34811D02*
D03*
X708850D02*
D03*
X536900D02*
D03*
X520900D02*
D03*
X685850D02*
D03*
X669850D02*
D03*
X1110900Y-757610D02*
D03*
X1126900D02*
D03*
X977900D02*
D03*
X961900D02*
D03*
X1165900D02*
D03*
X1149900D02*
D03*
X1165900Y-740610D02*
D03*
X1149900D02*
D03*
X977900D02*
D03*
X961900D02*
D03*
X1126900D02*
D03*
X1110900D02*
D03*
X1110900Y-706610D02*
D03*
X1126900D02*
D03*
X977900D02*
D03*
X961900D02*
D03*
X1165850D02*
D03*
X1149850D02*
D03*
X1165900Y-689610D02*
D03*
X1149900D02*
D03*
X977900D02*
D03*
X961900D02*
D03*
X1126900D02*
D03*
X1110900D02*
D03*
X1110900Y-655310D02*
D03*
X1126900D02*
D03*
X977900D02*
D03*
X961900D02*
D03*
X1165900D02*
D03*
X1149900D02*
D03*
X1165900Y-638610D02*
D03*
X1149900D02*
D03*
X977900D02*
D03*
X961900D02*
D03*
X1126900D02*
D03*
X1110900D02*
D03*
X1110900Y-603809D02*
D03*
X1126900D02*
D03*
X977900D02*
D03*
X961900D02*
D03*
X1165900D02*
D03*
X1149900D02*
D03*
X1165850Y-586811D02*
D03*
X1149850D02*
D03*
X977900D02*
D03*
X961900D02*
D03*
X1126850D02*
D03*
X1110850D02*
D03*
X1110900Y-965610D02*
D03*
X1126900D02*
D03*
X977900D02*
D03*
X961900D02*
D03*
X1165900D02*
D03*
X1149900D02*
D03*
X1165900Y-948610D02*
D03*
X1149900D02*
D03*
X977900D02*
D03*
X961900D02*
D03*
X1126900D02*
D03*
X1110900D02*
D03*
X1110900Y-914610D02*
D03*
X1126900D02*
D03*
X977900D02*
D03*
X961900D02*
D03*
X1165850D02*
D03*
X1149850D02*
D03*
X1165900Y-897610D02*
D03*
X1149900D02*
D03*
X977900D02*
D03*
X961900D02*
D03*
X1126900D02*
D03*
X1110900D02*
D03*
X1110900Y-863310D02*
D03*
X1126900D02*
D03*
X977900D02*
D03*
X961900D02*
D03*
X1165900D02*
D03*
X1149900D02*
D03*
X1165900Y-846610D02*
D03*
X1149900D02*
D03*
X977900D02*
D03*
X961900D02*
D03*
X1126900D02*
D03*
X1110900D02*
D03*
X1110900Y-811809D02*
D03*
X1126900D02*
D03*
X977900D02*
D03*
X961900D02*
D03*
X1165900D02*
D03*
X1149900D02*
D03*
X1165850Y-794811D02*
D03*
X1149850D02*
D03*
X977900D02*
D03*
X961900D02*
D03*
X1126850D02*
D03*
X1110850D02*
D03*
D49*
X1075400Y-364610D02*
D03*
Y-359610D02*
D03*
Y-354610D02*
D03*
Y-349610D02*
D03*
Y-344610D02*
D03*
Y-339610D02*
D03*
Y-334610D02*
D03*
Y-329610D02*
D03*
Y-324610D02*
D03*
Y-319610D02*
D03*
Y-314610D02*
D03*
Y-309610D02*
D03*
Y-304610D02*
D03*
Y-299610D02*
D03*
Y-294610D02*
D03*
Y-289610D02*
D03*
Y-284610D02*
D03*
Y-279610D02*
D03*
Y-274610D02*
D03*
X1020400Y-364610D02*
D03*
Y-359610D02*
D03*
Y-354610D02*
D03*
Y-349610D02*
D03*
Y-344610D02*
D03*
Y-339610D02*
D03*
Y-334610D02*
D03*
Y-329610D02*
D03*
Y-324610D02*
D03*
Y-319610D02*
D03*
Y-314610D02*
D03*
Y-309610D02*
D03*
Y-304610D02*
D03*
Y-299610D02*
D03*
Y-294610D02*
D03*
Y-289610D02*
D03*
Y-284610D02*
D03*
Y-279610D02*
D03*
Y-274610D02*
D03*
X1075400Y-156610D02*
D03*
Y-151610D02*
D03*
Y-146610D02*
D03*
Y-141610D02*
D03*
Y-136610D02*
D03*
Y-131610D02*
D03*
Y-126610D02*
D03*
Y-121610D02*
D03*
Y-116610D02*
D03*
Y-111610D02*
D03*
Y-106610D02*
D03*
Y-101610D02*
D03*
Y-96610D02*
D03*
Y-91610D02*
D03*
Y-86610D02*
D03*
Y-81610D02*
D03*
Y-76610D02*
D03*
Y-71610D02*
D03*
Y-66610D02*
D03*
X1020400Y-156610D02*
D03*
Y-151610D02*
D03*
Y-146610D02*
D03*
Y-141610D02*
D03*
Y-136610D02*
D03*
Y-131610D02*
D03*
Y-126610D02*
D03*
Y-121610D02*
D03*
Y-116610D02*
D03*
Y-111610D02*
D03*
Y-106610D02*
D03*
Y-101610D02*
D03*
Y-96610D02*
D03*
Y-91610D02*
D03*
Y-86610D02*
D03*
Y-81610D02*
D03*
Y-76610D02*
D03*
Y-71610D02*
D03*
Y-66610D02*
D03*
X634400Y-916610D02*
D03*
Y-911610D02*
D03*
Y-906610D02*
D03*
Y-901610D02*
D03*
Y-896610D02*
D03*
Y-891610D02*
D03*
Y-886610D02*
D03*
Y-881610D02*
D03*
Y-876610D02*
D03*
Y-871610D02*
D03*
Y-866610D02*
D03*
Y-861610D02*
D03*
Y-856610D02*
D03*
Y-851610D02*
D03*
Y-846610D02*
D03*
Y-841610D02*
D03*
Y-836610D02*
D03*
Y-831610D02*
D03*
Y-826610D02*
D03*
X579400Y-916610D02*
D03*
Y-911610D02*
D03*
Y-906610D02*
D03*
Y-901610D02*
D03*
Y-896610D02*
D03*
Y-891610D02*
D03*
Y-886610D02*
D03*
Y-881610D02*
D03*
Y-876610D02*
D03*
Y-871610D02*
D03*
Y-866610D02*
D03*
Y-861610D02*
D03*
Y-856610D02*
D03*
Y-851610D02*
D03*
Y-846610D02*
D03*
Y-841610D02*
D03*
Y-836610D02*
D03*
Y-831610D02*
D03*
Y-826610D02*
D03*
X634400Y-708610D02*
D03*
Y-703610D02*
D03*
Y-698610D02*
D03*
Y-693610D02*
D03*
Y-688610D02*
D03*
Y-683610D02*
D03*
Y-678610D02*
D03*
Y-673610D02*
D03*
Y-668610D02*
D03*
Y-663610D02*
D03*
Y-658610D02*
D03*
Y-653610D02*
D03*
Y-648610D02*
D03*
Y-643610D02*
D03*
Y-638610D02*
D03*
Y-633610D02*
D03*
Y-628610D02*
D03*
Y-623610D02*
D03*
Y-618610D02*
D03*
X579400Y-708610D02*
D03*
Y-703610D02*
D03*
Y-698610D02*
D03*
Y-693610D02*
D03*
Y-688610D02*
D03*
Y-683610D02*
D03*
Y-678610D02*
D03*
Y-673610D02*
D03*
Y-668610D02*
D03*
Y-663610D02*
D03*
Y-658610D02*
D03*
Y-653610D02*
D03*
Y-648610D02*
D03*
Y-643610D02*
D03*
Y-638610D02*
D03*
Y-633610D02*
D03*
Y-628610D02*
D03*
Y-623610D02*
D03*
Y-618610D02*
D03*
X634400Y-364610D02*
D03*
Y-359610D02*
D03*
Y-354610D02*
D03*
Y-349610D02*
D03*
Y-344610D02*
D03*
Y-339610D02*
D03*
Y-334610D02*
D03*
Y-329610D02*
D03*
Y-324610D02*
D03*
Y-319610D02*
D03*
Y-314610D02*
D03*
Y-309610D02*
D03*
Y-304610D02*
D03*
Y-299610D02*
D03*
Y-294610D02*
D03*
Y-289610D02*
D03*
Y-284610D02*
D03*
Y-279610D02*
D03*
Y-274610D02*
D03*
X579400Y-364610D02*
D03*
Y-359610D02*
D03*
Y-354610D02*
D03*
Y-349610D02*
D03*
Y-344610D02*
D03*
Y-339610D02*
D03*
Y-334610D02*
D03*
Y-329610D02*
D03*
Y-324610D02*
D03*
Y-319610D02*
D03*
Y-314610D02*
D03*
Y-309610D02*
D03*
Y-304610D02*
D03*
Y-299610D02*
D03*
Y-294610D02*
D03*
Y-289610D02*
D03*
Y-284610D02*
D03*
Y-279610D02*
D03*
Y-274610D02*
D03*
X634400Y-156610D02*
D03*
Y-151610D02*
D03*
Y-146610D02*
D03*
Y-141610D02*
D03*
Y-136610D02*
D03*
Y-131610D02*
D03*
Y-126610D02*
D03*
Y-121610D02*
D03*
Y-116610D02*
D03*
Y-111610D02*
D03*
Y-106610D02*
D03*
Y-101610D02*
D03*
Y-96610D02*
D03*
Y-91610D02*
D03*
Y-86610D02*
D03*
Y-81610D02*
D03*
Y-76610D02*
D03*
Y-71610D02*
D03*
Y-66610D02*
D03*
X579400Y-156610D02*
D03*
Y-151610D02*
D03*
Y-146610D02*
D03*
Y-141610D02*
D03*
Y-136610D02*
D03*
Y-131610D02*
D03*
Y-126610D02*
D03*
Y-121610D02*
D03*
Y-116610D02*
D03*
Y-111610D02*
D03*
Y-106610D02*
D03*
Y-101610D02*
D03*
Y-96610D02*
D03*
Y-91610D02*
D03*
Y-86610D02*
D03*
Y-81610D02*
D03*
Y-76610D02*
D03*
Y-71610D02*
D03*
Y-66610D02*
D03*
X1075400Y-708610D02*
D03*
Y-703610D02*
D03*
Y-698610D02*
D03*
Y-693610D02*
D03*
Y-688610D02*
D03*
Y-683610D02*
D03*
Y-678610D02*
D03*
Y-673610D02*
D03*
Y-668610D02*
D03*
Y-663610D02*
D03*
Y-658610D02*
D03*
Y-653610D02*
D03*
Y-648610D02*
D03*
Y-643610D02*
D03*
Y-638610D02*
D03*
Y-633610D02*
D03*
Y-628610D02*
D03*
Y-623610D02*
D03*
Y-618610D02*
D03*
X1020400Y-708610D02*
D03*
Y-703610D02*
D03*
Y-698610D02*
D03*
Y-693610D02*
D03*
Y-688610D02*
D03*
Y-683610D02*
D03*
Y-678610D02*
D03*
Y-673610D02*
D03*
Y-668610D02*
D03*
Y-663610D02*
D03*
Y-658610D02*
D03*
Y-653610D02*
D03*
Y-648610D02*
D03*
Y-643610D02*
D03*
Y-638610D02*
D03*
Y-633610D02*
D03*
Y-628610D02*
D03*
Y-623610D02*
D03*
Y-618610D02*
D03*
X1075400Y-916610D02*
D03*
Y-911610D02*
D03*
Y-906610D02*
D03*
Y-901610D02*
D03*
Y-896610D02*
D03*
Y-891610D02*
D03*
Y-886610D02*
D03*
Y-881610D02*
D03*
Y-876610D02*
D03*
Y-871610D02*
D03*
Y-866610D02*
D03*
Y-861610D02*
D03*
Y-856610D02*
D03*
Y-851610D02*
D03*
Y-846610D02*
D03*
Y-841610D02*
D03*
Y-836610D02*
D03*
Y-831610D02*
D03*
Y-826610D02*
D03*
X1020400Y-916610D02*
D03*
Y-911610D02*
D03*
Y-906610D02*
D03*
Y-901610D02*
D03*
Y-896610D02*
D03*
Y-891610D02*
D03*
Y-886610D02*
D03*
Y-881610D02*
D03*
Y-876610D02*
D03*
Y-871610D02*
D03*
Y-866610D02*
D03*
Y-861610D02*
D03*
Y-856610D02*
D03*
Y-851610D02*
D03*
Y-846610D02*
D03*
Y-841610D02*
D03*
Y-836610D02*
D03*
Y-831610D02*
D03*
Y-826610D02*
D03*
D50*
X1269003Y-715900D02*
D03*
X1360188Y-754000D02*
D03*
X1334789Y-741300D02*
D03*
X1360188Y-728600D02*
D03*
X1334789Y-715900D02*
D03*
X1360188Y-703200D02*
D03*
X1334789Y-690500D02*
D03*
X1360188Y-677800D02*
D03*
X1334789Y-665100D02*
D03*
Y-525400D02*
D03*
X1360188Y-538100D02*
D03*
X1334789Y-550800D02*
D03*
X1360188Y-563500D02*
D03*
X1334789Y-576200D02*
D03*
X1360188Y-588900D02*
D03*
X1334789Y-601600D02*
D03*
X1360188Y-614300D02*
D03*
X1334789Y-385700D02*
D03*
X1360188Y-398400D02*
D03*
X1334789Y-411100D02*
D03*
X1360188Y-423800D02*
D03*
X1334789Y-436500D02*
D03*
X1360188Y-449200D02*
D03*
X1334789Y-461900D02*
D03*
X1360188Y-474600D02*
D03*
X1334789Y-246000D02*
D03*
X1360188Y-258700D02*
D03*
X1334789Y-271400D02*
D03*
X1360188Y-284100D02*
D03*
X1334789Y-296800D02*
D03*
X1360188Y-309500D02*
D03*
X1334789Y-322200D02*
D03*
X1360188Y-334900D02*
D03*
X1294402D02*
D03*
X1269003Y-322200D02*
D03*
X1294402Y-309500D02*
D03*
X1269003Y-296800D02*
D03*
X1294402Y-284100D02*
D03*
X1269003Y-271400D02*
D03*
X1294402Y-258700D02*
D03*
X1269003Y-246000D02*
D03*
X1294402Y-474600D02*
D03*
X1269003Y-461900D02*
D03*
X1294402Y-449200D02*
D03*
X1269003Y-436500D02*
D03*
X1294402Y-423800D02*
D03*
X1269003Y-411100D02*
D03*
X1294402Y-398400D02*
D03*
X1269003Y-385700D02*
D03*
X1294402Y-614300D02*
D03*
X1269003Y-601600D02*
D03*
X1294402Y-588900D02*
D03*
X1269003Y-576200D02*
D03*
X1294402Y-563500D02*
D03*
X1269003Y-550800D02*
D03*
X1294402Y-538100D02*
D03*
X1269003Y-525400D02*
D03*
Y-665100D02*
D03*
X1294402Y-677800D02*
D03*
X1269003Y-690500D02*
D03*
X1294402Y-703200D02*
D03*
Y-728600D02*
D03*
X1269003Y-741300D02*
D03*
X1294402Y-754000D02*
D03*
D51*
X110500Y-503200D02*
D03*
X135900D02*
D03*
X161300D02*
D03*
D52*
X1469409Y-205360D02*
D03*
X1365014Y-218568D02*
D03*
X1309897Y-205360D02*
D03*
X1269003Y-794640D02*
D03*
X1332249Y-788036D02*
D03*
X1469409Y-794640D02*
D03*
D53*
X1423689Y-233300D02*
D03*
Y-766700D02*
D03*
D54*
X262150Y-811150D02*
D03*
D55*
Y-798450D02*
D03*
Y-785750D02*
D03*
Y-773050D02*
D03*
Y-760350D02*
D03*
Y-747650D02*
D03*
Y-734950D02*
D03*
Y-722250D02*
D03*
Y-709550D02*
D03*
Y-696850D02*
D03*
Y-684150D02*
D03*
Y-671450D02*
D03*
Y-658750D02*
D03*
Y-646050D02*
D03*
Y-633350D02*
D03*
Y-620650D02*
D03*
Y-607950D02*
D03*
Y-595250D02*
D03*
Y-582550D02*
D03*
Y-569850D02*
D03*
Y-557150D02*
D03*
Y-544450D02*
D03*
Y-531750D02*
D03*
Y-519050D02*
D03*
Y-506350D02*
D03*
Y-493650D02*
D03*
Y-480950D02*
D03*
Y-468250D02*
D03*
Y-455550D02*
D03*
Y-442850D02*
D03*
Y-430150D02*
D03*
Y-417450D02*
D03*
Y-404750D02*
D03*
Y-392050D02*
D03*
Y-379350D02*
D03*
Y-366650D02*
D03*
Y-353950D02*
D03*
Y-341250D02*
D03*
Y-328550D02*
D03*
Y-315850D02*
D03*
Y-303150D02*
D03*
Y-290450D02*
D03*
Y-277750D02*
D03*
Y-265050D02*
D03*
Y-252350D02*
D03*
Y-239650D02*
D03*
Y-226950D02*
D03*
Y-214250D02*
D03*
Y-201550D02*
D03*
Y-188850D02*
D03*
X287550Y-811150D02*
D03*
Y-798450D02*
D03*
Y-785750D02*
D03*
Y-773050D02*
D03*
Y-760350D02*
D03*
Y-747650D02*
D03*
Y-734950D02*
D03*
Y-722250D02*
D03*
Y-709550D02*
D03*
Y-696850D02*
D03*
Y-684150D02*
D03*
Y-671450D02*
D03*
Y-658750D02*
D03*
Y-646050D02*
D03*
Y-633350D02*
D03*
Y-620650D02*
D03*
Y-607950D02*
D03*
Y-595250D02*
D03*
Y-582550D02*
D03*
Y-569850D02*
D03*
Y-557150D02*
D03*
Y-544450D02*
D03*
Y-531750D02*
D03*
Y-519050D02*
D03*
Y-506350D02*
D03*
Y-493650D02*
D03*
Y-480950D02*
D03*
Y-468250D02*
D03*
Y-455550D02*
D03*
Y-442850D02*
D03*
Y-430150D02*
D03*
Y-417450D02*
D03*
Y-404750D02*
D03*
Y-392050D02*
D03*
Y-379350D02*
D03*
Y-366650D02*
D03*
Y-353950D02*
D03*
Y-341250D02*
D03*
Y-328550D02*
D03*
Y-315850D02*
D03*
Y-303150D02*
D03*
Y-290450D02*
D03*
Y-277750D02*
D03*
Y-265050D02*
D03*
Y-252350D02*
D03*
Y-239650D02*
D03*
Y-226950D02*
D03*
Y-214250D02*
D03*
Y-201550D02*
D03*
Y-188850D02*
D03*
D56*
X56400Y-639100D02*
D03*
Y-609650D02*
D03*
Y-580200D02*
D03*
X77200Y-946900D02*
D03*
X56200Y-861300D02*
D03*
D57*
X839700Y-539500D02*
D03*
X850700D02*
D03*
X835000Y-450120D02*
D03*
X824000D02*
D03*
X877200Y-482520D02*
D03*
X888200D02*
D03*
X839700Y-460620D02*
D03*
X850700D02*
D03*
X859400Y-473520D02*
D03*
X870400D02*
D03*
X888200Y-517600D02*
D03*
X877200D02*
D03*
X859400Y-526600D02*
D03*
X870400D02*
D03*
X824000Y-550000D02*
D03*
X835000D02*
D03*
X954800Y-877210D02*
D03*
X1020400Y-782910D02*
D03*
X952000Y-905910D02*
D03*
X1152900Y-881010D02*
D03*
X952000Y-854810D02*
D03*
Y-802910D02*
D03*
Y-956910D02*
D03*
X1137850Y-863310D02*
D03*
X990800Y-861610D02*
D03*
X1137850Y-794811D02*
D03*
X990501D02*
D03*
X1137850Y-811809D02*
D03*
X990299D02*
D03*
X1005900Y-845410D02*
D03*
X1137850Y-846610D02*
D03*
X990300Y-843010D02*
D03*
X1005300Y-871010D02*
D03*
X1137850Y-897610D02*
D03*
X987800Y-894610D02*
D03*
X1137850Y-914610D02*
D03*
X988900Y-914110D02*
D03*
X1005500Y-897410D02*
D03*
X1137850Y-948610D02*
D03*
X987500D02*
D03*
X1137850Y-965610D02*
D03*
X989000D02*
D03*
X1020400Y-927210D02*
D03*
X1060100Y-842510D02*
D03*
X1089400Y-849510D02*
D03*
X1060100Y-867210D02*
D03*
X1090300Y-874210D02*
D03*
X1060100Y-893710D02*
D03*
X1176700Y-828760D02*
D03*
X1092500Y-898810D02*
D03*
X1044820Y-978510D02*
D03*
X1075400Y-816710D02*
D03*
X1013750Y-955710D02*
D03*
X1075400Y-608710D02*
D03*
X1176700Y-620760D02*
D03*
X1092500Y-690810D02*
D03*
X1013750Y-747710D02*
D03*
X1089400Y-641510D02*
D03*
X952000Y-697910D02*
D03*
X1005500Y-689410D02*
D03*
X954800Y-669210D02*
D03*
X1005300Y-663010D02*
D03*
X952000Y-646810D02*
D03*
X1005900Y-637410D02*
D03*
X1020400Y-574910D02*
D03*
X952000Y-748910D02*
D03*
X1090300Y-666210D02*
D03*
X1152900Y-673010D02*
D03*
X989000Y-757610D02*
D03*
X1137850D02*
D03*
X987500Y-740610D02*
D03*
X1137850D02*
D03*
X988900Y-706110D02*
D03*
X1137850Y-706610D02*
D03*
X987800Y-686610D02*
D03*
X1137850Y-689610D02*
D03*
X990800Y-653610D02*
D03*
X1137850Y-655310D02*
D03*
X990300Y-635010D02*
D03*
X1137850Y-638610D02*
D03*
X990299Y-603809D02*
D03*
X1137850D02*
D03*
X990501Y-586811D02*
D03*
X1137850D02*
D03*
X1044820Y-770510D02*
D03*
X1060100Y-685710D02*
D03*
Y-659210D02*
D03*
Y-634510D02*
D03*
X1020400Y-719210D02*
D03*
X763800Y-37610D02*
D03*
Y-47610D02*
D03*
X763975Y-89435D02*
D03*
Y-99435D02*
D03*
X763975Y-192035D02*
D03*
Y-202035D02*
D03*
X634400Y-56710D02*
D03*
X735700Y-68760D02*
D03*
X651500Y-138810D02*
D03*
X572750Y-195710D02*
D03*
X648400Y-89510D02*
D03*
X511000Y-145910D02*
D03*
X564500Y-137410D02*
D03*
X513800Y-117210D02*
D03*
X564300Y-111010D02*
D03*
X511000Y-94810D02*
D03*
X564900Y-85410D02*
D03*
X579400Y-22910D02*
D03*
X511000Y-196910D02*
D03*
X649300Y-114210D02*
D03*
X711900Y-121010D02*
D03*
X511000Y-42910D02*
D03*
X548000Y-205610D02*
D03*
X696850D02*
D03*
X546500Y-188610D02*
D03*
X696850D02*
D03*
X547900Y-154110D02*
D03*
X696850Y-154610D02*
D03*
X546800Y-134610D02*
D03*
X696850Y-137610D02*
D03*
X549800Y-101610D02*
D03*
X696850Y-103310D02*
D03*
X549300Y-83010D02*
D03*
X696850Y-86610D02*
D03*
X549299Y-51809D02*
D03*
X696850D02*
D03*
X549501Y-34811D02*
D03*
X696850D02*
D03*
X603820Y-218510D02*
D03*
X619100Y-133710D02*
D03*
Y-107210D02*
D03*
Y-82510D02*
D03*
X579400Y-167210D02*
D03*
X763975Y-297435D02*
D03*
Y-307435D02*
D03*
X634400Y-264710D02*
D03*
X735700Y-276760D02*
D03*
X651500Y-346810D02*
D03*
X572750Y-403710D02*
D03*
X648400Y-297510D02*
D03*
X511000Y-353910D02*
D03*
X564500Y-345410D02*
D03*
X513800Y-325210D02*
D03*
X564300Y-319010D02*
D03*
X511000Y-302810D02*
D03*
X564900Y-293410D02*
D03*
X579400Y-230910D02*
D03*
X511000Y-404910D02*
D03*
X649300Y-322210D02*
D03*
X711900Y-329010D02*
D03*
X511000Y-250910D02*
D03*
X548000Y-413610D02*
D03*
X696850D02*
D03*
X546500Y-396610D02*
D03*
X696850D02*
D03*
X547900Y-362110D02*
D03*
X696850Y-362610D02*
D03*
X546800Y-342610D02*
D03*
X696850Y-345610D02*
D03*
X549800Y-309610D02*
D03*
X696850Y-311310D02*
D03*
X549300Y-291010D02*
D03*
X696850Y-294610D02*
D03*
X549299Y-259809D02*
D03*
X696850D02*
D03*
X549501Y-242811D02*
D03*
X696850D02*
D03*
X603820Y-426510D02*
D03*
X619100Y-341710D02*
D03*
Y-315210D02*
D03*
Y-290510D02*
D03*
X579400Y-375210D02*
D03*
X634400Y-608710D02*
D03*
X735700Y-620760D02*
D03*
X651500Y-690810D02*
D03*
X572750Y-747710D02*
D03*
X648400Y-641510D02*
D03*
X511000Y-697910D02*
D03*
X564500Y-689410D02*
D03*
X513800Y-669210D02*
D03*
X564300Y-663010D02*
D03*
X511000Y-646810D02*
D03*
X564900Y-637410D02*
D03*
X579400Y-574910D02*
D03*
X511000Y-748910D02*
D03*
X649300Y-666210D02*
D03*
X711900Y-673010D02*
D03*
X511000Y-594910D02*
D03*
X548000Y-757610D02*
D03*
X696850D02*
D03*
X546500Y-740610D02*
D03*
X696850D02*
D03*
X547900Y-706110D02*
D03*
X696850Y-706610D02*
D03*
X546800Y-686610D02*
D03*
X696850Y-689610D02*
D03*
X549800Y-653610D02*
D03*
X696850Y-655310D02*
D03*
X549300Y-635010D02*
D03*
X696850Y-638610D02*
D03*
X549299Y-603809D02*
D03*
X696850D02*
D03*
X549501Y-586811D02*
D03*
X696850D02*
D03*
X603820Y-770510D02*
D03*
X619100Y-685710D02*
D03*
Y-659210D02*
D03*
Y-634510D02*
D03*
X579400Y-719210D02*
D03*
X634400Y-816710D02*
D03*
X735700Y-828760D02*
D03*
X651500Y-898810D02*
D03*
X572750Y-955710D02*
D03*
X648400Y-849510D02*
D03*
X511000Y-905910D02*
D03*
X564500Y-897410D02*
D03*
X513800Y-877210D02*
D03*
X564300Y-871010D02*
D03*
X511000Y-854810D02*
D03*
X564900Y-845410D02*
D03*
X579400Y-782910D02*
D03*
X511000Y-956910D02*
D03*
X649300Y-874210D02*
D03*
X711900Y-881010D02*
D03*
X511000Y-802910D02*
D03*
X548000Y-965610D02*
D03*
X696850D02*
D03*
X546500Y-948610D02*
D03*
X696850D02*
D03*
X547900Y-914110D02*
D03*
X696850Y-914610D02*
D03*
X546800Y-894610D02*
D03*
X696850Y-897610D02*
D03*
X549800Y-861610D02*
D03*
X696850Y-863310D02*
D03*
X549300Y-843010D02*
D03*
X696850Y-846610D02*
D03*
X549299Y-811809D02*
D03*
X696850D02*
D03*
X549501Y-794811D02*
D03*
X696850D02*
D03*
X603820Y-978510D02*
D03*
X619100Y-893710D02*
D03*
Y-867210D02*
D03*
Y-842510D02*
D03*
X579400Y-927210D02*
D03*
X1204975Y-192035D02*
D03*
Y-202035D02*
D03*
X1075400Y-56710D02*
D03*
X1176700Y-68760D02*
D03*
X1092500Y-138810D02*
D03*
X1013750Y-195710D02*
D03*
X1089400Y-89510D02*
D03*
X952000Y-145910D02*
D03*
X1005500Y-137410D02*
D03*
X954800Y-117210D02*
D03*
X1005300Y-111010D02*
D03*
X952000Y-94810D02*
D03*
X1005900Y-85410D02*
D03*
X1020400Y-22910D02*
D03*
X952000Y-196910D02*
D03*
X1090300Y-114210D02*
D03*
X1152900Y-121010D02*
D03*
X952000Y-42910D02*
D03*
X989000Y-205610D02*
D03*
X1137850D02*
D03*
X987500Y-188610D02*
D03*
X1137850D02*
D03*
X988900Y-154110D02*
D03*
X1137850Y-154610D02*
D03*
X987800Y-134610D02*
D03*
X1137850Y-137610D02*
D03*
X990800Y-101610D02*
D03*
X1137850Y-103310D02*
D03*
X990300Y-83010D02*
D03*
X1137850Y-86610D02*
D03*
X990299Y-51809D02*
D03*
X1137850D02*
D03*
X990501Y-34811D02*
D03*
X1137850D02*
D03*
X1044820Y-218510D02*
D03*
X1060100Y-133710D02*
D03*
Y-107210D02*
D03*
Y-82510D02*
D03*
X1020400Y-167210D02*
D03*
X1075400Y-264710D02*
D03*
X1176700Y-276760D02*
D03*
X1092500Y-346810D02*
D03*
X1013750Y-403710D02*
D03*
X1089400Y-297510D02*
D03*
X952000Y-353910D02*
D03*
X1005500Y-345410D02*
D03*
X954800Y-325210D02*
D03*
X1005300Y-319010D02*
D03*
X952000Y-302810D02*
D03*
X1005900Y-293410D02*
D03*
X1020400Y-230910D02*
D03*
X952000Y-404910D02*
D03*
X1090300Y-322210D02*
D03*
X1152900Y-329010D02*
D03*
X952000Y-250910D02*
D03*
X989000Y-413610D02*
D03*
X1137850D02*
D03*
X987500Y-396610D02*
D03*
X1137850D02*
D03*
X988900Y-362110D02*
D03*
X1137850Y-362610D02*
D03*
X987800Y-342610D02*
D03*
X1137850Y-345610D02*
D03*
X990800Y-309610D02*
D03*
X1137850Y-311310D02*
D03*
X990300Y-291010D02*
D03*
X1137850Y-294610D02*
D03*
X990299Y-259809D02*
D03*
X1137850D02*
D03*
X990501Y-242811D02*
D03*
X1137850D02*
D03*
X1044820Y-426510D02*
D03*
X1060100Y-341710D02*
D03*
Y-315210D02*
D03*
Y-290510D02*
D03*
X1020400Y-375210D02*
D03*
X1204975Y-754035D02*
D03*
Y-744035D02*
D03*
X1204975Y-702435D02*
D03*
Y-692435D02*
D03*
Y-651435D02*
D03*
Y-641435D02*
D03*
X1204800Y-599610D02*
D03*
Y-589610D02*
D03*
Y-807610D02*
D03*
Y-797610D02*
D03*
X1204975Y-859435D02*
D03*
Y-849435D02*
D03*
X1204975Y-952035D02*
D03*
Y-962035D02*
D03*
X1204975Y-900435D02*
D03*
Y-910435D02*
D03*
X763975Y-348435D02*
D03*
Y-358435D02*
D03*
X1204800Y-37610D02*
D03*
Y-47610D02*
D03*
X1204975Y-89435D02*
D03*
Y-99435D02*
D03*
Y-140435D02*
D03*
Y-150435D02*
D03*
X1204800Y-255610D02*
D03*
Y-245610D02*
D03*
X1204975Y-307435D02*
D03*
Y-297435D02*
D03*
Y-348435D02*
D03*
Y-358435D02*
D03*
X1204975Y-410035D02*
D03*
Y-400035D02*
D03*
X952000Y-594910D02*
D03*
X763975Y-692435D02*
D03*
Y-702435D02*
D03*
X763975Y-754035D02*
D03*
Y-744035D02*
D03*
X763800Y-807610D02*
D03*
Y-797610D02*
D03*
X763975Y-962035D02*
D03*
Y-952035D02*
D03*
X763975Y-910435D02*
D03*
Y-900435D02*
D03*
Y-859435D02*
D03*
Y-849435D02*
D03*
Y-641435D02*
D03*
Y-651435D02*
D03*
X763800Y-589610D02*
D03*
Y-599610D02*
D03*
Y-245610D02*
D03*
Y-255610D02*
D03*
X763975Y-400035D02*
D03*
Y-410035D02*
D03*
X763975Y-150435D02*
D03*
Y-140435D02*
D03*
D58*
X1138200Y-855060D02*
D03*
X1138000Y-905660D02*
D03*
Y-697660D02*
D03*
X1138200Y-647060D02*
D03*
X697000Y-145660D02*
D03*
X697200Y-95060D02*
D03*
X697000Y-353660D02*
D03*
X697200Y-303060D02*
D03*
X697000Y-697660D02*
D03*
X697200Y-647060D02*
D03*
X697000Y-905660D02*
D03*
X697200Y-855060D02*
D03*
X1138000Y-145660D02*
D03*
X1138200Y-95060D02*
D03*
X1138000Y-353660D02*
D03*
X1138200Y-303060D02*
D03*
D59*
X1020400Y-819010D02*
D03*
X1036900Y-844510D02*
D03*
Y-869410D02*
D03*
Y-894510D02*
D03*
X1020400Y-611010D02*
D03*
X1036900Y-686510D02*
D03*
Y-661410D02*
D03*
Y-636510D02*
D03*
X579400Y-59010D02*
D03*
X595900Y-134510D02*
D03*
Y-109410D02*
D03*
Y-84510D02*
D03*
X579400Y-267010D02*
D03*
X595900Y-342510D02*
D03*
Y-317410D02*
D03*
Y-292510D02*
D03*
X579400Y-611010D02*
D03*
X595900Y-686510D02*
D03*
Y-661410D02*
D03*
Y-636510D02*
D03*
X579400Y-819010D02*
D03*
X595900Y-894510D02*
D03*
Y-869410D02*
D03*
Y-844510D02*
D03*
X1020400Y-59010D02*
D03*
X1036900Y-134510D02*
D03*
Y-109410D02*
D03*
Y-84510D02*
D03*
X1020400Y-267010D02*
D03*
X1036900Y-342510D02*
D03*
Y-317410D02*
D03*
Y-292510D02*
D03*
M02*
