G04 Layer_Physical_Order=2*
G04 Layer_Color=6736896*
%FSLAX44Y44*%
%MOMM*%
G71*
G01*
G75*
%ADD19C,0.3000*%
%ADD22C,0.2500*%
%ADD24C,1.5240*%
%ADD29C,0.8900*%
%ADD31C,0.7000*%
G36*
X1261983Y-376505D02*
X1262486Y-376845D01*
X1263056Y-377144D01*
X1263693Y-377402D01*
X1264397Y-377618D01*
X1265169Y-377793D01*
X1266008Y-377927D01*
X1266913Y-378019D01*
X1268926Y-378080D01*
X1261383Y-385624D01*
X1261373Y-384584D01*
X1261229Y-382705D01*
X1261096Y-381866D01*
X1260921Y-381095D01*
X1260704Y-380391D01*
X1260447Y-379753D01*
X1260148Y-379184D01*
X1259808Y-378681D01*
X1259426Y-378245D01*
X1261548Y-376124D01*
X1261983Y-376505D01*
D02*
G37*
G36*
X291877Y-393199D02*
X291872Y-393490D01*
X291901Y-393781D01*
X291966Y-394072D01*
X292065Y-394362D01*
X292199Y-394653D01*
X292368Y-394944D01*
X292572Y-395235D01*
X292811Y-395525D01*
X293084Y-395816D01*
X291316Y-397584D01*
X291026Y-397311D01*
X290735Y-397072D01*
X290444Y-396868D01*
X290153Y-396699D01*
X289862Y-396565D01*
X289572Y-396466D01*
X289281Y-396401D01*
X288990Y-396372D01*
X288699Y-396377D01*
X288409Y-396416D01*
X291916Y-392909D01*
X291877Y-393199D01*
D02*
G37*
G36*
X1287383Y-389205D02*
X1287886Y-389545D01*
X1288456Y-389844D01*
X1289093Y-390102D01*
X1289797Y-390318D01*
X1290569Y-390493D01*
X1291407Y-390627D01*
X1292313Y-390719D01*
X1294326Y-390780D01*
X1286783Y-398324D01*
X1286773Y-397284D01*
X1286629Y-395405D01*
X1286496Y-394566D01*
X1286321Y-393795D01*
X1286104Y-393091D01*
X1285847Y-392453D01*
X1285548Y-391884D01*
X1285208Y-391381D01*
X1284826Y-390945D01*
X1286948Y-388824D01*
X1287383Y-389205D01*
D02*
G37*
G36*
X292984Y-401084D02*
X292720Y-401363D01*
X292490Y-401638D01*
X292294Y-401909D01*
X292132Y-402176D01*
X292005Y-402440D01*
X291911Y-402700D01*
X291851Y-402955D01*
X291825Y-403208D01*
X291833Y-403456D01*
X291874Y-403700D01*
X288600Y-400426D01*
X288844Y-400467D01*
X289093Y-400475D01*
X289345Y-400449D01*
X289600Y-400389D01*
X289860Y-400295D01*
X290124Y-400168D01*
X290391Y-400006D01*
X290662Y-399810D01*
X290937Y-399580D01*
X291216Y-399316D01*
X292984Y-401084D01*
D02*
G37*
G36*
X1262647Y-402587D02*
X1263102Y-402933D01*
X1263573Y-403222D01*
X1264060Y-403455D01*
X1264563Y-403631D01*
X1265083Y-403751D01*
X1265619Y-403815D01*
X1266171Y-403822D01*
X1266740Y-403773D01*
X1267324Y-403667D01*
X1261570Y-409422D01*
X1261675Y-408837D01*
X1261724Y-408269D01*
X1261717Y-407716D01*
X1261654Y-407180D01*
X1261534Y-406661D01*
X1261357Y-406157D01*
X1261124Y-405670D01*
X1260835Y-405199D01*
X1260490Y-404745D01*
X1260087Y-404306D01*
X1262209Y-402185D01*
X1262647Y-402587D01*
D02*
G37*
G36*
X1287383Y-414605D02*
X1287886Y-414945D01*
X1288456Y-415244D01*
X1289093Y-415502D01*
X1289797Y-415718D01*
X1290569Y-415893D01*
X1291407Y-416027D01*
X1292313Y-416119D01*
X1294326Y-416180D01*
X1286783Y-423724D01*
X1286773Y-422684D01*
X1286629Y-420805D01*
X1286496Y-419966D01*
X1286321Y-419195D01*
X1286104Y-418491D01*
X1285847Y-417854D01*
X1285548Y-417284D01*
X1285208Y-416781D01*
X1284826Y-416345D01*
X1286948Y-414224D01*
X1287383Y-414605D01*
D02*
G37*
G36*
X293342Y-426126D02*
X293082Y-426412D01*
X292850Y-426723D01*
X292646Y-427059D01*
X292470Y-427419D01*
X292322Y-427805D01*
X292202Y-428215D01*
X292110Y-428651D01*
X292045Y-429111D01*
X292008Y-429596D01*
X292000Y-430106D01*
X287595Y-425700D01*
X288104Y-425691D01*
X288589Y-425655D01*
X289049Y-425590D01*
X289485Y-425498D01*
X289895Y-425378D01*
X290281Y-425230D01*
X290641Y-425054D01*
X290977Y-424850D01*
X291288Y-424618D01*
X291574Y-424358D01*
X293342Y-426126D01*
D02*
G37*
G36*
X1261804Y-438999D02*
X1261490Y-438191D01*
X1261140Y-437468D01*
X1260753Y-436830D01*
X1260329Y-436277D01*
X1259868Y-435809D01*
X1259371Y-435426D01*
X1258837Y-435128D01*
X1258267Y-434916D01*
X1257659Y-434788D01*
X1257015Y-434746D01*
X1258476Y-431746D01*
X1258857Y-431722D01*
X1259326Y-431651D01*
X1259883Y-431534D01*
X1261263Y-431157D01*
X1263995Y-430239D01*
X1266259Y-429391D01*
X1261804Y-438999D01*
D02*
G37*
G36*
X291877Y-443999D02*
X291872Y-444290D01*
X291901Y-444581D01*
X291966Y-444872D01*
X292065Y-445163D01*
X292199Y-445453D01*
X292368Y-445744D01*
X292572Y-446035D01*
X292811Y-446325D01*
X293084Y-446616D01*
X291316Y-448384D01*
X291026Y-448111D01*
X290735Y-447872D01*
X290444Y-447668D01*
X290153Y-447500D01*
X289862Y-447365D01*
X289572Y-447266D01*
X289281Y-447201D01*
X288990Y-447172D01*
X288699Y-447177D01*
X288409Y-447216D01*
X291916Y-443708D01*
X291877Y-443999D01*
D02*
G37*
G36*
X1287383Y-440005D02*
X1287886Y-440345D01*
X1288456Y-440644D01*
X1289093Y-440902D01*
X1289797Y-441118D01*
X1290569Y-441293D01*
X1291407Y-441427D01*
X1292313Y-441519D01*
X1294326Y-441580D01*
X1286783Y-449124D01*
X1286773Y-448084D01*
X1286629Y-446205D01*
X1286496Y-445366D01*
X1286321Y-444595D01*
X1286104Y-443891D01*
X1285847Y-443254D01*
X1285548Y-442683D01*
X1285208Y-442181D01*
X1284826Y-441745D01*
X1286948Y-439624D01*
X1287383Y-440005D01*
D02*
G37*
G36*
X292984Y-451884D02*
X292720Y-452163D01*
X292490Y-452438D01*
X292294Y-452709D01*
X292132Y-452976D01*
X292005Y-453240D01*
X291911Y-453500D01*
X291851Y-453755D01*
X291825Y-454007D01*
X291833Y-454256D01*
X291874Y-454500D01*
X288600Y-451226D01*
X288844Y-451268D01*
X289093Y-451275D01*
X289345Y-451249D01*
X289600Y-451189D01*
X289860Y-451095D01*
X290124Y-450967D01*
X290391Y-450806D01*
X290662Y-450610D01*
X290937Y-450380D01*
X291216Y-450116D01*
X292984Y-451884D01*
D02*
G37*
G36*
X834510Y-453586D02*
X834296Y-453570D01*
X834076Y-453584D01*
X833852Y-453628D01*
X833622Y-453701D01*
X833387Y-453803D01*
X833147Y-453934D01*
X832901Y-454095D01*
X832651Y-454285D01*
X832395Y-454505D01*
X832134Y-454754D01*
X830366Y-452986D01*
X830615Y-452725D01*
X830835Y-452469D01*
X831025Y-452219D01*
X831186Y-451973D01*
X831317Y-451733D01*
X831420Y-451498D01*
X831492Y-451268D01*
X831536Y-451044D01*
X831550Y-450824D01*
X831535Y-450610D01*
X834510Y-453586D01*
D02*
G37*
G36*
X827450Y-450824D02*
X827465Y-451044D01*
X827508Y-451268D01*
X827581Y-451498D01*
X827683Y-451733D01*
X827814Y-451973D01*
X827975Y-452219D01*
X828166Y-452469D01*
X828385Y-452725D01*
X828634Y-452986D01*
X826866Y-454754D01*
X826605Y-454505D01*
X826349Y-454285D01*
X826099Y-454095D01*
X825853Y-453934D01*
X825613Y-453803D01*
X825378Y-453701D01*
X825148Y-453628D01*
X824924Y-453584D01*
X824705Y-453570D01*
X824490Y-453586D01*
X827466Y-450610D01*
X827450Y-450824D01*
D02*
G37*
G36*
X850210Y-464086D02*
X849996Y-464070D01*
X849776Y-464084D01*
X849552Y-464128D01*
X849322Y-464201D01*
X849087Y-464303D01*
X848847Y-464434D01*
X848601Y-464595D01*
X848351Y-464785D01*
X848095Y-465005D01*
X847834Y-465254D01*
X846066Y-463486D01*
X846315Y-463225D01*
X846535Y-462969D01*
X846725Y-462719D01*
X846886Y-462473D01*
X847017Y-462233D01*
X847120Y-461998D01*
X847192Y-461768D01*
X847236Y-461544D01*
X847250Y-461324D01*
X847235Y-461110D01*
X850210Y-464086D01*
D02*
G37*
G36*
X843150Y-461324D02*
X843165Y-461544D01*
X843208Y-461768D01*
X843281Y-461998D01*
X843383Y-462233D01*
X843514Y-462473D01*
X843675Y-462719D01*
X843866Y-462969D01*
X844085Y-463225D01*
X844334Y-463486D01*
X842566Y-465254D01*
X842305Y-465005D01*
X842049Y-464785D01*
X841799Y-464595D01*
X841553Y-464434D01*
X841313Y-464303D01*
X841078Y-464201D01*
X840848Y-464128D01*
X840624Y-464084D01*
X840405Y-464070D01*
X840190Y-464086D01*
X843166Y-461110D01*
X843150Y-461324D01*
D02*
G37*
G36*
X1342128Y-464177D02*
X1341525Y-469527D01*
X1341483Y-470387D01*
X1341450Y-472078D01*
X1338450Y-473155D01*
X1338411Y-472485D01*
X1338294Y-471884D01*
X1338099Y-471350D01*
X1337826Y-470885D01*
X1337475Y-470487D01*
X1337046Y-470157D01*
X1336539Y-469895D01*
X1335954Y-469701D01*
X1335291Y-469575D01*
X1334551Y-469516D01*
X1342287Y-463253D01*
X1342128Y-464177D01*
D02*
G37*
G36*
X291785Y-469685D02*
X291777Y-469894D01*
X291801Y-470109D01*
X291858Y-470332D01*
X291947Y-470561D01*
X292069Y-470798D01*
X292224Y-471042D01*
X292411Y-471293D01*
X292631Y-471551D01*
X292884Y-471816D01*
X291116Y-473584D01*
X290851Y-473331D01*
X290593Y-473111D01*
X290342Y-472924D01*
X290098Y-472770D01*
X289861Y-472647D01*
X289632Y-472558D01*
X289409Y-472501D01*
X289194Y-472476D01*
X288985Y-472485D01*
X288784Y-472525D01*
X291825Y-469484D01*
X291785Y-469685D01*
D02*
G37*
G36*
X1287383Y-465405D02*
X1287886Y-465745D01*
X1288456Y-466044D01*
X1289093Y-466302D01*
X1289797Y-466518D01*
X1290569Y-466693D01*
X1291407Y-466827D01*
X1292313Y-466919D01*
X1294326Y-466980D01*
X1286783Y-474524D01*
X1286773Y-473484D01*
X1286629Y-471605D01*
X1286496Y-470766D01*
X1286321Y-469995D01*
X1286104Y-469291D01*
X1285847Y-468653D01*
X1285548Y-468083D01*
X1285208Y-467581D01*
X1284826Y-467145D01*
X1286948Y-465024D01*
X1287383Y-465405D01*
D02*
G37*
G36*
X293184Y-477084D02*
X292903Y-477384D01*
X292658Y-477689D01*
X292447Y-477998D01*
X292271Y-478312D01*
X292131Y-478631D01*
X292025Y-478954D01*
X291954Y-479281D01*
X291918Y-479613D01*
X291917Y-479949D01*
X291951Y-480290D01*
X288210Y-476549D01*
X288551Y-476583D01*
X288887Y-476582D01*
X289219Y-476546D01*
X289546Y-476475D01*
X289869Y-476370D01*
X290188Y-476229D01*
X290502Y-476053D01*
X290811Y-475842D01*
X291116Y-475597D01*
X291416Y-475316D01*
X293184Y-477084D01*
D02*
G37*
G36*
X869910Y-476986D02*
X869696Y-476970D01*
X869476Y-476984D01*
X869252Y-477028D01*
X869022Y-477101D01*
X868787Y-477203D01*
X868547Y-477334D01*
X868301Y-477495D01*
X868051Y-477685D01*
X867795Y-477905D01*
X867534Y-478154D01*
X865766Y-476386D01*
X866015Y-476125D01*
X866235Y-475869D01*
X866425Y-475619D01*
X866586Y-475373D01*
X866717Y-475133D01*
X866820Y-474898D01*
X866892Y-474668D01*
X866936Y-474444D01*
X866950Y-474224D01*
X866935Y-474010D01*
X869910Y-476986D01*
D02*
G37*
G36*
X862850Y-474224D02*
X862865Y-474444D01*
X862908Y-474668D01*
X862981Y-474898D01*
X863083Y-475133D01*
X863214Y-475373D01*
X863375Y-475619D01*
X863566Y-475869D01*
X863785Y-476125D01*
X864034Y-476386D01*
X862266Y-478154D01*
X862005Y-477905D01*
X861749Y-477685D01*
X861499Y-477495D01*
X861253Y-477334D01*
X861013Y-477203D01*
X860778Y-477101D01*
X860548Y-477028D01*
X860324Y-476984D01*
X860105Y-476970D01*
X859890Y-476986D01*
X862866Y-474010D01*
X862850Y-474224D01*
D02*
G37*
G36*
X1354747Y-479934D02*
X1354004Y-479206D01*
X1352574Y-477979D01*
X1351887Y-477480D01*
X1351217Y-477058D01*
X1350567Y-476713D01*
X1349934Y-476445D01*
X1349319Y-476253D01*
X1348723Y-476138D01*
X1348146Y-476100D01*
Y-473100D01*
X1348723Y-473062D01*
X1349319Y-472947D01*
X1349934Y-472755D01*
X1350567Y-472487D01*
X1351217Y-472141D01*
X1351887Y-471720D01*
X1352574Y-471221D01*
X1353280Y-470646D01*
X1354747Y-469266D01*
Y-479934D01*
D02*
G37*
G36*
X887710Y-485985D02*
X887495Y-485970D01*
X887276Y-485984D01*
X887051Y-486028D01*
X886822Y-486101D01*
X886587Y-486203D01*
X886347Y-486334D01*
X886101Y-486495D01*
X885851Y-486685D01*
X885595Y-486905D01*
X885334Y-487154D01*
X883566Y-485386D01*
X883815Y-485125D01*
X884035Y-484869D01*
X884225Y-484619D01*
X884386Y-484373D01*
X884517Y-484133D01*
X884619Y-483898D01*
X884692Y-483668D01*
X884735Y-483444D01*
X884750Y-483224D01*
X884734Y-483010D01*
X887710Y-485985D01*
D02*
G37*
G36*
X880650Y-483224D02*
X880664Y-483444D01*
X880708Y-483668D01*
X880780Y-483898D01*
X880883Y-484133D01*
X881014Y-484373D01*
X881175Y-484619D01*
X881365Y-484869D01*
X881585Y-485125D01*
X881834Y-485386D01*
X880066Y-487154D01*
X879805Y-486905D01*
X879549Y-486685D01*
X879299Y-486495D01*
X879053Y-486334D01*
X878813Y-486203D01*
X878578Y-486101D01*
X878348Y-486028D01*
X878124Y-485984D01*
X877904Y-485970D01*
X877690Y-485985D01*
X880665Y-483010D01*
X880650Y-483224D01*
D02*
G37*
G36*
X881834Y-514734D02*
X881585Y-514995D01*
X881365Y-515251D01*
X881175Y-515501D01*
X881014Y-515747D01*
X880883Y-515987D01*
X880781Y-516222D01*
X880708Y-516452D01*
X880664Y-516676D01*
X880650Y-516896D01*
X880666Y-517110D01*
X877690Y-514134D01*
X877904Y-514150D01*
X878124Y-514136D01*
X878348Y-514092D01*
X878578Y-514019D01*
X878813Y-513917D01*
X879053Y-513786D01*
X879299Y-513625D01*
X879549Y-513435D01*
X879805Y-513215D01*
X880066Y-512966D01*
X881834Y-514734D01*
D02*
G37*
G36*
X885595Y-513215D02*
X885851Y-513435D01*
X886101Y-513625D01*
X886347Y-513786D01*
X886587Y-513917D01*
X886822Y-514019D01*
X887052Y-514092D01*
X887276Y-514136D01*
X887496Y-514150D01*
X887710Y-514134D01*
X884734Y-517110D01*
X884750Y-516896D01*
X884736Y-516676D01*
X884692Y-516452D01*
X884619Y-516222D01*
X884517Y-515987D01*
X884386Y-515747D01*
X884225Y-515501D01*
X884035Y-515251D01*
X883815Y-514995D01*
X883566Y-514734D01*
X885334Y-512966D01*
X885595Y-513215D01*
D02*
G37*
G36*
X1276411Y-520113D02*
X1275392Y-521249D01*
X1273154Y-519010D01*
X1273178Y-519008D01*
X1273222Y-518984D01*
X1273286Y-518938D01*
X1273370Y-518869D01*
X1273740Y-518531D01*
X1274289Y-517992D01*
X1276411Y-520113D01*
D02*
G37*
G36*
X864034Y-523734D02*
X863785Y-523995D01*
X863565Y-524251D01*
X863375Y-524501D01*
X863214Y-524747D01*
X863083Y-524987D01*
X862981Y-525222D01*
X862908Y-525452D01*
X862864Y-525676D01*
X862850Y-525896D01*
X862866Y-526110D01*
X859890Y-523134D01*
X860104Y-523150D01*
X860324Y-523136D01*
X860548Y-523092D01*
X860778Y-523019D01*
X861013Y-522917D01*
X861253Y-522786D01*
X861499Y-522625D01*
X861749Y-522435D01*
X862005Y-522215D01*
X862266Y-521966D01*
X864034Y-523734D01*
D02*
G37*
G36*
X291733Y-520623D02*
X291727Y-520794D01*
X291752Y-520974D01*
X291807Y-521165D01*
X291893Y-521365D01*
X292010Y-521576D01*
X292157Y-521796D01*
X292335Y-522026D01*
X292544Y-522266D01*
X292784Y-522516D01*
X291016Y-524284D01*
X290766Y-524044D01*
X290296Y-523657D01*
X290076Y-523510D01*
X289865Y-523393D01*
X289665Y-523307D01*
X289474Y-523252D01*
X289294Y-523227D01*
X289123Y-523233D01*
X288962Y-523270D01*
X291770Y-520462D01*
X291733Y-520623D01*
D02*
G37*
G36*
X867795Y-522215D02*
X868051Y-522435D01*
X868301Y-522625D01*
X868547Y-522786D01*
X868787Y-522917D01*
X869022Y-523019D01*
X869252Y-523092D01*
X869476Y-523136D01*
X869696Y-523150D01*
X869910Y-523134D01*
X866935Y-526110D01*
X866950Y-525896D01*
X866936Y-525676D01*
X866892Y-525452D01*
X866819Y-525222D01*
X866717Y-524987D01*
X866586Y-524747D01*
X866425Y-524501D01*
X866235Y-524251D01*
X866015Y-523995D01*
X865766Y-523734D01*
X867534Y-521966D01*
X867795Y-522215D01*
D02*
G37*
G36*
X293284Y-527784D02*
X292999Y-528091D01*
X292748Y-528408D01*
X292531Y-528735D01*
X292349Y-529072D01*
X292201Y-529418D01*
X292088Y-529774D01*
X292009Y-530140D01*
X291964Y-530516D01*
X291953Y-530902D01*
X291977Y-531298D01*
X288002Y-527323D01*
X288398Y-527347D01*
X288784Y-527336D01*
X289160Y-527291D01*
X289526Y-527212D01*
X289882Y-527099D01*
X290228Y-526951D01*
X290565Y-526769D01*
X290892Y-526552D01*
X291209Y-526301D01*
X291516Y-526016D01*
X293284Y-527784D01*
D02*
G37*
G36*
X1295941Y-526635D02*
X1296056Y-527231D01*
X1296248Y-527845D01*
X1296516Y-528478D01*
X1296861Y-529129D01*
X1297283Y-529798D01*
X1297781Y-530486D01*
X1298356Y-531192D01*
X1299736Y-532658D01*
X1289068D01*
X1289797Y-531916D01*
X1291024Y-530486D01*
X1291522Y-529798D01*
X1291944Y-529129D01*
X1292289Y-528478D01*
X1292558Y-527845D01*
X1292749Y-527231D01*
X1292864Y-526635D01*
X1292903Y-526057D01*
X1295903D01*
X1295941Y-526635D01*
D02*
G37*
G36*
X844334Y-536634D02*
X844085Y-536895D01*
X843865Y-537151D01*
X843675Y-537401D01*
X843514Y-537647D01*
X843383Y-537887D01*
X843281Y-538122D01*
X843208Y-538352D01*
X843164Y-538576D01*
X843150Y-538796D01*
X843166Y-539010D01*
X840190Y-536035D01*
X840404Y-536050D01*
X840624Y-536036D01*
X840848Y-535992D01*
X841078Y-535919D01*
X841313Y-535817D01*
X841553Y-535686D01*
X841799Y-535525D01*
X842049Y-535335D01*
X842305Y-535115D01*
X842566Y-534866D01*
X844334Y-536634D01*
D02*
G37*
G36*
X848095Y-535115D02*
X848351Y-535335D01*
X848601Y-535525D01*
X848847Y-535686D01*
X849087Y-535817D01*
X849322Y-535919D01*
X849552Y-535992D01*
X849776Y-536036D01*
X849996Y-536050D01*
X850210Y-536035D01*
X847234Y-539010D01*
X847250Y-538796D01*
X847236Y-538576D01*
X847192Y-538352D01*
X847119Y-538122D01*
X847017Y-537887D01*
X846886Y-537647D01*
X846725Y-537401D01*
X846535Y-537151D01*
X846315Y-536895D01*
X846066Y-536634D01*
X847834Y-534866D01*
X848095Y-535115D01*
D02*
G37*
G36*
X828634Y-547134D02*
X828385Y-547395D01*
X828165Y-547651D01*
X827975Y-547901D01*
X827814Y-548147D01*
X827683Y-548387D01*
X827581Y-548622D01*
X827508Y-548852D01*
X827464Y-549076D01*
X827450Y-549296D01*
X827466Y-549510D01*
X824490Y-546535D01*
X824704Y-546550D01*
X824924Y-546536D01*
X825148Y-546492D01*
X825378Y-546419D01*
X825613Y-546317D01*
X825853Y-546186D01*
X826099Y-546025D01*
X826349Y-545835D01*
X826605Y-545615D01*
X826866Y-545366D01*
X828634Y-547134D01*
D02*
G37*
G36*
X1263804Y-543476D02*
X1264545Y-544109D01*
X1264684Y-544198D01*
X1264804Y-544260D01*
X1264906Y-544295D01*
X1264990Y-544302D01*
X1265055Y-544282D01*
X1262485Y-546853D01*
X1262505Y-546788D01*
X1262497Y-546704D01*
X1262463Y-546602D01*
X1262401Y-546481D01*
X1262311Y-546342D01*
X1262194Y-546185D01*
X1261878Y-545815D01*
X1261452Y-545371D01*
X1263573Y-543249D01*
X1263804Y-543476D01*
D02*
G37*
G36*
X832395Y-545615D02*
X832651Y-545835D01*
X832901Y-546025D01*
X833147Y-546186D01*
X833387Y-546317D01*
X833622Y-546419D01*
X833852Y-546492D01*
X834076Y-546536D01*
X834296Y-546550D01*
X834510Y-546535D01*
X831535Y-549510D01*
X831550Y-549296D01*
X831536Y-549076D01*
X831492Y-548852D01*
X831419Y-548622D01*
X831317Y-548387D01*
X831186Y-548147D01*
X831025Y-547901D01*
X830835Y-547651D01*
X830615Y-547395D01*
X830366Y-547134D01*
X832134Y-545366D01*
X832395Y-545615D01*
D02*
G37*
G36*
X291985Y-545141D02*
X292008Y-545579D01*
X292063Y-546000D01*
X292150Y-546404D01*
X292269Y-546791D01*
X292420Y-547162D01*
X292603Y-547515D01*
X292817Y-547852D01*
X293064Y-548171D01*
X293342Y-548474D01*
X291574Y-550242D01*
X291271Y-549963D01*
X290952Y-549717D01*
X290615Y-549503D01*
X290262Y-549320D01*
X289891Y-549169D01*
X289504Y-549050D01*
X289100Y-548963D01*
X288679Y-548908D01*
X288241Y-548885D01*
X287786Y-548894D01*
X291994Y-544686D01*
X291985Y-545141D01*
D02*
G37*
G36*
X292684Y-553784D02*
X292458Y-554017D01*
X292093Y-554447D01*
X291953Y-554644D01*
X291841Y-554828D01*
X291758Y-555000D01*
X291703Y-555160D01*
X291676Y-555308D01*
X291678Y-555443D01*
X291709Y-555566D01*
X289134Y-552991D01*
X289257Y-553022D01*
X289392Y-553024D01*
X289540Y-552997D01*
X289700Y-552942D01*
X289872Y-552859D01*
X290056Y-552747D01*
X290253Y-552607D01*
X290462Y-552438D01*
X290916Y-552016D01*
X292684Y-553784D01*
D02*
G37*
G36*
X1287383Y-554305D02*
X1287886Y-554645D01*
X1288456Y-554944D01*
X1289093Y-555202D01*
X1289797Y-555418D01*
X1290569Y-555593D01*
X1291407Y-555727D01*
X1292313Y-555819D01*
X1294326Y-555880D01*
X1286783Y-563424D01*
X1286773Y-562384D01*
X1286629Y-560505D01*
X1286496Y-559666D01*
X1286321Y-558895D01*
X1286104Y-558191D01*
X1285847Y-557553D01*
X1285548Y-556983D01*
X1285208Y-556481D01*
X1284826Y-556045D01*
X1286948Y-553924D01*
X1287383Y-554305D01*
D02*
G37*
G36*
X1263642Y-568709D02*
X1264133Y-569127D01*
X1264355Y-569284D01*
X1264561Y-569408D01*
X1264751Y-569497D01*
X1264925Y-569552D01*
X1265083Y-569573D01*
X1265225Y-569559D01*
X1265352Y-569511D01*
X1262314Y-572549D01*
X1262362Y-572423D01*
X1262375Y-572280D01*
X1262354Y-572122D01*
X1262299Y-571948D01*
X1262210Y-571758D01*
X1262087Y-571552D01*
X1261929Y-571331D01*
X1261738Y-571093D01*
X1261252Y-570571D01*
X1263373Y-568449D01*
X1263642Y-568709D01*
D02*
G37*
G36*
X291733Y-571423D02*
X291727Y-571594D01*
X291752Y-571774D01*
X291807Y-571965D01*
X291893Y-572165D01*
X292010Y-572376D01*
X292157Y-572596D01*
X292335Y-572826D01*
X292544Y-573066D01*
X292784Y-573316D01*
X291016Y-575084D01*
X290766Y-574844D01*
X290296Y-574457D01*
X290076Y-574310D01*
X289865Y-574193D01*
X289665Y-574107D01*
X289474Y-574052D01*
X289294Y-574027D01*
X289123Y-574033D01*
X288962Y-574070D01*
X291770Y-571262D01*
X291733Y-571423D01*
D02*
G37*
G36*
X293284Y-578584D02*
X292999Y-578891D01*
X292748Y-579208D01*
X292531Y-579535D01*
X292349Y-579872D01*
X292201Y-580218D01*
X292088Y-580574D01*
X292009Y-580940D01*
X291964Y-581316D01*
X291953Y-581702D01*
X291977Y-582098D01*
X288002Y-578123D01*
X288398Y-578147D01*
X288784Y-578136D01*
X289160Y-578091D01*
X289526Y-578012D01*
X289882Y-577899D01*
X290228Y-577751D01*
X290565Y-577569D01*
X290892Y-577352D01*
X291209Y-577101D01*
X291516Y-576816D01*
X293284Y-578584D01*
D02*
G37*
G36*
X1287383Y-579705D02*
X1287886Y-580045D01*
X1288456Y-580344D01*
X1289093Y-580602D01*
X1289797Y-580818D01*
X1290569Y-580993D01*
X1291407Y-581127D01*
X1292313Y-581219D01*
X1294326Y-581280D01*
X1286783Y-588824D01*
X1286773Y-587784D01*
X1286629Y-585905D01*
X1286496Y-585066D01*
X1286321Y-584295D01*
X1286104Y-583591D01*
X1285847Y-582953D01*
X1285548Y-582383D01*
X1285208Y-581881D01*
X1284826Y-581445D01*
X1286948Y-579324D01*
X1287383Y-579705D01*
D02*
G37*
G36*
X1263312Y-593769D02*
X1263642Y-594044D01*
X1263964Y-594273D01*
X1264277Y-594457D01*
X1264582Y-594596D01*
X1264878Y-594688D01*
X1265166Y-594736D01*
X1265445Y-594738D01*
X1265716Y-594694D01*
X1265979Y-594605D01*
X1262008Y-598577D01*
X1262097Y-598314D01*
X1262141Y-598043D01*
X1262139Y-597763D01*
X1262091Y-597476D01*
X1261998Y-597179D01*
X1261860Y-596875D01*
X1261676Y-596561D01*
X1261447Y-596240D01*
X1261172Y-595909D01*
X1260852Y-595571D01*
X1262973Y-593449D01*
X1263312Y-593769D01*
D02*
G37*
G36*
X291833Y-596544D02*
X291825Y-596792D01*
X291851Y-597045D01*
X291911Y-597300D01*
X292005Y-597560D01*
X292132Y-597824D01*
X292294Y-598091D01*
X292490Y-598362D01*
X292720Y-598637D01*
X292984Y-598916D01*
X291216Y-600684D01*
X290937Y-600420D01*
X290662Y-600190D01*
X290391Y-599994D01*
X290124Y-599832D01*
X289860Y-599705D01*
X289600Y-599611D01*
X289345Y-599551D01*
X289093Y-599525D01*
X288844Y-599533D01*
X288600Y-599574D01*
X291874Y-596300D01*
X291833Y-596544D01*
D02*
G37*
G36*
X293084Y-604184D02*
X292811Y-604474D01*
X292572Y-604765D01*
X292368Y-605056D01*
X292199Y-605347D01*
X292065Y-605638D01*
X291966Y-605928D01*
X291901Y-606219D01*
X291872Y-606510D01*
X291877Y-606801D01*
X291916Y-607091D01*
X288409Y-603584D01*
X288699Y-603623D01*
X288990Y-603628D01*
X289281Y-603599D01*
X289572Y-603534D01*
X289862Y-603435D01*
X290153Y-603301D01*
X290444Y-603132D01*
X290735Y-602928D01*
X291026Y-602689D01*
X291316Y-602416D01*
X293084Y-604184D01*
D02*
G37*
G36*
X1287383Y-605105D02*
X1287886Y-605445D01*
X1288456Y-605744D01*
X1289093Y-606002D01*
X1289797Y-606218D01*
X1290569Y-606393D01*
X1291407Y-606527D01*
X1292313Y-606619D01*
X1294326Y-606680D01*
X1286783Y-614224D01*
X1286773Y-613184D01*
X1286629Y-611305D01*
X1286496Y-610466D01*
X1286321Y-609695D01*
X1286104Y-608991D01*
X1285847Y-608354D01*
X1285548Y-607784D01*
X1285208Y-607281D01*
X1284826Y-606845D01*
X1286948Y-604724D01*
X1287383Y-605105D01*
D02*
G37*
D19*
X917361Y-506210D02*
X1271650D01*
X802750Y-620821D02*
X917361Y-506210D01*
X802750Y-782881D02*
Y-620821D01*
X915290Y-501210D02*
X1273721D01*
X797750Y-618750D02*
X915290Y-501210D01*
X797750Y-780810D02*
Y-618750D01*
X811850Y-343279D02*
Y-224864D01*
Y-343279D02*
X936881Y-468310D01*
X1227250D01*
X934810Y-473310D02*
X1229321D01*
X806850Y-345350D02*
X934810Y-473310D01*
X806850Y-345350D02*
Y-226935D01*
X941881Y-446810D02*
X1214450D01*
X832750Y-337679D02*
X941881Y-446810D01*
X832750Y-337679D02*
Y-193164D01*
X939810Y-451810D02*
X1216521D01*
X827750Y-339750D02*
X939810Y-451810D01*
X827750Y-339750D02*
Y-195235D01*
X918781Y-484110D02*
X1276221D01*
X837206Y-402535D02*
X918781Y-484110D01*
X916710Y-489110D02*
X1274150D01*
X835135Y-407535D02*
X916710Y-489110D01*
X766475Y-407535D02*
X835135D01*
X957581Y-433510D02*
X1207250D01*
X853750Y-329679D02*
X957581Y-433510D01*
X853750Y-329679D02*
Y-165164D01*
X955510Y-438510D02*
X1209321D01*
X848750Y-331750D02*
X955510Y-438510D01*
X848750Y-331750D02*
Y-167235D01*
X1275350Y-519053D02*
Y-509910D01*
X1269003Y-525400D02*
X1275350Y-519053D01*
X1294402Y-538100D02*
Y-521892D01*
X766300Y-805110D02*
X780521D01*
X763800Y-807610D02*
X766300Y-805110D01*
X780521D02*
X802750Y-782881D01*
X766300Y-800110D02*
X778450D01*
X763800Y-797610D02*
X766300Y-800110D01*
X778450D02*
X797750Y-780810D01*
X1235721Y-589510D02*
X1273402D01*
X1233650Y-594510D02*
X1261913D01*
X1269003Y-601600D01*
X1280663Y-600560D02*
Y-596770D01*
Y-600560D02*
X1294402Y-614300D01*
X1273402Y-589510D02*
X1280663Y-596770D01*
X766475Y-959535D02*
X780821D01*
X763975Y-962035D02*
X766475Y-959535D01*
X780821D02*
X874950Y-865406D01*
Y-641210D01*
X766475Y-954535D02*
X778750D01*
X763975Y-952035D02*
X766475Y-954535D01*
X778750D02*
X869950Y-863335D01*
Y-639139D01*
X946779Y-562310D01*
X1208521D01*
X1235721Y-589510D01*
X874950Y-641210D02*
X948850Y-567310D01*
X1206450D01*
X1233650Y-594510D01*
X847150Y-631110D02*
X932200Y-546060D01*
X1223200D01*
X842150Y-629039D02*
X930129Y-541060D01*
X1225271D01*
X766475Y-907935D02*
X773521D01*
X763975Y-910435D02*
X766475Y-907935D01*
X773521D02*
X847150Y-834306D01*
Y-631110D01*
X1246650Y-569510D02*
X1262313D01*
X1269003Y-576200D01*
X763975Y-900435D02*
X766475Y-902935D01*
X771450D01*
X842150Y-832235D01*
Y-629039D01*
X1273802Y-564510D02*
X1280663Y-571370D01*
Y-575160D02*
Y-571370D01*
Y-575160D02*
X1294402Y-588900D01*
X1248721Y-564510D02*
X1273802D01*
X1223200Y-546060D02*
X1246650Y-569510D01*
X1225271Y-541060D02*
X1248721Y-564510D01*
X824550Y-623110D02*
X922200Y-525460D01*
X1232300D01*
X819550Y-621039D02*
X920129Y-520460D01*
X1234371D01*
X766475Y-856935D02*
X777621D01*
X763975Y-859435D02*
X766475Y-856935D01*
X777621D02*
X824550Y-810006D01*
Y-623110D01*
X1251150Y-544310D02*
X1262513D01*
X1269003Y-550800D01*
X763975Y-849435D02*
X766475Y-851935D01*
X775550D01*
X819550Y-807935D01*
Y-621039D01*
X1273832Y-539140D02*
X1280663Y-545970D01*
Y-549760D02*
Y-545970D01*
Y-549760D02*
X1294402Y-563500D01*
X1253051Y-539140D02*
X1273832D01*
X1232300Y-525460D02*
X1251150Y-544310D01*
X1234371Y-520460D02*
X1253051Y-539140D01*
X1273721Y-501210D02*
X1294402Y-521892D01*
X1271650Y-506210D02*
X1275350Y-509910D01*
X763975Y-410035D02*
X766475Y-407535D01*
X763975Y-400035D02*
X766475Y-402535D01*
X837206D01*
X1274150Y-489110D02*
X1282150Y-497110D01*
X1276221Y-484110D02*
X1285685Y-493574D01*
X1320786D01*
X1339950Y-474410D01*
X1282150Y-497110D02*
X1282150D01*
X1283615Y-498574D01*
X1322857D01*
X1324321Y-497110D01*
X1324321D01*
X1339950Y-474410D02*
Y-467061D01*
X1334789Y-461900D02*
X1339950Y-467061D01*
X1324321Y-497110D02*
X1346831Y-474600D01*
X1360188D01*
X763975Y-202035D02*
X766475Y-199535D01*
X779450D01*
X763975Y-192035D02*
X766475Y-194535D01*
X779450Y-199535D02*
X806850Y-226935D01*
X766475Y-194535D02*
X781521D01*
X811850Y-224864D01*
X1229321Y-473310D02*
X1246786Y-455846D01*
X1262948D01*
X1269003Y-461900D01*
X1273832Y-450240D02*
X1280663Y-457070D01*
Y-460860D02*
Y-457070D01*
Y-460860D02*
X1294402Y-474600D01*
X1227250Y-468310D02*
X1245320Y-450240D01*
X1273832D01*
X1235086Y-433246D02*
X1265748D01*
X1269003Y-436500D01*
X1273832Y-424840D02*
X1280663Y-431670D01*
Y-435460D02*
Y-431670D01*
Y-435460D02*
X1294402Y-449200D01*
X1214450Y-446810D02*
X1236420Y-424840D01*
X1273832D01*
X1216521Y-451810D02*
X1235086Y-433246D01*
X766475Y-147935D02*
X780450D01*
X763975Y-150435D02*
X766475Y-147935D01*
X780450D02*
X827750Y-195235D01*
X766475Y-142935D02*
X782521D01*
X763975Y-140435D02*
X766475Y-142935D01*
X782521D02*
X832750Y-193164D01*
X763975Y-99435D02*
X766475Y-96935D01*
X778450D01*
X763975Y-89435D02*
X766475Y-91935D01*
X778450Y-96935D02*
X848750Y-167235D01*
X766475Y-91935D02*
X780521D01*
X853750Y-165164D01*
X1209321Y-438510D02*
X1244585Y-403246D01*
X1261148D01*
X1269003Y-411100D01*
X1280663Y-410060D02*
Y-406270D01*
Y-410060D02*
X1294402Y-423800D01*
X1207250Y-433510D02*
X1242514Y-398246D01*
X1272638D01*
X1280663Y-406270D01*
X763800Y-47610D02*
X766300Y-45110D01*
X790650D01*
X763800Y-37610D02*
X766300Y-40110D01*
X790650Y-45110D02*
X874650Y-129110D01*
Y-324981D02*
Y-129110D01*
X766300Y-40110D02*
X792721D01*
X879650Y-127039D01*
Y-322910D02*
Y-127039D01*
Y-322910D02*
X939450Y-382710D01*
X874650Y-324981D02*
X937379Y-387710D01*
X939450Y-382710D02*
X1062450D01*
X937379Y-387710D02*
X1064521D01*
X1062450Y-382710D02*
X1074550Y-370610D01*
X1270402D01*
X1064521Y-387710D02*
X1076621Y-375610D01*
X1258913D01*
X1269003Y-385700D01*
X1280663Y-384660D02*
Y-380870D01*
Y-384660D02*
X1294402Y-398400D01*
X1270402Y-370610D02*
X1280663Y-380870D01*
D22*
X287550Y-531750D02*
X292400Y-526900D01*
X287550Y-519050D02*
X291900Y-523400D01*
X292400Y-526900D02*
X330100D01*
X291900Y-523400D02*
X328650D01*
X347550Y-504500D01*
X330100Y-526900D02*
X349000Y-508000D01*
X347550Y-504500D02*
X879800D01*
X884450Y-509150D01*
Y-513850D02*
Y-509150D01*
X349000Y-508000D02*
X878350D01*
X880950Y-510600D01*
X884450Y-513850D02*
X888200Y-517600D01*
X880950Y-513850D02*
Y-510600D01*
X877200Y-517600D02*
X880950Y-513850D01*
X287550Y-557150D02*
X291800Y-552900D01*
X287550Y-544450D02*
X292500Y-549400D01*
X291800Y-552900D02*
X329950D01*
X292500Y-549400D02*
X328500D01*
X329950Y-552900D02*
X345425Y-537425D01*
X759775D01*
X760800Y-536400D01*
X760800D01*
X328500Y-549400D02*
X343975Y-533925D01*
X758325D01*
X778150Y-514100D01*
X760800Y-536400D02*
X779600Y-517600D01*
X778150Y-514100D02*
X862000D01*
X866650Y-518750D01*
Y-522850D02*
Y-518750D01*
X779600Y-517600D02*
X860550D01*
X863150Y-520200D01*
X866650Y-522850D02*
X870400Y-526600D01*
X863150Y-522850D02*
Y-520200D01*
X859400Y-526600D02*
X863150Y-522850D01*
X843450Y-535750D02*
Y-532500D01*
X838850Y-527900D02*
X843450Y-532500D01*
X839700Y-539500D02*
X843450Y-535750D01*
X788200Y-527900D02*
X838850D01*
X764500Y-551600D02*
X788200Y-527900D01*
X764500Y-551600D02*
X764500D01*
X763475Y-552625D02*
X764500Y-551600D01*
X404625Y-552625D02*
X763475D01*
X846950Y-535750D02*
X850700Y-539500D01*
X840300Y-524400D02*
X846950Y-531050D01*
Y-535750D02*
Y-531050D01*
X786750Y-524400D02*
X840300D01*
X762025Y-549125D02*
X786750Y-524400D01*
X403175Y-549125D02*
X762025D01*
X287550Y-582550D02*
X292400Y-577700D01*
X287550Y-569850D02*
X291900Y-574200D01*
X292400Y-577700D02*
X379550D01*
X404625Y-552625D01*
X291900Y-574200D02*
X378100D01*
X403175Y-549125D01*
X287550Y-607950D02*
X292200Y-603300D01*
X287550Y-595250D02*
X292100Y-599800D01*
X292200Y-603300D02*
X387450D01*
X292100Y-599800D02*
X386000D01*
X387450Y-603300D02*
X426125Y-564625D01*
X770875D01*
X771900Y-563600D01*
X771900D01*
X386000Y-599800D02*
X424675Y-561125D01*
X769425D01*
X795250Y-535300D01*
X771900Y-563600D02*
X796700Y-538800D01*
X795250Y-535300D02*
X824800D01*
X831250Y-541750D01*
Y-546250D02*
Y-541750D01*
X796700Y-538800D02*
X823350D01*
X827750Y-543200D01*
X831250Y-546250D02*
X835000Y-550000D01*
X827750Y-546250D02*
Y-543200D01*
X824000Y-550000D02*
X827750Y-546250D01*
X875350Y-493800D02*
X880950Y-488200D01*
X752100Y-493800D02*
X875350D01*
X741500Y-483200D02*
X752100Y-493800D01*
X876800Y-497300D02*
X884450Y-489650D01*
X750650Y-497300D02*
X876800D01*
X731650Y-478300D02*
X750650Y-497300D01*
X859350Y-483400D02*
X863150Y-479600D01*
X760100Y-483400D02*
X859350D01*
X748100Y-471400D02*
X760100Y-483400D01*
X860800Y-486900D02*
X866650Y-481050D01*
X758650Y-486900D02*
X860800D01*
X737650Y-465900D02*
X758650Y-486900D01*
X840650Y-470000D02*
X843450Y-467200D01*
X765600Y-470000D02*
X840650D01*
X755800Y-460200D02*
X765600Y-470000D01*
X842100Y-473500D02*
X846950Y-468650D01*
X764150Y-473500D02*
X842100D01*
X742650Y-452000D02*
X764150Y-473500D01*
X824950Y-458700D02*
X827750Y-455900D01*
X776000Y-458700D02*
X824950D01*
X760600Y-443300D02*
X776000Y-458700D01*
X826400Y-462200D02*
X831250Y-457350D01*
X774550Y-462200D02*
X826400D01*
X751050Y-438700D02*
X774550Y-462200D01*
X880950Y-488200D02*
Y-486270D01*
X884450Y-489650D02*
Y-486270D01*
X863150Y-479600D02*
Y-477270D01*
X866650Y-481050D02*
Y-477270D01*
X843450Y-467200D02*
Y-464370D01*
X846950Y-468650D02*
Y-464370D01*
X827750Y-455900D02*
Y-453870D01*
X831250Y-457350D02*
Y-453870D01*
X381500Y-438700D02*
X751050D01*
X831250Y-453870D02*
X835000Y-450120D01*
X343000Y-400200D02*
X381500Y-438700D01*
X292100Y-400200D02*
X343000D01*
X287550Y-404750D02*
X292100Y-400200D01*
X346500Y-398750D02*
X382950Y-435200D01*
X346500Y-398750D02*
X346500D01*
X760600Y-443300D02*
X760600D01*
X382950Y-435200D02*
X752500D01*
X287550Y-392050D02*
X292200Y-396700D01*
X344450D02*
X346500Y-398750D01*
X292200Y-396700D02*
X344450D01*
X824000Y-450120D02*
X827750Y-453870D01*
X752500Y-435200D02*
X760600Y-443300D01*
X733100Y-474800D02*
X741500Y-483200D01*
X322250Y-474800D02*
X733100D01*
X320150Y-472700D02*
X322250Y-474800D01*
X320800Y-478300D02*
X731650D01*
X318700Y-476200D02*
X320800Y-478300D01*
X739100Y-462400D02*
X748100Y-471400D01*
X349150Y-462400D02*
X739100D01*
X334250Y-447500D02*
X349150Y-462400D01*
X347700Y-465900D02*
X737650D01*
X332800Y-451000D02*
X347700Y-465900D01*
X744100Y-448500D02*
X755800Y-460200D01*
X371550Y-448500D02*
X744100D01*
X344350Y-421300D02*
X371550Y-448500D01*
X370100Y-452000D02*
X742650D01*
X342900Y-424800D02*
X370100Y-452000D01*
X287550Y-468250D02*
X292000Y-472700D01*
X287550Y-480950D02*
X292300Y-476200D01*
X292000Y-472700D02*
X320150D01*
X292300Y-476200D02*
X318700D01*
X741500Y-483200D02*
X741500D01*
X884450Y-486270D02*
X888200Y-482520D01*
X877200D02*
X880950Y-486270D01*
X287550Y-442850D02*
X292200Y-447500D01*
X287550Y-455550D02*
X292100Y-451000D01*
X292200Y-447500D02*
X334250D01*
X292100Y-451000D02*
X332800D01*
X748100Y-471400D02*
X748100D01*
X866650Y-477270D02*
X870400Y-473520D01*
X859400D02*
X863150Y-477270D01*
X287550Y-417450D02*
X291400Y-421300D01*
X287550Y-430150D02*
X292900Y-424800D01*
X342900D01*
X291400Y-421300D02*
X344350D01*
X755800Y-460200D02*
X755800D01*
X846950Y-464370D02*
X850700Y-460620D01*
X839700D02*
X843450Y-464370D01*
D24*
X1334789Y-461900D02*
D03*
X1360188Y-474600D02*
D03*
X1294402D02*
D03*
X1269003Y-461900D02*
D03*
X1294402Y-449200D02*
D03*
X1269003Y-436500D02*
D03*
X1294402Y-423800D02*
D03*
X1269003Y-411100D02*
D03*
X1294402Y-398400D02*
D03*
X1269003Y-385700D02*
D03*
X1294402Y-614300D02*
D03*
X1269003Y-601600D02*
D03*
X1294402Y-588900D02*
D03*
X1269003Y-576200D02*
D03*
X1294402Y-563500D02*
D03*
X1269003Y-550800D02*
D03*
X1294402Y-538100D02*
D03*
X1269003Y-525400D02*
D03*
D29*
X287550Y-607950D02*
D03*
Y-595250D02*
D03*
Y-582550D02*
D03*
Y-569850D02*
D03*
Y-557150D02*
D03*
Y-544450D02*
D03*
Y-531750D02*
D03*
Y-519050D02*
D03*
Y-480950D02*
D03*
Y-468250D02*
D03*
Y-455550D02*
D03*
Y-442850D02*
D03*
Y-430150D02*
D03*
Y-417450D02*
D03*
Y-404750D02*
D03*
Y-392050D02*
D03*
D31*
X839700Y-539500D02*
D03*
X850700D02*
D03*
X835000Y-450120D02*
D03*
X824000D02*
D03*
X877200Y-482520D02*
D03*
X888200D02*
D03*
X839700Y-460620D02*
D03*
X850700D02*
D03*
X859400Y-473520D02*
D03*
X870400D02*
D03*
X888200Y-517600D02*
D03*
X877200D02*
D03*
X859400Y-526600D02*
D03*
X870400D02*
D03*
X824000Y-550000D02*
D03*
X835000D02*
D03*
X763800Y-37610D02*
D03*
Y-47610D02*
D03*
X763975Y-89435D02*
D03*
Y-99435D02*
D03*
X763975Y-192035D02*
D03*
Y-202035D02*
D03*
X763800Y-807610D02*
D03*
Y-797610D02*
D03*
X763975Y-962035D02*
D03*
Y-952035D02*
D03*
X763975Y-910435D02*
D03*
Y-900435D02*
D03*
Y-859435D02*
D03*
Y-849435D02*
D03*
X763975Y-400035D02*
D03*
Y-410035D02*
D03*
X763975Y-150435D02*
D03*
Y-140435D02*
D03*
M02*
